<?xml version="1.0" encoding="UTF-8"?>
<svg width="128px" height="128px" viewBox="0 0 128 128" version="1.1" xmlns="http://www.w3.org/2000/svg" xmlns:xlink="http://www.w3.org/1999/xlink">

    <g id="网易云课堂备份-2" stroke="none" stroke-width="1" fill="none" fill-rule="evenodd">
        <path d="M71.4881972,56.5208333 C73.8038821,56.5208333 75.6811156,58.3956409 75.6811156,60.7083333 L75.6811156,64.7969686 C75.6811156,65.3627814 75.3405327,65.8729702 74.8179745,66.0899429 L69.878562,68.1408481 C68.3144742,68.7902767 67.2952789,70.315802 67.2952789,72.0074904 L67.2952789,85.1860741 C67.2952789,87.8976565 69.2460446,90.2172193 71.9203392,90.6855135 L82.9084311,92.609632 C83.5782742,92.7269279 84.0669522,93.3086137 84.0669522,93.988649 L84.0669522,97 L44.9330478,97 L44.9330478,93.9740479 C44.9330478,93.3005025 45.4126652,92.7224251 46.0746376,92.598103 L57.1473508,90.5185854 C59.7901731,90.0222485 61.7047211,87.7170978 61.7047211,85.0314284 L61.7047211,71.9711421 C61.7047211,70.2712675 60.6757687,68.7400578 59.1006264,68.0959239 L54.1889694,66.0873659 C53.6627236,65.8721646 53.3188844,65.3600777 53.3188844,64.7915302 L53.3188844,60.7083333 C53.3188844,58.3956409 55.1961179,56.5208333 57.5118028,56.5208333 L71.4881972,56.5208333 Z M67.0588525,30 C68.6730611,30 70.1444362,30.9251195 70.8439744,32.3798758 L71.9915225,34.7661074 C84.0973651,38.0513052 93,49.1051998 93,62.2357291 C93,69.884328 89.9605691,77.0610636 84.6525433,82.3622301 C82.5741227,84.4379647 80.1869533,86.1834834 77.576795,87.5317252 L73.8709717,81.5804801 C76.0346525,80.5328113 78.0093279,79.1268285 79.7111416,77.427214 C83.7216179,73.4219203 86.0118028,68.0143122 86.0118028,62.2357291 C86.0118028,50.3704414 76.3806406,40.7517252 64.5,40.7517252 C52.6193594,40.7517252 42.9881972,50.3704414 42.9881972,62.2357291 C42.9881972,68.0143122 45.2783821,73.4219203 49.2888584,77.427214 C50.7616094,78.8980618 52.4390495,80.1493218 54.2668737,81.1386911 L54.8816437,81.4587232 C52.3787928,85.4056773 51.0248426,87.3230364 50.8197932,87.2108003 C48.4441266,85.9104533 46.2642892,84.2765855 44.3474567,82.3622301 C39.0394309,77.0610636 36,69.884328 36,62.2357291 C36,48.9797955 45.0734977,37.8403523 57.3562028,34.6741115 L58.2751923,32.539929 C58.9383907,30.998658 60.4552924,30 62.1331924,30 L67.0588525,30 Z" id="形状结合" fill="#FFFFFF"></path>
    </g>
</svg>