<svg xmlns="http://www.w3.org/2000/svg" xmlns:xlink="http://www.w3.org/1999/xlink" width="32" height="32" viewBox="0 0 32 32" fill="none"><defs><rect id="path_0" x="0" y="0" width="22" height="22" /></defs><g opacity="1" transform="translate(0 0)  rotate(0 16 15.999999999999998)"><path id="矩形 1" fill-rule="evenodd" transform="translate(0 0)  rotate(0 16 15.999999999999998)" opacity="1" d="M0,32L32,32L32,0L0,0L0,32Z " /><g opacity="1" transform="translate(5 5)  rotate(0 11 11)"><mask id="bg-mask-0" fill="white"><use xlink:href="#path_0"></use></mask><g mask="url(#bg-mask-0)" ><path id="分组 1" fill-rule="evenodd" style="fill:#1E7149" transform="translate(0.10999999999997279 5.4450000000000145)  rotate(0 10.918880278609471 5.817202212042546)" opacity="1" d="M0 3.57L1.82 3.57L0.77 11.55L3.3 11.55L4.84 0L0 2.25L0 3.57Z M12.32 9.18313L9.46 9.18313C9.46 9.18313 11.66 6.21313 12.16 3.90313C12.65 1.59313 10.18 -1.31687 5.72 1.26313L5.39 3.63313C5.39 3.63313 6.71 2.09313 7.98 2.36313C9.29 2.64313 9.68 4.62313 7.54 7.26313C5.39 9.95313 3.85 11.4931 3.85 11.4931L11.22 11.4931L12.32 9.18313Z M17.8218 3.735L20.9518 0.335L17.7118 0.275C17.7118 0.275 15.0718 2.635 13.7518 4.345C12.4318 6.055 11.9918 8.475 13.6418 10.345C15.2918 12.215 18.3118 11.665 19.3618 11.115C20.3518 10.565 22.3318 9.015 21.7218 6.215C21.1218 3.465 17.8218 3.735 17.8218 3.735Z M19.2545 6.98195C18.9245 5.94195 17.7145 5.39195 16.5045 5.77195C15.2945 6.10195 14.5745 7.26195 14.9045 8.30195C15.2345 9.35195 16.4445 9.90195 17.6545 9.51195C18.8645 9.13195 19.5845 7.97195 19.2545 6.98195Z " /></g></g></g></svg>