<svg xmlns="http://www.w3.org/2000/svg" xmlns:xlink="http://www.w3.org/1999/xlink" width="32" height="32" viewBox="0 0 32 32" fill="none"><g opacity="1" transform="translate(0 0)  rotate(0 16 15.999999999999998)"><path id="矩形 1" fill-rule="evenodd"  transform="translate(0 0)  rotate(0 16 15.999999999999998)" opacity="1" d="M0,32L32,32L32,0L0,0L0,32Z " /><path id="分组 1" fill-rule="evenodd" style="fill:#FFFFFF" transform="translate(8.118622768407349 7)  rotate(0 7.8813772315924036 9)" opacity="1" d="M1.39914 9.74C0.379137 9.74 -0.100863 10.15 0.119137 10.83C0.339137 11.52 1.72914 11.44 4.22914 10.55C5.04914 10.24 6.89914 8.79 7.35914 8.05C7.72914 7.48 7.76914 7.46 9.89914 7.48C12.5491 7.5 13.3791 7.24 13.8191 6.18C14.2091 5.24 14.2291 4.64 13.8991 3.29C13.3591 1.02 13.0591 0.7 11.2091 0.22C10.2291 -0.04 6.39914 -0.08 5.22914 0.16C4.15914 0.37 3.92914 0.55 3.92914 1.2C3.92914 1.74 3.94914 1.74 5.07914 1.59C6.59914 1.35 10.4291 1.44 11.0991 1.72C11.8591 2 12.1591 2.57 12.3191 3.94C12.4891 5.46 12.0091 6.05 10.6191 6.05C10.0991 6.07 8.55914 6.11 7.13914 6.16C3.96914 6.26 3.83914 6.16 3.79914 3.76C3.76914 2.89 3.70914 2.09 3.61914 1.94C3.37914 1.55 2.66914 1.66 2.39914 2.11C2.15914 2.59 2.11914 4.66 2.35914 5.83C2.61914 7.2 3.09914 7.63 4.46914 7.74C5.48914 7.83 5.63914 7.89 5.39914 8.15C4.78914 8.89 2.67914 9.74 1.39914 9.74Z M5.05017 4.01982C5.12017 4.36982 5.40017 4.41982 7.84017 4.41982L10.5502 4.38982L10.6202 3.80982C10.7002 3.10982 10.8602 3.15982 7.77017 3.12982C6.16017 3.10982 5.34017 3.19982 5.18017 3.36982C5.07017 3.52982 5.01017 3.80982 5.05017 4.01982Z M8.11537 15.1717C8.31537 15.1717 8.48537 15.0417 8.48537 14.8917C8.48537 14.7117 9.05537 14.1117 9.72537 13.5217C11.7454 11.7817 11.8154 11.7117 11.5054 11.3417C11.1654 10.9117 11.0354 10.9617 9.85537 11.8717C6.92537 14.2017 4.44537 15.5917 2.03537 16.2417C0.615368 16.6317 0.535369 18.0017 1.92537 18.0017C2.77537 18.0017 5.20537 16.9517 6.53537 16.0217C7.20537 15.5417 7.92537 15.1717 8.11537 15.1717Z M8.56 8.75946C8.64 9.25946 8.4 9.47946 6.23 10.9095C4.71 11.9395 3.34 12.6495 2.51 12.8895C0.1 13.5895 -0.36 13.9395 0.23 14.6295C1.14 15.7195 5.19 13.6795 9.53 9.91946C10.47 9.10946 11.29 9.15946 11.71 9.99946C11.92 10.4795 12.14 10.6095 12.71 10.6095C14.27 10.6095 14.75 12.4095 13.62 14.0695C12.49 15.6995 10.53 16.4395 9.16 15.7395C8.56 15.4095 8.47 15.4095 8.36 15.7195C8.19 16.1295 8.62 17.1995 9.16 17.6995C9.99 18.4395 12.42 17.6795 14.16 16.1095C15.27 15.1095 15.64 14.4195 15.75 13.0695C15.94 10.6395 14.08 8.37946 11.58 8.08946C11.01 8.02946 10.32 7.93946 10.01 7.91946C9.71 7.86946 9.23 7.91946 8.95 8.02946C8.56 8.17946 8.47 8.34946 8.56 8.75946Z " /></g></svg>