<svg xmlns="http://www.w3.org/2000/svg" xmlns:xlink="http://www.w3.org/1999/xlink" width="32" height="32" viewBox="0 0 32 32" fill="none"><g opacity="1" transform="translate(0 0)  rotate(0 16 15.999999999999998)"><path id="矩形 1" fill-rule="evenodd"  transform="translate(0 0)  rotate(0 16 15.999999999999998)" opacity="1" d="M0,32L32,32L32,0L0,0L0,32Z " /><path id="分组 1" fill-rule="evenodd" style="fill:#FFFFFF" transform="translate(7 7.286636055281633)  rotate(0 9 8.713363944718473)" opacity="1" d="M10.09 5.44C9.75 5.83 9.41 6.19 9.17 6.56C8.9 6.93 8.77 7.27 8.76 7.58C8.81 10.1 16.49 6.39 18 5.42C15.79 6.33 13.4 7.21 10.8 7.37C10.06 7.42 10.13 7.04 10.57 6.48C11.56 5.2 13.41 3.45 13.49 2.17C13.6 0.51 11.89 0 10.11 0C8.88 0.03 7.61 0.36 6.74 0.66C3.74 1.69 1.86 3.3 0.67 5.11C-0.56 6.9 -0.18 8.62 2.49 8.67C4.5 8.59 5.85 8.04 7.22 7.36C7.19 7.37 3.41 8.41 2.01 7.64C1.85 7.56 1.7 7.45 1.66 7.14C1.66 6.51 2.73 5.84 3.37 5.63L3.37 4.55C4.74 5.02 6.26 4.79 7.43 3.93C7.48 4.06 7.51 4.2 7.5 4.33L7.72 4.33C7.75 4.12 7.68 3.9 7.54 3.73C7.4 3.56 7.19 3.46 6.97 3.45C7.12 3.56 7.22 3.65 7.27 3.73L7.25 3.75L7.24 3.76C5.58 4.89 3.98 4.36 3.82 4.33L4.75 3.46L4.49 2.83C6.32 2.2 7.83 1.75 10.35 1.32L9.79 0.87L10.08 0.7C11.58 1.11 12.58 1.41 12.53 2.17C12.5 2.33 12.45 2.48 12.37 2.61C11.93 3.47 10.62 4.85 10.09 5.44Z M7.22 7.36C7.22 7.36 7.22 7.36 7.22 7.36C7.22 7.36 7.22 7.36 7.22 7.36Z M12.556 1.86801C12.546 1.75801 12.526 1.64801 12.476 1.56801C12.516 1.66801 12.546 1.76801 12.556 1.86801Z M12.546 2.06801C12.556 2.00801 12.556 1.93801 12.556 1.86801C12.556 1.92801 12.556 1.99801 12.546 2.06801Z M1.61327 13.0434C1.37327 13.1734 1.14327 13.2634 0.933273 13.3234L0.933273 14.0934C1.37327 13.9634 1.73327 13.7734 2.02327 13.5134L2.02327 17.3334L2.80327 17.3334L2.80327 12.5734L2.21327 12.5734C2.05327 12.7434 1.85327 12.8934 1.61327 13.0434Z M5.30595 12.48C4.75595 12.48 4.31595 12.72 3.99595 13.2C3.66595 13.68 3.50595 14.31 3.50595 15.09C3.50595 15.81 3.65595 16.38 3.95595 16.79C4.26595 17.21 4.71595 17.43 5.29595 17.43C5.77595 17.43 6.17595 17.27 6.49595 16.96C6.81595 16.65 6.97595 16.26 6.97595 15.78C6.97595 15.31 6.83595 14.93 6.55595 14.63C6.27595 14.33 5.90595 14.18 5.43595 14.18C5.19595 14.18 4.98595 14.22 4.79595 14.31C4.59595 14.41 4.43595 14.55 4.29595 14.75L4.26595 14.75L4.26595 14.69C4.26595 14.25 4.35595 13.88 4.53595 13.59C4.72595 13.27 4.97595 13.12 5.29595 13.12C5.75595 13.12 6.03595 13.34 6.12595 13.78L6.88595 13.78C6.76595 12.91 6.23595 12.48 5.30595 12.48Z M4.59595 15.0834C4.42595 15.2534 4.34595 15.5034 4.34595 15.8034C4.34595 16.1034 4.43595 16.3434 4.60595 16.5234C4.77595 16.6934 4.99595 16.7834 5.27595 16.7834C5.55595 16.7834 5.77595 16.6834 5.94595 16.5034C6.11595 16.3134 6.20595 16.0734 6.20595 15.7834C6.20595 15.4834 6.11595 15.2534 5.95595 15.0834C5.78595 14.9034 5.55595 14.8134 5.27595 14.8134C4.97595 14.8134 4.75595 14.9034 4.59595 15.0834Z M10.592 15.22C10.432 15.01 10.242 14.88 10.022 14.82L10.022 14.81C10.252 14.71 10.422 14.57 10.542 14.4C10.652 14.23 10.702 14.03 10.702 13.79C10.702 13.43 10.562 13.13 10.302 12.89C9.99196 12.61 9.58196 12.48 9.08196 12.48C8.56196 12.48 8.16196 12.61 7.86196 12.89C7.58196 13.13 7.45196 13.43 7.45196 13.79C7.45196 14.03 7.50196 14.23 7.61196 14.4C7.72196 14.57 7.90196 14.71 8.14196 14.81L8.14196 14.82C7.91196 14.88 7.72196 15.01 7.56196 15.22C7.38196 15.45 7.29196 15.71 7.29196 16C7.29196 16.43 7.44196 16.77 7.76196 17.03C8.06196 17.29 8.50196 17.43 9.08196 17.43C9.64196 17.43 10.082 17.29 10.402 17.03C10.702 16.77 10.862 16.43 10.862 16C10.862 15.71 10.772 15.45 10.592 15.22Z M8.4053 13.33C8.2553 13.46 8.1853 13.62 8.1853 13.81C8.1853 14.03 8.2453 14.21 8.3653 14.33C8.5153 14.49 8.7453 14.57 9.0753 14.57C9.4053 14.57 9.6453 14.49 9.7953 14.33C9.9153 14.21 9.9753 14.03 9.9753 13.81C9.9753 13.62 9.8953 13.46 9.7553 13.33C9.5753 13.17 9.3553 13.1 9.0753 13.1C8.7953 13.1 8.5753 13.17 8.4053 13.33Z M8.3153 15.3867C8.1453 15.5367 8.0653 15.7467 8.0653 15.9967C8.0653 16.2367 8.1553 16.4367 8.3353 16.5767C8.5053 16.7267 8.7553 16.7967 9.0753 16.7967C9.3953 16.7967 9.6553 16.7167 9.8353 16.5767C10.0053 16.4267 10.0953 16.2367 10.0953 15.9967C10.0953 15.7467 10.0053 15.5367 9.8453 15.3967C9.6653 15.2267 9.4153 15.1467 9.0753 15.1467C8.7453 15.1467 8.4953 15.2267 8.3153 15.3867Z M11.6006 17.03C11.9006 17.29 12.3406 17.43 12.9206 17.43C13.4806 17.43 13.9206 17.29 14.2406 17.03C14.5406 16.77 14.7006 16.43 14.7006 16C14.7006 15.71 14.6106 15.45 14.4306 15.22C14.2706 15.01 14.0806 14.88 13.8606 14.82L13.8606 14.81C14.0906 14.71 14.2606 14.57 14.3806 14.4C14.4906 14.23 14.5406 14.03 14.5406 13.79C14.5406 13.43 14.4006 13.13 14.1406 12.89C13.8306 12.61 13.4206 12.48 12.9206 12.48C12.4006 12.48 12.0006 12.61 11.7006 12.89C11.4206 13.13 11.2906 13.43 11.2906 13.79C11.2906 14.03 11.3406 14.23 11.4506 14.4C11.5606 14.57 11.7406 14.71 11.9806 14.81L11.9806 14.82C11.7506 14.88 11.5606 15.01 11.4006 15.22C11.2206 15.45 11.1306 15.71 11.1306 16C11.1306 16.43 11.2806 16.77 11.6006 17.03Z M12.244 13.33C12.094 13.46 12.024 13.62 12.024 13.81C12.024 14.03 12.084 14.21 12.204 14.33C12.354 14.49 12.584 14.57 12.914 14.57C13.244 14.57 13.484 14.49 13.634 14.33C13.754 14.21 13.814 14.03 13.814 13.81C13.814 13.62 13.734 13.46 13.594 13.33C13.414 13.17 13.194 13.1 12.914 13.1C12.634 13.1 12.414 13.17 12.244 13.33Z M12.154 15.3867C11.984 15.5367 11.904 15.7467 11.904 15.9967C11.904 16.2367 11.994 16.4367 12.174 16.5767C12.344 16.7267 12.594 16.7967 12.914 16.7967C13.234 16.7967 13.494 16.7167 13.674 16.5767C13.844 16.4267 13.934 16.2367 13.934 15.9967C13.934 15.7467 13.844 15.5367 13.684 15.3967C13.504 15.2267 13.254 15.1467 12.914 15.1467C12.584 15.1467 12.334 15.2267 12.154 15.3867Z " /></g></svg>