<svg xmlns="http://www.w3.org/2000/svg" xmlns:xlink="http://www.w3.org/1999/xlink" width="32" height="32" viewBox="0 0 32 32" fill="none"><defs><rect id="path_0" x="0" y="0" width="18" height="18" /></defs><g opacity="1" transform="translate(0 0)  rotate(0 16.000000000000004 15.999999999999998)"><path id="矩形 1" fill-rule="evenodd"   transform="translate(0 0)  rotate(0 16.000000000000004 15.999999999999998)" opacity="1" d="M0,32L32,32L32,0L0,0L0,32Z " /><g opacity="1" transform="translate(7 7)  rotate(0 9 9)"><mask id="bg-mask-0" fill="white"><use xlink:href="#path_0"></use></mask><g mask="url(#bg-mask-0)" ><path id="分组 1" fill-rule="evenodd" style="fill:#FFFFFF" transform="translate(0.09000000000000259 0.08999999999999098)  rotate(0 8.910000000000002 8.8875)" opacity="1" d="M1.70697e-15 0L1.70697e-15 5.09L5.85 5.09L5.85 8.19L7.79 8.19L7.79 0L5.85 0L5.85 3.11L1.93 3.11L1.93 0L1.70697e-15 0Z M1.98 12.735L5.9 12.735L5.9 11.565L1.98 11.565L1.98 12.735Z M11.925 12.735L15.845 12.735L15.845 11.565L11.925 11.565L11.925 12.735Z M9.99 14.665L15.84 14.665L15.84 15.835L9.99 15.835L9.99 17.775L17.82 17.775L17.82 9.585L9.99 9.585L9.99 14.665Z M0 14.665L5.85 14.665L5.85 15.835L0 15.835L0 17.775L7.83 17.775L7.83 9.585L0 9.585L0 14.665Z M9.99 3.15L9.99 5.09L15.84 5.09L15.84 6.26L9.99 6.26L9.99 8.19L17.82 8.19L17.82 0L9.99 0L9.99 1.98L15.84 1.98L15.84 3.15L9.99 3.15Z " /></g></g></g></svg>