<svg width="100" height="100" viewBox="0 0 100 100" fill="none" xmlns="http://www.w3.org/2000/svg">
<path d="M100 0H0V100H100V0Z"/>
<path d="M42.1997 42.0899C42.3997 41.8499 42.6197 41.5299 42.8597 41.1299C43.0997 40.7099 43.2897 40.2899 43.4297 39.8699C43.5897 39.4299 43.6597 38.9999 43.6397 38.5799C43.6197 38.1599 43.4497 37.8099 43.1297 37.5299C42.9097 37.3499 42.6597 37.2499 42.3797 37.2299C42.0997 37.2099 41.7997 37.2399 41.4797 37.3199C41.1797 37.3999 40.8697 37.5099 40.5497 37.6499C40.2297 37.7899 39.9197 37.9299 39.6197 38.0699C40.0597 38.7499 40.4697 39.4499 40.8497 40.1699C41.2297 40.8699 41.6397 41.5599 42.0797 42.2399L42.1997 42.0899ZM39.1097 44.1299C39.5497 44.1499 40.0097 43.9899 40.4897 43.6499C40.0497 42.8099 39.6697 41.9599 39.3497 41.0999C39.0497 40.2399 38.7997 39.3899 38.5997 38.5499C38.5597 39.3899 38.4997 40.1999 38.4197 40.9799C38.3597 41.3799 38.2997 41.8299 38.2397 42.3299C38.1797 42.8099 38.0997 43.3099 37.9997 43.8299C38.2197 43.7899 38.3897 43.8199 38.5097 43.9199C38.6497 44.0199 38.8497 44.0899 39.1097 44.1299ZM37.7597 31.4099C38.0597 32.3699 38.2797 33.3399 38.4197 34.3199C38.5597 35.2799 38.6297 36.2699 38.6297 37.2899C38.7097 37.2099 38.8097 37.1899 38.9297 37.2299C39.3497 36.8699 39.8297 36.5699 40.3697 36.3299C40.0697 36.0699 39.9197 35.7699 39.9197 35.4299C39.8797 34.7299 39.8797 34.0099 39.9197 33.2699C39.9597 32.5299 40.0297 31.7899 40.1297 31.0499C39.7297 31.1099 39.3297 31.1799 38.9297 31.2599C38.5497 31.3199 38.1597 31.3699 37.7597 31.4099ZM47.7498 45.0599C47.8698 45.7799 47.7398 46.3099 47.3598 46.6499C46.9998 46.9699 46.5398 47.1599 45.9798 47.2199C45.4198 47.2799 44.8298 47.2299 44.2098 47.0699C43.5897 46.8899 43.0897 46.6499 42.7097 46.3499C42.4897 46.1899 42.2697 45.9999 42.0497 45.7799C41.8497 45.5599 41.6497 45.3199 41.4497 45.0599C41.3297 45.1399 41.2097 45.2099 41.0897 45.2699C40.9697 45.3299 40.8397 45.3999 40.6997 45.4799C40.4797 45.5999 40.2197 45.7099 39.9197 45.8099C39.6197 45.8899 39.3197 45.9399 39.0197 45.9599C38.7197 45.9799 38.4297 45.9599 38.1497 45.8999C37.8897 45.8199 37.6897 45.6699 37.5497 45.4499C37.3297 46.0299 37.0297 46.5199 36.6497 46.9199C36.2697 47.2999 35.7797 47.5499 35.1797 47.6699C34.8797 47.7299 34.5997 47.6799 34.3397 47.5199C34.0997 47.3799 33.9097 47.1999 33.7697 46.9799C33.6497 46.7399 33.6097 46.4999 33.6497 46.2599C33.7097 45.9999 33.9097 45.7899 34.2497 45.6299C34.6897 45.3099 35.0397 44.8499 35.2997 44.2499C35.5597 43.6499 35.7597 43.0099 35.8997 42.3299C36.0597 41.6299 36.1797 40.9399 36.2597 40.2599C36.3397 39.5599 36.4197 38.9599 36.4997 38.4599C36.6797 37.1999 36.7797 35.9699 36.7997 34.7699C36.8197 33.5699 36.8797 32.3399 36.9797 31.0799C36.8597 30.9199 36.8797 30.7799 37.0397 30.6599C37.0797 30.5999 37.1497 30.5499 37.2497 30.5099C37.6497 30.2299 38.1297 29.9999 38.6897 29.8199C39.2497 29.6199 39.8497 29.4599 40.4897 29.3399C40.7297 28.4799 41.0897 27.6699 41.5697 26.9099C41.6697 26.7499 41.7997 26.7099 41.9597 26.7899C42.1397 26.8499 42.2397 26.9599 42.2597 27.1199C42.2997 27.4599 42.3197 27.7999 42.3197 28.1399C42.3197 28.4799 42.3197 28.8199 42.3197 29.1599C43.4198 29.1199 44.4198 29.2799 45.3198 29.6399C46.2198 29.9799 46.8298 30.5899 47.1498 31.4699C47.3098 31.9299 47.3498 32.4099 47.2698 32.9099C47.2098 33.3899 47.0598 33.8499 46.8198 34.2899C46.5998 34.7299 46.3098 35.1099 45.9498 35.4299C45.5898 35.7499 45.1997 35.9699 44.7797 36.0899C44.3797 36.1899 43.9697 36.1699 43.5497 36.0299C43.1297 35.8899 42.7497 35.5699 42.4097 35.0699C42.2697 34.8899 42.2697 34.7099 42.4097 34.5299C42.5497 34.3299 42.7197 34.2299 42.9197 34.2299C43.1797 34.2299 43.4397 34.2299 43.6997 34.2299C43.9597 34.2099 44.1998 34.1699 44.4198 34.1099C44.6598 34.0299 44.8698 33.9099 45.0498 33.7499C45.2498 33.5899 45.4098 33.3499 45.5298 33.0299C45.6898 32.5699 45.7098 32.1999 45.5898 31.9199C45.4698 31.6199 45.2598 31.3899 44.9598 31.2299C44.6798 31.0699 44.3498 30.9599 43.9698 30.8999C43.6098 30.8399 43.2697 30.8099 42.9497 30.8099H42.2597C42.2397 31.5699 42.2197 32.3299 42.1997 33.0899C42.1997 33.8499 42.2497 34.6099 42.3497 35.3699C42.3897 35.5299 42.3597 35.6899 42.2597 35.8499C42.7797 35.8499 43.2297 35.9499 43.6097 36.1499C43.9898 36.3699 44.2797 36.6599 44.4797 37.0199C44.6997 37.3599 44.8497 37.7299 44.9297 38.1299C45.0097 38.5099 45.0298 38.9099 44.9898 39.3299C44.9498 39.7499 44.8797 40.1399 44.7797 40.4999C44.4397 41.6799 43.8797 42.7199 43.0997 43.6199C43.6197 44.1799 44.1797 44.5499 44.7797 44.7299C45.3997 44.9099 46.1598 44.8799 47.0598 44.6399C47.1998 44.5999 47.3398 44.6199 47.4798 44.6999C47.6198 44.7799 47.7098 44.8999 47.7498 45.0599ZM33.4097 40.0799C33.5097 39.9399 33.6197 39.7699 33.7397 39.5699C33.8597 39.3699 33.9397 39.1699 33.9797 38.9699C34.0197 38.7699 33.9997 38.5899 33.9197 38.4299C33.8397 38.2499 33.6497 38.1199 33.3497 38.0399C33.1697 37.9999 32.9297 38.0199 32.6297 38.0999C32.3497 38.1599 32.1197 38.2199 31.9397 38.2799C31.5797 38.3799 31.2297 38.4999 30.8897 38.6399C30.5497 38.7599 30.2097 38.8999 29.8697 39.0599C29.9097 39.3399 29.9297 39.6099 29.9297 39.8699C29.9497 40.1299 29.9797 40.3999 30.0197 40.6799C30.0597 40.9599 30.1197 41.2399 30.1997 41.5199C30.2797 41.7999 30.3597 42.0799 30.4397 42.3599C30.4197 42.3599 30.4897 42.3399 30.6497 42.2999C30.8297 42.2599 30.9997 42.1899 31.1597 42.0899C31.3397 41.9899 31.5097 41.8899 31.6697 41.7899C32.3497 41.3499 32.9297 40.7799 33.4097 40.0799ZM33.7697 36.6899C34.1697 36.7499 34.4897 36.8999 34.7297 37.1399C34.9697 37.3799 35.1397 37.6599 35.2397 37.9799C35.3597 38.2799 35.4197 38.6199 35.4197 38.9999C35.4397 39.3599 35.4097 39.6999 35.3297 40.0199C35.1497 40.8599 34.7997 41.6299 34.2797 42.3299C33.7597 43.0299 33.1497 43.6199 32.4497 44.0999C32.0497 44.3799 31.5897 44.6099 31.0697 44.7899C30.5497 44.9699 30.0597 44.9999 29.5997 44.8799C29.4597 44.8799 29.3697 44.8699 29.3297 44.8499C28.8897 44.7499 28.5497 44.5499 28.3097 44.2499C28.0897 43.9299 27.9297 43.5699 27.8297 43.1699C27.7497 42.7499 27.7097 42.3199 27.7097 41.8799C27.7297 41.4199 27.7597 41.0099 27.7997 40.6499V40.4699C27.6197 40.5899 27.3697 40.6899 27.0497 40.7699C26.6097 40.8699 26.1997 40.8099 25.8197 40.5899C25.4397 40.3699 25.2397 40.0099 25.2197 39.5099C25.2197 39.1499 25.2897 38.8899 25.4297 38.7299C25.5697 38.5699 25.7697 38.3899 26.0297 38.1899C26.4297 37.9099 26.7997 37.6299 27.1397 37.3499C27.4997 37.0699 27.8497 36.7499 28.1897 36.3899C28.6697 35.8699 29.0897 35.3299 29.4497 34.7699C29.8097 34.2099 30.1497 33.6399 30.4697 33.0599C29.6297 33.0799 28.8297 32.9999 28.0697 32.8199C27.3297 32.6399 26.7297 32.3599 26.2697 31.9799C26.1697 31.9199 26.1197 31.8299 26.1197 31.7099C26.1397 31.5899 26.2197 31.5099 26.3597 31.4699C27.0597 31.3699 27.7597 31.3299 28.4597 31.3499C29.1797 31.3699 29.8897 31.2999 30.5897 31.1399C30.9097 31.0799 31.2297 30.9799 31.5497 30.8399C31.8897 30.6999 32.2197 30.5699 32.5397 30.4499C32.8797 30.3099 33.2097 30.1899 33.5297 30.0899C33.8697 29.9899 34.2097 29.9399 34.5497 29.9399C34.8297 29.9399 35.0397 30.0699 35.1797 30.3299C35.3197 30.5699 35.3097 30.8099 35.1497 31.0499C34.8497 31.5299 34.4297 31.9199 33.8897 32.2199C33.3497 32.5199 32.7297 32.7399 32.0297 32.8799C31.9297 33.5999 31.7597 34.3199 31.5197 35.0399C31.2797 35.7399 30.9997 36.3899 30.6797 36.9899C30.6397 37.0699 30.5897 37.1499 30.5297 37.2299C30.4897 37.3099 30.4497 37.3999 30.4097 37.4999C30.9297 37.1799 31.4897 36.9399 32.0897 36.7799C32.6897 36.6199 33.2497 36.5899 33.7697 36.6899ZM67.9398 43.3799C68.0798 42.8999 68.0098 42.5199 67.7298 42.2399C67.4498 41.9399 67.0798 41.7199 66.6198 41.5799C66.1598 41.4399 65.6798 41.3599 65.1798 41.3399C64.6798 41.2999 64.2998 41.2899 64.0398 41.3099C63.9398 41.3099 63.7398 41.3199 63.4398 41.3399C63.1398 41.3599 62.7998 41.3899 62.4198 41.4299C62.0398 41.4499 61.6698 41.4799 61.3098 41.5199C60.9498 41.5399 60.6798 41.5699 60.4998 41.6099C60.5998 42.1299 60.6798 42.6599 60.7398 43.1999C60.8198 43.7199 60.9998 44.1699 61.2798 44.5499C61.7798 44.7099 62.2598 44.8299 62.7198 44.9099C63.1998 44.9699 63.7098 44.9799 64.2498 44.9399C64.5098 44.9199 64.8298 44.8899 65.2098 44.8499C65.6098 44.7899 65.9898 44.7099 66.3498 44.6099C66.7298 44.5099 67.0598 44.3599 67.3398 44.1599C67.6398 43.9599 67.8398 43.6999 67.9398 43.3799ZM65.8698 39.3299C66.3898 39.3699 66.9098 39.4799 67.4298 39.6599C67.9498 39.8199 68.4298 40.0499 68.8698 40.3499C69.3098 40.6499 69.6698 41.0299 69.9498 41.4899C70.2498 41.9299 70.4298 42.4299 70.4898 42.9899C70.5498 43.6499 70.4498 44.2399 70.1898 44.7599C69.9298 45.2799 69.5698 45.7299 69.1098 46.1099C68.6698 46.4899 68.1598 46.7999 67.5798 47.0399C67.0198 47.2799 66.4598 47.4399 65.8998 47.5199C65.4598 47.5999 64.9598 47.6699 64.3998 47.7299C63.8598 47.7899 63.3098 47.8099 62.7498 47.7899C62.1898 47.7699 61.6598 47.6899 61.1598 47.5499C60.6598 47.4099 60.2498 47.1599 59.9298 46.7999C59.5898 46.7799 59.2798 46.6599 58.9998 46.4399C58.5798 46.0599 58.3198 45.5599 58.2198 44.9399C58.1398 44.2999 58.0998 43.7199 58.0998 43.1999C58.1198 42.6599 58.1998 42.1199 58.3398 41.5799C58.4798 41.0199 58.7698 40.5499 59.2098 40.1699C59.3898 40.0099 59.5898 39.9799 59.8098 40.0799C60.0498 40.1799 60.1798 40.3299 60.1998 40.5299C60.1998 40.5499 60.1998 40.5699 60.1998 40.5899C60.2198 40.6099 60.2298 40.6299 60.2298 40.6499C60.5698 40.3899 60.9898 40.1699 61.4898 39.9899C61.9898 39.8099 62.4998 39.6699 63.0198 39.5699C63.5598 39.4699 64.0798 39.3999 64.5798 39.3599C65.0998 39.3199 65.5298 39.3099 65.8698 39.3299ZM65.0898 35.9699C65.2698 35.8099 65.3998 35.6399 65.4798 35.4599C65.5598 35.2599 65.5298 35.0499 65.3898 34.8299C65.2898 34.6699 65.1398 34.5299 64.9398 34.4099C64.7398 34.2699 64.5098 34.1499 64.2498 34.0499C64.0098 33.9499 63.7498 33.8599 63.4698 33.7799C63.1898 33.6999 62.9198 33.6299 62.6598 33.5699C62.5998 34.0299 62.5398 34.4799 62.4798 34.9199C62.4398 35.3599 62.3798 35.7999 62.2998 36.2399L63.8298 36.1199C64.0498 36.0799 64.2598 36.0499 64.4598 36.0299C64.6598 36.0099 64.8698 35.9899 65.0898 35.9699ZM73.1298 35.1299C73.3498 35.2299 73.5198 35.3999 73.6398 35.6399C73.7798 35.8599 73.7698 36.0799 73.6098 36.2999C73.1298 36.9199 72.4898 37.3999 71.6898 37.7399C70.9098 38.0799 70.0598 38.3299 69.1398 38.4899C68.2398 38.6499 67.3298 38.7599 66.4098 38.8199C65.4898 38.8599 64.6598 38.8899 63.9198 38.9099C62.1598 38.9699 60.3798 38.9099 58.5798 38.7299C56.7998 38.5499 55.0998 38.1199 53.4798 37.4399C53.3798 37.4199 53.3098 37.3699 53.2698 37.2899C53.2298 37.2099 53.2098 37.1299 53.2098 37.0499C53.2098 36.9499 53.2298 36.8699 53.2698 36.8099C53.3298 36.7299 53.4098 36.6899 53.5098 36.6899C54.5298 36.5899 55.5398 36.5199 56.5398 36.4799C57.5598 36.4399 58.5798 36.3999 59.5998 36.3599C59.6598 35.8399 59.7598 35.3299 59.8998 34.8299C60.0398 34.3099 60.1898 33.7999 60.3498 33.2999C59.9498 33.2799 59.5298 33.2499 59.0898 33.2099C58.6498 33.1699 58.2798 33.0999 57.9798 32.9999L57.0798 33.0899C56.8798 33.1099 56.7798 33.0399 56.7798 32.8799C56.7198 32.8199 56.6798 32.7499 56.6598 32.6699C56.6598 32.5699 56.6798 32.4899 56.7198 32.4299C56.9198 32.1899 57.1898 32.0099 57.5298 31.8899C57.8698 31.7699 58.2398 31.6899 58.6398 31.6499C59.0598 31.5899 59.4698 31.5599 59.8698 31.5599C60.2898 31.5399 60.6698 31.5299 61.0098 31.5299C61.0898 31.2699 61.1798 31.0399 61.2798 30.8399C61.3798 30.6199 61.4898 30.4099 61.6098 30.2099C60.5898 29.9499 59.6698 29.5599 58.8498 29.0399C58.0498 28.5199 57.4598 27.8399 57.0798 26.9999C56.9998 26.8399 57.0198 26.6799 57.1398 26.5199C57.2598 26.3599 57.4098 26.3199 57.5898 26.3999C58.2498 26.5799 58.8798 26.8199 59.4798 27.1199C60.0798 27.4199 60.7298 27.6399 61.4298 27.7799C62.2698 27.9399 63.0698 27.9899 63.8298 27.9299C64.6098 27.8699 65.3998 27.7599 66.1998 27.5999C66.6198 27.5199 66.9798 27.5899 67.2798 27.8099C67.5998 28.0299 67.8098 28.2999 67.9098 28.6199C68.0098 28.9399 67.9998 29.2599 67.8798 29.5799C67.7598 29.8999 67.4798 30.1199 67.0398 30.2399C66.4798 30.3999 65.8498 30.4999 65.1498 30.5399C64.4698 30.5799 63.7698 30.5499 63.0498 30.4499C63.0498 30.8299 63.0198 31.1999 62.9598 31.5599C63.5998 31.5999 64.2298 31.6999 64.8498 31.8599C65.4698 31.9999 66.0598 32.2299 66.6198 32.5499C67.2398 32.8899 67.6998 33.3199 67.9998 33.8399C68.2998 34.3399 68.4698 34.8599 68.5098 35.3999L69.4998 35.2199C70.1798 35.0999 70.7898 34.9999 71.3298 34.9199C71.8698 34.8199 72.4698 34.8899 73.1298 35.1299ZM45.1098 68.1499C45.4698 68.0699 45.7598 68.1299 45.9798 68.3299C46.2198 68.5099 46.3698 68.7399 46.4298 69.0199C46.4898 69.2799 46.4598 69.5499 46.3398 69.8299C46.2198 70.0899 45.9798 70.2599 45.6198 70.3399C45.2198 70.4399 44.7597 70.5599 44.2397 70.6999C43.7397 70.8199 43.2197 70.9199 42.6797 70.9999C42.7197 71.3999 42.7797 71.7799 42.8597 72.1399C42.9597 72.4999 43.0597 72.8399 43.1597 73.1599L43.3397 73.4599L43.5497 74.1199C43.7497 74.4999 43.7697 74.8499 43.6097 75.1699C43.4697 75.4699 43.2597 75.6999 42.9797 75.8599C42.6997 76.0199 42.3997 76.0799 42.0797 76.0399C41.7597 75.9799 41.5197 75.7699 41.3597 75.4099C41.0597 74.7099 40.8797 74.0099 40.8197 73.3099C40.7597 72.6099 40.7497 71.8999 40.7897 71.1799C40.1697 71.1799 39.5797 71.0999 39.0197 70.9399C38.4797 70.7599 38.0097 70.4599 37.6097 70.0399C37.4897 69.8999 37.4697 69.7699 37.5497 69.6499C37.6497 69.5099 37.7797 69.4599 37.9397 69.4999C38.3997 69.6199 38.8797 69.6599 39.3797 69.6199C39.8797 69.5799 40.3897 69.4999 40.9097 69.3799C40.9297 69.0799 40.9497 68.7899 40.9697 68.5099C40.9897 68.2299 41.0197 67.9499 41.0597 67.6699C40.6997 67.7099 40.3397 67.7199 39.9797 67.6999C39.6197 67.6599 39.2797 67.5499 38.9597 67.3699C38.5997 67.1699 38.3497 66.8999 38.2097 66.5599C38.0897 66.2199 38.0497 65.8699 38.0897 65.5099C38.1497 65.1499 38.2897 64.8099 38.5097 64.4899C38.7297 64.1699 39.0097 63.9299 39.3497 63.7699C39.4297 63.7299 39.5097 63.7099 39.5897 63.7099C39.6897 63.7099 39.7697 63.7499 39.8297 63.8299L39.8897 63.8899C39.9897 63.9899 40.0197 64.0999 39.9797 64.2199C39.9397 64.3399 39.8597 64.4199 39.7397 64.4599C39.9797 64.3399 39.9097 64.5299 39.5297 65.0299C39.7697 65.6699 40.1497 65.8699 40.6697 65.6299C40.9297 65.6299 41.1697 65.5899 41.3897 65.5099C41.4497 65.1699 41.5097 64.8299 41.5697 64.4899C41.6497 64.1499 41.7397 63.8099 41.8397 63.4699C41.8797 63.3099 41.9697 63.2499 42.1097 63.2899C42.2697 63.3099 42.3597 63.3999 42.3797 63.5599C42.4397 64.0799 42.4697 64.6299 42.4697 65.2099C42.9497 65.0699 43.4197 64.9299 43.8797 64.7899C44.3597 64.6499 44.8398 64.4999 45.3198 64.3399C45.6998 64.2199 46.0198 64.2599 46.2798 64.4599C46.5398 64.6599 46.7098 64.9199 46.7898 65.2399C46.8698 65.5399 46.8398 65.8499 46.6998 66.1699C46.5798 66.4699 46.3298 66.6599 45.9498 66.7399C45.3698 66.8599 44.7898 66.9899 44.2098 67.1299C43.6497 67.2499 43.0797 67.3599 42.4997 67.4599V68.8999C42.9597 68.7599 43.4097 68.6299 43.8497 68.5099C44.2897 68.3699 44.7098 68.2499 45.1098 68.1499ZM38.5397 62.9599C38.3997 63.0399 38.2397 63.0499 38.0597 62.9899C37.8797 62.9299 37.7297 62.8499 37.6097 62.7499L37.4597 62.6299C37.2997 62.4699 37.2197 62.2499 37.2197 61.9699C37.2197 61.6699 37.3397 61.4599 37.5797 61.3399C38.0197 61.1199 38.4197 60.8899 38.7797 60.6499C39.1397 60.4099 39.4897 60.1099 39.8297 59.7499C40.1097 59.4699 40.3497 59.1799 40.5497 58.8799C40.7697 58.5599 40.9897 58.2499 41.2097 57.9499C40.5697 57.9499 39.9297 57.9899 39.2897 58.0699C38.6697 58.1499 38.0397 58.1699 37.3997 58.1299C37.1797 58.1099 37.0297 57.9999 36.9497 57.7999C36.8697 57.5999 36.9397 57.4399 37.1597 57.3199C37.7397 57.0199 38.4197 56.7699 39.1997 56.5699C39.9997 56.3499 40.7997 56.2299 41.5997 56.2099C42.4197 56.1899 43.2097 56.2799 43.9698 56.4799C44.7298 56.6799 45.3698 57.0499 45.8898 57.5899C46.3298 58.0499 46.5698 58.5899 46.6098 59.2099C46.6698 59.8299 46.5798 60.4199 46.3398 60.9799C46.0998 61.5399 45.7298 62.0199 45.2297 62.4199C44.7497 62.7999 44.1997 62.9899 43.5797 62.9899C43.2797 62.9899 43.0297 62.9199 42.8297 62.7799C42.6497 62.6199 42.5297 62.4299 42.4697 62.2099C42.4097 61.9899 42.4097 61.7599 42.4697 61.5199C42.5497 61.2799 42.6997 61.0699 42.9197 60.8899C42.9997 60.8099 43.1097 60.7299 43.2497 60.6499C43.4097 60.5499 43.5697 60.4499 43.7297 60.3499C43.8897 60.2299 44.0397 60.1099 44.1797 59.9899C44.3197 59.8699 44.4098 59.7499 44.4498 59.6299C44.5298 59.3099 44.4897 59.0499 44.3297 58.8499C44.1897 58.6499 43.9897 58.4999 43.7297 58.3999C43.4897 58.2799 43.2297 58.1999 42.9497 58.1599C42.6697 58.0999 42.4397 58.0499 42.2597 58.0099H42.1997C42.0997 58.4899 41.9197 58.9599 41.6597 59.4199C41.4197 59.8799 41.1597 60.3099 40.8797 60.7099C40.5597 61.1699 40.2197 61.6099 39.8597 62.0299C39.4997 62.4299 39.0597 62.7399 38.5397 62.9599ZM35.4797 66.7399C34.4397 67.0799 33.4497 67.3099 32.5097 67.4299V68.1499C32.9897 68.1099 33.4597 68.0599 33.9197 67.9999C34.3997 67.9199 34.8697 67.7899 35.3297 67.6099L35.4797 67.5499V66.7399ZM32.2397 63.9499C32.3997 64.4899 32.4797 64.9899 32.4797 65.4499C33.3997 65.3099 34.2697 65.0799 35.0897 64.7599C34.8097 64.2999 34.4097 64.0299 33.8897 63.9499C33.3897 63.8499 32.8397 63.8499 32.2397 63.9499ZM30.8297 65.5999C30.9297 65.0799 31.0797 64.6099 31.2797 64.1899C30.7997 64.3099 30.3197 64.4499 29.8397 64.6099C29.3797 64.7699 28.9597 64.9099 28.5797 65.0299C28.5997 65.1499 28.6097 65.2699 28.6097 65.3899C28.6097 65.5099 28.6097 65.6299 28.6097 65.7499C28.9897 65.6899 29.3597 65.6599 29.7197 65.6599C30.0797 65.6399 30.4497 65.6199 30.8297 65.5999ZM30.5597 68.1199C30.5597 68.0199 30.5597 67.9199 30.5597 67.8199C30.5797 67.6999 30.5897 67.5899 30.5897 67.4899C30.2297 67.4499 29.8697 67.3999 29.5097 67.3399C29.1697 67.2799 28.8297 67.1899 28.4897 67.0699C28.3897 67.5699 28.3397 68.0199 28.3397 68.4199V68.5699C29.0597 68.4099 29.7897 68.3199 30.5297 68.2999C30.5297 68.2599 30.5297 68.2299 30.5297 68.2099C30.5497 68.1899 30.5597 68.1599 30.5597 68.1199ZM33.3497 62.8099C33.8497 62.8099 34.3097 62.8699 34.7297 62.9899C35.1497 63.1099 35.5197 63.3099 35.8397 63.5899C36.3797 64.0899 36.7497 64.7199 36.9497 65.4799C37.1697 66.2199 37.2797 67.0099 37.2797 67.8499C37.2997 68.6699 37.2597 69.4899 37.1597 70.3099C37.0597 71.1299 36.9797 71.8599 36.9197 72.4999C36.8797 72.7799 36.7797 73.0399 36.6197 73.2799C36.4797 73.4999 36.2697 73.6499 35.9897 73.7299L35.7797 73.7899C35.5997 73.8499 35.4197 73.8599 35.2397 73.8199C35.0797 73.7799 34.9297 73.7099 34.7897 73.6099C34.6497 73.4899 34.5297 73.3499 34.4297 73.1899C34.3497 73.0299 34.3197 72.8599 34.3397 72.6799C34.3797 72.1399 34.5097 71.6199 34.7297 71.1199C34.9697 70.6199 35.1497 70.0999 35.2697 69.5599C34.8697 69.6999 34.4397 69.8199 33.9797 69.9199C33.5197 69.9999 33.0497 70.0699 32.5697 70.1299C32.5897 70.3899 32.6197 70.6199 32.6597 70.8199C32.7197 70.9999 32.7897 71.1599 32.8697 71.2999C33.0497 71.6199 33.0797 71.9199 32.9597 72.1999C32.8597 72.4799 32.6797 72.6999 32.4197 72.8599C32.1797 72.9999 31.9097 73.0599 31.6097 73.0399C31.3097 72.9999 31.0697 72.8199 30.8897 72.4999C30.6697 72.1399 30.5297 71.7699 30.4697 71.3899C30.4097 70.9899 30.3897 70.5799 30.4097 70.1599C30.0497 70.1399 29.6997 70.1099 29.3597 70.0699C29.0197 70.0099 28.6797 69.9399 28.3397 69.8599C28.3597 70.3199 28.3897 70.7799 28.4297 71.2399C28.4697 71.6799 28.5097 72.1299 28.5497 72.5899C28.5697 72.8099 28.5197 72.9999 28.3997 73.1599C28.2797 73.3199 28.1297 73.4399 27.9497 73.5199C27.7697 73.5999 27.5797 73.6299 27.3797 73.6099C27.1797 73.5899 27.0097 73.4999 26.8697 73.3399C26.5897 73.0399 26.3897 72.7199 26.2697 72.3799C26.1697 72.0399 26.1097 71.6899 26.0897 71.3299C26.0697 70.9499 26.0797 70.5699 26.1197 70.1899C26.1797 69.7899 26.2297 69.4099 26.2697 69.0499C26.3297 68.6699 26.3897 68.2599 26.4497 67.8199C26.5097 67.3799 26.5897 66.9499 26.6897 66.5299C26.8097 66.1099 26.9597 65.7099 27.1397 65.3299C27.3197 64.9499 27.5597 64.6199 27.8597 64.3399C28.0197 64.1799 28.1897 64.1699 28.3697 64.3099C29.0297 63.8699 29.8397 63.5099 30.7997 63.2299C30.7197 63.1099 30.6697 62.9799 30.6497 62.8399C30.6297 62.6799 30.6597 62.5499 30.7397 62.4499C30.9197 62.1699 31.1197 61.9799 31.3397 61.8799C31.5597 61.7799 31.7997 61.6599 32.0597 61.5199C32.2397 61.3799 32.4797 61.2099 32.7797 61.0099C33.0997 60.8099 33.2597 60.5799 33.2597 60.3199C33.2597 60.1999 33.1897 60.1299 33.0497 60.1099C32.9097 60.0699 32.7497 60.0599 32.5697 60.0799C32.3897 60.0999 32.1997 60.1299 31.9997 60.1699C31.8197 60.2099 31.6897 60.2399 31.6097 60.2599L30.4997 60.4999C30.4797 60.5399 30.4597 60.5799 30.4397 60.6199C30.4197 60.6599 30.3997 60.7099 30.3797 60.7699C30.1797 61.1699 29.9597 61.5699 29.7197 61.9699C29.4797 62.3499 29.1997 62.6899 28.8797 62.9899C28.5597 63.2899 28.1997 63.5199 27.7997 63.6799C27.4197 63.8399 26.9797 63.8699 26.4797 63.7699C26.1197 63.7099 25.8497 63.5599 25.6697 63.3199C25.5097 63.0599 25.4297 62.7799 25.4297 62.4799C25.4297 62.1799 25.5097 61.8999 25.6697 61.6399C25.8297 61.3599 26.0597 61.1699 26.3597 61.0699C26.8397 60.8899 27.2597 60.6399 27.6197 60.3199C27.9797 59.9999 28.2997 59.6399 28.5797 59.2399C28.8797 58.8399 29.1497 58.4299 29.3897 58.0099C29.6497 57.5699 29.9197 57.1499 30.1997 56.7499C30.1997 56.7299 30.2097 56.7199 30.2297 56.7199C30.2297 56.6999 30.2297 56.6899 30.2297 56.6899C30.2497 56.6899 30.2597 56.6799 30.2597 56.6599C30.4797 56.4399 30.6997 56.4299 30.9197 56.6299C31.2197 56.9499 31.3597 57.3399 31.3397 57.7999C31.3197 58.2599 31.2297 58.7199 31.0697 59.1799C31.4297 59.0399 31.7997 58.9299 32.1797 58.8499C32.5797 58.7699 32.9397 58.7499 33.2597 58.7899C33.5997 58.8299 33.8897 58.9399 34.1297 59.1199C34.3897 59.2999 34.5697 59.5699 34.6697 59.9299C34.7697 60.3899 34.6897 60.8899 34.4297 61.4299C34.1697 61.9699 33.8097 62.4299 33.3497 62.8099ZM64.6998 73.0099C65.0398 72.7299 65.3498 72.4299 65.6298 72.1099C65.9098 71.7699 66.1198 71.4099 66.2598 71.0299C66.4598 70.4699 66.4698 70.0799 66.2898 69.8599C66.1298 69.6199 65.8698 69.4899 65.5098 69.4699C65.1698 69.4499 64.7898 69.4899 64.3698 69.5899C63.9698 69.6899 63.6198 69.7899 63.3198 69.8899C63.0998 69.9699 62.8898 70.0499 62.6898 70.1299C62.4898 70.2099 62.2798 70.2899 62.0598 70.3699C62.4998 70.8499 62.9198 71.3199 63.3198 71.7799C63.7398 72.2399 64.1998 72.6499 64.6998 73.0099ZM72.4398 73.9999C72.6798 74.0999 72.8098 74.2399 72.8298 74.4199C72.9498 75.1399 72.7698 75.6699 72.2898 76.0099C71.8098 76.3299 71.2098 76.5199 70.4898 76.5799C69.7898 76.6599 69.0698 76.6399 68.3298 76.5199C67.5898 76.4199 67.0198 76.3099 66.6198 76.1899C66.2198 76.0899 65.8298 75.9499 65.4498 75.7699C65.0898 75.5699 64.7198 75.3499 64.3398 75.1099C64.1198 75.2299 63.9098 75.3499 63.7098 75.4699C63.5098 75.5699 63.2998 75.6699 63.0798 75.7699C62.8198 75.8699 62.4698 75.9599 62.0298 76.0399C61.5898 76.0999 61.1598 76.1099 60.7398 76.0699C60.3198 76.0299 59.9698 75.9099 59.6898 75.7099C59.4098 75.5099 59.2998 75.1899 59.3598 74.7499C59.3998 74.4699 59.5398 74.2899 59.7798 74.2099L59.9898 74.1499C60.1098 74.1099 60.2198 74.1399 60.3198 74.2399C60.4398 74.3399 60.4998 74.4499 60.4998 74.5699C60.4798 74.7299 60.5498 74.8199 60.7098 74.8399C60.8698 74.8399 61.0798 74.7999 61.3398 74.7199C61.5998 74.6399 61.8798 74.5399 62.1798 74.4199C62.4998 74.2999 62.7898 74.1799 63.0498 74.0599C62.6098 73.6399 62.2298 73.1799 61.9098 72.6799C61.5898 72.1799 61.3598 71.6399 61.2198 71.0599C60.9798 71.5199 60.6998 71.9399 60.3798 72.3199C60.0798 72.6999 59.7398 73.0299 59.3598 73.3099C58.9998 73.5699 58.5998 73.7599 58.1598 73.8799C57.7398 73.9999 57.2898 74.0199 56.8098 73.9399C56.5298 73.8999 56.3198 73.7699 56.1798 73.5499C56.0598 73.3299 55.9998 73.0999 55.9998 72.8599C55.9998 72.5999 56.0598 72.3699 56.1798 72.1699C56.3198 71.9499 56.5098 71.8099 56.7498 71.7499C57.2498 71.6499 57.6898 71.4699 58.0698 71.2099C58.4698 70.9299 58.8098 70.5999 59.0898 70.2199C59.3898 69.8199 59.6398 69.3799 59.8398 68.8999C60.0598 68.4199 60.2498 67.9199 60.4098 67.3999C59.8898 67.2599 59.4098 67.0699 58.9698 66.8299C58.5298 66.5699 58.1398 66.2299 57.7998 65.8099C57.7198 65.7099 57.6998 65.6099 57.7398 65.5099C57.7798 65.3899 57.8698 65.3399 58.0098 65.3599C58.5098 65.3999 58.9998 65.4499 59.4798 65.5099C59.9598 65.5699 60.4498 65.5999 60.9498 65.5999C61.1498 64.8199 61.3898 64.1299 61.6698 63.5299C61.6698 63.5099 61.6798 63.4899 61.6998 63.4699C61.6998 63.4499 61.7098 63.4299 61.7298 63.4099C61.8298 63.2499 61.9698 63.1899 62.1498 63.2299C62.3498 63.2499 62.4698 63.3599 62.5098 63.5599C62.5698 63.8199 62.6098 64.1099 62.6298 64.4299C62.6498 64.7499 62.6598 65.0799 62.6598 65.4199C63.3598 65.3199 64.0498 65.1999 64.7298 65.0599C65.4298 64.9199 66.1298 64.7999 66.8298 64.6999C67.1698 64.6599 67.4398 64.7499 67.6398 64.9699C67.8598 65.1699 67.9898 65.4099 68.0298 65.6899C68.0698 65.9699 68.0198 66.2499 67.8798 66.5299C67.7598 66.8099 67.5398 66.9899 67.2198 67.0699C66.5198 67.2299 65.7498 67.3799 64.9098 67.5199C64.0698 67.6399 63.2298 67.6899 62.3898 67.6699C62.2898 68.1499 62.1698 68.6299 62.0298 69.1099C62.6698 68.7699 63.3198 68.5199 63.9798 68.3599C64.6598 68.1799 65.3198 68.1399 65.9598 68.2399C66.3998 68.2999 66.7598 68.4399 67.0398 68.6599C67.3198 68.8799 67.5098 69.1399 67.6098 69.4399C67.7298 69.7399 67.7698 70.0799 67.7298 70.4599C67.7098 70.8199 67.6198 71.1899 67.4598 71.5699C67.2998 71.9699 67.0898 72.3499 66.8298 72.7099C66.5898 73.0699 66.3198 73.4099 66.0198 73.7299C66.2598 73.8499 66.5198 73.9399 66.7998 73.9999C67.2798 74.1199 67.7598 74.1699 68.2398 74.1499C68.7198 74.1099 69.1898 74.0599 69.6498 73.9999C70.1298 73.9399 70.5998 73.8999 71.0598 73.8799C71.5198 73.8399 71.9798 73.8799 72.4398 73.9999ZM59.8398 58.8199C59.8398 58.9599 59.8298 59.0899 59.8098 59.2099C59.8098 59.3299 59.8198 59.4499 59.8398 59.5699C59.8598 59.7699 59.8798 59.9599 59.8998 60.1399C59.9198 60.3199 59.9498 60.5099 59.9898 60.7099C60.0098 60.7499 60.0298 60.8299 60.0498 60.9499C60.0698 61.0699 60.0898 61.1399 60.1098 61.1599C60.2298 61.2799 60.2998 61.3999 60.3198 61.5199C61.0398 61.3999 61.7298 61.3099 62.3898 61.2499C62.2898 61.0699 62.2298 60.8899 62.2098 60.7099C62.1698 60.4899 62.1298 60.2099 62.0898 59.8699C62.0498 59.5099 62.0698 59.1799 62.1498 58.8799C61.3698 58.9199 60.5998 58.8899 59.8398 58.7899V58.8199ZM65.9898 58.1899C65.0698 58.5099 64.1698 58.7099 63.2898 58.7899C63.3298 58.9099 63.3598 59.0399 63.3798 59.1799C63.3998 59.2999 63.4298 59.4099 63.4698 59.5099C63.5098 59.7099 63.5598 59.9099 63.6198 60.1099C63.6798 60.2899 63.7598 60.4699 63.8598 60.6499C63.9398 60.7099 63.9798 60.8099 63.9798 60.9499V61.0699C64.3798 61.0299 64.7698 60.9999 65.1498 60.9799C65.5498 60.9599 65.9498 60.9399 66.3498 60.9199V60.8899C66.1498 60.5299 66.0198 60.0999 65.9598 59.5999C65.9198 59.0999 65.9298 58.6299 65.9898 58.1899ZM56.3298 66.3799C56.4498 66.6599 56.4498 66.9199 56.3298 67.1599C56.2098 67.3799 56.0398 67.5499 55.8198 67.6699C55.5998 67.7899 55.3498 67.8499 55.0698 67.8499C54.8098 67.8299 54.5798 67.7299 54.3798 67.5499C54.0198 67.2099 53.8398 66.8099 53.8398 66.3499C53.8398 65.8699 53.8798 65.4099 53.9598 64.9699C54.0198 64.5499 54.1498 64.1199 54.3498 63.6799C54.3898 63.5999 54.4298 63.5299 54.4698 63.4699C54.5298 63.3899 54.5898 63.3199 54.6498 63.2599C54.7098 63.1799 54.7798 63.1099 54.8598 63.0499C55.0398 62.9099 55.2298 62.9099 55.4298 63.0499C55.8898 62.7699 56.3798 62.5399 56.8998 62.3599C57.4198 62.1599 57.9598 61.9899 58.5198 61.8499C58.3598 61.5099 58.2898 61.1399 58.3098 60.7399C58.3498 60.3199 58.4098 59.9399 58.4898 59.5999C58.5098 59.4799 58.5398 59.3299 58.5798 59.1499C58.6198 58.9699 58.6798 58.7899 58.7598 58.6099C58.0998 58.4899 57.5498 58.3299 57.1098 58.1299C56.8898 58.0299 56.7898 57.8799 56.8098 57.6799C56.8498 57.4599 56.9598 57.3299 57.1398 57.2899C57.1598 57.2699 57.1798 57.2599 57.1998 57.2599C58.0998 57.0799 58.9898 56.9299 59.8698 56.8099C60.7498 56.6699 61.6398 56.4899 62.5398 56.2699C62.9798 56.1699 63.4098 56.0499 63.8298 55.9099C64.2498 55.7499 64.6698 55.5999 65.0898 55.4599C65.5098 55.3199 65.9298 55.1899 66.3498 55.0699C66.7698 54.9499 67.1998 54.8599 67.6398 54.7999C67.8798 54.7799 68.0898 54.8399 68.2698 54.9799C68.4698 55.1199 68.6098 55.2999 68.6898 55.5199C68.7898 55.7199 68.8298 55.9399 68.8098 56.1799C68.7898 56.3999 68.6898 56.5899 68.5098 56.7499C68.2698 56.9699 68.0098 57.1599 67.7298 57.3199C67.4698 57.4799 67.1998 57.6299 66.9198 57.7699C67.0198 57.8899 67.0998 58.0199 67.1598 58.1599C67.2398 58.2999 67.2998 58.4299 67.3398 58.5499C67.4598 58.8299 67.5798 59.1399 67.6998 59.4799C67.8198 59.8199 67.8698 60.1599 67.8498 60.4999C67.8298 60.5399 67.8098 60.5999 67.7898 60.6799C67.7698 60.7399 67.7398 60.8099 67.6998 60.8899C68.3598 60.8899 69.0098 60.9199 69.6498 60.9799C70.3098 61.0199 70.9398 61.1099 71.5398 61.2499C72.1398 61.3899 72.5898 61.6199 72.8898 61.9399C73.2098 62.2399 73.3998 62.5799 73.4598 62.9599C73.5198 63.3399 73.4698 63.7299 73.3098 64.1299C73.1698 64.5299 72.9398 64.8999 72.6198 65.2399C72.3198 65.5599 71.9498 65.8199 71.5098 66.0199C71.0898 66.2199 70.6298 66.3099 70.1298 66.2899C69.8898 66.2899 69.6898 66.2399 69.5298 66.1399C69.3898 66.0199 69.2798 65.8799 69.1998 65.7199C69.1398 65.5399 69.1198 65.3599 69.1398 65.1799C69.1798 64.9799 69.2698 64.7899 69.4098 64.6099C69.7298 64.2499 70.0398 63.9599 70.3398 63.7399C70.6598 63.4999 70.8598 63.3099 70.9398 63.1699C71.0198 63.0299 70.9198 62.9199 70.6398 62.8399C70.3798 62.7399 69.8298 62.6499 68.9898 62.5699C68.2698 62.4899 67.5398 62.4399 66.7998 62.4199C66.0798 62.3999 65.3498 62.4099 64.6098 62.4499C63.8698 62.4899 63.1298 62.5799 62.3898 62.7199C61.6698 62.8399 60.9498 62.9799 60.2298 63.1399C59.5098 63.2799 58.7798 63.4199 58.0398 63.5599C57.3198 63.6799 56.5998 63.7599 55.8798 63.7999C55.8998 63.8399 55.9098 63.9099 55.9098 64.0099C55.9498 64.1499 55.9698 64.2899 55.9698 64.4299C55.9898 64.5499 56.0098 64.6799 56.0298 64.8199C56.0698 65.0799 56.0998 65.3499 56.1198 65.6299C56.1598 65.8899 56.2298 66.1399 56.3298 66.3799Z" fill="white"/>
</svg>
