<svg xmlns="http://www.w3.org/2000/svg" xmlns:xlink="http://www.w3.org/1999/xlink" width="1200" height="1200" viewBox="0 0 1200 1200" fill="none"><defs><rect id="path_0" x="0" y="0" width="1200" height="1200" /></defs><g opacity="1" transform="translate(0 0)  rotate(0 600 600)"><mask id="bg-mask-0" fill="white"><use xlink:href="#path_0"></use></mask><g mask="url(#bg-mask-0)" ><g opacity="1" transform="translate(180.66278999999986 134.64654999999993)  rotate(0 419.337205 465.3534549999999)"><path id="svg_17"  style="fill:#000000" transform="translate(511.6011 461.29714)  rotate(0 0.44643000000002075 5.351814999999988)" opacity="NaN" d="" /><path id="svg_16"  style="fill:#000000" transform="translate(627.9285700000001 230.71510999999998)  rotate(0 6.556210000000021 0.29071500000000583)" opacity="NaN" d="" /><path id="svg_14" fill-rule="evenodd" style="fill:#FFFFFF" transform="translate(0 0)  rotate(0 193.74739500000007 465.2300200000001)" opacity="NaN" d="M1.2,344.61L265.35,204.35L265.95,719.46L119.74,636.03L119.74,466.74L0.6,526.6L0.6,708.58L386.29,930.46C386.69,620.31 387.09,310.15 387.49,0L0,224.91L1.2,344.61Z " /><path id="svg_13" fill-rule="evenodd" style="fill:#FFFFFF" transform="translate(445.8241099999999 1.7808699999999362)  rotate(0 196.42515000000003 464.4630199999999)" opacity="NaN" d="M122.06,201L392.85,345.15L392.85,222.62L2.42,0L0,373.98L272.41,518.92L272.41,635.84L122.87,722.32L122.87,556.56L0.81,490.89L2.42,928.93L392.04,703.9L392.04,463.66L122.06,305.91L122.06,201Z " /></g></g></g></svg>