<svg xmlns="http://www.w3.org/2000/svg" xmlns:xlink="http://www.w3.org/1999/xlink" width="16" height="16" viewBox="0 0 16 16" fill="none"><defs><rect id="path_0" x="0" y="0" width="16" height="16" /></defs><g opacity="1" transform="translate(0 0)  rotate(0 8 8)"><mask id="bg-mask-0" fill="white"><use xlink:href="#path_0"></use></mask><g mask="url(#bg-mask-0)" ><path id="分组 1" fill-rule="evenodd" style="fill:#FCFCFC" transform="translate(3.0380719588718668 4.1821924283615886)  rotate(0 5.06819679447002 4.386873909743771)" opacity="1" d="M3.58362 5.02874C3.94362 5.90874 4.94362 6.31874 5.81362 5.95874C6.69362 5.60874 7.10362 4.59874 6.74362 3.72874C6.39362 2.85874 5.38362 2.43874 4.51362 2.79874C3.64362 3.15874 3.22362 4.15874 3.58362 5.02874Z M4.95 0.15C4.9 0.12 4.84 0.12 4.79 0.14L2.37 1.13C2.31 1.15 2.27 1.2 2.26 1.26L2.02 2.23L0.42 2.89C0.07 3.03 -0.09 3.42 0.05 3.77L1.94 8.35C2.08 8.7 2.47 8.86 2.82 8.72L9.72 5.89C10.06 5.75 10.23 5.35 10.09 5.01L8.2 0.42C8.06 0.07 7.66 -0.09 7.32 0.05L5.84 0.66L4.95 0.15Z M7.08543 3.59035C6.65543 2.53035 5.43543 2.02035 4.37543 2.46035C3.31543 2.89035 2.80543 4.11035 3.24543 5.17035C3.67543 6.23035 4.89543 6.74035 5.95543 6.30035C7.01543 5.87035 7.52543 4.65035 7.08543 3.59035Z M7.33371 1.44651C7.27371 1.30651 7.11371 1.23651 6.98371 1.29651C6.84371 1.35651 6.77371 1.50651 6.83371 1.64651C6.89371 1.78651 7.04371 1.85651 7.18371 1.79651C7.32371 1.73651 7.39371 1.57651 7.33371 1.44651Z " /></g></g></svg>