<svg xmlns="http://www.w3.org/2000/svg" xmlns:xlink="http://www.w3.org/1999/xlink" width="30" height="30" viewBox="0 0 30 30" fill="none"><g opacity="1" transform="translate(0 0)  rotate(0 15 15)"><g opacity="1" transform="translate(3.5 11.5)  rotate(0 11.50235 3.5)"><path id="分组 1" fill-rule="evenodd" style="fill:#FFFFFF" transform="translate(0 0)  rotate(0 11.50235 3.5)" opacity="1" d="M3.55 0C2.37 2.01 1.19 4.02 0 6.05C0.56 6.37 1.09 6.66 1.63 6.97C1.8 6.61 1.97 6.26 2.13 5.91C2.18 5.79 2.25 5.74 2.39 5.73C3.16 5.71 3.92 5.68 4.69 5.65C4.83 5.64 4.92 5.69 4.98 5.82C5.2 6.21 5.43 6.59 5.66 7C6.24 6.64 6.81 6.3 7.38 5.95C7.34 5.88 7.31 5.83 7.28 5.79C6.51 4.58 5.73 3.38 4.96 2.18C4.5 1.46 4.05 0.73 3.6 0C3.58 0 3.57 0 3.55 0Z M3.53201 2.81237C3.26201 3.37237 3.02201 3.89237 2.76201 4.45237C3.29201 4.42237 3.77201 4.39237 4.29201 4.36237C4.03201 3.84237 3.79201 3.35237 3.53201 2.81237Z M19.0047 2.20636C18.9247 3.64636 18.8547 5.01636 18.7747 6.40636C19.1647 6.40636 19.5347 6.40636 19.9147 6.40636C19.9147 5.72636 19.9147 5.05636 19.9147 4.35636C20.8647 5.09636 21.7847 5.80636 22.7547 6.56636C22.8347 5.10636 22.9147 3.71636 23.0047 2.30636C22.6247 2.30636 22.2547 2.30636 21.8747 2.30636C21.8747 2.98636 21.8747 3.65636 21.8747 4.39636C20.9047 3.65636 19.9747 2.94636 19.0047 2.20636Z M15.6988 4.5861C15.6788 3.9261 15.6788 3.2661 15.6788 2.5961C15.6788 2.5161 15.6788 2.4361 15.6788 2.3461C15.2488 2.3461 14.8388 2.3461 14.4288 2.3461C14.4288 3.1361 14.3788 3.9061 14.4388 4.6561C14.5188 5.8861 15.1488 6.4661 16.2888 6.4861C17.2888 6.5161 18.0188 5.9861 18.2288 5.0561C18.4388 4.1361 18.3188 3.1961 18.3488 2.2661C17.9088 2.2661 17.4888 2.2661 17.0888 2.2661C17.0888 2.5761 17.0988 2.8661 17.0888 3.1461C17.0788 3.7661 17.0688 4.3761 17.0288 4.9961C16.9988 5.3161 16.7688 5.5061 16.4888 5.5361C16.1488 5.5661 15.8988 5.4161 15.7888 5.0861C15.7388 4.9261 15.6988 4.7561 15.6988 4.5861Z M13.9724 3.56503C13.7324 3.57503 13.5224 3.58503 13.3124 3.59503C13.0924 3.59503 12.8724 3.59503 12.6224 3.59503C12.6224 3.25503 12.6224 2.90503 12.6224 2.52503C13.1224 2.52503 13.5924 2.52503 14.0724 2.52503C14.0724 2.12503 14.0724 1.76503 14.0724 1.38503C13.0724 1.42503 12.1124 1.45503 11.1324 1.49503C11.1324 3.13503 11.1324 4.75503 11.1324 6.38503C11.6324 6.38503 12.1124 6.38503 12.6224 6.38503C12.6224 5.79503 12.6224 5.22503 12.6224 4.62503C13.0824 4.62503 13.5324 4.62503 13.9724 4.62503C13.9724 4.26503 13.9724 3.92503 13.9724 3.56503Z M9.39545 2.44564C8.67545 2.72564 8.02545 3.13564 7.62545 3.84564C7.21545 4.59564 7.30545 5.36564 7.91545 5.87564C8.69545 6.52564 9.61545 6.53564 10.5755 6.44564C10.5555 6.08564 10.5355 5.74564 10.5155 5.42564C10.3355 5.42564 10.1855 5.44564 10.0355 5.42564C9.77545 5.38564 9.49545 5.37564 9.25545 5.27564C8.70545 5.05564 8.55545 4.48564 8.95545 4.03564C9.15545 3.80564 9.44545 3.65564 9.72545 3.50564C9.92545 3.39564 10.1755 3.35564 10.4055 3.28564C10.3255 2.92564 10.2455 2.58564 10.1655 2.20564C9.88545 2.29564 9.63545 2.35564 9.39545 2.44564Z " /></g></g></svg>