<svg xmlns="http://www.w3.org/2000/svg" xmlns:xlink="http://www.w3.org/1999/xlink" width="31.5001" height="31.5001" viewBox="0 0 31.5001 31.5001" fill="none"><g opacity="1"  transform="translate(0 0)  rotate(0)"><g opacity="1"  transform="translate(0 0)  rotate(0)"><g id="undefined" filter="url(#filter_1)"></g><g opacity="1"  transform="translate(0 0)  rotate(0)"></g></g><path id="路径 5" fill-rule="evenodd" fill="url(#linear_0)" opacity="1" d="M15.3958,5.09883c1.11,-0.63 2.52,-0.24 3.15,0.88l8.84,15.68997c0.63,1.11 0.23,2.52 -0.88,3.15c-1.11,0.63 -2.52,0.23 -3.15,-0.88l-8.84,-15.68997c-0.63,-1.11 -0.24,-2.52 0.88,-3.15z"></path><path id="路径 6" fill-rule="evenodd" fill="url(#linear_1)" opacity="1" d="M17.4134,5.17677c1.14,0.56 1.61,1.94 1.05,3.09l-7.63,15.56003c-0.56,1.14 -1.95004,1.62 -3.10004,1.05c-1.14,-0.56 -1.62,-1.94 -1.05,-3.09l7.63004,-15.56003c0.56,-1.14 1.95,-1.62 3.1,-1.05z"></path><path id="路径 7" fill-rule="evenodd" style="fill:#FFFFFF" opacity="1" d="M4.53298 9.49414C4.53298 9.49414 3.02298 13.3941 5.36298 14.5841C7.47298 15.6541 9.10298 13.2441 8.11298 11.7441C7.11298 10.2441 4.86298 11.0441 4.53298 9.49414Z"></path><path id="路径 8" fill-rule="evenodd" fill="url(#linear_2)" opacity="1" d="M24.4644 24.9456C24.9344 25.1756 25.4944 25.0156 25.7744 24.5656C26.0244 24.1356 25.9044 23.5956 25.4944 23.3156C22.4844 21.2656 11.1444 13.5756 10.5344 13.2156C9.82438 12.8056 8.16438 12.2656 7.28438 13.7756C6.40438 15.2856 7.72438 16.4756 8.40438 16.8756C9.00438 17.2256 21.1644 23.2956 24.4644 24.9456Z"></path></g><defs><filter id="filter_1" x="-3102.246094" y="-1315.246094" width="31.99228800000037" height="31.992288000000144" filterUnits="userSpaceOnUse" color-interpolation-filters="sRGB"><feFlood flood-opacity="0" result="feFloodId"/>
          <feColorMatrix in="SourceAlpha" type="matrix" values="0 0 0 0 0 0 0 0 0 0 0 0 0 0 0 0 0 0 127 0" result="hardAlpha"/>
          
          <feOffset dx="0" dy="0"/>
          <feGaussianBlur stdDeviation="0.123047"/>
          <feComposite in2="hardAlpha" operator="arithmetic" k2="-1" k3="1"/>
          <feColorMatrix type="matrix" values="0 0 0 0 0 0 0 0 0 0 0 0 0 0 0 0 0 0 0.24 0"/>
          <feBlend mode="normal" in2="filter_feFlood" result="filter_feFlood_1"/>
          <feBlend mode="normal" in="SourceGraphic" in2="filter_1" result="shape"/></filter><linearGradient id="linear_0" x1="18.85323749811672%" y1="34.9863335069445%" x2="89.322968966362%" y2="81.26992299220606%" gradientUnits="objectBoundingBox"><stop offset="0" stop-color="#0167FF" stop-opacity="1" /><stop offset="1" stop-color="#01FF85" stop-opacity="1" /></linearGradient><linearGradient id="linear_1" x1="71.66999018243442%" y1="37.854918878450725%" x2="18.862499359496805%" y2="96.76161032002976%" gradientUnits="objectBoundingBox"><stop offset="0" stop-color="#0167FF" stop-opacity="1" /><stop offset="1" stop-color="#FF00C7" stop-opacity="1" /></linearGradient><linearGradient id="linear_2" x1="6.0345192823028295%" y1="15.351619533847384%" x2="99.31009957313783%" y2="96.07923731386757%" gradientUnits="objectBoundingBox"><stop offset="0" stop-color="#FFFFFF" stop-opacity="1" /><stop offset="1" stop-color="#01FF85" stop-opacity="1" /></linearGradient></defs></svg>