<svg xmlns="http://www.w3.org/2000/svg" xmlns:xlink="http://www.w3.org/1999/xlink" width="128" height="128" viewBox="0 0 128 128" fill="none"><defs><rect id="path_0" x="0" y="0" width="128" height="128" /><filter id="filter_4" x="12" y="-4" width="61" height="61" filterUnits="userSpaceOnUse" color-interpolation-filters="sRGB"><feFlood flood-opacity="0" result="BackgroundImageFix"/>
          <feColorMatrix in="SourceAlpha" type="matrix" values="0 0 0 0 0 0 0 0 0 0 0 0 0 0 0 0 0 0 127 0"/>
          <feOffset dx="0" dy="4"/>
          <feGaussianBlur stdDeviation="2"/>
          <feColorMatrix type="matrix" values="0 0 0 0 0 0 0 0 0 0 0 0 0 0 0 0 0 0 0.2 0"/>
          <feBlend mode="normal" in2="BackgroundImageFix" result="effect1_Shadow"/>
          <feBlend mode="normal" in="SourceGraphic" in2="effect1_Shadow" result="shape"/></filter><filter id="filter_6" x="-4" y="10" width="50" height="50" filterUnits="userSpaceOnUse" color-interpolation-filters="sRGB"><feFlood flood-opacity="0" result="BackgroundImageFix"/>
          <feColorMatrix in="SourceAlpha" type="matrix" values="0 0 0 0 0 0 0 0 0 0 0 0 0 0 0 0 0 0 127 0"/>
          <feOffset dx="0" dy="4"/>
          <feGaussianBlur stdDeviation="2"/>
          <feColorMatrix type="matrix" values="0 0 0 0 0 0 0 0 0 0 0 0 0 0 0 0 0 0 0.2 0"/>
          <feBlend mode="normal" in2="BackgroundImageFix" result="effect1_Shadow"/>
          <feBlend mode="normal" in="SourceGraphic" in2="effect1_Shadow" result="shape"/></filter><filter id="filter_8" x="46" y="17" width="43" height="43" filterUnits="userSpaceOnUse" color-interpolation-filters="sRGB"><feFlood flood-opacity="0" result="BackgroundImageFix"/>
          <feColorMatrix in="SourceAlpha" type="matrix" values="0 0 0 0 0 0 0 0 0 0 0 0 0 0 0 0 0 0 127 0"/>
          <feOffset dx="0" dy="4"/>
          <feGaussianBlur stdDeviation="2"/>
          <feColorMatrix type="matrix" values="0 0 0 0 0 0 0 0 0 0 0 0 0 0 0 0 0 0 0.2 0"/>
          <feBlend mode="normal" in2="BackgroundImageFix" result="effect1_Shadow"/>
          <feBlend mode="normal" in="SourceGraphic" in2="effect1_Shadow" result="shape"/></filter><filter id="filter_10" x="16" y="33" width="56" height="27" filterUnits="userSpaceOnUse" color-interpolation-filters="sRGB"><feFlood flood-opacity="0" result="BackgroundImageFix"/>
          <feColorMatrix in="SourceAlpha" type="matrix" values="0 0 0 0 0 0 0 0 0 0 0 0 0 0 0 0 0 0 127 0"/>
          <feOffset dx="0" dy="4"/>
          <feGaussianBlur stdDeviation="2"/>
          <feColorMatrix type="matrix" values="0 0 0 0 0 0 0 0 0 0 0 0 0 0 0 0 0 0 0.2 0"/>
          <feBlend mode="normal" in2="BackgroundImageFix" result="effect1_Shadow"/>
          <feBlend mode="normal" in="SourceGraphic" in2="effect1_Shadow" result="shape"/></filter></defs><g opacity="1" transform="translate(0 0)  rotate(0 64 64)"><mask id="bg-mask-0" fill="white"><use xlink:href="#path_0"></use></mask><g mask="url(#bg-mask-0)" ><g opacity="1" transform="translate(22 36)  rotate(0 42.5 28)"><g id="路径 12" filter="url(#filter_4)"><path id="路径 12" fill-rule="evenodd" style="fill:#FFFFFF" transform="translate(16 0)  rotate(0 26.5 26.5)" opacity="1" d="M26.5,0C11.86,0 0,11.86 0,26.5C0,41.14 11.86,53 26.5,53C41.14,53 53,41.14 53,26.5C53,11.86 41.14,0 26.5,0Z " /></g><g id="路径 13" filter="url(#filter_6)"><path id="路径 13" fill-rule="evenodd" style="fill:#FFFFFF" transform="translate(0 14)  rotate(0 21 21)" opacity="1" d="M21,0C9.4,0 0,9.4 0,21C0,32.6 9.4,42 21,42C32.6,42 42,32.6 42,21C42,9.4 32.6,0 21,0Z " /></g><g id="路径 14" filter="url(#filter_8)"><path id="路径 14" fill-rule="evenodd" style="fill:#FFFFFF" transform="translate(50 21)  rotate(0 17.5 17.5)" opacity="1" d="M17.5,0C7.83,0 0,7.83 0,17.5C0,27.17 7.83,35 17.5,35C27.17,35 35,27.17 35,17.5C35,7.83 27.17,0 17.5,0Z " /></g><g id="路径 15" filter="url(#filter_10)"><path id="路径 15" fill-rule="evenodd" style="fill:#FFFFFF" transform="translate(20 37)  rotate(0 24 9.5)" opacity="1" d="M0,19L48,19L48,0L0,0L0,19Z " /></g></g></g></g></svg>