<svg xmlns="http://www.w3.org/2000/svg" xmlns:xlink="http://www.w3.org/1999/xlink" width="300" height="300" viewBox="0 0 300 300" fill="none"><defs><rect id="path_0" x="0" y="0" width="300" height="300" /></defs><g opacity="1" transform="translate(0 0)  rotate(0 150 150)"><mask id="bg-mask-0" fill="white"><use xlink:href="#path_0"></use></mask><g mask="url(#bg-mask-0)" ><g opacity="1" transform="translate(-0.5 -0.5)  rotate(0 150 150)"></g><g opacity="1" transform="translate(121.43848238802562 88.5)  rotate(0 50.530883805987216 61)"><path id="路径 2" fill-rule="evenodd" style="fill:#FFFCFB" transform="translate(0 0)  rotate(0 50.53088380598721 61)" opacity="1" d="M20.56,93C15.84,83.6 18.68,79.43 29.06,80.5C32.73,82 36.4,83.5 40.06,85C44.43,82.54 49.1,80.88 54.06,80C60.98,80.47 63.48,84.13 61.56,91C52.92,102.91 41.42,110.75 27.06,114.5C30.31,117.37 33.81,119.87 37.56,122C51.86,116.7 63.53,108.04 72.56,96C80.22,73.81 72.39,65.15 49.06,70C48.09,67.89 47.76,65.56 48.06,63C57.39,63 66.73,63 76.06,63C76.06,59.67 76.06,56.33 76.06,53C66.73,53 57.39,53 48.06,53C47.76,50.44 48.09,48.11 49.06,46C56.21,45.01 63.54,44.68 71.06,45C71.06,42 71.06,39 71.06,36C57.55,36.33 44.22,36 31.06,35C31.86,33.46 32.2,31.79 32.06,30C27.91,29.17 23.58,28.67 19.06,28.5C19.61,27.78 20.27,27.28 21.06,27C22.86,25.71 24.52,24.21 26.06,22.5C43.97,21.67 61.8,21.84 79.56,23C81.05,55.25 81.55,87.58 81.06,120C91.42,121.25 97.92,116.91 100.56,107C101.23,78.33 101.23,49.67 100.56,21C98.52,15.62 94.69,12.46 89.06,11.5C71.39,11.33 53.72,10.83 36.06,10C37.47,6.77 38.47,3.44 39.06,0C32.73,0 26.39,0 20.06,0C17.49,11.78 10.99,20.78 0.56,27C0.06,29.98 -0.1,32.98 0.06,36C5.25,34.94 10.25,33.27 15.06,31C15.39,31.33 15.73,31.67 16.06,32C14.12,35.81 12.79,39.81 12.06,44C17.73,44.67 23.39,45.33 29.06,46C30.03,48.11 30.36,50.44 30.06,53C20.73,53 11.39,53 2.06,53C2.06,56.33 2.06,59.67 2.06,63C11.06,63 20.06,63 29.06,63C30.03,65.11 30.36,67.44 30.06,70C28.46,70.27 27.13,69.93 26.06,69C10.15,66.51 2.99,73.18 4.56,89C8.64,98.26 14.81,105.93 23.06,112C27.22,110.45 31.22,108.62 35.06,106.5C29.67,102.56 24.84,98.06 20.56,93Z " /></g><g opacity="1" transform="translate(88.77653570882491 88.2268373452332)  rotate(0 15.93196168227918 12.790971176431647)"><path id="路径 3" fill-rule="evenodd" style="fill:#FFFBFB" transform="translate(0 0)  rotate(0 15.93196168227918 12.790971176431647)" opacity="1" d="M1.22,19.27C6.89,24.99 13.73,26.82 21.72,24.77C30.18,22.36 33.35,16.86 31.22,8.27C26.06,1.76 19.22,-0.91 10.72,0.27C1.16,3.4 -2.01,9.73 1.22,19.27Z " /></g><g opacity="1" transform="translate(76.5 116.49999999999999)  rotate(0 20.500956005586602 44.00144360902255)"><path id="路径 5" fill-rule="evenodd" style="fill:#FFFBFA" transform="translate(0 0)  rotate(0 20.500956005586602 44.00144360902256)" opacity="1" d="M5,0C3.87,3.59 2.2,6.92 0,10C8.49,14.32 15.99,19.99 22.5,27C23.48,28.87 23.99,30.87 24,33C21.76,45.5 17.26,57.16 10.5,68C6.63,73.35 3.46,79.01 1,85C10.97,87.06 20.97,88.06 31,88C35.91,70.98 39.24,53.65 41,36C41.04,32.24 40.54,28.58 39.5,25C30.48,13.39 18.98,5.06 5,0Z " /></g></g></g></svg>