<svg xmlns="http://www.w3.org/2000/svg" xmlns:xlink="http://www.w3.org/1999/xlink" width="32" height="32" viewBox="0 0 32 32" fill="none"><defs><rect id="path_0" x="0" y="0" width="23.296875" height="16" /></defs><g opacity="1" transform="translate(0 0)  rotate(0 16 15.999999999999998)"><path id="矩形 1" fill-rule="evenodd" transform="translate(0 0)  rotate(0 16 15.999999999999998)" opacity="1" d="M0,32L32,32L32,0L0,0L0,32Z " /><g opacity="1" transform="translate(4.3515625 8)  rotate(0 11.6484375 8)"><mask id="bg-mask-0" fill="white"><use xlink:href="#path_0"></use></mask><g mask="url(#bg-mask-0)" ><path id="路径 1" fill-rule="evenodd" style="fill:#000000" transform="translate(0.0033836821796366934 8.394609265494068e-7)  rotate(0 11.639728528753537 7.998173174019538)" opacity="1" d="M10.64,0.52L0.04,15.61C-0.01,15.68 -0.01,15.78 0.03,15.86C0.07,15.95 0.15,16 0.25,16L0.25,16L2.48,16C2.59,16 2.7,15.94 2.76,15.85L10.96,3.7C11.11,3.47 11.37,3.34 11.64,3.34C11.91,3.34 12.17,3.47 12.32,3.7L20.57,15.92C20.6,15.97 20.65,16 20.71,16L23.03,16C23.13,16 23.21,15.95 23.25,15.86C23.29,15.78 23.29,15.68 23.23,15.61L12.65,0.52C12.42,0.19 12.04,0 11.64,0C11.24,0 10.87,0.19 10.64,0.52Z " /><path id="路径 2" fill-rule="evenodd" style="fill:#FC644A" transform="translate(5.338338267085426 8.35668763338095)  rotate(0 6.304901982198327 3.8198297770595255)" opacity="1" d="M4.74,3.18L4.68,0.33C4.68,0.18 4.58,0.05 4.43,0.01C4.29,-0.03 4.14,0.04 4.06,0.17L0.02,7.4C-0.01,7.45 -0.01,7.51 0.02,7.56C0.05,7.61 0.11,7.64 0.16,7.64L2.45,7.64C2.54,7.64 2.63,7.59 2.67,7.5L3.87,5.13L8.77,5.13L10.07,7.64L12.45,7.64C12.5,7.64 12.56,7.61 12.59,7.56C12.62,7.51 12.62,7.45 12.59,7.4L8.52,0.19C8.44,0.06 8.29,0 8.14,0.04C8,0.07 7.9,0.2 7.9,0.35L7.87,3.18L4.74,3.18Z " /></g></g></g></svg>