<svg xmlns="http://www.w3.org/2000/svg" xmlns:xlink="http://www.w3.org/1999/xlink" width="31" height="30" viewBox="0 0 31 30" fill="none"><defs><rect id="path_0" x="0" y="0" width="30.002863672330932" height="30" /></defs><g opacity="1" transform="translate(0 0)  rotate(0 15.001431836165466 15)"><mask id="bg-mask-0" fill="white"><use xlink:href="#path_0"></use></mask><g mask="url(#bg-mask-0)" ><g opacity="1" transform="translate(0 0)  rotate(0 15 15)"><g opacity="1" transform="translate(0 0)  rotate(0 15 15)"><g opacity="1" transform="translate(0 0)  rotate(0 15 15)"><g opacity="1" transform="translate(3.04279998046875 5.829779853515625)  rotate(0 10.425 8.248114550781251)"><path id="路径 8" fill-rule="evenodd" style="fill:#0093FD" transform="translate(0 0)  rotate(0 10.425 7.62)" opacity="1" d="M16.06,4.75L9.19,12.86L16.89,15.24L20.85,0L0,10.1L7.2,12.28L16.06,4.75Z " /><path id="路径 9" fill-rule="evenodd" style="fill:#0066BD" transform="translate(7.197268857421875 4.749048427734372)  rotate(0 4.435 4.055)" opacity="1" d="M1.99,8.11L8.87,0L0,7.53L1.99,8.11Z " /><path id="路径 10" fill-rule="evenodd" style="fill:#0064BB" transform="translate(7.198118466796876 12.276229101562503)  rotate(0 1.435 2.11)" opacity="1" d="M0,0L0,4.22L2.87,0.85L0,0Z " /></g></g></g></g></g></g></svg>