<?xml version="1.0" encoding="utf-8"?>
<!-- Generator: Adobe Illustrator 26.0.1, SVG Export Plug-In . SVG Version: 6.00 Build 0)  -->
<svg version="1.1" id="图层_1" xmlns="http://www.w3.org/2000/svg" xmlns:xlink="http://www.w3.org/1999/xlink" x="0px" y="0px"
	 viewBox="0 0 226.4 226.4" style="enable-background:new 0 0 226.4 226.4;" xml:space="preserve">
<style type="text/css">
	.st0{fill:url(#SVGID_1_);}
	.st1{fill:#FFFFFF;}
</style>
<linearGradient id="SVGID_1_" gradientUnits="userSpaceOnUse" x1="-2.9437" y1="-1.3285" x2="234.1742" y2="232.7326">
	<stop  offset="1" style="stop-color:#EE5601"/>
</linearGradient>
<rect x="-0.3" y="0.4" class="st0" width="227.1" height="225.8"/>
<g>
	<path class="st1" d="M100.3,167.7c-1.4-0.8-3.1-0.4-3.9,1l-10.3,17.6c-0.8,1.4-0.4,3.1,1,3.9c1.4,0.8,3.1,0.4,3.9-1l10.3-17.6
		C102.1,170.2,101.7,168.5,100.3,167.7z"/>
	<path class="st1" d="M90.4,159.7c-1.3-0.8-3.1-0.5-3.9,0.9l-16.6,26.1c-0.8,1.3-0.5,3.1,0.9,3.9c1.3,0.8,3.1,0.5,3.9-0.9l16.6-26.1
		C92.1,162.3,91.7,160.6,90.4,159.7z"/>
	<path class="st1" d="M78.9,157.9c-0.1-0.7-0.5-1.4-1.1-1.9c-0.6-0.4-1.4-0.6-2.1-0.5c-0.7,0.1-1.4,0.5-1.9,1.2l-11,15.2
		c-0.5,0.6-0.7,1.4-0.5,2.1c0.1,0.7,0.5,1.4,1.1,1.9c0.6,0.4,1.4,0.6,2.1,0.5c0.7-0.1,1.4-0.5,1.9-1.2l11-15.2
		C78.9,159.4,79,158.6,78.9,157.9z"/>
	<path class="st1" d="M167.1,163.9c0.6-0.6,1.1-1.2,1.7-1.7c0.2-0.3,0.5-0.5,0.7-0.8c0.5-0.6,1.1-1.2,1.6-1.9
		c0.2-0.2,0.4-0.4,0.6-0.7c0.7-0.8,1.4-1.7,2-2.6c0.1-0.2,0.3-0.4,0.4-0.6c0.5-0.7,1-1.4,1.5-2.1c0.2-0.3,0.4-0.6,0.6-0.9
		c0.4-0.7,0.9-1.3,1.3-2c0.2-0.3,0.4-0.6,0.5-0.8c0.6-0.9,1.1-1.9,1.6-2.9c0,0,0-0.1,0.1-0.1c0.5-0.9,1-1.9,1.5-2.8
		c0.1-0.3,0.3-0.6,0.4-0.9c0.3-0.7,0.7-1.4,1-2.2c0.1-0.3,0.3-0.7,0.4-1c0.4-0.8,0.7-1.7,1-2.6c0.1-0.2,0.1-0.4,0.2-0.6
		c0.4-1,0.7-2.1,1.1-3.2c0.1-0.3,0.2-0.6,0.3-0.9c0.2-0.8,0.5-1.6,0.7-2.4c0.1-0.4,0.2-0.7,0.3-1.1c0.2-0.8,0.4-1.6,0.6-2.5
		c0.1-0.3,0.1-0.6,0.2-0.9c0.2-1.1,0.4-2.2,0.6-3.4c0-0.2,0.1-0.4,0.1-0.7c0.1-0.9,0.3-1.8,0.4-2.8c0-0.4,0.1-0.7,0.1-1.1
		c0.1-0.8,0.1-1.7,0.2-2.5c0-0.4,0-0.7,0.1-1.1c0.1-1.2,0.1-2.3,0.1-3.5c0-41.8-33.9-75.6-75.6-75.6c-41.8,0-75.6,33.9-75.6,75.6
		c0,1.2,0,2.4,0.1,3.6c0,0.3,0,0.5,0,0.8c0.1,1.2,0.2,2.3,0.3,3.5c0,0.2,0,0.4,0.1,0.6c0.1,0.5,0.1,1.1,0.2,1.6l0,0
		c2.3,17.7,10.8,33.5,23.2,45.1l3.9-6.7c-11.1-10.9-18.4-25.6-19.9-42l74.3-36.9c6.1-3,13.2,1.1,13.7,7.8l6.4,85.3
		c-8.2,3.5-17.2,5.4-26.7,5.4c-2.8,0-5.5-0.2-8.3-0.5l-4,7c4,0.7,8.1,1,12.3,1c9.6,0,18.8-1.8,27.3-5.1l0,0c0.5-0.2,1.1-0.4,1.6-0.6
		c0.3-0.1,0.5-0.2,0.8-0.3c1-0.4,2-0.9,3-1.4c0.2-0.1,0.4-0.2,0.7-0.3c0.8-0.4,1.5-0.8,2.3-1.2c0.3-0.2,0.6-0.3,1-0.5
		c0.7-0.4,1.4-0.8,2.1-1.2c0.3-0.2,0.6-0.3,0.9-0.5c0.9-0.6,1.9-1.2,2.8-1.8c0.1,0,0.1-0.1,0.2-0.1c0.8-0.6,1.7-1.2,2.5-1.8
		c0.3-0.2,0.5-0.4,0.8-0.6c0.6-0.5,1.2-1,1.8-1.4c0.3-0.2,0.6-0.4,0.8-0.7c0.7-0.6,1.4-1.2,2.1-1.8c0.1-0.1,0.3-0.2,0.4-0.4
		c0.8-0.7,1.6-1.5,2.4-2.3C166.7,164.4,166.9,164.1,167.1,163.9z"/>
	
		<ellipse transform="matrix(0.3827 -0.9239 0.9239 0.3827 -51.4145 175.5759)" class="st1" cx="105.7" cy="126.3" rx="12.3" ry="12.3"/>
</g>
</svg>
