<svg xmlns="http://www.w3.org/2000/svg" xmlns:xlink="http://www.w3.org/1999/xlink" width="32" height="32" viewBox="0 0 32 32" fill="none"><g opacity="1" transform="translate(0 0)  rotate(0 16 16)"><path id="矩形 1" fill-rule="evenodd"  transform="translate(0 0)  rotate(0 16 16)" opacity="1" d="M32,0L0,0L0,32L32,32L32,0Z " /><g opacity="1" transform="translate(7 5.249781782001634)  rotate(0 9 10.750218217998357)"><path id="路径 1" fill-rule="evenodd" style="fill:#666666" transform="translate(0 4.859098627344755)  rotate(0 9 8.320668904325979)" opacity="1" d="M18,10.84C17.24,10.61 16.55,10.07 15.96,9.21C15.36,8.36 15.07,7.39 15.07,6.33C15.06,5.37 15.35,4.44 15.91,3.66C16.22,3.21 16.71,2.7 17.38,2.13C16.94,1.59 16.49,1.15 16.04,0.84C15.23,0.28 14.32,0 13.28,0C12.65,0 11.9,0.15 11.05,0.44C10.2,0.74 9.58,0.88 9.2,0.88C8.9,0.88 8.31,0.75 7.42,0.49C6.51,0.23 5.76,0.1 5.13,0.1C3.64,0.1 2.43,0.72 1.46,1.96C0.49,3.22 0,4.82 0,6.8C0,8.91 0.65,11.07 1.9,13.29C3.18,15.52 4.46,16.64 5.79,16.64C6.22,16.64 6.78,16.5 7.49,16.2C8.19,15.92 8.81,15.78 9.33,15.78C9.86,15.78 10.52,15.9 11.28,16.19C12.06,16.46 12.65,16.6 13.09,16.6C14.19,16.6 15.3,15.76 16.41,14.07C17.16,12.95 17.68,11.86 18,10.84L18,10.84Z " /><path id="路径 2" fill-rule="evenodd" style="fill:#666666" transform="translate(8.826756105204138 0)  rotate(0 2.1578995752034693 2.61643772589512)" opacity="1" d="M4.3,0.28C4.29,0.21 4.26,0.12 4.24,0C2.74,0.35 1.65,0.98 1.01,1.91C0.36,2.84 0.03,3.95 0,5.23C0.61,5.18 1.05,5.1 1.34,5.01C1.81,4.86 2.27,4.55 2.74,4.08C3.28,3.54 3.68,2.95 3.94,2.3C4.19,1.67 4.31,1.07 4.31,0.54L4.32,0.54C4.32,0.45 4.3,0.37 4.3,0.28Z " /></g></g></svg>