<svg xmlns="http://www.w3.org/2000/svg" xmlns:xlink="http://www.w3.org/1999/xlink" width="30" height="30" viewBox="0 0 30 30" fill="none"><defs><rect id="path_0" x="0" y="0" width="30" height="30" /><rect id="path_1" x="0" y="0" width="24" height="24" /></defs><g opacity="1" transform="translate(0 0)  rotate(0 15 15)"><mask id="bg-mask" fill="white"><use xlink:href="#path_0"></use></mask><g mask="url(#bg-mask)" ><path id="矩形 1" fill-rule="evenodd" transform="translate(0 0)  rotate(0 15 15)" opacity="1" d="M0,30L30,30L30,0L0,0L0,30Z " /><g opacity="1" transform="translate(3 3)  rotate(0 12 12)"><mask id="bg-mask" fill="white"><use xlink:href="#path_1"></use></mask><g mask="url(#bg-mask)" ><path id="分组 1" fill-rule="evenodd" style="fill:#FFFFFF" transform="translate(0.3600000000000003 8.579999999999998)  rotate(0 11.52 2.880000000000002)" opacity="1" d="M0 4.98L0.96 5.7C1.26 5.22 1.56 4.62 1.86 3.84L0.84 3.3C0.6 4.02 0.36 4.56 0 4.98Z M0.12 2.46C0.42 2.64 0.78 2.88 1.14 3.12C1.2 3.18 1.2 3.24 1.26 3.24L1.92 2.34C1.62 2.04 1.2 1.8 0.78 1.62L0.12 2.46Z M0.12 0.96C0.42 1.08 0.78 1.32 1.32 1.62L2.1 0.72C1.8 0.48 1.38 0.3 0.96 0.12L0.12 0.96Z M5.16 1.62L2.94 1.62L3.06 1.56L5.52 1.56L5.52 0.54L3.42 0.54L3.6 0.18L2.4 0.06C2.22 0.66 1.92 1.2 1.44 1.74L2.28 2.46C2.34 2.34 2.4 2.28 2.58 2.1L2.58 2.4L5.16 2.4L5.16 1.62Z M5.46 4.02C5.28 4.26 5.16 4.38 5.1 4.38C4.92 4.56 4.92 4.02 4.98 2.82L4.98 2.58L1.74 2.58L1.74 3.66L3.84 3.66C3.78 5.04 4.08 5.76 4.68 5.76C5.04 5.7 5.4 5.52 5.76 5.22L5.46 4.02Z M8.04 0.06L7.5 0.78L6 0.78L6 1.86L6.9 1.86L6.66 2.16C6.6 2.28 6.54 2.34 6.42 2.4L6.42 3.6L8.16 3.6L8.16 3.96L5.94 3.96L5.94 5.04L8.16 5.04L8.16 5.76L9.36 5.76L9.36 5.04L11.34 5.04L11.34 3.96L9.36 3.96L9.36 3.6L10.98 3.6L10.98 2.46L9.36 2.46L9.36 1.98L8.16 1.98L8.16 2.46L7.74 2.46L8.22 1.86L11.22 1.86L11.22 0.78L8.88 0.78L9.12 0.48L8.04 0.06Z M14.88 0.06L13.74 0.18C13.8 0.36 13.8 0.54 13.86 0.72L13.86 0.84L12 0.84L12 1.98L15.54 1.98C14.94 2.52 14.22 3.06 13.32 3.48C12.96 3.3 12.6 3.42 12.3 3.78C12.18 3.96 11.94 4.2 11.64 4.62L11.58 4.68L12.48 5.52C12.6 5.34 12.78 5.1 12.96 4.86C13.08 4.8 13.2 4.74 13.32 4.86C13.98 5.46 15.24 5.7 17.04 5.52L17.28 4.44C15.72 4.62 14.82 4.56 14.4 4.26C15.48 3.66 16.26 2.94 16.92 1.98L16.92 0.9L15.06 0.9C15 0.6 14.94 0.3 14.88 0.06Z M19.86 3.48C19.92 3.54 19.92 3.54 19.92 3.6C19.08 4.14 18.3 4.56 17.4 4.74L17.94 5.52C18.18 5.46 18.54 5.34 19.14 5.1L19.56 5.64C20.16 5.64 20.52 5.58 20.64 5.58C20.82 5.58 20.94 5.52 21 5.46C21.18 5.34 21.3 5.1 21.3 4.74C21.72 5.1 22.02 5.4 22.26 5.52L23.04 4.62L22.92 4.62C22.5 4.26 22.14 3.96 21.9 3.66C22.02 3.6 22.32 3.36 22.8 2.94L22.2 2.34L22.44 2.34L22.44 1.98L22.86 1.98L22.86 0.48L20.88 0.48L20.76 0L19.56 0.18L19.44 0.54L17.46 0.54L17.46 2.04L17.82 2.04L17.82 2.4L18.6 2.4C18.48 2.52 18.12 2.7 17.58 2.82L17.46 2.82L17.7 3.42C18.18 3.36 18.78 3.12 19.38 2.7C19.44 2.7 19.44 2.76 19.5 2.82C19.5 2.82 19.44 2.82 19.38 2.88C18.54 3.3 17.94 3.6 17.34 3.72L17.82 4.44C18.54 4.32 19.14 4.02 19.86 3.48Z M18.78 1.5L21.72 1.5L21.72 1.32L18.78 1.32L18.78 1.5Z M19.86 4.8C19.8 4.86 19.74 4.86 19.74 4.86C20.16 4.92 20.28 4.8 20.28 4.56C20.22 4.62 20.1 4.68 19.86 4.8Z M21 2.64L21.06 2.7C21.18 2.64 21.36 2.52 21.6 2.28L20.76 2.34C20.82 2.4 20.88 2.52 21 2.64Z " /><path id="分组 2" fill-rule="evenodd" style="fill:#EE6E30" transform="translate(0.4200000000000003 14.640000000000004)  rotate(0 11.609999999999998 1.2599999999999996)" opacity="1" d="M0.3 0.72C0.18 0.84 0.06 0.96 0.06 1.14L0.54 1.2C0.54 1.02 0.6 0.9 0.72 0.96C0.78 0.96 0.84 0.96 0.84 1.02C0.9 1.08 0.9 1.14 0.9 1.26L0.9 1.32C0.54 1.32 0.3 1.38 0.18 1.5C0.06 1.62 0 1.8 0 1.98C0 2.16 0.06 2.28 0.12 2.34C0.18 2.4 0.3 2.46 0.42 2.46C0.66 2.46 0.78 2.34 0.9 2.16L0.9 2.52L1.38 2.52L1.38 1.38C1.38 1.2 1.32 1.02 1.32 0.96C1.32 0.84 1.26 0.78 1.14 0.72C1.08 0.66 0.96 0.6 0.78 0.6C0.6 0.6 0.42 0.6 0.3 0.72Z M0.6 1.68C0.54 1.74 0.48 1.74 0.48 1.86C0.48 1.98 0.54 2.1 0.66 2.1C0.72 2.1 0.78 2.04 0.84 1.98C0.9 1.92 0.9 1.8 0.9 1.56C0.78 1.56 0.66 1.62 0.6 1.68Z M2.1 1.74L2.1 0.6L1.62 0.6L1.68 2.22C1.68 2.28 1.74 2.34 1.8 2.4C1.86 2.46 1.98 2.46 2.1 2.46C2.22 2.46 2.28 2.46 2.34 2.4C2.4 2.34 2.46 2.28 2.52 2.16L2.52 2.4L2.94 2.4L2.94 0.66L2.46 0.66L2.46 1.86C2.46 1.92 2.4 1.92 2.4 1.98C2.4 2.04 2.34 2.04 2.28 2.04C2.22 2.04 2.22 2.04 2.16 1.98C2.1 1.92 2.1 1.86 2.1 1.74Z M3.48 2.4C3.6 2.46 3.72 2.46 3.84 2.46C3.96 2.46 4.02 2.4 4.14 2.4L4.14 2.04L4.02 2.04C3.96 2.04 3.9 1.98 3.9 1.98C3.84 1.98 3.84 1.98 3.84 1.92L3.84 1.02L4.14 1.02L4.14 0.6L3.84 0.6L3.84 0.06L3.36 0.06L3.42 0.54L3.24 0.54L3.24 0.96L3.36 0.96L3.36 2.16C3.36 2.28 3.42 2.34 3.48 2.4Z M4.92 0.6C4.44 0.6 4.2 0.9 4.2 1.5C4.2 2.1 4.44 2.4 4.92 2.4C5.4 2.4 5.64 2.1 5.64 1.5C5.64 0.9 5.46 0.6 4.92 0.6Z M5.16 1.02C5.1 0.96 5.1 0.9 4.98 0.9C4.92 0.9 4.86 0.96 4.8 1.02C4.74 1.08 4.74 1.26 4.74 1.5C4.74 1.74 4.74 1.86 4.8 1.98C4.8 2.04 4.86 2.1 4.98 2.1C5.04 2.1 5.1 2.04 5.16 1.98C5.16 1.86 5.22 1.74 5.22 1.5C5.22 1.26 5.22 1.14 5.16 1.02Z M6.78 1.2L6.78 2.34L7.26 2.34L7.26 0.9C7.26 0.78 7.2 0.72 7.14 0.66C7.08 0.6 6.96 0.6 6.84 0.6C6.66 0.6 6.48 0.72 6.42 0.84L6.42 0L5.94 0L5.88 2.4L6.36 2.4L6.36 1.26C6.36 1.14 6.36 1.08 6.42 1.02C6.48 0.96 6.54 0.96 6.6 0.96C6.66 0.96 6.66 0.9 6.72 0.96C6.78 1.02 6.78 1.08 6.78 1.2Z M8.16 0.6C7.68 0.6 7.44 0.9 7.44 1.5C7.44 2.1 7.68 2.4 8.16 2.4C8.64 2.4 8.88 2.1 8.88 1.5C8.88 0.9 8.64 0.6 8.16 0.6Z M8.28 1.02C8.22 0.96 8.22 0.9 8.1 0.9C8.04 0.9 7.98 0.96 7.92 1.02C7.86 1.08 7.86 1.26 7.86 1.5C7.86 1.74 7.86 1.86 7.92 1.98C7.92 2.04 7.98 2.1 8.1 2.1C8.16 2.1 8.22 2.04 8.28 1.98C8.34 1.86 8.34 1.74 8.34 1.5C8.34 1.26 8.34 1.14 8.28 1.02Z M10.74 1.02L10.74 2.34L11.22 2.34L11.22 1.2C11.22 1.02 11.16 0.84 11.16 0.78C11.16 0.72 11.1 0.66 11.04 0.6C10.98 0.54 10.92 0.54 10.8 0.54C10.62 0.54 10.44 0.66 10.38 0.84C10.32 0.66 10.2 0.54 10.02 0.54C9.84 0.54 9.66 0.66 9.6 0.84L9.6 0.6L9.12 0.6L9.06 0.6L9.06 2.34L9.54 2.34L9.54 1.32C9.54 1.2 9.6 1.08 9.6 1.02C9.66 0.96 9.72 0.96 9.78 0.96C9.84 0.96 9.9 0.96 9.9 1.02L9.9 2.4L10.38 2.4L10.38 1.38C10.38 1.2 10.5 1.08 10.5 1.02C10.5 0.96 10.56 0.96 10.62 0.96C10.68 0.96 10.74 1.02 10.74 1.02Z M12.12 0.48C11.88 0.48 11.7 0.54 11.58 0.72C11.46 0.9 11.4 1.14 11.4 1.44C11.4 1.74 11.46 1.92 11.58 2.1C11.7 2.28 11.88 2.34 12.12 2.34C12.48 2.34 12.72 2.16 12.78 1.74L12.36 1.74C12.36 1.92 12.24 2.04 12.12 2.04C12.06 2.04 12 2.04 11.94 1.98C11.88 1.92 11.88 1.86 11.88 1.68L11.88 1.56L12.78 1.56C12.78 1.2 12.78 0.96 12.6 0.72C12.48 0.54 12.3 0.48 12.12 0.48Z M12.18 0.9C12.06 0.9 11.94 1.02 11.94 1.32L12.42 1.32C12.42 1.02 12.36 0.9 12.18 0.9Z M13.08 2.4L13.56 2.4L13.56 1.86L13.08 1.86L13.08 2.4Z M14.76 1.74C14.76 1.92 14.7 2.04 14.58 2.04C14.52 2.04 14.46 1.98 14.4 1.92C14.34 1.86 14.34 1.68 14.34 1.5C14.34 1.14 14.4 0.96 14.58 0.96C14.64 0.96 14.7 0.96 14.7 1.02C14.76 1.08 14.76 1.14 14.76 1.26L15.18 1.26C15.18 0.78 15 0.6 14.64 0.54C14.4 0.54 14.22 0.6 14.1 0.78C13.98 0.96 13.92 1.2 13.92 1.5C13.92 1.8 13.98 1.98 14.1 2.16C14.16 2.34 14.34 2.4 14.58 2.4C15 2.4 15.18 2.16 15.18 1.74L14.76 1.74Z M16.08 0.6C15.6 0.6 15.36 0.9 15.36 1.5C15.36 2.1 15.6 2.4 16.08 2.4C16.56 2.4 16.8 2.1 16.8 1.5C16.8 0.9 16.56 0.6 16.08 0.6Z M16.26 1.02C16.26 0.96 16.2 0.9 16.08 0.9C16.02 0.9 15.96 0.96 15.9 1.02C15.84 1.08 15.84 1.26 15.84 1.5C15.84 1.74 15.84 1.86 15.9 1.98C15.9 2.04 15.96 2.1 16.08 2.1C16.14 2.1 16.2 2.04 16.26 1.98C16.26 1.86 16.32 1.74 16.32 1.5C16.32 1.26 16.32 1.14 16.26 1.02Z M18.72 1.02L18.72 2.34L19.2 2.34L19.2 1.2C19.2 1.02 19.14 0.84 19.14 0.78C19.14 0.72 19.08 0.66 19.02 0.6C18.96 0.54 18.9 0.54 18.78 0.54C18.6 0.54 18.42 0.66 18.36 0.84C18.3 0.66 18.18 0.54 18 0.54C17.82 0.54 17.64 0.66 17.58 0.84L17.58 0.6L17.1 0.6L17.1 0.66L17.04 0.66L17.04 2.28L17.52 2.28L17.52 1.26C17.52 1.14 17.58 1.02 17.58 0.96C17.64 0.9 17.7 0.9 17.76 0.9C17.82 0.9 17.88 0.9 17.88 0.96L17.88 2.34L18.36 2.34L18.36 1.32C18.36 1.2 18.42 1.08 18.42 1.02C18.42 0.96 18.48 0.96 18.54 0.96C18.6 0.96 18.72 1.02 18.72 1.02Z M19.5 2.4L19.98 2.4L19.98 1.86L19.5 1.86L19.5 2.4Z M20.46 0.84C20.34 1.02 20.28 1.26 20.28 1.56C20.28 1.86 20.34 2.04 20.46 2.22C20.52 2.4 20.7 2.46 20.94 2.46C21.36 2.46 21.54 2.22 21.6 1.74L21.18 1.74C21.18 1.92 21.12 2.04 21 2.04C20.94 2.04 20.88 1.98 20.82 1.92C20.76 1.86 20.76 1.68 20.76 1.5C20.76 1.14 20.82 0.96 21 0.96C21.06 0.96 21.12 0.96 21.12 1.02C21.18 1.08 21.18 1.14 21.18 1.26L21.6 1.26C21.54 0.78 21.36 0.6 21 0.6C20.76 0.6 20.58 0.66 20.46 0.84Z M23.22 2.28L23.22 1.14C23.22 0.96 23.16 0.84 23.16 0.78C23.16 0.72 23.1 0.66 23.04 0.6C22.92 0.54 22.86 0.54 22.74 0.54C22.56 0.54 22.38 0.66 22.32 0.84L22.32 0.6L21.84 0.6L21.84 2.16L22.32 2.16L22.32 1.2C22.32 1.08 22.38 0.96 22.38 0.9C22.44 0.84 22.5 0.84 22.56 0.84C22.62 0.84 22.68 0.9 22.68 0.9C22.74 0.96 22.74 1.02 22.74 1.14L22.74 2.28L23.22 2.28Z " /></g></g></g></g></svg>