<svg xmlns="http://www.w3.org/2000/svg" xmlns:xlink="http://www.w3.org/1999/xlink" width="29.257142857142867" height="29.27917875474236" viewBox="0 0 29.257142857142867 29.27917875474236" fill="none"><defs><rect id="path_0" x="0" y="0" width="29.257142857142856" height="29.250613702298594" /></defs><g opacity="1" transform="translate(0 0)  rotate(0 14.628571428571433 14.639589377371133)"><path id="矩形 1" fill-rule="evenodd" transform="translate(0 0)  rotate(0 14.628571428571428 14.639589377371133)" opacity="1" d="M0,29.28L29.26,29.28L29.26,0L0,0L0,29.28Z " /><g opacity="1" transform="translate(9.769962616701378e-15 0.014282526221632619)  rotate(0 14.628571428571428 14.625306851149297)"><mask id="bg-mask-0" fill="white"><use xlink:href="#path_0"></use></mask><g mask="url(#bg-mask-0)" ><path id="路径 2" fill-rule="evenodd" style="fill:#FFFFFF" transform="translate(6.9763801307061515 6.371661182771619)  rotate(0 7.215342721801504 7.229289176523098)" opacity="1" d="M12.82,10.66L13.4,10.66C14.01,10.49 14.44,9.93 14.43,9.29L14.43,7.58C14.42,6.81 12.81,1.27 12.57,0.88C12,0 10.43,0 10.23,0C10.15,0 10.09,0.03 10.03,0.07L0.12,7.3C0.04,7.4 -0.01,7.52 0,7.65L0,9.29C0,9.67 0.14,10.04 0.41,10.31C0.67,10.58 1.03,10.73 1.41,10.74L1.81,10.74L1.81,14.05C1.81,14.26 1.94,14.44 2.09,14.44C2.25,14.44 2.37,14.27 2.37,14.06L2.37,10.73L6.94,10.73L6.94,14.08C6.94,14.29 7.06,14.46 7.21,14.46C7.37,14.46 7.49,14.3 7.49,14.09L7.49,10.7L12.27,10.7L12.27,14.08C12.27,14.29 12.39,14.46 12.54,14.46C12.7,14.46 12.82,14.3 12.82,14.09L12.82,10.66Z " /><path id="路径 3" fill-rule="evenodd" style="fill:#AC1B19" transform="translate(7.297504388013972 9.951058781522008)  rotate(0 6.8020796298257835 2.0781098504798035)" opacity="1" d="M10,3.9L10,0.25C10,0.11 9.92,0 9.81,0C9.71,0 9.63,0.11 9.63,0.25L9.63,3.92L0.08,3.92C0.01,3.92 0,3.96 0,4.03C0,4.1 0.08,4.16 0.08,4.16L13.49,4.16L13.51,4.16C13.55,4.16 13.6,4.1 13.6,4.02C13.6,3.95 13.51,3.9 13.51,3.9L10,3.9Z " /><g opacity="1" transform="translate(7.295750672055712 16.20718004016957)  rotate(0 6.987242806411177 2.723524641821021)"><path id="路径 4" fill-rule="evenodd" style="fill:#FFFFFF" transform="translate(3.247881954564553 0.29279865534973126)  rotate(0 0.28527112919860603 2.165276667122747)" opacity="1" d="M0.57,0.29C0.57,0.13 0.44,0 0.29,0C0.13,0 0,0.13 0,0.29L0,4.05C0,4.2 0.13,4.33 0.29,4.33C0.44,4.33 0.57,4.2 0.57,4.05L0.57,0.29Z " /><path id="路径 5" fill-rule="evenodd" style="fill:#FFFFFF" transform="translate(5.000721054773594 0.29279863097023906)  rotate(0 0.28527112919860603 2.1652766854076066)" opacity="1" d="M0.57,0.29C0.57,0.18 0.52,0.09 0.43,0.04C0.34,-0.01 0.23,-0.01 0.14,0.04C0.05,0.09 0,0.18 0,0.29L0,4.05C0,4.2 0.13,4.33 0.29,4.33C0.44,4.33 0.57,4.2 0.57,4.05L0.57,0.29Z " /><path id="路径 6" fill-rule="evenodd" style="fill:#FFFFFF" transform="translate(8.21966669602799 0.29265239009145105)  rotate(0 0.2854172721951227 2.165422932381166)" opacity="1" d="M0.57,0.29C0.57,0.13 0.44,0 0.29,0C0.13,0 0,0.13 0,0.29L0,4.05C0,4.2 0.13,4.33 0.29,4.33C0.44,4.33 0.57,4.2 0.57,4.05L0.57,0.29Z " /><path id="路径 7" fill-rule="evenodd" style="fill:#FFFFFF" transform="translate(9.97279808222998 0.3057252965515076)  rotate(0 0.28527112919860603 2.152496278989694)" opacity="1" d="M0.57,0.27C0.56,0.12 0.44,0 0.29,0C0.13,0 0.01,0.12 0,0.27L0,4.03C0.01,4.18 0.13,4.3 0.29,4.3C0.44,4.3 0.56,4.18 0.57,4.03L0.57,0.27Z " /><path id="路径 8" fill-rule="evenodd" style="fill:#FFFFFF" transform="translate(0 0)  rotate(0 0.443982423414634 2.723524641821021)" opacity="1" d="M0.89,0.36C0.89,0.16 0.69,0 0.44,0C0.2,0 0,0.16 0,0.36L0,5.09C0,5.29 0.2,5.45 0.44,5.45C0.69,5.45 0.89,5.29 0.89,5.09L0.89,0.36Z " /><path id="路径 9" fill-rule="evenodd" style="fill:#FFFFFF" transform="translate(13.086520765993084 0)  rotate(0 0.44398242341463523 2.723524641821021)" opacity="1" d="M0.89,0.36C0.89,0.16 0.69,0 0.44,0C0.2,0 0,0.16 0,0.36L0,5.09C0,5.29 0.2,5.45 0.44,5.45C0.69,5.45 0.89,5.29 0.89,5.09L0.89,0.36Z " /></g></g></g></g></svg>