<svg width="128" height="128" viewBox="0 0 128 128" fill="none" xmlns="http://www.w3.org/2000/svg">
<rect width="128" height="128"/>
<path fill-rule="evenodd" clip-rule="evenodd" d="M113.243 73.686L110.612 62.4016L109.768 62.1187L110.522 73.686H104.746V48.9855L105.309 48.4124L109.886 47.874L112.864 59.4468L113.724 59.6981L112.994 49.01L113.32 48.4339L118.856 47.9004V73.686H113.243ZM90.2681 73.6333L89.2545 72.7782L88.3577 67.1059L88.3629 66.0201L89.2726 49.66L90.2155 48.6907L99.2383 47.3481L102.028 50.7267L102.566 54.6481V57.6081H97.3575L96.2306 52.1762L94.482 52.4846L93.9827 67.1165L94.482 69.3718L96.6409 69.0074L97.2998 63.8946L102.566 63.8957V71.0428L100.661 73.6313L90.2681 73.6333ZM84.4614 69.1507H87.7945V73.6823H84.4614V69.1507ZM77.0953 69.1125H74.6048L74.1861 73.686H68.0558L71.0059 49.3579L72.0249 48.4145L79.9694 47.5068L83.5168 73.686H77.469L77.0953 69.1125ZM76.0938 53.5481L75.5155 53.9053L74.5161 64.6019H76.9128L76.0938 53.5481ZM62.0282 71.8629L60.4505 73.631L54.1407 73.6329L53.1272 72.7777L52.2304 67.1054L52.2356 66.0196L53.1452 49.6595L54.0881 48.6902L63.1108 47.3476L65.9011 50.7262L66.4387 54.6476V57.6081H61.2301L60.1042 52.1762L58.3555 52.4846L57.8562 67.1165L58.3555 69.3718L60.514 69.0074L60.8146 66.9122L61.1736 63.8946H59.2656V60.0284H66.4383V73.6863H62.594L62.0282 71.8629ZM49.9956 73.686H44.3819L41.7519 62.4016L40.9071 62.1187L41.6609 73.686H35.8852V48.9855L36.4482 48.4127L41.0253 47.8743L44.003 59.4468L44.8633 59.6981L44.1332 49.01L44.4598 48.4339L50.5503 47.7027L49.9955 50.7723V73.686H49.9956ZM36.0477 76.703H34.7071V77.3568H33.5812V76.703H31.6802V77.3568H30.5738V76.703H29.1941V75.9128H30.5738V75.2475H31.6802V75.9128H33.5803V75.2475H34.7063V75.9128H36.0468V76.703H36.0477ZM13.0572 68.896L9.14417 68.6156V43.8413H31.1795L30.8622 48.2693L33.5812 48.4641V73.6884H12.7139L13.0572 68.896ZM15.9602 48.5451L14.8343 48.8499L13.7625 50.7181L15.4954 51.9218L17.3396 51.3687L17.4102 51.1607L17.1382 48.8299L17.4963 46.2086L15.9602 48.5451ZM20.2685 48.885L19.2544 50.6076L19.8307 52.5643L20.6659 52.1524L21.5248 51.8509L21.9992 49.5899L22.4085 45.9553L20.2685 48.885ZM24.3384 49.5464L22.8393 51.875L23.2387 53.3688L25.0779 52.9711L25.4668 51.3837L25.7483 50.0123L26.1065 47.391L24.3384 49.5464ZM27.491 51.4855L25.9468 53.7852L26.3482 54.9317L27.8772 54.5239L28.7672 52.4043L29.2934 49.6695L27.491 51.4855ZM31.137 54.8209L31.0565 53.9133L31.2407 52.4474L29.964 54.3809L28.6305 54.7487L29.2052 56.3951L30.593 56.4032L31.137 54.8209ZM22.0932 70.5371L24.7634 71.5786L26.6465 68.0875L25.4481 65.032L20.4558 64.2763L20.1958 67.6328L22.0932 70.5371ZM16.3797 57.088L19.4638 57.2815L26.1528 62.4127L27.3834 62.7632L29.4265 61.6692L29.2124 59.2838L21.711 54.3484L14.7309 53.5515L11.3197 56.8333L11.022 59.5574C11.022 59.5574 12.1879 61.9267 13.0257 63.1325C14.1481 63.1595 16.9572 63.2333 16.9572 63.2333L15.8606 57.8941L16.3797 57.088ZM13.336 75.7043L13.5835 77.5111L12.9804 77.479L12.7647 75.7775L13.336 75.7043ZM15.0592 77.5111L15.345 75.7043L15.7788 75.777L15.4576 77.5111H15.0592ZM12.8794 79.1291V78.2552H13.8105V75.252H14.7745V78.2532H15.5866V79.1271H14.7598L15.894 81.5285L15.4605 82.1859L15.1695 81.4059L14.814 80.6129L14.7765 84.1582H13.8089V84.1563L13.8303 80.6128L13.4174 81.7145L13.0115 82.7072L12.4514 81.8757L13.7904 79.1291H12.8793H12.8794ZM17.5949 77.8794H16.3624V77.3214H17.5951V76.5359H16.2819V75.9031H17.5951V75.2517H18.6999V75.9031H20.0134V76.5359H18.6999V77.3214H19.9217V77.8794H18.6999V78.6864H20.1926V79.4011H16.1921V78.6864H17.5951V77.8794H17.5949ZM19.9217 84.1545H18.9677L19.0674 83.9489V82.8953H17.2166V84.1548H16.3624V80.0894H19.9217V84.1545ZM17.895 80.7984H17.2164V82.234H17.895V80.7984ZM19.0674 80.7984H18.409V82.234H19.0674V80.7984ZM18.9668 84.1545H18.9677L18.9668 84.1563V84.1545ZM30.0216 78.424H32.0229V77.5937H33.2369V78.424H35.2377V80.4176H35.9575V81.333H33.7374L34.0507 81.6892C34.6002 82.3135 35.2423 82.8497 35.9546 83.2792L35.2496 84.1569C34.3216 83.5316 33.5042 82.7559 32.8314 81.8617L32.6766 81.657L32.4949 81.8275C32.225 82.1745 31.2749 83.338 30.0407 84.1569L29.3244 83.2736C30.0283 82.8386 30.6664 82.305 31.219 81.6892L31.5392 81.333H29.2822V80.4176H30.0218V78.424H30.0216ZM33.2369 80.4176H34.2894V79.1748H33.2369V80.4182V80.4176ZM30.9696 80.4176H32.0229V79.1748H30.9698V80.4182L30.9696 80.4176ZM46.1175 79.4395H45.527V78.3121H46.1175V76.5067H45.4541V75.3595H47.9424V76.5088H47.333V78.3142H47.8482V79.4413H47.333V81.5953L48.102 81.5408V82.7102L45.2755 82.9117V81.74L46.1175 81.6837V79.4392V79.4395ZM52.5458 75.2488V76.3418H48.8981V75.2488H52.5458ZM53.0401 78.8456H52.313V83.0323H53.1188L53.2092 82.9578V84.0588H51.1532V78.8436H50.3378L49.982 84.1554L48.8284 84.0848L49.1765 78.8455H48.4977V77.7748H53.0396V78.8453L53.0401 78.8456ZM64.7952 75.2476H66.1934V75.9792H68.9954V77.938H67.9648V76.8153H63.024V77.9377H61.9932V75.9791H64.7952V75.2475V75.2476ZM65.2613 80.8257L65.2278 80.4949L62.4828 82.074L62.0742 81.465L65.1111 79.8067L64.9395 79.1243L62.5578 80.4069L62.1473 79.7452L64.4516 78.5907L64.349 78.1942H63.7683V77.5323H67.222V78.1942H65.8416L65.9759 78.4872C66.1064 78.7815 66.2184 79.0835 66.3114 79.3916L66.4001 79.6736L67.9979 78.5739L68.5687 79.322L66.9118 80.4126L69.0412 82.8334L68.2396 83.5328L66.608 81.5246L66.5528 82.051C66.4726 82.7842 66.264 83.4976 65.9365 84.1585L64.6177 83.8844L64.655 83.8637L64.6827 83.7978C64.8411 83.4381 64.9712 83.0667 65.0717 82.6867L65.1962 82.1904L62.564 83.7545L62.0998 83.0985L65.2732 81.3068V81.1866C65.2757 81.0662 65.2718 80.9456 65.2613 80.8256V80.8257ZM80.7449 75.5275L80.2271 76.6586V84.0633H79.2107L79.2234 78.7734L78.8294 79.6957L78.587 80.2224L77.9197 79.4317L79.8823 75.2543L80.7449 75.5275ZM81.3494 75.6606H84.9487V81.1991H85.5495V82.0962H80.8368V81.1991H81.3494V75.6606ZM82.3371 81.1991H83.9505V80.4199H82.3368V81.1991H82.3371ZM82.3371 79.8458H83.9505V79.0573H82.3368V79.8461L82.3371 79.8458ZM82.3371 78.5436H83.9505V77.765H82.3368V78.5442L82.3371 78.5436ZM82.3371 77.2112H83.9505V76.4225H82.3368V77.2112H82.3371ZM82.7632 83.0636L81.6031 84.1563L80.9466 83.4265L82.1264 82.3432L82.7632 83.0636ZM85.6593 83.4285L85.0171 84.1563L83.8496 83.0637L84.4757 82.3433L85.6593 83.4285ZM96.7913 81.6005L95.2571 83.7446L94.5228 83.0275L96.056 80.9715L96.7913 81.6005ZM97.4658 80.261H94.6687V79.2516H95.2492V75.7817L100.434 75.2488L100.547 76.1385L96.3746 76.5731V79.252H97.4652V77.2371H98.8183V79.252H101.391V80.2616H98.8183V84.1582H97.2107L97.4662 83.8339V80.2616L97.4658 80.261ZM101.793 83.0252L101.05 83.7422L99.5248 81.6099L100.26 80.98L101.793 83.0252ZM111.431 77.046H111.053V76.2016H112.378V75.2535H113.481V76.2016H114.868V77.046H114.409V78.771H114.969V79.7115H110.84V78.771H111.431V77.0461V77.046ZM112.392 78.771H113.471V77.0461H112.392V78.7711V78.771ZM114.715 84.1582H111.227V80.712H114.715V84.1582ZM113.715 81.6812H112.26V83.2178H113.715V81.6812ZM117.852 79.0523L117.897 79.1256C118.31 79.8215 118.531 80.6144 118.539 81.4236C118.539 82.4314 118.145 83.5161 117.279 83.5161H116.573V84.1485H115.569V75.4446H118.582L117.852 79.0523ZM116.569 76.4465V78.8736H116.571L116.982 78.914L117.436 76.4468H116.569V76.4465ZM116.961 79.276L116.571 79.3798V82.3758H116.858C117.246 82.3758 117.495 81.9278 117.495 81.2335C117.495 80.6616 117.281 79.875 116.961 79.2751V79.276Z" fill="#F8E5C3"/>
</svg>
