<svg width="128" height="128" viewBox="0 0 128 128" fill="none" xmlns="http://www.w3.org/2000/svg">
<g clip-path="url(#clip0_313_569)">
<rect width="128" height="128" />
<rect width="128" height="128"/>
<path fill-rule="evenodd" clip-rule="evenodd" d="M82 6.5C99.6745 -1.05487 102 3.5 101 29C100.737 35.7005 101.423 40.57 101.955 44.3451C102.783 50.2247 103.237 53.4496 99.1512 56.8029C112.345 57.0768 116.322 64.4781 123.242 77.3565C124.667 80.0099 126.218 82.8959 128 86V128H34.5C28.2319 111.835 24.3581 97.8464 34.7992 84.4548C26.3006 86.8837 19.5 83.7062 19.5 61.5C19.5 42 20.2794 32.7962 31.5 28C49.1745 20.4451 50.5 25 49.5 50.5C49.2276 57.4474 50.0332 62.368 50.648 66.1227C50.9355 67.8784 51.1812 69.3792 51.2554 70.7131C54.9523 68.4765 59.181 66.2414 64 64C68.2689 62.6897 72.1627 61.5653 75.7236 60.6208C72.5377 57.1983 70.4112 50.425 70 38.5C69.3281 19.0116 70.7794 11.2962 82 6.5ZM83.0015 36.7351C83.0124 37.1621 83.025 37.6544 83.025 38.2278C83.025 42.2278 83.9999 53.8837 84.9999 56L91 52.5C90 50 89.5249 37.7278 89.525 35.2278L89.5252 35.0083C89.5284 32.6447 89.5302 31.3257 86.0251 32.7278C82.9307 33.9656 82.9363 34.1835 83.0015 36.7351ZM31.9764 57.0073C31.9873 57.4342 31.9999 57.9266 31.9999 58.5C32 62.5 33.4999 74.3837 34.4999 76.5L40.4999 72C39.4999 69.5 38.4999 58 38.5 55.5L38.5002 55.2805C38.5034 52.9169 38.5052 51.5979 35 53C31.9056 54.2378 31.9112 54.4556 31.9764 57.0073Z" fill="white"/>
<path d="M102 69.5C98.8 65.1 91 65 75 66.5C89 62.5 97.5 61 108.5 65.5C110.944 66.5 120.833 87.1667 128 97.5V111.5C122 103.5 109.636 80 102 69.5Z" fill="#F3FAFF"/>
<path fill-rule="evenodd" clip-rule="evenodd" d="M40.831 30.8675C39.4374 31.1906 37.3698 32.1784 34.192 33.8308C32.2611 34.8349 30.905 35.7308 29.9025 36.7678C28.925 37.779 28.2214 38.9897 27.7134 40.72C26.6552 44.3242 26.5 49.9129 26.5 60C26.5 66.2182 26.8513 70.4753 27.4732 73.2978C28.1126 76.1996 28.9511 77.1807 29.5472 77.4904C30.1083 77.782 31.0079 77.7589 32.6445 77.0007C33.9211 76.4092 35.3273 75.528 36.9472 74.5129C37.3543 74.2578 37.775 73.9942 38.2104 73.7246C40.693 72.1878 42.0974 71.0878 42.911 70.08C43.6549 69.1585 43.9488 68.2594 44.0012 66.9345C44.0482 65.7439 43.9005 64.3279 43.6934 62.3421C43.6493 61.9196 43.6026 61.4713 43.5544 60.9939C43.286 58.3325 43 54.9454 43 50.5C43 48.0689 43.0172 45.8951 43.0326 43.9496C43.0531 41.3508 43.0704 39.1594 43.0393 37.3065C43.0122 35.6983 42.9488 34.4067 42.826 33.3814C42.7013 32.3392 42.5262 31.6763 42.3326 31.2686C42.1583 30.9017 42.019 30.8377 41.9484 30.8113C41.82 30.7633 41.506 30.711 40.831 30.8675ZM46.0321 44.0362C46.0168 45.9827 46 48.1372 46 50.5C46 54.8081 46.2764 58.0866 46.5393 60.6929C46.5829 61.1256 46.627 61.5453 46.6697 61.9523C46.8783 63.9405 47.0552 65.6263 46.9988 67.053C46.9262 68.8909 46.4701 70.4473 45.2452 71.9645C44.0901 73.3953 42.307 74.717 39.7895 76.2754C39.4016 76.5155 39.0129 76.7594 38.6252 77.0026C36.9896 78.0286 35.3718 79.0435 33.9057 79.7227C32.1312 80.5448 30.0548 81.1349 28.1641 80.1526C26.3083 79.1884 25.219 77.0088 24.5435 73.9433C23.8506 70.7986 23.5 66.2819 23.5 60C23.5 50.0871 23.627 43.9891 24.8349 39.8749C25.46 37.7459 26.3855 36.0896 27.7456 34.6827C29.0809 33.3015 30.7712 32.2283 32.808 31.1692C35.8802 29.5716 38.3126 28.3719 40.1533 27.945C41.0956 27.7265 42.0823 27.6586 42.9989 28.0012C43.9732 28.3654 44.6229 29.0983 45.0424 29.9814C45.4425 30.8237 45.6658 31.864 45.8048 33.0249C45.9457 34.2026 46.0112 35.6142 46.0388 37.256C46.0704 39.1334 46.0527 41.3931 46.0321 44.0362Z" fill="#3C81EF"/>
<path fill-rule="evenodd" clip-rule="evenodd" d="M92.2789 10.2328C90.8487 10.3803 88.6232 11.1687 85.0688 12.6253C83.0386 13.4573 81.6239 14.1995 80.5799 15.0968C79.5753 15.9603 78.8507 17.0232 78.3192 18.6154C77.7732 20.2514 77.4339 22.4381 77.2394 25.5301C77.0456 28.6123 77 32.4988 77 37.5C77 43.7228 77.3425 47.8996 77.9655 50.6461C78.5982 53.4355 79.4382 54.3873 80.109 54.7318C80.8277 55.101 81.8888 55.0719 83.7249 54.5528C84.4835 54.3384 85.2918 54.0672 86.1914 53.7653C86.339 53.7158 86.489 53.6654 86.6417 53.6144C87.708 53.2578 88.8757 52.8764 90.1183 52.5494C92.3317 51.9669 93.4726 51.2156 94.1033 50.4016C94.7313 49.5911 95.0339 48.4876 95.0627 46.7871C95.0884 45.2686 94.8986 43.4771 94.6625 41.2493C94.63 40.9427 94.5966 40.6279 94.5628 40.3043C94.2879 37.6733 94 34.5798 94 31C94 27.0622 94.092 23.6968 94.1684 20.8977C94.2015 19.6879 94.2317 18.5839 94.2503 17.5852C94.2814 15.9143 94.2802 14.548 94.2136 13.4362C94.1462 12.3101 94.0158 11.5419 93.8349 11.027C93.663 10.5381 93.4892 10.3965 93.3867 10.3378C93.2573 10.2636 92.9584 10.1628 92.2789 10.2328ZM97.1661 21.0322C97.0899 23.8165 97 27.1036 97 31C97 34.4202 97.2746 37.3892 97.5466 39.9926C97.5797 40.3095 97.613 40.6229 97.6459 40.9324C97.8789 43.1227 98.0914 45.1205 98.0623 46.8379C98.0286 48.8249 97.675 50.6901 96.4748 52.2391C95.2774 53.7844 93.4183 54.7831 90.8817 55.4506C89.7401 55.751 88.6509 56.1058 87.593 56.4595C87.4472 56.5083 87.3014 56.5572 87.1558 56.6061C86.262 56.9062 85.3753 57.2039 84.5409 57.4397C82.6704 57.9685 80.5776 58.345 78.7384 57.4004C76.8513 56.4312 75.7294 54.35 75.0398 51.3097C74.3404 48.2266 74 43.7772 74 37.5C74 32.5012 74.0449 28.5288 74.2454 25.3417C74.4452 22.1644 74.8041 19.6714 75.4736 17.6657C76.1576 15.6161 77.1657 14.0754 78.6245 12.8217C80.0439 11.6017 81.8233 10.7132 83.9312 9.84935C87.3768 8.43731 90.0263 7.44919 91.9712 7.24866C92.9791 7.14473 93.9927 7.22706 94.8789 7.73516C95.7921 8.25871 96.337 9.09859 96.6651 10.0323C96.9842 10.9401 97.1351 12.0358 97.2083 13.2568C97.2823 14.4922 97.2811 15.9562 97.2497 17.641C97.2304 18.6802 97.1995 19.8076 97.1661 21.0322Z" fill="#3C81EF"/>
<path fill-rule="evenodd" clip-rule="evenodd" d="M56.089 97.034C57.4509 96.807 58.739 97.7271 58.966 99.089C59.1664 100.291 59.6984 101.823 60.3508 103.306C60.9992 104.779 61.683 106.018 62.0801 106.613C62.846 107.762 62.5356 109.314 61.3867 110.08C60.2379 110.846 58.6858 110.536 57.9199 109.387C57.317 108.482 56.5008 106.971 55.7742 105.319C55.0516 103.677 54.3336 101.709 54.034 99.911C53.807 98.5491 54.7271 97.261 56.089 97.034Z" fill="#3C81EF"/>
<path fill-rule="evenodd" clip-rule="evenodd" d="M51.4389 78.6017C44.6807 83.1747 39.5865 88.3475 37.3825 93.5821C34.9541 99.3496 35.3738 106.471 37.0024 113.502C38.6232 120.499 41.3817 127.165 43.3828 131.918L40.6179 133.082C38.619 128.335 35.7651 121.455 34.0797 114.179C32.4021 106.937 31.8216 99.0584 34.6176 92.4179C37.1504 86.4024 42.7995 80.8253 49.7576 76.1171C56.7492 71.3861 65.2253 67.4222 73.6538 64.6977C82.0709 61.9769 90.5356 60.4617 97.5017 60.704C104.36 60.9426 110.314 62.9212 112.834 67.8131C116.858 75.6252 121.209 83.0825 125.044 89.0137C128.921 95.0079 132.169 99.2795 133.988 100.871L132.012 103.129C129.831 101.221 126.376 96.5964 122.525 90.6428C118.634 84.6261 114.235 77.0834 110.167 69.1869C108.437 65.8288 104.012 63.9324 97.3974 63.7022C90.8905 63.4758 82.7877 64.8981 74.5765 67.5523C66.3766 70.2028 58.1636 74.0514 51.4389 78.6017Z" fill="#3C81EF"/>
<path fill-rule="evenodd" clip-rule="evenodd" d="M91.089 81.534C92.4509 81.307 93.739 82.2271 93.966 83.589C94.393 86.1512 95.7192 88.8219 96.5801 90.1133C97.346 91.2621 97.0356 92.8142 95.8867 93.5801C94.7379 94.346 93.1858 94.0356 92.4199 92.8867C91.2808 91.1781 89.607 87.8488 89.034 84.411C88.807 83.0491 89.7271 81.761 91.089 81.534Z" fill="#3C81EF"/>
</g>
<defs>
<clipPath id="clip0_313_569">
<rect width="128" height="128" fill="white"/>
</clipPath>
</defs>
</svg>
