<svg xmlns="http://www.w3.org/2000/svg" xmlns:xlink="http://www.w3.org/1999/xlink" width="26" height="26" viewBox="0 0 26 26" fill="none"><g opacity="1"  transform="translate(0 0)  rotate(0)"><path id="矩形 1" fill-rule="evenodd" fill="url(#linear_0)" opacity="1" d="M0 26L26 26L26 0L0 0L0 26Z"></path><path id="路径 2" fill-rule="evenodd" style="fill:#FFFFFF" opacity="1" d="M4.72792 15.9844C5.47954 16.2469 6.02102 16.8 6.34915 17.6453C6.29451 18.0906 6.25168 18.537 6.22065 18.9844C6.09214 18.1578 5.98708 17.6344 5.90303 17.4172C5.62016 16.6867 5.17 16.3625 4.72711 15.9844L4.72792 15.9844ZM16.5057 4.50625C16.2252 4.9125 15.0833 5.43515 15.0833 5.79452C15.6716 5.36484 16.6657 4.70937 17.8416 4.79296C19.0175 4.87656 20.0706 5.6078 20.6872 5.6078C20.3357 6.46718 18.3257 9.00233 16.9591 9.00233C16.0482 9.00233 15.2772 9.05703 14.6452 9.1664C14.8739 9.28359 15.4946 9.3414 16.5057 9.3414C15.615 9.54608 15.1342 9.52656 14.4189 10.643C13.7037 11.7586 11.6404 12.4906 10.5234 12.643C11.4286 12.7383 11.8974 12.643 11.8974 12.643C11.8974 12.643 10.7505 13.3102 10.5234 13.7094C10.2955 14.1078 8.36235 17.2141 7.32059 17.6735C7.136 17.7433 6.94554 17.7914 6.7492 17.818C7.12986 17.818 7.44505 17.7867 7.69478 17.7242C7.96876 17.6563 7.12501 17.8977 6.65384 18.1617C7.0054 14.8524 7.95745 12.2297 9.34915 10.6523C11.0003 8.78047 12.8535 7.58984 14.9071 7.08046C12.7726 7.41249 10.7998 8.60312 8.9895 10.6523C7.60507 12.2196 6.72496 14.5461 6.34915 17.632L6.35965 17.6735C6.23681 17.1383 6.08487 16.7453 5.90222 16.4938C5.62824 16.1156 5.43104 15.6735 5.17081 14.3516C4.91057 13.0305 6.35965 9.72031 6.35965 9.00233C6.91973 9.64297 7.04662 9.87265 7.0749 10.0016L7.07652 10.0172C7.06844 9.66405 7.11531 8.34452 8.01887 7.51327C9.10184 6.5164 10.9954 6.08671 11.1603 5.45781C11.2128 5.27344 11.2128 5.05156 11.1603 4.79296C11.3842 4.88906 11.4965 5.11015 11.4965 5.45703C11.4965 5.97812 11.6743 4.84062 13.1808 4.50625C14.6856 4.17031 15.6336 4.30312 16.5057 4.50625Z"></path><path id="路径 3" fill-rule="evenodd" fill="url(#linear_1)" opacity="1" d="M6.21333 19.1172C6.21333 19.2031 6.14464 20.1914 6.21333 20.3055C6.24485 20.3578 6.3685 20.0812 6.48812 19.5141C6.52206 19.3555 6.61258 19.0555 6.66026 18.6086C6.65895 18.5612 6.6471 18.5164 6.6247 18.4742C6.56174 18.6774 6.48874 18.8771 6.40568 19.0734C6.35315 19.1875 6.32001 19.1523 6.25212 19.0508C6.24808 19.0445 6.21333 19.032 6.21333 19.1172Z"></path><path id="路径 4" fill-rule="evenodd" style="fill:#FFFFFF" opacity="0.606" d="M6.3863 20.5883C6.36044 20.6047 6.34023 20.6047 6.32649 20.5883C6.30467 20.5641 6.30952 20.5344 6.32649 20.5211C7.62283 19.4985 9.60532 18.9735 11.9531 18.9735C15.5657 18.9735 16.4596 18.3055 16.0595 17.3187C15.6595 16.332 11.9054 16.3992 12.2077 15.1406C12.5083 13.8812 16.9098 13.2484 18.8801 12.7203C20.8036 12.2047 21.3209 11.8492 20.5515 11.0875C20.541 11.0773 20.5329 11.0578 20.545 11.0461C20.5571 11.0344 20.5773 11.0453 20.5854 11.0508C22.9251 12.8352 19.4935 13.6633 18.2093 13.968C16.9259 14.2727 15.0469 14.5219 14.7252 15.4172C14.4028 16.3133 15.6651 16.8125 16.9372 16.4727C18.2093 16.1328 19.0975 17.4523 17.7769 18.725C16.4564 19.9969 13.0999 19.3891 11.9531 19.3891C11.4464 19.3891 10.5533 19.2985 9.07999 19.4922C8.83506 19.5225 8.59338 19.5688 8.35497 19.6308C8.1165 19.6928 7.88348 19.7702 7.65588 19.8628C7.42829 19.9554 7.20821 20.0624 6.99564 20.1839C6.78307 20.3053 6.57996 20.4402 6.3863 20.5883Z"></path></g><defs><linearGradient id="linear_0" x1="0%" y1="100%" x2="100%" y2="0%" gradientUnits="objectBoundingBox"><stop offset="0" stop-color="#00B278" stop-opacity="1" /><stop offset="1" stop-color="#B1ED71" stop-opacity="1" /></linearGradient><linearGradient id="linear_1" x1="47.44399199418633%" y1="7.436%" x2="51.40400439755963%" y2="100%" gradientUnits="objectBoundingBox"><stop offset="0" stop-color="#FFFFFF" stop-opacity="1" /><stop offset="1" stop-color="#FFFFFF" stop-opacity="1" /></linearGradient></defs></svg>