<svg xmlns="http://www.w3.org/2000/svg" xmlns:xlink="http://www.w3.org/1999/xlink" width="32" height="32" viewBox="0 0 32 32" fill="none"><g opacity="1"  transform="translate(0 0)  rotate(0)"><g opacity="1"  transform="translate(0 0)  rotate(0)"><g id="undefined" filter="url(#filter_1)"></g><g opacity="1"  transform="translate(0 0)  rotate(0)"></g></g><g opacity="1"  transform="translate(5 5)  rotate(0)"><mask id="bg-mask-0" fill="white"><use xlink:href="#path_0"></use></mask><g mask="url(#bg-mask-0)" ><path id="路径 1" fill-rule="evenodd" fill="url(#linear_0)" opacity="1" d="M7.55319 18.61C8.32319 18.19 8.82319 17.89 9.09319 17.69L8.98319 17.75L9.00319 11.95L8.96319 3.94997C8.96319 3.94997 8.80319 2.79997 7.95319 2.24997C7.00319 1.49997 5.47319 0.439971 5.27319 0.379971C5.10319 0.219971 4.44319 -0.0200293 4.02319 0.799971L4.04319 16.87C4.04319 16.87 4.06319 17.05 4.11319 17.33C4.37319 17.75 4.72319 18.24 5.12319 18.46C5.47319 18.68 6.13319 19.27 7.55319 18.61Z"></path><path id="路径 2" fill-rule="evenodd" fill="url(#linear_1)" opacity="1" d="M9.08911 17.666C8.80911 17.866 8.31911 18.176 7.52911 18.586C6.12911 19.256 5.46911 18.656 5.09911 18.436C4.69911 18.216 4.34911 17.726 4.08911 17.286C4.21911 17.906 4.52911 19.006 5.31911 19.786C6.32911 20.816 7.55911 22.166 10.8691 21.676C11.6191 21.456 12.4291 21.016 13.8791 20.046C14.9691 19.316 16.0891 18.946 17.0091 17.666C18.0391 14.816 15.9991 13.986 15.4591 13.806L9.08911 17.666Z"></path><path id="路径 3" fill-rule="evenodd" fill="url(#linear_2)" opacity="1" d="M14.7707 8.68543C12.5407 7.54543 12.2107 7.36543 12.2107 7.36543C12.2107 7.36543 11.6607 6.90543 11.1307 6.94543C10.6307 7.16543 10.3007 7.47543 10.6707 8.44543C11.1707 9.83543 11.7707 11.3554 11.7707 11.3554C11.7707 11.3554 11.9907 12.4854 12.8907 12.8554C14.4407 13.3654 15.4507 13.7854 15.4507 13.7854L15.4307 13.8054C15.9807 13.9854 18.0207 14.7954 17.0107 17.6854C17.3407 17.2454 17.6307 16.6754 17.8907 15.9654C18.2207 14.7354 18.3707 14.1154 17.7807 11.8854C17.0807 10.5454 16.9707 9.96543 14.7707 8.68543Z"></path></g></g></g><defs><filter id="filter_1" x="-3242.246094" y="-1351.246094" width="32.49218800000017" height="32.49218800000017" filterUnits="userSpaceOnUse" color-interpolation-filters="sRGB"><feFlood flood-opacity="0" result="feFloodId"/>
          <feColorMatrix in="SourceAlpha" type="matrix" values="0 0 0 0 0 0 0 0 0 0 0 0 0 0 0 0 0 0 127 0" result="hardAlpha"/>
          
          <feOffset dx="0" dy="0"/>
          <feGaussianBlur stdDeviation="0.123047"/>
          <feComposite in2="hardAlpha" operator="arithmetic" k2="-1" k3="1"/>
          <feColorMatrix type="matrix" values="0 0 0 0 0 0 0 0 0 0 0 0 0 0 0 0 0 0 0.24 0"/>
          <feBlend mode="normal" in2="filter_feFlood" result="filter_feFlood_1"/>
          <feBlend mode="normal" in="SourceGraphic" in2="filter_1" result="shape"/></filter><rect id="path_0" x="0" y="0" width="22" height="22" /><linearGradient id="linear_0" x1="-35.44962061361625%" y1="6.1962149324833256%" x2="116.53195700866425%" y2="92.2359005487315%" gradientUnits="objectBoundingBox"><stop offset="0" stop-color="#3BBDF5" stop-opacity="1" /><stop offset="1" stop-color="#1B45D9" stop-opacity="1" /></linearGradient><linearGradient id="linear_1" x1="0.23299972266667543%" y1="50.1853582355865%" x2="100.11876503431914%" y2="50.1853582355865%" gradientUnits="objectBoundingBox"><stop offset="0" stop-color="#5AD9FE" stop-opacity="1" /><stop offset="0.51" stop-color="#43AAE1" stop-opacity="1" /><stop offset="1" stop-color="#144AD5" stop-opacity="1" /></linearGradient><linearGradient id="linear_2" x1="21.594364640095996%" y1="30.424493422139626%" x2="100.84032615170997%" y2="73.82536418046546%" gradientUnits="objectBoundingBox"><stop offset="0" stop-color="#3DC0FE" stop-opacity="1" /><stop offset="1" stop-color="#61DDD5" stop-opacity="1" /></linearGradient></defs></svg>