<svg xmlns="http://www.w3.org/2000/svg" xmlns:xlink="http://www.w3.org/1999/xlink" width="512" height="512" viewBox="0 0 512 512" fill="none"><defs><rect id="path_0" x="0" y="0" width="512" height="512" /><linearGradient id="linear_0" x1="64.32970058537003%" y1="-0.00010726793542375495%" x2="0.0001223081524473727%" y2="-0.00010726793542375495%" gradientUnits="objectBoundingBox"><stop offset="0.050160" stop-color="#FF68CF" stop-opacity="1" /><stop offset="0.994774" stop-color="#FF9059" stop-opacity="1" /></linearGradient><linearGradient id="linear_1" x1="67.61999250290242%" y1="62.791931188254644%" x2="-0.000044764223559845285%" y2="0.0000434697258125374%" gradientUnits="objectBoundingBox"><stop offset="0" stop-color="#FF68CF" stop-opacity="1" /><stop offset="0.483568" stop-color="#7B2FFF" stop-opacity="1" /><stop offset="1.000000" stop-color="#00CFFF" stop-opacity="1" /></linearGradient></defs><g opacity="1" transform="translate(0 0)  rotate(0 256 256)"><mask id="bg-mask-0" fill="white"><use xlink:href="#path_0"></use></mask><g mask="url(#bg-mask-0)" ><path id="路径 2" fill-rule="evenodd" fill="url(#linear_0)" transform="translate(213.834 147.59499999999997)  rotate(0 93.61599999999999 70.38449999999999)" opacity="1" d="M146.99,41.23C120.17,13.74 87.78,0 49.85,0C32,0 15.39,3.04 0,9.12L0,108.43C2.3,104.8 5.04,101.36 8.21,98.11C19.71,86.33 33.59,80.44 49.85,80.44C66.11,80.44 79.98,86.33 91.48,98.11C102.98,109.89 108.73,124.11 108.73,140.77L187.23,140.77C187.23,101.9 173.82,68.72 146.99,41.23Z " /><path id="路径 3" fill-rule="evenodd" fill="url(#linear_1)" transform="translate(126.29299999999998 66.5601)  rotate(0 137.38649999999998 180.58544999999998)" opacity="1" d="M196.27,219.4L196.27,221.52C196.27,238.05 190.52,252.16 179.02,263.84C167.52,275.53 153.65,281.37 137.39,281.37C121.13,281.37 107.25,275.53 95.75,263.84C84.26,252.16 78.51,238.05 78.51,221.52L78.51,78.51C78.51,35.15 43.37,0 0.01,0L0,221.52C0,260.08 13.41,293 40.24,320.27C67.07,347.54 99.45,361.17 137.39,361.17C175.33,361.17 207.71,347.54 234.53,320.27C261.36,293 274.77,260.08 274.77,221.52L274.77,219.4L196.27,219.4Z " /></g></g></svg>