<svg width="52" height="52" viewBox="0 0 52 52" fill="none" xmlns="http://www.w3.org/2000/svg">
<mask id="mask0_237_2535" style="mask-type:alpha" maskUnits="userSpaceOnUse" x="0" y="0" width="52" height="52">
<rect width="52" height="52" fill="url(#paint0_linear_237_2535)"/>
</mask>
<g mask="url(#mask0_237_2535)">
<rect width="52" height="52" fill="#FE5F23"/>
<path d="M21.8516 12L30.4287 12.0007C30.6114 12.0021 30.7876 12.0049 30.9573 12.0092L31.4484 12.0253L31.9049 12.0514C33.371 12.1528 34.3121 12.4133 35.2813 12.9189C36.4634 13.5304 37.4304 14.4732 38.0575 15.6257C38.5761 16.5706 38.8433 17.4881 38.9473 18.9176L38.974 19.3626L38.9906 19.8414L38.9957 20.0942L39 20.6293V37.1832C39 37.6633 38.8742 38.1355 38.6344 38.5548C38.3946 38.9742 38.0489 39.3269 37.63 39.5793C37.211 39.8317 36.7329 39.9756 36.2409 39.9972C35.749 40.0187 35.2595 39.9173 34.8191 39.7026L26.2094 35.5045L26.1011 35.4531L26.0007 35.4094L25.8996 35.4531L17.1817 39.7019C16.7412 39.9168 16.2518 40.0183 15.7598 39.9968C15.2677 39.9754 14.7895 39.8316 14.3705 39.5793C13.9516 39.3269 13.6057 38.9743 13.3658 38.5549C13.1259 38.1355 13 37.6633 13 37.1832L13.0007 20.3568C13.0022 20.1787 13.0051 20.0069 13.0094 19.8414L13.026 19.3626L13.0527 18.9176C13.1567 17.4881 13.4239 16.5706 13.9425 15.6257C14.5696 14.4732 15.5366 13.5304 16.7187 12.9189C17.6879 12.4133 18.629 12.1528 20.0951 12.0514L20.5516 12.0253L21.0427 12.0092L21.3019 12.0042L21.8508 12H21.8516ZM30.3882 14.8173H21.6118L21.1654 14.8229L20.9582 14.8279L20.5718 14.8419L20.2222 14.8631C20.0561 14.8757 19.9008 14.8905 19.7564 14.9081L19.4805 14.9469C19.084 15.0102 18.7655 15.1004 18.4694 15.2215L18.2744 15.3074C18.2094 15.3377 18.1458 15.3693 18.0823 15.4024C17.4033 15.7514 16.8485 16.2924 16.4905 16.9544C16.4566 17.0161 16.4241 17.0786 16.393 17.1417L16.3049 17.3318C16.1807 17.6205 16.0882 17.931 16.0232 18.3176L15.9835 18.5866C15.9654 18.7274 15.9503 18.8781 15.938 19.0408L15.9163 19.3816C15.9131 19.4426 15.9102 19.5036 15.9077 19.5647L15.8961 19.9604L15.8903 20.3956L15.8889 37.1825L24.5714 32.9519C24.9427 32.7766 25.1846 32.6928 25.4814 32.6372C25.8239 32.5722 26.1761 32.5722 26.5186 32.6372C26.8522 32.6998 27.1166 32.7984 27.5744 33.0216L36.1111 37.1832L36.1104 20.3963L36.1046 19.9597C36.1032 19.8926 36.1015 19.8254 36.0996 19.7583L36.0851 19.3816L36.0634 19.0408C36.0504 18.8788 36.0353 18.7274 36.0172 18.5866L35.9775 18.3176C35.9243 17.9792 35.8297 17.6483 35.6958 17.3318L35.6077 17.1417C35.5766 17.0786 35.5441 17.0161 35.5102 16.9544C35.1523 16.2924 34.5974 15.7514 33.9184 15.4024C33.8551 15.3694 33.7911 15.3377 33.7263 15.3074L33.5313 15.2215C33.2352 15.1004 32.9167 15.0102 32.5202 14.9469L32.2443 14.9081C32.0999 14.8905 31.9453 14.8757 31.7785 14.8638L31.4289 14.8426C31.3664 14.8395 31.3038 14.8367 31.2412 14.8342L30.8353 14.8229L30.3889 14.8166L30.3882 14.8173ZM28.1667 19.0415C28.5415 19.0398 28.9023 19.1803 29.1728 19.4333C29.4434 19.6862 29.6025 20.0317 29.6166 20.3969C29.6306 20.7621 29.4985 21.1183 29.2482 21.3903C28.9979 21.6623 28.6489 21.8288 28.275 21.8546L28.1667 21.8581H23.8333C23.4585 21.8597 23.0977 21.7192 22.8272 21.4663C22.5566 21.2134 22.3975 20.8678 22.3834 20.5026C22.3694 20.1374 22.5015 19.7812 22.7518 19.5092C23.0021 19.2372 23.3511 19.0708 23.725 19.045L23.8333 19.0415H28.1667Z" fill="white"/>
</g>
<defs>
<linearGradient id="paint0_linear_237_2535" x1="20.9219" y1="52" x2="-24.2163" y2="34.352" gradientUnits="userSpaceOnUse">
<stop stop-color="#494140"/>
<stop offset="0.585371" stop-color="#564A49"/>
<stop offset="1" stop-color="#AF9C99"/>
</linearGradient>
</defs>
</svg>
