<svg width="128" height="128" viewBox="0 0 128 128" fill="none" xmlns="http://www.w3.org/2000/svg">
<rect width="128" height="128"/>
<path d="M19 51.1545H42.3354V55.0506L33.4674 61.2884H42.664V74.6542H24.3135L27.8192 71.1485H39.1582V64.7942H27.5864V61.139L36.7967 54.6603H22.5058V73.3396L19 76.8454V51.1545Z" fill="white"/>
<path d="M67.5332 51.4558V74.8186H52.1406L55.6738 71.3128H64.0274V51.4558H67.5332Z" fill="white"/>
<path d="M50.7164 73.23V51.4284H47.2106V76.7632L50.7164 73.23Z" fill="white"/>
<path d="M88.8965 51.2641H72.2441V76.7906L75.7498 73.2848V64.9586H84.2404V61.4528H75.7498V54.7699H88.8965V51.2641Z" fill="white"/>
<path d="M92.3475 51.2641H109V54.7699H95.8533V61.4528H104.344V64.9586H95.8533V73.2848L92.3475 76.7906V51.2641Z" fill="white"/>
</svg>
