<svg xmlns="http://www.w3.org/2000/svg" xmlns:xlink="http://www.w3.org/1999/xlink" width="32" height="32" viewBox="0 0 32 32" fill="none"><defs><rect id="path_0" x="0" y="0" width="20" height="20" /></defs><g opacity="1" transform="translate(0 0)  rotate(0 16 15.999999999999998)"><path id="矩形 1" fill-rule="evenodd" transform="translate(0 0)  rotate(0 16 15.999999999999998)" opacity="1" d="M0,32L32,32L32,0L0,0L0,32Z " /><g opacity="1" transform="translate(6 6)  rotate(0 10 10)"><mask id="bg-mask-0" fill="white"><use xlink:href="#path_0"></use></mask><g mask="url(#bg-mask-0)" ><g opacity="1" transform="translate(2.1875 2.1875)  rotate(0 7.81249999999998 7.812500000000008)"><path id="路径 1" fill-rule="evenodd" style="fill:#FFFFFF" transform="translate(0 0.9281250000000161)  rotate(0 4.176875 7.3484375)" opacity="1" d="M3.09,9.59L2.17,11.08L2.17,0.93L6.34,0.93L6.34,10.98L8.35,10.98L8.35,0L8.35,0L0,0L0,11.14L2.13,11.14L0,14.54L2.47,14.54L4.18,11.91L6.03,14.7L8.35,14.7L5.26,9.44L5.26,1.7L3.09,2.63L3.09,9.59Z " /><path id="路径 2" fill-rule="evenodd" style="fill:#FFFFFF" transform="translate(8.818749999999959 0)  rotate(0 3.403125 7.8125)" opacity="1" d="M6.27,0L4.02,0.93L0.46,0.93L0.46,1.7L1.39,1.7L0,15.63L2.17,15.63L3.56,1.7L4.02,1.7L4.02,15.63L6.27,15.63L6.27,1.7L6.81,1.7L6.81,0.93L6.27,0.93L6.27,0Z " /></g></g></g></g></svg>