<svg xmlns="http://www.w3.org/2000/svg" xmlns:xlink="http://www.w3.org/1999/xlink" fill="none" version="1.1" width="64" height="64" viewBox="0 0 64 64"><defs><clipPath id="master_svg0_1_0344"><rect x="0" y="0" width="64" height="64" rx="0"/></clipPath><clipPath id="master_svg1_1_0"><rect x="5" y="22" width="55" height="20" rx="0"/></clipPath><mask id="master_svg2_1_4"><g><path d="M59.6178,34.06403160638809C59.5243,34.06403160638809,59.439,34.12263160638809,59.395,34.24533160638809C58.8313,35.805331606388094,58.0695,36.73333160638809,57.4425,36.73333160638809C57.0823,36.73333160638809,56.9365,36.34403160638809,56.9365,35.73333160638809C56.9365,34.20533160638809,57.8798,30.96533160638809,58.3555,29.488001606388092C58.4105,29.309331606388092,58.4463,29.149331606388092,58.4463,29.013331606388093C58.4463,28.584001606388092,58.2043,28.373331606388092,57.6048,28.373331606388092C56.9585,28.373331606388092,56.2628,28.61866160638809,55.5863,29.76800160638809C55.3525,28.75466160638809,54.6458,28.312001606388094,53.6585,28.312001606388094C52.5173,28.312001606388094,51.4145,29.02400160638809,50.507,30.17866160638809C49.5995,31.333331606388093,48.5325,31.712001606388093,47.7295,31.525331606388093C48.307,30.154661606388093,48.5215,29.13066160638809,48.5215,28.37066160638809C48.5215,27.17866160638809,47.9138,26.45866160638809,46.932,26.45866160638809C45.4388,26.45866160638809,44.578,27.840001606388093,44.578,29.293331606388094C44.578,30.416001606388093,45.1033,31.570661606388093,46.2583,32.13066160638809C45.2903,34.253331606388095,43.8768,36.17333160638809,43.3405,36.17333160638809C42.6475,36.17333160638809,42.444,32.88533160638809,42.4825,30.533331606388092C42.5073,29.184001606388094,42.6228,29.11466160638809,42.6228,28.706661606388092C42.6228,28.47200160638809,42.466,28.312001606388094,41.8363,28.312001606388094C40.3678,28.312001606388094,39.914,29.51733160638809,39.8453,30.90133160638809C39.8231,31.427281606388092,39.7382,31.948971606388092,39.5923,32.456031606388095C38.979,34.57863160638809,37.714,36.189331606388095,36.888999999999996,36.189331606388095C36.5068,36.189331606388095,36.4023,35.818631606388095,36.4023,35.33333160638809C36.4023,33.805331606388094,37.285,31.89600160638809,37.285,30.26666160638809C37.285,29.06933160638809,36.743300000000005,28.31199160638809,35.723,28.31199160638809C34.5213,28.31199160638809,32.931799999999996,29.698661606388093,31.4275,32.29599160638809C31.9225,30.30666160638809,32.126000000000005,28.38133160638809,30.6603,28.38133160638809C30.3423,28.38593160638809,30.0301,28.46458160638809,29.75,28.610661606388092C29.5576,28.697911606388093,29.4398,28.89042160638809,29.453,29.096001606388093C29.5933,31.213331606388092,27.693,36.63733160638809,25.8918,36.63733160638809C25.5645,36.63733160638809,25.405,36.293331606388094,25.405,35.73863160638809C25.405,34.20803160638809,26.3455,30.976001606388092,26.8185,29.49600160638809C26.879,29.30400160638809,26.912,29.13866160638809,26.912,28.994661606388092C26.912,28.589331606388093,26.6535,28.38133160638809,26.0677,28.38133160638809C25.4242,28.38133160638809,24.7257,28.61866160638809,24.052,29.76800160638809C23.8155,28.75466160638809,23.1087,28.312001606388094,22.1215,28.312001606388094C20.5017,28.312001606388094,18.6923,29.973331606388093,17.8975,32.13866160638809C16.833199999999998,35.02933160638809,14.68825,37.82133160638809,11.80075,37.82133160638809C9.18,37.82133160638809,7.796749999999999,35.70663160638809,7.796749999999999,32.3653316063881C7.796749999999999,27.54133160638809,11.44875,23.60000160638809,14.1575,23.60000160638809C15.4527,23.60000160638809,16.0715,24.40000160638809,16.0715,25.62666160638809C16.0715,27.11200160638809,15.2163,27.802661606388092,15.2163,28.36800160638809C15.2163,28.54133160638809,15.3647,28.712001606388093,15.659,28.712001606388093C16.836,28.712001606388093,18.222,27.37066160638809,18.222,25.54133160638809C18.222,23.712001606388093,16.6902,22.373331606388092,13.9815,22.373331606388092C9.5045,22.373331606388092,5,26.741331606388094,5,32.338661606388094C5,36.79203160638809,7.266,39.47733160638809,11.184750000000001,39.47733160638809C13.85775,39.47733160638809,16.192500000000003,37.46133160638809,17.451999999999998,35.109331606388096C17.595,37.05863160638809,18.508,38.07733160638809,19.8995,38.07733160638809C21.137,38.07733160638809,22.138,37.36263160638809,22.9025,36.10663160638809C23.1967,37.421331606388094,23.9777,38.06403160638809,24.9925,38.06403160638809C26.1557,38.06403160638809,27.1292,37.34933160638809,28.056,36.02133160638809C28.0422,37.06403160638809,28.287,38.04533160638809,29.2192,38.04533160638809C29.6593,38.04533160638809,30.1845,37.946631606388095,30.278,37.573331606388095C31.2598,33.63733160638809,33.6853,30.424001606388092,34.4277,30.424001606388092C34.647800000000004,30.424001606388092,34.7083,30.629331606388092,34.7083,30.872001606388093C34.7083,31.94133160638809,33.93,34.13333160638809,33.93,35.53333160638809C33.93,37.04533160638809,34.5928,38.04533160638809,35.9623,38.04533160638809C37.4803,38.04533160638809,39.023,36.242631606388095,40.0515,33.608031606388096C40.3732,36.06933160638809,41.069,38.05603160638809,42.158,38.05603160638809C43.4945,38.05603160638809,45.8678,35.328031606388095,47.306,32.44003160638809C47.8698,32.50933160638809,48.7167,32.49063160638809,49.5308,31.933331606388094C49.1843,32.78403160638809,48.9808,33.714631606388096,48.9808,34.64533160638809C48.9808,37.32533160638809,50.3008,38.07733160638809,51.4365,38.07733160638809C52.6713,38.07733160638809,53.6723,37.36263160638809,54.4395,36.10663160638809C54.6925,37.240031606388094,55.3388,38.061331606388094,56.5268,38.061331606388094C58.3858,38.061331606388094,60,36.218631606388094,60,34.70663160638809C60,34.306631606388095,59.824,34.06403160638809,59.6178,34.06403160638809ZM21.0325,36.59203160638809C20.2818,36.59203160638809,19.9875,35.858631606388094,19.9875,34.76533160638809C19.9875,32.86663160638809,21.3267,29.69600160638809,22.743,29.69600160638809C23.3617,29.69600160638809,23.5955,30.402661606388094,23.5955,31.26666160638809C23.5955,33.19463160638809,22.3223,36.59203160638809,21.0325,36.59203160638809ZM46.7477,30.92533160638809C46.2995,30.40800160638809,46.1372,29.70400160638809,46.1372,29.077331606388093C46.1372,28.30400160638809,46.4287,27.65066160638809,46.778,27.65066160638809C47.1272,27.65066160638809,47.2345,27.98400160638809,47.2345,28.448001606388093C47.2345,29.224001606388093,46.9485,30.357331606388094,46.7477,30.92533160638809ZM52.5695,36.59203160638809C51.8187,36.59203160638809,51.5245,35.74933160638809,51.5245,34.76533160638809C51.5245,32.933331606388094,52.8638,29.69600160638809,54.291,29.69600160638809C54.9098,29.69600160638809,55.1298,30.397331606388093,55.1298,31.26666160638809C55.1298,33.19463160638809,53.8785,36.59203160638809,52.5695,36.59203160638809Z" fill="#FFFFFF" fill-opacity="1"/></g></mask><linearGradient x1="0.822727382183075" y1="0.16121216118335724" x2="-0.05101005733013153" y2="0.15616180002689362" id="master_svg3_1_0339"><stop offset="0%" stop-color="#7D2AE7" stop-opacity="1"/><stop offset="99.99994039535522%" stop-color="#0AB4D1" stop-opacity="1"/></linearGradient></defs><g style="mix-blend-mode:passthrough" clip-path="url(#master_svg0_1_0344)"><g clip-path="url(#master_svg1_1_0)"><g mask="url(#master_svg2_1_4)"><g><path d="M5,22L73.75,22L73.75,88.6667L5,88.6667L5,22Z" fill="url(#master_svg3_1_0339)" fill-opacity="1"/></g></g></g></g></svg>