<svg xmlns="http://www.w3.org/2000/svg" xmlns:xlink="http://www.w3.org/1999/xlink" width="29.257142857142867" height="29.27917875474236" viewBox="0 0 29.257142857142867 29.27917875474236" fill="none"><defs><rect id="path_0" x="0" y="0" width="24" height="8" /></defs><g opacity="1" transform="translate(0 0)  rotate(0 14.628571428571428 14.639589377371133)"><path id="矩形 1" fill-rule="evenodd"  transform="translate(0 0)  rotate(0 14.628571428571428 14.639589377371133)" opacity="1" d="M0,29.28L29.26,29.28L29.26,0L0,0L0,29.28Z " /><g opacity="1" transform="translate(2.6285714285713766 10.639589377371067)  rotate(0 12 4)"><mask id="bg-mask-0" fill="white"><use xlink:href="#path_0"></use></mask><g mask="url(#bg-mask-0)" ><path id="路径 1" fill-rule="evenodd" style="fill:#F71D11" transform="translate(6.01498894182356 0.8747325111454529)  rotate(0 2.6458388611194876 3.1559670764585475)" opacity="1" d="M3.8,6.31C4.13,6.29 4.47,6.31 4.8,6.3C5.09,6.29 5.28,6.11 5.28,5.83C5.28,5.53 5.13,5.38 4.81,5.38L3.89,5.38C3.25,5.37 2.67,5.19 2.15,4.83C1.23,4.21 0.95,2.99 1.52,2.07C1.95,1.39 2.61,1.1 3.36,0.97C3.85,0.87 4.35,0.93 4.84,0.91C5.13,0.9 5.29,0.77 5.29,0.49C5.29,0.18 5.13,0.01 4.84,0.01C4.29,0.01 3.73,-0.02 3.19,0.05C2.13,0.19 1.24,0.63 0.57,1.49C-0.19,2.47 -0.19,3.82 0.56,4.81C1.13,5.55 1.92,5.97 2.83,6.19C3.03,6.25 3.24,6.23 3.43,6.31L3.8,6.31Z " /><path id="分组 1" fill-rule="evenodd" style="fill:#0C0B0C" transform="translate(0.6325281770259572 0.8399999999999999)  rotate(0 11.363735911487034 3.173333332031248)" opacity="1" d="M19.5841 4.81C19.4841 5.03 19.3641 5.23 19.1541 5.36C18.9541 5.48 18.7941 5.47 18.6241 5.31C18.4041 5.12 18.2841 4.88 18.1841 4.63C17.7941 3.68 17.3941 2.75 17.0041 1.8C16.8441 1.43 16.5841 1.24 16.1841 1.24C15.6341 1.25 15.0841 1.24 14.5441 1.24C14.1241 1.24 13.9941 1.37 13.9941 1.79L13.9941 5.72C13.9941 6 14.0741 6.2 14.3141 6.32L14.7041 6.32C15.0041 6.2 15.0741 6.08 15.0741 5.73L15.0741 2.53C15.0741 2.31 15.1541 2.23 15.3841 2.21L15.7141 2.21C15.9641 2.21 16.1541 2.32 16.2641 2.56C16.7041 3.51 17.1441 4.44 17.5941 5.39C17.9541 6.13 18.7641 6.47 19.4741 6.13C19.8641 5.95 20.1041 5.61 20.2741 5.24L22.1141 1.32C22.3141 0.88 22.5041 0.44 22.7241 0.03L22.7241 0C22.5141 0.03 22.2841 0.03 22.0741 0.03C21.8341 0.03 21.6641 0.15 21.5541 0.35C21.5141 0.41 21.4841 0.49 21.4441 0.56C20.8241 1.97 20.2041 3.4 19.5841 4.81Z M1.79 4.55C1.15 3.88 1.05 2.8 1.57 2.03C2.01 1.37 2.67 1.11 3.42 0.99C3.89 0.91 4.35 0.96 4.82 0.95C5.11 0.95 5.27 0.77 5.27 0.49C5.27 0.2 5.11 0.04 4.82 0.04L3.67 0.04C2.65 0.05 1.74 0.37 0.98 1.07C-0.1 2.04 -0.38 3.64 0.61 4.89C1.18 5.61 1.95 6.01 2.82 6.23C3.02 6.28 3.22 6.27 3.42 6.35L4.9 6.35C4.9 6.33 4.91 6.33 4.91 6.32C5.19 6.24 5.33 6.04 5.29 5.76C5.26 5.55 5.09 5.43 4.81 5.41C4.39 5.4 3.98 5.44 3.57 5.39C2.89 5.31 2.27 5.05 1.79 4.55Z M13.63 5.77333C13.59 4.45333 13.61 3.13333 13.61 1.81333C13.61 1.42333 13.46 1.29333 13.09 1.29333L11.51 1.29333C11.11 1.29333 10.97 1.45333 10.98 1.85333C10.99 2.08333 11.15 2.24333 11.38 2.24333L12.21 2.24333C12.49 2.24333 12.55 2.30333 12.55 2.58333C12.55 3.64333 12.57 4.69333 12.55 5.74333C12.55 6.04333 12.65 6.22333 12.91 6.33333L13.3 6.33333C13.55 6.22333 13.65 6.04333 13.63 5.77333Z " /><path id="分组 2" fill-rule="evenodd" style="fill:#0C0B0C" transform="translate(2.2228732354003427 0.8666666640623966)  rotate(0 9.861896714331042 2.5564536129857434)" opacity="1" d="M17.8022 4.48C18.1722 3.69 18.4922 2.88 18.8422 2.09C19.1322 1.4 19.4322 0.71 19.7222 0L19.1322 0C18.8422 0.01 18.6522 0.16 18.5522 0.43C18.2822 1.09 18.0122 1.76 17.7622 2.43C17.6822 2.64 17.5922 2.87 17.5122 3.08C17.4822 3.15 17.4522 3.23 17.3622 3.23C17.2722 3.23 17.2522 3.13 17.2322 3.07C17.2322 3.05 17.2122 3.04 17.2122 3.03C16.9722 2.32 16.7222 1.61 16.4822 0.89C16.3922 0.63 16.2422 0.43 16.0122 0.27C15.7122 0.05 15.3522 0 14.9922 0L9.88215 0C9.83215 0 9.77215 0 9.72215 0.01C9.52215 0.05 9.39215 0.2 9.37215 0.39C9.35215 0.65 9.43215 0.81 9.63215 0.89C9.71215 0.92 9.79215 0.92 9.88215 0.92L14.7122 0.92C15.1922 0.91 15.5222 1.09 15.6922 1.53C15.7122 1.57 15.7322 1.6 15.7522 1.64C16.1622 2.64 16.5722 3.64 16.9922 4.63C17.0322 4.73 17.0822 4.84 17.1622 4.93C17.2822 5.07 17.3922 5.08 17.5122 4.93C17.6122 4.79 17.7222 4.64 17.8022 4.48Z M3.64 4.40407C3.59 4.24407 3.43 4.17407 3.23 4.17407L2.43 4.17407C2.12 4.17407 1.83 4.10407 1.58 3.92407C1.3 3.72407 1.16 3.45407 1.2 3.10407C1.26 2.69407 1.56 2.41407 2.03 2.32407C2.43 2.24407 2.83 2.29407 3.22 2.28407C3.52 2.26407 3.68 2.10407 3.68 1.80407C3.68 1.48407 3.54 1.33407 3.22 1.32407C2.9 1.32407 2.58 1.30407 2.26 1.32407C1.67 1.33407 1.12 1.45407 0.67 1.85407C0.24 2.22407 -0.04 2.69407 0 3.28407C0.06 4.02407 0.46 4.52407 1.11 4.84407C1.6 5.08407 2.12 5.13407 2.58 5.10407L3.28 5.10407C3.39 5.10407 3.48 5.06407 3.56 4.98407C3.72 4.81407 3.71 4.60407 3.64 4.40407Z " /><path id="路径 7" fill-rule="evenodd" style="fill:#F71D11" transform="translate(7.6404799424447845 2.0933333359375723)  rotate(0 1.8402600289631483 1.9106708851014753)" opacity="1" d="M3.27,2.85L2.4,2.85C2.16,2.85 1.92,2.8 1.69,2.68C1.08,2.35 1,1.63 1.55,1.2C1.77,1.01 2.05,0.96 2.35,0.96L3.23,0.96C3.49,0.96 3.67,0.79 3.67,0.51C3.67,0.19 3.52,0.03 3.23,0.01L2.71,0.01C2.56,0.01 2.41,0.01 2.29,0C1.69,0.03 1.12,0.13 0.65,0.56C0.15,1.03 -0.12,1.57 0.05,2.27C0.24,3.03 0.76,3.45 1.48,3.68C2.08,3.88 2.71,3.81 3.32,3.8C3.57,3.8 3.69,3.57 3.68,3.27C3.67,3.03 3.51,2.85 3.27,2.85Z " /></g></g></g></svg>