<svg xmlns="http://www.w3.org/2000/svg" xmlns:xlink="http://www.w3.org/1999/xlink" width="32" height="32" viewBox="0 0 32 32" fill="none"><g opacity="1" transform="translate(0 0)  rotate(0 16 15.999999999999998)"><path id="矩形 1" fill-rule="evenodd" transform="translate(0 0)  rotate(0 16 15.999999999999998)" opacity="1" d="M0,32L32,32L32,0L0,0L0,32Z " /><path id="路径 2" fill-rule="evenodd" style="fill:#FFFFFF" transform="translate(6 6.400000000000091)  rotate(0 10 9.600000000000003)" opacity="1" d="M12.8,5.55C2.7,10.4 4.65,19.2 4.65,19.2L8.5,19.2C4.1,11.6 13.65,5.6 13.65,5.6L14.5,5.9C4.55,12.4 10,19.2 10,19.2L13.8,19.2C6.4,13.2 14.5,6.9 14.5,6.9L14.5,7.7C7.4,14.2 15.55,19.2 15.55,19.2L20,19.2C7.5,14.65 16.9,6.65 16.9,6.65L20,7.45L18.05,4.75L19.65,1.6L16.4,2.8L14.2,0L14.2,3.7C0.15,7.9 0,19.2 0,19.2L3.5,19.2C2.55,9.2 12.15,5.15 12.15,5.15L12.8,5.55Z " /></g></svg>