<svg width="128" height="128" viewBox="0 0 128 128" fill="none" xmlns="http://www.w3.org/2000/svg">
<g clip-path="url(#clip0_326_169)">

<path d="M87.8157 127.896H40.1843L16.3686 86.6459V86.6276C11.6824 94.7215 9 104.12 9 114.146C9 144.522 33.6243 169.146 64 169.146L87.8157 127.896Z" fill="#17A05E"/>
<path d="M64 86.6459L87.8157 127.896L64 169.146C94.3757 169.146 119 144.522 119 114.146C119 104.128 116.322 94.7357 111.642 86.6459L64 86.6459Z" fill="#FFCD41"/>
<path fill-rule="evenodd" clip-rule="evenodd" d="M64 86.6459L111.642 86.6459C102.132 70.2064 84.3577 59.1459 64 59.1459C43.6422 59.1459 25.8678 70.2063 16.358 86.6459L16.3686 86.6459L40.1843 127.896L64 86.6459Z" fill="#DC493C"/>
<path d="M91.5001 114.146C91.5001 129.334 79.1879 141.646 64.0001 141.646C48.8122 141.646 36.5001 129.334 36.5001 114.146C36.5001 98.9581 48.8122 86.6459 64 86.6459C79.1878 86.6459 91.5001 98.9581 91.5001 114.146Z" fill="white"/>
<path d="M80.5 114.146C80.5 123.259 73.1127 130.646 64 130.646C54.8873 130.646 47.5 123.259 47.5 114.146C47.5 105.033 54.8873 97.6459 64 97.6459C73.1127 97.6459 80.5 105.033 80.5 114.146Z" fill="#1684FB"/>
<rect width="128" height="64" fill="black" fill-opacity="0.1"/>
<path d="M42 29.34C42 25.474 45.134 22.34 49 22.34H79C82.866 22.34 86 25.474 86 29.34C86 33.206 82.866 36.34 79 36.34H49C45.134 36.34 42 33.206 42 29.34Z" fill="white"/>
</g>
<defs>
<clipPath id="clip0_326_169">
<rect width="128" height="128" fill="white"/>
</clipPath>
</defs>
</svg>
