<svg width="128" height="128" viewBox="0 0 128 128" fill="none" xmlns="http://www.w3.org/2000/svg">

<path d="M11.5 31.9644H116.5V30.9933L113.5 26.4534H16.5L11.5 31.0063V31.9644Z" fill="#105F91"/>
<path d="M11.5001 30.9644C11.5001 30.9644 11.5001 31.9644 13.3994 31.9644C19.43 31.9644 102.86 31.9644 115.025 31.9644C115.984 31.9644 116.5 30.9644 116.5 30.9644V109.642C116.5 111.851 114.709 113.642 112.5 113.642H15.5001C13.2909 113.642 11.5001 111.851 11.5001 109.642V30.9644Z" fill="#E2E3E5"/>
<mask id="mask0_326_137" style="mask-type:alpha" maskUnits="userSpaceOnUse" x="11" y="26" width="106" height="88">
<path d="M11.5 31.9644H116.5V30.9933L113.5 26.4534H16.5L11.5 31.0063V31.9644Z" fill="#105F91"/>
<path d="M11.5001 30.9644C11.5001 30.9644 11.5001 31.9644 13.3994 31.9644C19.43 31.9644 102.86 31.9644 115.025 31.9644C115.984 31.9644 116.5 30.9644 116.5 30.9644V109.642C116.5 111.851 114.709 113.642 112.5 113.642H15.5001C13.2909 113.642 11.5001 111.851 11.5001 109.642V30.9644Z" fill="#E2E3E5"/>
</mask>
<g mask="url(#mask0_326_137)">
<path d="M84.3516 117.001H43.6484L23.2968 81.7513V81.7357C19.2922 88.6523 17 96.6841 17 105.251C17 131.209 38.0426 152.251 64 152.251L84.3516 117.001Z" fill="#17A05E"/>
<path d="M64 81.7513L84.3516 117.001L64 152.251C89.9574 152.251 111 131.209 111 105.251C111 96.6905 108.711 88.6643 104.712 81.7513L64 81.7513Z" fill="#FFCD41"/>
<path fill-rule="evenodd" clip-rule="evenodd" d="M64 81.7513L104.712 81.7513C96.5857 67.7029 81.3966 58.2512 64 58.2512C46.6034 58.2512 31.4143 67.7029 23.2878 81.7512L23.2968 81.7513L43.6484 117.001L64 81.7513Z" fill="#DC493C"/>
<path d="M87.5 105.251C87.5 118.23 76.9787 128.751 64 128.751C51.0213 128.751 40.5 118.23 40.5 105.251C40.5 92.2726 51.0213 81.7513 64 81.7513C76.9786 81.7513 87.5 92.2726 87.5 105.251Z" fill="white"/>
<path d="M78.0999 105.251C78.0999 113.039 71.7872 119.351 63.9999 119.351C56.2127 119.351 49.8999 113.039 49.8999 105.251C49.8999 97.4641 56.2127 91.1513 63.9999 91.1513C71.7872 91.1513 78.0999 97.4641 78.0999 105.251Z" fill="#1684FB"/>
</g>
<path d="M49.6636 16.4402H81.1565V23.4402H49.6636V16.4402Z" fill="#A6A7A5"/>
<path d="M81.1184 32.518L81.1565 16.4402L88.0771 22.8975V32.518H81.1184Z" fill="#E2E3E5"/>
<path d="M49.6636 32.518V16.4375L42.705 22.8975V32.518H49.6636Z" fill="#E2E3E5"/>
</svg>
