<svg width="128" height="128" viewBox="0 0 128 128" fill="none" xmlns="http://www.w3.org/2000/svg">

<path fill-rule="evenodd" clip-rule="evenodd" d="M34.2997 28.7334C31.3727 28.7334 29 31.1061 29 34.0331V55.2318C29 58.1588 30.9874 60.0994 34.2997 60.5315C37.612 60.9637 64 63.8343 64 63.8343C64 63.8343 61.0329 36.2242 60.7429 33.582C60.4529 30.9397 58.6574 28.7334 55.7304 28.7334H34.2997ZM40.4756 38.2192C39.3616 38.2192 38.4585 39.1223 38.4585 40.2363V48.3046C38.4585 49.4186 39.2149 50.1572 40.4756 50.3217C41.7363 50.4862 51.7797 51.5788 51.7797 51.5788C51.7797 51.5788 50.6504 41.0702 50.54 40.0646C50.4297 39.0589 49.7463 38.2192 48.6323 38.2192H40.4756Z" fill="#00A13B"/>
<path fill-rule="evenodd" clip-rule="evenodd" d="M34.2997 99.2664C31.3727 99.2664 29 96.8937 29 93.9668V72.768C29 69.8411 30.9874 67.9005 34.2997 67.4683C37.612 67.0362 64 64.1655 64 64.1655C64 64.1655 61.0329 91.7756 60.7429 94.4179C60.4529 97.0601 58.6574 99.2664 55.7304 99.2664H34.2997ZM40.4756 89.7807C39.3616 89.7807 38.4585 88.8776 38.4585 87.7636V79.6952C38.4585 78.5812 39.2149 77.8426 40.4756 77.6781C41.7363 77.5136 51.7797 76.421 51.7797 76.421C51.7797 76.421 50.6504 86.9296 50.54 87.9353C50.4297 88.9409 49.7463 89.7807 48.6323 89.7807H40.4756Z" fill="#94C55E"/>
<path fill-rule="evenodd" clip-rule="evenodd" d="M93.7003 28.7334C96.6273 28.7334 99 31.1061 99 34.0331V55.2318C99 58.1588 97.0126 60.0994 93.7003 60.5315C90.388 60.9637 64 63.8343 64 63.8343C64 63.8343 66.9671 36.2242 67.2571 33.582C67.5471 30.9397 69.3426 28.7334 72.2696 28.7334H93.7003ZM87.5244 38.2192C88.6384 38.2192 89.5415 39.1223 89.5415 40.2363V48.3046C89.5415 49.4186 88.7851 50.1572 87.5244 50.3217C86.2637 50.4862 76.2203 51.5788 76.2203 51.5788C76.2203 51.5788 77.3496 41.0702 77.46 40.0646C77.5703 39.0589 78.2537 38.2192 79.3677 38.2192H87.5244Z" fill="#77BE31"/>
<path d="M99 93.9668C99 96.8937 96.6273 99.2664 93.7003 99.2664H72.2696C69.3426 99.2664 67.5471 97.0601 67.2571 94.4179C66.9671 91.7756 64 64.1655 64 64.1655C64 64.1655 90.388 67.0362 93.7003 67.4683C97.0126 67.9005 99 69.8411 99 72.768V93.9668Z" fill="#B8DB7C"/>
</svg>
