<svg width="128" height="128" viewBox="0 0 128 128" fill="none" xmlns="http://www.w3.org/2000/svg">
<rect width="128" height="128" />
<path d="M103.5 90C103.333 90 103.166 89.997 103 89.9909V90H31V89.9934C26.3796 89.8708 22.1815 88.0542 19.0039 85.1419L49.6525 61.4405C50.5305 61.8011 51.492 62 52.5 62C53.6918 62 54.8186 61.722 55.8192 61.2274L70.4005 74.0758C70.1409 74.8362 70 75.6516 70 76.5C70 80.6421 73.3579 84 77.5 84C81.6422 84 85 80.6421 85 76.5C85 75.5071 84.8071 74.5592 84.4566 73.6918L104.136 53.8626C105.941 56.4532 107 59.603 107 63C107 63.1526 106.998 63.3048 106.994 63.4564C112.756 64.9959 117 70.2523 117 76.5C117 83.9558 110.956 90 103.5 90Z" fill="#2197F3"/>
<path d="M15.1374 80.1402L45.3513 56.775C45.1231 56.0574 45 55.2931 45 54.5C45 50.3579 48.3579 47 52.5 47C56.6422 47 60 50.3579 60 54.5C60 55.1186 59.9251 55.7198 59.7839 56.2949L74.7798 69.5085C75.6231 69.1802 76.5406 69 77.5 69C78.3162 69 79.1019 69.1304 79.8375 69.3714L99.5714 49.4872C97.0937 47.9122 94.1534 47 91 47C87.5938 47 84.4362 48.0644 81.8416 49.8787C78.6011 39.5183 68.9285 32 57.5 32C44.9448 32 34.5089 41.0736 32.392 53.0211C32.0965 53.0071 31.7991 53 31.5 53C21.2827 53 13 61.2827 13 71.5C13 74.6209 13.7728 77.5612 15.1374 80.1402Z" fill="#2197F3"/>
</svg>
