<svg xmlns="http://www.w3.org/2000/svg" xmlns:xlink="http://www.w3.org/1999/xlink" width="30" height="30" viewBox="0 0 30 30" fill="none"><defs><rect id="path_0" x="0" y="0" width="30" height="30" /><rect id="path_1" x="0" y="0" width="24" height="24" /></defs><g opacity="1" transform="translate(0 0)  rotate(0 15 15)"><mask id="bg-mask" fill="white"><use xlink:href="#path_0"></use></mask><g mask="url(#bg-mask)" ><path id="矩形 1" fill-rule="evenodd" transform="translate(0 0)  rotate(0 15 15)" opacity="1" d="M0,30L30,30L30,0L0,0L0,30Z " /><g opacity="1" transform="translate(3 3)  rotate(0 12 12)"><mask id="bg-mask" fill="white"><use xlink:href="#path_1"></use></mask><g mask="url(#bg-mask)" ><path id="分组 1" fill-rule="evenodd" style="fill:#1A7BFF" transform="translate(2.6853333281249996 2.668469880349794)  rotate(0 9.260666671875 9.229431727793852)" opacity="1" d="M4.17 14.6722C3 13.5722 2.26 12.2522 1.8 10.6822C1.4 9.3322 1.44 7.8622 1.44 6.4222C1.44 5.6722 1.89 3.9822 2.03 3.3122C1.11 4.7522 0 7.3922 0 9.2222C0 14.3222 4.13 18.4622 9.23 18.4622C11.51 18.4622 14 16.7322 15.2 14.9722C12.91 16.0022 13.3 16.1322 11.69 16.5622C8.43 17.4122 5.93 16.3222 4.17 14.6722Z M11.298 0.07C7.098 -0.47 2.328 2.24 1.878 6.42C3.858 2.52 6.898 1.01 10.538 1.48C11.688 1.63 12.768 1.98 13.738 2.5L14.808 1.26L14.808 1.26C13.728 0.63 12.538 0.22 11.298 0.07Z M8.52 2.9082C8.65 2.8582 9.04 2.9082 9.09 2.7782C8.82 2.8282 8.49 2.8382 8.25 2.9682C8.14 3.0182 8.02 3.1882 7.91 3.0782C7.8 2.9682 7.99 2.7882 8.08 2.7282L8.06 2.7282C8.78 2.5782 9.52 2.5482 10.25 2.6482C10.15 2.7082 10.22 2.7382 10.15 2.7882C10.02 2.8882 9.77 2.9782 9.61 3.0382C9.82 3.0382 10.32 3.2282 10.41 2.9382L10.21 2.9082C10.34 2.8282 10.48 2.7582 10.62 2.7182C11.91 2.9682 13.09 3.6182 13.99 4.5782L13.97 4.5782C13.73 4.5782 13.55 4.5782 13.35 4.7182C13.27 4.7782 13.22 4.8482 13.12 4.8782C13.03 4.8982 12.93 4.8782 12.84 4.9082C12.51 5.0182 12.56 5.7182 12.13 5.6182C11.93 5.5682 11.79 5.3282 11.69 5.1682C11.6 5.0382 11.43 4.9182 11.54 4.7482C11.49 4.7582 11.44 4.7482 11.39 4.7582C11.46 4.6082 11.69 4.6182 11.73 4.5382C11.83 4.3482 11.47 4.3282 11.36 4.2982C11.49 4.1682 11.55 4.3482 11.67 4.3182C11.79 4.2882 11.61 4.1282 11.54 4.1182C11.51 4.1082 11.1 4.2282 11.34 4.0182L10.46 3.4582C10.41 3.6682 10.85 3.7782 11 3.8582C10.97 3.9382 10.84 4.0682 10.74 4.0282C10.64 3.9982 10.68 3.8382 10.54 3.8482C10.43 4.0882 10.76 4.0182 10.79 4.1682C10.82 4.3382 10.66 4.2682 10.6 4.2682C10.59 4.2582 10.48 4.1482 10.47 4.2382C10.46 4.3382 10.65 4.2982 10.66 4.4082C10.45 4.4082 10.34 4.3382 10.16 4.2182C9.95 4.0782 9.85 4.0882 9.6 4.0882C9.67 4.0582 9.78 4.0382 9.84 3.9882C9.87 3.9582 10.01 3.8282 10.02 3.7982C10.06 3.6682 10.02 3.6782 9.9 3.5982C9.79 3.5182 9.65 3.3882 9.52 3.3582C9.04 3.2582 9.37 3.7882 9 3.8682L9.02 3.8682L9 3.8682L9 3.8682C8.92 3.8582 8.76 3.8382 8.71 3.8882C8.67 3.9182 8.66 4.0482 8.62 4.0882C8.54 4.1682 8.43 4.1882 8.34 4.2482C8.25 4.3082 8.05 4.4582 8 4.5582C7.81 4.9182 8.44 5.0382 8.67 5.1482C8.78 5.1982 9.1 5.2582 9.16 5.3382C9.23 5.4482 9.09 5.5582 9.25 5.6282C9.3 5.6582 9.41 5.6582 9.46 5.6082C9.53 5.5282 9.43 5.5082 9.41 5.4182C9.38 5.2282 9.43 5.2982 9.53 5.2382C9.71 5.0982 9.67 5.0882 9.6 4.8682C9.57 4.7582 9.45 4.4682 9.56 4.3982C9.69 4.2982 9.98 4.4482 10.09 4.4682C10.21 4.4782 10.28 4.6482 10.35 4.7182C10.39 4.7582 10.47 4.8582 10.55 4.8482C10.67 4.8282 10.62 4.7282 10.69 4.6782C10.88 4.5482 10.93 4.7182 11 4.8982C11.07 5.0682 11.14 5.1282 11.27 5.2382C11.33 5.2882 11.59 5.4682 11.56 5.5782C11.55 5.6582 11.25 5.7682 11.17 5.7882C10.88 5.8882 10.34 5.6482 10.28 6.0982C10.4 6.0582 10.71 5.7982 10.81 5.9182C10.85 5.9782 10.78 6.0582 10.79 6.1182C10.85 6.2782 10.98 6.2182 11.11 6.1982C11.11 6.1982 11.11 6.1982 11.1 6.1982C11.27 6.1182 11.25 6.1282 11.33 5.9882C11.36 5.9382 11.4 5.8082 11.44 5.7782C11.57 5.6582 11.59 5.7382 11.68 5.8282C11.7 5.8582 11.9 6.1482 11.83 6.1382C11.59 6.0882 11.36 6.0982 11.17 6.2282C11.05 6.2982 10.94 6.3982 10.81 6.4582C10.78 6.4682 10.53 6.4882 10.56 6.4482C10.6 6.3882 10.75 6.3482 10.8 6.2782C10.65 6.2182 10.52 6.3582 10.39 6.4482C10.3 6.4882 10.26 6.5482 10.21 6.6282L16.18 6.6282C15.22 3.7982 12.54 1.7682 9.38 1.7682C5.42 1.7682 2.2 4.9882 2.2 8.9482C2.2 12.9182 5.42 16.1382 9.38 16.1382C11.1 16.1382 12.68 15.5282 13.92 14.5182L10.83 14.5182L10.83 14.5182C10.81 14.5382 10.79 14.5482 10.77 14.5682C10.73 14.6182 10.71 14.7682 10.68 14.8282C10.66 14.8782 10.53 15.0382 10.53 15.0782C10.53 15.1082 10.58 15.1482 10.62 15.1882C10.38 15.2382 10.14 15.2682 9.9 15.2882C9.95 15.2282 9.96 15.1782 9.81 15.1782C9.85 15.0682 9.94 15.0082 9.98 14.9082C10 14.8582 9.98 14.8382 10 14.7882C10.05 14.6282 10.03 14.6882 10 14.5582C10 14.5482 9.99 14.5382 9.99 14.5182L6.52 14.5182L6.52 8.4982C6.48 8.4682 6.44 8.4282 6.41 8.3782C6.25 8.1682 6.07 7.9482 5.93 7.7282C5.88 7.6382 5.89 7.5882 5.81 7.5082C5.72 7.4282 5.62 7.3882 5.53 7.3082C5.24 7.0482 5.18 6.6882 5.22 6.3082C5.23 6.1882 5.27 6.0882 5.25 5.9682C5.23 5.8682 5.18 5.7782 5.11 5.7082L5.02 5.5782C4.95 5.4582 4.9 5.3482 4.79 5.2582C4.67 5.1582 4.55 5.0682 4.42 4.9782C5.1 4.1382 5.98 3.4782 6.99 3.0582C7 3.1182 7.02 3.1682 7.05 3.2082C7.13 3.3382 7.21 3.3282 7.37 3.3582C7.35 3.5482 7.13 3.5482 6.99 3.5282C6.81 3.5082 6.62 3.4482 6.47 3.5982C6.55 3.6482 6.79 3.8482 6.75 3.6482C6.93 3.6382 7.09 3.6282 7.26 3.6482C7.32 3.6582 7.55 3.7382 7.61 3.6982C7.63 3.6882 7.66 3.5582 7.69 3.5182C7.64 3.5182 7.59 3.4982 7.54 3.4982C7.65 3.3582 7.76 3.4682 7.9 3.5382C7.75 3.6282 7.84 3.8582 7.99 3.6682C8.11 3.5182 7.96 3.4182 7.8 3.3282C7.96 3.1282 8.06 3.1082 8.21 3.3382C8.23 3.1982 8.34 3.2482 8.46 3.2582L8.46 3.2282C8.41 3.2282 8.35 3.1982 8.3 3.2082C8.42 3.0182 8.35 2.9682 8.52 2.9082Z M11.08 6.2082C11.09 6.2082 11.1 6.2082 11.1 6.1982C11.1 6.2082 11.09 6.2082 11.08 6.2082Z M6.18113 7.93075C6.26113 8.07075 6.37113 8.20075 6.47113 8.33075C6.49113 8.37075 6.51113 8.40075 6.52113 8.42075L6.52113 8.10075L6.52113 8.10075C6.38113 7.93075 6.34113 7.79075 6.12113 7.74075L6.12113 7.74075C6.10113 7.73075 6.18113 7.92075 6.18113 7.93075Z M9.11867 13.7862L9.11867 10.4862C9.11867 10.1062 9.21867 9.7862 9.43867 9.5362C9.64867 9.2862 9.91867 9.1662 10.2387 9.1662C10.9087 9.1662 11.2387 9.6262 11.2387 10.5662L11.2387 13.7862L12.9187 13.7862L12.9187 10.2462C12.9187 8.6562 12.2787 7.8662 10.9987 7.8662C10.1787 7.8662 9.55867 8.2162 9.13867 8.9262L9.11867 8.9262L9.11867 8.0062L7.42867 8.0062L7.42867 13.7862L9.11867 13.7862Z M13.0213 10.7255L13.0013 10.7255L13.0013 10.9455L13.0213 10.9455C13.0713 11.0855 13.1313 11.1855 13.1713 11.2455L14.9213 13.7755L16.4813 13.7755L14.2413 10.7555L14.2413 10.7555L16.3113 7.99553L14.8413 7.99553L13.1813 10.4155C13.1313 10.5055 13.0713 10.6055 13.0213 10.7255Z M16.9853 9.73486C17.1453 9.91486 17.3853 10.0149 17.6253 10.0149C17.8653 10.0149 18.1053 9.91486 18.2653 9.73486C18.4353 9.55486 18.5253 9.32486 18.5253 9.04486C18.5253 8.77486 18.4353 8.55486 18.2753 8.37486C18.1053 8.19486 17.8953 8.10486 17.6253 8.10486C17.3653 8.10486 17.1553 8.19486 16.9853 8.36486C16.8153 8.54486 16.7353 8.77486 16.7353 9.04486C16.7353 9.32486 16.8153 9.54486 16.9853 9.73486Z M18.1367 13.7522L18.1367 10.4422L17.1767 10.4422L17.1767 13.7522L18.1367 13.7522Z " /></g></g></g></g></svg>