<svg width="128" height="128" viewBox="0 0 128 128" fill="none" xmlns="http://www.w3.org/2000/svg">
<rect width="128" height="128"  />
<path fill-rule="evenodd" clip-rule="evenodd" d="M21.4844 63.1274C21.1237 62.7334 21.1362 62.1256 21.5129 61.7469L45.2178 37.9119C46.096 37.0288 45.4706 35.5246 44.2252 35.5246H36.0138L12.198 57.8656V66.5926L36.0137 92.0813H44.8172C46.035 92.0813 46.6721 90.634 45.8497 89.7358L21.4844 63.1274ZM85.4015 63.1274C85.7623 62.7334 85.7497 62.1256 85.3731 61.7469L61.6681 37.9119C60.7899 37.0288 61.4153 35.5246 62.6608 35.5246H70.8721L94.6879 57.8656V66.5926L70.8722 92.0813H62.0687C60.8509 92.0813 60.2138 90.634 61.0362 89.7358L85.4015 63.1274ZM39.0166 66.2607C42.24 66.2607 44.8531 63.6477 44.8531 60.4243C44.8531 57.2009 42.24 54.5878 39.0166 54.5878C35.7932 54.5878 33.1801 57.2009 33.1801 60.4243C33.1801 63.6477 35.7932 66.2607 39.0166 66.2607ZM64.6946 53.9044H70.5709L61.8681 73.6161H55.9918L64.6946 53.9044ZM114.875 51.0608L105.092 51.0608L97.2402 58.1266V66.7005L105.045 76.2634H115.145C115.742 76.2634 116.065 75.563 115.677 75.1087L105.26 62.9136C104.911 62.5053 104.947 61.8944 105.341 61.5298L115.351 52.2747C115.818 51.8423 115.512 51.0608 114.875 51.0608Z" fill="white"/>
</svg>
