<svg xmlns="http://www.w3.org/2000/svg" xmlns:xlink="http://www.w3.org/1999/xlink" width="30" height="30" viewBox="0 0 30 30" fill="none"><defs><rect id="path_0" x="0" y="0" width="30" height="30" /><rect id="path_1" x="0" y="0" width="30" height="29.47920078611202" /></defs><g opacity="1" transform="translate(0 0)  rotate(0 15 15)"><g mask="url(#bg-mask)" ><path id="矩形 1" fill-rule="evenodd" transform="translate(0 0)  rotate(0 15 15)" opacity="1" d="M0,30L30,30L30,0L0,0L0,30Z " /><g opacity="1" transform="translate(0 0.520799213887979)  rotate(0 15 14.73960039305601)"><g mask="url(#bg-mask)" ><path id="路径 3" fill-rule="evenodd" style="fill:#FFFFFF" transform="translate(5.345376400614422 9.701839874384252)  rotate(0 9.67842519104497 5.060025638478663)" opacity="1" d="M19.2,8.7C17.62,5.94 16.05,3.19 14.48,0.43C14.21,-0.1 13.36,-0.15 13.03,0.35C11.92,2.04 11,3.86 9.79,5.48C9,6.54 8.05,7.56 6.79,8.05C5.73,8.45 4.47,8.48 3.46,7.91C2.43,7.34 1.73,6.21 1.76,5.04C1.76,3.88 2.47,2.78 3.5,2.24C4.52,1.68 5.77,1.74 6.84,2.1C8,2.49 8.88,3.36 9.84,4.07C10.34,3.73 10.89,3.42 11.35,3.03C10.62,2.39 9.82,1.8 9.03,1.22C7.08,-0.14 4.22,-0.48 2.2,0.94C0.27,2.21 -0.53,4.84 0.37,6.94C0.95,8.42 2.3,9.58 3.87,9.97C5.67,10.39 7.64,9.91 9.08,8.77C11.16,7.16 12.31,4.76 13.7,2.62C14.35,3.78 15.04,4.93 15.69,6.1C15.01,5.64 14.35,5.13 13.67,4.65C13.16,5 12.62,5.32 12.14,5.71C14.05,7.11 15.97,8.49 17.88,9.89C18.27,10.22 18.98,10.18 19.24,9.71C19.41,9.4 19.39,9 19.2,8.7Z " /></g></g></g></g></svg>