<svg xmlns="http://www.w3.org/2000/svg" xmlns:xlink="http://www.w3.org/1999/xlink" width="470" height="470" viewBox="0 0 470 470" fill="none"><rect x="0" y="0" width="470" height="470"   fill="#FFFFFF" ></rect><path d="M375.065 131.197C310.327 53.9859 195.307 43.9149 118.146 108.694C65.7111 152.704 44.2751 219.954 56.2191 282.758L56.6481 285.002L56.8881 284.902C109.422 265.161 127.179 225.917 157.908 175.406C199.026 107.856 279.658 111.246 316.808 163.302C375.195 245.14 362.323 360.997 327.935 405.336C336.51 400.36 344.675 394.906 352.592 388.256C429.754 323.488 439.814 208.399 375.065 131.197Z" fill-rule="evenodd"  fill="#644DFF" ></path><path d="M345.09 130.86C307.95 78.8039 227.309 75.4139 186.19 142.964C155.451 193.475 137.704 232.728 85.17 252.46C85.11 252.54 85.06 252.62 85 252.689C91.152 281.614 109.567 311.964 147.186 324.746C190.348 339.403 211.416 317.478 240.56 323.679C266.622 329.223 276.015 345.535 290.252 361.408C306.135 379.115 333.594 383.472 352.867 374.828C353.99 374.202 355.107 373.564 356.217 372.914C390.605 328.585 403.487 212.708 345.1 130.86L345.09 130.86Z"   fill="#FFFFFF" ></path><path d="M245.671 212.083C251.963 232.911 252.192 252.064 239.101 254.926C226.458 257.688 220.007 242.473 213.726 221.665C207.435 200.837 204.254 185.361 217.814 181.204C230.905 177.177 239.38 191.275 245.671 212.083ZM287.169 201.854C293.64 221.077 293.48 239.471 283.549 241.465C273.09 243.56 267.696 229.062 261.225 209.84C254.755 190.617 249.52 176.748 259.162 172.012C269.82 166.777 280.698 182.63 287.169 201.854ZM179.079 253.56C179.627 246.103 192.16 242.702 193.396 249.602C197.903 274.648 227.735 293.014 247.606 277.958C253.329 273.611 259.979 285.636 256.649 289.434C230.297 314.321 176.516 288.617 179.089 253.56L179.079 253.56Z"   fill="#644DFF" ></path><path d="M394.654 341.804L394.644 341.814C393.534 342.464 392.417 343.102 391.294 343.728C384.664 346.699 377.076 348.135 369.319 348.025C354.503 347.806 339.098 341.933 328.669 330.308C314.431 314.435 305.039 298.123 278.976 292.579C275.337 291.802 271.817 291.473 268.368 291.453C251.119 291.343 235.555 299.06 214.308 298.801C205.803 298.701 196.391 297.325 185.593 293.656C181.058 292.117 176.657 290.26 172.392 288.083C171.418 287.586 170.454 287.07 169.5 286.537C169.45 286.507 169.39 286.477 169.34 286.448C168.429 285.94 167.529 285.415 166.639 284.872C166.559 284.822 166.479 284.772 166.399 284.733C165.537 284.208 164.686 283.666 163.847 283.107C163.757 283.048 163.657 282.988 163.567 282.928C162.741 282.383 161.927 281.822 161.125 281.243C161.035 281.173 160.935 281.113 160.835 281.044C160.044 280.475 159.264 279.894 158.493 279.299C158.403 279.229 158.303 279.159 158.213 279.089C157.45 278.495 156.696 277.89 155.95 277.275C155.87 277.205 155.78 277.135 155.691 277.065C154.954 276.448 154.227 275.82 153.508 275.181C153.428 275.111 153.348 275.041 153.278 274.971C152.564 274.326 151.86 273.672 151.165 273.007C151.105 272.947 151.035 272.888 150.975 272.828C150.28 272.151 149.591 271.466 148.911 270.774L148.761 270.624C148.083 269.919 147.415 269.205 146.758 268.481C146.718 268.441 146.688 268.401 146.648 268.361C145.986 267.626 145.335 266.882 144.694 266.128C144.674 266.098 144.654 266.078 144.634 266.048C143.986 265.281 143.351 264.504 142.73 263.715C142.73 263.715 142.72 263.695 142.71 263.695C132.081 250.195 125.82 234.451 122.928 219.246C112.738 165.665 126.867 108.853 163.798 66C110.614 97.8559 75 156.073 75 222.616C75 323.388 156.648 405.086 257.37 405.086C313.006 405.086 362.818 380.15 396.269 340.847C395.731 341.166 395.192 341.495 394.644 341.804L394.654 341.804Z"   fill="#FF4CD2" ></path></svg>