<?xml version="1.0" encoding="utf-8"?>
<!-- Generator: Adobe Illustrator 26.2.1, SVG Export Plug-In . SVG Version: 6.00 Build 0)  -->
<svg version="1.1" id="图层_1" xmlns="http://www.w3.org/2000/svg" xmlns:xlink="http://www.w3.org/1999/xlink" x="0px" y="0px"
	 viewBox="0 0 150 150" style="enable-background:new 0 0 150 150;" xml:space="preserve">
<style type="text/css">
	.st0{fill:#FFFFFF;}
	.st1{fill:#EA4335;}
	.st2{fill:#504C23;}
	.st3{fill:#4285F4;}
	.st4{fill:#34A853;}
	.st5{fill:#FBBC05;}
</style>

<path class="st1" d="M33.3,37.4c10.8-11.9,25.4-18.5,41.5-18.5c20.2,0,38.6,10.6,48.6,27.9H79.2c-7,0-12,0.2-17.3,3
	c-5.9,3.1-10.5,8.4-13.1,14.6L33.3,37.4z"/>
<path class="st2" d="M74.9,20.8c18.4,0,35.1,9.1,45.2,24H79.2C71.9,44.8,66.7,45,61,48c-5.1,2.7-9.4,7-12.3,12.2L35.7,37.7
	C46,26.8,59.8,20.8,74.9,20.8 M74.9,16.9c-16,0-32.1,6.6-43.9,20.2L49.3,69c1.8-7.7,6.8-14.2,13.5-17.7c5-2.6,9.8-2.8,16.4-2.8h47.6
	C116.1,27.9,95.6,16.9,74.9,16.9z"/>
<circle class="st3" cx="75" cy="75" r="17.3"/>
<path class="st2" d="M75,59.6c8.5,0,15.4,6.9,15.4,15.4S83.5,90.4,75,90.4c-8.5,0-15.5-6.9-15.5-15.4S66.5,59.6,75,59.6 M75,55.7
	c-10.7,0-19.4,8.6-19.4,19.3S64.3,94.3,75,94.3S94.3,85.6,94.3,75S85.6,55.7,75,55.7z"/>
<path class="st4" d="M62.8,129.8c-17.9-3.9-32.2-15.9-39.4-32.9c-6.9-16.3-5.7-34.7,2.9-49.8l24.1,41.8c5.3,9.1,14.2,14.4,24.5,14.4
	c1.3,0,2.5-0.1,3.8-0.2L62.8,129.8L62.8,129.8z"/>
<path class="st2" d="M26.4,51.1l22.3,38.8c5.7,9.8,15.2,15.4,26.1,15.4H75l-13.2,22.3c-8.1-2-15.3-5.7-21.6-10.9
	c-6.5-5.5-11.8-12.5-15.1-20.5C18.9,81.5,19.5,65.1,26.4,51.1 M26.4,43.3C4.1,77.5,23.3,124.1,63.8,132l18.7-31.7
	c-2.5,0.8-5.1,1.1-7.7,1.1c-8.7,0-17.4-4.3-22.8-13.5L26.4,43.3L26.4,43.3z M82.5,100.2C82.4,100.2,82.4,100.2,82.5,100.2z"/>
<path class="st5" d="M74.7,131.1l24.8-42c5.9-10.1,4.9-22.5-2.2-31.5h31.1c5.6,17,2.8,35.1-7.6,49.8c-10.7,15.1-27.3,23.7-45.7,23.7
	H74.7L74.7,131.1z"/>
<path class="st2" d="M127,59.6c4.8,16,2,32.9-7.7,46.8c-9.7,13.7-24.5,21.9-41,22.8l23-39c5.6-9.8,5.3-21.4-0.2-30.6L127,59.6
	 M129.8,55.7H92.9c9,8.4,11,21.8,4.9,32.5L71.4,133c1.2,0.1,2.5,0.1,3.7,0.1C114.9,133.1,143.1,93.5,129.8,55.7z"/>
</svg>
