<?xml version="1.0" encoding="UTF-8"?>
<svg width="128px" height="128px" viewBox="0 0 128 128" version="1.1" xmlns="http://www.w3.org/2000/svg" xmlns:xlink="http://www.w3.org/1999/xlink">
    <title>石墨备份 4</title>
    <g id="石墨备份-4" stroke="none" stroke-width="1" fill="none" fill-rule="evenodd">
        <rect id="5"  x="0" y="0" width="128" height="128"></rect>
        <path d="M74.2645992,104.771735 C97.7260693,100.699639 100.278582,85.9401098 100.278582,79.4213042 C100.278582,71.8198384 98.141907,70.2548829 93.3952649,70.2548829 C88.6486228,70.2548829 88.0641402,74.0464816 88.0641402,79.4213042 C88.0641402,84.7961269 83.0106953,100.941994 66.118634,99.6307652 C49.2265726,98.3195369 70.368057,105.44804 74.2645992,104.771735 Z" id="路径-6备份" fill="#FE9716" transform="translate(79.969862, 87.535995) rotate(-4.000000) translate(-79.969862, -87.535995) "></path>
        <path d="M93.9411357,27.1412929 C95.1961822,32.7660424 95.3371483,30.0687246 99.6641225,31.1683691 C103.991097,32.2680136 103.115708,38.0871294 100.594931,40.0006977 C100.300658,40.2240854 99.8708145,40.4861383 99.3262247,40.7782884 C95.4973393,41.2437341 87.8159159,40.9772415 85.4401088,40.3760809 C83.5189904,39.8899721 86.6734418,42.5936272 90.6493654,44.451574 C86.1246514,46.1126126 80.8278823,47.793125 76.2786668,48.8673182 C77.4086802,65.5120578 64.0298381,67.1003666 59.9762422,67.6809588 C62.2851881,64.8171217 63.6137028,61.240747 61.6286035,58.3636566 C60.3790374,56.5526063 45.5185023,61.5409848 44.8072652,80.4898888 C44.0960281,99.4387927 56.398563,107.123036 70.488836,109.452523 C56.7309373,102.562978 51.3878232,90.1660728 55.4729323,75.7546624 C54.504048,83.6690894 54.4979067,101.349416 71.3899681,102.660645 C88.2820295,103.971873 93.9411357,90.9347756 93.9411357,85.559953 C93.9411357,80.1851303 94.5256182,76.3935317 99.2722604,76.3935317 C104.018902,76.3935317 106.155577,77.9584872 106.155577,85.559953 C106.155577,93.1614188 102.684802,111.968197 66.6376523,111.968197 C30.5905026,111.968197 24.7619859,76.1865198 26.1424712,64 C27.5229566,51.8134802 33.5480214,46.6291143 31.5607506,43.4319309 C29.5734798,40.2347475 24.8026949,40.2347475 19.4207031,42.8142446 C24.8370166,27.3342955 44.3399099,32.6584605 44.8072652,32.1991086 C49.3151138,27.7684566 54.5201619,23.175624 60.4715895,20.4439834 C79.6259686,11.6523318 92.6860893,21.5165435 93.9411357,27.1412929 Z M82,28 C79.790861,28 78,29.790861 78,32 C78,34.209139 79.790861,36 82,36 C84.209139,36 86,34.209139 86,32 C86,29.790861 84.209139,28 82,28 Z M83,29.5 C83.5522847,29.5 84,29.9477153 84,30.5 C84,31.0522847 83.5522847,31.5 83,31.5 C82.4477153,31.5 82,31.0522847 82,30.5 C82,29.9477153 82.4477153,29.5 83,29.5 Z" id="形状结合" fill="#FFFFFF"></path>
    </g>
</svg>