<svg width="128" height="128" viewBox="0 0 128 128" fill="none" xmlns="http://www.w3.org/2000/svg">

<path fill-rule="evenodd" clip-rule="evenodd" d="M36.9438 26.7341C28.1309 33.1436 21.6792 42.6031 19.1394 53.5618C24.2465 45.5365 30.0679 39.6692 36.222 35.3858C36.1143 34.7133 36.0451 34.0282 36.0168 33.3309C35.9302 31.1943 36.2298 28.9901 36.9438 26.7341ZM43.0133 23.0008C43.0055 23.0143 42.9975 23.0277 42.9893 23.0411C40.7463 26.7076 39.8766 30.0349 39.9589 32.9968C47.5288 28.5656 55.472 26.274 63.1179 25.1129C63.1778 25.1038 63.2376 25.0948 63.2974 25.0858C62.6247 24.779 61.9591 24.4886 61.3022 24.2146C55.8323 21.9324 51.1688 20.8624 48.2128 20.7288C46.4252 21.3811 44.6895 22.1411 43.0133 23.0008ZM37.5102 39.7365C30.3203 45.0686 23.6065 52.6771 18.1292 63.383C18.3976 64.1565 18.838 65.0607 19.4966 66.0919C20.8772 68.2538 23.0443 70.7015 25.8906 73.2251C29.412 76.3471 33.8921 79.5139 39.0189 82.3376C41.2326 70.4736 45.0483 60.3369 49.5002 51.8514C45.6538 49.6961 42.3379 47.0182 39.9495 43.8595C38.9723 42.5672 38.1483 41.1906 37.5102 39.7365ZM51.4027 48.3881C47.9698 46.4596 45.1026 44.1232 43.1012 41.4764C42.1344 40.1977 41.373 38.8526 40.8414 37.4457C48.3601 32.6632 56.2583 30.1512 63.7112 29.0194C64.5567 28.891 65.3968 28.7803 66.2303 28.6862C63.0281 31.9604 59.5852 35.9865 56.2252 40.7922C54.5852 43.1378 52.9651 45.6687 51.4027 48.3881ZM53.0334 53.6216C48.593 62.0698 44.7953 72.246 42.6895 84.2437C44.7599 85.2555 46.9145 86.2038 49.1356 87.067C56.231 89.8246 63.9216 91.6882 71.6744 92.0108C72.0949 89.8843 72.4479 87.6953 72.7381 85.4596C73.8848 76.6265 74.0373 67.18 73.5581 58.1972C69.4022 58.0839 65.195 57.4808 61.189 56.4494C58.3731 55.7243 55.6219 54.7783 53.0334 53.6216ZM73.3045 54.2363C69.5922 54.108 65.8095 53.5588 62.1743 52.6228C59.6407 51.9705 57.2105 51.1388 54.9484 50.1487C56.4145 47.6115 57.9308 45.2484 59.4634 43.0564C63.0008 37.9972 66.6261 33.8482 69.9226 30.5749C71.3754 37.0133 72.636 45.2795 73.3045 54.2363ZM77.5127 58.1542C77.9908 67.2695 77.8337 76.9008 76.6565 85.9683C76.3904 88.0186 76.0713 90.046 75.6941 92.0368C83.7277 91.7998 91.7293 89.7907 99.1069 85.2913C100.651 72.7829 98.4218 62.2909 94.1108 53.6402C92.0617 54.8523 89.8059 55.805 87.4278 56.5167C84.3167 57.4477 80.9614 57.9813 77.5127 58.1542ZM92.2175 50.1734C90.4518 51.233 88.4614 52.0829 86.295 52.7312C83.4947 53.5692 80.4363 54.0546 77.2647 54.2102C76.6387 45.6621 75.4802 37.6875 74.1087 31.2216C76.7572 33.0476 79.3753 35.1201 81.8667 37.4463C85.7384 41.0612 89.31 45.291 92.2175 50.1734ZM95.4005 47.8038C92.3352 42.7388 88.6044 38.3313 84.5633 34.5582C82.0731 32.2332 79.4671 30.1498 76.8291 28.3004C79.9592 28.4173 82.8802 28.7254 85.5043 29.1347C91.5912 30.084 95.9499 31.5558 97.5582 32.3554C97.9348 32.5426 98.3424 32.5985 98.729 32.5405C99.1415 32.4901 99.5415 32.3097 99.8629 31.9982C100.646 31.2388 100.666 29.988 99.9065 29.2045C90.8205 19.8302 78.0894 14 64 14C36.3858 14 14 36.3858 14 64C14 91.6899 36.7896 114 64 114C91.6758 114 114 91.1908 114 64C114 56.9153 112.525 50.1698 109.864 44.0579C109.429 43.0575 108.265 42.5996 107.264 43.0351C106.264 43.4707 105.806 44.6348 106.241 45.6352C108.69 51.2589 110.049 57.4682 110.049 64C110.049 69.097 109.221 74.0005 107.692 78.5834C106.286 79.9577 104.843 81.2124 103.368 82.3539C104.264 70.2446 101.776 59.9367 97.3703 51.3343C100.603 48.6034 103.004 44.9914 104.077 40.3894C104.325 39.3268 103.664 38.2645 102.602 38.0168C101.539 37.7691 100.477 38.4297 100.229 39.4923C99.4441 42.8594 97.7641 45.618 95.4005 47.8038ZM57.0964 18.4654C58.852 19.008 60.758 19.7061 62.8237 20.5679C64.4415 21.2429 66.1095 22.0112 67.8044 22.875C67.5915 22.2578 67.3796 21.6895 67.1702 21.1728C66.7622 20.1664 66.3825 19.4042 66.0481 18.8729C65.7639 18.4214 65.5856 18.2558 65.5452 18.2183C65.5336 18.2075 65.5334 18.2073 65.5455 18.2141C65.4175 18.1429 65.3006 18.0597 65.1952 17.9665C64.798 17.9564 64.3996 17.9513 64 17.9513C61.6537 17.9513 59.3483 18.1268 57.0964 18.4654ZM102.773 87.6477C103.192 87.3696 103.608 87.0837 104.023 86.7898C103.546 87.6263 103.043 88.4464 102.516 89.249C102.608 88.712 102.694 88.1783 102.773 87.6477ZM98.3063 90.2902C90.7862 94.2187 82.7897 95.9034 74.8517 96.003C73.6873 100.924 72.1238 105.548 70.0743 109.652C80.5291 108.274 89.8785 103.389 96.9019 96.2172C97.4613 94.1964 97.9276 92.2209 98.3063 90.2902ZM47.7043 90.75C45.7696 89.9981 43.8814 89.1839 42.0503 88.32C41.3734 93.2133 40.978 98.3916 40.9284 103.861C47.7123 107.796 55.593 110.049 64 110.049C64.4649 110.049 64.9283 110.042 65.3899 110.028C67.7191 105.989 69.4976 101.195 70.8063 95.9193C62.7625 95.4909 54.8737 93.5363 47.7043 90.75ZM23.2693 76.1817C21.4733 74.5895 19.8823 72.9834 18.5435 71.4047C20.5279 83.6805 27.3651 94.3308 37.0237 101.324C37.1701 96.1096 37.6226 91.1548 38.3268 86.4551C32.4479 83.3361 27.2965 79.7523 23.2693 76.1817ZM86.1133 25.2306C83.368 24.8024 80.3097 24.4785 77.0279 24.3538C79.2362 22.6865 80.8529 21.7371 81.5874 21.4286C84.5247 22.6434 87.3089 24.1535 89.9032 25.9219C88.7155 25.6727 87.4485 25.4388 86.1133 25.2306ZM70.2582 18.3729C70.4533 18.786 70.6446 19.2259 70.832 19.6883C71.2529 20.7264 71.671 21.9196 72.0811 23.2466C73.802 21.8035 75.3701 20.6274 76.703 19.7253C74.6118 19.1265 72.4598 18.6719 70.2582 18.3729Z" fill="url(#paint0_linear_326_178)"/>
<defs>
<linearGradient id="paint0_linear_326_178" x1="30.0711" y1="96.0088" x2="103.526" y2="42.4152" gradientUnits="userSpaceOnUse">
<stop offset="0.348423" stop-color="#002F54"/>
<stop offset="1" stop-color="#5ACEF6"/>
</linearGradient>
</defs>
</svg>
