<svg width="128" height="128" viewBox="0 0 128 128" fill="none" xmlns="http://www.w3.org/2000/svg">
<g clip-path="url(#clip0_326_191)">
<rect x="64" width="64" height="64" fill="#56BDF7"/>
<g filter="url(#filter0_d_326_191)">
<path fill-rule="evenodd" clip-rule="evenodd" d="M128 0H0V128H128V0ZM64 114C91.6142 114 114 91.6142 114 64C114 36.3858 91.6142 14 64 14C36.3858 14 14 36.3858 14 64C14 91.6142 36.3858 114 64 114Z" fill="#F7F7F7"/>
</g>
<circle cx="16.3407" cy="16.4434" r="3" fill="#51B3F9"/>
<g filter="url(#filter1_dii_326_191)">
<circle cx="64" cy="64" r="34" fill="url(#paint0_linear_326_191)"/>
</g>
<g filter="url(#filter2_ii_326_191)">
<circle cx="64" cy="64" r="29" fill="#F6F6F6"/>
</g>
<rect x="83.1875" y="62.895" width="12.5" height="2.11841" rx="1.0592" fill="#56BCF8"/>
<path fill-rule="evenodd" clip-rule="evenodd" d="M108.861 118.521C109.093 118.521 109.281 118.709 109.281 118.941C109.281 119.173 109.093 119.361 108.861 119.361C108.629 119.361 108.441 119.173 108.441 118.941C108.441 118.709 108.629 118.521 108.861 118.521ZM111.01 118.279C111.236 118.227 111.461 118.368 111.514 118.594C111.566 118.82 111.425 119.046 111.199 119.098C110.973 119.15 110.747 119.009 110.695 118.783C110.643 118.557 110.784 118.332 111.01 118.279ZM106.209 118.594C106.261 118.368 106.487 118.227 106.713 118.279C106.939 118.332 107.08 118.557 107.028 118.783C106.975 119.009 106.75 119.15 106.524 119.098C106.298 119.046 106.157 118.82 106.209 118.594ZM113.051 117.566C113.259 117.464 113.511 117.55 113.612 117.759C113.714 117.967 113.627 118.219 113.419 118.321C113.211 118.422 112.959 118.336 112.857 118.127C112.756 117.919 112.842 117.667 113.051 117.566ZM104.11 117.759C104.212 117.55 104.463 117.464 104.672 117.566C104.88 117.667 104.967 117.919 104.865 118.127C104.764 118.336 104.512 118.422 104.304 118.321C104.095 118.219 104.009 117.967 104.11 117.759ZM108.861 116.841C109.093 116.841 109.281 117.029 109.281 117.261C109.281 117.493 109.093 117.681 108.861 117.681C108.629 117.681 108.441 117.493 108.441 117.261C108.441 117.029 108.629 116.841 108.861 116.841ZM110.927 116.569C111.151 116.509 111.381 116.642 111.441 116.866C111.501 117.09 111.368 117.321 111.144 117.381C110.92 117.441 110.69 117.308 110.63 117.084C110.57 116.86 110.703 116.629 110.927 116.569ZM106.282 116.866C106.342 116.642 106.572 116.509 106.796 116.569C107.02 116.629 107.153 116.86 107.093 117.084C107.033 117.308 106.803 117.441 106.579 117.381C106.354 117.321 106.222 117.09 106.282 116.866ZM114.882 116.416C115.062 116.27 115.327 116.298 115.473 116.478C115.618 116.658 115.591 116.923 115.41 117.069C115.23 117.215 114.966 117.187 114.82 117.007C114.674 116.826 114.702 116.562 114.882 116.416ZM102.25 116.478C102.396 116.298 102.661 116.27 102.841 116.416C103.021 116.562 103.049 116.826 102.903 117.007C102.757 117.187 102.493 117.215 102.312 117.069C102.132 116.923 102.104 116.658 102.25 116.478ZM112.851 115.772C113.052 115.656 113.309 115.725 113.425 115.926C113.541 116.127 113.472 116.384 113.271 116.5C113.07 116.616 112.814 116.547 112.698 116.346C112.582 116.145 112.65 115.888 112.851 115.772ZM104.298 115.926C104.414 115.725 104.67 115.656 104.871 115.772C105.072 115.888 105.141 116.145 105.025 116.346C104.909 116.547 104.652 116.616 104.451 116.5C104.25 116.384 104.182 116.127 104.298 115.926ZM108.861 115.161C109.093 115.161 109.281 115.349 109.281 115.581C109.281 115.813 109.093 116.001 108.861 116.001C108.629 116.001 108.441 115.813 108.441 115.581C108.441 115.349 108.629 115.161 108.861 115.161ZM106.385 115.123C106.457 114.902 106.694 114.781 106.915 114.853C107.135 114.925 107.256 115.162 107.184 115.382C107.112 115.603 106.876 115.724 106.655 115.652C106.434 115.58 106.314 115.343 106.385 115.123ZM110.808 114.853C111.029 114.781 111.266 114.902 111.337 115.123C111.409 115.343 111.288 115.58 111.068 115.652C110.847 115.724 110.61 115.603 110.538 115.382C110.467 115.162 110.588 114.925 110.808 114.853ZM116.416 114.882C116.562 114.702 116.826 114.674 117.007 114.82C117.187 114.966 117.215 115.23 117.069 115.41C116.923 115.591 116.658 115.618 116.478 115.473C116.298 115.327 116.27 115.062 116.416 114.882ZM100.716 114.82C100.896 114.674 101.161 114.702 101.307 114.882C101.453 115.062 101.425 115.327 101.245 115.473C101.065 115.618 100.8 115.591 100.654 115.41C100.508 115.23 100.536 114.966 100.716 114.82ZM102.625 114.504C102.789 114.34 103.055 114.34 103.219 114.504C103.383 114.668 103.383 114.934 103.219 115.098C103.055 115.262 102.789 115.262 102.625 115.098C102.461 114.934 102.461 114.668 102.625 114.504ZM114.504 114.504C114.668 114.34 114.934 114.34 115.098 114.504C115.262 114.668 115.262 114.934 115.098 115.098C114.934 115.262 114.668 115.262 114.504 115.098C114.34 114.934 114.34 114.668 114.504 114.504ZM104.572 114.051C104.708 113.863 104.971 113.822 105.158 113.958C105.346 114.094 105.388 114.357 105.251 114.545C105.115 114.732 104.852 114.774 104.665 114.638C104.477 114.501 104.435 114.239 104.572 114.051ZM112.564 113.958C112.752 113.822 113.015 113.863 113.151 114.051C113.287 114.239 113.246 114.501 113.058 114.638C112.87 114.774 112.608 114.732 112.471 114.545C112.335 114.357 112.377 114.094 112.564 113.958ZM108.861 113.481C109.093 113.481 109.281 113.669 109.281 113.901C109.281 114.133 109.093 114.321 108.861 114.321C108.629 114.321 108.441 114.133 108.441 113.901C108.441 113.669 108.629 113.481 108.861 113.481ZM106.546 113.354C106.637 113.14 106.883 113.04 107.097 113.131C107.31 113.222 107.41 113.468 107.319 113.682C107.229 113.895 106.982 113.995 106.768 113.904C106.555 113.814 106.455 113.567 106.546 113.354ZM110.633 113.128C110.848 113.041 111.093 113.145 111.179 113.36C111.266 113.575 111.162 113.82 110.947 113.907C110.732 113.994 110.488 113.89 110.401 113.675C110.314 113.46 110.418 113.215 110.633 113.128ZM117.566 113.051C117.667 112.842 117.919 112.756 118.127 112.857C118.336 112.959 118.422 113.211 118.321 113.419C118.219 113.627 117.967 113.714 117.759 113.612C117.55 113.511 117.464 113.259 117.566 113.051ZM99.5954 112.857C99.8039 112.756 100.055 112.842 100.157 113.051C100.259 113.259 100.172 113.511 99.9637 113.612C99.7552 113.714 99.5038 113.627 99.4021 113.419C99.3004 113.211 99.387 112.959 99.5954 112.857ZM101.377 112.698C101.578 112.582 101.834 112.65 101.95 112.851C102.066 113.052 101.998 113.309 101.797 113.425C101.596 113.541 101.339 113.472 101.223 113.271C101.107 113.07 101.176 112.814 101.377 112.698ZM115.772 112.851C115.888 112.65 116.145 112.582 116.346 112.698C116.547 112.814 116.616 113.07 116.5 113.271C116.384 113.472 116.127 113.541 115.926 113.425C115.725 113.309 115.656 113.052 115.772 112.851ZM103.178 112.471C103.366 112.335 103.628 112.377 103.765 112.564C103.901 112.752 103.859 113.015 103.672 113.151C103.484 113.287 103.221 113.246 103.085 113.058C102.949 112.87 102.99 112.608 103.178 112.471ZM113.958 112.564C114.094 112.377 114.357 112.335 114.545 112.471C114.732 112.608 114.774 112.87 114.638 113.058C114.501 113.246 114.239 113.287 114.051 113.151C113.863 113.015 113.822 112.752 113.958 112.564ZM112.128 112.128C112.292 111.964 112.558 111.964 112.722 112.128C112.886 112.292 112.886 112.558 112.722 112.722C112.558 112.886 112.292 112.886 112.128 112.722C111.964 112.558 111.964 112.292 112.128 112.128ZM105.001 112.128C105.165 111.964 105.43 111.964 105.594 112.128C105.759 112.292 105.759 112.558 105.594 112.722C105.43 112.886 105.165 112.886 105.001 112.722C104.837 112.558 104.837 112.292 105.001 112.128ZM108.861 111.801C109.093 111.801 109.281 111.989 109.281 112.221C109.281 112.453 109.093 112.641 108.861 112.641C108.629 112.641 108.441 112.453 108.441 112.221C108.441 111.989 108.629 111.801 108.861 111.801ZM110.331 111.407C110.532 111.291 110.789 111.36 110.905 111.561C111.021 111.762 110.952 112.019 110.751 112.135C110.55 112.251 110.294 112.182 110.178 111.981C110.062 111.78 110.13 111.523 110.331 111.407ZM106.818 111.561C106.934 111.36 107.19 111.291 107.391 111.407C107.592 111.523 107.661 111.78 107.545 111.981C107.429 112.182 107.172 112.251 106.971 112.135C106.77 112.019 106.702 111.762 106.818 111.561ZM118.279 111.01C118.332 110.784 118.557 110.643 118.783 110.695C119.009 110.747 119.15 110.973 119.098 111.199C119.046 111.425 118.82 111.566 118.594 111.514C118.368 111.461 118.227 111.236 118.279 111.01ZM98.9396 110.695C99.1656 110.643 99.3911 110.784 99.4433 111.01C99.4955 111.236 99.3545 111.461 99.1285 111.514C98.9025 111.566 98.677 111.425 98.6248 111.199C98.5726 110.973 98.7136 110.747 98.9396 110.695ZM100.639 110.63C100.863 110.57 101.093 110.703 101.153 110.927C101.213 111.151 101.08 111.381 100.856 111.441C100.632 111.501 100.402 111.368 100.342 111.144C100.282 110.92 100.415 110.69 100.639 110.63ZM116.569 110.927C116.629 110.703 116.86 110.57 117.084 110.63C117.308 110.69 117.441 110.92 117.381 111.144C117.321 111.368 117.09 111.501 116.866 111.441C116.642 111.381 116.509 111.151 116.569 110.927ZM102.34 110.538C102.561 110.467 102.798 110.588 102.87 110.808C102.941 111.029 102.821 111.266 102.6 111.337C102.379 111.409 102.142 111.288 102.071 111.068C101.999 110.847 102.12 110.61 102.34 110.538ZM114.853 110.808C114.925 110.588 115.162 110.467 115.382 110.538C115.603 110.61 115.724 110.847 115.652 111.068C115.58 111.288 115.343 111.409 115.123 111.337C114.902 111.266 114.781 111.029 114.853 110.808ZM104.041 110.403C104.254 110.313 104.501 110.412 104.592 110.626C104.682 110.839 104.583 111.086 104.369 111.177C104.156 111.267 103.909 111.168 103.818 110.954C103.728 110.741 103.827 110.494 104.041 110.403ZM113.131 110.626C113.222 110.412 113.468 110.313 113.682 110.403C113.895 110.494 113.995 110.741 113.904 110.954C113.814 111.168 113.567 111.267 113.354 111.177C113.14 111.086 113.04 110.839 113.131 110.626ZM108.861 110.121C109.093 110.121 109.281 110.309 109.281 110.541C109.281 110.773 109.093 110.961 108.861 110.961C108.629 110.961 108.441 110.773 108.441 110.541C108.441 110.309 108.629 110.121 108.861 110.121ZM111.407 110.331C111.523 110.13 111.78 110.062 111.981 110.178C112.182 110.294 112.251 110.55 112.135 110.751C112.019 110.952 111.762 111.021 111.561 110.905C111.36 110.789 111.291 110.532 111.407 110.331ZM105.741 110.178C105.942 110.062 106.199 110.13 106.315 110.331C106.431 110.532 106.362 110.789 106.161 110.905C105.961 111.021 105.704 110.952 105.588 110.751C105.472 110.55 105.541 110.294 105.741 110.178ZM109.953 109.491C110.069 109.29 110.325 109.222 110.526 109.338C110.727 109.454 110.796 109.71 110.68 109.911C110.564 110.112 110.307 110.181 110.106 110.065C109.905 109.949 109.837 109.692 109.953 109.491ZM107.196 109.338C107.397 109.222 107.654 109.29 107.77 109.491C107.886 109.692 107.817 109.949 107.616 110.065C107.416 110.181 107.159 110.112 107.043 109.911C106.927 109.71 106.996 109.454 107.196 109.338ZM108.861 108.441C109.093 108.441 109.281 108.629 109.281 108.861C109.281 109.093 109.093 109.281 108.861 109.281C108.629 109.281 108.441 109.093 108.441 108.861C108.441 108.629 108.629 108.441 108.861 108.441ZM117.261 108.441C117.493 108.441 117.681 108.629 117.681 108.861C117.681 109.093 117.493 109.281 117.261 109.281C117.029 109.281 116.841 109.093 116.841 108.861C116.841 108.629 117.029 108.441 117.261 108.441ZM115.581 108.441C115.813 108.441 116.001 108.629 116.001 108.861C116.001 109.093 115.813 109.281 115.581 109.281C115.349 109.281 115.161 109.093 115.161 108.861C115.161 108.629 115.349 108.441 115.581 108.441ZM118.941 108.441C119.173 108.441 119.361 108.629 119.361 108.861C119.361 109.093 119.173 109.281 118.941 109.281C118.709 109.281 118.521 109.093 118.521 108.861C118.521 108.629 118.709 108.441 118.941 108.441ZM105.501 108.441C105.733 108.441 105.921 108.629 105.921 108.861C105.921 109.093 105.733 109.281 105.501 109.281C105.269 109.281 105.081 109.093 105.081 108.861C105.081 108.629 105.269 108.441 105.501 108.441ZM113.901 108.441C114.133 108.441 114.321 108.629 114.321 108.861C114.321 109.093 114.133 109.281 113.901 109.281C113.669 109.281 113.481 109.093 113.481 108.861C113.481 108.629 113.669 108.441 113.901 108.441ZM100.461 108.441C100.693 108.441 100.881 108.629 100.881 108.861C100.881 109.093 100.693 109.281 100.461 109.281C100.229 109.281 100.041 109.093 100.041 108.861C100.041 108.629 100.229 108.441 100.461 108.441ZM102.141 108.441C102.373 108.441 102.561 108.629 102.561 108.861C102.561 109.093 102.373 109.281 102.141 109.281C101.909 109.281 101.721 109.093 101.721 108.861C101.721 108.629 101.909 108.441 102.141 108.441ZM103.821 108.441C104.053 108.441 104.241 108.629 104.241 108.861C104.241 109.093 104.053 109.281 103.821 109.281C103.589 109.281 103.401 109.093 103.401 108.861C103.401 108.629 103.589 108.441 103.821 108.441ZM112.221 108.441C112.453 108.441 112.641 108.629 112.641 108.861C112.641 109.093 112.453 109.281 112.221 109.281C111.989 109.281 111.801 109.093 111.801 108.861C111.801 108.629 111.989 108.441 112.221 108.441ZM98.7813 108.441C99.0133 108.441 99.2013 108.629 99.2013 108.861C99.2013 109.093 99.0133 109.281 98.7813 109.281C98.5494 109.281 98.3613 109.093 98.3613 108.861C98.3613 108.629 98.5494 108.441 98.7813 108.441ZM110.106 107.658C110.307 107.542 110.564 107.61 110.68 107.811C110.796 108.012 110.727 108.269 110.526 108.385C110.325 108.501 110.069 108.432 109.953 108.231C109.837 108.03 109.905 107.774 110.106 107.658ZM107.043 107.811C107.159 107.61 107.416 107.542 107.616 107.658C107.817 107.774 107.886 108.03 107.77 108.231C107.654 108.432 107.397 108.501 107.196 108.385C106.996 108.269 106.927 108.012 107.043 107.811ZM105.588 106.971C105.704 106.77 105.961 106.702 106.161 106.818C106.362 106.934 106.431 107.19 106.315 107.391C106.199 107.592 105.942 107.661 105.741 107.545C105.541 107.429 105.472 107.172 105.588 106.971ZM108.861 106.761C109.093 106.761 109.281 106.949 109.281 107.181C109.281 107.413 109.093 107.601 108.861 107.601C108.629 107.601 108.441 107.413 108.441 107.181C108.441 106.949 108.629 106.761 108.861 106.761ZM111.561 106.818C111.762 106.702 112.019 106.77 112.135 106.971C112.251 107.172 112.182 107.429 111.981 107.545C111.78 107.661 111.523 107.592 111.407 107.391C111.291 107.19 111.36 106.934 111.561 106.818ZM103.818 106.768C103.909 106.555 104.156 106.455 104.369 106.546C104.583 106.637 104.682 106.883 104.592 107.097C104.501 107.31 104.254 107.41 104.041 107.319C103.827 107.229 103.728 106.982 103.818 106.768ZM113.36 106.543C113.575 106.456 113.82 106.56 113.907 106.775C113.994 106.99 113.89 107.235 113.675 107.322C113.46 107.409 113.215 107.305 113.128 107.09C113.041 106.875 113.145 106.63 113.36 106.543ZM102.071 106.655C102.142 106.434 102.379 106.314 102.6 106.385C102.821 106.457 102.941 106.694 102.87 106.915C102.798 107.135 102.561 107.256 102.34 107.184C102.12 107.112 101.999 106.876 102.071 106.655ZM115.123 106.385C115.343 106.314 115.58 106.434 115.652 106.655C115.724 106.876 115.603 107.112 115.382 107.184C115.162 107.256 114.925 107.135 114.853 106.915C114.781 106.694 114.902 106.457 115.123 106.385ZM116.866 106.282C117.09 106.222 117.321 106.354 117.381 106.579C117.441 106.803 117.308 107.033 117.084 107.093C116.86 107.153 116.629 107.02 116.569 106.796C116.509 106.572 116.642 106.342 116.866 106.282ZM100.342 106.579C100.402 106.354 100.632 106.222 100.856 106.282C101.08 106.342 101.213 106.572 101.153 106.796C101.093 107.02 100.863 107.153 100.639 107.093C100.415 107.033 100.282 106.803 100.342 106.579ZM118.594 106.209C118.82 106.157 119.046 106.298 119.098 106.524C119.15 106.75 119.009 106.975 118.783 107.028C118.557 107.08 118.332 106.939 118.279 106.713C118.227 106.487 118.368 106.261 118.594 106.209ZM98.6248 106.524C98.677 106.298 98.9025 106.157 99.1285 106.209C99.3545 106.261 99.4955 106.487 99.4433 106.713C99.3911 106.939 99.1656 107.08 98.9396 107.028C98.7136 106.975 98.5726 106.75 98.6248 106.524ZM110.178 105.741C110.294 105.541 110.55 105.472 110.751 105.588C110.952 105.704 111.021 105.961 110.905 106.161C110.789 106.362 110.532 106.431 110.331 106.315C110.13 106.199 110.062 105.942 110.178 105.741ZM106.971 105.588C107.172 105.472 107.429 105.541 107.545 105.741C107.661 105.942 107.592 106.199 107.391 106.315C107.19 106.431 106.934 106.362 106.818 106.161C106.702 105.961 106.77 105.704 106.971 105.588ZM108.861 105.081C109.093 105.081 109.281 105.269 109.281 105.501C109.281 105.733 109.093 105.921 108.861 105.921C108.629 105.921 108.441 105.733 108.441 105.501C108.441 105.269 108.629 105.081 108.861 105.081ZM105.001 105.001C105.165 104.837 105.43 104.837 105.594 105.001C105.759 105.165 105.759 105.43 105.594 105.594C105.43 105.759 105.165 105.759 105.001 105.594C104.837 105.43 104.837 105.165 105.001 105.001ZM112.128 105.001C112.292 104.837 112.558 104.837 112.722 105.001C112.886 105.165 112.886 105.43 112.722 105.594C112.558 105.759 112.292 105.759 112.128 105.594C111.964 105.43 111.964 105.165 112.128 105.001ZM103.085 104.665C103.221 104.477 103.484 104.435 103.672 104.572C103.859 104.708 103.901 104.971 103.765 105.158C103.628 105.346 103.366 105.388 103.178 105.251C102.99 105.115 102.949 104.852 103.085 104.665ZM114.051 104.572C114.239 104.435 114.501 104.477 114.638 104.665C114.774 104.852 114.732 105.115 114.545 105.251C114.357 105.388 114.094 105.346 113.958 105.158C113.822 104.971 113.863 104.708 114.051 104.572ZM115.926 104.298C116.127 104.182 116.384 104.25 116.5 104.451C116.616 104.652 116.547 104.909 116.346 105.025C116.145 105.141 115.888 105.072 115.772 104.871C115.656 104.67 115.725 104.414 115.926 104.298ZM101.223 104.451C101.339 104.25 101.596 104.182 101.797 104.298C101.998 104.414 102.066 104.67 101.95 104.871C101.834 105.072 101.578 105.141 101.377 105.025C101.176 104.909 101.107 104.652 101.223 104.451ZM117.759 104.11C117.967 104.009 118.219 104.095 118.321 104.304C118.422 104.512 118.336 104.764 118.127 104.865C117.919 104.967 117.667 104.88 117.566 104.672C117.464 104.463 117.55 104.212 117.759 104.11ZM99.4021 104.304C99.5038 104.095 99.7552 104.009 99.9637 104.11C100.172 104.212 100.259 104.463 100.157 104.672C100.055 104.88 99.8039 104.967 99.5954 104.865C99.387 104.764 99.3004 104.512 99.4021 104.304ZM110.403 104.041C110.494 103.827 110.741 103.728 110.954 103.818C111.168 103.909 111.267 104.156 111.177 104.369C111.086 104.583 110.839 104.682 110.626 104.592C110.412 104.501 110.313 104.254 110.403 104.041ZM106.775 103.816C106.99 103.729 107.235 103.833 107.322 104.048C107.409 104.263 107.305 104.507 107.09 104.594C106.875 104.681 106.63 104.577 106.543 104.362C106.456 104.147 106.56 103.902 106.775 103.816ZM108.861 103.401C109.093 103.401 109.281 103.589 109.281 103.821C109.281 104.053 109.093 104.241 108.861 104.241C108.629 104.241 108.441 104.053 108.441 103.821C108.441 103.589 108.629 103.401 108.861 103.401ZM112.471 103.178C112.608 102.99 112.87 102.949 113.058 103.085C113.246 103.221 113.287 103.484 113.151 103.672C113.015 103.859 112.752 103.901 112.564 103.765C112.377 103.628 112.335 103.366 112.471 103.178ZM104.665 103.085C104.852 102.949 105.115 102.99 105.251 103.178C105.388 103.366 105.346 103.628 105.158 103.765C104.971 103.901 104.708 103.859 104.572 103.672C104.435 103.484 104.477 103.221 104.665 103.085ZM114.504 102.625C114.668 102.461 114.934 102.461 115.098 102.625C115.262 102.789 115.262 103.055 115.098 103.219C114.934 103.383 114.668 103.383 114.504 103.219C114.34 103.055 114.34 102.789 114.504 102.625ZM102.625 102.625C102.789 102.461 103.055 102.461 103.219 102.625C103.383 102.789 103.383 103.055 103.219 103.219C103.055 103.383 102.789 103.383 102.625 103.219C102.461 103.055 102.461 102.789 102.625 102.625ZM116.478 102.25C116.658 102.104 116.923 102.132 117.069 102.312C117.215 102.493 117.187 102.757 117.007 102.903C116.826 103.049 116.562 103.021 116.416 102.841C116.27 102.661 116.298 102.396 116.478 102.25ZM100.654 102.312C100.8 102.132 101.065 102.104 101.245 102.25C101.425 102.396 101.453 102.661 101.307 102.841C101.161 103.021 100.896 103.049 100.716 102.903C100.536 102.757 100.508 102.493 100.654 102.312ZM110.538 102.34C110.61 102.12 110.847 101.999 111.068 102.071C111.288 102.142 111.409 102.379 111.337 102.6C111.266 102.821 111.029 102.941 110.808 102.87C110.588 102.798 110.467 102.561 110.538 102.34ZM106.655 102.071C106.876 101.999 107.112 102.12 107.184 102.34C107.256 102.561 107.135 102.798 106.915 102.87C106.694 102.941 106.457 102.821 106.385 102.6C106.314 102.379 106.434 102.142 106.655 102.071ZM108.861 101.721C109.093 101.721 109.281 101.909 109.281 102.141C109.281 102.373 109.093 102.561 108.861 102.561C108.629 102.561 108.441 102.373 108.441 102.141C108.441 101.909 108.629 101.721 108.861 101.721ZM112.698 101.377C112.814 101.176 113.07 101.107 113.271 101.223C113.472 101.339 113.541 101.596 113.425 101.797C113.309 101.998 113.052 102.066 112.851 101.95C112.65 101.834 112.582 101.578 112.698 101.377ZM104.451 101.223C104.652 101.107 104.909 101.176 105.025 101.377C105.141 101.578 105.072 101.834 104.871 101.95C104.67 102.066 104.414 101.998 104.298 101.797C104.182 101.596 104.25 101.339 104.451 101.223ZM114.82 100.716C114.966 100.536 115.23 100.508 115.41 100.654C115.591 100.8 115.618 101.065 115.473 101.245C115.327 101.425 115.062 101.453 114.882 101.307C114.702 101.161 114.674 100.896 114.82 100.716ZM102.312 100.654C102.493 100.508 102.757 100.536 102.903 100.716C103.049 100.896 103.021 101.161 102.841 101.307C102.661 101.453 102.396 101.425 102.25 101.245C102.104 101.065 102.132 100.8 102.312 100.654ZM110.63 100.639C110.69 100.415 110.92 100.282 111.144 100.342C111.368 100.402 111.501 100.632 111.441 100.856C111.381 101.08 111.151 101.213 110.927 101.153C110.703 101.093 110.57 100.863 110.63 100.639ZM106.579 100.342C106.803 100.282 107.033 100.415 107.093 100.639C107.153 100.863 107.02 101.093 106.796 101.153C106.572 101.213 106.342 101.08 106.282 100.856C106.222 100.632 106.354 100.402 106.579 100.342ZM108.861 100.041C109.093 100.041 109.281 100.229 109.281 100.461C109.281 100.693 109.093 100.881 108.861 100.881C108.629 100.881 108.441 100.693 108.441 100.461C108.441 100.229 108.629 100.041 108.861 100.041ZM112.857 99.5954C112.959 99.387 113.211 99.3004 113.419 99.4021C113.627 99.5038 113.714 99.7552 113.612 99.9637C113.511 100.172 113.259 100.259 113.051 100.157C112.842 100.055 112.756 99.8039 112.857 99.5954ZM104.304 99.4021C104.512 99.3004 104.764 99.387 104.865 99.5954C104.967 99.8039 104.88 100.055 104.672 100.157C104.463 100.259 104.212 100.172 104.11 99.9637C104.009 99.7552 104.095 99.5038 104.304 99.4021ZM110.695 98.9396C110.747 98.7136 110.973 98.5726 111.199 98.6248C111.425 98.677 111.566 98.9025 111.514 99.1285C111.461 99.3545 111.236 99.4955 111.01 99.4433C110.784 99.3911 110.643 99.1656 110.695 98.9396ZM106.524 98.6248C106.75 98.5726 106.975 98.7136 107.028 98.9396C107.08 99.1656 106.939 99.3911 106.713 99.4433C106.487 99.4955 106.261 99.3545 106.209 99.1285C106.157 98.9025 106.298 98.677 106.524 98.6248ZM108.861 98.3613C109.093 98.3613 109.281 98.5494 109.281 98.7813C109.281 99.0133 109.093 99.2013 108.861 99.2013C108.629 99.2013 108.441 99.0133 108.441 98.7813C108.441 98.5494 108.629 98.3613 108.861 98.3613Z" fill="#BFBFBF"/>
</g>
<defs>
<filter id="filter0_d_326_191" x="-5" y="-5" width="138" height="138" filterUnits="userSpaceOnUse" color-interpolation-filters="sRGB">
<feFlood flood-opacity="0" result="BackgroundImageFix"/>
<feColorMatrix in="SourceAlpha" type="matrix" values="0 0 0 0 0 0 0 0 0 0 0 0 0 0 0 0 0 0 127 0" result="hardAlpha"/>
<feOffset/>
<feGaussianBlur stdDeviation="2.5"/>
<feComposite in2="hardAlpha" operator="out"/>
<feColorMatrix type="matrix" values="0 0 0 0 0 0 0 0 0 0 0 0 0 0 0 0 0 0 0.3 0"/>
<feBlend mode="normal" in2="BackgroundImageFix" result="effect1_dropShadow_326_191"/>
<feBlend mode="normal" in="SourceGraphic" in2="effect1_dropShadow_326_191" result="shape"/>
</filter>
<filter id="filter1_dii_326_191" x="26" y="26" width="76" height="76" filterUnits="userSpaceOnUse" color-interpolation-filters="sRGB">
<feFlood flood-opacity="0" result="BackgroundImageFix"/>
<feColorMatrix in="SourceAlpha" type="matrix" values="0 0 0 0 0 0 0 0 0 0 0 0 0 0 0 0 0 0 127 0" result="hardAlpha"/>
<feOffset/>
<feGaussianBlur stdDeviation="2"/>
<feComposite in2="hardAlpha" operator="out"/>
<feColorMatrix type="matrix" values="0 0 0 0 0 0 0 0 0 0 0 0 0 0 0 0 0 0 0.25 0"/>
<feBlend mode="normal" in2="BackgroundImageFix" result="effect1_dropShadow_326_191"/>
<feBlend mode="normal" in="SourceGraphic" in2="effect1_dropShadow_326_191" result="shape"/>
<feColorMatrix in="SourceAlpha" type="matrix" values="0 0 0 0 0 0 0 0 0 0 0 0 0 0 0 0 0 0 127 0" result="hardAlpha"/>
<feOffset dy="-0.2"/>
<feGaussianBlur stdDeviation="0.5"/>
<feComposite in2="hardAlpha" operator="arithmetic" k2="-1" k3="1"/>
<feColorMatrix type="matrix" values="0 0 0 0 0 0 0 0 0 0 0 0 0 0 0 0 0 0 0.25 0"/>
<feBlend mode="normal" in2="shape" result="effect2_innerShadow_326_191"/>
<feColorMatrix in="SourceAlpha" type="matrix" values="0 0 0 0 0 0 0 0 0 0 0 0 0 0 0 0 0 0 127 0" result="hardAlpha"/>
<feOffset dy="1"/>
<feGaussianBlur stdDeviation="0.5"/>
<feComposite in2="hardAlpha" operator="arithmetic" k2="-1" k3="1"/>
<feColorMatrix type="matrix" values="0 0 0 0 1 0 0 0 0 1 0 0 0 0 1 0 0 0 0.25 0"/>
<feBlend mode="normal" in2="effect2_innerShadow_326_191" result="effect3_innerShadow_326_191"/>
</filter>
<filter id="filter2_ii_326_191" x="35" y="35" width="58" height="58" filterUnits="userSpaceOnUse" color-interpolation-filters="sRGB">
<feFlood flood-opacity="0" result="BackgroundImageFix"/>
<feBlend mode="normal" in="SourceGraphic" in2="BackgroundImageFix" result="shape"/>
<feColorMatrix in="SourceAlpha" type="matrix" values="0 0 0 0 0 0 0 0 0 0 0 0 0 0 0 0 0 0 127 0" result="hardAlpha"/>
<feOffset dy="0.8"/>
<feComposite in2="hardAlpha" operator="arithmetic" k2="-1" k3="1"/>
<feColorMatrix type="matrix" values="0 0 0 0 0.583333 0 0 0 0 0.583333 0 0 0 0 0.583333 0 0 0 0.2 0"/>
<feBlend mode="normal" in2="shape" result="effect1_innerShadow_326_191"/>
<feColorMatrix in="SourceAlpha" type="matrix" values="0 0 0 0 0 0 0 0 0 0 0 0 0 0 0 0 0 0 127 0" result="hardAlpha"/>
<feOffset dy="-0.8"/>
<feComposite in2="hardAlpha" operator="arithmetic" k2="-1" k3="1"/>
<feColorMatrix type="matrix" values="0 0 0 0 1 0 0 0 0 1 0 0 0 0 1 0 0 0 1 0"/>
<feBlend mode="normal" in2="effect1_innerShadow_326_191" result="effect2_innerShadow_326_191"/>
</filter>
<linearGradient id="paint0_linear_326_191" x1="64" y1="30" x2="64" y2="98" gradientUnits="userSpaceOnUse">
<stop stop-color="#F8F8F8"/>
<stop offset="1" stop-color="#EEEEEE"/>
</linearGradient>
<clipPath id="clip0_326_191">
<rect width="128" height="128" fill="white"/>
</clipPath>
</defs>
</svg>
