<svg width="128" height="128" viewBox="0 0 128 128" fill="none" xmlns="http://www.w3.org/2000/svg">

<path fill-rule="evenodd" clip-rule="evenodd" d="M62.5 46.5H16.5L17.5 41.5H63.5L62.5 46.5Z" fill="white"/>
<path fill-rule="evenodd" clip-rule="evenodd" d="M29 57L26.9976 89.1102H21L24 52.9028L25.5656 52.538C26.013 52.4591 26.6268 52.3305 27.3698 52.1748C30.7784 51.4605 36.9054 50.1767 42.156 50.5049C46.9116 50.8021 50.5197 51.4657 53.6846 52.0478C54.6265 52.221 55.5291 52.387 56.411 52.534L58.6239 52.9028L56.4959 90.1426L51.5041 89.8574L53.3773 57.0764C53.1282 57.031 52.879 56.9852 52.629 56.9393C49.5082 56.3661 46.2729 55.7719 41.8441 55.4951C37.3729 55.2157 32.9994 55.7751 29.5 56.5C29 56.5 29.1095 56.9773 29 57Z" fill="white"/>
<path fill-rule="evenodd" clip-rule="evenodd" d="M74.3001 58L65 51.5L68.5 46.5L77.5 53L74.3001 58ZM85.4121 56.9049L84.6035 73.8861C85.0829 73.9896 85.5287 74.0996 85.9497 74.2034C86.2867 74.2865 86.6078 74.3657 86.9173 74.4345C88.2331 74.7269 89.926 75 93 75C97.4027 75 99.5096 74.7012 101.661 74.3962C101.971 74.3522 102.282 74.3081 102.601 74.2647L103.408 56.9165C102.274 56.6564 100.929 56.3867 99.5627 56.1511C97.2804 55.7576 95.1699 55.5 94 55.5C92.8456 55.5 90.9112 55.7535 88.8533 56.1437C87.612 56.3791 86.4104 56.6479 85.4121 56.9049ZM87.9218 51.2313C90.0388 50.8298 92.3545 50.5 94 50.5C95.6301 50.5 98.103 50.8257 100.412 51.2238C102.752 51.6273 105.158 52.1464 106.705 52.6016L109.5 53.5L107.397 78.7831L105.237 78.9887C104.344 79.0738 103.509 79.1914 102.622 79.3163C100.364 79.6342 97.7662 80 93 80C89.5741 80 87.5169 79.6897 85.8327 79.3155C85.3159 79.2006 84.8829 79.0939 84.4887 78.9967C83.5605 78.7678 82.8475 78.592 81.763 78.4887L78.5 78L80.5843 53.17L82.2094 52.6283C83.6093 52.1617 85.7811 51.6372 87.9218 51.2313Z" fill="white"/>
<path fill-rule="evenodd" clip-rule="evenodd" d="M103.5 64.5H85V59.5H103.5V64.5ZM103.5 72.5H84V67.5H103.5V72.5Z" fill="white"/>
<path fill-rule="evenodd" clip-rule="evenodd" d="M68.6998 66.7669C68.0784 65.3966 66.93 64.1443 64.6787 63.3612L66.3213 58.6388C69.82 59.8557 72.0467 62.0409 73.2534 64.7019C74.4173 67.2683 74.5427 70.0724 74.3001 72.4988C74.0554 74.9456 73.416 77.2081 72.8552 78.8317C72.5723 79.6509 72.3033 80.3251 72.1022 80.8003C72.0016 81.0382 71.9175 81.2273 71.8568 81.3607C71.8264 81.4275 71.8018 81.4804 71.7838 81.5187L71.7618 81.5651L71.7548 81.5798L71.7523 81.5851L71.7513 81.5872C71.7513 81.5872 71.7504 81.5889 69.5 80.5C67.2496 79.4111 67.249 79.4125 67.249 79.4125L67.2586 79.3921C67.2683 79.3715 67.2844 79.3369 67.3061 79.2892C67.3496 79.1936 67.4155 79.0458 67.4974 78.8521C67.6616 78.464 67.8886 77.896 68.1292 77.1995C68.6153 75.7919 69.1321 73.9294 69.3249 72.0012C69.5198 70.0526 69.364 68.2316 68.6998 66.7669ZM47.4347 65.8682C44.009 66.1219 40.3593 66.4871 38.6064 66.9254C36.7712 67.3841 33.7783 68.4562 31.14 69.4612C29.8437 69.9551 28.6695 70.4186 27.8191 70.7587C27.3942 70.9286 27.0509 71.0675 26.8145 71.1636C26.6963 71.2117 26.6049 71.249 26.5434 71.2742L26.4518 71.3117L25.5 69C24.5481 66.6883 24.5484 66.6882 24.5484 66.6882L24.6495 66.6467C24.7145 66.6201 24.8096 66.5813 24.9316 66.5317C25.1757 66.4325 25.5277 66.2901 25.9622 66.1163C26.8306 65.7689 28.0314 65.2949 29.36 64.7888C31.9718 63.7938 35.2288 62.6159 37.3937 62.0746C39.6407 61.5129 43.741 61.1281 47.0653 60.8818C48.7732 60.7553 50.3524 60.6606 51.5039 60.5975C52.08 60.5659 52.5501 60.5422 52.877 60.5264C53.0404 60.5184 53.1681 60.5125 53.2554 60.5085L53.3905 60.5024C53.3905 60.5024 53.3914 60.5024 53.5 63L53.6087 65.4976L53.4844 65.5032C53.4012 65.507 53.278 65.5128 53.1191 65.5205C52.8014 65.5359 52.3419 65.5591 51.7774 65.59C50.6477 65.6519 49.1018 65.7447 47.4347 65.8682Z" fill="white"/>
<path fill-rule="evenodd" clip-rule="evenodd" d="M44.2061 76.4661C40.9684 76.318 40.1035 77.1651 39.8459 77.8643C39.5452 78.6804 39.5423 79.2539 39.6285 79.661C39.7157 80.0731 39.9327 80.4949 40.3501 80.9416C41.2495 81.9041 42.8702 82.7578 44.958 83.4342C46.9824 84.09 49.1505 84.4867 50.8461 84.7183C53.2445 85.0458 53.6321 84.9253 53.5 87.5C53.3439 90.2357 52.7516 90.0249 50.1696 89.6723C48.3183 89.4195 45.8302 88.9725 43.4171 88.1908C41.0674 87.4297 38.4693 86.2522 36.6968 84.3553C35.7783 83.3723 35.0461 82.1573 34.7368 80.6964C34.4265 79.2305 34.5799 77.6946 35.1542 76.1357C36.6466 72.0849 40.8441 71.307 44.4346 71.4714C48.2154 71.6444 52.7871 72.8664 57.2432 74.3834C61.745 75.9159 66.3335 77.8225 70.1986 79.4846C71.3059 79.9607 72.3416 80.4112 73.2953 80.826C75.7446 81.8913 77.6526 82.7212 78.8409 83.1456C84.3251 85.1043 90.9805 85.2592 96.9756 84.6182C102.972 83.977 107.971 82.5782 110.015 81.7021L111.985 86.2978C109.362 87.4218 103.849 88.9117 97.5072 89.5899C91.1631 90.2682 83.6519 90.1732 77.1592 87.8543C75.8004 87.3691 73.6395 86.429 71.1001 85.3243C70.1838 84.9258 69.2183 84.5057 68.2234 84.0779C64.3854 82.4275 59.9426 80.5841 55.6319 79.1166C51.2755 77.6336 47.2534 76.6056 44.2061 76.4661Z" fill="white"/>
<path fill-rule="evenodd" clip-rule="evenodd" d="M86.5 41.5L86 37.5L91.5 36L92.5 41.5H86.5Z" fill="white"/>
<path fill-rule="evenodd" clip-rule="evenodd" d="M113.5 46.5H78L78.5 41.5H113.5V46.5Z" fill="white"/>
<path fill-rule="evenodd" clip-rule="evenodd" d="M93.7061 51.506L100.206 36.506L105.5 38.5L98.2939 53.494L93.7061 51.506Z" fill="white"/>
<path fill-rule="evenodd" clip-rule="evenodd" d="M22.38 52.675C24.3376 49.5429 29.6322 40.1454 31.7639 35.882L36.5 38C34.2984 42.4032 28.6625 52.0571 26.62 55.325C24.6302 58.5087 19.2615 67.0332 16.5523 70.9277L12.4478 68.0723C15.0719 64.3001 20.3698 55.8913 22.38 52.675Z" fill="white"/>
</svg>
