<svg xmlns="http://www.w3.org/2000/svg" xmlns:xlink="http://www.w3.org/1999/xlink" width="32" height="32" viewBox="0 0 32 32" fill="none"><defs><rect id="path_0" x="0" y="0" width="20" height="20" /></defs><g opacity="1" transform="translate(0 0)  rotate(0 16.000000000000004 15.999999999999998)"><path id="矩形 1" fill-rule="evenodd"  transform="translate(0 0)  rotate(0 16.000000000000004 15.999999999999998)" opacity="1" d="M0,32L32,32L32,0L0,0L0,32Z " /><g opacity="1" transform="translate(6 6)  rotate(0 10 10)"><mask id="bg-mask-0" fill="white"><use xlink:href="#path_0"></use></mask><g mask="url(#bg-mask-0)" ><path id="路径 1" fill-rule="evenodd" style="fill:#000000" transform="translate(0.5493099359139775 0.5299416992187478)  rotate(0 9.715661233214886 9.734382513518065)" opacity="0.2" d="M0,9.96C0.1,15.05 4.31,19.32 9.4,19.46C14.72,19.62 19.34,15.23 19.43,9.69L17.27,9.69C17.14,13.94 13.58,17.27 9.51,17.15C5.63,17.04 2.38,13.84 2.24,9.96C2.09,5.87 5.45,2.27 9.74,2.16L9.74,0C4.25,0.1 -0.1,4.66 0,9.96Z " /><path id="路径 2" fill-rule="evenodd" style="fill:#000000" transform="translate(5.809991171875005 2.6108461328124815)  rotate(0 6.2285815234375 5.3144320800781255)" opacity="0.2" d="M0,7.12L3.69,10.22C3.93,10.48 4.27,10.62 4.62,10.63C4.94,10.63 5.25,10.51 5.48,10.29L12.46,1.57L10.37,0L4.44,7.54L1.64,5.19L0,7.12Z " /><path id="路径 3" fill-rule="evenodd" style="fill:#617FDE" transform="translate(0.019368236686996276 0)  rotate(0 9.715661223453377 9.73438250375244)" opacity="1" d="M0,9.96C0.1,15.05 4.31,19.32 9.4,19.46C14.72,19.62 19.34,15.23 19.43,9.69L17.27,9.69C17.14,13.94 13.58,17.27 9.51,17.15C5.63,17.04 2.38,13.84 2.24,9.96C2.09,5.87 5.45,2.27 9.74,2.16L9.74,0C4.25,0.1 -0.1,4.66 0,9.96Z " /><path id="路径 4" fill-rule="evenodd" style="fill:#FFB000" transform="translate(5.2800494531249775 2.0879703320312526)  rotate(0 6.232114472656249 5.314432070312501)" opacity="1" d="M0,7.12L3.69,10.21C3.94,10.47 4.27,10.62 4.63,10.63C4.95,10.63 5.25,10.51 5.49,10.29L12.46,1.57L10.38,0L4.44,7.53L1.64,5.18L0,7.12Z " /></g></g></g></svg>