<svg width="128" height="128" viewBox="0 0 128 128" fill="none" xmlns="http://www.w3.org/2000/svg">

<path d="M91.8225 38.7727C86.6073 36.3874 81.0686 34.649 75.2873 33.6787C74.5596 34.932 73.751 36.63 73.1849 37.9641C67.0359 37.0747 60.9312 37.0747 54.8669 37.9641C54.3008 36.63 53.4518 34.932 52.7645 33.6787C46.9429 34.649 41.4042 36.3874 36.2254 38.7727C25.7544 54.2163 22.9244 69.296 24.3394 84.1736C31.2931 89.2271 38.0043 92.2998 44.5981 94.3213C46.2153 92.1381 47.6707 89.7931 48.924 87.3272C46.5387 86.4377 44.2747 85.3461 42.0916 84.0523C42.6576 83.6483 43.2236 83.2035 43.7492 82.7588C56.9288 88.7826 71.2041 88.7826 84.2219 82.7588C84.7879 83.2035 85.3135 83.6483 85.8795 84.0523C83.6963 85.3461 81.4325 86.4377 79.0471 87.3272C80.3004 89.7931 81.7559 92.1381 83.3729 94.3213C89.9627 92.2998 96.7143 89.2271 103.632 84.1736C105.37 66.9513 100.878 51.9929 91.8225 38.7727ZM50.7432 74.9964C46.7812 74.9964 43.5469 71.3984 43.5469 66.9917C43.5469 62.5851 46.7004 58.9868 50.7432 58.9868C54.7456 58.9868 58.0202 62.5851 57.9393 66.9917C57.9393 71.3984 54.7456 74.9964 50.7432 74.9964ZM77.3088 74.9964C73.3467 74.9964 70.1083 71.3984 70.1083 66.9917C70.1083 62.5851 73.2658 58.9868 77.3088 58.9868C81.3112 58.9868 84.5858 62.5851 84.5049 66.9917C84.5049 71.3984 81.3516 74.9964 77.3088 74.9964Z" fill="white"/>
</svg>
