<svg width="128" height="128" viewBox="0 0 128 128" fill="none" xmlns="http://www.w3.org/2000/svg">

<path d="M18.0868 52.2241H21.375V72.6292H32.456V75.8274H18.0868V52.2241Z" fill="black"/>
<path d="M37.8613 52.2691H34.4829V75.8724H37.8613V52.2691Z" fill="black"/>
<path d="M40.7304 76.1349V52.1221H43.7119L56.0406 68.9633V52.1221H59.2638V76.1349H56.0406L44.1953 59.052V76.1349H40.7304Z" fill="black"/>
<path d="M93.0267 52.2027H88.6754L97.2975 63.9674L88.6754 75.5709H93.0267L99.4731 66.7877L106.484 75.5709H110.996L101.891 63.9674L110.996 52.2027H106.484L99.4731 61.3888L93.0267 52.2027Z" fill="black"/>
<path d="M75.593 45.908C75.2066 46.1596 74.9102 46.528 74.7439 46.9592C74.5732 47.5162 74.6002 48.1092 74.8113 48.6528C74.9865 49.2233 75.3369 49.7219 75.8086 50.0813C76.0512 50.252 76.3297 50.3598 76.6262 50.3957C76.9227 50.4317 77.2191 50.3822 77.4842 50.2475C77.7986 50.0723 78.0502 49.7983 78.1984 49.4703C78.3422 49.1379 78.423 48.783 78.432 48.4237C78.4635 47.9655 78.4051 47.5072 78.2613 47.0715C78.1041 46.5953 77.7986 46.1865 77.3853 45.908C77.1742 45.7733 76.9406 45.6834 76.6936 45.6475C76.4465 45.6115 76.1949 45.6385 75.9613 45.7283C75.8311 45.7822 75.7053 45.8496 75.5885 45.9305" fill="white"/>
<path d="M88.3957 64.2451C88.1666 62.9738 87.8072 61.7295 87.3266 60.5346C86.9986 59.6451 86.5539 58.8006 86.0014 58.0279C85.4443 57.2867 84.7391 56.6623 84.1955 55.9121C83.908 55.5213 83.6654 55.0856 83.3645 54.7037C83.2432 54.4522 83.1264 54.2006 83.0096 53.949C82.6502 53.1629 82.3223 52.3588 81.8955 51.6131C81.8281 51.4963 81.7562 51.3795 81.6889 51.2672C81.635 50.5484 81.5586 49.8297 81.5182 49.1109C81.5496 47.669 81.4283 46.2225 81.1543 44.8029C80.9656 44.1246 80.6781 43.4733 80.3008 42.8803C79.8605 42.1795 79.2945 41.5686 78.6297 41.0789C77.5471 40.3108 76.2533 39.8975 74.9281 39.893C73.9533 39.8705 72.9875 40.0906 72.1205 40.5399C71.2086 41.0385 70.4719 41.8067 70.0092 42.7365C69.5779 43.6754 69.3488 44.6906 69.3353 45.7238C69.2994 46.7391 69.3937 47.7453 69.4342 48.7606C69.4746 49.8117 69.4521 50.8674 69.5375 51.9186C69.5644 52.2555 69.6049 52.5924 69.6049 52.9338C69.6049 53.1045 69.5959 53.2752 69.5914 53.4414L69.5779 53.4774C69.1197 54.2545 68.6121 55.0047 68.0596 55.719C67.6732 56.2086 67.2869 56.6938 66.8961 57.1744C66.3885 57.7449 65.9572 58.3783 65.6158 59.0611C65.3867 59.6541 65.2025 60.265 65.0588 60.885L65.0453 60.9344C64.8297 61.6486 64.5602 62.3404 64.2367 63.0098C64.2053 63.0727 64.1738 63.14 64.1469 63.1984C63.9537 63.5983 63.7516 63.9981 63.5404 64.3889L63.2978 64.8426C63.1451 65.1166 63.0103 65.3996 62.8936 65.6871C62.8262 65.8623 62.7723 66.042 62.7408 66.2262C62.6824 66.617 62.7094 67.0123 62.8127 67.3897C62.8352 67.484 62.8666 67.5783 62.898 67.6727C62.9969 67.9512 63.1137 68.2252 63.2529 68.4858C63.3158 68.607 63.3832 68.7238 63.4461 68.8451L63.5045 68.9305C63.5674 69.0428 63.6348 69.1551 63.7021 69.2629L63.7111 69.2764C63.7875 69.4022 63.8728 69.5234 63.9537 69.6447L63.9672 69.6627C64.0525 69.7795 64.1379 69.9008 64.2277 70.0176C64.5602 71.3158 65.1711 72.5242 66.0111 73.5664C65.8809 73.7955 65.7641 74.0201 65.6338 74.2447C65.1756 74.9096 64.7982 75.6238 64.5062 76.374C64.385 76.7604 64.3535 77.1691 64.4209 77.569C64.4838 77.9732 64.6904 78.3371 65.0049 78.6022C65.216 78.7639 65.4586 78.8762 65.7146 78.9301C65.9707 78.984 66.2357 79.0109 66.5008 78.9975C67.498 78.9211 68.4863 78.7234 69.4387 78.418C70.0137 78.2652 70.5887 78.1305 71.1727 78.0137C71.7791 77.8744 72.3945 77.7891 73.0144 77.7621C73.1672 77.7666 73.3199 77.7576 73.4682 77.7486C73.8904 77.7936 74.3127 77.8115 74.7395 77.7936L74.8967 77.7846C75.0045 77.7981 75.1168 77.8025 75.2291 77.8115C75.9748 77.852 76.716 77.9283 77.4527 78.0406C78.0996 78.1395 78.7465 78.2652 79.3844 78.4225C80.3682 78.719 81.3789 78.9166 82.4076 79.002C82.6771 79.0154 82.9467 78.993 83.2162 78.9391C83.4812 78.8852 83.7328 78.7684 83.9484 78.6066C84.2629 78.3461 84.4695 77.9822 84.5369 77.5779C84.6043 77.1781 84.5728 76.7693 84.4516 76.383C84.1551 75.6328 83.7732 74.9186 83.3061 74.2582C83.1443 73.9842 82.9916 73.7012 82.8299 73.4272C83.5262 72.65 84.1416 71.7965 84.6582 70.8891C84.9727 70.907 85.2826 70.8711 85.5836 70.7723C86.3697 70.5072 87.0525 69.9951 87.5287 69.3123C87.6725 69.1102 87.7848 68.8856 87.8521 68.6475C88.1621 68.1668 88.3732 67.6277 88.4721 67.0617C88.6158 66.1274 88.5934 65.1705 88.4047 64.2451H88.3957Z" fill="#020204"/>
<path d="M71.1187 51.5187C70.9795 51.6984 70.8807 51.9096 70.8312 52.1297C70.7818 52.3498 70.7504 52.5789 70.7459 52.8035C70.7594 53.2572 70.7234 53.7109 70.6336 54.1557C70.4764 54.6184 70.2383 55.0451 69.9328 55.427C69.4072 56.0873 68.9939 56.8285 68.7109 57.6191C68.5672 58.1088 68.5178 58.6209 68.5717 59.133C68.0281 59.9371 67.5564 60.7906 67.1656 61.6801C66.5637 63.0232 66.1773 64.4562 66.0201 65.9207C65.8269 67.7221 66.092 69.5414 66.7838 71.2125C67.2914 72.4164 68.0641 73.4945 69.0434 74.3615C69.5465 74.7973 70.099 75.1656 70.692 75.4576C72.7898 76.4818 75.2471 76.4594 77.3225 75.3947C78.3602 74.7883 79.308 74.0381 80.1346 73.1711C80.6691 72.6859 81.1453 72.1424 81.5631 71.5494C82.2594 70.341 82.6682 68.9844 82.7535 67.5918C83.1848 65.184 82.9197 62.7043 81.9943 60.4402C81.6305 59.6855 81.1498 58.9937 80.5658 58.3918C80.4086 57.3359 80.1031 56.3076 79.6584 55.3371C79.335 54.6408 78.9441 53.976 78.6432 53.2617C78.5219 52.9697 78.4141 52.6732 78.2793 52.3902C78.149 52.1027 77.9693 51.8377 77.7492 51.6131C77.5111 51.393 77.2281 51.2268 76.9182 51.1324C76.6082 51.0336 76.2893 50.9797 75.9658 50.9707C75.3189 50.9393 74.6676 51.0201 74.0297 50.9977C73.5131 50.9752 73.0055 50.8853 72.4889 50.9168C72.2328 50.9303 71.9768 50.9797 71.7387 51.074C71.4961 51.1684 71.285 51.3211 71.1187 51.5232V51.5187ZM71.3254 45.9035C71.0828 45.9215 70.8537 46.0248 70.6785 46.191C70.5033 46.3572 70.373 46.5684 70.3012 46.7975C70.1799 47.2646 70.1484 47.7543 70.2158 48.235C70.2248 48.6707 70.3012 49.1064 70.4449 49.5197C70.5258 49.7219 70.6426 49.9105 70.7953 50.0678C70.948 50.225 71.1412 50.3418 71.3523 50.3957C71.5545 50.4451 71.7656 50.4361 71.9588 50.3732C72.1519 50.3103 72.3316 50.2025 72.4754 50.0588C72.6865 49.8432 72.8393 49.5781 72.9156 49.2906C72.992 49.0031 73.0279 48.7021 73.0189 48.4012C73.0189 48.0283 72.9605 47.6555 72.8482 47.2961C72.7359 46.9367 72.5428 46.6088 72.2822 46.3348C72.1564 46.2045 72.0127 46.0922 71.851 46.0113C71.6848 45.935 71.5051 45.8945 71.3254 45.9035V45.9035ZM75.593 45.9035C75.2066 46.1551 74.9101 46.5234 74.7439 46.9547C74.5732 47.5117 74.6002 48.1047 74.8113 48.6482C74.9865 49.2187 75.3369 49.7174 75.8086 50.0768C76.0512 50.2475 76.3297 50.3553 76.6262 50.3912C76.9227 50.4271 77.2191 50.3777 77.4842 50.243C77.7986 50.0678 78.0502 49.7937 78.1984 49.4658C78.3422 49.1334 78.423 48.7785 78.432 48.4191C78.4635 47.9609 78.4051 47.5027 78.2613 47.067C78.1041 46.5908 77.7986 46.182 77.3853 45.9035C77.1742 45.7687 76.9406 45.6789 76.6935 45.643C76.4465 45.607 76.1949 45.634 75.9613 45.7238C75.831 45.7777 75.7053 45.8451 75.5885 45.926" fill="white"/>
<path d="M76.4599 47.0446C76.3162 47.0535 76.1814 47.0985 76.0601 47.1748C75.9389 47.2512 75.8355 47.3545 75.7547 47.4713C75.6019 47.7094 75.5166 47.9879 75.5121 48.2754C75.4986 48.4866 75.5301 48.7022 75.5974 48.9043C75.6648 49.1065 75.7906 49.2862 75.9523 49.4209C76.123 49.5602 76.3297 49.641 76.5498 49.6545C76.7699 49.6635 76.9855 49.6051 77.1652 49.4793C77.309 49.376 77.4258 49.2457 77.5066 49.0885C77.5875 48.9358 77.6369 48.7651 77.6594 48.5944C77.7043 48.2889 77.6504 47.9744 77.5156 47.7004C77.3764 47.4219 77.1383 47.2108 76.8508 47.0985C76.725 47.0491 76.5947 47.0311 76.4599 47.0356" fill="#020204"/>
<path d="M71.3254 45.908C71.0828 45.926 70.8537 46.0293 70.6785 46.1955C70.5033 46.3617 70.373 46.5729 70.3012 46.802C70.1799 47.2692 70.1484 47.7588 70.2158 48.2395C70.2248 48.6752 70.3012 49.111 70.4449 49.5242C70.5258 49.7309 70.6426 49.9151 70.7953 50.0723C70.948 50.2295 71.1412 50.3463 71.3523 50.4002C71.5545 50.4496 71.7656 50.4407 71.9588 50.3778C72.152 50.3149 72.3316 50.2071 72.4754 50.0633C72.6865 49.8477 72.8393 49.5826 72.9156 49.2951C72.992 49.0076 73.0279 48.7067 73.0189 48.4057C73.0189 48.0328 72.9605 47.66 72.8482 47.3006C72.7359 46.9412 72.5428 46.6133 72.2822 46.3393C72.1564 46.209 72.0127 46.0967 71.851 46.0158C71.6848 45.9395 71.5051 45.8991 71.3254 45.908" fill="white"/>
<path d="M70.7459 47.907C70.6875 48.208 70.701 48.5224 70.7953 48.8144C70.8672 49.0076 70.975 49.1828 71.1187 49.331C71.2086 49.4299 71.3119 49.5152 71.4332 49.5736C71.5545 49.6365 71.6892 49.6545 71.824 49.623C71.9453 49.5916 72.0486 49.5197 72.125 49.4209C72.2014 49.3221 72.2553 49.2098 72.2912 49.093C72.3945 48.7426 72.3855 48.3697 72.2732 48.0193C72.2014 47.7633 72.0621 47.5297 71.8644 47.3545C71.7701 47.2736 71.6533 47.2107 71.532 47.1793C71.4062 47.1478 71.276 47.1568 71.1547 47.2107C71.0289 47.2736 70.9256 47.3769 70.8627 47.5027C70.7998 47.6285 70.7594 47.7633 70.7414 47.9025" fill="#020204"/>
<path d="M70.1754 51.6849C70.1844 51.7254 70.1978 51.7658 70.2203 51.7973C70.2607 51.8601 70.3101 51.9096 70.373 51.95C70.4314 51.9904 70.4898 52.0264 70.5482 52.0623C70.8582 52.2734 71.1322 52.534 71.3523 52.8394C71.6219 53.2617 71.9588 53.6391 72.3406 53.9625C72.6326 54.1646 72.974 54.2859 73.3289 54.3174C73.7422 54.3488 74.16 54.2994 74.5598 54.1736C74.9281 54.0658 75.283 53.9131 75.6154 53.7109C76.1859 53.2527 76.7969 52.8484 77.4437 52.5115C77.5965 52.4576 77.7492 52.4172 77.893 52.3498C78.0412 52.2869 78.167 52.1791 78.2434 52.0353C78.2928 51.8916 78.3242 51.7389 78.3287 51.5861C78.3512 51.4244 78.4051 51.2672 78.432 51.1055C78.468 50.9437 78.4545 50.7775 78.3961 50.6203C78.3332 50.499 78.2344 50.4002 78.1131 50.3373C77.9918 50.2789 77.857 50.243 77.7223 50.2385C77.4482 50.2474 77.1787 50.2744 76.9137 50.3193C76.5543 50.3508 76.1949 50.3058 75.8355 50.3193C75.3908 50.3328 74.9461 50.4316 74.4969 50.4496C73.9848 50.4765 73.4771 50.3957 72.965 50.3732C72.7449 50.3598 72.5203 50.3687 72.3002 50.4047C72.0801 50.4361 71.8689 50.517 71.6848 50.6428C71.5141 50.7775 71.3568 50.9213 71.2041 51.074C71.1232 51.1459 71.0334 51.2088 70.9391 51.2582C70.8402 51.3076 70.7369 51.3346 70.6246 51.3301C70.5707 51.3211 70.5123 51.3211 70.4584 51.3301C70.4269 51.3435 70.3955 51.3615 70.373 51.384L70.3057 51.4648C70.2607 51.5322 70.2203 51.6041 70.1889 51.676" fill="#D99A03"/>
<path d="M71.3029 50.5529C71.1232 50.6607 70.9481 50.7775 70.7729 50.8988C70.6785 50.9572 70.6022 51.0336 70.5438 51.1279C70.5123 51.1998 70.4988 51.2762 70.5033 51.3525C70.5078 51.4289 70.5078 51.5053 70.5033 51.5816C70.4988 51.6311 70.4809 51.685 70.4809 51.7389C70.4809 51.7658 70.4809 51.7928 70.4899 51.8152C70.4988 51.8422 70.5078 51.8646 70.5258 51.8826C70.5482 51.9051 70.5797 51.923 70.6156 51.932C70.6471 51.941 70.683 51.9455 70.719 51.9545C70.8762 51.9994 71.0199 52.0848 71.1367 52.1971C71.258 52.3049 71.3658 52.4307 71.4961 52.534C71.8555 52.8035 72.2912 52.9428 72.7359 52.9383C73.1807 52.9293 73.6209 52.8664 74.0477 52.7541C74.3846 52.6822 74.717 52.5924 75.0404 52.4801C75.5436 52.2914 76.0063 52.0174 76.4061 51.6625C76.5813 51.4918 76.7654 51.3391 76.9631 51.1998C77.1428 51.0875 77.3539 51.0111 77.5336 50.9033C77.5516 50.8943 77.565 50.8809 77.583 50.8719C77.5965 50.8584 77.61 50.8449 77.619 50.827C77.6324 50.7955 77.6324 50.7596 77.619 50.7281C77.61 50.6967 77.5965 50.6697 77.5785 50.6473C77.5561 50.6203 77.5291 50.5934 77.5022 50.5709C77.2955 50.4182 77.0484 50.3328 76.7924 50.3238C76.5318 50.3059 76.2848 50.3238 76.0332 50.2744C75.7996 50.225 75.5705 50.1576 75.3459 50.0768C75.1078 50.0004 74.8652 49.942 74.6137 49.9016C74.0297 49.8072 73.4367 49.8207 72.8572 49.9465C72.3137 50.0678 71.7881 50.2744 71.3029 50.5529Z" fill="#604405"/>
<path d="M71.2445 49.942C70.984 50.1172 70.7504 50.3328 70.5483 50.5754C70.4315 50.7102 70.3371 50.8674 70.2742 51.0381C70.2338 51.1729 70.2068 51.3121 70.1844 51.4514C70.1709 51.5008 70.1619 51.5547 70.1619 51.6086C70.1619 51.6356 70.1664 51.6625 70.1754 51.685C70.1844 51.7119 70.1979 51.7344 70.2158 51.7523C70.2473 51.7838 70.2877 51.8018 70.3326 51.8107C70.3731 51.8197 70.418 51.8197 70.4629 51.8242C70.6606 51.8557 70.8447 51.9365 71.0065 52.0533C71.1682 52.1656 71.3209 52.2959 71.4871 52.4037C71.8645 52.6283 72.2957 52.7496 72.736 52.7586C73.1762 52.7676 73.6119 52.7227 74.0387 52.6283C74.3801 52.5654 74.717 52.4711 75.0449 52.3453C75.5346 52.1342 75.9928 51.8602 76.4106 51.5277C76.6037 51.384 76.7924 51.2313 76.9676 51.065C77.026 51.0066 77.0844 50.9482 77.1473 50.8943C77.2102 50.8404 77.282 50.8 77.3584 50.7731C77.4797 50.7416 77.6055 50.7371 77.7313 50.7686C77.8211 50.791 77.9154 50.8 78.0098 50.8C78.0592 50.8 78.1041 50.791 78.149 50.7775C78.194 50.7596 78.2344 50.7326 78.2613 50.6967C78.3018 50.6473 78.3197 50.5889 78.3197 50.526C78.3197 50.4631 78.3018 50.4047 78.2703 50.3508C78.2029 50.2475 78.0996 50.1666 77.9873 50.1217C77.8301 50.0588 77.6684 50.0094 77.5022 49.9779C76.9945 49.8566 76.5004 49.677 76.0332 49.4434C75.7996 49.3266 75.5795 49.2008 75.3459 49.0795C75.1123 48.9492 74.8697 48.8369 74.6182 48.7561C74.0387 48.5988 73.4233 48.6258 72.8617 48.8369C72.2328 49.057 71.6713 49.4389 71.2401 49.9465" fill="#F5BD0C"/>
<path d="M74.1689 49.2277C74.2004 49.3311 74.3621 49.3131 74.4564 49.358C74.5508 49.4029 74.6047 49.4883 74.6945 49.4973C74.7889 49.5063 74.9191 49.4658 74.9326 49.3805C74.9506 49.2637 74.7799 49.1918 74.6721 49.1514C74.5283 49.084 74.3666 49.0795 74.2229 49.1424C74.1914 49.1559 74.16 49.1963 74.1689 49.2277V49.2277ZM72.6236 49.1738C72.5023 49.1334 72.3047 49.3445 72.3631 49.4568C72.3811 49.4883 72.435 49.5242 72.4709 49.5063C72.5068 49.4883 72.5742 49.367 72.6326 49.3266C72.6775 49.2906 72.6686 49.1873 72.6236 49.1738V49.1738Z" fill="#CD8907"/>
<path d="M91.8771 74.2761C91.7873 74.5097 91.657 74.7254 91.4953 74.9185C91.118 75.3228 90.6598 75.6463 90.1566 75.8709C89.3031 76.2662 88.4721 76.7064 87.6635 77.1871C87.1379 77.5375 86.6482 77.9328 86.1945 78.373C85.8217 78.7638 85.4219 79.1232 84.9996 79.4601C84.5594 79.7836 84.0517 80.0037 83.5127 80.089C82.8523 80.1744 82.183 80.0711 81.5765 79.797C81.1408 79.6308 80.7635 79.3388 80.4984 78.9525C80.2738 78.5392 80.1705 78.0765 80.193 77.6093C80.2199 76.7873 80.3187 75.9697 80.4894 75.1611C80.6062 74.4873 80.723 73.8134 80.7949 73.1351C80.9207 71.8953 80.9342 70.6509 80.8398 69.4111C80.8174 69.2045 80.8174 68.9933 80.8398 68.7867C80.8668 68.3644 81.2217 68.041 81.6484 68.0455C81.8416 68.041 82.0348 68.059 82.2234 68.0949C82.6726 68.1488 83.1219 68.2252 83.5621 68.3285C83.8361 68.4004 84.1101 68.4992 84.3842 68.5756C84.8424 68.7103 85.3275 68.7508 85.8037 68.7058C86.3023 68.589 86.8099 68.5127 87.3221 68.4677C87.5332 68.4767 87.7443 68.5127 87.942 68.5756C88.1486 68.634 88.3418 68.7373 88.499 68.8855C88.6113 69.0068 88.7012 69.1461 88.7596 69.2988C88.8449 69.5279 88.8988 69.766 88.9168 70.0086C88.9258 70.2242 88.9437 70.4398 88.9707 70.6554C89.0471 71.0013 89.2133 71.3248 89.4469 71.5943C89.6849 71.8549 89.941 72.0974 90.2195 72.3131C90.4846 72.5466 90.7631 72.7623 91.0551 72.9599C91.1943 73.0543 91.3336 73.1396 91.4639 73.2429C91.5986 73.3418 91.7109 73.4675 91.7963 73.6113C91.9041 73.809 91.94 74.0381 91.8861 74.2582" fill="#F5BD0C"/>
<path d="M91.8772 74.2762C91.7873 74.5098 91.657 74.7254 91.4953 74.9186C91.118 75.3229 90.6598 75.6463 90.1566 75.8709C89.3031 76.2662 88.4721 76.7065 87.6635 77.1871C87.1379 77.5375 86.6482 77.9328 86.1945 78.3731C85.8217 78.7639 85.4219 79.1233 84.9996 79.4602C84.5594 79.7836 84.0518 80.0037 83.5127 80.0891C82.8523 80.1744 82.183 80.0711 81.5766 79.7971C81.1408 79.6309 80.7635 79.3389 80.4984 78.9526C80.2738 78.5393 80.1705 78.0766 80.193 77.6094C80.2199 76.7873 80.3188 75.9697 80.4895 75.1612C80.6063 74.4873 80.723 73.8135 80.7949 73.1352C80.9207 71.8953 80.9342 70.651 80.8398 69.4112C80.8174 69.2045 80.8174 68.9934 80.8398 68.7867C80.8668 68.3645 81.2217 68.041 81.6484 68.0455C81.8416 68.041 82.0348 68.059 82.2234 68.0949C82.6727 68.1489 83.1219 68.2252 83.5621 68.3285C83.8361 68.4004 84.1102 68.4992 84.3842 68.5756C84.8424 68.7104 85.3275 68.7508 85.8037 68.7059C86.3023 68.5891 86.81 68.5127 87.3221 68.4678C87.5332 68.4768 87.7443 68.5127 87.942 68.5756C88.1486 68.634 88.3418 68.7373 88.499 68.8856C88.6113 69.0069 88.7012 69.1461 88.7596 69.2989C88.8449 69.528 88.8988 69.766 88.9168 70.0086C88.9258 70.2242 88.9438 70.4399 88.9707 70.6555C89.0471 71.0014 89.2133 71.3248 89.4469 71.5944C89.685 71.8549 89.941 72.0975 90.2195 72.3131C90.4846 72.5467 90.7631 72.7623 91.0551 72.96C91.1943 73.0543 91.3336 73.1397 91.4639 73.243C91.5986 73.3418 91.7109 73.4676 91.7963 73.6113C91.9041 73.809 91.94 74.0381 91.8861 74.2582L91.8772 74.2762ZM63.6527 67.3807C63.8729 67.2953 64.1109 67.2729 64.3445 67.3178C64.5781 67.3627 64.7982 67.4571 64.9914 67.5918C65.3643 67.8748 65.6877 68.2252 65.9438 68.616C66.5771 69.4875 67.1836 70.377 67.7361 71.3024C68.1854 72.0526 68.5941 72.8252 69.1107 73.5305C69.4477 73.9887 69.8295 74.4155 70.1709 74.8737C70.5258 75.3229 70.7953 75.835 70.9615 76.3785C71.1592 77.1018 71.0783 77.8699 70.7414 78.5393C70.4988 79.0065 70.135 79.3973 69.6902 79.6668C69.241 79.9363 68.7244 80.0711 68.1988 80.0576C67.3723 79.9453 66.5727 79.6938 65.8359 79.3119C64.2682 78.6875 62.5656 78.4899 60.9484 78.0047C60.4498 77.8565 59.9647 77.6768 59.4615 77.542C59.2369 77.4881 59.0168 77.4207 58.8012 77.3309C58.59 77.241 58.4059 77.0883 58.2846 76.8951C58.1947 76.7379 58.1498 76.5582 58.1543 76.3785C58.1588 76.1988 58.1947 76.0237 58.2576 75.8619C58.3789 75.525 58.5766 75.224 58.7068 74.8916C58.9045 74.3436 58.9809 73.7551 58.9314 73.1756C58.9045 72.5961 58.8012 72.0166 58.7697 71.4371C58.7428 71.1766 58.7518 70.916 58.7967 70.66C58.8641 70.1479 59.2639 69.7391 59.7805 69.6627C60.0186 69.6223 60.2566 69.6043 60.4947 69.6178C60.7328 69.6313 60.9754 69.6313 61.2135 69.6178C61.4516 69.6043 61.6896 69.5369 61.9008 69.4246C62.0939 69.3078 62.2646 69.1461 62.3949 68.9574C62.5252 68.7688 62.642 68.5756 62.7498 68.3735C62.8576 68.1713 62.9789 67.9826 63.1227 67.803C63.2574 67.6188 63.4416 67.4795 63.6527 67.3807" fill="#F5BD0C"/>
<path d="M63.6527 67.3851C63.8729 67.2998 64.1109 67.2773 64.3445 67.3223C64.5781 67.3672 64.7982 67.4615 64.9914 67.5963C65.3643 67.8793 65.6877 68.2297 65.9438 68.6205C66.5772 69.492 67.1836 70.3814 67.7361 71.3068C68.1854 72.057 68.5941 72.8297 69.1107 73.5349C69.4477 73.9931 69.8295 74.4199 70.1709 74.8781C70.5258 75.3273 70.7953 75.8394 70.9615 76.383C71.1592 77.1062 71.0783 77.8744 70.7414 78.5437C70.4988 79.0109 70.135 79.4017 69.6902 79.6713C69.241 79.9408 68.7244 80.0756 68.1988 80.0621C67.3723 79.9498 66.5727 79.6982 65.8359 79.3164C64.2682 78.692 62.5656 78.4943 60.9484 78.0092C60.4498 77.8609 59.9647 77.6812 59.4615 77.5465C59.2369 77.4926 59.0168 77.4252 58.8012 77.3353C58.59 77.2455 58.4059 77.0928 58.2846 76.8996C58.1947 76.7424 58.1498 76.5627 58.1543 76.383C58.1588 76.2033 58.1947 76.0281 58.2576 75.8664C58.3789 75.5295 58.5766 75.2285 58.7068 74.8961C58.9045 74.348 58.9809 73.7596 58.9314 73.1801C58.9045 72.6006 58.8012 72.0256 58.7697 71.4416C58.7428 71.181 58.7518 70.9205 58.7967 70.6644C58.8641 70.1523 59.2639 69.7435 59.7805 69.6672C60.0186 69.6267 60.2566 69.6088 60.4947 69.6223C60.7328 69.6357 60.9754 69.6357 61.2135 69.6223C61.4516 69.6088 61.6897 69.5414 61.9008 69.4291C62.0939 69.3123 62.2647 69.1506 62.3949 68.9619C62.5252 68.7732 62.642 68.5801 62.7498 68.3779C62.8576 68.1758 62.9789 67.9871 63.1227 67.8074C63.2574 67.6232 63.4416 67.4795 63.6527 67.3851" fill="#F5BD0C"/>
<path d="M63.9986 67.7625C64.1963 67.6861 64.4164 67.6726 64.623 67.7221C64.8297 67.7715 65.0229 67.8658 65.1891 68.0006C65.508 68.2791 65.7775 68.6115 65.9797 68.9844C66.5187 69.8558 67.0443 70.7363 67.534 71.6347C67.8889 72.3221 68.2887 72.9869 68.7289 73.6203C69.0344 74.0336 69.3848 74.4109 69.6992 74.8152C70.0271 75.215 70.2742 75.6687 70.427 76.1584C70.6066 76.8008 70.5303 77.4881 70.2248 78.0855C70.0002 78.5078 69.6633 78.8627 69.25 79.1008C68.8367 79.3433 68.3605 79.4601 67.8844 79.4377C67.1342 79.3209 66.4064 79.0963 65.7191 78.7683C64.3535 78.2697 62.8666 78.2068 61.465 77.816C60.9619 77.6812 60.4723 77.4971 59.9646 77.3713C59.74 77.3219 59.5154 77.259 59.2998 77.1781C59.0842 77.0972 58.8955 76.9445 58.7697 76.7513C58.6889 76.5986 58.6484 76.4279 58.6574 76.2572C58.6664 76.0865 58.7023 75.9158 58.7652 75.7541C58.8865 75.4351 59.0797 75.1431 59.201 74.8242C59.3717 74.3301 59.4301 73.809 59.3762 73.2879C59.3402 72.7713 59.2459 72.2592 59.2189 71.7381C59.201 71.509 59.21 71.2754 59.2504 71.0463C59.2908 70.8172 59.3986 70.606 59.5604 70.4353C59.749 70.2646 59.9826 70.1523 60.2342 70.1209C60.4857 70.0894 60.7373 70.0894 60.9844 70.1209C61.2359 70.1523 61.4875 70.1613 61.7391 70.1568C62.2332 70.1568 62.6824 69.8693 62.8936 69.4201C62.9969 69.2179 63.0867 69.0068 63.1586 68.7957C63.235 68.5801 63.3383 68.3779 63.4596 68.1847C63.5854 67.9916 63.765 67.8388 63.9762 67.749" fill="#F5BD0C"/>
<defs>

</defs>
</svg>
