<svg width="128" height="128" viewBox="0 0 128 128" fill="none" xmlns="http://www.w3.org/2000/svg">

<path fill-rule="evenodd" clip-rule="evenodd" d="M83.0404 52.3725V47.2049H90.038C97.3148 47.2049 99 58.2804 99 62.2423V66.4604C99 70.9485 96.5232 81.0983 89.0103 81.0983H63.8251V83.1247H80.9747V88.3485C80.9747 97.3434 72.1097 99.2628 63.8251 99.2628C57.0917 99.2628 47.3357 97.7253 47.3357 89.1317V72.851C47.3357 68.7411 50.9707 64.886 56.4655 64.886H71.8528C82.1081 64.886 83.0404 55.6356 83.0404 52.3725ZM73.1678 93.8634C74.8803 93.8634 76.2685 92.4752 76.2685 90.7627C76.2685 89.0502 74.8803 87.662 73.1678 87.662C71.4553 87.662 70.0671 89.0502 70.0671 90.7627C70.0671 92.4752 71.4553 93.8634 73.1678 93.8634Z" fill="url(#paint0_linear_381_175)"/>
<path fill-rule="evenodd" clip-rule="evenodd" d="M44.9596 75.6276V80.7953H37.962C30.6852 80.7953 29 69.7197 29 65.7579V61.5398C29 57.0516 31.4768 46.9018 38.9897 46.9018H64.1749V44.8755H47.0253V39.6516C47.0253 30.6568 55.8903 28.7373 64.1749 28.7373C70.9083 28.7373 80.6643 30.2748 80.6643 38.8684V55.1491C80.6643 59.2591 77.0293 63.1141 71.5345 63.1141H56.1472C45.8919 63.1141 44.9596 72.3646 44.9596 75.6276ZM54.8322 34.1367C53.1197 34.1367 51.7315 35.525 51.7315 37.2374C51.7315 38.9499 53.1197 40.3382 54.8322 40.3382C56.5447 40.3382 57.9329 38.9499 57.9329 37.2374C57.9329 35.525 56.5447 34.1367 54.8322 34.1367Z" fill="url(#paint1_linear_381_175)"/>
<defs>
<linearGradient id="paint0_linear_381_175" x1="76.7083" y1="75.4431" x2="36.4794" y2="52.7874" gradientUnits="userSpaceOnUse">
<stop stop-color="#FFDA4B"/>
<stop offset="1" stop-color="#FFE873"/>
</linearGradient>
<linearGradient id="paint1_linear_381_175" x1="33.8062" y1="59.9608" x2="75.2263" y2="52.3099" gradientUnits="userSpaceOnUse">
<stop stop-color="#4382B4"/>
<stop offset="1" stop-color="#306998"/>
</linearGradient>
</defs>
</svg>
