<svg xmlns="http://www.w3.org/2000/svg" xmlns:xlink="http://www.w3.org/1999/xlink" width="30" height="30" viewBox="0 0 30 30" fill="none"><defs><rect id="path_0" x="0" y="0" width="30" height="30" /><rect id="path_1" x="0" y="0" width="21.999999999999986" height="21.999999999999986" /></defs><g opacity="1" transform="translate(0 0)  rotate(0 15 15)"><mask id="bg-mask" fill="white"><use xlink:href="#path_0"></use></mask><g mask="url(#bg-mask)" ><path id="矩形 1" fill-rule="evenodd" transform="translate(0 0)  rotate(0 15 15)" opacity="1" d="M0,30L30,30L30,0L0,0L0,30Z " /><g opacity="1" transform="translate(4 4)  rotate(0 10.999999999999993 10.999999999999993)"><mask id="bg-mask" fill="white"><use xlink:href="#path_1"></use></mask><g mask="url(#bg-mask)" ><path id="分组 1" fill-rule="evenodd" style="fill:#1D1D1D" transform="translate(1.3752758649357524 5.136995741757672)  rotate(0 9.62866956408837 6.046694838198913)" opacity="1" d="M2.64 12.03C4.4 12.38 6.13 11.22 6.48 9.46L6.51 9.32L12.75 9.32L12.77 9.46C13.12 11.22 14.86 12.38 16.62 12.03C18.39 11.68 19.55 9.95 19.19 8.18L18.09 2.64C17.74 0.87 16.01 -0.29 14.24 0.06C12.86 0.34 12.66 0.72 11.65 1.58C10.88 2.24 8.38 2.24 7.61 1.58C6.59 0.72 6.39 0.34 5.02 0.06C3.25 -0.29 1.52 0.87 1.17 2.64L0.06 8.18C-0.29 9.95 0.87 11.68 2.64 12.03Z M7.32046 4.82338C7.32046 4.50338 7.07046 4.24338 6.75046 4.24338L5.32046 4.24338L5.32046 2.81338C5.32046 2.50338 5.06046 2.24338 4.75046 2.24338C4.43046 2.24338 4.17046 2.50338 4.17046 2.81338L4.17046 4.24338L2.74046 4.24338C2.43046 4.24338 2.17046 4.50338 2.17046 4.82338C2.17046 5.13338 2.43046 5.39338 2.74046 5.39338L4.17046 5.39338L4.17046 6.82338C4.17046 7.14338 4.43046 7.39338 4.75046 7.39338C5.06046 7.39338 5.32046 7.14338 5.32046 6.82338L5.32046 5.39338L6.75046 5.39338C7.07046 5.39338 7.32046 5.13338 7.32046 4.82338Z M13.5617 3.46462C13.5617 3.98462 13.9917 4.41462 14.5117 4.41462C15.0317 4.41462 15.4617 3.98462 15.4617 3.46462C15.4617 2.94462 15.0317 2.51462 14.5117 2.51462C13.9917 2.51462 13.5617 2.94462 13.5617 3.46462Z M13.7042 5.56177C13.9642 5.11177 13.8142 4.53177 13.3542 4.27177C12.9042 4.01177 12.3242 4.16177 12.0642 4.61177C11.8042 5.07177 11.9542 5.65177 12.4042 5.91177C12.8642 6.17177 13.4442 6.02177 13.7042 5.56177Z M14.9815 5.8991C14.5315 5.6391 13.9515 5.7891 13.6915 6.2391C13.4315 6.6991 13.5815 7.2791 14.0315 7.5391C14.4915 7.7991 15.0715 7.6491 15.3315 7.1891C15.5915 6.7391 15.4415 6.1591 14.9815 5.8991Z M16.6089 4.27179C16.1589 4.01179 15.5789 4.16179 15.3189 4.61179C15.0589 5.07179 15.2089 5.65179 15.6589 5.91179C16.1189 6.17179 16.6989 6.02179 16.9589 5.56179C17.2189 5.11179 17.0689 4.53179 16.6089 4.27179Z " /></g></g></g></g></svg>