<svg xmlns="http://www.w3.org/2000/svg" xmlns:xlink="http://www.w3.org/1999/xlink" width="30" height="30" viewBox="0 0 30 30" fill="none"><g opacity="1" transform="translate(-0.00002441406240905053 -0.00004882812481810106)  rotate(0 15 15)"><path id="分组 1" fill-rule="evenodd" style="fill:#FFFFFF" transform="translate(7.128515625000091 7.114453125000182)  rotate(0 7.865 7.87265)" opacity="1" d="M0 14.6253C0 15.2453 0.5 15.7453 1.12 15.7453L14.61 15.7453C15.23 15.7453 15.73 15.2453 15.73 14.6253C15.73 14.0053 15.23 13.5053 14.61 13.5053L1.12 13.5053C0.5 13.5053 0 14.0053 0 14.6253Z M5.05537 1.06L5.05537 5.62L2.61537 5.62C2.14537 5.62 1.89537 6.18 2.21537 6.52L7.47537 12.21C7.68537 12.44 8.05537 12.44 8.26537 12.21L13.5154 6.52C13.8354 6.18 13.5954 5.62 13.1254 5.62L10.6854 5.62L10.6854 1.06C10.6854 0.48 10.2054 0 9.62537 0L6.11537 0C5.53537 0 5.05537 0.47 5.05537 1.06Z " /></g></svg>