<svg width="128" height="128" viewBox="0 0 128 128" fill="none" xmlns="http://www.w3.org/2000/svg">
<path fill-rule="evenodd" clip-rule="evenodd" d="M53.4084 38.6461C54.5697 38.6461 55.8936 39.4238 56.4873 40.5703V40.5756L63.0507 53.8496L59.2021 61.6363L51.9314 46.9139C51.9314 46.9139 51.2865 45.6346 49.8823 45.6346H38.3521C36.9687 45.6346 37.572 46.9139 37.572 46.9139L52.3579 76.8503C52.3579 76.8503 52.9924 78.1349 53.6269 76.8503C59.6191 64.7687 65.5732 52.6681 71.5436 40.5756H71.5488C72.0637 39.3981 73.3582 38.6461 74.6277 38.6461H96.6738C99.381 38.6461 100.566 41.4775 99.7423 43.7104L78.237 87.238C77.1503 89.8644 73.3942 90.1847 71.84 87.2221L64.9958 73.3614L68.8288 65.5535L74.4092 76.8451C74.4092 76.8451 75.0437 78.1296 75.673 76.8451C76.3127 75.5605 90.464 46.9139 90.464 46.9139C90.464 46.9139 91.0882 45.6346 89.684 45.6346H78.1538C76.7808 45.6346 76.1047 46.9139 76.1047 46.9139L56.1857 87.238C55.0935 90.0132 50.9352 90.1051 49.7991 87.238L28.2938 43.7051C27.2998 41.5021 28.9539 38.6461 31.3623 38.6461H53.4084Z" fill="white"/>
</svg>
