<svg width="128" height="128" viewBox="0 0 128 128" fill="none" xmlns="http://www.w3.org/2000/svg">
<path fill-rule="evenodd" clip-rule="evenodd" d="M37.8239 28.0016C36.0369 28.0016 34.5883 29.4502 34.5883 31.2372C34.5883 33.0241 36.0369 34.4727 37.8239 34.4727H41.5109C42.3516 56.7822 51.6657 64.1966 51.6657 64.1966C51.6657 64.1966 40.9535 75.0017 40.8319 95.2124H38.1992C36.1946 95.2124 34.5696 96.8374 34.5696 98.842C34.5696 100.847 36.1946 102.472 38.1992 102.472H89.8008C91.8054 102.472 93.4304 100.847 93.4304 98.842C93.4304 96.8374 91.8054 95.2124 89.8008 95.2124H87.3055C87.1867 73.9734 76.1866 64.1966 76.1866 64.1966C76.1866 64.1966 86.6583 55.5467 86.6583 34.4727H90.1948C91.9818 34.4727 93.4304 33.0241 93.4304 31.2372C93.4304 29.4502 91.9818 28.0016 90.1948 28.0016H37.8239ZM79.6286 94.2202C79.8879 76.8412 67.943 65.0564 63.6484 65.0564C59.3537 65.0563 48.3673 74.7444 48.3673 94.2202C53.0615 86.8294 58.1552 81.8356 63.6484 81.8356C69.1416 81.8356 75.0343 86.7295 79.6286 94.2202ZM49.0246 34.854H78.9754C78.5686 38.5783 77.5538 46.0357 77.4732 46.4025C76.8816 49.0939 76.1083 52.0359 64.0469 52.0359C51.9856 52.0359 50.4617 48.4919 49.9635 45.2758C49.4948 42.2508 49.0246 34.854 49.0246 34.854Z" fill="#FFF9BA"/>
</svg>
