<svg xmlns="http://www.w3.org/2000/svg" xmlns:xlink="http://www.w3.org/1999/xlink" width="32" height="32" viewBox="0 0 32 32" fill="none"><defs><rect id="path_0" x="0" y="0" width="22" height="22" /></defs><g opacity="1" transform="translate(0 0)  rotate(0 16 16)"><path id="矩形 1" fill-rule="evenodd" transform="translate(0 0)  rotate(0 16 16)" opacity="1" d="M0,32L32,32L32,0L0,0L0,32Z " /><g opacity="1" transform="translate(5 5)  rotate(0 11 11)"><mask id="bg-mask-0" fill="white"><use xlink:href="#path_0"></use></mask><g mask="url(#bg-mask-0)" ><path id="路径 1" fill-rule="evenodd" style="fill:#F5F5F5" transform="translate(0.02134702539064098 0)  rotate(0 10.978652974609377 10.997488583984378)" opacity="1" d="M10.98,0C4.91,0 0,4.92 0,11C0,17.08 4.91,21.99 10.97,21.99C17.04,21.99 21.96,17.08 21.96,11C21.96,4.92 17.04,0 10.98,0Z " /><path id="路径 2" fill-rule="evenodd" style="fill:#C6E2FF" transform="translate(0.02134702539064098 0.38795140553474206)  rotate(0 10.978652974609377 10.806024297232632)" opacity="1" d="M7.52,0.17C3.15,1.63 0,5.75 0,10.61C0,16.69 4.91,21.61 10.98,21.61C17.04,21.61 21.96,16.68 21.96,10.61C21.96,9.61 21.82,8.64 21.57,7.72C20.72,7.89 19.75,7.91 18.99,7.15C17.3,5.45 14.73,-0.02 9.21,0C8.68,0.01 8.11,0.06 7.52,0.17Z " /><path id="路径 3" fill-rule="evenodd" style="fill:#98C3FF" transform="translate(0.02134702539064098 2.157305927734374)  rotate(0 10.978652974609377 9.91883562011719)" opacity="1" d="M2.93,1.36C1.11,3.32 0,5.95 0,8.84C0,14.91 4.91,19.84 10.98,19.84C17.04,19.84 21.96,14.91 21.96,8.84C21.96,8.75 21.95,8.67 21.95,8.58C20.55,9.73 18.12,9.68 16.7,8.23C14.06,5.45 12.61,1.18 8.42,0.12C8.04,0.04 7.64,0 7.21,0C5.8,0.01 4.19,0.46 2.93,1.36Z " /><path id="路径 4" fill-rule="evenodd" style="fill:#4F8EF5" transform="translate(0.02134702539064098 6.40913242578126)  rotate(0 10.846175806640625 7.79292237109375)" opacity="1" d="M0.02,3.94C0.01,4.15 0,4.37 0,4.59C0,10.66 4.91,15.59 10.98,15.59C16.22,15.59 20.6,11.91 21.69,7C20.1,9.72 16.7,10.47 13.43,7.7C9.52,3.95 9.37,0.17 4.7,0C2.18,0 0.46,1.54 0.02,3.94Z " /><path id="路径 5" fill-rule="evenodd" style="fill:#2D65DC" transform="translate(0.9636806480865648 11.953275432896996)  rotate(0 9.34721218962858 5.023362283551502)" opacity="1" d="M0,3.5C1.71,7.35 5.55,10.05 10.04,10.05C13.56,10.05 16.69,8.39 18.69,5.81C16.73,7.41 12.73,8.3 9.01,5.32C6.27,2.78 5.31,-0.06 2.44,0C1.02,0.1 -0.05,1.33 0,3.5Z " /></g></g></g></svg>