<svg xmlns="http://www.w3.org/2000/svg" xmlns:xlink="http://www.w3.org/1999/xlink" width="32" height="32" viewBox="0 0 32 32" fill="none"><g opacity="1" transform="translate(0 0)  rotate(0 16.000000000000004 15.999999999999998)"><path id="矩形 1" fill-rule="evenodd" transform="translate(0 0)  rotate(0 16.000000000000004 15.999999999999998)" opacity="1" d="M0,32L32,32L32,0L0,0L0,32Z " /><g opacity="1" transform="translate(7 5.421467933476151)  rotate(0 9 10.578532066523799)"><path id="路径 1" fill-rule="evenodd" style="fill:#FFFFFF" transform="translate(10.936867244537021 1.6056993295296338)  rotate(0 3.5315663777315103 9.775682401759045)" opacity="1" d="M3.75,0.02C4.97,2.25 5.01,4.55 4.29,6.91C3.6,9.18 2.32,11.11 0.83,12.91C-0.15,14.1 -0.26,15.25 0.49,16.61C1.1,17.72 2.06,18.53 2.93,19.55C5.26,15.54 7.1,11.51 7.06,6.86C7.04,4.45 6.29,2.3 4.62,0.51C4.4,0.28 4.23,-0.09 3.75,0.02Z " /><path id="路径 2" fill-rule="evenodd" style="fill:#FFFFFF" transform="translate(5.281399466461191 0.3270281149719438)  rotate(0 4.753744609587434 8.344715304300673)" opacity="1" d="M7.68,10.41C8.52,9.11 9.22,7.74 9.36,6.16C9.54,5.41 9.57,4.65 9.37,3.89C9.25,2.45 8.56,1.27 7.62,0C7.71,0.61 7.8,1.03 7.82,1.45C7.96,3.83 6.89,5.71 5.33,7.38C4.2,8.57 2.86,9.49 1.47,10.35C0.25,11.1 -0.21,12.24 0.09,13.64C0.29,14.58 0.78,15.42 1.09,16.33C1.25,16.79 1.4,16.77 1.75,16.5C4.04,14.78 6.12,12.84 7.68,10.41Z " /><path id="路径 3" fill-rule="evenodd" style="fill:#FFFFFF" transform="translate(0 0)  rotate(0 6.095332295722546 5.697949970957249)" opacity="1" d="M11.87,0C11.07,1.77 9.77,2.76 8.29,3.55C6.48,4.53 4.51,5.03 2.5,5.42C0.96,5.72 -0.01,6.83 0,8.42C0,9.23 0.21,10.03 0.26,10.84C0.29,11.44 0.5,11.48 1.01,11.3C3.27,10.52 5.46,9.59 7.49,8.31C8.95,7.38 10.3,6.32 11.26,4.86C12.2,3.41 12.47,1.88 11.87,0Z " /></g></g></svg>