<svg width="128" height="128" viewBox="0 0 128 128" fill="none" xmlns="http://www.w3.org/2000/svg">
<path d="M22.4971 87.8562C19.6447 66.0563 29.641 57.0126 31.49 55.7229C38.2493 55.7229 44.4409 32.1692 31.49 28.1632C30.0012 27.7026 24.0451 16.8836 33.1633 12.1302C42.2814 7.37684 46.3758 15.7227 48.9879 16.8837C54.986 22.0111 67.7923 20.6146 70.6313 16.8837C72.1054 15.5173 77.1495 7.40593 86.1232 12.7725C95.0968 18.1391 87.6564 27.6725 87.1034 29.339C69.6082 35.253 85.428 53.3783 87.6564 54.913C91.5301 56.5322 99.6079 68.9594 97.3055 88.1226C112.629 90.2391 112.629 113.436 92.6491 113.436C87.4386 113.436 86.9273 112.726 83.6466 111.321C81.095 113.415 75.1311 113.436 72.8967 112.856C69.623 112.007 67.7031 109.991 65.8914 107.784C64.1703 105.686 56.2967 105.625 53.9946 107.784C52.8281 108.877 48.7338 112.382 45.6004 112.856C42.9558 113.256 38.2932 113.521 36.4815 111.321C33.1593 113.459 25.264 113.33 20.9351 112.305C10.6124 109.86 8.43925 92.7458 22.4971 87.8562Z" fill="#595859"/>
<path fill-rule="evenodd" clip-rule="evenodd" d="M58.1307 13.9044C67.9698 13.9044 75.4822 19.1075 78.9629 21.8921C79.5568 22.3673 80.6321 22.4275 81.8329 22.4949C84.5039 22.6446 87.7964 22.8291 87.7964 27.6919C87.7964 33.9958 104.75 34.2947 111.398 25.4639C112.93 28.4574 112.819 28.5719 112.708 28.6865C112.597 28.801 112.486 28.9155 114.018 31.909C113.234 32.6928 112.469 33.5225 111.695 34.3605C106.756 39.7111 101.502 45.4036 89.3133 41.7006C90.408 53.8716 81.9074 66.6843 74.0848 69.7389C77.8029 76.1424 78.2686 90.514 71.557 96.1294C65.0504 101.573 65.1467 103.432 65.2823 106.05C65.3027 106.442 65.3239 106.852 65.3239 107.293C62.7434 106.182 57.8876 105.477 54.0703 107.711C54.9813 105.195 54.9442 101.453 52.365 99.8124C47.4307 96.6742 38.4796 87.4424 45.6014 70.6552C26.6326 60.7396 28.9491 37.9009 32.5944 29.2231C29.7018 25.4073 34.368 22.6978 38.5075 22.6978C39.0735 22.2873 39.6852 21.8066 40.3485 21.2854C44.1839 18.2718 49.7424 13.9044 58.1307 13.9044ZM49.6673 46.5424C57.837 42.5661 54.2012 38.5424 50.0412 36.6776C42.6127 33.3476 42.4053 38.54 42.2621 42.3165C42.0898 46.8623 42.3961 50.0814 49.6673 46.5424ZM69.6019 46.536C61.4524 42.5184 65.1085 38.5131 69.2779 36.6694C76.7231 33.377 76.9043 38.5704 77.0283 42.3475C77.1776 46.8941 76.8551 50.1117 69.6019 46.536ZM61.3255 54.8796C60.5266 56.0194 58.8367 56.0148 58.0439 54.8708L54.9315 50.3796C54.5639 49.8491 54.9436 49.1239 55.5891 49.1239H63.8222C64.4697 49.1239 64.8489 49.853 64.4773 50.3831L61.3255 54.8796Z" fill="white"/>
<path d="M38.5855 25.8147C32.7573 26.6217 33.0847 28.4959 32.8635 29.6845C32.5459 31.3915 31.5074 35.2047 32.3329 35.2047C33.1415 35.2047 36.1193 33.6593 39.5535 33.3709C43.5725 33.0333 51.2914 32.4067 60.3511 32.4067C69.4108 32.4067 79.1806 32.651 82.0027 33.6701C91.1276 36.9652 93.6011 31.3221 99.5984 31.5233C106.898 31.7683 109.75 39.0951 111.657 42.4908C115.017 42.2792 115.389 42.3214 118.276 42.4059C114.074 31.8435 103.702 23.7699 94.5184 27.666C92.8922 28.3559 86.8423 29.6399 86.2752 28.383C85.5406 26.7549 83.8289 26.399 80.8635 25.7823L80.7609 25.761C77.7323 25.131 68.2035 23.9334 60.3511 23.9334C54.093 23.9334 43.733 25.102 38.5855 25.8147Z" fill="#F59301"/>
<path d="M107.418 38.6631C103.664 35.8539 106.982 38.3892 103.664 35.8539C100.977 38.6404 96.0525 38.6404 93.6348 35.8539C92.7841 38.2101 88.7995 37.8967 88.7995 37.8967L89.3052 41.7873C89.3052 41.7873 101.86 45.9783 107.418 38.6631Z" fill="#F59301"/>
<path d="M114.008 31.9141L109.831 27.2056L112.3 24.3409C112.3 24.3409 116.731 25.7164 121.267 24.2187L114.008 31.9141Z" fill="#F59301"/>
</svg>
