<svg width="128" height="128" viewBox="0 0 128 128" fill="none" xmlns="http://www.w3.org/2000/svg">
<path fill-rule="evenodd" clip-rule="evenodd" d="M68 20.3094C65.5248 18.8803 62.4752 18.8803 60 20.3094L27.2968 39.1906C24.8216 40.6197 23.2968 43.2607 23.2968 46.1188V83.8812C23.2968 86.7393 24.8216 89.3803 27.2968 90.8094L60 109.691C62.4752 111.12 65.5248 111.12 68 109.691L82.4384 101.355L73.0028 86.2543C70.2227 87.3801 67.1838 88 64 88C50.7452 88 40 77.2548 40 64C40 50.7452 50.7452 40 64 40C77.2548 40 88 50.7452 88 64C88 72.2814 83.8056 79.5831 77.4254 83.8966L86.7712 98.8531L100.703 90.8094C103.178 89.3803 104.703 86.7393 104.703 83.8812V46.1188C104.703 43.2607 103.178 40.6197 100.703 39.1906L68 20.3094ZM83 64C83 74.4934 74.4934 83 64 83C53.5066 83 45 74.4934 45 64C45 53.5066 53.5066 45 64 45C74.4934 45 83 53.5066 83 64Z" fill="#60BC44"/>
</svg>
