<svg xmlns="http://www.w3.org/2000/svg" xmlns:xlink="http://www.w3.org/1999/xlink" width="128" height="128" viewBox="0 0 128 128" fill="none"><defs><rect id="path_0" x="0" y="0" width="128" height="128" /></defs><g opacity="1" transform="translate(0 0)  rotate(0 64 64)"><mask id="bg-mask-0" fill="white"><use xlink:href="#path_0"></use></mask><g mask="url(#bg-mask-0)" ><path id="路径 4" fill-rule="evenodd" style="fill:#FFFFFF" transform="translate(20.41599999999994 40.81856482558351)  rotate(0 42.198357914605104 19.398649833783885)" opacity="1" d="M0,23.17C0,27.22 1.61,31.1 4.47,33.97C7.34,36.83 11.22,38.44 15.27,38.44L29.64,38.44C30.01,38.42 30.37,38.26 30.64,37.99C30.9,37.73 31.06,37.37 31.09,36.99L31.09,8.7C31.07,7.96 31.3,7.24 31.75,6.65C32.19,6.06 32.81,5.63 33.52,5.43C34.76,5.1 36.5,5.44 37.66,7.42C37.72,7.51 41.25,13.59 46.62,22.86C50.84,30.13 55.21,37.66 55.29,37.79C55.74,38.56 56.36,38.92 56.95,38.76C57.19,38.69 57.4,38.54 57.55,38.33C57.7,38.12 57.77,37.87 57.75,37.62L57.75,8.72C57.74,7.98 57.97,7.26 58.41,6.67C58.85,6.08 59.47,5.65 60.18,5.45C61.41,5.11 63.15,5.46 64.31,7.43L72.61,21.72C77.13,29.54 81.84,37.64 81.93,37.79C82.38,38.56 83,38.92 83.59,38.76C83.83,38.69 84.04,38.54 84.19,38.33C84.34,38.12 84.41,37.87 84.4,37.62L84.4,0.17L78.86,0.17L78.86,22.48C78.86,22.48 69.61,6.55 69.18,5.83C63.31,-4.15 52.22,-0.03 52.22,8.56L52.22,22.48C52.22,22.48 42.97,6.55 42.54,5.83C36.67,-4.15 25.57,-0.03 25.57,8.56L25.57,31.37C25.58,31.58 25.54,31.78 25.46,31.96C25.39,32.15 25.28,32.32 25.14,32.47C24.99,32.61 24.82,32.72 24.64,32.8C24.45,32.88 24.25,32.92 24.05,32.91L15.34,32.91C12.75,32.91 10.27,31.89 8.44,30.06C6.62,28.23 5.59,25.75 5.59,23.17C5.59,20.58 6.62,18.1 8.44,16.27C10.27,14.44 12.75,13.42 15.34,13.42L22.74,13.42L22.74,7.89L15.27,7.89C11.22,7.89 7.34,9.5 4.47,12.36C1.61,15.23 0,19.11 0,23.17Z " /><path id="路径 5" fill-rule="evenodd" style="fill:#FFFFFF" transform="translate(12.693299999999908 40.99200000000019)  rotate(0 49.92785000000001 23.092592166009094)" opacity="1" d="M56.23,40.36C62.1,50.34 73.19,46.21 73.19,37.63L73.19,23.71C73.19,23.71 82.45,39.64 82.87,40.36C88.74,50.34 99.84,46.21 99.84,37.63L99.86,0L94.34,0L94.34,37.45C94.36,38.19 94.13,38.92 93.68,39.52C93.24,40.11 92.6,40.54 91.88,40.74C91.6,40.81 91.31,40.85 91.02,40.85C89.92,40.85 88.65,40.3 87.74,38.76L78.41,22.68L70.11,8.38C69.66,7.61 69.05,7.25 68.47,7.41C68.23,7.48 68.02,7.63 67.87,7.84C67.73,8.05 67.66,8.3 67.67,8.55L67.67,37.45C67.69,38.18 67.46,38.9 67.03,39.5C66.59,40.09 65.96,40.52 65.25,40.72C64.01,41.06 62.27,40.71 61.1,38.74C61.06,38.68 57.64,32.78 52.44,23.81L43.48,8.38C43.03,7.61 42.41,7.25 41.82,7.41C41.58,7.48 41.37,7.63 41.22,7.84C41.08,8.04 41.01,8.29 41.02,8.54L41.02,36.84C41,37.8 40.61,38.72 39.92,39.4C39.24,40.08 38.32,40.47 37.36,40.49L23.01,40.49C20.71,40.49 18.44,40.04 16.32,39.16C14.2,38.28 12.27,36.99 10.65,35.37C9.02,33.75 7.73,31.82 6.86,29.7C5.98,27.58 5.53,25.3 5.53,23.01C5.53,20.71 5.98,18.44 6.86,16.32C7.73,14.2 9.02,12.27 10.65,10.65C12.27,9.02 14.2,7.73 16.32,6.86C18.44,5.98 20.71,5.53 23.01,5.53L30.47,5.53L30.47,0L23.01,0C16.91,0 11.05,2.42 6.74,6.74C2.42,11.05 0,16.91 0,23.01C0,29.11 2.42,34.96 6.74,39.28C11.05,43.59 16.91,46.02 23.01,46.02L37.49,46.02C43.02,46.02 46.55,42.79 46.55,36.83L46.55,23.71C46.55,23.71 55.8,39.64 56.23,40.36Z " /></g></g></svg>