<svg xmlns="http://www.w3.org/2000/svg" xmlns:xlink="http://www.w3.org/1999/xlink" width="1024" height="1024" viewBox="0 0 1024 1024" fill="none"><defs><rect id="path_0" x="0" y="0" width="1024" height="1024" /></defs><g opacity="1" transform="translate(0 0)  rotate(0 512 512)"><mask id="bg-mask-0" fill="white"><use xlink:href="#path_0"></use></mask><g mask="url(#bg-mask-0)" ><g opacity="1" transform="translate(-7 -10)  rotate(0 519 520.5)"><path id="svg_1" fill-rule="evenodd" style="fill:#409EFF" transform="translate(200.54999000000004 158.68554999999998)  rotate(0 318.44999 363.31443624999997)" opacity="1" d="M10.31 568.933C18.52 575.133 272.11 723.553 272.11 723.553C280.32 727.653 288.61 727.653 296.83 723.553C313.34 715.333 556.61 575.133 556.61 575.133C556.61 575.133 571.03 568.933 571.03 542.113C571.03 515.303 571.03 255.593 571.11 259.623C573.2 243.113 564.91 228.703 550.49 222.503C525.69 208.083 301.02 78.193 301.02 78.193C290.71 74.083 280.4 74.083 270.09 78.193L16.51 224.593C16.51 224.593 0 232.893 0 247.303L0 552.423C2.09 558.623 6.2 564.823 10.31 568.933Z M292.725 352.474L469.965 249.394C418.425 220.564 294.735 148.414 294.735 148.414C288.535 144.304 278.225 144.304 270.015 148.414L70.0552 263.814C70.0552 263.814 55.6452 272.024 55.6452 282.334L55.6452 521.504C55.6452 525.614 59.7552 531.814 61.8452 535.914C68.0452 540.024 267.995 655.504 267.995 655.504C274.195 659.614 282.415 659.614 288.615 655.504C301.015 649.304 490.665 538.014 490.665 538.014C490.665 538.014 500.965 533.904 500.965 513.284L500.965 453.534L278.305 589.634L278.305 538.094C278.305 523.674 284.505 513.374 294.815 500.964L494.765 381.304C498.875 375.104 502.985 364.794 502.985 356.584L502.985 302.944L278.305 439.044L278.305 383.394C278.305 370.994 282.415 358.674 292.725 352.474Z M585.363 136.01L585.363 90.68L636.903 90.68L634.883 59.75C634.883 55.65 630.783 53.55 628.683 53.55L581.253 53.55L581.253 4.11C581.253 0 577.143 0 573.043 0L548.323 4.11C544.213 4.11 544.213 6.2 544.213 8.21L544.213 53.55L498.873 53.55C494.763 53.55 494.763 57.66 492.673 57.66L492.673 88.58L548.323 88.58L548.323 140.12C548.323 144.23 552.423 144.23 556.533 144.23L581.253 140.12C585.363 140.12 585.363 138.03 585.363 136.01Z " /></g></g></g></svg>