<svg xmlns="http://www.w3.org/2000/svg" xmlns:xlink="http://www.w3.org/1999/xlink" width="32" height="32" viewBox="0 0 32 32" fill="none"><g opacity="1" transform="translate(0 0)  rotate(0 16 15.999999999999998)"><path id="矩形 1" fill-rule="evenodd" transform="translate(0 0)  rotate(0 16 15.999999999999998)" opacity="1" d="M0,32L32,32L32,0L0,0L0,32Z " /><path id="路径 2" fill-rule="evenodd" style="fill:#FFFFFF" transform="translate(11.174994091650206 6)  rotate(0 4.825005908349956 10)" opacity="1" d="M5.94,4.28C5.94,3.47 6.66,3.19 7.47,3.19C8.27,3.19 9.13,3.44 9.13,3.44L9.65,0.37C9.65,0.37 8.55,0 5.94,0C4.34,0 3.41,0.61 2.73,1.51C2.09,2.35 2.07,3.72 2.07,4.6L2.07,6.61L0,6.61L0,9.61L2.07,9.61L2.07,20L5.94,20L5.94,9.61L9.01,9.61L9.24,6.61L5.94,6.61L5.94,4.28Z " /></g></svg>