<svg xmlns="http://www.w3.org/2000/svg" xmlns:xlink="http://www.w3.org/1999/xlink" width="32" height="32" viewBox="0 0 32 32" fill="none"><g opacity="1" transform="translate(0 0)  rotate(0 16 15.999999999999998)"><path id="矩形 1" fill-rule="evenodd"  transform="translate(0 0)  rotate(0 16 15.999999999999998)" opacity="1" d="M0,32L32,32L32,0L0,0L0,32Z " /><path id="分组 2" fill-rule="evenodd" style="fill:#EE5528" transform="translate(0 0.000012067378065694356)  rotate(0 15.9999223827658 15.999593625293436)" opacity="1" d="M20.0981 6.73L22.6881 5.26L25.2681 6.73L25.2681 0L20.0981 0L20.0981 6.73Z M25.16 31.9974C26.98 32.0074 28.72 31.2874 30 29.9974C31.28 28.7174 32 26.9774 32 25.1674L32 18.6274C28.35 14.2474 22.58 11.4374 16.04 11.4374L16.04 11.4374C9.48 11.4374 3.65 14.2974 0 18.7074L0 25.1674C0 26.9774 0.72 28.7174 2 29.9974C3.28 31.2874 5.02 32.0074 6.84 31.9974L25.16 31.9974Z M11.1071 25.9281C11.1071 25.9281 9.66713 24.9181 8.46712 24.9181C7.26713 24.9181 6.72713 25.3781 6.72713 25.9581C6.72713 26.5281 7.29713 26.9581 8.49713 26.9581C9.69713 26.9581 11.1071 25.9281 11.1071 25.9281Z M12.0659 22.8998C12.0659 22.8998 11.7959 21.1898 10.9259 20.3398C10.0459 19.4698 9.34585 19.4198 8.93585 19.8298C8.52585 20.2298 8.60585 20.9398 9.47585 21.7898C10.3259 22.6298 12.0659 22.8998 12.0659 22.8998Z M17.0187 18.5434C17.0187 17.3435 16.5587 16.8034 15.9887 16.8034C15.4187 16.8034 14.9787 17.3734 14.9787 18.5735C15.0087 19.8034 16.0387 21.1834 16.0387 21.1834C16.0387 21.1834 17.0487 19.7734 17.0187 18.5434Z M19.962 22.8524C19.962 22.8524 19.962 22.8524 19.962 22.8524Z M19.962 22.8524C19.962 22.8524 21.682 22.6024 22.552 21.7624C23.422 20.9123 23.502 20.2023 23.092 19.8023C22.682 19.4223 21.982 19.4723 21.102 20.3123C20.232 21.1623 19.962 22.8524 19.962 22.8524Z M23.4975 26.9609C24.6975 26.9609 25.2775 26.5209 25.2775 25.9309C25.2975 25.3809 24.7275 24.8909 23.5275 24.8909C22.3075 24.8909 20.8875 25.9009 20.8875 25.9009C20.8875 25.9009 22.3075 26.9609 23.4975 26.9609L23.4975 26.9609Z M19.962 22.8524C19.962 22.8524 19.962 22.8524 19.962 22.8524 " /></g></svg>