<svg width="128" height="128" viewBox="0 0 128 128" fill="none" xmlns="http://www.w3.org/2000/svg">
<path fill-rule="evenodd" clip-rule="evenodd" d="M45.1645 90.8633C42.1943 87.2563 40.8714 83.0472 40.8714 80.6702H45.8714C45.8714 81.7023 46.6642 84.8188 49.0243 87.685C51.2733 90.4162 54.8668 92.8213 60.4614 92.8213C66.2192 92.8213 70.6715 90.6267 73.6845 88.0023C75.1979 86.684 76.3254 85.276 77.0599 84.0213C77.8293 82.7069 78.0477 81.7708 78.0477 81.3697H83.0477C83.0477 83.0244 82.3626 84.8602 81.3749 86.5473C80.3525 88.2939 78.8693 90.1168 76.9685 91.7725C73.153 95.096 67.5622 97.8213 60.4614 97.8213C53.1974 97.8213 48.246 94.6055 45.1645 90.8633Z" fill="url(#paint0_linear_381_141)"/>
<path d="M68.4519 59.8333C68.4519 72.8119 57.9306 83.3333 44.9519 83.3333C31.9732 83.3333 21.4519 72.8119 21.4519 59.8333C21.4519 46.8546 31.9732 36.3333 44.9519 36.3333C57.9306 36.3333 68.4519 46.8546 68.4519 59.8333Z" fill="#B34FFD"/>
<path fill-rule="evenodd" clip-rule="evenodd" d="M62.4767 76.0583C66.5037 71.8402 68.9767 66.1255 68.9767 59.8333C68.9767 53.541 66.5037 47.8264 62.4767 43.6082C66.756 39.1258 72.7902 36.3333 79.4767 36.3333C92.4553 36.3333 102.977 46.8546 102.977 59.8333C102.977 72.812 92.4553 83.3333 79.4767 83.3333C72.7902 83.3333 66.756 80.5407 62.4767 76.0583Z" fill="#404040"/>
<path d="M45.2474 52.7973V54.1773H52.8874V52.7973H45.2474ZM45.2874 50.2773C44.7474 52.5773 43.8674 54.8973 42.6674 56.4173C42.9874 56.6573 43.4874 57.1773 43.6874 57.4173C44.9674 55.7373 45.9874 53.1573 46.6474 50.5573L45.2874 50.2773ZM39.8674 51.8973C40.8874 52.4773 42.1074 53.3773 42.7274 53.9773L43.5274 52.9373C42.9074 52.3373 41.6474 51.4973 40.6474 50.9573L39.8674 51.8973ZM39.5274 57.2173C40.5474 57.7173 41.8074 58.4773 42.4274 59.0173L43.2074 57.9173C42.5674 57.3773 41.2874 56.6573 40.2674 56.2373L39.5274 57.2173ZM39.0274 67.9173L40.3274 68.6373C41.0874 66.7773 42.0074 64.2573 42.6874 62.1573L41.5074 61.4173C40.8074 63.6973 39.7674 66.3173 39.0274 67.9173ZM45.6874 55.9573V57.2173H51.5474V55.9573H45.6874ZM42.8674 60.1373V61.4573H53.0274V60.1373H42.8674ZM44.5874 64.5973V65.8773H52.7074V64.5973H44.5874ZM45.0474 55.9573C44.7274 59.0573 44.0874 63.3573 43.5674 65.8773H44.9274C45.3874 63.4373 45.9874 59.1373 46.3674 55.9573H45.0474ZM50.9274 55.9573V56.2573C50.6674 63.7373 50.3274 66.4173 49.8074 67.0373C49.6074 67.2773 49.4074 67.3173 49.0674 67.3173C48.7074 67.3173 47.7874 67.2973 46.8074 67.2173C47.0074 67.5773 47.1474 68.1173 47.1874 68.4973C48.1274 68.5373 49.0674 68.5573 49.5874 68.5173C50.1874 68.4573 50.5674 68.2973 50.9274 67.8173C51.6074 66.9973 51.9074 64.3773 52.2274 56.6373C52.2274 56.4573 52.2274 55.9573 52.2274 55.9573H50.9274ZM46.7874 57.9573C47.6874 58.5773 48.7274 59.4973 49.2074 60.1573L49.9874 59.3573C49.4874 58.7173 48.4474 57.8373 47.5674 57.2573L46.7874 57.9573ZM46.3674 62.3173C47.2474 62.9373 48.2874 63.8773 48.7874 64.5173L49.5674 63.7373C49.0874 63.0973 48.0274 62.2173 47.1274 61.6173L46.3674 62.3173ZM35.9074 52.1973V53.5773H38.2074V61.9773H35.9074V63.3773H39.4074V52.1973H35.9074ZM35.2474 52.1973V65.3373H36.4474V52.1973H35.2474Z" fill="white"/>
<path d="M82.5683 66.5303H80.8105V60.0655C80.8105 59.3754 80.6477 58.7895 80.3222 58.3077C80.0618 57.9431 79.6386 57.7608 79.0527 57.7608C78.5319 57.7608 78.0631 58.0082 77.6464 58.503C77.2298 58.9848 76.9238 59.7074 76.7285 60.671C76.6764 60.9053 76.6373 61.1397 76.6113 61.3741C76.5852 61.6085 76.5722 61.8559 76.5722 62.1163V66.5303H74.8339V52.2725H76.5722V57.7218C76.7024 57.5264 76.9173 57.2725 77.2168 56.96C77.8287 56.4652 78.4863 56.2178 79.1894 56.2178C80.2311 56.2178 81.0449 56.5043 81.6308 57.0772C82.2558 57.6892 82.5683 58.5941 82.5683 59.7921V66.5303Z" fill="white"/>
<path d="M86.8457 54.46H84.7558V52.2725H86.8457V54.46ZM86.7285 66.5303H84.9121V56.4522H86.7285V66.5303Z" fill="white"/>
<defs>
<linearGradient id="paint0_linear_381_141" x1="30.511" y1="71.0853" x2="88.6525" y2="71.0853" gradientUnits="userSpaceOnUse">
<stop stop-color="#A63FFE"/>
<stop offset="1" stop-color="#545454"/>
</linearGradient>
</defs>
</svg>
