<svg width="128" height="128" viewBox="0 0 128 128" fill="none" xmlns="http://www.w3.org/2000/svg">
<path fill-rule="evenodd" clip-rule="evenodd" d="M93.6477 66.7515V72.4229H103.601C103.864 70.5702 104 68.6767 104 66.7515C104 44.6601 86.0914 26.7515 64 26.7515C41.9086 26.7515 24 44.6601 24 66.7515C24 68.6767 24.136 70.5702 24.399 72.4229H34.2147V66.7515H29.9005C29.9005 47.9188 45.1674 32.6519 64 32.6519C82.8327 32.6519 98.0995 47.9188 98.0995 66.7515H93.6477ZM92.9607 66.7637C92.9607 66.7596 92.9607 66.7555 92.9607 66.7514C92.9607 50.7569 79.9945 37.7907 64 37.7907V43.6912C76.7358 43.6912 87.0602 54.0156 87.0602 66.7514C87.0602 66.7555 87.0602 66.7596 87.0602 66.7637H92.9607ZM80.6174 66.7637C80.6174 66.7596 80.6174 66.7556 80.6174 66.7515C80.6174 57.5739 73.1775 50.134 64 50.134V56.0345C69.9188 56.0345 74.717 60.8327 74.717 66.7515C74.717 66.7556 74.7169 66.7596 74.7169 66.7637H80.6174Z" fill="#E50913"/>
<path d="M68.4254 68.4908C68.4254 70.9349 66.4441 72.9162 64 72.9162C61.5559 72.9162 59.5746 70.9349 59.5746 68.4908C59.5746 67.331 60.0208 66.2754 60.7509 65.4863C61.5593 64.6125 64 34.2951 64 34.2951C64 34.2951 66.4407 64.6125 67.2491 65.4863C67.9792 66.2754 68.4254 67.331 68.4254 68.4908Z" fill="black"/>
<path d="M32.0292 100.92H27.122V77.4046H40.592V81.4885H32.0292V87.5483H39.9992V91.6321H32.0292V100.92Z" fill="black"/>
<path d="M58.9461 100.92L57.2335 95.3207H48.6706L46.9581 100.92H41.5898L49.8892 77.3058H55.982L64.3143 100.92H58.9461ZM54.3353 85.6711C54.2255 85.2978 54.0828 84.8258 53.9071 84.2549C53.7315 83.6841 53.5559 83.1022 53.3802 82.5094C53.2046 81.9166 53.0618 81.4006 52.9521 80.9615C52.8423 81.4006 52.6886 81.9495 52.491 82.6082C52.3153 83.2449 52.1397 83.8597 51.964 84.4525C51.8104 85.0234 51.6896 85.4296 51.6018 85.6711L49.9221 91.1381H56.0479L54.3353 85.6711Z" fill="black"/>
<path d="M81.1577 94.3986C81.1577 95.7818 80.8174 96.9894 80.1368 98.0213C79.4561 99.0533 78.4681 99.8546 77.1727 100.426C75.8992 100.974 74.3404 101.249 72.4961 101.249C71.6837 101.249 70.8823 101.194 70.0919 101.084C69.3234 100.974 68.5769 100.821 67.8524 100.623C67.1498 100.404 66.4801 100.14 65.8434 99.8327V95.189C66.9632 95.672 68.1159 96.1221 69.3015 96.5393C70.5091 96.9345 71.7057 97.1321 72.8913 97.1321C73.7037 97.1321 74.3514 97.0223 74.8344 96.8028C75.3394 96.5832 75.7016 96.2868 75.9212 95.9135C76.1627 95.5403 76.2835 95.1122 76.2835 94.6291C76.2835 94.0363 76.0749 93.5313 75.6577 93.1142C75.2625 92.697 74.7246 92.3128 74.044 91.9615C73.3633 91.5882 72.5839 91.193 71.7057 90.7758C71.1568 90.5124 70.5639 90.205 69.9272 89.8537C69.2905 89.4804 68.6757 89.0303 68.0829 88.5034C67.5121 87.9545 67.04 87.2958 66.6668 86.5274C66.2935 85.7589 66.1069 84.8368 66.1069 83.7609C66.1069 82.3557 66.4252 81.1591 67.062 80.1711C67.7206 79.1611 68.6428 78.3927 69.8284 77.8657C71.036 77.3388 72.4522 77.0753 74.0769 77.0753C75.3064 77.0753 76.4701 77.218 77.5679 77.5035C78.6877 77.7889 79.8513 78.1951 81.0589 78.722L79.4451 82.6082C78.3693 82.1691 77.4032 81.8288 76.547 81.5873C75.6907 81.3457 74.8124 81.225 73.9122 81.225C73.2975 81.225 72.7705 81.3238 72.3314 81.5214C71.8923 81.719 71.552 81.9934 71.3104 82.3447C71.0909 82.696 70.9811 83.1132 70.9811 83.5962C70.9811 84.1451 71.1458 84.6172 71.4751 85.0124C71.8045 85.3856 72.2985 85.7479 72.9571 86.0992C73.6158 86.4505 74.4392 86.8677 75.4272 87.3507C76.6348 87.9216 77.6557 88.5144 78.4901 89.1291C79.3463 89.7439 80.005 90.4685 80.4661 91.3028C80.9272 92.1371 81.1577 93.1691 81.1577 94.3986Z" fill="black"/>
<path d="M94.4888 100.92H89.5157V81.5543H83.1265V77.4046H100.878V81.5543H94.4888V100.92Z" fill="black"/>
</svg>
