<svg width="100" height="100" viewBox="0 0 100 100" fill="none" xmlns="http://www.w3.org/2000/svg">
<path d="M27.5 27.187C27.5 20.898 32.5982 15.7998 38.8872 15.7998H50V38.5742H38.8872C32.5982 38.5742 27.5 33.476 27.5 27.187Z" fill="#F34E1E"/>
<path d="M27.5 49.9614C27.5 43.6724 32.5982 38.5742 38.8872 38.5742H50V61.3486H38.8872C32.5982 61.3486 27.5 56.2504 27.5 49.9614Z" fill="#A259FF"/>
<path d="M27.5 72.8048C27.5 66.5158 32.5982 61.3486 38.8872 61.3486H50V72.873C50 79.0862 44.9632 84.123 38.75 84.123C32.5368 84.123 27.5 79.018 27.5 72.8048Z" fill="#0ACE82"/>
<path d="M50 15.7998H61.1128C67.4018 15.7998 72.5 20.898 72.5 27.187C72.5 33.476 67.4018 38.5742 61.1128 38.5742H50V15.7998Z" fill="#FF7261"/>
<path d="M50 49.8242C50 43.611 55.0368 38.5742 61.25 38.5742C67.4632 38.5742 72.5 43.611 72.5 49.8242V50.0986C72.5 56.3118 67.4632 61.3486 61.25 61.3486C55.0368 61.3486 50 56.3118 50 50.0986V49.8242Z" fill="#1BBCF8"/>
</svg>
