<svg width="128" height="128" viewBox="0 0 128 128" fill="none" xmlns="http://www.w3.org/2000/svg">
<g clip-path="url(#clip0_301_144)">
 
<path fill-rule="evenodd" clip-rule="evenodd" d="M133.562 35.9522L91.9333 69.255L80.4251 59.2479L56.8741 77.8924L40.596 70.7708L-2.34187 93.2156L-4.65814 88.7844L40.404 65.2292L56.1259 72.1076L80.5749 52.7521L92.0667 62.745L130.438 32.0478L133.562 35.9522Z" fill="white"/>
<path d="M81 -2H79V52.083C76.1623 52.559 74 55.027 74 58C74 60.973 76.1623 63.441 79 63.917V129H81V63.917C83.8377 63.441 86 60.973 86 58C86 55.027 83.8377 52.559 81 52.083V-2Z" fill="#FFED23"/>
<path d="M55.2414 44.7418C53.1433 44.3442 51.0985 44.7357 49.0624 45.2537C48.3331 45.4392 47.9187 45.7837 47.798 46.5487C47.717 47.0628 47.4886 47.553 47.3338 48.0562C46.837 49.671 46.344 51.287 45.8167 53.0096C46.69 53.0096 47.4236 52.9855 48.1545 53.0189C48.5721 53.0381 48.7505 52.903 48.8697 52.4923C49.3358 50.8882 49.8608 49.3011 50.3322 47.6984C50.4634 47.2525 50.6867 46.9568 51.1417 46.8819C51.6794 46.7934 52.2231 46.6724 52.7626 46.6803C53.4368 46.6902 53.713 47.0789 53.5528 47.7424C53.3488 48.5876 53.0918 49.4202 52.845 50.2546C52.5808 51.1477 52.3019 52.0365 52.0041 53.0102C52.9159 53.0102 53.7173 53.0304 54.516 52.9935C54.6805 52.9858 54.9301 52.7944 54.9799 52.637C55.5668 50.782 56.1588 48.927 56.6755 47.0517C57.0302 45.7645 56.5431 44.9884 55.2414 44.7418ZM39.0595 38.7601C39.4086 37.8405 39.8099 36.9391 40.2253 36.0473C40.3615 35.755 40.6172 35.5185 40.8184 35.2565C40.8974 35.2879 40.9762 35.3195 41.0551 35.351C41.0551 35.6388 41.0158 35.9342 41.0695 36.2116C41.1026 36.3823 41.2569 36.6242 41.3949 36.6532C41.5317 36.6821 41.7892 36.523 41.8668 36.3784C42.1261 35.8958 42.3158 35.3764 42.558 34.8838C42.6778 34.6402 42.821 34.3888 43.0152 34.2067C43.1801 34.0519 43.4337 33.9917 43.648 33.8896C43.7023 34.0978 43.7558 34.3061 43.811 34.514C43.9024 34.8585 43.9948 35.2025 44.0869 35.5468L43.811 34.514L44.4655 35.3157C44.6788 35.1897 44.887 35.0596 45.0403 34.8819C45.5023 34.347 45.8357 33.6982 46.3145 33.1818C46.6424 32.8279 47.0973 32.5503 47.5471 32.3624C47.9955 32.1752 48.2581 32.4553 48.1381 32.9351C48.0274 33.378 47.8077 33.7979 47.7328 34.2442C47.6815 34.5495 47.7961 34.8826 47.8365 35.2034C48.1606 35.1115 48.5535 35.105 48.795 34.9105C49.3632 34.4526 49.8561 33.9013 50.3873 33.3961C50.5021 33.287 50.639 33.1673 50.785 33.1319C51.1428 33.0453 51.5116 33.005 51.8762 32.946C51.8019 33.2831 51.7601 33.6317 51.6447 33.954C51.5143 34.3181 51.2817 34.6471 51.1651 35.0139C51.105 35.2029 51.1275 35.5581 51.2423 35.6295C51.413 35.7355 51.7422 35.7386 51.9272 35.6406C52.4509 35.3633 52.9194 34.982 53.4416 34.7011C53.777 34.5208 54.1618 34.3822 54.5375 34.3399C54.9689 34.2913 55.2157 34.5276 54.9555 34.9721C54.7255 35.365 54.4658 35.7482 54.169 36.0924C53.7956 36.5257 53.7336 36.954 53.9469 37.4842C54.8086 39.6248 54.4324 41.3919 52.4992 42.6689C49.0056 44.9766 45.1921 45.5444 41.2409 43.9676C38.8803 43.0254 38.1593 41.1316 39.0595 38.7601ZM41.8901 43.2253C42.9537 43.8925 44.1356 44.1098 45.3769 44.091C47.2835 44.0503 49.0603 43.6115 50.4962 42.2718C51.9726 40.8944 51.8053 39.0292 50.0489 38.0367C49.2949 37.6107 48.3928 37.3409 47.5292 37.2351C45.3077 36.9629 43.2239 37.4107 41.5041 38.9406C39.951 40.322 40.1325 42.1229 41.8901 43.2253ZM36.6147 46.6018C36.7381 46.4865 36.9406 46.4418 37.1162 46.3986C38.3818 46.0873 39.5742 46.3111 40.6889 46.9492C41.0864 47.1768 41.2962 47.1723 41.411 46.6739C41.5234 46.1861 41.7026 45.7138 41.8802 45.1457C40.3102 44.5309 38.7503 44.4756 37.17 44.6863C35.8919 44.8565 34.7139 45.2874 33.825 46.2687C32.8433 47.3523 32.6735 49.0512 34.7202 49.5781C35.4723 49.7717 36.2529 49.8551 37.003 50.0543C37.2615 50.123 37.4672 50.3904 37.6971 50.5672C37.4579 50.784 37.2422 51.1461 36.975 51.1892C36.307 51.297 35.5915 51.3815 34.9397 51.2517C34.0632 51.0772 33.2287 50.6924 32.2936 50.3693C32.102 50.9917 31.8918 51.6751 31.6751 52.3792C33.2877 53.1156 34.9185 53.1251 36.5348 52.9656C37.9673 52.8242 39.3337 52.381 40.2805 51.181C41.3705 49.7994 40.9383 48.5217 39.2543 48.0566C39.0562 48.002 38.8536 47.9628 38.652 47.9225C38.0026 47.7926 37.3479 47.685 36.7065 47.5237C36.5396 47.4817 36.2963 47.2744 36.2974 47.1446C36.2988 46.9595 36.4631 46.7434 36.6147 46.6018ZM42.9885 45.6815C42.234 49.5643 41.0779 53.4538 41.2457 57.5868C41.6959 57.2165 42.0784 56.8214 42.2706 56.349C43.681 52.8823 45.0533 49.4001 46.4554 45.8784C45.181 45.8061 44.141 45.7469 42.9885 45.6815ZM65.1305 44.7584C63.3018 44.4196 61.4775 44.5634 59.6644 44.902C59.5158 44.9298 59.3219 45.0673 59.2705 45.2006C59.0773 45.7023 58.9345 46.2234 58.7393 46.8433C59.0772 46.7548 59.2881 46.6654 59.5048 46.6486C60.6822 46.5571 61.8625 46.4055 63.0387 46.4301C63.8854 46.4477 64.1026 46.887 63.8684 47.6931C63.6193 48.5507 63.3633 49.4066 63.0885 50.2563C63.0216 50.463 62.9161 50.7209 62.7485 50.8207C61.9962 51.2681 61.1786 51.4549 60.3072 51.2271C59.8293 51.1023 59.6419 50.7286 59.8574 50.3361C60.0515 49.9827 60.3859 49.6349 60.744 49.4616C61.1616 49.2597 61.6824 49.2831 62.1379 49.1425C62.353 49.076 62.5889 48.8915 62.6933 48.6955C62.8497 48.402 62.8985 48.051 63.0169 47.6414C61.2428 47.7123 59.5416 47.8048 58.0949 48.8161C57.6171 49.1502 57.2293 49.7076 56.9732 50.2453C56.3727 51.5061 56.8781 52.5876 58.2463 52.8505C60.9088 53.3619 63.3351 52.7266 65.4806 51.068C65.6469 50.9394 65.7637 50.7063 65.832 50.4982C66.1675 49.4761 66.4974 48.4513 66.7942 47.4175C67.2321 45.8923 66.7084 45.0507 65.1305 44.7584ZM42.9128 40.5876C43.3427 39.241 44.9324 38.3467 46.3095 38.6767C47.2484 38.9016 47.8523 39.6958 47.8346 40.6819C47.8024 42.4663 45.6554 43.8553 44.0138 43.1538C43.0165 42.7276 42.5654 41.6759 42.9128 40.5876ZM43.8322 41.9019C43.8322 42.3584 44.2022 42.7285 44.6588 42.7285C45.1154 42.7285 45.4854 42.3585 45.4854 41.9019C45.4854 41.4453 45.1154 41.0753 44.6588 41.0753C44.2022 41.0753 43.8322 41.4454 43.8322 41.9019Z" fill="white"/>
</g>
<defs>
<clipPath id="clip0_301_144">
<rect width="128" height="128" fill="white"/>
</clipPath>
</defs>
</svg>
