<svg width="128" height="128" viewBox="0 0 128 128" fill="none" xmlns="http://www.w3.org/2000/svg">
<path d="M66.2073 45.9591C66.93 47.5091 67.3134 49.1378 67.3879 50.7731C71.7198 49.1485 78.4846 47.3729 83.0704 47.3728C89.3104 47.3726 97 50.2721 97 57.9618C97 64.9719 94.92 67.2902 91.5794 70.6308C90.8492 71.361 90.0899 72.0435 89.3442 72.7138C86.452 75.3134 83.7638 77.7297 83.7638 82.0391C83.7638 87.0185 92.6194 87.3652 96.0861 82.3858C96.6218 89.0985 91.1382 91.7457 85.9068 91.7457C77.94 91.7457 78.1092 85.7583 78.1631 83.8501C78.1667 83.7202 78.1699 83.6092 78.1699 83.5203C78.1699 79.2528 80.4583 75.7725 82.7364 72.3079C85.0849 68.7363 87.4224 65.1814 87.2304 60.7981C86.8928 53.0906 78.2198 49.6516 67.3963 51.7354C67.3575 53.1301 67.0983 54.5194 66.6375 55.8583C73.3549 56.6593 79.3123 60.5035 82.1874 66.6692C82.487 67.3116 82.7457 67.9634 82.9647 68.6221C81.7664 69.8962 80.5701 71.4529 79.5226 73.2057C79.5382 72.8491 79.5001 72.4652 79.4004 72.0559C79.3345 71.7854 79.0618 71.6194 78.7912 71.6853C78.5206 71.7512 78.3547 72.024 78.4206 72.2945C78.6808 73.3632 78.3896 74.0794 77.9012 74.5433C77.3865 75.0323 76.593 75.295 75.7903 75.295C74.9788 75.295 74.0664 75.0576 73.3891 74.4211C72.7261 73.7981 72.2129 72.7215 72.3229 70.8817C72.4223 69.2196 73.6391 68.1843 75.1698 67.7458C75.9315 67.5276 76.7425 67.4695 77.4676 67.5591C78.1996 67.6496 78.8006 67.8846 79.1819 68.2096C79.3938 68.3903 79.7121 68.365 79.8928 68.153C80.0734 67.9411 80.0481 67.6229 79.8362 67.4422C79.2564 66.9479 78.4448 66.6637 77.5913 66.5582C76.7308 66.4519 75.7834 66.521 74.8921 66.7763C73.4822 67.1802 72.1406 68.0815 71.5812 69.5574C71.6915 68.4078 71.5342 67.2688 71.3716 66.2934C71.3258 66.0187 71.066 65.8331 70.7913 65.8789C70.5166 65.9247 70.3311 66.1845 70.3769 66.4592C70.6295 67.9753 70.8066 69.6039 70.1907 71.0296C69.5917 72.4163 67.7471 73.9713 65.107 73.9713C63.8072 73.9713 62.7345 73.5257 61.9881 72.7828C61.2421 72.0402 60.7894 70.9681 60.7894 69.6538C60.7894 68.3495 61.2506 67.448 61.8794 66.8694C62.5176 66.2821 63.3609 65.9981 64.1616 65.9981C64.9351 65.9981 65.3135 66.2752 65.5094 66.5551C65.725 66.863 65.7769 67.2575 65.7412 67.5428C65.6995 67.8762 65.6066 68.1627 65.4104 68.3676C65.226 68.5604 64.8779 68.7556 64.1616 68.7556C63.8831 68.7556 63.6574 68.9814 63.6574 69.2599C63.6574 69.5383 63.8831 69.7641 64.1616 69.7641C65.0683 69.7641 65.7129 69.5103 66.1391 69.0648C66.5536 68.6316 66.689 68.0908 66.7419 67.6679C66.8008 67.1968 66.7268 66.5356 66.3356 65.9768C65.9249 65.3901 65.216 64.9896 64.1616 64.9896C63.1344 64.9896 62.0395 65.3516 61.1965 66.1273C60.344 66.9118 59.7809 68.0903 59.7809 69.6538C59.7809 71.2074 60.3209 72.5462 61.2766 73.4975C62.232 74.4485 63.5702 74.9798 65.107 74.9798C68.1399 74.9798 70.3541 73.1943 71.1165 71.4295C71.191 71.2571 71.2557 71.0829 71.3115 70.9076C71.209 72.9225 71.78 74.293 72.6985 75.1561C73.6158 76.018 74.8055 76.3034 75.7903 76.3034C76.6509 76.3034 77.5657 76.0631 78.28 75.5384C76.2964 79.7601 75.3526 84.7647 77.0525 89.6055C75.2726 91.2811 73.1787 92.7187 70.8108 93.8229C59.9059 98.9079 47.3189 94.9953 42.6971 85.0838C39.6805 78.6146 40.8027 71.1888 44.9782 65.3971C42.0875 64.1248 39.691 61.928 38.3106 58.9676C35.8881 53.7726 36.9793 47.2974 40.9981 43.276C42.6796 41.5934 40.9981 33.5692 35.7351 32.3717C42.9155 30.5883 47.1629 34.8806 49.406 37.1476C50.1755 37.9252 50.7091 38.4645 51.0444 38.4384C58.5519 37.855 63.6022 40.3725 66.2073 45.9591Z" fill="#FF832D"/>
<path d="M37.8635 74.8524C38.5056 74.553 39.158 74.3121 39.8136 74.1274C39.733 75.6113 39.7562 77.1438 39.8929 78.7064C39.9624 79.5007 40.0594 80.2823 40.1823 81.049C37.5764 82.6012 36.2241 85.1777 37.1242 87.1079C37.9039 88.78 40.1415 89.4689 42.5879 88.9743C43.3384 90.5646 44.2159 92.0043 45.1921 93.2572C39.8169 95.2113 33.9994 93.2621 31.828 88.6053C29.5141 83.6431 32.2163 77.4858 37.8635 74.8524Z" fill="#FF832D"/>
</svg>
