<svg width="128" height="128" viewBox="0 0 128 128" fill="none" xmlns="http://www.w3.org/2000/svg">
<path fill-rule="evenodd" clip-rule="evenodd" d="M62 30.5C66 30.5 67.0001 27 59.5 27C51.9999 27 52.5 30.5 57.5 30.5L56.9999 41C56.9497 41 56.8465 41.0113 56.7023 41.0272C55.8895 41.1166 53.7738 41.3493 52.4998 40.5C52.069 40.2128 51.5261 39.6722 50.9148 39.0633C49.1646 37.3202 46.8528 35.0178 44.9999 36.5C42.4916 38.5065 46.4992 40.6586 49.3022 42.1639C50.3103 42.7052 51.1625 43.1629 51.4998 43.5C52 44 52.9998 44.5 57 44.5C57 45.3471 57.0574 48.261 57.1333 52.1133L57.1335 52.12C57.2816 59.6364 57.5 70.721 57.5 77C57.5 77.8 57.74 78.52 58.028 79.3839C58.46 80.6799 59 82.3 58.9999 85C58.9998 87.5 58.9999 99.5 60.9999 101C62.9992 100 62.9997 83.0142 62.9999 78.0063V78C63 74.8516 65.023 74.9399 66.1573 74.9894C66.284 74.995 66.3996 75 66.5 75C68 75 69 75 69 70.5C69 68.0227 69.3031 67.0607 69.5755 66.1959C69.798 65.4898 70 64.8485 70 63.5C70 61.7426 69.6569 60.8431 69.3726 60.098C69.1716 59.5711 69 59.1213 69 58.5C69 58.114 69.0662 57.6287 69.139 57.0951C69.3491 55.5553 69.614 53.614 68.5 52.5C67.4479 51.4479 66.1302 51.1042 64.9567 50.7982C63.3417 50.377 62 50.0271 62 48C62 44.5 63 43.1333 64 43C71.5 42 73.9051 35.5 70 35.5C69.3283 35.5 68.2055 36.2895 67.0103 37.1299C64.6467 38.7919 62 40.6529 62 37V30.5ZM66.5 62.5C66 77 62 72 62 63C62 55.8 67.5 50 66.5 62.5Z" fill="white"/>
<path d="M45.9999 81C50.5 81 52.4822 71.9997 52.5 71.5C52.7533 64.408 52.5 63.7261 51.7252 63.7261C50.4848 63.7261 50.3476 65.6541 50.2165 67.4975C50.1652 68.218 50.1149 68.9255 50 69.5C49.6388 71.3061 48.2337 72.3293 46.3504 73.7008C45.6269 74.2277 44.8327 74.8061 44 75.5C42.2821 76.9316 41.2674 81 45.9999 81Z" fill="white"/>
<path d="M71 41.5C69.4999 42 74.6678 44.0547 75.4999 43.5C76.9326 42.5449 78.4793 42.1599 79.7044 41.855C81.0447 41.5214 82 41.2837 82 40.5C82 39.5 77.8558 37.1865 76.5 38C75.4529 38.6283 74.5812 39.2566 73.8114 39.8114C72.7434 40.5811 71.8717 41.2094 71 41.5Z" fill="white"/>
<path d="M83 57.5C83 57.0011 83.4107 56.1567 83.8816 55.1884C85.1634 52.5529 86.8913 49 82 49C75.3116 49 77.1055 51.0528 78 51.5C79 52 80 53.5 80 56C80 57.2667 78.9731 58.31 77.96 59.3394C76.9735 60.3417 76 61.3308 76 62.5C76 63.9355 76.7965 65.0483 77.5474 66.0975C78.6273 67.6064 79.613 68.9837 78 71C76.7797 72.5254 76.5 75 78.5 75C81.5 75 82 73.5 82 69.5C82 67.6826 82.6741 66.8089 83.3222 65.9688C83.9222 65.1911 84.5 64.4422 84.5 63C84.5 61.5 84.125 60.875 83.75 60.25C83.375 59.625 83 59 83 57.5Z" fill="white"/>
<path d="M52.9826 56.0097C53.6771 55.5582 53.6302 54.2537 52.8777 53.0961C52.1252 51.9385 50.9522 51.366 50.2576 51.8175C49.563 52.269 49.6099 53.5734 50.3624 54.7311C51.1149 55.8887 52.288 56.4612 52.9826 56.0097Z" fill="white"/>
</svg>
