<svg xmlns="http://www.w3.org/2000/svg" xmlns:xlink="http://www.w3.org/1999/xlink" width="32" height="32" viewBox="0 0 32 32" fill="none"><defs><rect id="path_0" x="0" y="0" width="20" height="20" /></defs><g opacity="1" transform="translate(0 0)  rotate(0 16 15.999999999999998)"><path id="矩形 1" fill-rule="evenodd" transform="translate(0 0)  rotate(0 16 15.999999999999998)" opacity="1" d="M0,32L32,32L32,0L0,0L0,32Z " /><g opacity="1" transform="translate(6 6)  rotate(0 10 10)"><mask id="bg-mask-0" fill="white"><use xlink:href="#path_0"></use></mask><g mask="url(#bg-mask-0)" ><path id="分组 1" fill-rule="evenodd" style="fill:#000000" transform="translate(1.0323529492187755 0.39215685546875667)  rotate(0 4.374509804687489 4.581372548828125)" opacity="0.2" d="M0 1.40176C0.1 1.68176 0.32 1.90176 0.59 2.02176L1.59 1.99176L1.61 0.721765C1.49 0.761765 1.36 0.741765 1.27 0.651765C1.18 0.561765 1.14 0.431765 1.18 0.311765L0 0.311765L0 1.40176Z M0.127647 3.47039C0.227647 3.75039 0.437647 3.97039 0.707647 4.09039L1.70765 4.06039L1.72765 2.79039C1.60765 2.83039 1.47765 2.81039 1.37765 2.72039C1.28765 2.63039 1.25765 2.50039 1.29765 2.38039L0.117647 2.38039L0.127647 3.47039Z M0.539608 7.79451C0.489608 8.04451 0.289608 8.22451 0.0396078 8.24451L0.0196078 9.11451L1.15961 9.12451C1.42961 8.99451 1.63961 8.74451 1.70961 8.44451L1.67961 4.47451L0.539608 4.51451L0.539608 7.79451Z M3.74314 1.83L5.50314 1.83L5.48314 0.47L4.48314 0.45L4.28314 0L2.87314 0L3.06314 0.44L2.04314 0.44L2.06314 1.79L2.28314 1.93L2.30314 9.16L3.71314 9.16L3.69314 4.05L4.15314 4.06L4.19314 9.16L5.54314 9.15L5.51314 6.43L6.79314 6.45L6.80314 7.72C6.82314 7.85 6.78314 7.97 6.70314 8.07C6.63314 8.15 6.54314 8.2 6.44314 8.22L6.11314 8.22L6.12314 9.15L7.24314 9.13C7.63314 8.96 7.91314 8.63 8.00314 8.22L7.97314 6.43L8.75314 6.41L8.72314 5.26L7.97314 5.25L8.58314 3.68L8.58314 2.73C8.53314 2.61 8.42314 2.54 8.30314 2.53L5.75314 2.53L5.75314 3.66L7.23314 3.66L6.81314 5.17L5.50314 5.16L5.50314 3.05C5.49314 2.97 5.46314 2.9 5.41314 2.84C5.35314 2.77 5.26314 2.73 5.17314 2.73L3.74314 2.71L3.74314 1.83Z " /><path id="分组 2" fill-rule="evenodd" style="fill:#000000" transform="translate(6.738235292968735 0.40784314453126846)  rotate(0 6.344117646484376 4.58725490234375)" opacity="0.2" d="M0 0.435882L0.02 1.74588L2.87 1.72588L2.85 0.455882L1.35 0.455882L1.69 0.0158823L0.3 0.00588234L0 0.435882Z M5.46059 7.43L5.46059 6.45L9.41059 6.44L10.0906 8.44C10.2106 8.74 10.4206 8.99 10.7006 9.15L12.6706 9.15L12.6906 7.86L11.6606 7.79L11.1206 6.45L12.6706 6.42L12.6506 5.01L10.4706 4.96L10.0906 3.95L12.2606 3.93C12.3806 3.93 12.4906 3.88 12.5706 3.79C12.6306 3.72 12.6706 3.63 12.6706 3.53L12.6706 0.51C12.6806 0.37 12.6206 0.24 12.5206 0.14C12.4406 0.06 12.3306 0.01 12.2206 0L4.45059 0C4.26059 0.07 4.12059 0.24 4.09059 0.44L4.07059 8.4C4.07059 8.59 4.14059 8.78 4.27059 8.93C4.36059 9.04 4.49059 9.13 4.63059 9.17L6.48059 9.16L6.47059 7.84L5.77059 7.83C5.68059 7.82 5.60059 7.77 5.54059 7.71C5.48059 7.63 5.45059 7.53 5.46059 7.43Z " /><path id="分组 3" fill-rule="evenodd" style="fill:#000000" transform="translate(0.9205882421875069 1.8176470507812743)  rotate(0 8.513725488281242 9.067647060546875)" opacity="0.2" d="M11.3294 1.06L17.0294 1.03L16.9894 0.02L11.3494 0L11.3294 1.06Z M11.3118 3.5798L14.7718 3.5798L14.3818 2.5098L11.3218 2.5298L11.3118 3.5798Z M3.05373 9.10059L2.90373 8.79059L1.93373 8.77059L1.73373 9.10059L0.433725 9.09059C0.333725 9.11059 0.243725 9.17059 0.183725 9.26059C0.143725 9.31059 0.123725 9.37059 0.123725 9.44059L0.113725 12.5506C0.143725 12.7406 0.293725 12.8706 0.473725 12.8706L8.35373 12.8806C8.45373 12.8806 8.54373 12.8306 8.62373 12.7606C8.67373 12.7006 8.71373 12.6406 8.73373 12.5606L8.74373 9.51059C8.71373 9.28059 8.49373 9.11059 8.26373 9.15059L7.11373 9.16059L6.89373 8.77059L5.96373 8.77059L5.76373 9.13059L3.05373 9.10059Z M1.22 13.3853L1.21 13.1453L0.01 13.1453L0 14.4253C0.01 14.5453 0.08 14.6553 0.18 14.7253C0.25 14.7653 0.32 14.7853 0.4 14.7853L3.82 14.8153L3.82 15.2953L0.65 15.2953L0.66 16.4753L3.83 16.5053L3.84 16.8653L0.07 16.8653L0.06 18.1353L8.93 18.1253L8.89 16.8753L5.17 16.8653L5.16 16.5053L8.41 16.4953L8.39 15.3153L5.19 15.3053L5.18 14.8153L8.71 14.7953L8.72 13.6453L5.19 13.6353L5.19 13.1353L3.85 13.1753L3.83 13.6153L1.46 13.6453C1.32 13.6253 1.22 13.5153 1.22 13.3853Z " /><path id="分组 4" fill-rule="evenodd" style="fill:#000000" transform="translate(2.1950980468750085 10.560784316406256)  rotate(0 8.61470587890625 1.810536400053549)" opacity="0.2" d="M1.49 1.11412L0.72 1.09412L0.69 1.83412L0 1.84412L0.01 2.63412L0.68 2.63412L0.68 3.33412L1.51 3.32412L1.49 2.65412L2.24 2.64412L2.24 1.84412L1.5 1.83412L1.49 1.11412Z M3.63775 2.23123C3.63775 2.49123 3.85775 2.71123 4.11775 2.71123C4.38775 2.71123 4.60775 2.51123 4.61775 2.24123C4.61775 2.11123 4.56775 1.97123 4.46775 1.88123C4.37775 1.78123 4.23775 1.73123 4.10775 1.73123C3.83775 1.74123 3.63775 1.96123 3.63775 2.23123Z M4.63963 1.39006C4.63963 1.65006 4.85963 1.87006 5.11963 1.87006C5.38963 1.87006 5.60963 1.66006 5.61963 1.40006C5.61963 1.26006 5.56963 1.13006 5.46963 1.04006C5.37963 0.940055 5.23963 0.890055 5.10963 0.890055C4.83963 0.900055 4.63963 1.12006 4.63963 1.39006Z M5.64757 2.22517C5.65757 2.49517 5.86757 2.70517 6.12757 2.70517C6.39757 2.70517 6.61757 2.50517 6.62757 2.23517C6.62757 2.09517 6.57757 1.96517 6.47757 1.86517C6.37757 1.77517 6.24757 1.72517 6.10757 1.72517C5.84757 1.74517 5.63757 1.96517 5.64757 2.22517Z M4.63971 3.14103C4.63971 3.40103 4.85971 3.62103 5.11971 3.62103C5.38971 3.62103 5.60971 3.42103 5.61971 3.15103C5.61971 3.02103 5.56971 2.88103 5.46971 2.79103C5.37971 2.69103 5.23971 2.64103 5.10971 2.64103C4.83971 2.65103 4.63971 2.87103 4.63971 3.14103Z M9.11373 0.53C8.95373 0.6 8.84373 0.75 8.81373 0.92L8.81373 2.64L10.0637 2.63L10.0637 2.04C10.0937 1.86 10.2437 1.73 10.4137 1.72L15.6537 1.74C15.7337 1.75 15.8237 1.79 15.8737 1.86C15.9037 1.9 15.9237 1.95 15.9337 2L15.9337 2.64L17.2137 2.62L17.2337 0.97C17.1837 0.72 16.9837 0.54 16.7337 0.51L13.7837 0.49L13.8037 0.18L13.6537 0L12.3737 0.01L12.2037 0.2L12.2137 0.5L9.11373 0.53Z " /><path id="分组 5" fill-rule="evenodd" style="fill:#000000" transform="translate(10.979411757812485 12.833333339843776)  rotate(0 4.2460784375 3.583333330078117)" opacity="0.2" d="M1.17608 1.05588L0.126078 1.06588L0.0960784 2.27588L2.04608 2.29588C2.70608 1.69588 3.14608 0.885882 3.29608 0.00588234L1.76608 0.0158823L1.17608 1.05588Z M5.71804 1.5C5.93804 1.8 6.21804 2.06 6.52804 2.27L8.37804 2.3L8.35804 1.12L7.29804 1.12L6.64804 0L5.09804 0.01C5.18804 0.55 5.39804 1.06 5.71804 1.5Z M3.46 5.80216L0.02 5.83216L0 7.16216L8.49 7.10216L8.48 5.78216L5.06 5.78216L5.05 4.05216L8.38 4.03216L8.35 2.69216L0.06 2.71216L0.05 4.01216L3.45 4.01216L3.46 5.80216Z " /><path id="分组 6" fill-rule="evenodd" style="fill:#FFFFFF" transform="translate(0.6401960742187387 0)  rotate(0 4.374509804687503 4.581372548828125)" opacity="1" d="M0 1.40176C0.1 1.68176 0.32 1.90176 0.59 2.02176L1.59 1.99176L1.61 0.721765C1.49 0.761765 1.36 0.741765 1.27 0.651765C1.18 0.561765 1.14 0.431765 1.18 0.311765L0 0.311765L0 1.40176Z M0.127647 3.47039C0.227647 3.75039 0.437647 3.97039 0.707647 4.09039L1.70765 4.06039L1.72765 2.79039C1.60765 2.83039 1.47765 2.81039 1.37765 2.72039C1.28765 2.63039 1.25765 2.50039 1.29765 2.38039L0.117647 2.38039L0.127647 3.47039Z M0.539608 7.79451C0.489608 8.04451 0.289608 8.22451 0.0396079 8.24451L0.0196079 9.11451L1.15961 9.12451C1.42961 8.99451 1.63961 8.74451 1.70961 8.44451L1.67961 4.47451L0.539608 4.51451L0.539608 7.79451Z M4.19314 9.16L5.54314 9.15L5.51314 6.43L6.79314 6.45L6.80314 7.72C6.82314 7.85 6.78314 7.97 6.70314 8.07C6.63314 8.15 6.54314 8.2 6.44314 8.22L6.11314 8.22L6.12314 9.15L7.24314 9.13C7.63314 8.96 7.91314 8.63 8.00314 8.22L7.97314 6.43L8.75314 6.41L8.72314 5.26L7.97314 5.25L8.58314 3.68L8.58314 2.73C8.53314 2.61 8.42314 2.54 8.30314 2.53L5.75314 2.53L5.75314 3.66L7.23314 3.66L6.81314 5.17L5.50314 5.16L5.50314 3.05C5.49314 2.97 5.46314 2.9 5.41314 2.84C5.35314 2.77 5.26314 2.73 5.17314 2.73L3.74314 2.71L3.74314 1.83L5.50314 1.83L5.48314 0.47L4.48314 0.45L4.28314 0L2.87314 0L3.06314 0.44L2.04314 0.44L2.06314 1.79L2.28314 1.93L2.30314 9.16L3.71314 9.16L3.69314 4.05L4.15314 4.06L4.19314 9.16Z " /><path id="分组 7" fill-rule="evenodd" style="fill:#FFFFFF" transform="translate(6.346078437499981 0.015686269531231596)  rotate(0 6.344117646484389 4.58725490234375)" opacity="1" d="M0 0.435882L0.02 1.74588L2.87 1.72588L2.85 0.455882L1.35 0.455882L1.69 0.0158824L0.3 0.00588236L0 0.435882Z M12.5706 3.79C12.6306 3.72 12.6706 3.63 12.6706 3.53L12.6706 0.51C12.6806 0.37 12.6206 0.24 12.5206 0.14C12.4406 0.06 12.3306 0.01 12.2206 0L4.45059 0C4.26059 0.07 4.12059 0.24 4.09059 0.44L4.07059 8.4C4.07059 8.59 4.14059 8.78 4.27059 8.93C4.36059 9.04 4.49059 9.13 4.63059 9.17L6.48059 9.16L6.47059 7.84L5.77059 7.83C5.68059 7.82 5.60059 7.77 5.54059 7.71C5.48059 7.63 5.45059 7.53 5.46059 7.43L5.46059 6.45L9.41059 6.44L10.0906 8.44C10.2106 8.74 10.4206 8.99 10.7006 9.15L12.6706 9.15L12.6906 7.86L11.6606 7.79L11.1206 6.45L12.6706 6.42L12.6506 5.01L10.4706 4.96L10.0906 3.95L12.2606 3.93C12.3806 3.93 12.4906 3.88 12.5706 3.79Z " /><path id="分组 8" fill-rule="evenodd" style="fill:#FD0117" transform="translate(11.840196074218747 1.425490195312518)  rotate(0 2.8578431347656172 1.7892156835937536)" opacity="1" d="M0.0176471 1.06L5.71765 1.03L5.67765 0.02L0.0376471 0L0.0176471 1.06Z M0 3.5798L3.46 3.5798L3.07 2.5098L0.01 2.5298L0 3.5798Z " /><path id="分组 9" fill-rule="evenodd" style="fill:#FFFFFF" transform="translate(0.5284313671875274 10.196078437500013)  rotate(0 4.46372548828125 4.682352939453128)" opacity="1" d="M0.473725 4.1L8.35373 4.11C8.45373 4.11 8.54373 4.06 8.62373 3.99C8.67373 3.93 8.71373 3.87 8.73373 3.79L8.74373 0.74C8.71373 0.51 8.49373 0.34 8.26373 0.38L7.11373 0.39L6.88373 0L5.96373 0L5.76373 0.36L3.05373 0.33L2.90373 0.02L1.93373 0L1.73373 0.33L0.433725 0.32C0.333725 0.34 0.243725 0.4 0.183725 0.49C0.143725 0.54 0.123725 0.6 0.123725 0.67L0.113725 3.78C0.143725 3.97 0.293725 4.1 0.473725 4.1Z M3.83 7.73471L3.84 8.09471L0.07 8.09471L0.06 9.36471L8.93 9.35471L8.89 8.10471L5.17 8.09471L5.16 7.73471L8.41 7.72471L8.39 6.54471L5.19 6.53471L5.18 6.04471L8.71 6.02471L8.72 4.87471L5.19 4.86471L5.19 4.36471L3.85 4.40471L3.83 4.84471L1.46 4.87471C1.32 4.85471 1.22 4.74471 1.22 4.61471L1.21 4.37471L0.01 4.37471L0 5.65471C0.01 5.77471 0.08 5.88471 0.18 5.95471C0.25 5.99471 0.32 6.01471 0.4 6.01471L3.82 6.04471L3.82 6.52471L0.65 6.52471L0.66 7.70471L3.83 7.73471Z " /><path id="分组 10" fill-rule="evenodd" style="fill:#FD0117" transform="translate(1.8029411718749726 11.058682579291848)  rotate(0 3.313798581521796 1.3655088408763758)" opacity="1" d="M2.24 1.75406L2.24 0.954063L1.5 0.944063L1.49 0.224063L0.72 0.204063L0.69 0.944063L0 0.954063L0.01 1.74406L0.68 1.74406L0.68 2.44406L1.51 2.43406L1.49 1.76406L2.24 1.75406Z M3.63775 1.34118C3.63775 1.60118 3.85775 1.82118 4.11775 1.82118C4.38775 1.82118 4.60775 1.62118 4.61775 1.35118C4.61775 1.22118 4.56775 1.08118 4.46775 0.991175C4.37775 0.891175 4.23775 0.841175 4.10775 0.841175C3.83775 0.851175 3.63775 1.07118 3.63775 1.34118Z M4.63963 0.5C4.63963 0.76 4.85963 0.98 5.11963 0.98C5.38963 0.98 5.60963 0.77 5.61963 0.51C5.61963 0.37 5.56963 0.24 5.46963 0.15C5.37963 0.05 5.23963 0 5.10963 0C4.83963 0.01 4.63963 0.23 4.63963 0.5Z M5.64757 1.33512C5.65757 1.60512 5.86757 1.81512 6.12757 1.81512C6.39757 1.81512 6.61757 1.61512 6.62757 1.34512C6.62757 1.20512 6.57757 1.07512 6.47757 0.975118C6.37757 0.885118 6.24757 0.835118 6.10757 0.835118C5.84757 0.855118 5.63757 1.07512 5.64757 1.33512Z M4.63971 2.25098C4.63971 2.51098 4.85971 2.73098 5.11971 2.73098C5.38971 2.73098 5.60971 2.53098 5.61971 2.26098C5.61971 2.13098 5.56971 1.99098 5.46971 1.90098C5.37971 1.80098 5.23971 1.75098 5.10971 1.75098C4.83971 1.76098 4.63971 1.98098 4.63971 2.25098Z " /><path id="路径 35" fill-rule="evenodd" style="fill:#FFFFFF" transform="translate(10.616666660156223 10.168627441406278)  rotate(0 4.2078431445312505 1.3205882421874993)" opacity="1" d="M8.42,0.97C8.37,0.72 8.17,0.54 7.92,0.51L4.97,0.49L4.99,0.18L4.84,0L3.56,0.01L3.39,0.2L3.4,0.5L0.3,0.53C0.14,0.6 0.03,0.75 0,0.92L0,2.64L1.25,2.63L1.25,2.04C1.28,1.86 1.43,1.73 1.6,1.72L6.84,1.74C6.92,1.75 7.01,1.79 7.06,1.86C7.09,1.9 7.11,1.95 7.12,2L7.12,2.64L8.4,2.62L8.42,0.97Z " /><path id="分组 11" fill-rule="evenodd" style="fill:#FFFFFF" transform="translate(10.58725490234373 12.441176464843743)  rotate(0 4.246078427734375 3.583333339843758)" opacity="1" d="M1.17608 1.05588L0.126078 1.06588L0.0960784 2.27588L2.04608 2.29588C2.70608 1.69588 3.14608 0.885882 3.29608 0.00588236L1.76608 0.0158824L1.17608 1.05588Z M5.71804 1.5C5.93804 1.8 6.21804 2.06 6.52804 2.27L8.37804 2.3L8.35804 1.12L7.29804 1.12L6.64804 0L5.09804 0.01C5.18804 0.55 5.39804 1.06 5.71804 1.5Z M0.02 5.83216L0 7.16216L8.49 7.10216L8.48 5.78216L5.06 5.78216L5.05 4.05216L8.38 4.03216L8.35 2.69216L0.06 2.71216L0.05 4.01216L3.45 4.01216L3.46 5.80216L0.02 5.83216Z " /></g></g></g></svg>