<svg xmlns="http://www.w3.org/2000/svg" xmlns:xlink="http://www.w3.org/1999/xlink" width="403" height="403" viewBox="0 0 403 403" fill="none"><g opacity="1"  transform="translate(0 0)  rotate(0)"><g opacity="1"  transform="translate(40 130.193115234375)  rotate(0)"><g opacity="1"  transform="translate(0 0)  rotate(0)"></g><path id="路径 1" fill-rule="evenodd" style="fill:#FFFFFF" opacity="1" d="M92.92 0.000396729L92.92 10.6204L53.61 10.6204L53.61 3.5804L3.58 10.7204L3.58 25.0004L25.02 21.9204L25.02 42.8304L3.58 42.8304L3.58 57.1104L21.44 57.1104L0 124.95L14.29 124.95L25.02 91.0304L25.02 142.81L39.31 142.81L39.31 57.1104L53.61 57.1104L53.61 42.8304L39.31 42.8304L39.31 19.9004L53.61 17.8604L53.61 25.0004L150.09 25.0004L150.09 10.6204L110.77 10.6204L110.77 0.000396729L92.92 0.000396729Z"></path><path id="路径 2" fill-rule="evenodd" style="fill:#FFFFFF" opacity="1" d="M128.654 46.4185L128.654 39.2785L128.654 32.1385L75.0441 32.1385L75.0441 42.8385L75.0441 46.4185L75.0441 57.1185L89.3341 57.1185L89.3341 46.4185L114.354 46.4185L114.354 57.1185L128.654 57.1185L128.654 46.4185Z"></path><path id="路径 3" fill-rule="evenodd" style="fill:#FFFFFF" opacity="1" d="M53.6053 78.5327L53.6053 142.803L67.8953 142.803L67.8953 78.5327L135.795 78.5327L135.795 142.803L150.085 142.803L150.085 78.5327L150.085 74.9727L150.085 64.2527L53.6053 64.2527L53.6053 67.8327L53.6053 78.5327Z"></path><path id="路径 4" fill-rule="evenodd" style="fill:#FFFFFF" opacity="1" d="M75.0441 85.6942L75.0441 114.224L89.3341 114.224L89.3341 85.6942L75.0441 85.6942Z"></path><path id="路径 5" fill-rule="evenodd" style="fill:#FFFFFF" opacity="1" d="M113.292 113.194C112.632 113.864 111.722 114.244 110.772 114.254L89.3616 114.254L89.3616 128.524L114.332 128.524C118.122 128.524 121.762 127.024 124.442 124.344C127.122 121.664 128.632 118.034 128.632 114.254L128.632 85.6944L114.332 85.6944L114.332 110.674C114.332 111.614 113.962 112.524 113.292 113.194Z"></path><path id="路径 6" fill-rule="evenodd" style="fill:#FFFFFF" opacity="1" d="M309.704 25.0004L309.704 10.7204L261.194 10.7204L261.194 0.000396729L243.344 0.000396729L243.344 10.7204L195.324 10.7204L181.054 10.7204L181.054 25.0004L181.054 39.2804L195.324 39.2804L195.324 25.0004L309.704 25.0004Z"></path><path id="路径 7" fill-rule="evenodd" style="fill:#FFFFFF" opacity="1" d="M286.457 128.533C277.407 128.543 268.397 127.343 259.657 124.973L259.657 57.0431L306.117 57.0431L306.117 42.7631L198.907 42.7631L198.907 57.0431L245.367 57.0431L245.367 119.853C233.827 114.773 223.337 107.583 214.447 98.6531C213.457 97.6931 212.527 96.7031 211.607 95.6931C213.227 87.6731 214.097 79.5231 214.207 71.3431L199.917 71.3431C199.917 74.1531 199.727 76.9431 199.487 79.7331C197.847 99.1131 191.337 117.773 180.547 133.963L191.737 142.903C196.547 135.833 200.637 128.303 203.957 120.433C205.187 117.563 206.367 114.683 207.277 111.753C228.717 131.883 257.037 143.063 286.457 143.003L323.967 143.003L323.967 128.723L288.237 128.533L286.457 128.533Z"></path><path id="路径 8" fill-rule="evenodd" style="fill:#FFFFFF" opacity="1" d="M309.706 24.9993L309.706 39.2793L323.976 39.2793L323.976 24.9993L309.706 24.9993Z"></path><path id="路径 9" fill-rule="evenodd" style="fill:#FFFFFF" opacity="1" d="M266.802 78.531L266.802 92.811L306.112 92.811L306.112 78.531L266.802 78.531Z"></path></g></g></svg>