<svg width="128" height="128" viewBox="0 0 128 128" fill="none" xmlns="http://www.w3.org/2000/svg">
<path d="M41.8547 90.5C53.3924 90.5 63.2079 83.1266 66.8463 72.8349H85.8187V89.9007H103.662V72.8349H112.123V64H50.8547C50.8547 68.9706 46.8253 73 41.8547 73C36.8842 73 32.8547 68.9706 32.8547 64H15.3547C15.3547 78.6355 27.2192 90.5 41.8547 90.5Z" fill="#FFD54F"/>
<path d="M112.123 64V55.1652H66.8463C63.208 44.8734 53.3924 37.5 41.8547 37.5C27.2192 37.5 15.3547 49.3645 15.3547 64H32.8547C32.8547 59.0294 36.8842 55 41.8547 55C46.8253 55 50.8547 59.0294 50.8547 64H112.123Z" fill="#FFB300"/>
</svg>
