<svg xmlns="http://www.w3.org/2000/svg" xmlns:xlink="http://www.w3.org/1999/xlink" width="30" height="30" viewBox="0 0 30 30" fill="none"><defs><rect id="path_0" x="0" y="0" width="30" height="30" /></defs><g opacity="1" transform="translate(0 0)  rotate(0 15 15)"><mask id="bg-mask-0" fill="white"><use xlink:href="#path_0"></use></mask><g mask="url(#bg-mask-0)" ><g opacity="1" transform="translate(0 0)  rotate(0 15 15)"><g opacity="1" transform="translate(2.961286594743491 2.9614708132186323)  rotate(0 12.037460836949073 12.035517446572811)"><path id="路径 1" fill-rule="evenodd" style="fill:#FFA943" transform="translate(0.43704015774634364 0.43743232276953137)  rotate(0 11.599574643515847 11.601524487604955)" opacity="1" d="M3.53,19.67C7.54,23.67 13.61,24.29 18.05,21.45C18.72,21.03 20.19,21.29 20.77,20.71C21.45,20.02 21.2,18.51 21.66,17.71C24.25,13.29 23.56,7.43 19.67,3.54C15.06,-1.07 7.72,-1.19 3.26,3.26C-1.19,7.72 -1.07,15.06 3.53,19.67Z " /><path id="分组 1" fill-rule="evenodd" style="fill:#3F2D26" transform="translate(0 0)  rotate(0 12.037460836949073 12.035517446572811)" opacity="1" d="M11.01 23.99C11.48 24.05 11.95 24.07 12.41 24.07C14.66 24.07 16.86 23.45 18.73 22.25C18.94 22.12 19.37 22.07 19.78 22.02C20.42 21.95 21.09 21.87 21.52 21.45C22.01 20.96 22.1 20.23 22.2 19.53C22.26 19.09 22.32 18.63 22.48 18.36C23.14 17.23 23.61 15.99 23.86 14.69C24.1 13.42 24.14 12.11 23.97 10.8C23.79 9.49 23.4 8.21 22.82 7.02C22.21 5.78 21.4 4.65 20.41 3.66C19.25 2.49 17.89 1.59 16.39 0.96C14.94 0.35 13.41 0.03 11.85 0C10.29 -0.02 8.77 0.25 7.34 0.8C5.85 1.38 4.53 2.25 3.39 3.39C2.26 4.52 1.39 5.85 0.81 7.33C0.25 8.76 -0.02 10.28 0 11.85C0.03 13.41 0.35 14.94 0.96 16.39C1.58 17.89 2.49 19.24 3.66 20.41C4.67 21.43 5.83 22.25 7.11 22.86C8.35 23.45 9.66 23.83 11.01 23.99Z M19.7926 4.27876C17.5326 2.01876 14.5726 0.878758 11.6526 0.878758C8.86262 0.878758 6.10262 1.91876 4.01262 4.00876C1.94262 6.07876 0.822621 8.85876 0.872621 11.8388C0.922621 14.8288 2.13262 17.6488 4.28262 19.7988C6.51262 22.0288 9.48262 23.1988 12.4426 23.1988C14.4726 23.1988 16.4926 22.6488 18.2526 21.5188C18.6426 21.2788 19.1726 21.2088 19.6826 21.1588C20.1526 21.1088 20.6926 21.0488 20.9026 20.8388C21.1726 20.5588 21.2526 19.9788 21.3326 19.4188C21.4026 18.8888 21.4726 18.3488 21.7226 17.9188C24.2726 13.5788 23.4726 7.96876 19.7926 4.27876Z " /><path id="路径 4" fill-rule="evenodd" style="fill:#E89131" transform="translate(7.5320770006113325 0.8582427042745753)  rotate(0 7.809969922182408 9.775338650414986)" opacity="1" d="M0,0.82C2.18,0.74 5.77,0.82 7.92,2.19C11.17,4.26 15.84,8.65 13.57,16.48C13.57,16.48 13.09,17.74 13.16,18.15C13.21,18.4 13.32,19.02 13.49,19.55C13.89,18.82 13.75,17.62 14.14,16.95C16.63,12.73 15.97,7.12 12.22,3.39C8.87,0.06 4,-0.86 0,0.82Z " /><path id="路径 5" fill-rule="evenodd" style="fill:#3F2D26" transform="translate(3.2122527818613325 2.8431133241673407)  rotate(0 9.12 9.12)" opacity="1" d="M0.54,0.09C0.42,-0.03 0.22,-0.03 0.09,0.09C-0.03,0.22 -0.03,0.42 0.09,0.54L17.7,18.15C17.82,18.27 18.02,18.27 18.15,18.15C18.27,18.02 18.27,17.82 18.15,17.7L0.54,0.09Z " /><path id="分组 2" fill-rule="evenodd" style="fill:#3F2D26" transform="translate(2.979645359986332 2.6105059022923403)  rotate(0 9.352500000000001 9.35375)" opacity="1" d="M18.55 17.77L0.94 0.16C0.73 -0.05 0.37 -0.05 0.16 0.16C-0.05 0.37 -0.05 0.73 0.16 0.94L17.77 18.55C17.88 18.66 18.02 18.71 18.16 18.71C18.3 18.71 18.44 18.66 18.55 18.55C18.76 18.33 18.76 17.98 18.55 17.77Z M0.485215 0.602588L18.0952 18.2126C18.1252 18.2426 18.1852 18.2426 18.2152 18.2126C18.2452 18.1826 18.2452 18.1226 18.2152 18.0926L0.605215 0.482588C0.585215 0.472588 0.565215 0.462588 0.545215 0.462588C0.525215 0.462588 0.505215 0.472588 0.485215 0.482588C0.455215 0.522588 0.455215 0.572588 0.485215 0.602588Z " /></g></g></g></g></svg>