<svg xmlns="http://www.w3.org/2000/svg" xmlns:xlink="http://www.w3.org/1999/xlink" width="30" height="30" viewBox="0 0 30 30" fill="none"><defs><rect id="path_0" x="0" y="0" width="30" height="30" /><rect id="path_1" x="0" y="0" width="24" height="24" /></defs><g opacity="1" transform="translate(0 0)  rotate(0 15 15)"><mask id="bg-mask" fill="white"><use xlink:href="#path_0"></use></mask><g mask="url(#bg-mask)" ><path id="矩形 1" fill-rule="evenodd"  transform="translate(0 0)  rotate(0 15 15)" opacity="1" d="M0,30L30,30L30,0L0,0L0,30Z " /><g opacity="1" transform="translate(3 3)  rotate(0 12 12)"><mask id="bg-mask" fill="white"><use xlink:href="#path_1"></use></mask><g mask="url(#bg-mask)" ><path id="路径 1" fill-rule="evenodd" style="fill:#4285F4" transform="translate(0 0)  rotate(0 6 9.635625000000001)" opacity="1" d="M12,0L0,9.5L12,19.27L12,0Z " /><path id="路径 2" fill-rule="evenodd" style="fill:#356AC3" transform="translate(12 0)  rotate(0 6 9.635625000000001)" opacity="1" d="M12,9.5L0,0L0,19.27L12,9.5Z " /><path id="路径 3" fill-rule="evenodd" style="fill:#A0C3FF" transform="translate(5.000015624999998 10.00003125)  rotate(0 6.999984375 6.999984441367611)" opacity="1" d="M3.5,13.06C5.67,14.31 8.33,14.31 10.5,13.06C12.67,11.81 14,9.5 14,7C14,3.14 10.86,0 7,0C3.14,0 0,3.14 0,7C0,9.5 1.33,11.81 3.5,13.06Z " /><path id="路径 4" fill-rule="evenodd" style="fill:#76A7FA" transform="translate(5.673609375 9.999984374999999)  rotate(0 6.326390624999998 2.000015625)" opacity="1" d="M12.65,4C11.53,1.64 9.12,0 6.33,0C3.53,0 1.12,1.64 0,4L12.65,4Z " /></g></g></g></g></svg>