<svg xmlns="http://www.w3.org/2000/svg" xmlns:xlink="http://www.w3.org/1999/xlink" width="32" height="32" viewBox="0 0 32 32" fill="none"><defs><path id="path_0"
        transform="translate(0 0) rotate(0 16 16)"
        d="M0,32L32,32L32,0L0,0L0,32Z" /></defs><g opacity="1" transform="translate(0 0)  rotate(0 16 16)"><path id="矩形 1" fill-rule="evenodd" transform="translate(0 0)  rotate(0 16 16)" opacity="1" d="M32,0L0,0L0,32L32,32L32,0Z " /><g opacity="1" transform="translate(0 0)  rotate(0 16 16)"><g opacity="1" transform="translate(0 0)  rotate(0 16 16)"><mask id="mask-0" fill="white"><use xlink:href="#path_0"></use></mask><g mask="url(#mask-0)"></g><g mask="url(#mask-0)"><g opacity="1" transform="translate(8.133600000000001 4.639039999999994)  rotate(0 7.885999999999999 11.304)"><path id="路径 1" fill-rule="evenodd" style="fill:#34A853" transform="translate(4.351999999999997 4.208000000000002)  rotate(0 5.71 9.2)" opacity="1" d="M1.78,15.17C2.22,16.03 2.42,16.61 2.75,17.65C2.94,18.22 3.14,18.4 3.54,18.4C3.97,18.4 4.16,18.11 4.32,17.65C4.64,16.67 4.88,15.92 5.26,15.22C6.02,13.86 6.98,12.64 7.9,11.47C8.16,11.15 9.79,9.23 10.53,7.7C10.53,7.7 11.42,6.03 11.42,3.7C11.42,1.52 10.54,0 10.54,0L7.98,0.69L6.42,4.78L6.03,5.34L5.95,5.46L5.84,5.58L5.66,5.79L5.41,6.05L4.02,7.18L0.56,9.18L0,12.54C0.7,13.42 1.41,14.51 1.78,15.17Z " /><path id="路径 2" fill-rule="evenodd" style="fill:#FBBC04" transform="translate(0.7680000000000007 5.936)  rotate(0 4.71 5.4)" opacity="1" d="M9.36 3.93C9.15 4.17 8.36 4.94 7.1 4.94C5.44 4.94 4.1 3.62 4.1 1.94C4.1 0.78 4.78 0 4.78 0L0.82 1.07L0 5.7C0.85 7.63 2.46 9.31 3.57 10.8L9.36 3.93ZM9.36 3.93L9.42 3.86C9.42 3.86 9.4 3.88 9.36 3.93Z" /><path id="路径 3" fill-rule="evenodd" style="fill:#4285F4" transform="translate(5.535999999999998 0.35199999999999765)  rotate(0 4.67 4.735)" opacity="1" d="M0,5.6C0,5.6 0.86,4.53 2.34,4.53C3.9,4.53 5.34,5.82 5.34,7.54C5.34,8.62 4.72,9.39 4.66,9.47L9.34,3.89C8.35,1.94 6.67,0.62 4.74,0L0,2.08L0,5.6Z " /><path id="路径 4" fill-rule="evenodd" style="fill:#1A73E8" transform="translate(1.8399999999999999 0)  rotate(0 4.21 2.975)" opacity="1" d="M3.71,5.95L8.42,0.37C8.42,0.37 7.38,0 6.02,0C3.2,0 1.17,1.42 0,2.82L0.38,5.95L3.71,5.95Z " /><path id="路径 5" fill-rule="evenodd" style="fill:#EA4335" transform="translate(0 2.815999999999997)  rotate(0 2.785 4.41)" opacity="1" d="M1.86,0C0.82,1.18 0,3.01 0,5.09C0,7.3 0.77,8.82 0.77,8.82L5.57,3.14L1.86,0Z " /></g></g></g></g></g></svg>