<svg xmlns="http://www.w3.org/2000/svg" xmlns:xlink="http://www.w3.org/1999/xlink" width="30" height="30" viewBox="0 0 30 30" fill="none"><defs><rect id="path_0" x="0" y="0" width="30" height="30" /><rect id="path_1" x="0" y="0" width="18.12168889426389" height="19.605923751669785" /></defs><g opacity="1" transform="translate(0 0)  rotate(0 15 15)"><mask id="bg-mask" fill="white"><use xlink:href="#path_0"></use></mask><g mask="url(#bg-mask)" ><path id="矩形 1" fill-rule="evenodd" transform="translate(0 0)  rotate(0 15 15)" opacity="1" d="M0,30L30,30L30,0L0,0L0,30Z " /><g opacity="1" transform="translate(5.939155552868044 5.400106861714136)  rotate(0 9.060844447131945 9.802961875834892)"><mask id="bg-mask" fill="white"><use xlink:href="#path_1"></use></mask><g mask="url(#bg-mask)" ><path id="路径 2" fill-rule="evenodd" style="fill:#FFE300" transform="translate(10.353333343750002 6.707893138285865)  rotate(0 3.884177775256944 3.061)" opacity="1" d="M7.21,3.79C7.69,3.53 8.18,2.86 7.21,2.32C6.9,2.15 5.2,1.21 3.01,0L0,3.07L3.01,6.12L7.21,3.79Z " /><path id="路径 3" fill-rule="evenodd" style="fill:#FF4E54" transform="translate(0.7306666874999976 9.778559794535866)  rotate(0 6.316999999999999 4.913681978566959)" opacity="1" d="M0,9.82C0.22,9.85 0.48,9.79 0.78,9.62L12.63,3.05L9.62,0L0,9.82Z " /><path id="路径 4" fill-rule="evenodd" style="fill:#00F085" transform="translate(0.7240000000000002 0)  rotate(0 6.3186666718749995 4.889279897267933)" opacity="1" d="M12.64,6.71L0.79,0.16C0.53,0.02 0.25,-0.03 0,0.02L9.63,9.78L12.64,6.71Z " /><path id="路径 5" fill-rule="evenodd" style="fill:#00E0FF" transform="translate(0 0.02255979453586221)  rotate(0 5.176666671875001 9.78833334375)" opacity="1" d="M0.72,0C0.33,0.09 0,0.44 0,1.14L0,18.41C0,19.07 0.26,19.53 0.73,19.58L10.35,9.76L0.72,0Z " /></g></g></g></g></svg>