<svg width="128" height="128" viewBox="0 0 128 128" fill="none" xmlns="http://www.w3.org/2000/svg">
<path d="M119 64C119 94.3757 94.3757 119 64 119C33.6243 119 9 94.3757 9 64C9 33.6243 33.6243 9 64 9C94.3757 9 119 33.6243 119 64Z" fill="#1B1B1B"/>
<path d="M88.6065 14.7979C89.3283 15.1596 90.041 15.5367 90.7443 15.9288C90.8836 16.0939 91.0066 16.2765 91.1133 16.4766C91.4284 17.0399 91.5859 17.9423 91.5859 19.1836V26.4167H89.6953V20C89.6953 18.9783 89.6285 18.2574 89.4948 17.8372C89.3611 17.4171 89.0937 17.0877 88.6927 16.849C88.3012 16.6007 87.8763 16.4766 87.418 16.4766C86.8641 16.4766 86.3342 16.6389 85.8281 16.9636C85.3316 17.2882 84.9305 17.7465 84.625 18.3386C84.3194 18.921 84.1667 19.7517 84.1667 20.8307V26.4167H82.276V15.0586H84.1667V17.0208C84.5677 16.4002 84.9544 15.9419 85.3268 15.6458C85.7088 15.3498 86.105 15.1254 86.5156 14.9727C86.9262 14.8199 87.3845 14.7435 87.8906 14.7435C88.138 14.7435 88.3767 14.7616 88.6065 14.7979Z" fill="white"/>
<path d="M10.3328 76.0888C11.3422 75.84 12.2401 75.3369 13.0265 74.5793C14.2082 73.4406 14.799 71.7541 14.799 69.5197C14.799 67.2961 14.2082 65.6203 13.0265 64.4924C11.9124 63.4089 10.5746 62.8409 9.01308 62.7884C9.00438 63.1912 9 63.5951 9 64C9 64.188 9.00094 64.3757 9.00282 64.5632C10.0357 64.6213 10.8774 65.0757 11.528 65.9264C12.2262 66.8395 12.5753 68.0373 12.5753 69.5197C12.5753 71.0129 12.2262 72.216 11.528 73.1291C11.0923 73.6988 10.5709 74.0908 9.9638 74.305C10.0772 74.9031 10.2002 75.4977 10.3328 76.0888Z" fill="white"/>
<path d="M23.8027 101.539C23.0708 100.756 22.3614 99.951 21.6758 99.1257V90.6388H23.8027V92.943C24.2432 92.1804 24.6567 91.6325 25.0434 91.2995C25.4409 90.9557 25.8706 90.7033 26.3325 90.5422C26.8052 90.3703 27.3047 90.2844 27.831 90.2844C28.3574 90.2844 28.8569 90.3649 29.3296 90.5261C29.813 90.6872 30.2266 90.9343 30.5703 91.2673C30.9248 91.6003 31.2739 92.1589 31.6177 92.943C32.0581 92.2018 32.4878 91.6594 32.9067 91.3156C33.3364 90.9719 33.7715 90.714 34.2119 90.5422C34.6631 90.3703 35.1411 90.2844 35.646 90.2844C36.3657 90.2844 37.0156 90.4562 37.5957 90.8C38.1865 91.133 38.6377 91.6164 38.9492 92.2502C39.2715 92.8732 39.4326 93.9313 39.4326 95.4245V103.417H37.3057V96.3107C37.3057 94.8068 37.2143 93.8561 37.0317 93.4587C36.8491 93.0612 36.5967 92.7604 36.2744 92.5563C35.9629 92.3415 35.5815 92.2341 35.1304 92.2341C34.4966 92.2341 33.9111 92.4328 33.374 92.8303C32.8476 93.217 32.4233 93.7433 32.1011 94.4094C31.7788 95.0754 31.6177 96.0046 31.6177 97.197V103.417H29.4907V96.3107C29.4907 94.8068 29.4101 93.8561 29.249 93.4587C29.0879 93.0612 28.8247 92.7604 28.4595 92.5563C28.105 92.3415 27.7236 92.2341 27.3154 92.2341C26.7353 92.2341 26.1606 92.4382 25.5913 92.8464C25.0327 93.2546 24.5923 93.7971 24.27 94.4738C23.9585 95.1398 23.8027 96.0475 23.8027 97.197V101.539Z" fill="white"/>
<path d="M112.037 37.1948C111.806 37.2374 111.585 37.2976 111.376 37.3755C110.914 37.5474 110.468 37.7998 110.039 38.1328C109.62 38.4658 109.185 38.9815 108.733 39.6797V37.4722H106.607V50.25H108.733V43.9658C108.733 42.752 108.905 41.8174 109.249 41.1621C109.593 40.4961 110.044 39.9805 110.603 39.6152C111.172 39.25 111.768 39.0674 112.391 39.0674C112.63 39.0674 112.86 39.0973 113.083 39.1571C112.747 38.4952 112.399 37.841 112.037 37.1948Z" fill="white"/>
<path d="M114.953 43.2547C115.784 45.2925 116.496 47.3914 117.08 49.5427V50.25H114.953V43.2547Z" fill="white"/>
<path d="M57.9844 26.4167H59.875V20.8307C59.875 19.7517 60.0278 18.921 60.3333 18.3386C60.6389 17.7465 61.0399 17.2882 61.5364 16.9636C62.0425 16.6389 62.5725 16.4766 63.1263 16.4766C63.5846 16.4766 64.0095 16.6007 64.401 16.849C64.8021 17.0877 65.0694 17.4171 65.2031 17.8372C65.3368 18.2574 65.4036 18.9783 65.4036 20V26.4167H67.2943V19.1836C67.2943 17.9423 67.1367 17.0399 66.8216 16.4766C66.516 15.9037 66.0768 15.474 65.5039 15.1875C64.9405 14.8915 64.3055 14.7435 63.5989 14.7435C63.0929 14.7435 62.6345 14.8199 62.2239 14.9727C61.8134 15.1254 61.4171 15.3498 61.0351 15.6458C60.6628 15.9419 60.276 16.4002 59.875 17.0208V15.0586H57.9844V26.4167Z" fill="white"/>
<path d="M45.4518 19.7852V18.2096H34.0937V19.7852H45.4518Z" fill="white"/>
<path d="M45.4518 23.2656V21.6901H34.0937V23.2656H45.4518Z" fill="white"/>
<path d="M77.3919 15.0586H79.2825V26.4167H77.3919V24.4401C77.0004 25.0417 76.6137 25.4952 76.2318 25.8008C75.8594 26.1063 75.4726 26.3355 75.0716 26.4883C74.6706 26.6506 74.2313 26.7318 73.7539 26.7318C72.7036 26.7318 71.8108 26.4358 71.0755 25.8438C70.3498 25.2517 69.987 24.0582 69.987 22.263V15.0586H71.8776V21.4609C71.8776 23.1224 72.0972 24.1298 72.5365 24.4831C72.9757 24.8268 73.52 24.9987 74.1693 24.9987C74.7326 24.9987 75.2626 24.8364 75.7591 24.5117C76.2652 24.1775 76.6615 23.7144 76.9479 23.1224C77.2439 22.5208 77.3919 21.6949 77.3919 20.6445V15.0586Z" fill="white"/>
<path d="M94.737 30.1979V28.9805C95.0616 28.7895 95.3099 28.5556 95.4818 28.2787C95.6632 28.0113 95.7969 27.7248 95.8828 27.4193C95.9687 27.1233 96.0117 26.7891 96.0117 26.4167H94.737V23.7383H97.4297V25.3997C97.4297 26.4024 97.3294 27.1662 97.1289 27.6914C96.9379 28.2166 96.6467 28.6988 96.2552 29.138C95.8637 29.5773 95.3576 29.9306 94.737 30.1979Z" fill="white"/>
<path d="M60.6574 50.2339V48.4453C59.8087 48.7031 59.175 48.832 58.756 48.832C58.2296 48.832 57.7785 48.73 57.4025 48.5259C57.0265 48.3218 56.7526 47.9995 56.5807 47.5591C56.4088 47.1187 56.3229 46.3345 56.3229 45.2066V39.2446H60.0451V37.4722H56.3229V34.4429H54.1798V37.4722H51.9723V39.2446H54.1798V45.8189C54.1798 47.1509 54.3463 48.1231 54.6794 48.7354C55.0124 49.3369 55.4958 49.7988 56.1295 50.1211C56.7741 50.4434 57.4938 50.6045 58.2887 50.6045C58.8366 50.6045 59.6261 50.481 60.6574 50.2339Z" fill="white"/>
<path d="M63.2516 37.4722H65.3786V50.25H63.2516V37.4722Z" fill="white"/>
<path d="M63.2516 34.6362V32.4932H65.3786V34.6362H63.2516Z" fill="white"/>
<path fill-rule="evenodd" clip-rule="evenodd" d="M69.9064 48.9126C71.088 50.0405 72.5168 50.6045 74.1925 50.6045C75.8576 50.6045 77.2755 50.0405 78.4464 48.9126C79.6281 47.7739 80.2189 46.0874 80.2189 43.853C80.2189 41.6294 79.6281 39.9536 78.4464 38.8257C77.2755 37.687 75.8576 37.1177 74.1925 37.1177C72.5168 37.1177 71.088 37.687 69.9064 38.8257C68.7355 39.9536 68.1501 41.6294 68.1501 43.853C68.1501 46.0874 68.7355 47.7739 69.9064 48.9126ZM76.9479 47.4624C76.2497 48.3755 75.3312 48.832 74.1925 48.832C73.0431 48.832 72.1193 48.3755 71.4211 47.4624C70.7228 46.5493 70.3737 45.3462 70.3737 43.853C70.3737 42.3706 70.7228 41.1729 71.4211 40.2598C72.1193 39.3467 73.0431 38.8901 74.1925 38.8901C75.3312 38.8901 76.2497 39.3467 76.9479 40.2598C77.6461 41.1729 77.9953 42.3706 77.9953 43.853C77.9953 45.3462 77.6461 46.5493 76.9479 47.4624Z" fill="white"/>
<path d="M85.1012 50.25H82.9743V37.4722H85.1012V39.6797C85.5524 38.9815 85.9875 38.4658 86.4064 38.1328C86.8361 37.7998 87.2819 37.5474 87.7438 37.3755C88.2057 37.2036 88.7213 37.1177 89.2907 37.1177C90.0856 37.1177 90.8 37.2842 91.4337 37.6172C92.0783 37.9395 92.5724 38.4229 92.9162 39.0674C93.2707 39.7012 93.4479 40.7163 93.4479 42.1128V50.25H91.321V43.0313C91.321 41.8818 91.2458 41.0708 91.0954 40.5982C90.945 40.1255 90.6442 39.7549 90.193 39.4863C89.7526 39.207 89.2746 39.0674 88.7589 39.0674C88.1359 39.0674 87.5397 39.25 86.9704 39.6152C86.4118 39.9805 85.9606 40.4961 85.6169 41.1621C85.2731 41.8174 85.1012 42.752 85.1012 43.9658V50.25Z" fill="white"/>
<path d="M103.553 37.4722H101.426V50.25H103.553V37.4722Z" fill="white"/>
<path d="M101.426 32.4932V34.6362H103.553V32.4932H101.426Z" fill="white"/>
<path d="M32.5075 60.9152C33.0876 59.7765 34.0436 58.5036 35.3756 57.0964H33.6032C32.6149 57.9557 31.6964 59.0514 30.8478 60.3835C29.9992 61.7048 29.3869 63.069 29.0109 64.4762C28.6349 65.8835 28.4469 67.2692 28.4469 68.6335C28.4469 70.0085 28.6349 71.3996 29.0109 72.8068C29.3869 74.214 29.9992 75.5783 30.8478 76.8996C31.6964 78.2316 32.6149 79.322 33.6032 80.1706H35.3756C34.0436 78.7741 33.0876 77.5065 32.5075 76.3679C31.9274 75.2399 31.4816 74.0046 31.1701 72.6618C30.8693 71.3083 30.7189 69.9655 30.7189 68.6335C30.7189 67.3122 30.8693 65.9802 31.1701 64.6374C31.4816 63.2839 31.9274 62.0431 32.5075 60.9152Z" fill="white"/>
<path d="M43.0127 75.9167L37.8081 63.1388H40.0962L44.2051 73.1613L48.3784 63.1388H50.5054L45.1396 75.9167H43.0127Z" fill="white"/>
<path fill-rule="evenodd" clip-rule="evenodd" d="M60.6883 74.1442C60.6883 74.6384 60.8011 75.2292 61.0267 75.9167H63.2664C63.0194 75.1218 62.8797 74.4289 62.8475 73.8381C62.826 73.2365 62.8153 72.6618 62.8153 72.1139V67.1511C62.8153 65.7975 62.638 64.8737 62.2835 64.3796C61.9398 63.8854 61.3866 63.4933 60.6239 63.2033C59.8612 62.9133 59.0125 62.7682 58.078 62.7682C57.1434 62.7682 56.2787 62.924 55.4837 63.2355C54.6996 63.5363 54.0658 63.9875 53.5824 64.589C53.1097 65.1906 52.8734 65.7761 52.8734 66.3454V66.5065H55.1776V66.3293C55.1776 65.8137 55.4246 65.3625 55.9188 64.9758C56.4237 64.5783 57.1165 64.3796 57.9974 64.3796C58.7386 64.3796 59.3724 64.5407 59.8988 64.863C60.4251 65.1745 60.6883 65.7223 60.6883 66.5065V67.9567L59.5443 68.1662C57.0306 68.6603 55.2581 69.2458 54.2269 69.9225C53.2064 70.5886 52.6961 71.5392 52.6961 72.7746C52.6961 73.8596 53.0614 74.7136 53.7918 75.3366C54.5223 75.9596 55.3924 76.2712 56.4022 76.2712C57.0145 76.2712 57.6483 76.1476 58.3036 75.9006C58.9588 75.6535 59.7537 75.068 60.6883 74.1442ZM60.0438 69.6164L60.6883 69.4714V70.7282C60.6883 71.5016 60.5272 72.1784 60.2049 72.7585C59.8827 73.3386 59.4315 73.8058 58.8514 74.1603C58.2821 74.5041 57.702 74.676 57.1112 74.676C56.7674 74.676 56.4183 74.5954 56.0638 74.4343C55.7093 74.2731 55.4408 74.0475 55.2581 73.7575C55.0863 73.4675 55.0003 73.1559 55.0003 72.8229C55.0003 72.1677 55.3011 71.6037 55.9027 71.131C56.5042 70.6476 57.8846 70.1428 60.0438 69.6164Z" fill="white"/>
<path d="M68.8732 75.9167H66.7463V63.1388H68.8732V65.3947C69.2277 64.7394 69.6091 64.2346 70.0173 63.8801C70.4362 63.5256 70.882 63.257 71.3547 63.0744C71.8273 62.881 72.3054 62.7844 72.7887 62.7844C73.2292 62.7844 73.6105 62.8488 73.9328 62.9777V65.1852C73.4279 64.9382 72.8962 64.8146 72.3376 64.8146C71.5319 64.8146 70.7531 65.1691 70.0012 65.8781C69.2492 66.5763 68.8732 67.8171 68.8732 69.6003V75.9167Z" fill="white"/>
<path d="M78.5889 63.1388H76.4619V75.9167H78.5889V63.1388Z" fill="white"/>
<path d="M76.4619 58.1598V60.3029H78.5889V58.1598H76.4619Z" fill="white"/>
<path d="M95.1527 66.6838V68.4562H82.3749V66.6838H95.1527Z" fill="white"/>
<path d="M95.1527 70.5993V72.3718H82.3749V70.5993H95.1527Z" fill="white"/>
<path fill-rule="evenodd" clip-rule="evenodd" d="M102.86 73.9186C104.063 75.6052 105.626 76.4484 107.549 76.4484C109.493 76.4484 111.062 75.6052 112.254 73.9186C113.446 72.2321 114.042 69.9387 114.042 67.0383C114.042 64.1379 113.446 61.8444 112.254 60.1579C111.062 58.4714 109.493 57.6281 107.549 57.6281C105.626 57.6281 104.063 58.4714 102.86 60.1579C101.667 61.8444 101.071 64.1379 101.071 67.0383C101.071 69.9387 101.667 72.2321 102.86 73.9186ZM110.804 72.3556C110.138 73.9025 109.053 74.676 107.549 74.676C106.056 74.676 104.971 73.9025 104.294 72.3556C103.628 70.8088 103.295 69.0363 103.295 67.0383C103.295 65.051 103.628 63.2839 104.294 61.737C104.971 60.1794 106.056 59.4006 107.549 59.4006C109.053 59.4006 110.138 60.1794 110.804 61.737C111.48 63.2839 111.819 65.051 111.819 67.0383C111.819 69.0363 111.48 70.8088 110.804 72.3556Z" fill="white"/>
<path d="M41.963 103.417H44.09V84.9509H41.963V103.417Z" fill="white"/>
<path d="M49.1341 103.417H46.8138V85.6598H49.1341V93.5715H57.2874V85.6598H59.5916V103.417H57.2874V95.3439H49.1341V103.417Z" fill="white"/>
<path d="M70.1465 103.401V101.612C69.2978 101.87 68.664 101.999 68.2451 101.999C67.7187 101.999 67.2675 101.897 66.8916 101.693C66.5156 101.488 66.2417 101.166 66.0698 100.726C65.8979 100.285 65.812 99.5012 65.812 98.3732V92.4113H69.5341V90.6388H65.812V87.6096H63.6689V90.6388H61.4614V92.4113H63.6689V98.9855C63.6689 100.318 63.8354 101.29 64.1684 101.902C64.5014 102.504 64.9848 102.966 65.6186 103.288C66.2632 103.61 66.9829 103.771 67.7778 103.771C68.3257 103.771 69.1152 103.648 70.1465 103.401Z" fill="white"/>
<path d="M79.8956 101.612V103.401C78.8644 103.648 78.0748 103.771 77.527 103.771C76.7321 103.771 76.0123 103.61 75.3678 103.288C74.734 102.966 74.2506 102.504 73.9176 101.902C73.5846 101.29 73.4181 100.318 73.4181 98.9855V92.4113H71.2106V90.6388H73.4181V87.6096H75.5612V90.6388H79.2833V92.4113H75.5612V98.3732C75.5612 99.5012 75.6471 100.285 75.819 100.726C75.9908 101.166 76.2648 101.488 76.6407 101.693C77.0167 101.897 77.4679 101.999 77.9943 101.999C78.4132 101.999 79.047 101.87 79.8956 101.612Z" fill="white"/>
<path fill-rule="evenodd" clip-rule="evenodd" d="M81.6687 108.38H83.7957V101.193C84.2469 101.977 84.6604 102.525 85.0364 102.837C85.4124 103.148 85.8421 103.379 86.3255 103.529C86.8089 103.691 87.3245 103.771 87.8724 103.771C89.5481 103.771 90.8533 103.132 91.7879 101.854C92.7225 100.565 93.1897 98.9479 93.1897 97.0036C93.1897 95.693 92.9642 94.5114 92.513 93.4587C92.0726 92.4059 91.4495 91.6164 90.6438 91.09C89.8382 90.5529 88.9466 90.2844 87.969 90.2844C87.4319 90.2844 86.9109 90.3703 86.406 90.5422C85.9119 90.7033 85.4607 90.9396 85.0525 91.2512C84.6551 91.5627 84.2361 92.0998 83.7957 92.8625V90.6388H81.6687V108.38ZM84.7303 100.613C84.1072 99.6784 83.7957 98.486 83.7957 97.0358C83.7957 96.0798 83.9407 95.1989 84.2308 94.3932C84.5208 93.5876 84.9558 92.9806 85.5359 92.5724C86.116 92.1642 86.7444 91.9601 87.4212 91.9601C88.345 91.9601 89.1668 92.3361 89.8865 93.0881C90.617 93.8293 90.9822 95.1559 90.9822 97.068C90.9822 98.7116 90.6385 99.947 89.951 100.774C89.2742 101.591 88.4148 101.999 87.3728 101.999C86.2342 101.999 85.3533 101.537 84.7303 100.613Z" fill="white"/>
<path d="M16.8944 75.9167H19.0213V69.6003C19.0213 67.8171 19.3973 66.5763 20.1492 65.8781C20.9012 65.1691 21.68 64.8146 22.4857 64.8146C23.0443 64.8146 23.576 64.9382 24.0809 65.1852V62.9777C23.7586 62.8488 23.3773 62.7844 22.9368 62.7844C22.4534 62.7844 21.9754 62.881 21.5028 63.0744C21.0301 63.257 20.5843 63.5256 20.1653 63.8801C19.7571 64.2346 19.3758 64.7394 19.0213 65.3947V63.1388H16.8944V75.9167Z" fill="white"/>
<path d="M28.9099 32.7278C28.1318 31.9496 28.1318 30.6881 28.9099 29.9099L-nan -nanCnan nan nan nan -nan -nanC-nan -nan -nan -nan -nan -nanC-nan -nan -nan -nan -nan -nanC-nan -nan -nan -nan -nan -nanC-nan -nan -nan -nan -nan -nanC-nan -nan -nan -nan -nan -nanC-nan -nan -nan -nan -nan -nanC-nan -nan -nan -nan -nan -nanC-nan -nan -nan -nan -nan -nanC-nan -nan -nan -nan -nan -nanC-nan -nan -nan -nan -nan -nanC-nan -nan -nan -nan -nan -nanC-nan -nan -nan -nan -nan -nanC-nan -nan -nan -nan -nan -nanC-nan -nan -nan -nan -nan -nanC-nan -nan -nan -nan -nan -nanC-nan -nan -nan -nan -nan -nanC-nan -nan -nan -nan -nan -nanC-nan -nan -nan -nan -nan -nanC-nan -nan -nan -nan -nan -nanC-nan -nan -nan -nan -nan -nanC-nan -nan -nan -nan -nan -nanC-nan -nan -nan -nan -nan -nanC-nan -nan -nan -nan -nan -nanC-nan -nan -nan -nan -nan -nanC-nan -nan -nan -nan -nan -nanC-nan -nan -nan -nan -nan -nanC-nan -nan -nan -nan -nan -nanC-nan -nan -nan -nan -nan -nanC-nan -nan -nan -nan -nan -nanCnan nan nan nan nan nanLnan nanCnan nan nan nan -nan -nanC-nan -nan -nan -nan -nan -nanC-nan -nan -nan -nan -nan -nanC-nan -nan -nan -nan -nan -nanC-nan -nan -nan -nan -nan -nanC-nan -nan -nan -nan -nan -nanC-nan -nan -nan -nan -nan -nanC-nan -nan -nan -nan -nan -nanC-nan -nan -nan -nan -nan -nanC-nan -nan -nan -nan -nan -nanC-nan -nan -nan -nan -nan -nanC-nan -nan -nan -nan -nan -nanC-nan -nan -nan -nan -nan -nanC-nan -nan -nan -nan -nan -nanC-nan -nan -nan -nan -nan -nanC-nan -nan -nan -nan -nan -nanC-nan -nan -nan -nan -nan -nanC-nan -nan -nan -nan -nan -nanC-nan -nan -nan -nan -nan -nanC-nan -nan -nan -nan -nan -nanC-nan -nan -nan -nan -nan -nanC-nan -nan -nan -nan -nan -nanC-nan -nan -nan -nan -nan -nanC-nan -nan -nan -nan -nan -nanC-nan -nan -nan -nan -nan -nanC-nan -nan -nan -nan -nan -nanC-nan -nan -nan -nan -nan -nanC-nan -nan -nan -nan -nan -nanC-nan -nan -nan -nan -nan -nanC-nan -nan -nan -nan -nan -nanCnan nan nan nan -nan -nanL28.9099 29.9099C29.6881 29.1318 30.9496 29.1318 31.7278 29.9099L47.7894 45.9715L52.2979 41.463L36.2363 25.4014C35.4582 24.6233 35.4582 23.3617 36.2363 22.5836L-nan -nanCnan nan nan nan -nan -nanC-nan -nan -nan -nan -nan -nanC-nan -nan -nan -nan -nan -nanC-nan -nan -nan -nan -nan -nanC-nan -nan -nan -nan -nan -nanC-nan -nan -nan -nan -nan -nanC-nan -nan -nan -nan -nan -nanC-nan -nan -nan -nan -nan -nanC-nan -nan -nan -nan -nan -nanC-nan -nan -nan -nan -nan -nanC-nan -nan -nan -nan -nan -nanC-nan -nan -nan -nan -nan -nanC-nan -nan -nan -nan -nan -nanC-nan -nan -nan -nan -nan -nanC-nan -nan -nan -nan -nan -nanC-nan -nan -nan -nan -nan -nanC-nan -nan -nan -nan -nan -nanC-nan -nan -nan -nan -nan -nanC-nan -nan -nan -nan -nan -nanC-nan -nan -nan -nan -nan -nanC-nan -nan -nan -nan -nan -nanC-nan -nan -nan -nan -nan -nanC-nan -nan -nan -nan -nan -nanC-nan -nan -nan -nan -nan -nanC-nan -nan -nan -nan -nan -nanC-nan -nan -nan -nan -nan -nanC-nan -nan -nan -nan -nan -nanC-nan -nan -nan -nan -nan -nanC-nan -nan -nan -nan -nan -nanC-nan -nan -nan -nan -nan -nanCnan nan nan nan nan nanLnan nanCnan nan nan nan -nan -nanC-nan -nan -nan -nan -nan -nanC-nan -nan -nan -nan -nan -nanC-nan -nan -nan -nan -nan -nanC-nan -nan -nan -nan -nan -nanC-nan -nan -nan -nan -nan -nanC-nan -nan -nan -nan -nan -nanC-nan -nan -nan -nan -nan -nanC-nan -nan -nan -nan -nan -nanC-nan -nan -nan -nan -nan -nanC-nan -nan -nan -nan -nan -nanC-nan -nan -nan -nan -nan -nanC-nan -nan -nan -nan -nan -nanC-nan -nan -nan -nan -nan -nanC-nan -nan -nan -nan -nan -nanC-nan -nan -nan -nan -nan -nanC-nan -nan -nan -nan -nan -nanC-nan -nan -nan -nan -nan -nanC-nan -nan -nan -nan -nan -nanC-nan -nan -nan -nan -nan -nanC-nan -nan -nan -nan -nan -nanC-nan -nan -nan -nan -nan -nanC-nan -nan -nan -nan -nan -nanC-nan -nan -nan -nan -nan -nanC-nan -nan -nan -nan -nan -nanC-nan -nan -nan -nan -nan -nanC-nan -nan -nan -nan -nan -nanC-nan -nan -nan -nan -nan -nanC-nan -nan -nan -nan -nan -nanC-nan -nan -nan -nan -nan -nanCnan nan nan nan -nan -nanL36.2363 22.5836C37.0144 21.8055 38.276 21.8055 39.0541 22.5836L60.1878 43.7173C62.9349 46.4644 63.2574 50.718 61.1552 53.8188C60.9253 54.1579 60.9442 54.6179 61.2339 54.9076L100.483 94.1563C102.506 96.1794 102.506 99.4596 100.483 101.483C98.4596 103.506 95.1794 103.506 93.1563 101.483L53.9076 62.2339C53.6179 61.9442 53.1579 61.9253 52.8188 62.1552C49.718 64.2574 45.4644 63.9349 42.7173 61.1878L21.5836 40.0541C20.8055 39.276 20.8055 38.0144 21.5836 37.2363L-nan -nanCnan nan nan nan -nan -nanC-nan -nan -nan -nan -nan -nanC-nan -nan -nan -nan -nan -nanC-nan -nan -nan -nan -nan -nanC-nan -nan -nan -nan -nan -nanC-nan -nan -nan -nan -nan -nanC-nan -nan -nan -nan -nan -nanC-nan -nan -nan -nan -nan -nanC-nan -nan -nan -nan -nan -nanC-nan -nan -nan -nan -nan -nanC-nan -nan -nan -nan -nan -nanC-nan -nan -nan -nan -nan -nanC-nan -nan -nan -nan -nan -nanC-nan -nan -nan -nan -nan -nanC-nan -nan -nan -nan -nan -nanC-nan -nan -nan -nan -nan -nanC-nan -nan -nan -nan -nan -nanC-nan -nan -nan -nan -nan -nanC-nan -nan -nan -nan -nan -nanC-nan -nan -nan -nan -nan -nanC-nan -nan -nan -nan -nan -nanC-nan -nan -nan -nan -nan -nanC-nan -nan -nan -nan -nan -nanC-nan -nan -nan -nan -nan -nanC-nan -nan -nan -nan -nan -nanC-nan -nan -nan -nan -nan -nanC-nan -nan -nan -nan -nan -nanC-nan -nan -nan -nan -nan -nanC-nan -nan -nan -nan -nan -nanC-nan -nan -nan -nan -nan -nanCnan nan nan nan nan nanLnan nanCnan nan nan nan -nan -nanC-nan -nan -nan -nan -nan -nanC-nan -nan -nan -nan -nan -nanC-nan -nan -nan -nan -nan -nanC-nan -nan -nan -nan -nan -nanC-nan -nan -nan -nan -nan -nanC-nan -nan -nan -nan -nan -nanC-nan -nan -nan -nan -nan -nanC-nan -nan -nan -nan -nan -nanC-nan -nan -nan -nan -nan -nanC-nan -nan -nan -nan -nan -nanC-nan -nan -nan -nan -nan -nanC-nan -nan -nan -nan -nan -nanC-nan -nan -nan -nan -nan -nanC-nan -nan -nan -nan -nan -nanC-nan -nan -nan -nan -nan -nanC-nan -nan -nan -nan -nan -nanC-nan -nan -nan -nan -nan -nanC-nan -nan -nan -nan -nan -nanC-nan -nan -nan -nan -nan -nanC-nan -nan -nan -nan -nan -nanC-nan -nan -nan -nan -nan -nanC-nan -nan -nan -nan -nan -nanC-nan -nan -nan -nan -nan -nanC-nan -nan -nan -nan -nan -nanC-nan -nan -nan -nan -nan -nanC-nan -nan -nan -nan -nan -nanC-nan -nan -nan -nan -nan -nanC-nan -nan -nan -nan -nan -nanC-nan -nan -nan -nan -nan -nanCnan nan nan nan -nan -nanL21.5836 37.2363C22.3617 36.4582 23.6233 36.4582 24.4014 37.2363L40.463 53.2979L44.9715 48.7894L28.9099 32.7278Z" fill="white"/>
</svg>
