<svg xmlns="http://www.w3.org/2000/svg" xmlns:xlink="http://www.w3.org/1999/xlink" width="32" height="32" viewBox="0 0 32 32" fill="none"><defs><rect id="path_0" x="0" y="0" width="18" height="18" /></defs><g opacity="1" transform="translate(0 0)  rotate(0 16 15.999999999999998)"><path id="矩形 1" fill-rule="evenodd"  transform="translate(0 0)  rotate(0 16 15.999999999999998)" opacity="1" d="M0,32L32,32L32,0L0,0L0,32Z " /><g opacity="1" transform="translate(7 8)  rotate(0 9 9)"><mask id="bg-mask-0" fill="white"><use xlink:href="#path_0"></use></mask><g mask="url(#bg-mask-0)" ><path id="路径 1" fill-rule="evenodd" style="fill:#000000" transform="translate(0.5302450546875006 2.2001941757812444)  rotate(0 3.611359221679684 7.5066990292968745)" opacity="0.2" d="M5.71,13.38L7.22,12.43L5.23,8.52C5.7,7.32 6.04,6.07 6.26,4.79C6.49,3.48 6.59,2.16 6.54,0.83L5.06,0.04L0.55,0L0.55,1.6L4.78,1.6C4.83,2.6 4.74,3.6 4.53,4.57C4.42,5.07 4.28,5.55 4.11,6.03L2.36,2.85L0.93,3.77L3.25,8.45C2.91,9.4 2.45,10.32 1.9,11.17C1.35,11.99 0.72,12.75 0,13.42L1.21,15.01C2.56,13.86 3.6,12.38 4.22,10.72L5.71,13.38Z " /><path id="路径 2" fill-rule="evenodd" style="fill:#000000" transform="translate(5.867332435546861 0.5248218971430534)  rotate(0 6.063347484174301 8.737589051428472)" opacity="0.2" d="M6.27,15.36C6.35,15.69 6.5,15.99 6.72,16.24C6.99,16.55 7.35,16.78 7.76,16.88L10.15,16.95C10.34,16.91 10.52,16.84 10.68,16.75C11.35,16.38 11.61,15.71 11.81,15.18C12.09,14.39 12.19,13.56 12.09,12.73L10.34,12.08C10.36,12.71 10.34,13.34 10.29,13.96C10.23,14.58 10.17,14.82 9.98,15C9.67,15.3 9.19,15.29 8.88,15.29C8.54,15.29 8.2,15.21 7.9,15.06L7.95,10.4C7.74,10.13 7.4,9.99 7.05,10.03L7.11,9.16C7.75,9.14 8.37,8.97 8.94,8.68L9.02,11.55L10.79,11.52L10.74,1.07L9.95,0.96C7.82,-0.3 5.19,-0.32 3.04,0.9L3.99,1.94C5.35,1 7.02,0.87 8.2,1.63C8.84,2.06 9.32,2.7 9.55,3.43C9.82,4.32 9.74,5.27 9.33,6.1C9.17,6.41 8.71,7.37 7.61,7.81C6.87,8.09 6.05,8.09 5.31,7.81C4.58,7.56 3.95,7.09 3.51,6.47C3.24,6.06 3.05,5.62 2.95,5.14C2.81,4.51 2.83,3.86 3,3.23L1.99,2.77L1.99,11.72L3.74,11.74L3.76,8.71C4.23,9.02 4.78,9.18 5.34,9.19C4.86,12.21 2.83,14.77 0,15.93L1.15,17.48C3.32,16.46 5.1,14.77 6.24,12.67L6.27,15.36Z " /><path id="路径 3" fill-rule="evenodd" style="fill:#000000" transform="translate(9.958809255279725 2.9246252608389316)  rotate(0 2.1772841109365593 2.158350477681839)" opacity="0.2" d="M3.13,2.21C3.07,2.71 2.62,3.07 2.12,3.02C1.87,2.99 1.65,2.86 1.5,2.66C1.36,2.47 1.29,2.22 1.33,1.98L0.12,1.3C-0.09,1.94 -0.02,2.63 0.3,3.21C0.54,3.62 0.9,3.95 1.34,4.14C1.45,4.19 2.43,4.59 3.36,4C4.23,3.45 4.33,2.48 4.34,2.29C4.46,1.25 3.76,0.29 2.74,0.07C2.11,-0.08 1.44,0.02 0.88,0.36L1.64,1.31C1.9,1.18 2.2,1.16 2.48,1.26C2.88,1.4 3.15,1.79 3.13,2.21Z " /><path id="路径 4" fill-rule="evenodd" style="fill:#FFFFFF" transform="translate(0.005973205078106503 1.6759223261718708)  rotate(0 3.611359221679695 7.5066990292968745)" opacity="1" d="M2.36,2.85L0.93,3.77L3.25,8.45C2.91,9.4 2.45,10.32 1.9,11.17C1.35,11.99 0.72,12.75 0,13.42L1.21,15.01C2.56,13.86 3.6,12.38 4.22,10.72L5.71,13.38L7.22,12.43L5.23,8.52C5.7,7.32 6.04,6.07 6.26,4.79C6.49,3.48 6.59,2.16 6.54,0.83L5.06,0.04L0.55,0L0.55,1.6L4.78,1.6C4.83,2.6 4.74,3.6 4.53,4.57C4.42,5.07 4.28,5.55 4.11,6.03L2.36,2.85Z " /><path id="路径 5" fill-rule="evenodd" style="fill:#FFFFFF" transform="translate(5.343060585937489 0.0005500475336788213)  rotate(0 6.063347484174299 8.737589051428472)" opacity="1" d="M8.94,8.68L9.02,11.55L10.79,11.52L10.74,1.07L9.95,0.96C7.82,-0.3 5.19,-0.32 3.04,0.9L3.99,1.94C5.35,1 7.02,0.87 8.2,1.63C8.84,2.06 9.32,2.7 9.55,3.43C9.82,4.32 9.74,5.27 9.33,6.1C9.17,6.41 8.71,7.37 7.61,7.81C6.87,8.09 6.05,8.09 5.31,7.81C4.58,7.56 3.95,7.09 3.51,6.47C3.24,6.06 3.05,5.62 2.95,5.14C2.81,4.51 2.83,3.86 3,3.23L1.99,2.77L1.99,11.72L3.74,11.74L3.76,8.71C4.23,9.02 4.78,9.18 5.34,9.19C4.86,12.21 2.83,14.77 0,15.93L1.15,17.48C3.32,16.46 5.1,14.77 6.24,12.67L6.27,15.36C6.35,15.69 6.5,15.99 6.72,16.24C6.99,16.55 7.35,16.78 7.76,16.88L10.15,16.95C10.34,16.91 10.52,16.84 10.68,16.75C11.35,16.38 11.61,15.71 11.81,15.18C12.09,14.39 12.19,13.56 12.09,12.73L10.34,12.08C10.36,12.71 10.34,13.34 10.29,13.96C10.23,14.58 10.17,14.82 9.98,15C9.67,15.3 9.19,15.29 8.88,15.29C8.54,15.29 8.2,15.21 7.9,15.06L7.95,10.4C7.74,10.13 7.4,9.99 7.05,10.03L7.11,9.16C7.75,9.14 8.37,8.97 8.94,8.68Z " /><path id="路径 6" fill-rule="evenodd" style="fill:#FFFFFF" transform="translate(9.434537405670344 2.40035342383117)  rotate(0 2.1772841185735605 2.1583504713810253)" opacity="1" d="M3.36,4C4.23,3.45 4.33,2.48 4.34,2.29C4.46,1.25 3.76,0.29 2.74,0.07C2.11,-0.08 1.44,0.02 0.88,0.36L1.64,1.31C1.9,1.18 2.2,1.16 2.48,1.26C2.88,1.4 3.15,1.79 3.13,2.21C3.07,2.71 2.62,3.07 2.12,3.02C1.87,2.99 1.65,2.86 1.5,2.66C1.36,2.47 1.29,2.22 1.33,1.98L0.12,1.3C-0.09,1.94 -0.02,2.63 0.3,3.21C0.54,3.62 0.9,3.95 1.34,4.14C1.45,4.19 2.43,4.59 3.36,4Z " /></g></g></g></svg>