<svg xmlns="http://www.w3.org/2000/svg" xmlns:xlink="http://www.w3.org/1999/xlink" width="32" height="32" viewBox="0 0 32 32" fill="none"><g opacity="1" transform="translate(0 0)  rotate(0 16 16)"><path id="矩形 1" fill-rule="evenodd" transform="translate(0 0)  rotate(0 16 16)" opacity="1" d="M0,32L32,32L32,0L0,0L0,32Z " /><path id="分组 1" fill-rule="evenodd" style="fill:#FFFFFF" transform="translate(5.967999999999961 5)  rotate(0 10.032000000000014 11.000000000000004)" opacity="1" d="M9.43 3.847C9.08 3.887 8.73 3.947 8.39 4.047L7.85 4.207L7.87 4.247C6.91 4.647 6.07 5.277 5.46 6.107C4.7 7.117 4.29 8.317 4.29 9.577C4.29 10.437 4.43 11.217 4.7 11.917C5.07 12.847 5.62 13.477 6.11 13.997L6.2 14.087C6.39 14.277 6.55 14.447 6.66 14.587C6.8 14.767 6.83 14.877 6.84 14.927C6.94 15.467 6.95 16.157 6.95 16.237L6.95 16.277C6.95 17.117 7.63 17.797 8.47 17.797L11.61 17.797C12.44 17.797 13.12 17.117 13.12 16.277L13.12 16.237C13.12 16.227 13.12 15.497 13.23 14.927C13.24 14.877 13.28 14.807 13.32 14.727C13.42 14.567 13.63 14.347 13.86 14.107L13.87 14.087C14.26 13.687 14.73 13.187 15.11 12.477C15.57 11.647 15.79 10.667 15.79 9.577C15.79 8.317 15.38 7.117 14.62 6.107C13.99 5.287 13.17 4.657 12.22 4.257L12.23 4.217L11.67 4.047C11.34 3.947 10.99 3.887 10.64 3.847L10.58 3.847C10.37 3.827 10.21 3.817 10.04 3.817L10.02 3.817C9.86 3.817 9.69 3.827 9.48 3.847L9.43 3.847Z M9.995 5.093C9.885 5.093 9.755 5.103 9.605 5.113L9.555 5.113C9.335 5.133 9.105 5.183 8.865 5.243L8.755 5.283C7.855 5.543 7.025 6.113 6.455 6.873C5.875 7.653 5.555 8.593 5.555 9.583C5.555 10.473 5.725 11.213 6.075 11.873C6.375 12.453 6.795 12.883 7.125 13.233L7.195 13.303C7.425 13.553 7.645 13.783 7.835 14.073C7.965 14.293 8.045 14.503 8.085 14.703C8.175 15.143 8.215 15.673 8.195 16.243L8.195 16.293C8.195 16.353 8.225 16.423 8.275 16.463C8.315 16.523 11.585 16.543 11.585 16.543C11.725 16.543 11.835 16.433 11.835 16.293L11.835 16.243C11.845 15.673 11.895 15.143 11.965 14.703C12.045 14.313 12.255 14.013 12.405 13.813C12.565 13.613 12.735 13.443 12.915 13.253L13.035 13.133C13.465 12.683 13.905 12.193 14.195 11.463L14.205 11.433C14.415 10.883 14.505 10.283 14.505 9.593C14.505 8.603 14.205 7.663 13.605 6.883C13.035 6.123 12.215 5.563 11.305 5.293L11.185 5.263C10.955 5.193 10.725 5.153 10.505 5.123L10.435 5.113C10.295 5.103 10.175 5.093 10.065 5.093L9.995 5.093Z M8.483 18.293C8.133 18.293 7.843 18.583 7.843 18.943C7.843 19.293 8.133 19.583 8.483 19.583L11.593 19.583C11.943 19.583 12.233 19.293 12.233 18.943C12.233 18.583 11.943 18.293 11.583 18.293L8.483 18.293Z M8.483 19.756C8.133 19.756 7.843 20.046 7.843 20.396C7.843 20.746 8.133 21.046 8.483 21.046L11.593 21.046C11.943 21.046 12.233 20.756 12.233 20.396C12.233 20.056 11.943 19.756 11.583 19.756L8.483 19.756Z M11.416 21.252L8.646 21.252L8.646 21.362C8.646 21.722 9.186 22.002 9.656 22.002L10.416 22.002C10.886 22.002 11.426 21.722 11.426 21.362L11.426 21.332C11.416 21.322 11.416 21.302 11.416 21.302L11.416 21.252Z M10.683 2.16L10.683 0.65C10.683 0.29 10.393 0 10.033 0C9.673 0 9.383 0.29 9.383 0.65L9.383 2.16C9.383 2.51 9.673 2.81 10.033 2.81C10.393 2.81 10.683 2.52 10.683 2.16Z M17.965 4.586C18.075 4.466 18.135 4.306 18.135 4.126C18.135 3.946 18.075 3.786 17.955 3.666C17.835 3.546 17.665 3.476 17.495 3.476C17.315 3.476 17.145 3.546 17.025 3.666L15.975 4.726C15.855 4.856 15.785 5.016 15.785 5.196C15.785 5.366 15.855 5.536 15.975 5.656C16.095 5.776 16.255 5.846 16.435 5.846C16.605 5.846 16.775 5.776 16.895 5.656L17.965 4.586Z M4.094 5.656C4.214 5.536 4.274 5.366 4.274 5.196C4.274 5.016 4.214 4.856 4.094 4.726L3.024 3.666C2.904 3.546 2.734 3.476 2.564 3.476C2.384 3.476 2.224 3.546 2.104 3.666C1.984 3.786 1.914 3.946 1.914 4.126C1.914 4.296 1.984 4.466 2.104 4.586L3.164 5.656C3.294 5.776 3.454 5.836 3.634 5.836C3.804 5.836 3.974 5.776 4.094 5.656Z M17.909 9.702C17.549 9.702 17.259 9.992 17.259 10.352C17.259 10.712 17.549 11.002 17.909 11.002L19.419 11.002C19.779 11.002 20.059 10.712 20.059 10.352C20.059 10.002 19.779 9.702 19.419 9.702L17.909 9.702Z M0.65 9.702C0.29 9.702 0 9.992 0 10.352C0 10.712 0.29 11.002 0.65 11.002L2.16 11.002C2.52 11.002 2.81 10.712 2.81 10.352C2.79 10.002 2.51 9.702 2.15 9.702L0.65 9.702Z " /></g></svg>