<svg xmlns="http://www.w3.org/2000/svg" xmlns:xlink="http://www.w3.org/1999/xlink" width="32" height="32" viewBox="0 0 32 32" fill="none"><g opacity="1" transform="translate(0 0)  rotate(0 16 15.999999999999998)"><path id="矩形 1" fill-rule="evenodd"   transform="translate(0 0)  rotate(0 16 15.999999999999998)" opacity="1" d="M0,32L32,32L32,0L0,0L0,32Z " /><path id="文本 1" fill-rule="evenodd" style="fill:#464A2F" transform="translate(7 6.634570135746571)  rotate(0 9 9.365429864253393)" opacity="1" d="M15.88 9.61L9.86 9.61L9.86 5.54L18 5.54L18 4.07L9.86 4.07L9.86 0L8.14 0L8.14 4.07L0 4.07L0 5.54L8.14 5.54L8.14 9.61L2.36 9.61L2.36 18.73L3.99 18.73L3.99 17.35L14.25 17.35L14.25 18.73L15.88 18.73L15.88 9.61ZM14.25 11.16L14.25 15.8L3.99 15.8L3.99 11.16L14.25 11.16Z" /></g></svg>