<svg xmlns="http://www.w3.org/2000/svg" xmlns:xlink="http://www.w3.org/1999/xlink" width="400" height="400" viewBox="0 0 400 400" fill="none"><defs><rect id="path_0" x="0" y="0" width="400" height="400" /></defs><g opacity="1" transform="translate(0 0)  rotate(0 200 200)"><mask id="bg-mask-0" fill="white"><use xlink:href="#path_0"></use></mask><g mask="url(#bg-mask-0)" ><g opacity="1" transform="translate(0 0)  rotate(0 200 200)"><g opacity="1" transform="translate(61 61)  rotate(0 139 139)"><g opacity="1" transform="translate(5.572000000001026 30.715000000000146)  rotate(0 133.31749999999874 108.33699999999999)"><path id="路径_12670" fill-rule="evenodd" style="fill:#FFFFFF" transform="translate(11.830999999999221 0)  rotate(0 127.40099999999984 91.07000000000016)" opacity="0.6" d="M251.51,46.78L254.8,41.86C209.66,17.23 153.02,0 153.02,0C153.02,0 113.99,91.23 0,180.5L2.46,182.14C98.38,156.07 149.49,120.87 235.92,45.96L251.51,46.78Z " /><path id="路径_12671" fill-rule="evenodd" style="fill:#FFFFFF" transform="translate(0 0.0009999999983847374)  rotate(0 82.42700000000013 74.57299999999987)" opacity="0.2" d="M0,147.5L2.46,149.15C21.02,147.67 39.45,144.95 57.64,141.01C136.51,66.21 164.85,0 164.85,0C164.85,0 126.97,87.76 0,147.5Z " /><path id="路径_12672" fill-rule="evenodd" style="fill:#FFFFFF" transform="translate(29.433999999997468 0)  rotate(0 118.60050000000001 108.33699999999999)" opacity="1" d="M233.91,46.78L237.2,41.86C192.06,17.23 135.42,0 135.42,0C135.42,0 86.18,119.01 0,215.04L2.46,216.67C96.03,171.54 147.73,130.5 218.31,45.96L233.91,46.78Z " /></g></g></g></g></g></svg>