<svg xmlns="http://www.w3.org/2000/svg" xmlns:xlink="http://www.w3.org/1999/xlink" width="32" height="32" viewBox="0 0 32 32" fill="none"><defs><rect id="path_0" x="0" y="0" width="24" height="24" /></defs><g opacity="1" transform="translate(0 0)  rotate(0 16 15.999999999999998)"><path id="矩形 1" fill-rule="evenodd" transform="translate(0 0)  rotate(0 16 15.999999999999998)" opacity="1" d="M0,32L32,32L32,0L0,0L0,32Z " /><g opacity="1" transform="translate(4 4)  rotate(0 12 12)"><mask id="bg-mask-0" fill="white"><use xlink:href="#path_0"></use></mask><g mask="url(#bg-mask-0)" ><path id="分组 1" fill-rule="evenodd" style="fill:#FFFFFF" transform="translate(7.326397546840733 9.459140624999995)  rotate(0 7.42918403907964 2.540934512214795)" opacity="1" d="M9.76192 3.81039C9.88192 4.91039 11.3919 5.05039 11.3919 5.05039C11.3919 5.05039 12.9119 5.14039 13.6219 4.48039C14.0419 4.09039 14.8619 0.0303906 14.8619 0.0303906L13.6619 0.0303906C13.6619 0.0303906 13.0219 2.47039 12.7319 3.45039C12.6319 3.79039 12.1219 4.04039 11.6319 3.96039C11.1319 3.84039 10.9819 3.78039 11.0519 3.37039C11.2119 2.44039 11.8519 0.0203906 11.8519 0.0203906L10.6019 0.0203906C10.6019 0.0203906 9.72192 3.42039 9.76192 3.81039Z M3.66837 0.997969L4.94837 0.997969C5.06837 0.437969 5.14837 0.0379688 5.14837 0.0379688L3.88837 0.0379688C3.88837 0.0379688 3.79837 0.447969 3.66837 0.997969Z M2.09 0L0.84 0C0.84 0 -0.06 3.41 0 3.79C0.11 4.49 0.91 5.11 1.63 5.01L1.84 3.98C1.51 3.82 1.17 3.78 1.25 3.34C1.44 2.34 2.09 0 2.09 0Z M3.1279 3.19586C3.0079 3.62586 2.6279 3.98586 2.1779 3.98586L1.9579 5.02586C2.6779 5.27586 3.6679 4.65586 4.0279 4.09586C4.3179 3.64586 4.6679 2.23586 4.8979 1.20586L3.6179 1.20586C3.4579 1.87586 3.2579 2.68586 3.1279 3.19586Z " /><path id="路径 5" fill-rule="evenodd" style="fill:#FFFFFF" transform="translate(13.89046875000005 9.516562499999983)  rotate(0 1.549921875 1.6233053652418745)" opacity="1" d="M0,3.22L0.42,3.24C0.97,3.24 1.31,3.32 1.98,3.05C2.98,2.64 3.1,1.85 3.1,1.38C3.1,0.59 2.55,0.16 2.17,0.07C2.02,0.04 1.81,0.02 1.56,0L1.39,1C1.49,1.01 1.59,1.02 1.65,1.05C1.68,1.06 1.95,1.2 1.95,1.47C1.95,1.85 1.57,2.12 1.48,2.15C1.18,2.27 0.69,2.2 0.23,2.2L0,3.22Z " /><path id="路径 6" fill-rule="evenodd" style="fill:#FFFFFF" transform="translate(12.007265625000025 9.481874999999981)  rotate(0 1.5708984375000021 2.5100390625)" opacity="1" d="M0,5.02L1.22,5.02L1.57,3.31L2.08,1.03L2.53,1.04C2.53,1.04 2.76,1.02 3,1.02L3.14,0.2L2.32,0.2L2.32,0L2.3,0L1.23,0L0,5.02Z " /><path id="路径 7" fill-rule="evenodd" style="fill:#FFFFFF" transform="translate(1.8154687500000048 9.497109375000015)  rotate(0 2.7022265624999995 2.521875)" opacity="1" d="M2.65,2.7L3.51,2.7L3.01,5.03L4.33,5.04L4.83,2.7L5.02,1.8L5.4,0L4.09,0L3.7,1.8L2.64,1.8L2.64,1.8L2.01,1.8L2.39,0L1.07,0L0,5.03L1.32,5.04L1.82,2.7L2.65,2.7L2.65,2.7Z " /></g></g></g></svg>