<svg xmlns="http://www.w3.org/2000/svg" xmlns:xlink="http://www.w3.org/1999/xlink" width="32" height="32" viewBox="0 0 32 32" fill="none"><defs><rect id="path_0" x="0" y="0" width="22" height="22" /></defs><g opacity="1" transform="translate(0 0)  rotate(0 16 15.999999999999998)"><path id="矩形 1" fill-rule="evenodd"  transform="translate(0 0)  rotate(0 16 15.999999999999998)" opacity="1" d="M0,32L32,32L32,0L0,0L0,32Z " /><g opacity="1" transform="translate(5 5)  rotate(0 11 11)"><mask id="bg-mask-0" fill="white"><use xlink:href="#path_0"></use></mask><g mask="url(#bg-mask-0)" ><path id="路径 1" fill-rule="evenodd" style="fill:#000000" transform="translate(4.179999999999986 0.054999999999985505)  rotate(0 6.709999999999999 10.9725)" opacity="1" d="M7.43,1.85L8.37,1.3L6.08,0L6.08,5.75L2.76,5.75L2.76,5.11L1.25,4.17L1.25,16.85C1.25,16.85 1.22,19.61 0,21.95C0,21.95 2.75,19.65 2.75,15.31L2.76,6.27L6.08,6.27L6.08,8.52L4.15,8.52L4.15,9.03L6.08,9.03L6.08,10.98C6.08,11.72 6.67,12.31 7.37,12.31L11.39,12.31C11.75,12.31 12.05,12 12.05,11.64L12.05,9.67L11.24,10.97L7.43,10.97L7.43,9.03L10.19,9.03L10.19,8.52L7.43,8.52L7.43,6.27L11.57,6.27L11.22,7.85L13.42,5.76L12.06,4.18L11.69,5.76L7.43,5.76L7.43,3.73L10.19,3.73L10.19,3.22L7.43,3.22L7.43,1.85Z " /><path id="路径 2" fill-rule="evenodd" style="fill:#000000" transform="translate(6.742999999999999 13.365000000000013)  rotate(0 5.744911153119093 4.218499999999998)" opacity="1" d="M6.37,0.89L6.37,1.03L3.32,1.03L3.32,0.89L2.06,0.01L2.06,4.56C2.06,4.56 2.11,6.9 0,8.44C0,8.44 3.32,6.75 3.32,4.49L3.32,1.55L6.35,1.55L6.35,7.07C6.35,7.4 6.61,7.68 6.93,7.68L10.53,7.68C10.67,7.68 10.81,7.63 10.93,7.55C12.02,6.71 11.18,3.49 11.18,3.49C11.34,5.98 10.22,6.24 10.22,6.24L7.88,6.24C7.74,6.24 7.63,6.13 7.63,5.98L7.63,0L6.37,0.89Z " /></g></g></g></svg>