<svg xmlns="http://www.w3.org/2000/svg" xmlns:xlink="http://www.w3.org/1999/xlink" width="30" height="30" viewBox="0 0 30 30" fill="none"><defs><rect id="path_0" x="0" y="0" width="30" height="30" /><rect id="path_1" x="0" y="0" width="24" height="24" /></defs><g opacity="1" transform="translate(0 0)  rotate(0 15 15)"><mask id="bg-mask" fill="white"><use xlink:href="#path_0"></use></mask><g mask="url(#bg-mask)" ><path id="矩形 1" fill-rule="evenodd"  transform="translate(0 0)  rotate(0 15 15)" opacity="1" d="M0,30L30,30L30,0L0,0L0,30Z " /><g opacity="1" transform="translate(3.04 3)  rotate(0 12 12)"><mask id="bg-mask" fill="white"><use xlink:href="#path_1"></use></mask><g mask="url(#bg-mask)" ><path id="路径 1" fill-rule="evenodd" style="fill:#FFCD00" transform="translate(1.500003646817901 1.9999921875000006)  rotate(0 10.499996353182098 10.166663969783627)" opacity="1" d="M10.83,0.19C10.76,0.06 10.63,0 10.5,0C10.37,0 10.24,0.06 10.17,0.19L7.04,6.02C6.99,6.12 6.89,6.2 6.78,6.22L0.29,7.43C0.01,7.48 -0.1,7.83 0.1,8.04L4.82,12.98C4.9,13.07 4.94,13.19 4.92,13.31L3.85,19.92C3.8,20.2 4.09,20.42 4.34,20.3L10.34,17.4C10.39,17.38 10.44,17.37 10.5,17.37C10.56,17.37 10.61,17.38 10.66,17.4L16.66,20.3C16.91,20.42 17.2,20.2 17.15,19.92L16.06,13.19L20.9,8.04C21.1,7.83 20.99,7.48 20.71,7.43L14.22,6.22C14.11,6.2 14.01,6.12 13.96,6.02L10.83,0.19Z " /><path id="分组 1" fill-rule="evenodd" style="fill:#F1A308" transform="translate(6.500009004029313 10.666664062499999)  rotate(0 6.333332222888913 3.6666631797659055)" opacity="1" d="M12.6533 4.33334L12.6533 4.33334C11.0033 5.03334 6.99332 6.20334 2.06332 6.03334C1.46332 6.01334 0.873322 5.94334 0.543322 5.88334C0.493322 5.87334 0.453322 5.85334 0.413322 5.83334C0.163322 6.12334 0.463322 6.34334 1.52332 6.55334C4.61332 7.18334 8.22332 7.46334 11.2533 7.27334L11.0433 6.00334C12.0733 5.26334 12.5733 4.62334 12.6333 4.53334C12.6933 4.42334 12.6533 4.33334 12.6533 4.33334Z M6.61 0.903332C6.51 0.813332 4.01 -0.0466681 0.19 0.523332C0.12 0.543332 0.05 0.523332 0 0.483332C-0.01 0.573332 0.09 0.653332 0.21 0.653332C2.91 0.843332 4.42 1.94333 4.89 2.33333C5.84 1.65333 6.57 1.14333 6.6 1.12333C6.69 1.06333 6.69 0.963332 6.61 0.903332 M9.78999 0.2C8.80999 1.02 6.03999 2.94 5.06999 3.68C4.94999 3.77 4.98999 3.9 5.11999 3.95C5.51999 4.1 5.96999 4.23 6.43999 4.33L10.18 0.77C10.48 0.46 10.31 0.08 9.93999 0C9.91999 0.07 9.85999 0.14 9.78999 0.2 " /><path id="路径 5" fill-rule="evenodd" style="fill:#FFFFFF" transform="translate(6.499998272744473 9.333335496564828)  rotate(0 6.500000863627765 3.833327901107212)" opacity="1" d="M6.76,2.12C6.84,2.18 6.83,2.28 6.75,2.34C6.68,2.4 2.08,5.7 0.7,6.87C0.48,7.05 0.54,7.44 0.89,7.5C1.23,7.56 1.82,7.63 2.41,7.65C7.34,7.82 11.35,6.66 13,5.97C13,5.97 12.95,5.81 12.69,5.83C11.44,5.95 7.63,5.92 5.38,5.05C5.26,5.01 5.22,4.88 5.33,4.79C6.27,4.07 8.96,2.2 9.9,1.39C10.09,1.23 10.14,1.03 9.91,0.86C9.48,0.54 7.96,0.01 6.21,0C3.69,-0.02 1.22,0.69 0.13,1.27C-0.13,1.4 0.03,1.77 0.29,1.73C4.14,1.13 6.66,2.02 6.76,2.12Z " /></g></g></g></g></svg>