<svg xmlns="http://www.w3.org/2000/svg" xmlns:xlink="http://www.w3.org/1999/xlink" width="32" height="32" viewBox="0 0 32 32" fill="none"><defs><rect id="path_0" x="0" y="0" width="20" height="19.98048780487805" /></defs><g opacity="1" transform="translate(0 0)  rotate(0 16 15.999999999999998)"><path id="矩形 1" fill-rule="evenodd" transform="translate(0 0)  rotate(0 16 15.999999999999998)" opacity="1" d="M0,32L32,32L32,0L0,0L0,32Z " /><g opacity="1" transform="translate(6 6.009756097560967)  rotate(0 10 9.990243902439024)"><mask id="bg-mask-0" fill="white"><use xlink:href="#path_0"></use></mask><g mask="url(#bg-mask-0)" ><g opacity="1" transform="translate(0.0002414448321199636 0)  rotate(0 9.786402963846152 9.990245098026364)"><path id="路径 1" fill-rule="evenodd" style="fill:#FFFFFF" transform="translate(0 0)  rotate(0 9.082373384901 8.46843041223162)" opacity="1" d="M10.25,11.51C9,12.85 6.96,12.55 6.16,10.86C5.76,9.96 5.71,9.02 5.86,8.02C6.26,5.48 7.61,3.64 10,2.69C12.39,1.74 14.63,1.99 16.62,3.69C17.07,4.08 17.52,4.43 18.16,4.98C16.67,1.84 12.79,0.2 9.5,1.2C6.61,2.04 5.07,4.13 4.22,6.82C3.97,7.57 3.82,8.37 3.62,9.11C3.12,7.72 3.17,6.33 3.77,4.98C4.77,2.69 6.76,1.39 8.95,0.45C9.2,0.35 9.5,0.3 9.75,0C7.7,0.2 5.96,0.8 4.52,2.09C2.08,4.28 1.43,7.07 1.78,10.21C1.83,10.66 1.98,11.11 1.93,11.61C1.68,11.46 1.63,11.21 1.53,11.01C0.83,9.21 1.13,7.27 1.03,5.38C0.48,6.38 0.18,7.47 0.03,8.62C-0.16,11.26 0.48,13.6 2.48,15.39C4.82,17.53 8.6,17.43 10.59,15.19C11.39,14.3 11.89,13.2 12.14,11.95C12.24,11.41 12.44,10.86 12.64,10.36C12.74,10.16 13.08,9.96 12.89,9.71C12.69,9.51 12.34,9.51 12.04,9.56C11.74,9.56 11.54,9.76 11.39,10.01C11.04,10.51 10.69,11.06 10.25,11.51Z " /><path id="路径 2" fill-rule="evenodd" style="fill:#FFFFFF" transform="translate(1.6780738332166456 3.371383213272937)  rotate(0 8.947366047237828 8.304553491389896)" opacity="1" d="M8.67,16.6C10.11,16.7 12.4,15.76 13.65,14.61C16.49,11.97 16.74,8.68 15.99,5.15C17.38,7.14 16.79,9.38 16.93,11.57C17.93,9.58 18.13,7.44 17.63,5.25C17.28,3.7 16.59,2.36 15.34,1.36C12.25,-1.18 6.87,-0.23 5.83,4.8C5.68,5.54 5.58,6.29 5.03,6.84C4.83,7.04 4.93,7.19 5.18,7.24C5.73,7.39 6.18,7.39 6.57,6.89C6.92,6.44 7.32,5.94 7.72,5.49C9.16,4 11.21,4.4 12,6.29C12.3,7.04 12.3,7.84 12.2,8.63C11.95,11.02 10.71,12.87 8.57,13.91C6.43,15.01 4.23,15.11 2.09,13.76C1.3,13.26 0.75,12.57 0,12.02C1.74,15.95 7.52,17.2 10.96,14.46C12.9,12.87 13.85,10.67 14.25,8.23C14.3,7.98 14.25,7.74 14.54,7.49C15.04,9.58 14.79,11.52 13.5,13.21C12.25,14.81 10.56,15.85 8.67,16.6Z " /><path id="路径 3" fill-rule="evenodd" style="fill:#FFFFFF" transform="translate(8.510946667481827 9.062066625304869)  rotate(0 1.4985281482353512 1.0736798200008413)" opacity="1" d="M0.34,1.25C0.19,1.45 -0.11,1.65 0.04,1.9C0.24,2.24 0.59,2.14 0.89,2.1C1.24,2 1.53,1.8 1.78,1.55L2.58,0.75C2.73,0.55 3.08,0.5 2.98,0.25C2.88,-0.05 2.53,0 2.33,0C1.34,-0.05 0.84,0.65 0.34,1.25Z " /></g></g></g></g></svg>