<svg width="128" height="128" viewBox="0 0 128 128" fill="none" xmlns="http://www.w3.org/2000/svg">

<path d="M92.7581 82.8205L73 109C77.9606 88.1656 80.4604 90.9542 69.2695 90.9995C69.1376 91 69.0352 90.8711 69.0702 90.744C72.0504 79.9366 75.2109 75.9349 66.4999 80C58 83.9666 56 80 48.9999 73.5C41.4614 66.5001 62 71 67.9999 67C64.9998 67 56.4999 66.5 46.9999 66.5C42.9999 66.5 37.4999 58 35.9999 52.5C34.7725 47.9996 42.9999 52.5 52.4999 54.5C61.9999 56.5 66.9999 56.5 66.9999 56.5C60.4999 54.3333 48.9999 50.6818 42.9999 48.5C38.5999 46.9 36.0832 46.5 34.4999 42C24.9999 15 34.4999 29.46 60.9999 39C92.6099 50.3797 101 50.5 93 64.5L82.1859 82.1957C82.1045 82.329 82.2004 82.5 82.3566 82.5H92.5984C92.7635 82.5 92.8575 82.6887 92.7581 82.8205Z" fill="white"/>

</svg>
