<svg xmlns="http://www.w3.org/2000/svg" xmlns:xlink="http://www.w3.org/1999/xlink" width="29.257142857142867" height="29.27917875474236" viewBox="0 0 29.257142857142867 29.27917875474236" fill="none"><g opacity="1" transform="translate(0 0)  rotate(0 14.628571428571428 14.639589377371133)"><path id="矩形 1" fill-rule="evenodd" transform="translate(0 0)  rotate(0 14.628571428571428 14.639589377371133)" opacity="1" d="M0,29.28L29.26,29.28L29.26,0L0,0L0,29.28Z " /><path id="路径 2" fill-rule="evenodd" style="fill:#FFFFFF" transform="translate(8.914285714285711 4.639589377371067)  rotate(0 5.714285714285716 9.999999999999998)" opacity="1" d="M10.02,16.84C10.52,16.13 11.06,15.15 11.2,14.69C11.56,13.48 11.49,11.16 11.06,9.97C10.32,7.91 8.62,6.13 9.03,7.86C9.12,8.26 9.05,8.55 8.8,8.78C8.35,9.2 8.22,9.2 7.65,8.83C7.27,8.55 7.22,8.26 7.22,5.74C7.22,2.96 7.22,2.94 6.43,1.5C5.39,-0.42 5.08,-0.48 5.08,1.23C5.08,2.86 4.72,3.59 2.71,6.2C0.41,9.16 0.02,10.08 0,12.35C0,14.04 0.07,14.37 0.7,15.59C1.42,16.94 2.57,18.3 3.02,18.3C3.36,18.3 3.36,18.32 2.48,16.75C1.87,15.65 1.69,15.11 1.69,14.23C1.69,12.96 2.39,11.02 3.05,10.47C3.48,10.12 3.5,10.12 3.48,11.35C3.45,12.04 3.59,12.79 3.75,13.02C4.4,14 6.27,14.44 7.38,13.9C8.08,13.54 8.35,13.98 8.33,15.44C8.31,16.92 7.9,17.82 6.7,18.97C6.16,19.49 5.96,19.82 6.12,19.97C6.46,20.28 8.96,18.28 10.02,16.84Z " /></g></svg>