<svg xmlns="http://www.w3.org/2000/svg" xmlns:xlink="http://www.w3.org/1999/xlink" width="32" height="32" viewBox="0 0 32 32" fill="none"><g opacity="1" transform="translate(0 0)  rotate(0 16 16)"><path id="路径 1" fill-rule="evenodd" transform="translate(0 0)  rotate(0 16 16)" opacity="1" d="M0,32L32,32L32,0L0,0L0,32Z " /><path id="分组 1" fill-rule="evenodd" style="fill:#FFFFFF" transform="translate(5.815650441327762 5.225488690200109)  rotate(0 10.171867464488104 10.103442968132457)" opacity="1" d="M20.34 20.13L20.34 10.1C20.35 7.42 19.28 4.84 17.36 2.96C13.38 -0.99 6.96 -0.99 2.98 2.96C1.07 4.85 0 7.42 0 10.1C0 12.79 1.07 15.36 2.98 17.25C4.89 19.15 7.48 20.22 10.17 20.21L15.24 20.21L15.24 10.1C15.24 7.33 12.97 5.07 10.17 5.07C7.38 5.07 5.1 7.33 5.1 10.1C5.1 12.88 7.37 15.13 10.16 15.14L12.64 15.17L12.64 17.63L10.17 17.63C5.99 17.63 2.6 14.25 2.6 10.1C2.6 5.95 5.99 2.58 10.17 2.58C14.35 2.58 17.75 5.95 17.75 10.1L17.75 20.13L20.34 20.13Z M8.01558 8.86715C7.56558 9.62715 7.56558 10.5772 8.01558 11.3471C8.45558 12.1072 9.28558 12.5772 10.1756 12.5571L10.1856 12.5571L12.6456 12.5872L12.6456 10.1072C12.6356 8.74715 11.5356 7.64715 10.1756 7.64715C9.28558 7.63715 8.45558 8.09715 8.01558 8.86715Z " /></g></svg>