<?xml version="1.0" encoding="UTF-8"?>
<svg width="128px" height="128px" viewBox="0 0 128 128" version="1.1" xmlns="http://www.w3.org/2000/svg" xmlns:xlink="http://www.w3.org/1999/xlink">
    <g id="石墨备份-2" stroke="none" stroke-width="1" fill="none" fill-rule="evenodd">

        <path d="M52.2736936,53.2883414 L56.7313864,53.2883414 C55.3580563,48.1675353 56.7313864,53.2883414 55.3580563,48.1675353 L62.7173031,48.1675353 L62.7173031,45.2776873 L49.9359661,45.2776873 C50.1859661,44.5276873 50.1990785,42.9151568 50.4990785,42.1151568 L45.5899201,42.1151568 C44.5254026,46.4859683 42.7552762,48.1675353 39,50.5035859 L39,54 C44.0161909,52.7843889 46.5236548,49.9675353 47.4236548,48.1675353 L51.0930314,48.1675353 C52.2736936,53.2883414 51.5508713,50.6079065 52.2736936,53.2883414 Z M31.2736936,53.2883414 L35.7313864,53.2883414 C34.3580563,48.1675353 35.7313864,53.2883414 34.3580563,48.1675353 L41.7173031,48.1675353 L41.7173031,45.2776873 L28.9359661,45.2776873 C29.1859661,44.5276873 29.1990785,42.9151568 29.4990785,42.1151568 L24.5899201,42.1151568 C23.5254026,46.4859683 21.7552762,48.1675353 18,50.5035859 L18,54 C23.0161909,52.7843889 25.5236548,49.9675353 26.4236548,48.1675353 L30.0930314,48.1675353 C31.2736936,53.2883414 30.5508713,50.6079065 31.2736936,53.2883414 Z M25.5342841,59.5948029 L30.2039988,59.5948029 C27.1709,52.951811 30.2039988,59.5948029 27.1709,52.951811 L22.5535856,52.951811 C25.5342841,59.5948029 22.5535856,52.951811 25.5342841,59.5948029 Z M54.5673031,86.2 C58.1673031,86.2 59.9673031,85.1828045 59.9673031,81.15 L59.9673031,54.7 L30.7173031,54.7 L30.7173031,58.05 L55.2673031,58.05 L55.2673031,79.85 C55.2673031,82.3645391 53.067583,83.4539073 48.6681427,83.1181048 L49.3784741,86.2 L54.5673031,86.2 Z M24.6173031,86.4 L24.6173031,60.45 L19.9173031,60.45 L19.9173031,86.4 L24.6173031,86.4 Z M49.8173031,76.05 L49.8173031,61.55 L49.8173031,61.55 L30.9673031,61.55 L30.9673031,81.05 L44.8173031,81.05 C47.5787269,81.05 49.8173031,78.8114237 49.8173031,76.05 Z M45.4173031,69.3 L35.4673031,69.3 L35.4673031,65.4 L45.4173031,65.4 L45.4173031,69.3 Z M45.4173031,77.1 L35.4673031,77.1 L35.4673031,73.1 L45.4173031,73.1 L45.4173031,77.1 Z M87.9673031,86.4 L87.9673031,66.35 L104.354284,66.35 C104.204284,71.9 104.920713,76.0577147 103.667303,77.3827916 C102.413894,78.7078686 99.0663053,78.2679705 97.1663053,78.2679705 L97.7824745,81.8129034 C102.465238,82.3952613 105.799715,81.8676742 107.785905,80.2301422 C110.76519,77.773844 109.49753,72.5505693 109.54753,62.5505693 L103.667303,62.5505693 L103.667303,50.65 L103.667303,48.35 L87.9673031,48.35 L87.9673031,42 L83.2173031,42 L83.2173031,48.35 L69.8173031,48.35 L69.8173031,52.9 L83.2173031,52.9 L83.2173031,62.8 L66.9673031,62.8 L66.9673031,66.35 L83.2173031,66.35 L83.2173031,86.4 L87.9673031,86.4 Z M105.939166,53.9942939 L110.865013,53.9942939 C110.577089,50.1848649 108.875897,47.0214873 105.939166,43.5172834 L101.42413,43.5172834 C104.131377,46.9763546 105.292096,49.8737723 105.939166,53.9942939 Z M98.9173031,62.8 L88.9673031,62.8 L88.9673031,52.9 L98.9173031,52.9 L98.9173031,62.8 Z" id="简书" fill="#F6523B" fill-rule="nonzero"></path>
    </g>
</svg>