<svg xmlns="http://www.w3.org/2000/svg" xmlns:xlink="http://www.w3.org/1999/xlink" width="32" height="32" viewBox="0 0 32 32" fill="none"><g opacity="1" transform="translate(0 0)  rotate(0 16 15.999999999999998)"><path id="矩形 1" fill-rule="evenodd"   transform="translate(0 0)  rotate(0 16 15.999999999999998)" opacity="1" d="M0,32L32,32L32,0L0,0L0,32Z " /><path id="文本 1" fill-rule="evenodd" style="fill:#FFFFFF" transform="translate(8.9 6)  rotate(0 6.100783874580069 10)" opacity="1" d="M10.4,18.31C10.4,18.31 12.2,16.61 12.2,12.77L12.2,0L8.3,0L8.3,12.39C8.3,12.39 8.3,14.46 7.74,15.44C7.74,15.44 7.18,16.42 5.83,16.42C5.83,16.42 4.81,16.42 4.18,15.83C4.18,15.83 3.55,15.24 3.23,14.03L0,15.75C0,15.75 0.51,17.9 2.07,18.95C2.07,18.95 3.63,20 5.81,20C5.81,20 8.6,20 10.4,18.31Z " /></g></svg>