<svg xmlns="http://www.w3.org/2000/svg" xmlns:xlink="http://www.w3.org/1999/xlink" width="160" height="160" viewBox="0 0 160 160" fill="none"><defs><rect id="path_0" x="0" y="0" width="160" height="160" /><path id="path_1"
        transform="translate(0 0) rotate(0 80 80)"
        d="M160,160L160,0L0,0L0,160L160,160Z" /></defs><g opacity="1" transform="translate(0 0)  rotate(0 80 80)"><mask id="bg-mask-0" fill="white"><use xlink:href="#path_0"></use></mask><g mask="url(#bg-mask-0)" ><g opacity="1" transform="translate(0 0)  rotate(0 80 80)"><g opacity="1" transform="translate(0 0)  rotate(0 80 80)"><g opacity="1" transform="translate(0 0)  rotate(0 80 80)"><mask id="mask-1" fill="white"><use xlink:href="#path_1"></use></mask><g mask="url(#mask-1)"></g><g mask="url(#mask-1)"><g opacity="1" transform="translate(0 0)  rotate(0 0.5 0.5)"></g></g><g mask="url(#mask-1)"><g opacity="1" transform="translate(37.68303112688591 33.05716746000053)  rotate(0 45.996249999999996 51.13)"><g opacity="1" transform="translate(0 0)  rotate(0 45.996249999999996 51.13)"><g opacity="1" transform="translate(0 0)  rotate(0 45.996249999999996 51.13)"><g opacity="1" transform="translate(0 0)  rotate(0 45.996249999999996 51.13)"><g opacity="1" transform="translate(0 0)  rotate(0 45.996249999999996 51.13)"><path id="形状结合" fill-rule="evenodd" style="fill:#FFFFFF" transform="translate(0 0)  rotate(0 45.996249999999996 51.13)" opacity="1" d="M66.89 102.26C69.25 102.26 71.41 100.96 72.52 98.88L91.25 63.71C92.24 61.84 92.24 59.59 91.25 57.72L61.71 2.25C60.97 0.87 59.53 0 57.96 0C56.39 0 54.95 0.87 54.21 2.25L45.99 17.68L37.78 2.25C37.05 0.87 35.6 0 34.03 0C32.46 0 31.02 0.87 30.28 2.25L0.75 57.72C-0.25 59.59 -0.25 61.84 0.75 63.71L19.47 98.88C20.58 100.96 22.74 102.26 25.1 102.26L66.89 102.26Z M55.5981 60.7104L55.5681 60.7104C55.5681 59.1604 55.1881 57.6104 54.4381 56.2104L51.9681 51.5604L58.0081 40.2204L63.6081 50.7504C65.2881 53.7004 66.2481 57.1104 66.2481 60.7504C66.2481 71.9304 57.1881 80.9904 46.0081 80.9904C34.8281 80.9904 25.7681 71.9304 25.7681 60.7504C25.7681 58.8004 26.0481 56.9104 26.5581 55.1204L26.7081 54.6304L26.7581 54.4904C27.1181 53.3704 27.5781 52.2704 28.1481 51.2104L39.9681 29.0104L35.9081 21.4004C35.5381 20.7004 34.8181 20.2704 34.0381 20.2704C33.2481 20.2704 32.5281 20.7004 32.1581 21.4004L12.0181 59.2204C11.5281 60.1504 11.5281 61.2804 12.0181 62.2104L26.7681 89.9104C27.3281 90.9504 28.4081 91.6004 29.5881 91.6004L62.4081 91.6004C63.5881 91.6004 64.6681 90.9504 65.2281 89.9104L79.9781 62.2104C80.4781 61.2804 80.4781 60.1504 79.9781 59.2204L59.8381 21.4004C59.4681 20.7004 58.7481 20.2704 57.9681 20.2704C57.1781 20.2704 56.4581 20.7004 56.0881 21.4004L52.0281 29.0104L52.0381 29.0204L46.0081 40.3504L45.9981 40.3404L37.6681 55.9904L37.6781 55.9904C37.1981 56.8204 36.8481 57.7304 36.6381 58.7004L36.6081 58.8504C36.4881 59.4704 36.4181 60.0904 36.4181 60.7104L36.4181 60.7404C36.4181 66.0404 40.7081 70.3304 46.0081 70.3304C51.2481 70.3304 55.4981 66.1304 55.5981 60.9204L55.5981 60.7104Z " /></g></g></g></g></g></g></g></g></g></g></g></svg>