<svg width="128" height="128" viewBox="0 0 128 128" fill="none" xmlns="http://www.w3.org/2000/svg">
 
<path d="M70.0968 16.2674C68.422 16.0906 66.7216 16 65 16C56.2072 16 47.9665 18.3642 40.8791 22.4917L46.4994 26.8639L68.145 21.0838L70.0968 16.2674Z" fill="#0195FF"/>
<path d="M38.1753 24.1892C28.485 30.7314 21.3119 40.7184 18.4127 52.3935L28.1047 62.3762L42.8576 49.9476L44.6036 29.19L38.1753 24.1892Z" fill="#0195FF"/>
<path d="M17.6739 55.9392C17.2842 58.2437 17.0588 60.6039 17.0101 63.0076H24.5364L17.6739 55.9392Z" fill="#0195FF"/>
<path d="M112.99 63.0076C112.976 62.3416 112.949 61.679 112.909 61.02L110.444 63.0076H112.99Z" fill="#0195FF"/>
<path d="M112.557 57.45C111.598 50.4229 109.118 43.8798 105.46 38.1633L101.779 44.4214L108.45 60.7615L112.557 57.45Z" fill="#0195FF"/>
<path d="M103.582 35.4393C96.3756 25.7202 85.5838 18.819 73.1621 16.6911L70.9407 22.1727L83.2034 40.77L99.314 42.6951L103.582 35.4393Z" fill="#0195FF"/>
<path d="M106.127 63.0076L99.0548 45.6855L82.9999 43.767L68.0968 63.0076H106.127Z" fill="#0195FF"/>
<path d="M66.9987 63.0076L44.5321 52.4596L32.0115 63.0076H66.9987Z" fill="#0195FF"/>
<path d="M47.5728 29.6824L68.5971 24.0682L80.4913 42.1066L66.9037 59.6488L45.8824 49.7794L47.5728 29.6824Z" fill="#0195FF"/>
<path d="M112.953 66.1336C112.875 67.9296 112.698 69.7001 112.427 71.4396C105.116 82.7806 93.0143 88.8208 74.0861 93.9538C67.4286 95.7592 62.6933 98.0922 59.3235 100.695C56.3202 98.9612 53.4234 96.9235 50.6741 94.6057C63.8607 84.7863 73.7072 73.6443 79.7729 66.5677L80.145 66.1336H112.953Z" fill="#E10001"/>
<path d="M17.0466 66.1336C17.2465 70.7046 18.0857 75.1096 19.4771 79.2615C20.3752 80.1608 21.3859 81.0912 22.4768 81.9714C25.0393 84.0389 27.9113 85.7203 30.7163 86.1995C32.9352 86.5785 35.1728 86.2219 37.3117 84.536C33.3527 79.0727 30.0314 72.8926 27.5518 66.1336H17.0466Z" fill="#E10001"/>
<path d="M22.022 85.3987C25.0946 91.5579 29.4522 96.9638 34.7436 101.265C38.6758 99.1432 42.3975 96.8083 45.9012 94.3544C43.5019 92.0825 41.2332 89.6012 39.1221 86.9285C36.31 89.1244 33.2277 89.6719 30.2112 89.1566C27.2666 88.6536 24.4543 87.1548 22.022 85.3987Z" fill="#E10001"/>
<path d="M37.3633 103.25C41.8364 106.406 46.873 108.816 52.2923 110.3C52.7731 108.87 53.4479 107.39 54.4115 105.917C55.1074 104.854 55.945 103.805 56.9535 102.784C53.9008 100.95 50.9641 98.8191 48.1815 96.4167C44.7804 98.8263 41.172 101.132 37.3633 103.25Z" fill="#E10001"/>
<path d="M55.2205 111.003C58.378 111.657 61.6489 112 65 112C69.4718 112 73.8008 111.388 77.9079 110.245C71.6316 109.435 65.4722 107.406 59.675 104.324C58.5206 105.398 57.6243 106.486 56.922 107.56C56.1677 108.712 55.6221 109.867 55.2205 111.003Z" fill="#E10001"/>
<path d="M85.0417 107.628C77.286 107.796 69.5082 105.906 62.2522 102.273C65.1828 100.259 69.2345 98.3779 74.8713 96.8493C90.9684 92.484 102.727 87.334 110.769 78.5052C106.671 91.4493 97.2333 102.019 85.0417 107.628Z" fill="#E10001"/>
<path d="M48.6571 66.1336H76.188C70.0048 73.2791 60.617 83.5523 48.3789 92.5735C45.8598 90.2326 43.4833 87.647 41.2841 84.837C44.2639 81.3403 46.7397 75.6249 48.4876 66.9725L48.6571 66.1336Z" fill="#E10001"/>
<path d="M30.7558 66.1336H45.5965L45.547 66.3785C43.9383 74.3415 41.7659 79.3566 39.433 82.3595C35.979 77.5154 33.0346 72.0766 30.7558 66.1336Z" fill="#E10001"/>
</svg>
