<svg xmlns="http://www.w3.org/2000/svg" xmlns:xlink="http://www.w3.org/1999/xlink" width="256" height="256" viewBox="0 0 256 256" fill="none"><defs><linearGradient id="linear_0" x1="100.02180459689359%" y1="-0.0006897487245625474%" x2="-258.23230132983804%" y2="322.6412317992555%" gradientUnits="objectBoundingBox"><stop offset="0" stop-color="#FF8876" stop-opacity="1" /><stop offset="0.00800372" stop-color="#FF8774" stop-opacity="1" /><stop offset="0.1313" stop-color="#FF7852" stop-opacity="1" /><stop offset="0.2335" stop-color="#FF6F3D" stop-opacity="1" /><stop offset="0.3015" stop-color="#FF6C36" stop-opacity="1" /><stop offset="0.5846" stop-color="#FF8869" stop-opacity="1" /><stop offset="0.8987" stop-color="#FFA1A8" stop-opacity="1" /></linearGradient><linearGradient id="linear_1" x1="114.4481028535591%" y1="-17.227159534076947%" x2="-30.276536531828164%" y2="77.84891486545797%" gradientUnits="objectBoundingBox"><stop offset="0" stop-color="#FF8876" stop-opacity="1" /><stop offset="0.00800372" stop-color="#FF8774" stop-opacity="1" /><stop offset="0.1313" stop-color="#FF7852" stop-opacity="1" /><stop offset="0.2335" stop-color="#FF6F3D" stop-opacity="1" /><stop offset="0.3015" stop-color="#FF6C36" stop-opacity="1" /><stop offset="0.5846" stop-color="#FF8869" stop-opacity="1" /><stop offset="0.8987" stop-color="#FFA1A8" stop-opacity="1" /></linearGradient></defs><g opacity="1" transform="translate(0 0)  rotate(0 128 128)"><g opacity="1" transform="translate(48 44)  rotate(0 80 84)"><path id="路径 20" fill-rule="evenodd" fill="url(#linear_0)" transform="translate(113.17494575929885 0.04672526318593384)  rotate(0 23.41252712035057 24.78382036008572)" opacity="1" d="M0,20.15L27.79,20.15L27.79,49.57L46.83,49.57L46.83,0L0,0L0,20.15Z " /><path id="分组 5" fill-rule="evenodd" fill="url(#linear_1)" transform="translate(0 0)  rotate(0 57.88397453168654 84)" opacity="1" d="M0 167.86L50.76 168C50.76 168 89.05 128.46 103.88 112.47C110.94 105.66 115.45 95.97 115.72 85.18C115.72 84.95 115.72 84.71 115.72 84.47C115.77 84.33 115.77 84.24 115.77 84.14C115.77 84.1 115.77 84.05 115.77 84C115.77 83.95 115.77 83.91 115.77 83.86C115.77 83.76 115.77 83.67 115.77 83.53C115.77 83.29 115.77 83.05 115.77 82.82C115.5 72.03 110.99 62.34 103.93 55.53C89.05 39.54 50.76 0 50.76 0L0 0.14L0 54.3L28.15 84L0 113.7L0 167.86Z M97.4473 84.002C97.4072 73.452 89.3172 64.892 79.3572 64.892C69.3872 64.892 61.2972 73.452 61.2572 84.002C61.2972 94.552 69.3872 103.112 79.3572 103.112C89.3572 103.112 97.4473 94.552 97.4473 84.002Z M41.1037 70.2338L41.2837 70.0438L52.8137 57.8938C53.0837 57.6038 53.3937 57.3738 53.6637 57.1338C57.9937 52.4538 63.4437 48.9038 69.5637 47.0638L69.7037 47.1038L43.2037 19.5338C37.3037 19.5338 26.3137 19.5838 18.4037 19.5838L18.3637 19.5838L18.3637 46.2138L41.1037 70.2338Z M69.7931 120.941L69.6531 120.991C63.5331 119.141 58.0831 115.591 53.7531 110.911C53.4331 110.681 53.1731 110.441 52.9031 110.161L41.3731 98.0008L41.1931 97.8108L18.4531 121.841L18.4531 148.471C26.3131 148.471 37.3531 148.511 43.2531 148.511L69.7931 120.941Z " /></g></g></svg>