<svg xmlns="http://www.w3.org/2000/svg" xmlns:xlink="http://www.w3.org/1999/xlink" width="32" height="32" viewBox="0 0 32 32" fill="none"><defs><rect id="path_0" x="0" y="0" width="22" height="22" /></defs><g opacity="1" transform="translate(0 0)  rotate(0 16.000000000000004 15.999999999999998)"><path id="矩形 1" fill-rule="evenodd"  transform="translate(0 0)  rotate(0 16.000000000000004 15.999999999999998)" opacity="1" d="M0,32L32,32L32,0L0,0L0,32Z " /><g opacity="1" transform="translate(5 5)  rotate(0 11 11)"><mask id="bg-mask-0" fill="white"><use xlink:href="#path_0"></use></mask><g mask="url(#bg-mask-0)" ><path id="路径 1" fill-rule="evenodd" style="fill:#33CCFF" transform="translate(4.168999999999964 11.484)  rotate(0 2.0955000000000004 2.3979999999999997)" opacity="1" d="M0,4.8C1.4,4.11 2.79,3.44 4.19,2.76C2.83,1.85 1.46,0.92 0.11,0C0.08,1.6 0.03,3.2 0,4.8Z " /><path id="路径 2" fill-rule="evenodd" style="fill:#33CCFF" transform="translate(0.9239999999999411 1.660999999999827)  rotate(0 9.971499999999999 7.359)" opacity="1" d="M10.57,14.72L19.94,7.08L10.46,0L0,7.74L10.57,14.72Z " /><path id="分组 1" fill-rule="evenodd" style="fill:#FFFFFF" transform="translate(0.8249999999999931 1.5949999999998605)  rotate(0 10.065000000000001 7.425000000000001)" opacity="1" d="M5.337 4.002L0.187 7.812L5.397 11.232L10.667 14.712L15.337 10.912L19.957 7.152L15.277 3.662L10.557 0.132L5.337 4.002Z M0 7.81C3.55 10.15 7.12 12.51 10.67 14.85C13.83 12.29 16.97 9.71 20.13 7.15C16.94 4.76 13.75 2.39 10.56 0C7.04 2.61 3.52 5.2 0 7.81Z " /><path id="路径 5" fill-rule="evenodd" style="fill:#6699FF" transform="translate(5.004999999999979 12.61700000000018)  rotate(0 6.248000000000001 3.9490000000000003)" opacity="1" d="M0,4.27C2.17,5.48 4.32,6.69 6.49,7.9C8.44,6.47 10.37,5.04 12.32,3.61C12.38,2.41 12.44,1.2 12.5,0C10.53,1.61 8.57,3.21 6.6,4.82C5.39,4.08 4.18,3.35 2.97,2.62L0,4.27Z " /><path id="路径 6" fill-rule="evenodd" style="fill:#FFFFFF" transform="translate(9.987999999999957 6.566999999999854)  rotate(0 2.1175 3.0085000000000006)" opacity="1" d="M4.24,3C2.83,2 1.42,1 0,0L0.14,6.02C1.51,5.02 2.87,4 4.24,3Z " /></g></g></g></svg>