<svg xmlns="http://www.w3.org/2000/svg" xmlns:xlink="http://www.w3.org/1999/xlink" width="29.257142857142867" height="29.27917875474236" viewBox="0 0 29.257142857142867 29.27917875474236" fill="none"><g opacity="1" transform="translate(0 0)  rotate(0 14.628571428571428 14.639589377371133)"><path id="矩形 1" fill-rule="evenodd"  transform="translate(0 0)  rotate(0 14.628571428571428 14.639589377371133)" opacity="1" d="M0,29.28L29.26,29.28L29.26,0L0,0L0,29.28Z " /><path id="分组 1" fill-rule="evenodd" style="fill:#FFFFFF" transform="translate(6.628571428571377 5.750694573713872)  rotate(0 8 8.888894803657259)" opacity="1" d="M12.8 9.11471L8.09 9.11471C6.7 9.11471 5.47 9.99471 5.06 11.2747L2.25 9.90471C1.77 9.66471 1.2 9.68471 0.74 9.96471C0.28 10.2347 0 10.7147 0 11.2447L0 15.6647C0 16.1847 0.28 16.6747 0.74 16.9347C1.2 17.2147 1.76 17.2347 2.25 17.0047L5.07 15.6347C5.51 16.9247 6.73 17.7847 8.09 17.7747L12.79 17.7747C14.56 17.7747 16 16.3847 16 14.6747L16 12.2147C16 10.5047 14.56 9.11471 12.79 9.11471L12.8 9.11471Z M12.7761 10.7103C12.7761 10.7103 12.7761 10.7103 12.7761 10.7103Z M6.53608 14.6303C6.53608 15.4803 7.23608 16.1703 8.11608 16.1803L12.7461 16.1803C13.6061 16.2003 14.3261 15.5203 14.3461 14.6603L14.3461 12.2603C14.3361 11.4003 13.6361 10.7103 12.7761 10.7103L8.13608 10.7103C7.27608 10.7003 6.56608 11.3803 6.53608 12.2403L6.53608 14.6303Z M12.7761 10.7103L12.7761 10.7103C12.7761 10.7103 12.7761 10.7103 12.7761 10.7103Z M2.15558 15.252L2.25558 15.222L4.88558 13.912L4.88558 13.002L2.25558 11.722C2.19558 11.692 2.13558 11.672 2.06558 11.672C1.84558 11.672 1.65558 11.852 1.64558 12.082L1.64558 14.852C1.64558 14.992 1.71558 15.122 1.84558 15.202C1.93558 15.252 2.04558 15.272 2.15558 15.252Z M12.2756 8.39L12.5756 8.38C14.1156 8.26 15.4356 7.22 15.8556 5.76C16.3156 4.21 15.6456 2.55 14.2156 1.71C12.7956 0.87 10.9856 1.05 9.75558 2.15C9.01558 0.87 7.59558 0 5.97558 0C3.58558 0 1.64558 1.88 1.64558 4.19C1.64558 6.51 3.58558 8.39 5.97558 8.39C7.23558 8.39 8.44558 7.85 9.27558 6.9C9.98558 7.84 11.0956 8.39 12.2756 8.39Z M3.67885 2.91471C3.19885 3.70471 3.19885 4.68471 3.67885 5.46471C4.16885 6.25471 5.03885 6.72471 5.96885 6.70471C7.37885 6.66471 8.49885 5.55471 8.49885 4.19471C8.49885 2.91471 7.49885 1.85471 6.21885 1.70471L5.96885 1.68471C5.03885 1.65471 4.16885 2.12471 3.67885 2.91471Z M12.2831 2.87147C12.2831 2.87147 12.2831 2.87147 12.2831 2.87147C12.2831 2.87147 12.2831 2.87147 12.2831 2.87147L12.2831 2.87147Z M10.5631 3.83147C10.2131 4.42147 10.2131 5.15147 10.5631 5.74147C10.9231 6.34147 11.5731 6.70147 12.2831 6.70147C13.3731 6.70147 14.2531 5.84147 14.2531 4.79147C14.2531 3.73147 13.3731 2.87147 12.2831 2.87147C11.5731 2.87147 10.9231 3.24147 10.5631 3.83147Z M12.7761 10.7103L12.7761 10.7103 M12.7761 10.7103L12.7761 10.7103 " /></g></svg>