<svg width="52" height="52" viewBox="0 0 52 52" fill="none" xmlns="http://www.w3.org/2000/svg">
<rect width="52" height="52" fill="#131327"/>
<path d="M40.0566 18.8731C40.7573 18.2891 41.8218 18.702 41.9519 19.5404L41.9654 19.713V32.1695C41.965 33.121 40.8038 33.6319 40.0566 33.0094L37.35 30.7513V27.813L39.6577 29.7379V22.1446L37.35 24.0684V21.1301L40.0566 18.8731Z" fill="url(#paint0_linear_530_106)"/>
<path d="M33.9229 16C35.8345 16 37.3846 17.4922 37.3848 19.333V32.666L37.3799 32.8379C37.2902 34.5422 35.8714 35.9086 34.1016 35.9951L33.9229 36H15.4619L15.2832 35.9951C13.5133 35.9086 12.0946 34.5422 12.0049 32.8379L12 32.666V21.6436C12.5881 22.3104 13.3942 22.779 14.3076 22.9385V32.666C14.3076 33.2797 14.8247 33.7773 15.4619 33.7773H33.9229C34.5601 33.7773 35.0771 33.2797 35.0771 32.666V19.333C35.077 18.7195 34.56 18.2227 33.9229 18.2227H18.9238C18.7508 17.3444 18.2904 16.5698 17.6445 16H33.9229ZM15 16C16.6569 16 18 17.3431 18 19C18 20.6569 16.6569 22 15 22C13.3431 22 12 20.6569 12 19C12 17.3431 13.3431 16 15 16Z" fill="white"/>
<path d="M17 19C17 20.1046 16.1046 21 15 21C13.8954 21 13 20.1046 13 19C13 17.8954 13.8954 17 15 17C16.1046 17 17 17.8954 17 19Z" fill="#FF0000"/>
<path d="M31.1192 26.6786V29.8503C31.1192 30.2633 30.9828 30.5977 30.71 30.8534C30.4372 31.0992 30.0805 31.2222 29.6399 31.2222H28.5068C28.0661 31.2222 27.7094 31.0992 27.4366 30.8534C27.1639 30.5977 27.0275 30.2633 27.0275 29.8503V22.1499C27.0275 21.7368 27.1639 21.4074 27.4366 21.1615C27.7094 20.9058 28.0661 20.778 28.5068 20.778H29.6399C30.0805 20.778 30.4372 20.9058 30.71 21.1615C30.9828 21.4074 31.1192 21.7368 31.1192 22.1499V25.3067H29.6241V22.2236C29.6241 22.1744 29.5979 22.1499 29.5454 22.1499H28.6012C28.5488 22.1499 28.5225 22.1744 28.5225 22.2236V29.7765C28.5225 29.8257 28.5488 29.8503 28.6012 29.8503H29.5454C29.5979 29.8503 29.6241 29.8257 29.6241 29.7765V26.6786H31.1192Z" fill="url(#paint1_linear_530_106)"/>
<path d="M26.5579 29.7912L26.432 31.1631H22.9856V22.2088V20.8369H26.5579L26.4006 22.2088H24.4806V25.3067H26.2432L26.0858 26.6786H24.4806V29.7912H26.5579Z" fill="url(#paint2_linear_530_106)"/>
<path d="M18.3 20.8158L20.7078 20.8369C21.1485 20.8369 21.5052 20.9648 21.778 21.2205C22.0507 21.4663 22.1871 21.7958 22.1871 22.2088V26.8261C22.1871 27.0425 22.1399 27.2392 22.0455 27.4162C21.9511 27.5834 21.8252 27.726 21.6678 27.844L22.675 31.1631H21.1642L20.2672 28.198H19.795V31.1631H18.3V22.2088L18.3 20.8158ZM20.6134 22.2088H19.795V26.8261H20.6134C20.6658 26.8261 20.6921 26.8015 20.6921 26.7524V22.2826C20.6921 22.2334 20.6658 22.2088 20.6134 22.2088Z" fill="url(#paint3_linear_530_106)"/>
<defs>
<linearGradient id="paint0_linear_530_106" x1="38.5" y1="25.5" x2="37" y2="25.5" gradientUnits="userSpaceOnUse">
<stop stop-color="white"/>
<stop offset="1" stop-color="#545495"/>
</linearGradient>
<linearGradient id="paint1_linear_530_106" x1="27.6821" y1="25.6862" x2="26.7172" y2="25.6862" gradientUnits="userSpaceOnUse">
<stop stop-color="white"/>
<stop offset="1" stop-color="#222246"/>
</linearGradient>
<linearGradient id="paint2_linear_530_106" x1="23.5571" y1="25.6897" x2="22.7146" y2="25.6897" gradientUnits="userSpaceOnUse">
<stop stop-color="white"/>
<stop offset="1" stop-color="#222246"/>
</linearGradient>
<linearGradient id="paint3_linear_530_106" x1="19" y1="25.6786" x2="17.9682" y2="25.6786" gradientUnits="userSpaceOnUse">
<stop stop-color="white"/>
<stop offset="1" stop-color="#222246"/>
</linearGradient>
</defs>
</svg>
