<svg xmlns="http://www.w3.org/2000/svg" xmlns:xlink="http://www.w3.org/1999/xlink" width="32" height="32" viewBox="0 0 32 32" fill="none"><defs><rect id="path_0" x="0" y="0" width="18" height="18" /></defs><g opacity="1" transform="translate(0 0)  rotate(0 16 16)"><path id="矩形 1" fill-rule="evenodd"  transform="translate(0 0)  rotate(0 16 16)" opacity="1" d="M32,32L32,0L0,0L0,32L32,32Z " /><g opacity="1" transform="translate(7 7)  rotate(0 9 9)"><mask id="bg-mask-0" fill="white"><use xlink:href="#path_0"></use></mask><g mask="url(#bg-mask-0)" ><path id="路径 1" fill-rule="evenodd" style="fill:#FFFFFF" transform="translate(0.31113281250000485 0.38496093749999905)  rotate(0 8.715234375 8.738085937500001)" opacity="1" d="M13.5,14.44L5.54,15.15L5.36,15.15C4.02,15.15 2.95,14.08 2.95,12.78L2.95,4.6C2.95,3.71 2.91,2.91 3.53,2.15C4.02,1.52 4.83,1.21 5.59,1.21C5.86,1.21 6.12,1.25 6.39,1.34L15.55,3.89L15.69,3.89C15.96,3.89 16.18,3.67 16.18,3.4C16.18,3.17 16.05,2.99 15.82,2.95L5.99,0.27C5.5,0.09 4.96,0 4.42,0C1.97,0 0,1.92 0,4.29L0,13.5C0,15.69 1.83,17.48 4.07,17.48L4.42,17.48L13.32,16.63C15.69,16.4 17.43,14.48 17.43,12.2L17.43,6.79C17.43,6.3 17.12,5.86 16.63,5.68L14.84,5.18L12.24,10.5C12.24,10.5 9.56,3.75 9.56,3.71L6.75,2.95C6.61,2.91 6.48,2.91 6.35,2.91C5.54,2.91 4.96,3.53 4.96,4.29L4.96,12.33C4.96,13.05 5.54,13.63 6.26,13.63L6.39,13.63L7.51,13.54L7.42,13.54L7.42,5.1L10.73,13.19L13.18,12.96L16.36,6.75L16.36,11.26C16.36,12.87 15.15,14.21 13.5,14.44Z " /></g></g></g></svg>