<svg xmlns="http://www.w3.org/2000/svg" xmlns:xlink="http://www.w3.org/1999/xlink" width="32" height="32" viewBox="0 0 32 32" fill="none"><g opacity="1" transform="translate(0 0)  rotate(0 16 16)"><path id="矩形 1" fill-rule="evenodd" transform="translate(0 0)  rotate(0 16 16)" opacity="1" d="M0,32L32,32L32,0L0,0L0,32Z " /><path id="分组 1" fill-rule="evenodd" style="fill:#FFFFFF" transform="translate(7 9.996440234145481)  rotate(0 9 6.0035597658545585)" opacity="1" d="M10.36 12.01L12.86 12.01C12.89 12.01 12.93 11.99 12.95 11.97C12.98 11.94 12.99 11.91 12.99 11.87L12.99 3.46C12.99 1.55 11.48 0 9.62 0L9.61 0L0.13 0C0.1 0 0.06 0.01 0.04 0.04C0.01 0.07 0 0.1 0 0.13L0 11.87C0 11.91 0.01 11.94 0.04 11.97C0.06 11.99 0.1 12.01 0.13 12.01L2.67 12.01C2.74 12.01 2.8 11.95 2.8 11.87L2.8 2.66C2.8 2.58 2.86 2.52 2.93 2.52L8.38 2.52C9.4 2.52 10.23 3.37 10.23 4.42L10.23 11.87C10.23 11.95 10.29 12.01 10.36 12.01Z M5.07672 4.81672L5.07672 11.8767C5.07672 11.9467 5.13672 12.0067 5.20672 12.0067L7.73672 12.0067C7.77672 12.0067 7.80672 11.9967 7.83672 11.9667C7.85672 11.9467 7.87672 11.9067 7.87672 11.8767L7.87672 4.81672C7.87672 4.77672 7.85672 4.74672 7.83672 4.71672C7.80672 4.68672 7.77672 4.67672 7.73672 4.67672L7.73672 4.67672L5.20672 4.67672C5.17672 4.67672 5.13672 4.69672 5.11672 4.71672C5.08672 4.74672 5.07672 4.77672 5.07672 4.81672Z M15.2028 11.8704C15.2028 11.9504 15.2628 12.0104 15.3328 12.0104L17.8628 12.0104C17.9428 12.0104 18.0028 11.9504 18.0028 11.8704L18.0028 0.140403C18.0028 0.100403 17.9828 0.0704028 17.9628 0.0404028C17.9328 0.0104028 17.9028 0.0004028 17.8628 0.0004028L17.8628 0.0004028L15.3328 0.0004028C15.2628 0.0004028 15.2028 0.0604028 15.2028 0.140403L15.2028 11.8704Z " /></g></svg>