<svg width="128" height="128" viewBox="0 0 128 128" fill="none" xmlns="http://www.w3.org/2000/svg">

<path d="M35 23H62V50H35V23Z" fill="#F14F21"/>
<path d="M35 52H62V79H35V52Z" fill="#00A3EE"/>
<path d="M66 23H93V50H66V23Z" fill="#7EB900"/>
<path d="M66 52H93V79H66V52Z" fill="#FEB800"/>
<path d="M14 104.688V87.6658H17.5673L20.4416 95.9945C20.6298 96.5324 20.8009 97.0703 20.9549 97.6082C21.1089 98.1288 21.2629 98.7014 21.4168 99.326H21.5195C21.6735 98.7014 21.8189 98.1288 21.9558 97.6082C22.1098 97.0703 22.2723 96.5324 22.4434 95.9945L25.3177 87.6658H28.8593V104.688H26.1133V96.9315C26.1133 96.3936 26.1304 95.7776 26.1646 95.0836C26.216 94.3895 26.2759 93.7041 26.3443 93.0274C26.4127 92.3333 26.4812 91.726 26.5496 91.2055H26.4469L25.1124 95.526L22.3921 103.126H20.3903L17.6699 95.526L16.3867 91.2055H16.2841C16.3525 91.726 16.4124 92.3333 16.4637 93.0274C16.5322 93.7041 16.5835 94.3895 16.6177 95.0836C16.669 95.7776 16.6947 96.3936 16.6947 96.9315V104.688H14Z" fill="#717171"/>
<path d="M32.8659 104.688V91.9082H35.8172V104.688H32.8659ZM34.3287 89.6699C33.8155 89.6699 33.3877 89.5137 33.0455 89.2014C32.7205 88.889 32.5579 88.4726 32.5579 87.9521C32.5579 87.4315 32.7205 87.0237 33.0455 86.7288C33.3877 86.4164 33.8155 86.2603 34.3287 86.2603C34.8591 86.2603 35.2869 86.4164 35.6119 86.7288C35.937 87.0237 36.0995 87.4315 36.0995 87.9521C36.0995 88.4726 35.937 88.889 35.6119 89.2014C35.2869 89.5137 34.8591 89.6699 34.3287 89.6699Z" fill="#717171"/>
<path d="M44.895 105C43.7316 105 42.6879 104.74 41.764 104.219C40.8401 103.681 40.1044 102.918 39.5569 101.929C39.0266 100.922 38.7614 99.7164 38.7614 98.311C38.7614 96.8881 39.0522 95.6822 39.6339 94.6932C40.2156 93.6868 40.9856 92.9233 41.9437 92.4027C42.9189 91.8648 43.9626 91.5959 45.0746 91.5959C45.8788 91.5959 46.5803 91.7347 47.1791 92.0123C47.795 92.2726 48.3254 92.611 48.7702 93.0274L47.3587 94.9014C47.085 94.6411 46.7685 94.4329 46.4092 94.2767C46.067 94.1205 45.6735 94.0425 45.2286 94.0425C44.5614 94.0425 43.9711 94.2247 43.4578 94.589C42.9446 94.9361 42.5339 95.4306 42.226 96.0726C41.9351 96.6973 41.7897 97.4434 41.7897 98.311C41.7897 99.1612 41.9351 99.9073 42.226 100.549C42.5168 101.174 42.9103 101.668 43.4065 102.033C43.9198 102.38 44.51 102.553 45.1773 102.553C45.6735 102.553 46.1354 102.458 46.5631 102.267C47.008 102.076 47.4015 101.833 47.7437 101.538L48.9499 103.386C48.4195 103.872 47.8036 104.263 47.1021 104.558C46.4177 104.853 45.682 105 44.895 105Z" fill="#717171"/>
<path d="M51.4371 104.688V91.9082H53.8751L54.0804 94.1726H54.1831C54.6279 93.3397 55.1583 92.7064 55.7743 92.2726C56.4073 91.8215 57.066 91.5959 57.7504 91.5959C58.0754 91.5959 58.3492 91.6132 58.5716 91.6479C58.794 91.6826 58.9993 91.7521 59.1875 91.8562L58.5973 94.4069C58.392 94.3548 58.2038 94.3201 58.0327 94.3027C57.8616 94.268 57.6392 94.2507 57.3654 94.2507C56.8692 94.2507 56.3474 94.4502 55.7999 94.8493C55.2524 95.231 54.7819 95.9078 54.3884 96.8794V104.688H51.4371Z" fill="#717171"/>
<path d="M65.9187 105C64.875 105 63.8998 104.74 62.993 104.219C62.0862 103.681 61.3505 102.918 60.7859 101.929C60.2213 100.922 59.939 99.7164 59.939 98.311C59.939 96.8881 60.2213 95.6822 60.7859 94.6932C61.3505 93.6868 62.0862 92.9233 62.993 92.4027C63.8998 91.8648 64.875 91.5959 65.9187 91.5959C66.9794 91.5959 67.9632 91.8648 68.87 92.4027C69.7768 92.9233 70.5125 93.6868 71.0771 94.6932C71.6417 95.6822 71.924 96.8881 71.924 98.311C71.924 99.7164 71.6417 100.922 71.0771 101.929C70.5125 102.918 69.7768 103.681 68.87 104.219C67.9632 104.74 66.9794 105 65.9187 105ZM65.9187 102.553C66.5346 102.553 67.065 102.38 67.5098 102.033C67.9547 101.686 68.2968 101.191 68.5364 100.549C68.7759 99.9073 68.8957 99.1612 68.8957 98.311C68.8957 97.4607 68.7759 96.7146 68.5364 96.0726C68.2968 95.4306 67.9547 94.9361 67.5098 94.589C67.065 94.2247 66.5346 94.0425 65.9187 94.0425C65.3027 94.0425 64.7724 94.2247 64.3275 94.589C63.8998 94.9361 63.5662 95.4306 63.3266 96.0726C63.0871 96.7146 62.9673 97.4607 62.9673 98.311C62.9673 99.1612 63.0871 99.9073 63.3266 100.549C63.5662 101.191 63.8998 101.686 64.3275 102.033C64.7724 102.38 65.3027 102.553 65.9187 102.553Z" fill="#717171"/>
<path d="M78.2609 105C77.3884 105 76.5244 104.835 75.6689 104.505C74.8306 104.176 74.1034 103.716 73.4875 103.126L74.7963 101.408C75.3609 101.877 75.9341 102.215 76.5158 102.423C77.0975 102.632 77.7135 102.736 78.3636 102.736C79.048 102.736 79.5527 102.588 79.8778 102.293C80.2028 101.998 80.3654 101.634 80.3654 101.2C80.3654 100.853 80.2371 100.558 79.9804 100.315C79.7409 100.072 79.4244 99.8639 79.0309 99.6904C78.6374 99.5169 78.2011 99.3434 77.722 99.1699C77.1061 98.9443 76.5329 98.6753 76.0025 98.363C75.4722 98.0333 75.0359 97.6342 74.6937 97.1658C74.3686 96.6799 74.2061 96.0986 74.2061 95.4219C74.2061 94.2941 74.6167 93.3744 75.4379 92.663C76.2592 91.9516 77.3713 91.5959 78.7742 91.5959C79.6297 91.5959 80.4167 91.7434 81.1353 92.0384C81.8539 92.316 82.4698 92.6804 82.9831 93.1315L81.6742 94.8233C81.2294 94.4936 80.776 94.2507 80.3141 94.0945C79.8521 93.9384 79.3645 93.8603 78.8512 93.8603C78.2182 93.8603 77.7477 93.9991 77.4397 94.2767C77.1317 94.5543 76.9778 94.884 76.9778 95.2658C76.9778 95.5781 77.0719 95.847 77.2601 96.0726C77.4654 96.2808 77.7562 96.4717 78.1326 96.6452C78.509 96.8014 78.9624 96.9662 79.4928 97.1397C80.143 97.3653 80.7503 97.6429 81.3149 97.9726C81.8795 98.2849 82.3244 98.6927 82.6495 99.1959C82.9916 99.6817 83.1627 100.298 83.1627 101.044C83.1627 101.773 82.9745 102.441 82.5981 103.048C82.2217 103.638 81.6657 104.115 80.93 104.479C80.2114 104.826 79.3217 105 78.2609 105Z" fill="#717171"/>
<path d="M90.9559 105C89.9122 105 88.937 104.74 88.0302 104.219C87.1235 103.681 86.3878 102.918 85.8232 101.929C85.2585 100.922 84.9762 99.7164 84.9762 98.311C84.9762 96.8881 85.2585 95.6822 85.8232 94.6932C86.3878 93.6868 87.1235 92.9233 88.0302 92.4027C88.937 91.8648 89.9122 91.5959 90.9559 91.5959C92.0167 91.5959 93.0005 91.8648 93.9072 92.4027C94.814 92.9233 95.5497 93.6868 96.1143 94.6932C96.6789 95.6822 96.9612 96.8881 96.9612 98.311C96.9612 99.7164 96.6789 100.922 96.1143 101.929C95.5497 102.918 94.814 103.681 93.9072 104.219C93.0005 104.74 92.0167 105 90.9559 105ZM90.9559 102.553C91.5718 102.553 92.1022 102.38 92.5471 102.033C92.9919 101.686 93.3341 101.191 93.5736 100.549C93.8132 99.9073 93.9329 99.1612 93.9329 98.311C93.9329 97.4607 93.8132 96.7146 93.5736 96.0726C93.3341 95.4306 92.9919 94.9361 92.5471 94.589C92.1022 94.2247 91.5718 94.0425 90.9559 94.0425C90.34 94.0425 89.8096 94.2247 89.3648 94.589C88.937 94.9361 88.6034 95.4306 88.3639 96.0726C88.1243 96.7146 88.0046 97.4607 88.0046 98.311C88.0046 99.1612 88.1243 99.9073 88.3639 100.549C88.6034 101.191 88.937 101.686 89.3648 102.033C89.8096 102.38 90.34 102.553 90.9559 102.553Z" fill="#717171"/>
<path d="M100.296 104.688V90.5808C100.296 89.6959 100.432 88.9064 100.706 88.2123C100.997 87.5183 101.45 86.9804 102.066 86.5986C102.682 86.1995 103.486 86 104.479 86C104.941 86 105.368 86.0434 105.762 86.1301C106.173 86.2169 106.515 86.321 106.788 86.4425L106.224 88.6808C105.984 88.5767 105.745 88.4986 105.505 88.4466C105.283 88.3945 105.06 88.3685 104.838 88.3685C104.325 88.3685 103.931 88.542 103.657 88.889C103.384 89.2361 103.247 89.7827 103.247 90.5288V104.688H100.296ZM111.408 105C109.971 105 108.944 104.575 108.328 103.725C107.729 102.857 107.43 101.738 107.43 100.367V94.2767H98.4221V92.0384L100.321 91.9082H107.584L107.943 88.4205H110.381V91.9082H113.615V94.2767H110.381V100.367C110.381 101.113 110.527 101.677 110.818 102.059C111.126 102.423 111.579 102.605 112.178 102.605C112.4 102.605 112.631 102.579 112.871 102.527C113.11 102.458 113.316 102.389 113.487 102.319L114 104.532C113.658 104.636 113.264 104.74 112.819 104.844C112.392 104.948 111.921 105 111.408 105Z" fill="#717171"/>
</svg>
