<svg xmlns="http://www.w3.org/2000/svg" xmlns:xlink="http://www.w3.org/1999/xlink" width="32" height="32" viewBox="0 0 32 32" fill="none"><defs><rect id="path_0" x="0" y="0" width="20" height="20" /></defs><g opacity="1" transform="translate(0 0)  rotate(0 16 15.999999999999998)"><path id="矩形 1" fill-rule="evenodd" transform="translate(0 0)  rotate(0 16 15.999999999999998)" opacity="1" d="M0,32L32,32L32,0L0,0L0,32Z " /><g opacity="1" transform="translate(6 6)  rotate(0 10 10)"><mask id="bg-mask-0" fill="white"><use xlink:href="#path_0"></use></mask><g mask="url(#bg-mask-0)" ><path id="路径 1" fill-rule="evenodd" style="fill:#1A9DE0" transform="translate(1.4299506783483826 3.3328571484375074)  rotate(0 7.142057643802166 7.143151463654283)" opacity="1" d="M14.25,0.11C14.27,0.08 14.3,0.05 14.27,0C14.25,0.01 14.23,0.03 14.21,0.05L13.73,0.46L8.86,4.6L4.55,8.27L0.52,11.7C0.07,12.08 -0.11,12.7 0.07,13.26C0.25,13.83 0.75,14.23 1.34,14.28C1.71,14.31 2.08,14.19 2.36,13.95L2.59,13.76L8.01,9.15L13.42,4.55L13.95,4.11L13.95,4.1C13.97,4.1 13.97,4.12 13.97,4.06L13.97,1.07C13.96,0.73 14.05,0.39 14.25,0.11Z " /><g opacity="1" transform="translate(1.4285714257812456 2.8573436600368547)  rotate(0 8.33336091159059 7.380846812791513)"><path id="路径 2" fill-rule="evenodd" style="fill:#D60419" transform="translate(13.809388633825742 1.904561105588133)  rotate(0 1.4286665946777188 6.428566259997447)" opacity="1" d="M0,11.56C0.07,12.33 0.75,12.91 1.54,12.85C2.33,12.79 2.91,12.12 2.85,11.34L2.85,0C2.81,0.03 2.81,0.08 2.81,0.13C2.74,0.44 2.57,0.72 2.32,0.92L1.44,1.65L0.15,2.73C0.09,2.76 0.04,2.81 0,2.87L0,2.89L0,2.89C0,2.93 0.01,2.97 0,3.01L0,11.32C0,11.4 0,11.48 0,11.56Z " /><path id="路径 3" fill-rule="evenodd" style="fill:#D60419" transform="translate(0 0)  rotate(0 1.4285227315552622 5.476090074278441)" opacity="1" d="M1.15,0.03C0.49,0.16 0.01,0.74 0,1.42L0,10.95C0.03,10.94 0.06,10.92 0.08,10.9L2.76,8.59C2.81,8.55 2.83,8.49 2.83,8.44L2.83,3.93L2.83,3.93C2.86,3.89 2.85,3.84 2.86,3.78L2.86,1.46C2.87,1 2.66,0.56 2.28,0.29L2.12,0.19C1.83,0.02 1.48,-0.04 1.15,0.03Z " /></g><path id="路径 4" fill-rule="evenodd" style="fill:#DA1E30" transform="translate(3.8095238085937106 3.3333333398437412)  rotate(0 2.381056313461676 2.6189461207396816)" opacity="1" d="M0.52,3.7L0.58,3.73L2.74,5.04C3.13,5.29 3.64,5.3 4.04,5.07C4.45,4.83 4.72,4.38 4.75,3.88C4.81,3.3 4.53,2.73 4.05,2.46C2.81,1.7 1.56,0.94 0.31,0.19C0.21,0.12 0.11,0.06 0,0C0.02,0.01 0.02,0.04 0.02,0.04C0.1,0.1 0.16,0.17 0.22,0.25C0.42,0.51 0.52,0.83 0.52,1.16L0.52,3.7L0.52,3.7Z " /><path id="路径 5" fill-rule="evenodd" style="fill:#1684C8" transform="translate(15.238095229492139 2.857268940732258)  rotate(0 1.4285953465781653 2.380889338227633)" opacity="1" d="M2.36,2.67C2.63,2.42 2.8,2.08 2.84,1.71L2.84,1.71C2.86,1.56 2.86,1.42 2.85,1.27C2.79,0.86 2.56,0.48 2.21,0.24C1.88,0.01 1.45,-0.06 1.06,0.05C0.78,0.14 0.53,0.31 0.33,0.53C0.29,0.63 0.23,0.7 0.18,0.79C0.06,1.04 0,1.32 0.01,1.61L0.01,4.49C0,4.58 0,4.67 0.01,4.76L0.04,4.74L2.36,2.67Z " /></g></g></g></svg>