<svg width="128" height="128" viewBox="0 0 128 128" fill="none" xmlns="http://www.w3.org/2000/svg">
 
<path d="M79 86.5C85 86.5 101.5 79 102 68.5C102 60 86 51.5 77 46.5C72.2925 43.8848 67.5 39.5 62 33C56.8934 26.9649 54.4979 36.5226 54 42C53.5 47.5 49 53.5 45.5 54C39.5397 54.8515 38 47 29.5 46.5C25.4518 46.2619 24 48.5 24 52.5V72.5C24 79.5 26 87.5 35 82.5C36.3822 81.7321 41 78 47 78C53.5 78 54 98.5 57 99C60 99.5 68.882 92.618 70 91.5C71.5 90 73.5 86.5 79 86.5Z" fill="#0090F0"/>
<path d="M91 63C91 64.6569 89.6569 66 88 66C86.3431 66 86 65 86 63C86 61 86.3431 59.5 88 59.5C89.6569 59.5 91 61.3432 91 63Z" fill="#3CA8B4"/>
</svg>
