<svg width="128" height="128" viewBox="0 0 128 128" fill="none" xmlns="http://www.w3.org/2000/svg">
<g clip-path="url(#clip0_313_549)">

<path fill-rule="evenodd" clip-rule="evenodd" d="M12 119C41.8234 119 66 94.8234 66 65C66 35.1766 41.8234 11 12 11C-17.8234 11 -42 35.1766 -42 65C-42 94.8234 -17.8234 119 12 119ZM35 34.5C35 43.0604 28.0604 50 19.5 50C10.9396 50 4 43.0604 4 34.5C4 25.9396 10.9396 19 19.5 19C28.0604 19 35 25.9396 35 34.5ZM59 64.5C59 73.0604 52.0604 80 43.5 80C34.9396 80 28 73.0604 28 64.5C28 55.9396 34.9396 49 43.5 49C52.0604 49 59 55.9396 59 64.5ZM19.5 111C28.0604 111 35 104.06 35 95.5C35 86.9396 28.0604 80 19.5 80C10.9396 80 4 86.9396 4 95.5C4 104.06 10.9396 111 19.5 111Z" fill="white"/>
<path d="M127.5 0H98C98 79 61.5 120 12.5 124C101 121 127.5 55 127.5 0Z" fill="black"/>
</g>
<defs>
<clipPath id="clip0_313_549">
<rect width="128" height="128" fill="white"/>
</clipPath>
</defs>
</svg>
