<svg width="128" height="128" viewBox="0 0 128 128" fill="none" xmlns="http://www.w3.org/2000/svg">
 
<path d="M20.0079 78.8477C15.2909 61.2433 25.7381 43.1482 43.3425 38.4311L67.4906 31.9606C85.095 27.2435 103.19 37.6908 107.907 55.2951L108.942 59.1588C113.66 76.7632 103.212 94.8583 85.6079 99.5754L37.3117 112.516C33.0439 113.66 28.6572 111.127 27.5137 106.86L20.0079 78.8477Z" fill="white"/>
<path fill-rule="evenodd" clip-rule="evenodd" d="M68.7847 36.7902L44.6366 43.2607C29.6995 47.2631 20.8352 62.6165 24.8376 77.5536L32.3433 105.565C32.7722 107.166 34.4172 108.116 36.0176 107.687L84.3139 94.7458C99.2509 90.7434 108.115 75.39 104.113 60.4529L103.078 56.5892C99.0752 41.6522 83.7218 32.7879 68.7847 36.7902ZM43.3425 38.4311C25.7381 43.1482 15.2909 61.2433 20.0079 78.8477L27.5137 106.86C28.6572 111.127 33.0439 113.66 37.3117 112.516L85.6079 99.5754C103.212 94.8583 113.66 76.7632 108.942 59.1588L107.907 55.2951C103.19 37.6908 85.095 27.2435 67.4906 31.9606L43.3425 38.4311Z" fill="black"/>
<path d="M66.7234 36.8249C69.5108 47.2275 63.3375 57.9201 52.9349 60.7074C42.5323 63.4948 31.8397 57.3214 29.0523 46.9189C26.265 36.5163 32.4383 25.8237 42.8409 23.0363C53.2435 20.249 63.9361 26.4223 66.7234 36.8249Z" fill="white"/>
<path fill-rule="evenodd" clip-rule="evenodd" d="M51.6408 55.8778C59.376 53.8052 63.9665 45.8543 61.8938 38.119C59.8212 30.3838 51.8703 25.7933 44.135 27.866C36.3998 29.9386 31.8093 37.8895 33.882 45.6248C35.9546 53.36 43.9055 57.9505 51.6408 55.8778ZM52.9349 60.7074C63.3375 57.9201 69.5108 47.2275 66.7234 36.8249C63.9361 26.4223 53.2435 20.249 42.8409 23.0363C32.4383 25.8237 26.265 36.5163 29.0523 46.9189C31.8397 57.3214 42.5323 63.4948 52.9349 60.7074Z" fill="black"/>
<path d="M102.463 27.2486C105.25 37.6512 99.0767 48.3438 88.6741 51.1311C78.2715 53.9185 67.579 47.7451 64.7916 37.3426C62.0042 26.94 68.1776 16.2474 78.5802 13.46C88.9828 10.6727 99.6753 16.846 102.463 27.2486Z" fill="white"/>
<path fill-rule="evenodd" clip-rule="evenodd" d="M87.38 46.3015C95.1153 44.2288 99.7057 36.278 97.6331 28.5427C95.5604 20.8074 87.6095 16.217 79.8743 18.2897C72.139 20.3623 67.5486 28.3132 69.6212 36.0485C71.6939 43.7837 79.6448 48.3742 87.38 46.3015ZM88.6741 51.1311C99.0767 48.3438 105.25 37.6512 102.463 27.2486C99.6753 16.846 88.9828 10.6727 78.5802 13.46C68.1776 16.2474 62.0042 26.94 64.7916 37.3426C67.579 47.7451 78.2715 53.9185 88.6741 51.1311Z" fill="black"/>
<path fill-rule="evenodd" clip-rule="evenodd" d="M62.7675 68.4256C64.3399 74.2937 70.3716 77.7761 76.2397 76.2037C82.1078 74.6314 85.5902 68.5997 84.0179 62.7315C83.9304 62.4052 83.8318 62.0936 83.7157 61.7772L83.7107 61.7786C83.1917 60.7363 81.9949 60.1678 80.8266 60.4808C79.0634 60.9532 78.8066 62.6014 79.1882 64.0256C80.0459 67.2264 78.1464 70.5164 74.9456 71.3741C71.7448 72.2318 68.4548 70.3323 67.5971 67.1315C67.2155 65.7073 66.169 64.4083 64.4059 64.8807C62.7559 65.3228 62.3798 66.9787 62.7675 68.4256Z" fill="black"/>
<path fill-rule="evenodd" clip-rule="evenodd" d="M40.6752 36.5358C41.1171 34.9389 42.7697 34.0026 44.3666 34.4444L52.536 36.7047C55.1649 37.432 56.3107 40.5195 54.7927 42.7858L49.6479 50.4669C48.7259 51.8435 46.8625 52.212 45.4859 51.29C44.1093 50.368 43.7408 48.5045 44.6629 47.1279L48.2659 41.7486L42.7666 40.2271C41.1698 39.7853 40.2334 38.1326 40.6752 36.5358Z" fill="black"/>
<path fill-rule="evenodd" clip-rule="evenodd" d="M87.0111 24.1201C85.8301 22.9581 83.9306 22.9735 82.7686 24.1546L76.8239 30.1967C74.9108 32.1411 75.4623 35.3879 77.91 36.5916L86.2061 40.6712C87.6929 41.4023 89.4909 40.7898 90.2221 39.303C90.9532 37.8162 90.3406 36.0182 88.8538 35.287L83.0438 32.4299L87.0456 28.3626C88.2076 27.1815 88.1922 25.2821 87.0111 24.1201Z" fill="black"/>
</svg>
