<svg width="128" height="128" viewBox="0 0 128 128" fill="none" xmlns="http://www.w3.org/2000/svg">
 
<path d="M75 64C75 70.0751 70.0751 75 64 75C57.9249 75 53 70.0751 53 64C53 57.9249 57.9249 53 64 53C70.0751 53 75 57.9249 75 64Z" fill="#393A3F"/>
<path d="M105 38C105 47.5 96 47.5 96 65C93.5 65 93.2934 65 92 65C92 47 83 47.5 83 38C83 31.9249 87.9249 27 94 27C100.075 27 105 31.9249 105 38Z" fill="#393A3F"/>
<path d="M105 90C105 80.5 96 80.5 96 63C93.5 63 93.2934 63 92 63C92 81 83 80.5 83 90C83 96.0751 87.9249 101 94 101C100.075 101 105 96.0751 105 90Z" fill="#393A3F"/>
<path d="M45 38C45 47.5 36 47.5 36 65C33.5 65 33.2934 65 32 65C32 47 23 47.5 23 38C23 31.9249 27.9249 27 34 27C40.0751 27 45 31.9249 45 38Z" fill="#393A3F"/>
<path d="M45 90C45 80.5 36 80.5 36 63C33.5 63 33.2934 63 32 63C32 81 23 80.5 23 90C23 96.0751 27.9249 101 34 101C40.0751 101 45 96.0751 45 90Z" fill="#393A3F"/>
</svg>
