<svg xmlns="http://www.w3.org/2000/svg" xmlns:xlink="http://www.w3.org/1999/xlink" width="30" height="30" viewBox="0 0 30 30" fill="none"><defs><rect id="path_0" x="0" y="0" width="30" height="30" /><rect id="path_1" x="0" y="0" width="21.999999999999986" height="21.999999999999986" /></defs><g opacity="1" transform="translate(0 0)  rotate(0 15 15)"><mask id="bg-mask" fill="white"><use xlink:href="#path_0"></use></mask><g mask="url(#bg-mask)" ><path id="矩形 1" fill-rule="evenodd" transform="translate(0 0)  rotate(0 15 15)" opacity="1" d="M0,30L30,30L30,0L0,0L0,30Z " /><g opacity="1" transform="translate(4 4)  rotate(0 10.999999999999993 10.999999999999993)"><mask id="bg-mask" fill="white"><use xlink:href="#path_1"></use></mask><g mask="url(#bg-mask)" ><g opacity="1" transform="translate(3.8152893066406217 4.5324433585056125)  rotate(0 7.1676910401464795 3.7833424129447195)"><path id="路径 1" fill-rule="evenodd" style="fill:#000000" transform="translate(0 0)  rotate(0 3.0071411132812487 3.7825362553175013)" opacity="1" d="M5.87,5.96C5.77,5.73 5.67,5.51 5.58,5.28C5.48,5.06 5.38,4.83 5.28,4.61L4.99,3.93C4.89,3.7 4.79,3.48 4.69,3.25C4.6,3.03 4.5,2.8 4.4,2.58C4.3,2.35 4.2,2.13 4.11,1.9C4.01,1.68 3.91,1.45 3.81,1.23C3.71,1 3.62,0.78 3.52,0.55C3.47,0.44 3.42,0.33 3.37,0.21L3.3,0.05C3.29,0.04 3.29,0.01 3.28,0C3.28,0 3.27,0 3.26,0C3.26,0 3.25,0.01 3.25,0.02C3.24,0.05 3.23,0.07 3.21,0.1C3.12,0.33 3.02,0.56 2.92,0.78C2.82,1.01 2.73,1.23 2.63,1.46C2.53,1.68 2.44,1.91 2.34,2.13C2.24,2.36 2.14,2.59 2.05,2.81C1.95,3.04 1.85,3.26 1.76,3.49C1.66,3.71 1.56,3.94 1.46,4.17C1.37,4.39 1.27,4.62 1.17,4.84C1.07,5.07 0.98,5.3 0.88,5.52C0.78,5.75 0.68,5.98 0.59,6.2C0.49,6.43 0.39,6.65 0.29,6.88C0.2,7.11 0.1,7.33 0,7.56L0.12,7.56C0.49,7.56 0.87,7.56 1.25,7.57C1.34,7.57 1.44,7.56 1.53,7.56C1.56,7.56 1.6,7.56 1.63,7.56C1.66,7.56 1.68,7.56 1.71,7.55C1.73,7.54 1.75,7.51 1.77,7.49C1.79,7.44 1.8,7.4 1.82,7.36C1.86,7.27 1.9,7.18 1.93,7.1C2.08,6.75 2.23,6.41 2.38,6.06C2.53,5.72 2.68,5.37 2.83,5.02C2.91,4.85 2.98,4.68 3.06,4.5C3.13,4.34 3.19,4.18 3.27,4.02C3.28,4.05 3.29,4.07 3.31,4.1C3.36,4.22 3.41,4.35 3.47,4.47C3.53,4.6 3.58,4.73 3.64,4.87C3.76,5.13 3.87,5.39 3.98,5.65C4.04,5.78 4.1,5.91 4.15,6.04C4.18,6.11 4.2,6.17 4.24,6.23C4.26,6.27 4.29,6.29 4.33,6.29C4.4,6.3 4.47,6.29 4.54,6.29C4.61,6.29 4.68,6.29 4.76,6.29C4.9,6.29 5.04,6.29 5.19,6.29L5.62,6.29C5.75,6.29 5.88,6.3 6.01,6.29L5.87,5.96Z " /><path id="路径 2" fill-rule="evenodd" style="fill:#000000" transform="translate(8.321905517363275 0.0006357391964044723)  rotate(0 3.0067382814648416 3.7830245433465173)" opacity="1" d="M2.73,3.97C2.74,3.97 2.74,3.97 2.74,3.97C2.75,3.98 2.75,4 2.76,4C2.77,4.02 2.77,4.04 2.78,4.06C2.93,4.41 3.08,4.75 3.23,5.1C3.38,5.44 3.53,5.79 3.68,6.14C3.83,6.48 3.98,6.83 4.12,7.17C4.16,7.26 4.2,7.34 4.23,7.43C4.25,7.47 4.26,7.51 4.29,7.54C4.31,7.56 4.33,7.56 4.36,7.56C4.55,7.56 4.73,7.56 4.92,7.56C5.28,7.56 5.65,7.57 6.01,7.56C5.97,7.45 5.92,7.34 5.87,7.23C5.77,7 5.68,6.77 5.58,6.55C5.48,6.32 5.38,6.1 5.29,5.87C5.19,5.64 5.09,5.42 4.99,5.19C4.9,4.97 4.8,4.74 4.7,4.52C4.61,4.29 4.51,4.06 4.41,3.84C4.31,3.61 4.22,3.39 4.12,3.16C4.02,2.94 3.93,2.71 3.83,2.49C3.73,2.26 3.63,2.04 3.54,1.81C3.44,1.58 3.34,1.36 3.25,1.14C3.15,0.91 3.05,0.68 2.95,0.46C2.91,0.35 2.86,0.23 2.81,0.12C2.8,0.09 2.78,0.07 2.77,0.04C2.77,0.03 2.77,0.02 2.76,0.01C2.76,0.01 2.76,0 2.76,0C2.75,0 2.76,0 2.75,0C2.74,0 2.74,0 2.73,0.01C2.73,0.01 2.73,0.02 2.72,0.03C2.7,0.08 2.68,0.14 2.65,0.2C2.55,0.42 2.45,0.65 2.36,0.87C2.26,1.1 2.16,1.32 2.06,1.55L1.77,2.22C1.67,2.45 1.57,2.67 1.47,2.9C1.38,3.12 1.28,3.35 1.18,3.58C1.08,3.8 0.98,4.03 0.89,4.25C0.79,4.48 0.69,4.7 0.59,4.93C0.49,5.16 0.39,5.38 0.3,5.61C0.2,5.83 0.1,6.06 0,6.29L1.7,6.29C1.7,6.29 1.7,6.29 1.71,6.29C1.72,6.28 1.71,6.29 1.72,6.28C1.72,6.27 1.72,6.26 1.73,6.26C1.84,6 1.95,5.75 2.06,5.49L2.39,4.73C2.5,4.47 2.61,4.22 2.72,3.96C2.72,3.96 2.73,3.96 2.73,3.97Z " /></g><g opacity="1" transform="translate(1.7074707031249994 11.192397054036455)  rotate(0 9.275106811523433 3.1374544779459574)"><path id="路径 3" fill-rule="evenodd" style="fill:#000000" transform="translate(6.53171997070312 0)  rotate(0 2.7256622315527332 3.1374544779459574)" opacity="1" d="M1.87,0.26C1.84,0.2 1.81,0.14 1.78,0.07C1.78,0.06 1.77,0.04 1.76,0.02C1.76,0.02 1.76,0 1.75,0C1.75,0 1.74,0 1.73,0L0,0C0.04,0.1 0.09,0.2 0.13,0.3C0.31,0.71 0.49,1.12 0.66,1.53L1.2,2.76C1.38,3.16 1.56,3.57 1.73,3.98C1.91,4.38 2.09,4.79 2.27,5.2C2.36,5.4 2.44,5.61 2.53,5.81C2.58,5.91 2.62,6.02 2.67,6.12C2.68,6.14 2.69,6.17 2.7,6.2C2.71,6.21 2.71,6.22 2.72,6.23C2.72,6.24 2.73,6.27 2.74,6.27C2.74,6.28 2.75,6.27 2.75,6.27C2.76,6.27 2.76,6.26 2.76,6.25C2.77,6.24 2.77,6.23 2.78,6.21C2.79,6.19 2.8,6.16 2.81,6.14L3.34,4.92C3.51,4.51 3.69,4.1 3.86,3.69C4.04,3.28 4.22,2.87 4.39,2.46C4.57,2.05 4.74,1.64 4.92,1.24C5.1,0.82 5.27,0.41 5.45,0L3.76,0C3.76,0 3.74,0 3.74,0C3.73,0 3.73,0.02 3.72,0.03C3.72,0.04 3.72,0.04 3.71,0.05C3.71,0.07 3.7,0.08 3.69,0.1C3.58,0.35 3.47,0.6 3.37,0.85C3.26,1.1 3.15,1.35 3.04,1.6C2.98,1.73 2.93,1.86 2.87,1.98C2.85,2.04 2.82,2.1 2.79,2.17C2.78,2.18 2.78,2.2 2.77,2.22C2.77,2.22 2.76,2.23 2.76,2.24C2.75,2.25 2.76,2.24 2.75,2.24C2.75,2.24 2.74,2.24 2.74,2.24C2.73,2.24 2.73,2.24 2.73,2.24C2.72,2.23 2.72,2.23 2.72,2.23C2.72,2.22 2.71,2.21 2.71,2.2C2.7,2.19 2.7,2.17 2.69,2.16C2.58,1.9 2.47,1.65 2.36,1.4L2.03,0.64C1.98,0.52 1.92,0.39 1.87,0.26Z " /><path id="路径 4" fill-rule="evenodd" style="fill:#000000" transform="translate(0 3.7822794596354186)  rotate(0 1.2903717041015617 1.0101307419100354)" opacity="1" d="M0.47,2.02C0.6,2.02 0.74,2.02 0.87,2.02C1.01,2.02 1.14,2.02 1.28,2.02C1.34,2.02 1.41,2.02 1.47,2.02C1.53,2.02 1.59,2.02 1.65,2.02C1.68,2.01 1.72,2 1.74,1.97C1.75,1.95 1.76,1.93 1.76,1.91C1.77,1.88 1.79,1.86 1.8,1.83C1.85,1.71 1.9,1.59 1.96,1.46C2.06,1.22 2.17,0.97 2.28,0.72C2.33,0.6 2.38,0.48 2.44,0.36C2.46,0.29 2.49,0.23 2.52,0.17C2.53,0.14 2.54,0.11 2.56,0.08C2.57,0.05 2.57,0.03 2.58,0L0.89,0C0.88,0 0.87,0 0.87,0C0.86,0 0.86,0.02 0.85,0.03C0.85,0.03 0.85,0.04 0.85,0.05C0.84,0.06 0.83,0.08 0.83,0.09C0.8,0.15 0.78,0.2 0.75,0.26C0.7,0.38 0.65,0.5 0.6,0.61C0.5,0.84 0.4,1.08 0.3,1.31C0.2,1.54 0.1,1.78 0,2.01C0.03,2.01 0.05,2.01 0.08,2.02C0.14,2.02 0.21,2.02 0.27,2.02C0.33,2.02 0.4,2.02 0.47,2.02Z " /><path id="路径 5" fill-rule="evenodd" style="fill:#000000" transform="translate(15.97148437499999 3.7823595720676266)  rotate(0 1.2893646240234384 1.0088852900586185)" opacity="1" d="M1.67,0L0,0C0.01,0.03 0.02,0.05 0.03,0.07C0.13,0.31 0.23,0.55 0.34,0.79C0.44,1.04 0.54,1.28 0.65,1.52C0.7,1.64 0.75,1.76 0.8,1.88C0.82,1.92 0.83,1.98 0.88,2C0.89,2.01 0.91,2.02 0.93,2.02C0.97,2.02 1,2.02 1.03,2.02C1.3,2.02 1.56,2.02 1.82,2.02L2.41,2.02C2.44,2.02 2.48,2.02 2.51,2.02C2.53,2.01 2.56,2.01 2.58,2.01C2.57,1.98 2.55,1.95 2.54,1.92C2.44,1.69 2.34,1.45 2.24,1.22C2.14,0.99 2.04,0.75 1.94,0.52C1.89,0.41 1.84,0.29 1.79,0.18C1.78,0.15 1.77,0.12 1.75,0.09C1.75,0.07 1.74,0.06 1.73,0.04C1.73,0.03 1.72,0.01 1.72,0C1.71,0 1.68,0 1.67,0Z " /><path id="路径 6" fill-rule="evenodd" style="fill:#000000" transform="translate(1.5666137693164046 1.2508977194521336)  rotate(0 1.0585418702246088 0.45679296145557297)" opacity="1" d="M0.41,0.01C0.37,0.03 0.35,0.09 0.34,0.12C0.3,0.21 0.26,0.3 0.22,0.39C0.15,0.57 0.07,0.74 0,0.91L1.69,0.91C1.7,0.91 1.72,0.92 1.73,0.91C1.73,0.91 1.73,0.89 1.74,0.89C1.74,0.88 1.75,0.86 1.75,0.85L1.8,0.74C1.84,0.66 1.87,0.57 1.91,0.49C1.98,0.33 2.05,0.17 2.12,0.01C2.02,0 1.92,0 1.83,0C1.71,0 1.6,0 1.49,0C1.3,0 1.1,0 0.9,0C0.8,0 0.71,0 0.61,0C0.56,0 0.52,0 0.48,0C0.45,0 0.43,0 0.41,0.01Z " /><path id="路径 7" fill-rule="evenodd" style="fill:#000000" transform="translate(1.0171508786914067 2.5225789388020843)  rotate(0 1.0592468262792962 0.45531209309895765)" opacity="1" d="M0.38,0.03C0.38,0.04 0.37,0.05 0.37,0.06C0.35,0.1 0.33,0.14 0.32,0.18C0.28,0.26 0.25,0.34 0.21,0.42C0.14,0.58 0.07,0.75 0,0.91L1.7,0.91C1.71,0.91 1.72,0.91 1.72,0.91C1.73,0.91 1.73,0.9 1.73,0.9C1.74,0.88 1.75,0.86 1.75,0.84C1.77,0.8 1.79,0.76 1.81,0.72C1.84,0.64 1.87,0.57 1.91,0.49C1.98,0.32 2.05,0.16 2.12,0C1.92,0 1.72,0 1.52,0L0.43,0C0.42,0 0.4,0 0.39,0C0.39,0 0.38,0.02 0.38,0.03Z " /><path id="路径 8" fill-rule="evenodd" style="fill:#000000" transform="translate(15.420410156249991 2.5211914061545073)  rotate(0 1.0576354979394518 0.4577274120198552)" opacity="1" d="M1.73,0.02C1.73,0.02 1.73,0 1.72,0C1.72,0 1.71,0 1.7,0L0,0C0.08,0.18 0.16,0.36 0.24,0.55C0.27,0.63 0.31,0.71 0.34,0.79C0.35,0.81 0.36,0.83 0.37,0.85C0.37,0.86 0.38,0.87 0.38,0.88C0.38,0.89 0.39,0.9 0.39,0.91C0.4,0.92 0.44,0.91 0.46,0.91C0.48,0.91 0.5,0.91 0.52,0.91C0.7,0.91 0.87,0.91 1.05,0.92C1.4,0.92 1.76,0.92 2.12,0.91C2.04,0.73 1.96,0.55 1.88,0.37C1.85,0.29 1.81,0.21 1.78,0.13C1.76,0.1 1.75,0.06 1.73,0.02Z " /><path id="路径 9" fill-rule="evenodd" style="fill:#000000" transform="translate(14.884643554687491 1.2579772949218793)  rotate(0 1.05260009765625 0.45611775705403496)" opacity="1" d="M2.11,0.91C2.03,0.73 1.95,0.55 1.87,0.37C1.84,0.29 1.8,0.21 1.77,0.13C1.75,0.09 1.73,0.05 1.72,0.01C1.71,0 1.71,0 1.71,0C1.7,0 1.69,0 1.69,0L0,0C0.01,0.02 0.01,0.04 0.01,0.06C0.02,0.08 0.03,0.1 0.04,0.12C0.06,0.17 0.08,0.21 0.1,0.26C0.14,0.36 0.18,0.45 0.22,0.54C0.26,0.63 0.3,0.71 0.33,0.8C0.35,0.83 0.36,0.87 0.39,0.89C0.41,0.91 0.45,0.91 0.48,0.91C0.66,0.91 0.85,0.91 1.03,0.91C1.39,0.91 1.75,0.91 2.11,0.91Z " /></g></g></g></g></g></svg>