<svg width="128" height="128" viewBox="0 0 128 128" fill="none" xmlns="http://www.w3.org/2000/svg">

<path d="M25 66.4999C25 46.1213 40.63 29.3933 60.556 27.6499C40.25 34.5 32.9405 54.398 33.6875 66.4999C34 71.5625 36.125 79.2812 30.9375 79.875C25.2361 80.5276 25 70.5158 25 66.4999Z" fill="#FFD31E"/>
<path d="M82.3993 33.2703C100.048 43.4596 106.72 65.3596 98.2664 83.4877C102.487 62.4771 88.9096 46.1979 78.0556 40.7939C73.515 38.5332 65.7679 36.5142 67.8474 31.7248C70.133 26.461 78.9215 31.2624 82.3993 33.2703Z" fill="#2AD7AA"/>
<path d="M82.6475 99.6154C64.9991 109.805 42.6972 104.633 31.2244 88.248C47.3097 102.408 68.1967 98.7897 78.3037 92.0918C82.5318 89.2899 88.1539 83.5902 91.2619 87.7858C94.6777 92.3971 86.1253 97.6075 82.6475 99.6154Z" fill="#FF0055"/>
<path d="M77.8961 69.8112C77.1352 67.367 76.2603 65.3128 74.9146 61.9508C75.1238 53.1204 71.4527 45.978 62.998 45.978C54.4481 45.978 50.8579 53.263 51.0861 61.9508C49.7356 65.3175 48.8654 67.3575 48.1046 69.8112C46.4878 75.0182 47.0109 77.1723 47.4103 77.2198C48.2663 77.3245 50.7437 73.3015 50.7437 73.3015C50.7437 75.6316 51.9421 78.6702 54.5384 80.8624C53.283 81.2475 50.4632 82.2842 51.1337 83.4207C51.6758 84.3384 60.4634 84.0056 62.998 83.7202C65.5325 84.0056 74.3201 84.3384 74.8622 83.4207C75.5327 82.2889 72.7081 81.2475 71.4575 80.8624C74.0539 78.6654 75.2522 75.6268 75.2522 73.3015C75.2522 73.3015 77.7296 77.3245 78.5856 77.2198C78.9898 77.1675 79.5129 75.0134 77.8961 69.8112Z" fill="#0052D1"/>
</svg>
