<svg width="128" height="128" viewBox="0 0 128 128" fill="none" xmlns="http://www.w3.org/2000/svg">

<path fill-rule="evenodd" clip-rule="evenodd" d="M60.4506 64.8939C60.4506 64.8939 58.4019 63.6509 54.9006 62.0302C48.8829 59.2447 38.5742 55.3434 27 54.7189V27.0308L27.001 27.0308C28.6033 27.0308 30.4869 27.1061 32.55 27.2859C41.1938 28.0395 52.9887 30.6285 60.4506 37.2058V64.8939ZM54.9006 55.9542V39.8924C51.3943 37.4272 46.869 35.6437 42.045 34.4506C38.7393 33.6331 35.4589 33.1334 32.55 32.8587V49.6655C40.3895 50.6942 47.3799 52.923 52.6454 55.0211C53.4339 55.3353 54.1865 55.6477 54.9006 55.9542Z" fill="#1EAA51"/>
<path fill-rule="evenodd" clip-rule="evenodd" d="M60.4506 100.969C60.4506 100.969 58.4019 99.7259 54.9006 98.1052C48.8829 95.3197 38.5742 91.4184 27 90.7939V63.1058H27.001C28.6033 63.1058 30.4869 63.1811 32.55 63.3609C41.1938 64.1145 52.9887 66.7035 60.4506 73.2808V100.969ZM54.9006 92.0292V75.9674C51.3943 73.5022 46.869 71.7187 42.045 70.5256C38.7393 69.7081 35.4589 69.2084 32.55 68.9337V85.7405C40.3895 86.7692 47.3799 88.998 52.6454 91.0961C53.4339 91.4103 54.1865 91.7227 54.9006 92.0292Z" fill="#F0412E"/>
<path fill-rule="evenodd" clip-rule="evenodd" d="M67.5494 64.8939C67.5494 64.8939 69.5981 63.6509 73.0994 62.0302C79.1171 59.2447 89.4258 55.3434 101 54.7189V27.0308L100.999 27.0308C99.3967 27.0308 97.5131 27.1061 95.45 27.2859C86.8062 28.0395 75.0113 30.6285 67.5494 37.2058V64.8939ZM73.0994 55.9542V39.8924C76.6057 37.4272 81.131 35.6437 85.955 34.4506C89.2607 33.6331 92.5411 33.1334 95.45 32.8587V49.6655C87.6105 50.6942 80.6201 52.923 75.3546 55.0211C74.5662 55.3353 73.8135 55.6477 73.0994 55.9542Z" fill="#FEBD00"/>
<path fill-rule="evenodd" clip-rule="evenodd" d="M67.5494 100.969C67.5494 100.969 69.5981 99.7259 73.0994 98.1052C79.1171 95.3197 89.4258 91.4184 101 90.7939V63.1058H100.999C99.3967 63.1058 97.5131 63.1811 95.45 63.3609C86.8062 64.1145 75.0113 66.7035 67.5494 73.2808V100.969ZM73.0994 92.0292V75.9674C76.6057 73.5022 81.131 71.7187 85.955 70.5256C89.2607 69.7081 92.5411 69.2084 95.45 68.9337V85.7405C87.6105 86.7692 80.6201 88.998 75.3546 91.0961C74.5662 91.4103 73.8135 91.7227 73.0994 92.0292Z" fill="#4081F9"/>
</svg>
