<svg xmlns="http://www.w3.org/2000/svg" xmlns:xlink="http://www.w3.org/1999/xlink" width="30" height="30" viewBox="0 0 30 30" fill="none"><defs><rect id="path_0" x="0" y="0" width="30" height="30" /><rect id="path_1" x="0" y="0" width="20" height="20" /></defs><g opacity="1" transform="translate(0 0)  rotate(0 15 15)"><mask id="bg-mask" fill="white"><use xlink:href="#path_0"></use></mask><g mask="url(#bg-mask)" ><path id="矩形 1" fill-rule="evenodd"  transform="translate(0 0)  rotate(0 15 15)" opacity="1" d="M0,30L30,30L30,0L0,0L0,30Z " /><g opacity="1" transform="translate(5 5)  rotate(0 10 10)"><mask id="bg-mask" fill="white"><use xlink:href="#path_1"></use></mask><g mask="url(#bg-mask)" ><path id="路径 1" fill-rule="evenodd" style="fill:#C91B1B" transform="translate(1.6000000000000003 0.30000000000000027)  rotate(0 8.15 9.600048828124999)" opacity="1" d="M0,17.11L3.55,18.04L4.9,10.47L12.75,19.2L16.3,0.93L12.5,0.7L10.17,10.82L7.4,7L7.11,0L3.06,0L0,17.11Z " /></g></g></g></g></svg>