<?xml version="1.0" standalone="no"?><!DOCTYPE svg PUBLIC "-//W3C//DTD SVG 1.1//EN" "http://www.w3.org/Graphics/SVG/1.1/DTD/svg11.dtd"><svg t="1642401545337" class="icon" viewBox="0 0 1024 1024" version="1.1" xmlns="http://www.w3.org/2000/svg" p-id="2232" xmlns:xlink="http://www.w3.org/1999/xlink" width="200" height="200"><path d="M454.1184 312.1664c3.29216 1.646933 4.389547 3.293867 4.389547 4.389547 0 1.099093-1.099093 2.74432-4.389547 4.9408l-14.818987 10.975573v192.0768c0 41.70752 1.097387 73.536853 2.74432 98.234027v3.84c0 7.135573-1.646933 9.332053-13.172053 14.818986-5.486933 2.742613-9.330347 4.389547-11.52512 4.389547-2.74432 0-3.293867-2.740907-3.293867-8.229547v-26.891946h-81.220266v43.904c0 7.133867-1.099093 8.7808-12.074667 13.718186-4.939093 2.19648-8.229547 3.295573-10.426027 3.295574-3.84 0-4.389547-3.295573-4.389546-11.52512v-6.03648c1.097387-32.380587 1.646933-77.380267 1.646933-108.66176V343.447893c0-13.170347-0.549547-39.51104-1.646933-56.526506l29.085013 25.245013h71.343787l14.267733-20.304213 33.47968 20.304213z m-40.064 137.74848v-126.22336h-81.220267v126.22336h81.220267z m0 148.722347v-136.64768h-81.220267v136.64768h81.220267z m324.33664-297.99424c3.29216 2.19648 4.389547 3.84 4.389547 5.486933s-1.099093 2.74432-4.389547 4.939093l-16.462507 10.975574v62.564693c0 6.586027 2.193067 35.67104 2.193067 40.610133 0 6.586027-2.740907 8.231253-12.6208 13.172054-5.48864 2.742613-8.782507 3.84-10.978987 3.84-3.84 0-3.84-2.19648-3.84-23.048534h-167.379626c0 62.011733-8.23296 170.125653-19.208534 207.44192-17.01376 58.72128-36.222293 86.71232-113.053013 140.4928l-4.939093-6.03648c95.491413-79.576747 110.856533-153.66144 110.856533-315.008v-104.270506c0-37.317973-0.549547-54.879573-1.099093-68.59776l36.770133 26.89024h150.367573l16.464214-23.59808 32.930133 24.14592z m-41.70752 106.46528v-94.941867h-167.379627v94.941867h167.379627z m61.4656 202.502826c0.549547 58.719573 6.582613 77.380267 17.01376 82.317654 2.740907 1.646933 4.389547 2.74432 4.389547 4.9408 0 1.097387-0.549547 2.194773-1.099094 3.841706-11.52512 26.3424-25.245013 35.67104-116.893013 35.67104-82.317653 0-85.609813-4.939093-85.609813-52.683093V505.342293c0-31.829333-0.549547-50.48832-1.646934-63.660373l40.062294 19.208533c3.293867 1.645227 4.939093 2.742613 4.939093 4.389547s-0.549547 2.19648-18.10944 13.172053v112.500054c48.293547-37.865813 89.453227-72.989013 126.7712-111.950507l29.63456 24.144213c2.742613 2.19648 3.84 3.841707 3.84 4.9408 0 1.645227-2.194773 2.193067-7.133867 2.193067-6.586027 0-20.304213 4.9408-26.89024 9.330347-48.295253 33.476267-74.635947 51.037867-126.22336 85.06368v77.380266c-0.546133 28.537173 2.74432 32.92672 57.074347 32.92672 20.304213 0 42.25536-1.645227 60.366507-3.841706 24.14592-3.29216 27.989333-14.818987 30.184106-101.526187h9.330347z" fill="#F9F9F9" p-id="2235"></path></svg>