<svg width="100" height="100" viewBox="0 0 100 100" fill="none" xmlns="http://www.w3.org/2000/svg">
 
<path d="M79.0373 47.3945C80.4709 45.9297 80.4631 43.5811 79.0099 42.1279C78.9885 42.1064 78.965 42.0889 78.9435 42.0684C78.9445 42.0674 78.9445 42.0654 78.9465 42.0645L59.797 22.915C59.7951 22.917 59.7931 22.918 59.7912 22.9199C58.3957 21.6357 56.2658 21.6035 54.8342 22.8242C54.8303 22.8213 54.8263 22.8184 54.8215 22.8154L30.2697 47.3662V47.3682C30.2658 47.3721 30.2609 47.376 30.257 47.3799C29.6017 48.0342 29.2424 48.873 29.174 49.7285C29.1701 49.7295 29.1652 49.7314 29.1613 49.7334L27.1242 70.9981L27.1183 71.0587L27.1086 71.1612H27.1135C27.0568 72.1417 27.3986 73.1397 28.1467 73.8888C28.9416 74.6837 30.0187 75.0226 31.0549 74.9093L52.1222 72.88C52.1203 72.877 52.1174 72.8741 52.1154 72.8712C53.0373 72.8438 53.9504 72.4825 54.6545 71.7794C54.7394 71.6944 54.8176 71.6065 54.8927 71.5157C54.8986 71.5187 54.9045 71.5206 54.9094 71.5245L79.0383 47.3955L79.0373 47.3945Z" fill="white"/>
<path d="M79.0381 47.3965C79.0381 47.3965 79.0371 47.3955 79.0361 47.3955C80.4697 45.9307 80.4619 43.582 79.0088 42.1289C78.9873 42.1074 78.9639 42.0898 78.9424 42.0693C78.9434 42.0684 78.9434 42.0664 78.9443 42.0654L69.457 32.5781L28.1465 73.8887C28.9414 74.6836 30.0186 75.0215 31.0547 74.9082L52.1221 72.8789C52.1201 72.876 52.1172 72.8731 52.1152 72.8701C53.0371 72.8428 53.9512 72.4815 54.6543 71.7783C54.7393 71.6934 54.8174 71.6055 54.8926 71.5147C54.8984 71.5176 54.9043 71.5195 54.9092 71.5235L79.0381 47.3965Z" fill="#ECF6FF"/>
</svg>
