<svg xmlns="http://www.w3.org/2000/svg" xmlns:xlink="http://www.w3.org/1999/xlink" width="30" height="30" viewBox="0 0 30 30" fill="none"><defs><rect id="path_0" x="0" y="0" width="30" height="30" /><rect id="path_1" x="0" y="0" width="22" height="22" /></defs><g opacity="1" transform="translate(0 0)  rotate(0 15 15)"><mask id="bg-mask" fill="white"><use xlink:href="#path_0"></use></mask><g mask="url(#bg-mask)" ><path id="矩形 1" fill-rule="evenodd" transform="translate(0 0)  rotate(0 15 15)" opacity="1" d="M0,30L30,30L30,0L0,0L0,30Z " /><g opacity="1" transform="translate(4 4)  rotate(0 11 11)"><mask id="bg-mask" fill="white"><use xlink:href="#path_1"></use></mask><g mask="url(#bg-mask)" ><path id="路径 1" fill-rule="evenodd" style="fill:#62B2E4" transform="translate(7.097363281250001 2.6561132812499997)  rotate(0 4.2543359375 8.34388671875)" opacity="1" d="M7.09,9.96C7.09,9.96 6.76,12.95 4.91,13.92C3.77,14.59 2.14,15.37 0,15.43L1.25,16.69C1.25,16.69 5.01,16.36 6.73,14.81C8.44,13.26 8.51,11.37 8.51,10.63L8.51,1.06L7.09,0L7.09,9.96Z " /><path id="路径 2" fill-rule="evenodd" style="fill:#FFFFFF" transform="translate(6.393750000000001 2.6561132812499997)  rotate(0 3.8971582031249996 7.717294921875001)" opacity="1" d="M4.08,0L4.08,9.78C4.08,9.78 3.54,11.5 2.53,11.83C1.52,12.16 0,12.44 0,12.44L0.7,15.43C2.85,15.37 4.47,14.59 5.62,13.92C7.46,12.95 7.79,9.96 7.79,9.96L7.79,0L4.08,0Z " /></g></g></g></g></svg>