<svg xmlns="http://www.w3.org/2000/svg" xmlns:xlink="http://www.w3.org/1999/xlink" width="32" height="32" viewBox="0 0 32 32" fill="none"><g opacity="1" transform="translate(0 0)  rotate(0 16.000000000000007 16)"><path id="矩形 1" fill-rule="evenodd"  transform="translate(0 0)  rotate(0 15.058823529411764 16)" opacity="1" d="M0,32L30.12,32L30.12,0L0,0L0,32Z " /><g opacity="1" transform="translate(1.3322676295501878e-14 0)  rotate(0 16 16)"><path id="分组 1" fill-rule="evenodd" transform="translate(0 0)  rotate(0 16 16)" opacity="1" d="M0.48 0C0.08 0 0 0.08 0 0.48L0 32L32 32L32 0.56C32 0.08 31.92 0 31.52 0L0.48 0Z M24.64 27.52C26.48 27.52 27.52 26.48 27.44 24.64L27.44 7.36C27.44 5.6 26.48 4.56 24.64 4.56L7.36 4.56C5.6 4.56 4.56 5.6 4.56 7.28L4.56 16L4.56 24.64C4.56 26.48 5.6 27.52 7.36 27.52L24.64 27.52Z " /><path id="分组 2" fill-rule="evenodd" style="fill:#204E36" transform="translate(6.799999999999999 6.8)  rotate(0 9.204229120659337 9.240000000000004)" opacity="1" d="M16.72 17.04C17.2 17.04 17.36 17.2 17.28 17.68L17.28 18.08C17.28 18.48 17.36 18.48 17.68 18.32C18.24 18 18.4 17.44 18.4 16.88L18.4 1.92C18.48 0.48 18 0 16.64 0L1.68 0C0.4 0 0 0.48 0 1.76L0 16.72C0 18 0.48 18.48 1.76 18.48L8.32 18.48C8.96 18.48 9.2 18.32 9.12 17.68C9.04 17.28 9.2 17.04 9.68 17.04L16.72 17.04Z M2.32279 2.31745C2.40279 2.47745 2.48279 2.63745 2.80279 2.63745C3.36279 2.15745 4.08279 1.75745 4.72279 1.19745C4.88279 1.03745 4.64279 0.877452 4.56279 0.717452C4.48279 0.557452 4.32279 0.557452 4.16279 0.637452C3.60279 1.03745 2.96279 1.51745 2.40279 1.91745C2.24279 1.99745 2.16279 2.15745 2.32279 2.31745Z M5.20045 2.40424C5.36045 2.32424 5.52045 2.24425 5.52045 2.08424C5.52045 1.68424 5.12045 1.44424 4.80045 1.68424C3.44045 2.56424 2.16045 3.52425 0.880453 4.40424C0.560453 4.56425 0.480453 4.72425 0.720453 5.04424C0.960453 5.28425 1.12045 5.20424 1.36045 5.04424L5.20045 2.40424Z M6.15849 2.95723C6.07849 2.63723 5.67849 2.47723 5.43849 2.63723C4.47849 3.27723 3.51849 3.99723 2.55849 4.63723C2.31849 4.79723 2.31849 4.95723 2.47849 5.19723C2.63849 5.43723 2.87849 5.43723 3.11849 5.27723C3.99849 4.63723 4.95849 3.99723 5.83849 3.35723C5.99849 3.19723 6.15849 3.11723 6.15849 2.95723Z M14.9572 8.72C12.3972 7.2 9.8372 5.6 7.2772 4.08L6.7972 3.84C6.3972 3.92 6.4772 4.24 6.4772 4.48L6.4772 13.68C6.4772 14 6.3972 14.32 6.6372 14.48C6.8772 14.64 7.1172 14.4 7.3572 14.24C9.9172 12.72 12.3972 11.2 14.9572 9.68C15.6772 9.28 15.6772 9.2 14.9572 8.72Z " /></g></g></svg>