<svg width="100" height="100" viewBox="0 0 100 100" fill="none" xmlns="http://www.w3.org/2000/svg">
 
<path d="M34.829 44.7408C34.7278 43.9316 34.6267 43.0213 34.6267 42.111C34.6267 33.615 41.5044 26.7373 50.0004 26.7373C58.4964 26.7373 65.3741 33.615 65.3741 42.2122C65.3741 43.1225 65.273 43.9316 65.1718 44.8419C72.9598 44.8419 79.3318 51.2139 79.3318 59.1031C79.3318 66.8911 72.9598 73.263 65.0707 73.263C61.1261 73.263 57.485 71.6448 54.9564 69.015C53.6415 67.599 53.6415 65.3739 54.9564 64.059C56.3724 62.643 58.5975 62.643 59.9124 64.059L60.0135 64.1602C61.3284 65.3739 63.0478 66.183 64.9695 66.183C68.9141 66.183 72.1507 62.9465 72.1507 59.0019C72.1507 55.0573 68.9141 51.8208 64.9695 51.8208C63.149 51.8208 61.5307 52.5288 60.2158 53.6413L60.1147 53.7425L59.7101 54.1471L59.4067 54.4505L45.0444 69.015C42.4147 71.6448 38.8747 73.263 34.9301 73.263C27.0409 73.263 20.6689 66.891 20.6689 59.0019C20.6689 51.2139 26.9397 44.8419 34.829 44.7408ZM34.9301 66.183C38.8747 66.183 42.1112 62.9465 42.1112 59.0019C42.1112 55.0573 38.8747 51.8208 34.9301 51.8208C30.9854 51.8208 27.7489 55.0573 27.7489 59.0019C27.7489 62.9465 30.9854 66.183 34.9301 66.183ZM50.0004 50.6071C54.653 50.6071 58.3952 46.8648 58.3952 42.2122C58.3952 37.5596 54.653 33.8173 50.0004 33.8173C45.3478 33.8173 41.6055 37.5596 41.6055 42.2122C41.6055 46.7636 45.3478 50.6071 50.0004 50.6071Z" fill="#06A7FF"/>
<path d="M58.2934 43.1223V42.7177C58.2934 40.796 59.9117 39.1777 61.8334 39.1777C63.7551 39.1777 65.3734 40.796 65.3734 42.7177V43.1223C64.8677 51.2137 58.1923 57.5857 49.9997 57.5857C41.8071 57.5857 35.1317 51.2137 34.626 43.1223V42.7177C34.626 40.796 36.2443 39.1777 38.166 39.1777C40.0877 39.1777 41.706 40.796 41.706 42.7177V43.1223C42.1105 47.3703 45.7517 50.6069 49.9997 50.6069C54.3488 50.6069 57.8888 47.3703 58.2934 43.1223Z" fill="#FF436A"/>
</svg>
