<svg width="128" height="128" viewBox="0 0 128 128" fill="none" xmlns="http://www.w3.org/2000/svg">
 
<path d="M31.8628 52.262C33.8803 38.8134 15.8903 33.1853 8.17673 28.5086C17.1227 29.8066 27.8608 34.6114 28.6999 34.1919C30.5943 33.2447 34.8027 33.2226 35.5058 33.2447C42.2066 33.4552 47.6792 38.0188 52.8349 45.6231C71.7096 28.1011 105.083 16.5763 111.338 14.9191C111.629 15.3597 102.151 28.8522 97.4978 38.0188C98.9605 37.5574 102.078 36.7934 100.587 38.3648C99.5808 39.4242 88.2428 55.91 86.1801 60.5151C96.6855 61.3785 112.493 67.9995 114.472 69.4491C116.588 71 118.774 72.1392 116.193 72.1392C111.998 72.1392 85.1206 77.1593 72.7734 81.4175C76.9722 90.0716 87.1385 111.567 88.5012 115.428C89.3474 117.826 90.0602 120.054 87.1385 116.621C84.8673 113.952 75.3163 103.804 63.1838 95.3165C57.5029 91.3423 54.3564 90.9868 48.5654 87.4892C30.1622 76.3744 29.9742 64.8518 31.8628 52.262Z" fill="white"/>
</svg>
