<svg xmlns="http://www.w3.org/2000/svg" xmlns:xlink="http://www.w3.org/1999/xlink" width="32" height="32" viewBox="0 0 32 32" fill="none"><g opacity="1" transform="translate(0 0)  rotate(0 16 16)"><path id="矩形 1" fill-rule="evenodd" transform="translate(0 0)  rotate(0 16 16)" opacity="1" d="M0,32L32,32L32,0L0,0L0,32Z " /><path id="分组 1" fill-rule="evenodd" style="fill:#E61915" transform="translate(6.437500000000004 5.975677860257747)  rotate(0 9.5625 10.024322139742262)" opacity="1" d="M11.89 2.15C11.55 2.19 11.2 2.25 10.86 2.33C11.09 2.49 11.16 2.55 11.23 2.59C12.72 3.15 13.9 4.25 14.5 5.64C15.28 7.34 15.59 9.2 15.4 11.05C15.36 11.27 15.21 11.46 15 11.57C14.02 11.85 12.96 11.79 12.03 11.39C10.65 10.9 9.49 10 8.72 8.81C7.93 7.74 7.48 6.47 7.43 5.16C7.31 3.49 8.18 1.89 9.7 1.01C10.27 0.74 10.86 0.5 11.46 0.29C11.25 0.19 11.02 0.11 10.78 0.07C8.99 -0.15 7.16 0.14 5.54 0.91C3.23 2.08 1.48 4.05 0.66 6.4C-0.72 10.06 0.1 14.14 2.82 17.08C4.53 18.95 7.02 20.04 9.64 20.05C10.55 20.03 11.46 19.88 12.32 19.59C14.15 19.15 15.63 17.87 16.23 16.18C16.44 15.52 16.8 14.91 17.29 14.4C18.35 13.34 18.97 11.96 19.04 10.51C19.43 7.9 18.44 5.27 16.39 3.47C15.55 2.71 14.45 2.24 13.29 2.15C12.82 2.13 12.36 2.13 11.89 2.15Z M17.2923 10.2918C17.6423 10.1318 17.9123 9.85182 18.0223 9.50182C18.1423 9.15182 18.0923 8.77182 17.8923 8.45182C17.8023 8.11182 17.6723 7.78182 17.5223 7.45182C17.1523 6.74182 16.7423 6.04182 16.3323 5.34182C16.2123 5.24182 16.0723 5.17182 15.9223 5.14182C16.7323 6.76182 17.2023 8.50182 17.2923 10.2918Z M3.45284 6.83902C3.28284 7.99902 3.21284 9.17902 3.25284 10.349C3.62284 14.159 6.39284 17.379 10.2728 18.509C10.4128 18.559 10.5628 18.559 10.7028 18.509C11.4528 18.049 12.1728 17.579 12.8928 17.079C13.0228 16.889 13.1228 16.689 13.1828 16.479C10.5428 16.609 7.99284 15.549 6.32284 13.619C4.47284 11.659 3.59284 9.04902 3.89284 6.43902C3.83284 6.41902 3.77284 6.41902 3.72284 6.39902C3.60284 6.52902 3.51284 6.67902 3.45284 6.83902Z " /></g></svg>