<svg width="100" height="100" viewBox="0 0 100 100" fill="none" xmlns="http://www.w3.org/2000/svg">
 
<path d="M14 50.5C14 66.0825 23.7668 79.3867 37.5121 84.6214C37.1775 81.7714 36.8216 77.072 37.5881 73.7748C38.2482 70.94 41.8495 55.7134 41.8495 55.7134C41.8495 55.7134 40.7636 53.5386 40.7636 50.3175C40.7636 45.2683 43.6897 41.4967 47.3367 41.4967C50.4392 41.4967 51.9357 43.8235 51.9357 46.6128C51.9357 49.7305 49.9495 54.3903 48.9244 58.7125C48.0697 62.329 50.7403 65.2795 54.3051 65.2795C60.7626 65.2795 65.7296 58.4692 65.7296 48.6385C65.7296 39.9363 59.476 33.856 50.5487 33.856C40.2131 33.856 34.145 41.6092 34.145 49.624C34.145 52.7478 35.3464 56.0936 36.849 57.9156C36.9771 58.0532 37.0676 58.2214 37.1118 58.4042C37.1561 58.5869 37.1525 58.7779 37.1015 58.9589C36.8247 60.1086 36.2103 62.5754 36.0916 63.0803C35.9304 63.7434 35.5654 63.8864 34.875 63.564C30.3368 61.453 27.502 54.8192 27.502 49.4902C27.502 38.0261 35.827 27.502 51.5068 27.502C64.1115 27.502 73.9087 36.484 73.9087 48.4864C73.9087 61.009 66.0155 71.089 55.0534 71.089C51.3699 71.089 47.9115 69.1728 46.7253 66.9128C46.7253 66.9128 44.9033 73.8539 44.4623 75.5512C43.6045 78.8483 41.226 83.0215 39.7507 85.391C43.1513 86.4373 46.7588 87 50.5 87C70.6571 87 87 70.6571 87 50.5C87 30.3429 70.6571 14 50.5 14C30.3429 14 14 30.3429 14 50.5Z" fill="white"/>
</svg>
