<svg width="128" height="128" viewBox="0 0 128 128" fill="none" xmlns="http://www.w3.org/2000/svg">
<path d="M30.9881 42.115V85.2968H38.6294V48.4999H45.6323C47.5409 48.4999 49.0994 48.8226 50.3077 49.468C51.5298 50.0996 52.4291 50.9853 53.0059 52.1249C53.5963 53.2646 53.8915 54.5828 53.8915 56.0795C53.8915 57.5762 53.5963 58.9012 53.0059 60.0546C52.4291 61.208 51.5366 62.1143 50.3283 62.7734C49.12 63.4325 47.5684 63.762 45.6735 63.762H42.2196V70.044H46.7033C49.9576 70.044 52.6969 69.4467 54.9213 68.2521C57.1458 67.0437 58.8278 65.3891 59.9675 63.2883C61.1072 61.1874 61.677 58.7845 61.677 56.0795C61.677 53.4019 61.1072 51.0127 59.9675 48.9119C58.8416 46.7973 57.1732 45.1358 54.9625 43.9275C52.7656 42.7192 50.0468 42.115 46.8063 42.115H30.9881Z" fill="#F4B9C2"/>
<path d="M45.66 75.7894V85.6915H48.6855V75.7894H45.66Z" fill="#F4B9C2"/>
<path d="M46.0222 74.1068C46.3442 74.3775 46.7301 74.5129 47.1799 74.5129C47.6297 74.5129 48.0132 74.3775 48.3304 74.1068C48.6524 73.8317 48.8134 73.5029 48.8134 73.1204C48.8134 72.7422 48.6524 72.4177 48.3304 72.147C48.0132 71.8719 47.6297 71.7344 47.1799 71.7344C46.7301 71.7344 46.3442 71.8719 46.0222 72.147C45.705 72.4177 45.5463 72.7422 45.5463 73.1204C45.5463 73.5029 45.705 73.8317 46.0222 74.1068Z" fill="#F4B9C2"/>
<path d="M56.0404 79.2512L54.0376 75.7894H50.9126L54.0376 80.7404L50.799 85.6915H53.924L56.0404 82.2683L58.1924 85.6915H61.2819L58.0362 80.7404L61.1967 75.7894H58.093L56.0404 79.2512Z" fill="#F4B9C2"/>
<path d="M63.3936 75.7894H66.4191V85.6915H63.3936V75.7894Z" fill="#F4B9C2"/>
<path d="M64.9135 74.5129C64.4636 74.5129 64.0778 74.3775 63.7558 74.1068C63.4386 73.8317 63.2799 73.5029 63.2799 73.1204C63.2799 72.7422 63.4386 72.4177 63.7558 72.147C64.0778 71.8719 64.4636 71.7344 64.9135 71.7344C65.3633 71.7344 65.7468 71.8719 66.064 72.147C66.386 72.4177 66.547 72.7422 66.547 73.1204C66.547 73.5029 66.386 73.8317 66.064 74.1068C65.7468 74.3775 65.3633 74.5129 64.9135 74.5129Z" fill="#F4B9C2"/>
<path d="M72.1902 85.6915H75.5993L79.4132 75.7894H76.2101L73.9516 82.8743H73.838L71.5723 75.7894H68.3763L72.1902 85.6915Z" fill="#F4B9C2"/>
<path d="M81.3615 75.7894H84.3871V85.6915H81.3615V75.7894Z" fill="#F4B9C2"/>
<path d="M82.8814 74.5129C82.4316 74.5129 82.0457 74.3775 81.7238 74.1068C81.4065 73.8317 81.2479 73.5029 81.2479 73.1204C81.2479 72.7422 81.4065 72.4177 81.7238 72.147C82.0457 71.8719 82.4316 71.7344 82.8814 71.7344C83.3312 71.7344 83.7148 71.8719 84.032 72.147C84.354 72.4177 84.5149 72.7422 84.5149 73.1204C84.5149 73.5029 84.354 73.8317 84.032 74.1068C83.7148 74.3775 83.3312 74.5129 82.8814 74.5129Z" fill="#F4B9C2"/>
<path d="M89.2562 85.2402C90.0611 85.67 91.0223 85.8849 92.1397 85.8849C93.1104 85.8849 93.9508 85.7237 94.661 85.4014C95.3713 85.0791 95.9276 84.6321 96.3301 84.0605C96.7373 83.4846 96.9645 82.8184 97.0119 82.062H94.1568C94.1 82.4101 93.9792 82.7088 93.7946 82.9581C93.6146 83.2031 93.385 83.39 93.1056 83.519C92.831 83.6479 92.5209 83.7124 92.1752 83.7124C91.7065 83.7124 91.2969 83.5963 90.9466 83.3642C90.5962 83.1322 90.3239 82.7948 90.1298 82.3521C89.9404 81.9094 89.8457 81.3722 89.8457 80.7404C89.8457 80.1172 89.9428 79.5865 90.1369 79.1481C90.331 78.7097 90.6009 78.3766 90.9466 78.1488C91.2969 77.9168 91.7065 77.8007 92.1752 77.8007C92.7292 77.8007 93.1767 77.9533 93.5176 78.2584C93.8632 78.5593 94.0763 78.9568 94.1568 79.4511H97.0119C96.9693 78.6861 96.7396 78.0199 96.323 77.4526C95.9063 76.8853 95.3405 76.4448 94.6255 76.131C93.9106 75.8173 93.0772 75.6604 92.1255 75.6604C91.0223 75.6604 90.0706 75.8775 89.2704 76.3115C88.4702 76.7413 87.8523 77.3409 87.4167 78.1102C86.9859 78.8752 86.7704 79.7648 86.7704 80.7791C86.7704 81.7805 86.9835 82.6658 87.4096 83.4352C87.8405 84.2045 88.456 84.8061 89.2562 85.2402Z" fill="#F4B9C2"/>
</svg>
