<svg xmlns="http://www.w3.org/2000/svg" xmlns:xlink="http://www.w3.org/1999/xlink" width="29.257142857142867" height="29.27917875474236" viewBox="0 0 29.257142857142867 29.27917875474236" fill="none"><g opacity="1" transform="translate(0 0)  rotate(0 14.628571428571428 14.639589377371133)"><path id="矩形 1" fill-rule="evenodd" transform="translate(0 0)  rotate(0 14.628571428571428 14.639589377371133)" opacity="1" d="M0,29.28L29.26,29.28L29.26,0L0,0L0,29.28Z " /><g opacity="1" transform="translate(5.628571428571377 6.501776699632046)  rotate(0 9 8.137812677739133)"><path id="路径 3" fill-rule="evenodd" style="fill:#FFFFFF" transform="translate(0 0)  rotate(0 9.000000000000036 8.137812677739216)" opacity="1" d="M3.19,15.54C3,15.6 2.81,15.67 2.66,15.82C2.58,15.91 2.55,16.01 2.6,16.12C2.64,16.24 2.73,16.28 2.85,16.28C3.35,16.27 3.85,16.27 4.35,16.27C4.86,16.27 5.38,16.27 5.89,16.27C6.04,16.27 6.12,16.19 6.13,16.04C6.14,15.92 6.08,15.83 5.98,15.76C5.83,15.64 5.64,15.57 5.46,15.51C5.36,15.48 5.33,15.43 5.33,15.33C5.33,14.47 5.33,13.6 5.33,12.73C5.33,12.6 5.35,12.59 5.47,12.63C5.78,12.74 6.1,12.84 6.42,12.93C8.08,13.39 9.75,13.62 11.46,13.38C12.81,13.19 14.06,12.76 15.19,11.99C16.28,11.25 17.1,10.29 17.59,9.06C17.98,8.07 18.08,7.04 17.94,5.98C17.76,4.62 17.19,3.43 16.26,2.43C15.32,1.42 14.16,0.77 12.85,0.39C11.62,0.02 10.35,-0.07 9.07,0.04C7.98,0.14 6.91,0.38 5.88,0.75C4.29,1.32 2.85,2.15 1.53,3.2C1.01,3.61 0.51,4.05 0.06,4.53C-0.01,4.6 -0.02,4.66 0.04,4.75C0.37,5.27 0.7,5.8 1.03,6.32C1.12,6.46 1.21,6.47 1.34,6.38C1.41,6.32 1.45,6.24 1.48,6.15C1.51,6.01 1.52,5.86 1.47,5.74C1.36,5.47 1.47,5.27 1.62,5.07C1.63,5.05 1.65,5.03 1.66,5.01C2.09,4.39 2.63,3.88 3.21,3.42C3.26,3.38 3.31,3.3 3.36,3.33C3.42,3.36 3.39,3.44 3.39,3.5C3.39,7.42 3.39,11.34 3.39,15.25C3.39,15.51 3.39,15.47 3.19,15.54Z " /><path id="路径 1" fill-rule="evenodd" style="fill:#0096FA" transform="translate(5.324795339529439 1.0099370626944704)  rotate(0 5.139451820768462 5.673703677065812)" opacity="1" d="M9.91,7.87C10.31,6.86 10.36,5.8 10.19,4.74C10,3.57 9.53,2.53 8.71,1.68C7.56,0.49 6.12,0 4.5,0C3.74,0 2.99,0.12 2.25,0.32C1.5,0.53 0.79,0.81 0.14,1.23C0.05,1.29 0.01,1.35 0.01,1.46C0.01,2.22 0.01,2.99 0,3.76C0,4.46 0,5.17 0,5.87C0,7.34 0,8.8 0,10.27C0,10.41 0.04,10.49 0.17,10.54C0.63,10.74 1.11,10.9 1.6,11.02C2.39,11.21 3.2,11.3 4.01,11.34C4.89,11.38 5.74,11.3 6.57,11.02C8.15,10.47 9.29,9.44 9.91,7.87Z " /></g></g></svg>