<svg xmlns="http://www.w3.org/2000/svg" xmlns:xlink="http://www.w3.org/1999/xlink" width="32" height="32" viewBox="0 0 32 32" fill="none"><g opacity="1" transform="translate(0 0)  rotate(0 16 15.999999999999998)"><path id="矩形 1" fill-rule="evenodd"  transform="translate(0 0)  rotate(0 16 15.999999999999998)" opacity="1" d="M0,32L32,32L32,0L0,0L0,32Z " /><path id="分组 1" fill-rule="evenodd" style="fill:#FEC81D" transform="translate(11.388307800160874 6)  rotate(0 4.611692199839189 10)" opacity="1" d="M4.02 18.12C4.05 18.51 4.11 18.9 4.2 19.29C4.3 19.71 4.61 19.96 5.03 19.98C5.68 20.02 6.33 19.99 7.04 19.99C7.04 19.63 7.03 19.26 7.04 18.9C7.05 18.66 6.99 18.56 6.73 18.58C6.37 18.59 6.01 18.59 5.65 18.55C5.45 18.53 5.25 18.45 5.09 18.31C4.99 18.22 4.97 18 4.98 17.84C4.98 17.78 5.18 17.71 5.3 17.69C5.7 17.61 6.12 17.59 6.51 17.49C7.24 17.32 7.94 17.04 8.48 16.5C9.08 15.91 9.22 15.14 9.22 14.34L9.22 3.31C9.22 2.03 8.71 1.07 7.47 0.56C5.85 -0.11 4.18 -0.16 2.51 0.3C1.73 0.51 0.98 0.82 0.49 1.54C0.09 2.12 0 2.77 0 3.45L0 12.2C0 13.01 -0.01 13.82 0.02 14.63C0.05 15.62 0.44 16.42 1.33 16.94C2.02 17.34 2.79 17.58 3.59 17.65C3.93 17.68 4.01 17.8 4.02 18.12Z M6.24177 8.89948C6.24177 7.15948 6.24177 5.41948 6.23177 3.68948C6.23177 3.37948 6.22177 3.05948 6.14177 2.76948C5.95177 2.07948 5.40177 1.78948 4.45177 1.81948C3.60177 1.84948 3.11177 2.29948 3.02177 3.13948C2.99177 3.35948 2.98177 3.57948 2.98177 3.79948C2.98177 7.17948 2.98177 10.5495 2.98177 13.9295C2.98177 14.1995 3.00177 14.4695 3.04177 14.7395C3.12177 15.2395 3.36177 15.6395 3.87177 15.7895C4.90177 16.0895 6.20177 15.9495 6.23177 14.3295C6.23177 14.1895 6.24177 14.0595 6.24177 13.9195C6.24177 12.2495 6.24177 10.5695 6.24177 8.89948Z " /></g></svg>