<svg xmlns="http://www.w3.org/2000/svg" xmlns:xlink="http://www.w3.org/1999/xlink" width="32" height="32" viewBox="0 0 32 32" fill="none"><g opacity="1" transform="translate(0 0)  rotate(0 16 15.999999999999998)"><path id="矩形 1" fill-rule="evenodd"   transform="translate(0 0)  rotate(0 16 15.999999999999998)" opacity="1" d="M0,32L32,32L32,0L0,0L0,32Z " /><g opacity="1" transform="translate(7 7)  rotate(0 9 9)"><path id="路径 2" fill-rule="evenodd" style="fill:#FFFFFF" transform="translate(0 0)  rotate(0 9 9)" opacity="1" d="M7.2,7.2C6.21,7.2 5.4,6.75 5.4,6.3C5.4,5.76 6.21,5.4 7.2,5.4C8.19,5.4 9,4.95 9,4.5C9,3.96 8.19,3.6 7.2,3.6C6.03,3.6 5.4,2.97 5.4,1.8C5.4,0.81 5.04,0 4.5,0C4.05,0 3.6,0.81 3.6,1.8C3.6,2.97 2.97,3.6 1.8,3.6C0.81,3.6 0,3.96 0,4.5C0,4.95 0.81,5.4 1.8,5.4C2.79,5.4 3.6,5.76 3.6,6.3C3.6,6.75 2.79,7.2 1.8,7.2C0.81,7.2 0,7.56 0,8.1C0,8.55 0.81,9 1.8,9C3.33,9 3.6,9.63 3.6,12.6C3.6,14.58 3.24,16.2 2.7,16.2C2.25,16.2 1.8,14.94 1.8,13.5C1.8,11.97 1.44,10.8 0.9,10.8C0.45,10.8 0,12.42 0,14.4L0,18L9,18C14.4,18 18,17.64 18,17.1C18,16.56 15.3,16.2 11.7,16.2L5.4,16.2L5.4,12.6C5.4,9.63 5.67,9 7.2,9C8.19,9 9,8.55 9,8.1C9,7.56 8.19,7.2 7.2,7.2Z " /><path id="路径 3" fill-rule="evenodd" style="fill:#FFFFFF" transform="translate(10.8 1.8)  rotate(0 3.6 6.3)" opacity="1" d="M2.7,1.8C4.77,1.8 5.4,2.16 5.4,3.6C5.4,5.04 4.77,5.4 2.7,5.4C0.18,5.4 0,5.58 0,9C0,10.98 0.45,12.6 0.9,12.6C1.44,12.6 1.8,11.34 1.8,9.9C1.8,7.47 2.07,7.2 4.5,7.2C7.02,7.2 7.2,7.02 7.2,3.6L7.2,0L3.6,0C1.62,0 0,0.36 0,0.9C0,1.35 1.26,1.8 2.7,1.8Z " /><path id="路径 4" fill-rule="evenodd" style="fill:#FFFFFF" transform="translate(7.2 10.8)  rotate(0 0.9 1.8)" opacity="1" d="M0.9,0C0.45,0 0,0.81 0,1.8C0,2.79 0.45,3.6 0.9,3.6C1.44,3.6 1.8,2.79 1.8,1.8C1.8,0.81 1.44,0 0.9,0Z " /><path id="路径 5" fill-rule="evenodd" style="fill:#FFFFFF" transform="translate(15.828344954939984 10.8)  rotate(0 1.085827522530046 1.8)" opacity="1" d="M1.36,0C0.91,0 0.37,0.81 0.1,1.8C-0.17,2.97 0.1,3.6 0.91,3.6C1.63,3.6 2.17,2.79 2.17,1.8C2.17,0.81 1.81,0 1.36,0Z " /></g></g></svg>