<svg xmlns="http://www.w3.org/2000/svg" xmlns:xlink="http://www.w3.org/1999/xlink" width="30" height="30" viewBox="0 0 30 30" fill="none"><defs><rect id="path_0" x="0" y="0" width="30" height="30" /></defs><g opacity="1" transform="translate(0 0)  rotate(0 15 15)"><mask id="bg-mask-0" fill="white"><use xlink:href="#path_0"></use></mask><g mask="url(#bg-mask-0)" ><g opacity="1" transform="translate(0 0)  rotate(0 15 15)"><g opacity="1" transform="translate(0 0)  rotate(0 15 15)"><g opacity="1" transform="translate(5.293090615424674 5.157254752062627)  rotate(0 9.744272096346219 9.85021196526265)"><g opacity="1" transform="translate(0 0)  rotate(0 9.744272096346219 9.85021196526265)"><path id="路径 1" fill-rule="evenodd" style="fill:#FFDC04" transform="translate(0 0)  rotate(0 5.846966755175808 6.748344972094206)" opacity="1" d="M0.17,11.69C0.32,12.97 1.88,13.97 3.16,13.26C4.01,12.69 4.44,11.69 4.16,10.7C3.87,9.56 3.73,8.28 4.01,7C4.73,3.3 7.71,0.6 11.69,0.17C4.87,-1.11 -1.11,5.01 0.17,11.69Z " /><path id="路径 2" fill-rule="evenodd" style="fill:#E03A22" transform="translate(0.46246494023938955 13.11385635907018)  rotate(0 8.239129860792474 3.29328378572756)" opacity="1" d="M15.64,4.27C16.78,3.41 16.78,1.56 15.5,0.85C14.65,0.28 13.51,0.43 12.8,1.14C11.95,1.99 10.81,2.7 9.67,3.13C6.12,4.27 2.13,3.13 0,0C2.28,6.54 10.52,8.68 15.64,4.27Z " /><path id="路径 3" fill-rule="evenodd" style="fill:#27AA3A" transform="translate(10.13357605117689 0.4326455505335054)  rotate(0 4.6774840707577745 7.906440247036945)" opacity="1" d="M2.84,0.16C1.56,-0.41 0,0.59 0,2.01C0,3.01 0.71,3.86 1.71,4.14C2.84,4.43 3.98,5 4.98,5.85C7.68,8.27 8.68,12.39 6.97,15.81C11.52,10.54 9.24,2.44 2.84,0.16Z " /><path id="路径 4" fill-rule="evenodd" style="fill:#038BC5" transform="translate(6.056674707148536 5.860523025671748)  rotate(0 3.821941821481202 3.98)" opacity="1" d="M6.35,3.56C6.35,3.27 6.35,2.99 6.21,2.84C6.21,2.7 6.21,2.7 6.07,2.56C6.07,1.14 5.21,0 3.65,0C2.08,0 1.23,1.14 1.23,2.56C1.23,2.7 1.09,2.7 1.09,2.84C0.95,3.13 0.95,3.27 0.95,3.41L0.95,3.56C0.66,3.7 0.38,4.12 0.24,4.55C-0.05,5.26 -0.05,5.97 0.09,5.97C0.24,6.12 0.52,5.83 0.8,5.55C0.8,5.97 1.09,6.4 1.37,6.68C1.09,6.68 0.8,6.97 0.8,7.25C0.8,7.68 1.37,7.96 2.23,7.96C2.94,7.96 3.51,7.68 3.65,7.4L3.79,7.4C3.93,7.68 4.5,7.96 5.21,7.96C5.92,7.96 6.64,7.68 6.64,7.25C6.64,6.97 6.35,6.83 6.07,6.68C6.35,6.4 6.64,6.12 6.78,5.69C7.06,6.12 7.35,6.26 7.49,6.12C7.77,5.97 7.63,5.4 7.35,4.69C6.92,3.98 6.64,3.7 6.35,3.56Z " /></g></g></g></g></g></g></svg>