<svg width="128" height="128" viewBox="0 0 128 128" fill="none" xmlns="http://www.w3.org/2000/svg">

<path fill-rule="evenodd" clip-rule="evenodd" d="M81.1557 94.3772C76.0862 97.2335 70.2334 98.863 64 98.863C44.67 98.863 29 83.193 29 63.863C29 44.5331 44.67 28.863 64 28.863C83.33 28.863 99 44.5331 99 63.863C99 71.2225 96.7286 78.0515 92.8485 83.6871C93.3161 84.6013 94.5186 85.1959 95.8146 85.1959C97.4355 85.1959 97.5674 85.4264 97.5674 86.0944C97.5674 86.2438 97.5702 86.938 97.5744 87.9384C97.585 90.5188 97.6041 95.1364 97.6041 97.6982C97.6041 98.8901 97.106 99.1373 95.9359 99.1373L95.8973 99.1373C94.1531 99.1375 87.19 99.1387 81.1557 94.3772ZM85.1628 63.863C85.1628 75.5509 75.6879 85.0258 64 85.0258C52.3121 85.0258 42.8372 75.5509 42.8372 63.863C42.8372 52.1752 52.3121 42.7002 64 42.7002C75.6879 42.7002 85.1628 52.1752 85.1628 63.863Z" fill="white"/>
</svg>
