<svg width="128" height="128" viewBox="0 0 128 128" fill="none" xmlns="http://www.w3.org/2000/svg">
 
<path d="M56 33.5H61.5V55.5L74.5 52V33.5H84.5V50.5L98 46.5V33.5H103.5V23H56V33.5Z" fill="white"/>
<path d="M73.5 70.5L60 67.5L55 104L69 106L73.5 70.5Z" fill="white"/>
<path d="M98 76L84.5 72.5V105.5H98V76Z" fill="white"/>
<path fill-rule="evenodd" clip-rule="evenodd" d="M14.5 23H51.5V33.5H34V54.5H50.5V105.5H22V87.5L10.5 83L22 56.5V33.5H14.5V23ZM39 64H34V96H39V64Z" fill="white"/>
<path d="M102.554 50.059L53.7223 61.2206C53.4147 61.2909 53.4103 61.7276 53.7164 61.8041L76.5 67.5L79.7369 60.5639C79.8191 60.3877 80.0788 60.4205 80.1147 60.6116L81.5 68L89.5 69.5L93.748 58.6441C93.821 58.4574 94.0928 58.4823 94.1306 58.6792L96.5 71L105 73.5V52.0087C105 50.7243 103.807 49.7728 102.554 50.059Z" fill="#FFC625"/>
<path d="M114.351 48.2092L107.344 58.0186C107.233 58.1743 107.383 58.3823 107.565 58.326L119.71 54.5891C119.848 54.5469 119.897 54.3783 119.804 54.2687L114.666 48.1962C114.582 48.0967 114.426 48.1031 114.351 48.2092Z" fill="#FFC625"/>
<path d="M118.136 62H107.644C107.448 62 107.369 62.2535 107.531 62.3648L114.829 67.3826C114.923 67.4467 115.05 67.4207 115.111 67.3252L118.304 62.3074C118.389 62.1742 118.293 62 118.136 62Z" fill="#FFC625"/>
</svg>
