<svg width="128" height="128" viewBox="0 0 128 128" fill="none" xmlns="http://www.w3.org/2000/svg">
<g clip-path="url(#clip0_313_575)">
 
<path fill-rule="evenodd" clip-rule="evenodd" d="M91.3209 9.76688C93.5592 10.1508 95.6944 9.18158 96.3753 7.33343C97.1641 5.1927 95.703 2.68335 93.1118 1.72864C90.5207 0.773934 87.7808 1.7354 86.992 3.87613C86.2915 5.77742 87.3657 7.96949 89.43 9.10492L83.5385 29.7253C83.3868 30.2563 83.6943 30.8098 84.2253 30.9615C84.7563 31.1132 85.3098 30.8057 85.4615 30.2747L85.5748 29.8784L89.4808 31.0046L89.7579 30.0437L87.3557 29.3511L87.6327 28.3903L90.0349 29.0828L90.4504 27.6415L88.0483 26.949L88.3253 25.9881L90.7274 26.6807L91.0045 25.7198L87.0857 24.59L91.3209 9.76688ZM94.9678 6.81484C94.5538 7.93869 92.8513 8.83878 90.7741 8.07342C88.6969 7.30807 87.9854 5.51858 88.3995 4.39473C88.8136 3.27088 90.516 2.37079 92.5932 3.13614C94.6705 3.9015 95.3819 5.69099 94.9678 6.81484Z" fill="#CE2123"/>
<path fill-rule="evenodd" clip-rule="evenodd" d="M77.5 18H92.5L92.4384 17.8145C91.4771 14.9102 90.6664 12.4613 74.7291 9.54181L72 15L77.1584 18.2826C77.2764 18.1817 77.3906 18.0875 77.5 18ZM70.0013 4.5176C70.8909 5.44129 71.7443 6.39984 74.3392 9.31906L71.3767 15.196L76.7696 18.6278C74.2969 20.9054 70.7617 25.7766 73.9695 32.9162C65.9276 30.1033 58.1748 28.6351 51.9776 27.9778C48.6603 27.6259 45.784 27.506 43.5429 27.5375C42.1619 27.557 41.0007 27.634 40.1204 27.7562C41.9331 17.0956 46.596 11.9753 50.2591 7.95276C50.8736 7.27793 51.46 6.634 52.0001 6L51 4.5L57.5 3.5L56.5001 1.5L63.5001 3V0.5L68.0001 4L68.5 3L68.5008 3.00077C69.1399 3.63987 69.5747 4.07473 70.0013 4.5176ZM39.3701 28.9123C31.9331 33.9611 32.9214 40.0326 33.9825 46.5508C34.0902 47.2127 34.1988 47.8798 34.2993 48.5503C35.5991 52.1337 38.2827 58.6352 41.3945 65.517C43.3208 66.8176 46.4441 68.5056 50.1366 70.3413C54.2297 72.3762 58.9886 74.5763 63.517 76.6062C68.0448 78.6359 72.3388 80.4941 75.5011 81.8449C77.0821 82.5202 78.3801 83.0687 79.2827 83.4483C79.6839 83.617 80.0071 83.7524 80.2421 83.8507C81.0094 82.137 81.8377 80.3561 82.6821 78.5406L82.6827 78.5392C85.2684 72.9798 88.0048 67.0963 89.6005 61.8303C86.962 50.3561 82.9639 37.7623 75.3713 34.3457L75.3255 34.4686C66.7712 31.2856 58.4381 29.6686 51.8722 28.9722C48.5895 28.624 45.7533 28.5065 43.557 28.5374C41.5479 28.5657 40.119 28.7182 39.3701 28.9123ZM90.0333 63.7545C88.3757 68.6734 85.8899 74.0175 83.5583 79.0298C82.6482 80.9864 81.7615 82.8926 80.9569 84.7031L80.7587 85.1489L79.9404 84.8084C79.7002 84.708 79.347 84.5602 78.895 84.3701C77.9909 83.9899 76.6912 83.4407 75.1082 82.7645C71.9424 81.4122 67.6427 79.5516 63.1079 77.5188C58.5739 75.4862 53.8015 73.2801 49.6914 71.2368C46.2049 69.5035 43.7462 67.9456 41.9113 66.6549C42.275 67.4518 42.6437 68.252 43.0158 69.0515C45.415 74.205 48.1934 79.2511 51.1993 83.1132C54.222 86.9969 57.397 89.5818 60.5661 90.0044C75.4995 91.9955 83.9382 89.6576 88.8376 86.2159C91.232 84.5339 92.8046 82.5727 93.8833 80.6786C93.0888 78.5317 92.331 74.8216 91.4264 70.3933C91.0009 68.3101 90.5429 66.0677 90.0333 63.7545ZM34.5001 50C34.4725 49.7791 34.4433 49.5586 34.413 49.3385C34.9253 51.018 35.6297 53.1827 36.5 55.6403V73.5001L34.5001 76.5V50ZM37.5 58.3911C38.109 60.0237 38.7777 61.7418 39.5 63.5002V77.8334L37.5001 80.5L37.5 58.3911ZM40.5 65.8779C41.0143 67.072 41.5513 68.2751 42.1093 69.4735C42.4004 70.0989 42.6974 70.7234 43 71.3451V85.1429L40.5001 88L40.5 65.8779ZM44.0001 93L44 73.3475C44.8003 74.9084 45.635 76.4371 46.5 77.9015V89.7858L44.0001 93ZM47.5 79.5428C48.1518 80.5789 48.819 81.5736 49.5 82.5141V91.8334L47.5001 94.5L47.5 79.5428ZM50.5 83.8424C51.311 84.8766 52.1452 85.8356 53 86.6945V91.2858L50.5001 94.5L50.5 83.8424ZM54 87.644C56.0472 89.474 58.2031 90.6982 60.434 90.9956C60.8308 91.0485 61.2233 91.0984 61.6114 91.1454L61.6758 91.2344C65.5951 96.6548 71.892 105.042 78.0693 112.076C81.157 115.593 84.2235 118.781 86.9544 121.094C88.3196 122.251 89.6102 123.196 90.7849 123.854C91.9524 124.508 93.0434 124.9 93.9999 124.9C94.3857 124.9 94.7067 124.722 94.9562 124.445C95.1973 124.176 95.3802 123.807 95.5236 123.382C95.8107 122.529 95.9769 121.329 96.0556 119.897C96.2134 117.024 96.0238 113.094 95.6484 108.84C94.897 100.325 93.3951 90.4372 92.3935 84.9284L92.3219 84.5349L92.283 84.542C93.1214 83.6422 93.8095 82.7154 94.3802 81.7983C94.42 81.8696 94.4599 81.9369 94.5001 82C96 88.5 99.3334 114.5 100 128H83.0001C72 116.5 55.5001 91.5 55.5001 91.5L54 94L54 87.644ZM91.6308 85.206C91.1181 85.7014 90.5556 86.1855 89.9376 86.6518C90.6812 90.4613 91.5307 97.0323 91.8991 102.781C92.087 105.713 92.1508 108.447 92.0083 110.498C91.9373 111.52 91.8137 112.395 91.6195 113.045C91.5226 113.369 91.4023 113.658 91.2485 113.885C91.0947 114.113 90.8857 114.309 90.6052 114.386C89.9287 114.57 89.1474 114.419 88.332 114.074C87.5087 113.727 86.597 113.16 85.6304 112.436C83.696 110.987 81.4868 108.867 79.2454 106.473C74.7598 101.683 70.0992 95.7437 67.1767 91.7357L67.1029 91.6344C65.7 91.558 64.2298 91.4376 62.689 91.2694C66.6213 96.6879 72.7056 104.756 78.6704 111.549C81.7477 115.053 84.7844 118.208 87.4715 120.484C88.8152 121.622 90.0623 122.532 91.1759 123.156C92.2967 123.784 93.2447 124.1 93.9999 124.1C94.1141 124.1 94.2307 124.055 94.3611 123.91C94.4998 123.755 94.6392 123.501 94.7654 123.126C95.0173 122.378 95.1792 121.265 95.2568 119.853C95.4114 117.039 95.2261 113.156 94.8515 108.91C94.1089 100.494 92.629 90.7227 91.6308 85.206ZM68.1296 91.683C71.0529 95.6617 75.5267 101.331 79.8294 105.927C82.0589 108.308 84.2309 110.388 86.11 111.795C87.0502 112.5 87.9034 113.025 88.6432 113.337C89.391 113.653 89.9712 113.73 90.3947 113.614C90.4266 113.605 90.495 113.571 90.5859 113.437C90.6767 113.303 90.7683 113.099 90.853 112.816C91.0221 112.25 91.1407 111.444 91.2103 110.442C91.349 108.445 91.2879 105.753 91.1007 102.832C90.7456 97.2895 89.9406 90.9819 89.2217 87.1664C88.6481 87.5592 88.0321 87.9361 87.3701 88.293L87.3953 88.4392C87.8114 90.8523 88.4385 94.4897 88.7108 97.5268C88.8467 99.0426 88.8969 100.435 88.7802 101.459C88.7222 101.967 88.6196 102.422 88.4407 102.762C88.2564 103.111 87.9519 103.4 87.4999 103.4C86.9783 103.4 86.3777 103.217 85.7488 102.932C85.1127 102.643 84.4132 102.234 83.6839 101.747C82.2248 100.771 80.6156 99.461 79.108 98.1104C77.5993 96.7589 76.1841 95.3595 75.1125 94.2013C74.5771 93.6226 74.1241 93.1004 73.7871 92.6722C73.6188 92.4582 73.4763 92.2638 73.3661 92.0949C73.2746 91.9547 73.1938 91.8149 73.1425 91.6866C71.5788 91.7529 69.9103 91.7544 68.1296 91.683ZM74.0256 91.6417C74.0291 91.6469 74.0325 91.6523 74.0361 91.6577C74.129 91.8001 74.2561 91.9744 74.4158 92.1774C74.7351 92.5832 75.1727 93.0884 75.6998 93.658C76.7533 94.7967 78.1505 96.1786 79.6418 97.5146C81.1342 98.8515 82.7125 100.135 84.1285 101.082C84.8367 101.555 85.4965 101.939 86.0792 102.203C86.669 102.471 87.1466 102.6 87.4999 102.6C87.548 102.6 87.6288 102.586 87.7329 102.389C87.8425 102.181 87.9312 101.843 87.9853 101.369C88.0925 100.429 88.0489 99.1032 87.914 97.5982C87.6489 94.6413 87.0414 91.0955 86.6245 88.6768C83.4921 90.2151 79.4019 91.3218 74.0256 91.6417ZM70.5 11C70.5 11.8284 69.8284 12.5 69 12.5C68.1716 12.5 67.5 11.8284 67.5 11C67.5 10.1716 68.1716 9.5 69 9.5C69.8284 9.5 70.5 10.1716 70.5 11ZM71 11C71 12.1046 70.1046 13 69 13C67.8955 13 67 12.1046 67 11C67 9.89543 67.8955 9 69 9C70.1046 9 71 9.89543 71 11Z" fill="black"/>
<path d="M54.0001 104C56.2637 104 57.8333 99 58 97L59.5001 99C59.0001 100 59.0001 101.855 59.0001 102.5C59.0001 103.5 59.5001 104 61.5001 104C63.5001 104 64.5 105.5 64.5001 106.5H60.5001C59.5 106.5 59.5 105.5 58 105.5C56 105.5 57.9099 106.5 52.5 106.5C50 106.5 48.5 106.5 47.5 107.5C47.5 103.5 51.5001 104 54.0001 104Z" fill="black"/>
</g>
<defs>
<clipPath id="clip0_313_575">
<rect width="128" height="128" fill="white"/>
</clipPath>
</defs>
</svg>
