<svg width="128" height="128" viewBox="0 0 128 128" fill="none" xmlns="http://www.w3.org/2000/svg">
 
<path fill-rule="evenodd" clip-rule="evenodd" d="M65.9199 39.0925H63.4654V42.2444C52.2408 42.9372 43.3516 52.2601 43.3516 63.6591C43.3516 67.0777 44.1511 70.3095 45.5733 73.1778L42.0027 75.2393L43.2299 77.365L46.7879 75.3108C50.611 81.2112 57.2534 85.1151 64.8076 85.1151C72.3519 85.1151 78.9867 81.2214 82.8122 75.334L86.3299 77.365L87.5571 75.2393L84.0295 73.2027C85.4595 70.3282 86.2636 67.0876 86.2636 63.6591C86.2636 52.1824 77.2527 42.8102 65.9199 42.2315V39.0925ZM47.3516 63.6591C47.3516 54.4701 54.4519 46.9393 63.4654 46.254V53.8191H60.3798L65.0783 62.0941L69.2859 53.8191H65.9199V46.238C75.0423 46.8116 82.2636 54.3921 82.2636 63.6591C82.2636 66.3589 81.6507 68.9156 80.5564 71.1975L74.8035 67.876L76.3463 65.2038L66.8307 65.1354L71.8932 72.9168L73.5763 70.0017L79.3418 73.3304C76.2128 78.0234 70.8712 81.1151 64.8076 81.1151C58.734 81.1151 53.3849 78.0133 50.258 73.3073L55.9835 70.0017L57.6665 72.9168L62.7291 65.1354L53.2135 65.2038L54.7563 67.876L49.0468 71.1724C47.96 68.8968 47.3516 66.349 47.3516 63.6591Z" fill="#FFFDFF"/>
<path fill-rule="evenodd" clip-rule="evenodd" d="M75.4781 27.6699L76.6488 33.3159C91.3275 38.8394 98.9357 53.0394 97.016 68.7952L101.23 72.7904L90.7735 91.1121L84.9056 89.1769C79.3227 93.7805 72.7008 96.0115 64.8997 96.0115C57.0985 96.0115 50.0222 93.364 44.4393 88.7605L39.2681 91.545L28.0505 72.69L32.9831 68.2348C30.735 53.3204 39.2583 38.4409 53.6314 33.3159L54.4351 27.6699H75.4781ZM94.9089 69.5534L98.7149 73.162L89.847 88.7006L84.4843 86.9321L83.6332 87.6339C78.444 91.9128 72.2847 94.0115 64.8997 94.0115C57.5637 94.0115 50.937 91.5261 45.7116 87.2174L44.6746 86.3623L40.0071 88.8755L30.6072 73.0758L35.1208 68.999L34.9607 67.9367C32.8504 53.936 40.8617 39.9925 54.3031 35.1998L55.4411 34.794L56.1705 29.6699H73.8502L74.914 34.8001L75.9444 35.1878C89.6604 40.349 96.8522 53.6034 95.0307 68.5533L94.9089 69.5534Z" fill="#FFFDFF"/>
</svg>
