<svg xmlns="http://www.w3.org/2000/svg" xmlns:xlink="http://www.w3.org/1999/xlink" width="894" height="894" viewBox="0 0 894 894" fill="none"><g opacity="1"  transform="translate(0 0)"><path id="矩形 1" fill-rule="evenodd" style="fill:#FFFFFF" opacity="1" d="M0 0L894 0L894 894L0 894L0 0Z"></path><g opacity="1"  transform="translate(124 153)"><mask id="bg-mask-0" fill="white"><use transform="translate(0 0)" xlink:href="#path_0"></use></mask><g mask="url(#bg-mask-0)" ><path id="路径 1" fill-rule="evenodd" style="fill:#E3AF86" opacity="1" d="M642.589 296.403C570.795 198.389 475.341 120.129 365.118 68.9123L365.118 33.9949C365.118 24.9789 361.534 16.332 355.154 9.95669C348.774 3.5814 340.12 0 331.097 0C322.074 0 313.42 3.5814 307.04 9.95669C300.66 16.332 297.075 24.9789 297.075 33.9949L297.075 57.4514C293.225 58.3152 289.436 59.4344 285.735 60.802L285.735 43.7078C285.735 34.6917 282.151 26.0448 275.771 19.6695C269.39 13.2942 260.737 9.71283 251.713 9.71283C242.69 9.71283 234.037 13.2942 227.657 19.6695C221.276 26.0448 217.692 34.6917 217.692 43.7078L217.692 80.7456L52.4442 129.019C22.246 139.816 0.69901 167.951 0.601807 200.991L0.715224 260.886C2.75652 298.896 33.2301 329.605 71.885 333.344L71.885 333.976C141.71 342.313 195.788 400.088 195.788 470.117L195.788 560.948C195.784 563.713 196.666 566.407 198.304 568.635C199.942 570.864 202.252 572.51 204.893 573.332C237.895 583.542 272.249 588.721 306.796 588.694C475.737 588.694 616.23 466.799 644.873 306.23C645.17 304.522 645.121 302.772 644.728 301.085C644.336 299.397 643.609 297.805 642.589 296.403Z"></path><path id="路径 2" fill-rule="evenodd" style="fill:#9A7356" opacity="1" d="M100.272 201.508C100.272 177.083 80.4588 157.282 56.0193 157.282C31.5793 157.282 11.7668 177.083 11.7668 201.508L11.7668 250.655C11.7668 275.081 31.5793 294.881 56.0193 294.881C80.4588 294.881 100.272 275.081 100.272 250.655L100.272 201.508Z"></path><path id="路径 3" fill-rule="evenodd" style="fill:#000000" opacity="1" d="M78.5762 196.138C77.9462 195.563 77.209 195.119 76.4068 194.83C75.6039 194.541 74.7529 194.414 73.9006 194.454C73.0489 194.494 72.2135 194.702 71.4419 195.066C70.6708 195.43 69.9791 195.943 69.4064 196.575L55.6847 211.63L42.7241 196.688C41.5978 195.392 40.0029 194.596 38.2896 194.475C36.5763 194.353 34.8847 194.916 33.5868 196.04C32.2876 197.164 31.4878 198.756 31.3633 200.468C31.2387 202.18 31.7996 203.871 32.9226 205.17L48.7669 223.431L48.7669 256.034C48.7669 257.75 49.4497 259.397 50.6649 260.612C51.8802 261.826 53.5285 262.509 55.2472 262.509C56.9659 262.509 58.6142 261.826 59.8295 260.612C61.0448 259.397 61.7275 257.75 61.7275 256.034L61.7275 224.304L78.9974 205.348C79.5806 204.718 80.0331 203.98 80.3276 203.174C80.6227 202.368 80.754 201.512 80.715 200.655C80.6754 199.798 80.4667 198.957 80.0994 198.182C79.7321 197.407 79.2146 196.711 78.5762 196.138Z"></path><path id="路径 4" fill-rule="evenodd" style="fill:#000000" opacity="1" d="M255.649 153.659C255.21 153.656 254.772 153.629 254.336 153.578L209.752 147.589C208.485 147.419 207.265 147.002 206.16 146.361C205.056 145.72 204.089 144.868 203.314 143.853C202.539 142.838 201.971 141.681 201.645 140.447C201.318 139.213 201.237 137.927 201.408 136.662C201.755 134.109 203.101 131.799 205.152 130.239C207.203 128.678 209.789 127.996 212.344 128.341L256.928 134.314C258.195 134.484 259.415 134.9 260.519 135.541C261.625 136.182 262.592 137.035 263.367 138.05C264.142 139.064 264.709 140.222 265.036 141.456C265.363 142.69 265.443 143.976 265.272 145.241C264.958 147.57 263.81 149.706 262.041 151.254C260.271 152.802 258 153.656 255.649 153.659Z"></path></g></g></g><defs><rect id="path_0" x="0" y="0" width="645.5595703125" height="589" rx="0" ry="0"/></defs></svg>