<svg xmlns="http://www.w3.org/2000/svg" xmlns:xlink="http://www.w3.org/1999/xlink" width="32" height="32" viewBox="0 0 32 32" fill="none"><defs><rect id="path_0" x="0" y="0" width="24" height="24" /></defs><g opacity="1" transform="translate(0 0)  rotate(0 16 15.999999999999998)"><path id="矩形 1" fill-rule="evenodd"  transform="translate(0 0)  rotate(0 16 15.999999999999998)" opacity="1" d="M0,32L32,32L32,0L0,0L0,32Z " /><g opacity="1" transform="translate(4 4)  rotate(0 12 12)"><mask id="bg-mask-0" fill="white"><use xlink:href="#path_0"></use></mask><g mask="url(#bg-mask-0)" ><path id="路径 1" fill-rule="evenodd" style="fill:#FFFFFF" transform="translate(9.757181300843198 9.436232425286017)  rotate(0 0.14380647259163015 0.1479632465889571)" opacity="1" d="M0,0.21C0.02,0.26 0.06,0.29 0.11,0.3C0.16,0.3 0.21,0.28 0.25,0.23C0.28,0.19 0.3,0.13 0.28,0.09C0.27,0.04 0.23,0.01 0.18,0C0.13,0 0.08,0.02 0.04,0.06C0.01,0.11 -0.01,0.16 0,0.21Z " /><path id="分组 1" fill-rule="evenodd" style="fill:#FFFFFF" transform="translate(9.369975623124013 10.117803118724147)  rotate(0 0.5 0.5)" opacity="1" d="" /><path id="路径 4" fill-rule="evenodd" style="fill:#FFFFFF" transform="translate(8.843167424159644 9.526895488508982)  rotate(0 0.4725835836527976 0.48615223414726927)" opacity="1" d="M0.02,0.69C0.06,0.85 0.19,0.95 0.35,0.97C0.51,0.99 0.69,0.91 0.81,0.77C0.93,0.63 0.97,0.44 0.93,0.28C0.89,0.13 0.76,0.02 0.59,0C0.43,-0.01 0.26,0.06 0.14,0.2C0.02,0.35 -0.03,0.53 0.02,0.69Z " /><path id="分组 2" fill-rule="evenodd" style="fill:#FFFFFF" transform="translate(2.000235187500013 4.770543565763652)  rotate(0 9.999779083687189 7.229301756180666)" opacity="1" d="M6.98238 1.85C6.98238 1.85 6.79238 1.86 6.88238 1.3C6.88238 1.3 6.99238 0.88 6.73238 0.86C6.73238 0.86 6.36238 0.9 6.05238 1.66C6.05238 1.66 5.76238 2.6 5.52238 2.51C5.52238 2.51 5.33238 2.6 5.33238 2.16C5.34238 1.72 5.34238 1.39 4.89238 2C4.89238 2 4.52238 2.73 4.39238 3.14C4.39238 3.14 3.82238 4.18 3.99238 5.1C4.16238 6.02 5.18238 7.24 8.23238 7.1C11.2724 6.96 12.6124 5.5 12.8024 4.6C12.8024 4.6 13.1124 3.78 12.5724 2.83C12.5724 2.83 12.4524 2.56 12.6724 2.29C12.8924 2.01 13.3824 1.56 13.2424 1.24C13.2424 1.24 13.0124 1.03 12.5724 1.24C12.1324 1.44 11.5324 1.88 11.5324 1.88C11.5324 1.88 11.1924 2.09 11.0724 1.94C10.9524 1.79 11.0424 1.51 11.1124 1.37C11.1824 1.23 11.7324 0.49 11.4524 0.33C11.1724 0.17 10.4924 0.58 9.78238 1.4C9.78238 1.4 9.42238 1.91 9.13238 1.66C9.13238 1.66 8.91238 1.54 9.12238 1.02C9.33238 0.5 9.46238 0.15 9.29238 0.03C9.11238 -0.09 8.46238 0.12 8.10238 0.69C7.73238 1.26 7.29238 2.09 6.98238 1.85Z M2.61 8.36562C2.7 7.97562 3.75 7.91562 4.14 7.99562C4.53 8.07562 5.18 8.27562 5.4 8.54562L5.79 7.32562C5.79 7.32562 2.31 6.05562 0.94 8.41562C0.94 8.41562 0.28 9.78562 2.27 9.96562C2.27 9.96562 3.53 10.1356 3.43 10.4056C3.43 10.4056 3.46 10.8856 2.41 10.8456C1.37 10.8156 0.62 10.3856 0.37 10.1356L0 11.4356C0 11.4356 0.8 11.8956 2.52 11.8056C2.52 11.8056 5.15 11.6256 5.2 9.81562C5.2 9.81562 5.36 9.14562 3.85 8.87562C3.85 8.87562 2.52 8.75562 2.61 8.36562Z M5.96863 13.7716C6.75863 12.2416 8.28863 7.94165 8.29863 7.65165C8.29863 7.65165 7.09863 7.82165 6.43863 7.57165C6.43863 7.57165 5.56863 11.1316 5.30863 13.7716C5.30863 13.7716 5.17863 15.3116 5.96863 13.7716Z M13.1611 11.8181L14.0411 8.8881C14.7411 7.0381 12.9311 6.9881 12.9311 6.9881C11.7811 6.8481 9.30106 7.5681 9.30106 7.5681L7.99106 11.8181L9.66106 11.8181L10.6811 8.4581C11.1111 8.1581 11.8711 8.1581 11.8711 8.1581C12.7011 8.2081 12.3411 9.0281 12.3411 9.0281L11.5011 11.8181L13.1611 11.8181Z M15.9385 10.3202C16.0285 9.85023 16.6685 9.68023 16.8585 9.66023C17.0485 9.64023 17.5185 9.59023 17.5185 9.59023L17.7685 8.72023C17.7685 8.72023 15.9985 8.77023 15.3185 9.19023C14.6285 9.61023 14.2185 10.0102 14.1985 10.7502C14.1985 10.7502 14.0285 11.9602 16.1385 11.8202C16.1385 11.8202 18.2185 11.7102 19.2785 10.5602L19.9085 8.52023C19.9085 8.52023 20.5485 7.10023 18.4185 7.02023C18.4185 7.02023 17.2385 6.88023 15.6385 7.21023L15.3185 8.30023C15.3185 8.30023 16.5485 7.96023 17.1185 7.99023C17.6785 8.03023 18.5085 7.95023 18.2385 8.78023C17.9785 9.61023 17.7085 10.5102 17.7085 10.5102C17.7085 10.5102 17.0985 10.8502 16.6685 10.8302C16.2485 10.8102 15.8385 10.7802 15.9385 10.3202Z " /><path id="路径 2" fill-rule="evenodd" style="fill:#E93238" transform="translate(7.027481717342985 7.588352339043134)  rotate(0 3.078858444500537 1.9557071206099694)" opacity="1" d="M6.15,1.67C6.05,0.6 4.59,-0.14 2.9,0.02C1.2,0.18 -0.09,1.18 0.01,2.24C0.11,3.31 1.56,4.05 3.26,3.89C4.96,3.73 6.25,2.73 6.15,1.67Z " /><path id="路径 3" fill-rule="evenodd" style="fill:#FFFFFF" transform="translate(8.350854799111403 8.34612465255565)  rotate(0 1.3827091240800358 1.385738167470869)" opacity="1" d="M0.33,2.45C0.83,2.94 1.7,2.86 2.28,2.28C2.86,1.69 2.93,0.81 2.43,0.32C1.94,-0.17 1.07,-0.09 0.48,0.5C-0.1,1.08 -0.16,1.96 0.33,2.45Z " /></g></g></g></svg>