<svg xmlns="http://www.w3.org/2000/svg" xmlns:xlink="http://www.w3.org/1999/xlink" width="32" height="32" viewBox="0 0 32 32" fill="none"><defs><rect id="path_0" x="0" y="0" width="20" height="20" /></defs><g opacity="1" transform="translate(0 0)  rotate(0 16 16)"><g opacity="1" transform="translate(6 6)  rotate(0 10 10)"><mask id="bg-mask-0" fill="white"><use xlink:href="#path_0"></use></mask><g mask="url(#bg-mask-0)" ><path id="分组 1" fill-rule="evenodd" style="fill:#11A5F5" transform="translate(0.4704035676292122 0.6084967939705805)  rotate(0 9.528726775786833 9.391691419240104)" opacity="1" d="M3.13 11.2C4.72 11.87 7.11 12.45 8.82 12.22C12.45 11.75 8.84 9.84 7.94 9.06C4.6 6.18 9.89 2.93 11.37 0.84C13.99 -2.86 -7.9 6.59 3.13 11.2Z M9.79468 15.4726C4.25468 21.2426 10.6347 18.0626 13.4347 16.4326C28.6547 7.5726 8.05468 4.0626 8.87468 7.4426C9.26468 9.0626 15.7647 9.2526 9.79468 15.4726Z " /></g></g></g></svg>