<svg xmlns="http://www.w3.org/2000/svg" xmlns:xlink="http://www.w3.org/1999/xlink" width="32" height="32" viewBox="0 0 32 32" fill="none"><g opacity="1" transform="translate(0 0)  rotate(0 16 15.999999999999998)"><path id="矩形 1" fill-rule="evenodd"  transform="translate(0 0)  rotate(0 16 15.999999999999998)" opacity="1" d="M0,32L32,32L32,0L0,0L0,32Z " /><path id="路径 2" fill-rule="evenodd" style="fill:#FFFFFF" transform="translate(7 7.409942260321259)  rotate(0 9.000000000000002 8.590057739678807)" opacity="1" d="M6.93,14.79C6.94,12.9 6.93,11.01 6.93,9.11L6.93,4.65C8.36,4.41 9.68,4.19 11.17,3.95C11.17,5.6 11.28,7.1 11.15,8.59C10.92,11.28 11.54,13.68 12.99,15.96C13.53,16.8 14.01,17.24 15.04,17.17C16.49,17.08 16.66,16.85 16.02,15.55C15.37,14.23 14.37,12.94 14.21,11.56C13.93,8.91 14.13,6.2 14.13,3.47C15,3.32 15.78,3.17 16.58,3.04C17.7,2.84 18.18,2.12 17.94,0.8C17.73,-0.37 16.84,0.06 16.17,0.17C11.37,0.96 6.57,1.78 1.78,2.57C0.24,2.83 0.05,3.04 0,4.6C-0.03,5.36 0.31,5.73 1.08,5.62C2.01,5.49 2.94,5.34 4.02,5.16L4.02,15.82C4.02,16.49 4.08,17.17 5,17.06C5.97,16.95 6.92,15.79 6.93,14.79Z " /></g></svg>