<svg xmlns="http://www.w3.org/2000/svg" xmlns:xlink="http://www.w3.org/1999/xlink" width="30" height="30" viewBox="0 0 30 30" fill="none"><defs><rect id="path_0" x="0" y="0" width="30" height="30" /><rect id="path_1" x="0" y="0" width="26" height="12.00360685302073" /></defs><g opacity="1" transform="translate(0 0)  rotate(0 15 15)"><mask id="bg-mask" fill="white"><use xlink:href="#path_0"></use></mask><g mask="url(#bg-mask)" ><path id="矩形 1" fill-rule="evenodd" transform="translate(0 0)  rotate(0 15 15)" opacity="1" d="M0,30L30,30L30,0L0,0L0,30Z " /><g opacity="1" transform="translate(2 8.998196573489622)  rotate(0 13 6.001803426510365)"><mask id="bg-mask" fill="white"><use xlink:href="#path_1"></use></mask><g mask="url(#bg-mask)" ><path id="分组 1" fill-rule="evenodd" style="fill:#FFFFFF" transform="translate(0 0)  rotate(0 13.003907426059515 6.001803426510365)" opacity="1" d="M22.4932 1.64149C21.4432 1.64149 20.6032 2.50149 20.6032 3.55149C20.6032 4.60149 21.4532 5.46149 22.4932 5.46149C23.5432 5.46149 24.3832 4.60149 24.3832 3.55149C24.3832 2.50149 23.5332 1.64149 22.4932 1.64149Z M2.63 6.25C3.12 6.25 3.58 6.11 3.97 5.88L13.92 9.91C14.18 11.11 15.23 12 16.49 12C17.85 12 18.98 10.95 19.1 9.61L22.48 7.12C24.43 7.12 26.01 5.52 26.01 3.56C26.01 1.6 24.43 0 22.48 0C20.55 0 18.98 1.57 18.96 3.52L16.76 6.71C16.2 6.64 15.63 6.77 15.15 7.06L5.2 3.03C4.94 1.84 3.89 0.94 2.63 0.94C1.18 0.93 0 2.13 0 3.6C0 5.06 1.18 6.25 2.63 6.25Z M20.1205 3.55485C20.1205 4.87485 21.1805 5.94485 22.4805 5.94485C23.7805 5.94485 24.8405 4.87485 24.8405 3.56485C24.8405 2.24485 23.7905 1.17485 22.4805 1.17485C21.1805 1.17485 20.1205 2.24485 20.1205 3.55485Z M2.63019 1.63649C1.56019 1.63649 0.700189 2.51649 0.700189 3.58649C0.700189 4.66649 1.56019 5.53649 2.64019 5.53649C2.78019 5.53649 2.92019 5.52649 3.05019 5.49649L2.23019 5.16649L2.23019 5.15649C1.48019 4.82649 1.13019 3.94649 1.44019 3.16649C1.74019 2.39649 2.60019 2.00649 3.38019 2.28649L3.38019 2.28649L4.34019 2.67649C4.02019 2.05649 3.37019 1.63649 2.63019 1.63649Z M16.0664 7.44172L16.8764 7.77172C17.6664 8.09172 18.0464 8.99172 17.7364 9.79172C17.5864 10.1717 17.2864 10.4717 16.9064 10.6317C16.5364 10.8017 16.1064 10.8017 15.7264 10.6517C15.4164 10.5117 15.0964 10.3917 14.7764 10.2617C15.1064 10.9017 15.7664 11.3017 16.4864 11.3017C17.5564 11.3017 18.4264 10.4317 18.4264 9.34172C18.4264 8.26172 17.5564 7.39172 16.4864 7.39172C16.3464 7.39172 16.2064 7.41172 16.0664 7.44172Z " /></g></g></g></g></svg>