<svg width="128" height="128" viewBox="0 0 128 128" fill="none" xmlns="http://www.w3.org/2000/svg">
<path fill-rule="evenodd" clip-rule="evenodd" d="M96 46.693C96 49.9553 93.5179 52.9604 89.3456 55.3573C93.5179 57.7542 96 60.7594 96 64.0216C96 67.274 93.5329 70.2709 89.3833 72.6642C93.5329 75.0575 96 78.0544 96 81.3068C96 89.1444 81.6731 95.4981 64 95.4981C46.3269 95.4981 32 89.1444 32 81.3068C32 78.0544 34.4671 75.0575 38.6167 72.6642C34.4671 70.2709 32 67.274 32 64.0216C32 60.7594 34.4821 57.7542 38.6544 55.3573C36.3745 54.0476 34.5993 52.5562 33.458 50.9406L45.9733 53.4145C46.2556 53.5879 46.5194 53.7898 46.8002 54.0048C48.1126 55.0094 49.7986 56.3001 55.4968 56.3001C59.7792 56.3001 62.7866 54.9094 63.8343 52.6877C64.0345 52.2632 64.363 51.8949 64.8097 51.7511L73.6021 48.9196C74.1583 48.9587 74.7265 48.9789 75.3041 48.9789C82.0522 48.9789 87.5227 46.2175 87.5227 42.811C87.5227 39.4045 82.0522 36.6431 75.3041 36.6431C68.5559 36.6431 63.0855 39.4045 63.0855 42.811C63.0855 42.8809 63.0878 42.9506 63.0924 43.0199L55.4968 48.7792H50.103L32.1074 45.5221C33.4499 38.2322 47.2159 32.5017 64 32.5017C81.6731 32.5017 96 38.8554 96 46.693ZM64 60.8843C55.3139 60.8843 47.4362 59.3495 41.6703 56.8581C41.4728 57.9256 41.37 59.2414 41.37 60.8478C41.37 66.9326 51.4227 71.8653 63.8234 71.8653C76.2241 71.8653 86.2768 66.9326 86.2768 60.8478C86.2768 59.2417 86.0632 58.0328 85.6598 57.1394C79.9609 59.4645 72.3543 60.8843 64 60.8843ZM85.6762 74.4613C79.9755 76.7904 72.3623 78.2129 64 78.2129C55.3102 78.2129 47.4294 76.6768 41.663 74.1835C41.4702 75.2438 41.37 76.5467 41.37 78.133C41.37 84.2178 51.4227 89.1505 63.8234 89.1505C76.2241 89.1505 86.2768 84.2178 86.2768 78.133C86.2768 76.5488 86.069 75.351 85.6762 74.4613Z" fill="white"/>
<path fill-rule="evenodd" clip-rule="evenodd" d="M75.3041 47.0351C79.9256 47.0351 83.672 45.1439 83.672 42.8109C83.672 40.478 79.9256 38.5868 75.3041 38.5868C70.6826 38.5868 66.9361 40.478 66.9361 42.8109C66.9361 45.1439 70.6826 47.0351 75.3041 47.0351ZM80.9095 45.1806C82.3479 44.4545 82.9806 43.5779 82.9806 42.8109C82.9806 42.044 82.3479 41.1673 80.9095 40.4413C79.5107 39.7351 77.5298 39.2782 75.3041 39.2782C73.0783 39.2782 71.0975 39.7351 69.6986 40.4413C68.2603 41.1673 67.6275 42.044 67.6275 42.8109C67.6275 43.5779 68.2603 44.4545 69.6986 45.1806C71.0975 45.8868 73.0783 46.3437 75.3041 46.3437C77.5298 46.3437 79.5107 45.8868 80.9095 45.1806Z" fill="white"/>
<path d="M54.686 55.0151C58.4195 55.0151 61.446 53.8206 61.446 52.347C61.446 50.8734 58.4195 49.6789 54.686 49.6789C54.6255 49.6789 54.5652 49.6792 54.5051 49.6798C54.3183 49.6818 54.1698 49.8351 54.1698 50.0219C54.1698 50.2169 54.3311 50.3729 54.5261 50.3711C54.5792 50.3705 54.6325 50.3703 54.686 50.3703C56.4883 50.3703 58.0883 50.6599 59.2122 51.1035C59.7763 51.3261 60.186 51.574 60.4431 51.814C60.6991 52.0529 60.7546 52.2335 60.7546 52.347C60.7546 52.4605 60.6991 52.6411 60.4431 52.8801C60.186 53.12 59.7763 53.3679 59.2122 53.5905C58.0883 54.0342 56.4883 54.3237 54.686 54.3237C52.8838 54.3237 51.2838 54.0342 50.1598 53.5905C49.5958 53.3679 49.1861 53.12 48.929 52.8801C48.8518 52.808 48.7928 52.7413 48.7481 52.6801C48.6409 52.5334 48.4839 52.3925 48.3022 52.3925C48.0976 52.3925 47.931 52.567 48.0055 52.7575C48.5058 54.0362 51.3063 55.0151 54.686 55.0151Z" fill="white"/>
</svg>
