<svg xmlns="http://www.w3.org/2000/svg" xmlns:xlink="http://www.w3.org/1999/xlink" width="120" height="120" viewBox="0 0 120 120" fill="none"><defs><rect id="path_0" x="0" y="0" width="120" height="120" /><rect id="path_1" x="0" y="0" width="64" height="60" /><path id="path_2"
        transform="translate(0 0) rotate(0 32 30)"
        d="M0,50.4C0,55.7 4.58,60 10.24,60L53.76,60C59.42,60 64,55.7 64,50.4L64,9.6C64,4.3 59.42,0 53.76,0L10.24,0C4.58,0 0,4.3 0,9.6L0,50.4Z" /><linearGradient id="linear_0" x1="26.916%" y1="0%" x2="27.916%" y2="52.932%" gradientUnits="objectBoundingBox"><stop offset="0" stop-color="#1681FF" stop-opacity="1" /><stop offset="1" stop-color="#7EB4F2" stop-opacity="1" /></linearGradient></defs><g opacity="1" transform="translate(0 0)  rotate(0 60 60)"><mask id="bg-mask-0" fill="white"><use xlink:href="#path_0"></use></mask><g mask="url(#bg-mask-0)" ><g opacity="1" transform="translate(0 0)  rotate(0 60 60)"><path id="矩形 1" fill-rule="evenodd"  transform="translate(0 0)  rotate(0 60 60)" opacity="1" d="M120,120L120,0L0,0L0,120L120,120Z " /><g opacity="1" transform="translate(29.184 24)  rotate(0 30.740000000000002 36)"><g opacity="1" transform="translate(0 0)  rotate(0 30.740000000000002 36)"><path id="分组 1" fill-rule="evenodd" style="fill:#FFFFFF" transform="translate(0 0)  rotate(0 30.74 36)" opacity="1" d="M61.48 65.8L61.48 23.72C61.48 20.32 58.72 17.52 55.28 17.52L47.44 17.52L47.44 16.72C47.44 7.48 39.96 0 30.76 0C21.52 0 14.04 7.48 14.04 16.72L14.04 17.52L6.2 17.52C2.76 17.52 0 20.32 0 23.72L0 65.8C0 69.24 2.76 72 6.2 72L55.28 72C58.72 72 61.48 69.24 61.48 65.8Z M19.368 17.564L42.088 17.564L42.088 16.724C42.128 10.444 37.008 5.364 30.728 5.364C24.488 5.364 19.368 10.484 19.368 16.724L19.368 17.564Z " /></g></g></g><g opacity="1" transform="translate(28 40)  rotate(0 32 30)"><mask id="bg-mask-1" fill="white"><use xlink:href="#path_1"></use></mask><g mask="url(#bg-mask-1)" ><g opacity="1" transform="translate(0 0)  rotate(0 32 30)"><mask id="mask-2" fill="white"><use xlink:href="#path_2"></use></mask><g mask="url(#mask-2)"><path id="路径 1" fill-rule="evenodd" style="fill:#FFFFFF" transform="translate(0 0)  rotate(0 32 30)" opacity="1" d="M0,50.4C0,55.7 4.58,60 10.24,60L53.76,60C59.42,60 64,55.7 64,50.4L64,9.6C64,4.3 59.42,0 53.76,0L10.24,0C4.58,0 0,4.3 0,9.6L0,50.4Z " /></g><g mask="url(#mask-2)"><path id="路径 2" fill-rule="evenodd" fill="url(#linear_0)" transform="translate(14 24)  rotate(0 32 42)" opacity="1" d="M1.2,56.99C4.99,67.71 16.81,84.42 48.02,83.99C73,83.65 63.21,76.71 55.2,73.28C52.1,71.56 44.99,61.96 41.27,37.28C37.56,12.59 35.37,8.56 31.15,4.28C26.93,-0.01 17.06,-3.52 1.2,6.42C2.89,6.99 6.01,10.02 4.99,17.56C3.73,26.99 -2.6,46.28 1.2,56.99Z " /></g><g mask="url(#mask-2)"><path id="路径 3" fill-rule="evenodd" style="fill:#FFB95E" transform="translate(22.93 11.63)  rotate(0 8.665122668432398 4.361942755888982)" opacity="1" d="M8.67,2.88L4.98,1.66L0.82,0.04C0.35,-0.14 -0.12,0.3 0.03,0.78L2.22,7.94C2.28,8.15 2.46,8.31 2.67,8.34C3.44,8.46 5.47,8.72 8.67,8.72C11.86,8.72 13.89,8.46 14.66,8.34C14.87,8.31 15.05,8.15 15.11,7.94L17.3,0.78C17.45,0.3 16.98,-0.14 16.51,0.04L12.35,1.66L8.67,2.88Z " /></g><g mask="url(#mask-2)"><path id="路径 4" fill-rule="evenodd" style="fill:#FFB95E" transform="translate(28.08 9.4)  rotate(0 3.5239800000000003 3.0487429896531544)" opacity="1" d="M3.01,0.27L0,4.93L3.51,6.1L7.05,4.92L4.02,0.27C3.78,-0.09 3.25,-0.09 3.01,0.27Z " /></g><g mask="url(#mask-2)"><path id="路径 5" fill-rule="evenodd" style="fill:#FFFFFF" transform="translate(25.799999999999997 32.400000000000006)  rotate(0 2.0999999999999996 2.0999999999999996)" opacity="1" d="M2.1,0C0.94,0 0,0.94 0,2.1C0,3.26 0.94,4.2 2.1,4.2C3.26,4.2 4.2,3.26 4.2,2.1C4.2,0.94 3.26,0 2.1,0Z " /></g></g></g></g></g></g></svg>