<?xml version="1.0" encoding="UTF-8"?>
<svg width="128px" height="128px" viewBox="0 0 128 128" version="1.1" xmlns="http://www.w3.org/2000/svg" xmlns:xlink="http://www.w3.org/1999/xlink">
    <title>网易云课堂</title>
    <g id="网易云课堂" stroke="none" stroke-width="1" fill="none" fill-rule="evenodd">
 
        <path d="M96.4217551,34 C101.303558,34 105.277546,37.8868137 105.417918,42.7346377 L105.421755,43 L105.421755,87 C105.421755,91.8818027 101.534941,95.8557914 96.6871173,95.9961629 L96.4217551,96 L69.4738925,96 L69.4738925,90 L96.4217551,90 C98.0194359,90 99.3254159,88.75108 99.4166624,87.1762728 L99.4217551,87 L99.4217551,43 C99.4217551,41.4023191 98.1728351,40.0963391 96.5980278,40.0050927 L96.4217551,40 L33,40 C31.4023191,40 30.0963391,41.24892 30.0050927,42.8237272 L30,43 L30,85 C30,87.6887547 32.1223067,89.8818181 34.7831104,89.9953805 L35,90 L60.5976426,90 L60.5976426,96 L35,96 C29.0212984,96 24.1566348,91.2302364 24.0037074,85.2884075 L24,85 L24,43 C24,38.1181973 27.8868137,34.1442086 32.7346377,34.0038371 L33,34 L96.4217551,34 Z" id="2" fill="#FD1D20" fill-rule="nonzero"></path>
        <path d="M29.0162361,34.6780354 L85.4017426,25.3062011 C88.6706063,24.7628833 91.7609899,26.9723748 92.3043077,30.2412385 C92.3583483,30.566373 92.3855064,30.8954075 92.3855064,31.2250024 L92.3855064,72.684952 C92.3855064,75.6976059 90.1514869,78.2431418 87.1643204,78.6341913 L76.5156291,80.0282097 C75.3417999,80.1818755 74.2605719,80.7470565 73.4643782,81.6231636 L52.9964648,104.14543 L52.9964648,104.14543 L52.9964648,84.2465418 C52.9964648,83.6942571 52.5487496,83.2465418 51.9964648,83.2465418 C51.9530596,83.2465418 51.9097005,83.2493678 51.8666625,83.2550019 L33.0384186,85.7198042 C28.6575197,86.293307 24.6411836,83.2068026 24.0676809,78.8259037 C24.0226081,78.4815998 24,78.1347267 24,77.7874851 L24,40.5968367 C24,37.6627935 26.1218997,35.159103 29.0162361,34.6780354 Z" id="1" fill="#FD1D20"></path>
    </g>
</svg>