<svg xmlns="http://www.w3.org/2000/svg" xmlns:xlink="http://www.w3.org/1999/xlink" width="32" height="32" viewBox="0 0 32 32" fill="none"><g opacity="1" transform="translate(0 0)  rotate(0 16 15.999999999999998)"> <path id="分组 1" fill-rule="evenodd" style="fill:#FFFFFF" transform="translate(5 9.587839681164041)  rotate(0 11 6.412160318835895)" opacity="1" d="M0.21 1.84C0.39 2.12 0.72 2.24 1.04 2.26C1.7 2.31 2.37 2.27 3.03 2.29C3.19 2.31 3.3 2.48 3.29 2.64C3.29 5.01 3.29 7.38 3.29 9.75C3.27 9.94 3.44 10.1 3.62 10.08C4.18 10.08 4.74 10.08 5.3 10.08C5.46 10.07 5.59 9.91 5.57 9.75C5.58 7.38 5.57 5.01 5.57 2.64C5.55 2.47 5.69 2.29 5.86 2.29C6.53 2.28 7.19 2.29 7.86 2.28C8.01 2.3 8.17 2.17 8.17 2C8.18 1.59 8.18 1.17 8.18 0.76C8.17 0.59 8.02 0.46 7.86 0.48C5.62 0.48 3.39 0.48 1.15 0.48C1.01 0.47 0.85 0.48 0.74 0.37C0.67 0.29 0.69 0.17 0.67 0.07C0.62 0 0.5 -0.03 0.44 0.04C0.03 0.51 -0.18 1.29 0.21 1.84Z M21.1299 3.37117C20.5699 2.70117 19.7199 2.26117 18.8599 2.27117C18.3299 2.28117 17.8299 2.54117 17.4699 2.94117C17.3999 3.05117 17.2199 3.00117 17.2099 2.87117C17.1299 2.43117 16.8099 2.10117 16.4599 1.88117C16.0599 1.62117 15.5599 1.53117 15.1099 1.65117L15.1099 1.65117C14.7999 1.73117 14.5099 1.88117 14.2599 2.07117C14.1699 2.17117 14.2499 2.33117 14.3799 2.34117C14.6199 2.38117 14.7999 2.57117 14.8799 2.81117C15.0199 3.24117 15.0199 3.70117 15.0299 4.15117C15.0299 6.93117 15.0299 9.71116 15.0299 12.5012C15.0199 12.6812 15.1699 12.8412 15.3499 12.8212C15.9099 12.8212 16.4699 12.8312 17.0299 12.8212C17.1999 12.8212 17.3299 12.6612 17.3199 12.4912C17.3199 11.5612 17.3199 10.6312 17.3199 9.69117C17.2999 9.59117 17.3899 9.48116 17.4999 9.50117C17.6099 9.56116 17.6999 9.67117 17.8199 9.74117C18.2999 10.0812 18.9299 10.1412 19.4899 10.0212C20.2899 9.84117 21.0199 9.31116 21.4399 8.58117C21.9099 7.77117 22.0299 6.80117 21.9899 5.87117C21.9499 4.98117 21.7099 4.06117 21.1299 3.37117Z M17.4172 4.50087C17.3172 4.65087 17.3172 4.84087 17.3172 5.01087C17.3172 5.87087 17.3172 6.73087 17.3172 7.59087C17.3272 7.97087 17.6972 8.18087 18.0172 8.23087C18.7472 8.41087 19.4972 7.89087 19.8072 7.23087C20.1172 6.58087 20.0872 5.79087 19.8572 5.12087C19.6072 4.41087 18.8272 3.88087 18.0972 4.08087C17.8372 4.16087 17.5772 4.28087 17.4172 4.50087Z M11.4948 2.76537C11.4948 2.76537 11.4948 2.76537 11.4948 2.76537C11.4948 2.76537 11.4948 2.76537 11.4948 2.76537Z M14.5048 9.58537C14.5148 9.42537 14.3248 9.41537 14.2248 9.33537C13.8848 9.10537 13.7948 8.64537 13.7848 8.24537C13.7848 6.39537 13.7848 4.54537 13.7848 2.69537C13.7948 2.51537 13.6348 2.35537 13.4648 2.37537C12.9048 2.37537 12.3348 2.37537 11.7748 2.37537C11.5848 2.38537 11.5048 2.59537 11.4948 2.76537C11.4948 2.76537 11.4948 2.76537 11.4948 2.76537C11.4948 2.76537 11.4948 2.76537 11.4948 2.76537C11.2148 2.68537 10.9248 2.64537 10.6348 2.63537C10.0148 2.60537 9.38484 2.63537 8.80484 2.86537C8.21484 3.08537 7.70484 3.53537 7.39484 4.10537C6.95484 4.89537 6.83484 5.83537 6.84484 6.73537C6.90484 7.67537 7.21484 8.63537 7.86484 9.31537C8.46484 9.94537 9.39484 10.1654 10.2248 9.98537C10.6848 9.87537 11.0448 9.53537 11.3048 9.15537C11.3648 9.07537 11.4148 8.95537 11.5248 8.98537C11.6348 8.99537 11.6448 9.12537 11.6848 9.20537C11.8548 9.64537 12.2148 10.0154 12.6748 10.1254C13.2248 10.2554 13.7948 10.0554 14.2848 9.79537C14.3648 9.74537 14.5048 9.70537 14.5048 9.58537Z M8.83483 7.09033C8.96483 7.56033 9.22483 8.04033 9.66483 8.27033C10.0248 8.45033 10.4348 8.37033 10.7948 8.25033C11.1948 8.11033 11.5348 7.72033 11.4948 7.27033C11.4948 6.27033 11.4948 5.26033 11.4948 4.26033C11.5048 4.11033 11.4248 3.96033 11.2748 3.93033C11.0048 3.85033 10.7148 3.86033 10.4348 3.90033C9.88483 3.95033 9.36483 4.28033 9.08483 4.77033C8.68483 5.46033 8.62483 6.32033 8.83483 7.09033Z " /></g></svg>