<svg xmlns="http://www.w3.org/2000/svg" xmlns:xlink="http://www.w3.org/1999/xlink" width="32" height="32" viewBox="0 0 32 32" fill="none"><g opacity="1" transform="translate(0 0)  rotate(0 16 15.999999999999998)"><path id="矩形 1" fill-rule="evenodd"   transform="translate(0 0)  rotate(0 16 15.999999999999998)" opacity="1" d="M0,32L32,32L32,0L0,0L0,32Z " /><path id="分组 1" fill-rule="evenodd" style="fill:#FFFFFF" transform="translate(5 12.024416673828227)  rotate(0 11 3.975583326171875)" opacity="1" d="M2.23 7.95183L4.68 7.95183L4.68 2.04183L6.9 2.04183L6.9 0.00183333L0 0.00183333L0 2.04183L2.23 2.04183L2.23 7.95183Z M7.28292 7.95183L13.9829 7.95183L13.9829 5.91183L9.73292 5.91183L9.73292 4.92183L13.9829 4.92183L13.9829 3.03183L9.73292 3.03183L9.73292 2.04183L13.9829 2.04183L13.9829 0.00183333L7.28292 0.00183333L7.28292 7.95183Z M17.7991 5.91867C19.3291 5.91867 19.5491 4.67867 19.5491 3.92867C19.5491 3.42867 19.3891 2.03867 17.6091 2.03867L16.8291 2.03867L16.8291 5.91867L16.8391 5.91867L17.7991 5.91867Z M14.3962 0L14.3962 7.95L17.9362 7.95C20.7062 7.95 21.9963 6.4 21.9963 3.96C21.9963 1.96 21.0662 0 18.4163 0L14.3962 0L14.3962 0Z " /></g></svg>