<svg xmlns="http://www.w3.org/2000/svg" xmlns:xlink="http://www.w3.org/1999/xlink" width="30" height="30" viewBox="0 0 30 30" fill="none"><defs><rect id="path_0" x="0" y="0" width="30" height="30" /><rect id="path_1" x="0" y="0" width="20" height="20" /></defs><g opacity="1" transform="translate(0 0)  rotate(0 15 15)"><mask id="bg-mask" fill="white"><use xlink:href="#path_0"></use></mask><g mask="url(#bg-mask)" ><path id="矩形 1" fill-rule="evenodd"  transform="translate(0 0)  rotate(0 15 15)" opacity="1" d="M0,30L30,30L30,0L0,0L0,30Z " /><g opacity="1" transform="translate(5 5)  rotate(0 10 10)"><mask id="bg-mask" fill="white"><use xlink:href="#path_1"></use></mask><g mask="url(#bg-mask)" ><path id="分组 1" fill-rule="evenodd" style="fill:#FFFFFF" transform="translate(0.1401820888358507 0.35885514911746513)  rotate(0 9.988710042829021 9.789441787469382)" opacity="1" d="M12.7849 0.21C12.7849 3.07 12.7849 5.92 12.7849 8.77C12.2149 8.77 11.6449 8.77 11.0749 8.77C11.0149 8.77 10.9349 8.78 10.8949 8.84C10.8249 8.91 10.8549 9.02 10.8449 9.12C10.8449 12.48 10.8449 15.85 10.8449 19.21C10.8549 19.31 10.8249 19.43 10.8949 19.51C10.9449 19.57 11.0149 19.58 11.0749 19.58L17.2149 19.58C17.5349 19.58 17.8549 19.59 18.1649 19.52C18.6949 19.39 19.1749 19.07 19.4949 18.63C19.7649 18.25 19.9149 17.78 19.9149 17.31C19.9149 14.54 19.9149 11.76 19.9149 8.99C19.9249 8.87 19.8249 8.76 19.7049 8.77C18.1549 8.77 16.6049 8.77 15.0549 8.77C15.0549 7.15 15.0549 5.53 15.0549 3.92C16.5849 3.92 18.1149 3.92 19.6349 3.92C19.7349 3.91 19.8349 3.93 19.9149 3.87C19.9649 3.82 19.9749 3.75 19.9749 3.68C19.9749 3.08 19.9749 2.47 19.9749 1.87C19.9949 1.75 19.8849 1.64 19.7649 1.65C18.1949 1.65 16.6249 1.65 15.0549 1.65C15.0549 1.17 15.0549 0.69 15.0549 0.21C15.0649 0.1 14.9649 -0.01 14.8549 0C14.2349 0 13.6249 0 13.0049 0C12.8849 -0.01 12.7749 0.09 12.7849 0.21Z M17.6415 17.314C17.6415 15.224 17.6415 13.124 17.6415 11.034C16.1315 11.034 14.6215 11.034 13.1115 11.034C13.1115 13.124 13.1115 15.214 13.1115 17.314C14.6215 17.314 16.1315 17.314 17.6415 17.314Z M7.12 14.3935C7.12 14.5035 7.22 14.6035 7.33 14.5935C7.95 14.5935 8.56 14.5935 9.18 14.5935C9.3 14.6035 9.41 14.4835 9.39 14.3635L9.39 0.463521C9.39 0.373521 9.4 0.273521 9.38 0.193521C9.37 0.0935213 9.27 0.0235213 9.18 0.0335213C6.87 0.0335213 4.55 0.0335213 2.24 0.0335213C1.56 0.0335213 0.89 0.373521 0.48 0.903521C0.16 1.31352 -0.01 1.82352 0 2.33352C0 6.35352 0 10.3735 0 14.3935C-0.01 14.5135 0.1 14.6035 0.21 14.5935C0.83 14.5935 1.44 14.5935 2.06 14.5935C2.15 14.6035 2.25 14.5335 2.26 14.4335C2.27 14.3435 2.27 14.2435 2.27 14.1435C2.27 10.1935 2.27 6.24352 2.27 2.30352C3.89 2.29352 5.5 2.29352 7.12 2.30352C7.12 6.33352 7.12 10.3635 7.12 14.3935Z " /><path id="路径 4" fill-rule="evenodd" style="fill:#FFFFFF" transform="translate(0.13888968056103512 3.9515945873122216)  rotate(0 4.696227651946594 8.009491744324722)" opacity="1" d="M5.62,0C5,0 4.39,0 3.77,0C3.66,-0.01 3.55,0.09 3.56,0.21C3.56,3.4 3.56,6.6 3.56,9.79C3.55,10.74 3.19,11.69 2.56,12.41C1.92,13.13 1.02,13.62 0.06,13.75C0.02,13.8 -0.01,13.86 0,13.93C0,14.56 0,15.18 0,15.81C0,15.93 0.12,16.04 0.25,16.02C0.85,15.96 1.45,15.81 2.01,15.57C3.07,15.12 3.98,14.35 4.64,13.42C4.66,13.4 4.68,13.37 4.7,13.35C5.06,13.87 5.49,14.34 5.98,14.73C6.84,15.42 7.9,15.86 8.99,15.99C9.1,16 9.22,16.04 9.31,15.96C9.38,15.91 9.4,15.82 9.39,15.74C9.39,15.14 9.39,14.53 9.39,13.93C9.4,13.85 9.37,13.74 9.27,13.75C8.53,13.66 7.8,13.38 7.23,12.91C6.49,12.31 6.03,11.42 5.89,10.5C5.81,10.05 5.83,9.59 5.83,9.14L5.83,0.43C5.83,0.34 5.84,0.24 5.82,0.15C5.81,0.06 5.71,-0.01 5.62,0Z " /></g></g></g></g></svg>