<svg width="128" height="128" viewBox="0 0 128 128" fill="none" xmlns="http://www.w3.org/2000/svg">
<g clip-path="url(#clip0_1_2)">
 
<path d="M14.0468 79C20.1624 79 24.8489 83.1802 29.4311 87.2673C33.7226 91.0951 37.9226 94.8413 43.1194 94.9954L42.2494 95H43.3697C43.286 94.9994 43.2026 94.9978 43.1194 94.9954C45.2964 94.984 45.772 94.9835 43.5347 95H84.4304C82.1931 94.9835 82.6687 94.984 84.8457 94.9954C84.7627 94.9978 84.6794 94.9994 84.5959 95H85.7149C85.4012 94.9983 85.1108 94.9968 84.8457 94.9954C90.0424 94.8413 94.2424 91.0951 98.5339 87.2673C103.116 83.1802 107.803 79 113.918 79C125.033 79 127.61 92.9511 127.929 95H128V128H0.0525373V95.2497L0 95.25C0 95.25 2.05172 79 14.0468 79Z" fill="black"/>
<path fill-rule="evenodd" clip-rule="evenodd" d="M24.3768 140.449C16.1177 138.384 10 130.915 10 122.016C10 111.522 18.5066 103.016 29 103.016C39.4934 103.016 48 111.522 48 122.016C48 130.954 41.8282 138.45 33.5137 140.476C34.7983 136.839 35.6 131.683 35.6 125.966C35.6 114.948 32.6227 106.016 28.95 106.016C25.2773 106.016 22.3 114.948 22.3 125.966C22.3 131.669 23.0978 136.813 24.3768 140.449Z" fill="white"/>
<path fill-rule="evenodd" clip-rule="evenodd" d="M103.623 140.449C111.882 138.384 118 130.915 118 122.016C118 111.522 109.493 103.016 99 103.016C88.5066 103.016 80 111.522 80 122.016C80 130.954 86.1718 138.45 94.4863 140.476C93.2017 136.839 92.4 131.683 92.4 125.966C92.4 114.948 95.3773 106.016 99.05 106.016C102.723 106.016 105.7 114.948 105.7 125.966C105.7 131.669 104.902 136.813 103.623 140.449Z" fill="white"/>
<path d="M63.8415 125.289C63.9216 125.393 64.0784 125.393 64.1585 125.289L68.7521 119.322C68.8534 119.19 68.7596 119 68.5936 119H59.4064C59.2404 119 59.1466 119.19 59.2479 119.322L63.8415 125.289Z" fill="white"/>
<path d="M87.5 23.5V27H83V32H87.5V35.5H92.5V32H105.5V35.5H110.5V32H115V27H110.5V23.5H105.5V27H92.5V23.5H87.5Z" fill="white"/>
<path fill-rule="evenodd" clip-rule="evenodd" d="M82 39V63C82 65.2537 82.6359 67.5132 84.4192 69.1776C86.1732 70.8147 88.6379 71.5 91.5 71.5H107.5C110.041 71.5 112.29 70.6867 113.869 68.9109C115.405 67.1826 116 64.8844 116 62.5V39H82ZM87 44H96.5V52.5H87V44ZM87 57.5V63C87 64.3463 87.3641 65.0868 87.8308 65.5224C88.3268 65.9853 89.3621 66.5 91.5 66.5H96.5V57.5H87ZM101.5 66.5H107.5C108.959 66.5 109.71 66.0633 110.131 65.5891C110.595 65.0674 111 64.1156 111 62.5V57.5H101.5V66.5ZM111 52.5V44H101.5V52.5H111Z" fill="white"/>
<path d="M16 29.5H34.25V41.5H12.5V46.5H34.0725C33.7729 47.8751 33.0921 49.5235 32.0151 51.3607C30.544 53.8704 28.4747 56.4929 26.1475 58.8797C23.8201 61.2668 21.2992 63.3522 18.9648 64.8219C16.5428 66.3469 14.6501 67 13.5 67V72C16.0999 72 18.9885 70.7156 21.6289 69.0531C24.3571 67.3353 27.1799 64.9832 29.7275 62.3703C32.2753 59.7571 34.6123 56.8171 36.3286 53.8893C36.5355 53.5363 36.7357 53.1796 36.9277 52.8201C37.0624 53.0851 37.2012 53.3484 37.3436 53.6099C39.0372 56.7191 41.3491 59.7523 43.8756 62.41C46.4013 65.067 49.2016 67.4118 51.9154 69.1111C54.5495 70.7605 57.4147 72 60 72V67C58.8353 67 56.9505 66.3645 54.569 64.8733C52.2671 63.432 49.7862 61.3705 47.4994 58.965C45.2134 56.5602 43.1815 53.8747 41.7345 51.2182C40.8251 49.5487 40.1829 47.9574 39.8271 46.5H59.5V41.5H39.25V29.5H57.5V24.5H16V29.5Z" fill="white"/>
<path d="M65 29C66.8692 29 69.3293 29.2447 71.2291 30.0945C72.1528 30.5078 72.8315 31.0145 73.2749 31.5983C73.6127 32.0428 73.8777 32.6133 73.9673 33.3995L66.5 39L69.5 43L74 39.625V46.2646L66.4814 52.0141L69.5186 55.9859L74 52.559V58.5C74 60.8372 72.8022 62.7957 71.2519 64.4006C70.4884 65.191 69.687 65.8445 69 66.3649C68.7364 66.5645 68.5031 66.7347 68.2841 66.8944C68.2462 66.9221 68.2087 66.9494 68.1715 66.9766C68.1387 67.0005 68.1062 67.0243 68.0739 67.048L68.0446 67.0695C67.838 67.2207 67.486 67.4785 67.2322 67.7322L70.7678 71.2678C70.7602 71.2753 70.7536 71.2818 70.7484 71.2869C70.7397 71.2954 70.7347 71.3003 70.7351 71.3007C70.7355 71.3012 70.7454 71.2936 70.7687 71.2758C70.8091 71.245 70.8895 71.1835 71.03 71.0805C71.0822 71.0422 71.1401 71 71.2028 70.9543L71.2078 70.9507C71.4314 70.7876 71.7154 70.5805 72.0188 70.3507C72.813 69.7492 73.8366 68.9215 74.8481 67.8744C76.8478 65.8043 79 62.6628 79 58.5V34C79 31.8575 78.3693 30.0387 77.2563 28.5736C76.1685 27.1417 74.7222 26.1797 73.2709 25.5305C70.4207 24.2553 67.1308 24 65 24V29Z" fill="white"/>
</g>
<defs>
<clipPath id="clip0_1_2">
<rect width="128" height="128" fill="white"/>
</clipPath>
</defs>
</svg>
