<svg xmlns="http://www.w3.org/2000/svg" xmlns:xlink="http://www.w3.org/1999/xlink" width="30" height="30" viewBox="0 0 30 30" fill="none"><defs><rect id="path_0" x="0" y="0" width="30" height="30" /><rect id="path_1" x="0" y="0" width="22" height="22" /></defs><g opacity="1" transform="translate(0 0)  rotate(0 15 15)"><mask id="bg-mask" fill="white"><use xlink:href="#path_0"></use></mask><g mask="url(#bg-mask)" ><path id="矩形 1" fill-rule="evenodd"  transform="translate(0 0)  rotate(0 15 15)" opacity="1" d="M0,30L30,30L30,0L0,0L0,30Z " /><g opacity="1" transform="translate(4 4)  rotate(0 11 11)"><mask id="bg-mask" fill="white"><use xlink:href="#path_1"></use></mask><g mask="url(#bg-mask)" ><path id="分组 1" fill-rule="evenodd" style="fill:#000000" transform="translate(1.0596308593750006 1.4965632798881163)  rotate(0 9.77540707802303 9.43812745733465)" opacity="1" d="M2.98 2.21C2.32 3.04 2.41 4.1 3.35 6.57C4.32 9.14 4.86 11.44 4.91 13.27L4.95 14.6L3.65 14.87C1.55 15.3 0 16.09 0 16.72C0 17.1 1.63 18.05 2.7 18.3C3.24 18.43 4.4 18.62 5.27 18.73C7.69 19.03 14.13 18.85 16.11 18.43C18.47 17.93 19.78 17.2 19.52 16.52C19.32 16.02 18.16 15.42 16.62 15.05C15.22 14.7 15.18 14.67 14.54 13.54L13.88 12.38L14.19 10.98C15.13 6.73 14.61 2.2 13.01 0.63C12.17 -0.19 11.39 -0.21 10.52 0.57C9.64 1.36 9.54 2.38 10 6.16C10.2 7.8 10.33 9.58 10.29 10.1C10.23 10.95 10.17 11.05 9.69 11.05C9.22 11.05 9.15 10.93 9 9.99C8.3 5.42 7.71 3.62 6.48 2.36C5.24 1.08 3.91 1.02 2.98 2.21Z M10.949 9.42612C10.959 10.5861 11.029 10.8161 11.519 11.2661C11.829 11.5561 12.039 11.8261 11.989 11.8761C11.939 11.9261 11.129 11.9061 10.189 11.8461L8.479 11.7261L8.349 10.9661C8.279 10.5461 8.219 9.89612 8.219 9.51612C8.209 7.22612 6.859 3.38612 5.759 2.52612C5.129 2.02612 3.959 1.95612 3.599 2.38612C3.019 3.08612 3.109 4.05612 3.959 6.30612C5.179 9.53612 5.529 11.2561 5.669 14.8361L5.799 18.0061L6.529 18.1461C7.449 18.3261 14.079 18.1961 14.619 17.9861C14.959 17.8561 14.999 17.6761 14.899 16.7061C14.789 15.6761 14.089 13.8961 13.449 13.0061C13.239 12.7261 13.269 12.2761 13.579 10.7361C14.419 6.58612 13.799 1.67612 12.349 1.01612C11.629 0.686124 10.869 0.926124 10.569 1.56612C10.249 2.27612 10.269 3.40612 10.639 5.98612C10.809 7.14612 10.949 8.69612 10.949 9.42612Z M10.7452 17.2618C10.9852 17.2618 11.1652 17.1218 11.1652 16.9518C11.1652 16.7718 10.9852 16.6318 10.7452 16.6318C10.5152 16.6318 10.3252 16.7718 10.3252 16.9518C10.3252 17.1218 10.5152 17.2618 10.7452 17.2618Z M8.53913 16.2148C8.94913 16.2148 8.89913 15.1348 8.47913 14.9948C8.15913 14.8948 7.91913 15.4548 8.07913 15.8948C8.14913 16.0648 8.35913 16.2148 8.53913 16.2148Z M12.5406 15.9954C12.8706 15.9954 13.0906 15.4754 12.9306 15.0554C12.8606 14.8754 12.6906 14.7354 12.5406 14.7354C12.2006 14.7354 11.9806 15.2654 12.1406 15.6854C12.2106 15.8554 12.3906 15.9954 12.5406 15.9954Z " /></g></g></g></g></svg>