<svg xmlns="http://www.w3.org/2000/svg" xmlns:xlink="http://www.w3.org/1999/xlink" width="32" height="32" viewBox="0 0 32 32" fill="none"><g opacity="1" transform="translate(0 0)  rotate(0 16 16)"> <path id="分组 1" fill-rule="evenodd" style="fill:#FF3366" transform="translate(7 6.698324022346355)  rotate(0 9 9.301675977653632)" opacity="1" d="M10.99 18.58C11.03 18.59 12.63 18.6 14.53 18.59L18 18.57L16.08 15.67C15.03 14.08 14.16 12.76 14.16 12.73C14.16 12.71 14.37 12.57 14.62 12.42C15.94 11.61 16.98 10.12 17.33 8.53C17.52 7.69 17.55 6.47 17.42 5.63C16.94 2.68 15.07 0.85 11.85 0.17C11.37 0.07 10.55 0.05 5.65 0.03L0 0L0 9.3L0 18.6L6.11 18.6L6.11 13.72L7.95 13.72L9.43 16.14C10.24 17.46 10.94 18.56 10.99 18.58Z M6.36827 6.12661C6.26827 6.00661 6.12827 5.75661 6.04827 5.56661L5.90827 5.22661L5.64827 5.44661C5.21827 5.79661 5.02827 6.29661 5.03827 7.04661C5.03827 7.5366 5.07827 7.76661 5.20827 8.08661C5.44827 8.6666 6.06827 9.27661 6.68827 9.56661C7.15827 9.7866 7.23827 9.79661 7.97827 9.79661C8.70827 9.79661 8.79827 9.7866 9.23827 9.5766C9.85827 9.2866 10.3783 8.79661 10.6783 8.2066C10.8983 7.79661 10.9183 7.69661 10.9183 7.1166C10.9183 6.5366 10.8883 6.4166 10.6383 5.81661C10.4783 5.4566 10.3283 4.98661 10.3083 4.77661C10.2883 4.55661 10.2283 4.38661 10.1783 4.38661C10.1383 4.38661 9.96827 4.4566 9.79827 4.52661C9.41827 4.68661 9.08827 5.04661 9.08827 5.29661C9.08827 5.47661 9.07827 5.46661 8.86827 5.1666C8.59827 4.77661 8.49827 4.34661 8.49827 3.54661C8.49827 2.81661 8.48827 2.81661 7.97827 3.06661C7.00827 3.56661 6.56827 4.4166 6.55827 5.79661L6.54827 6.33661L6.36827 6.12661Z " /></g></svg>