<svg xmlns="http://www.w3.org/2000/svg" xmlns:xlink="http://www.w3.org/1999/xlink" width="30" height="30" viewBox="0 0 30 30" fill="none"><defs><rect id="path_0" x="0" y="0" width="30" height="30" /><rect id="path_1" x="0" y="0" width="29.958999990234375" height="23.967999990234375" /></defs><g opacity="1" transform="translate(0 0)  rotate(0 15 15)"><mask id="bg-mask" fill="white"><use xlink:href="#path_0"></use></mask><g mask="url(#bg-mask)" > <g opacity="1" transform="translate(0 3.0119999999999996)  rotate(0 14.979499995117187 11.983999995117188)"><mask id="bg-mask" fill="white"><use xlink:href="#path_1"></use></mask><g mask="url(#bg-mask)" ><path id="分组 2" fill-rule="evenodd" style="fill:#DBDCDC" transform="translate(4.128 0)  rotate(0 10.854000000000001 11.983999995117188)" opacity="1" d="M3.897 2.681L4.707 3.711L5.857 1.831L7.657 5.191L7.657 1.581L0.017 1.581L0.017 6.641L7.657 6.641L7.657 5.541L1.987 5.541L3.897 2.681Z M1.09192 3.07844C1.21192 3.19844 1.38192 3.26844 1.55192 3.25844C1.82192 3.25844 2.07192 3.10844 2.17192 2.85844C2.27192 2.60844 2.20192 2.32844 2.02192 2.14844C1.83192 1.94844 1.53192 1.87844 1.30192 1.99844C1.06192 2.10844 0.91192 2.34844 0.90192 2.60844C0.90192 2.78844 0.96192 2.94844 1.09192 3.07844Z M15.997 1.581L15.997 2.411L21.707 2.411L21.707 1.581L15.997 1.581L15.997 1.581Z M15.997 4.01L21.707 4.01L21.707 3.18L15.997 3.18L15.997 4.01Z M15.997 0.83L21.707 0.83L21.707 0L15.997 0L15.997 0.83Z M8.571 2.411L15.041 2.411L15.041 1.581L8.571 1.581L8.571 2.411Z M8.571 3.18L8.571 4.01L15.041 4.01L15.041 3.18L8.571 3.18L8.571 3.18Z M8.571 0L8.571 0.83L15.041 0.83L15.041 0L8.571 0L8.571 0Z M0 21.538L0 22.368L15.05 22.368L15.05 21.538L0 21.538L0 21.538Z M0 23.134L0 23.964L15.05 23.964L15.05 23.134L0 23.134L0 23.134Z M0 19.957L0 20.787L15.05 20.787L15.05 19.957L0 19.957L0 19.957Z M15.998 22.368L21.708 22.368L21.708 21.538L15.998 21.538L15.998 22.368Z M15.998 23.964L21.708 23.964L21.708 23.134L15.998 23.134L15.998 23.964Z M15.998 20.787L21.708 20.787L21.708 19.957L15.998 19.957L15.998 20.787Z M0.832 0.25C0.852 0.21 0.832 0.17 0.822 0.13C0.802 0.1 0.782 0.07 0.752 0.05C0.712 0.02 0.662 0 0.632 0L0.502 0L0.502 0L0.00200001 0L0.00200001 1.05L0.532 1.05C0.582 1.05 0.622 1.05 0.672 1.03C0.712 1.03 0.752 1.01 0.782 0.98C0.822 0.95 0.842 0.92 0.872 0.88C0.922 0.78 0.902 0.66 0.832 0.56C0.802 0.52 0.752 0.48 0.682 0.46C0.732 0.45 0.772 0.42 0.802 0.38C0.822 0.35 0.832 0.3 0.832 0.25Z M0.563 0.385C0.593 0.365 0.613 0.315 0.593 0.285L0.593 0.215C0.583 0.195 0.583 0.185 0.563 0.185C0.543 0.165 0.533 0.165 0.513 0.165L0.233 0.165L0.233 0.415L0.463 0.415C0.493 0.415 0.533 0.395 0.563 0.385Z M0.215 0.898L0.465 0.888L0.535 0.888C0.555 0.888 0.565 0.868 0.585 0.868C0.605 0.848 0.615 0.838 0.615 0.818C0.635 0.798 0.635 0.768 0.635 0.748C0.635 0.708 0.615 0.658 0.585 0.628C0.555 0.598 0.505 0.598 0.465 0.598L0.215 0.598L0.215 0.898Z M1.174 1.02C1.174 1.05 1.174 1.07 1.154 1.08C1.134 1.1 1.104 1.12 1.084 1.12L0.964 1.12L0.964 1.3L1.094 1.3C1.144 1.32 1.214 1.3 1.264 1.27C1.314 1.23 1.334 1.18 1.354 1.13L1.674 0.27L1.454 0.27L1.304 0.78L1.134 0.25L0.904 0.25L1.174 0.97L1.174 1.02Z M1.861 0.153L1.861 0.273L1.731 0.273L1.731 0.403L1.871 0.403L1.871 0.873C1.871 0.903 1.871 0.933 1.891 0.973C1.891 0.983 1.921 1.003 1.941 1.023C1.971 1.033 1.991 1.053 2.021 1.053L2.231 1.053L2.231 0.883L2.171 0.883C2.151 0.903 2.121 0.883 2.101 0.863C2.081 0.853 2.081 0.813 2.081 0.793L2.081 0.403L2.231 0.403L2.331 0.273L2.081 0.273L2.081 0.053L1.861 0.153Z M2.331 0.273L2.331 0.273L2.331 0.263L2.331 0.263L2.331 0.273Z M4.145 0.53C4.145 0.45 4.145 0.37 4.105 0.3C4.095 0.23 4.065 0.18 4.015 0.13C3.975 0.08 3.915 0.05 3.865 0.03C3.805 0.02 3.745 0 3.675 0L3.195 0L3.195 1.07L3.665 1.07C3.735 1.08 3.815 1.07 3.875 1.03C3.935 1.01 3.985 0.97 4.025 0.92C4.055 0.87 4.095 0.82 4.105 0.75C4.125 0.68 4.145 0.6 4.145 0.53Z M3.95 0.56586C3.95 0.51586 3.95 0.46586 3.93 0.41586C3.93 0.38586 3.9 0.33586 3.88 0.29586C3.86 0.26586 3.83 0.24586 3.78 0.22586C3.73 0.21586 3.68 0.19586 3.63 0.21586L3.46 0.21586L3.46 0.87586L3.68 0.86586L3.78 0.86586C3.81 0.84586 3.84 0.83586 3.86 0.81586C3.89 0.78586 3.91 0.74586 3.93 0.71586C3.95 0.66586 3.95 0.61586 3.95 0.56586Z M6.195 0.682Z M6.195 0.682C6.195 0.682 6.195 0.682 6.195 0.682Z M6.375 0.412C6.455 0.412 6.525 0.482 6.545 0.562L6.745 0.562C6.705 0.392 6.555 0.262 6.375 0.262C6.175 0.262 6.015 0.412 5.995 0.612L5.995 0.732C6.015 0.932 6.175 1.082 6.375 1.082C6.555 1.082 6.715 0.962 6.745 0.782L6.545 0.752C6.525 0.832 6.455 0.882 6.375 0.902C6.205 0.902 6.195 0.682 6.195 0.682L6.195 0.632C6.195 0.632 6.195 0.412 6.375 0.412Z M7.205 0.233C7.005 0.233 6.845 0.383 6.825 0.583L6.825 0.703C6.845 0.903 7.005 1.053 7.205 1.053C7.375 1.053 7.525 0.953 7.575 0.803L7.355 0.803C7.325 0.853 7.275 0.903 7.205 0.903C7.075 0.903 7.045 0.773 7.045 0.703L7.495 0.703L7.495 0.703L7.495 0.703L7.595 0.703L7.595 0.593C7.595 0.393 7.425 0.233 7.205 0.233Z M7.061 0.585L7.381 0.585C7.361 0.515 7.321 0.415 7.211 0.415C7.111 0.415 7.071 0.505 7.061 0.585Z M2.85 0.803C2.83 0.873 2.77 0.903 2.7 0.903C2.57 0.903 2.53 0.773 2.53 0.703L3 0.703L3 0.703L3 0.703L3.1 0.703L3.1 0.593C3.1 0.393 2.93 0.233 2.72 0.233C2.52 0.233 2.35 0.383 2.35 0.583L2.35 0.703C2.37 0.903 2.53 1.053 2.72 1.053C2.88 1.053 3.03 0.953 3.07 0.803L2.85 0.803Z M2.568 0.585L2.888 0.585C2.868 0.495 2.798 0.415 2.718 0.415C2.628 0.415 2.578 0.505 2.568 0.585Z M4.631 1.07C4.691 1.07 4.761 1.05 4.831 1.02L5.011 1.07L5.011 0.29L5.021 0.29L5.021 0.28L4.791 0.28C4.741 0.26 4.681 0.25 4.631 0.25C4.431 0.25 4.261 0.4 4.261 0.6L4.261 0.72C4.281 0.92 4.431 1.07 4.631 1.07Z M4.816 0.682L4.816 0.632C4.816 0.632 4.816 0.412 4.646 0.412C4.476 0.412 4.476 0.632 4.476 0.632L4.476 0.682C4.476 0.682 4.476 0.902 4.646 0.902C4.816 0.902 4.826 0.682 4.816 0.682Z M5.372 1.07L5.372 0.62C5.372 0.4 5.562 0.42 5.562 0.42C5.692 0.42 5.672 0.6 5.672 0.6L5.672 1.06L5.892 1.06L5.892 0.6C5.872 0.53 5.872 0.48 5.872 0.48C5.862 0.35 5.762 0.25 5.632 0.25C5.532 0.25 5.442 0.28 5.372 0.35L5.162 0.28L5.162 1.07L5.372 1.07Z " /><path id="路径 33" fill-rule="evenodd" style="fill:#E62318" transform="translate(0 1.8650000097656259)  rotate(0 14.979499995117187 10.117999995117188)" opacity="1" d="M0,19.77C0,19.92 0,20.09 0.02,20.24L29.96,18.54L29.96,0.46C29.96,0.31 29.96,0.15 29.94,0L0,1.58L0,19.77Z " /><path id="路径 34" fill-rule="evenodd" style="fill:#FFFFFF" transform="translate(15.632000009765626 12.033999990234374)  rotate(0 5.574999990234375 2.688500009765625)" opacity="1" d="M4.49,0.83L0,1.08L0,2.5L4.49,2.25L4.49,5.38L6.66,5.26L6.66,2.13L11.15,1.88L11.15,0.47L6.66,0.72L6.66,0L4.49,0.12L4.49,0.83Z " /><path id="分组 3" fill-rule="evenodd" style="fill:#FFFFFF" transform="translate(4.128000000000002 5.112000000000001)  rotate(0 11.535 6.374500004882812)" opacity="1" d="M15.111 4.86L12.521 6.14L11.501 6.19L11.501 6.19L11.501 7.6L13.051 7.52L17.031 5.56L21.091 7.05L22.651 6.97L22.651 5.56L21.621 5.62L18.941 4.64L22.501 2.89L22.501 0.41L20.341 0.53L15.341 0.82L13.611 0L11.401 3.49L13.231 4.16L14.411 2.3L20.321 1.96L20.321 2.31L17.031 3.93L14.471 2.98L13.601 4.29L15.111 4.86Z M19.324 9.406L20.904 12.036L23.074 11.916L21.484 9.286L19.324 9.406Z M11.518 12.586L11.518 12.586L11.518 12.586Z M13.688 12.466L15.128 9.666L12.968 9.786L11.518 12.576L13.688 12.466Z M8.085 12.749L10.485 12.629L8.775 9.269L6.375 9.389L8.085 12.749Z M2.38 4.725L0 4.855L1.75 7.055L4.13 6.935L4.13 6.935L2.38 4.725Z M2.38 1.978L0 2.108L1.75 4.328L4.13 4.178L4.13 4.178L2.38 1.978Z " /><path id="路径 41" fill-rule="evenodd" style="fill:#FFFFFF" transform="translate(3.1649999999999996 6.375)  rotate(0 5.575500000000001 6.007999995117189)" opacity="1" d="M7.16,7.74L11.15,7.51L11.15,6.09L8.49,6.24L8.49,0L6.32,0.12L6.32,6.36L0,6.73L0,8.14L4.39,7.89L2.45,10.45L0.07,10.6L0.07,12.02L4.08,11.78L7.16,7.74Z " /></g></g></g></g></svg>