<svg width="128" height="128" viewBox="0 0 128 128" fill="none" xmlns="http://www.w3.org/2000/svg">
<path d="M30.555 55.2386H34.4954C35.3265 55.2386 36.0035 55.9577 36.0035 56.77V57.1621C36.0035 57.9512 35.3265 58.628 34.4954 58.628H31.0547C25.9099 58.628 20.8535 61.5227 21.0264 66.9941C21.1572 72.1158 26.0872 75.1407 31.0547 75.1407H34.4954C35.3265 75.1407 36.0035 75.7945 36.0035 76.5833V76.9984C36.0035 77.7458 35.1957 78.4878 34.4066 78.5346H30.7278C25.3401 78.5998 19.5605 75.948 17.3056 70.9575C15.5129 66.9936 16.5165 62.3064 20.0227 59.1131C22.9547 56.4198 26.6987 55.2386 30.555 55.2386ZM31.19 60.1406H34.4954C35.3265 60.1406 36.0035 60.8176 36.0035 61.672V62.0874C36.0035 62.9417 35.3265 63.6656 34.4954 63.6656H31.036C29.8967 63.7308 28.7998 63.9269 27.9035 64.674C26.4609 65.8972 26.3253 68.0216 27.7074 69.3566C28.5617 70.1687 29.9203 70.6261 31.0547 70.6261H34.4954C35.3265 70.6261 36.0035 71.3734 36.0035 72.2278V72.6432C36.0035 73.5208 35.3265 74.2211 34.4954 74.2211H31.0547C28.5802 74.2211 25.7558 73.32 24.0936 71.462C21.9275 69.0062 21.5121 65.3507 24.6214 62.33C27.0956 59.9213 31.19 60.1406 31.19 60.1406ZM50.4574 55.2154H54.3978C55.2289 55.2154 55.9059 55.9341 55.9059 56.7467V57.1389C55.9059 57.9512 55.2289 58.586 54.3978 58.586H50.9616C45.8123 58.586 40.7562 61.4992 40.9335 66.9709C41.0643 72.1157 45.9896 75.1177 50.9616 75.1177H54.3978C55.2289 75.1177 55.9059 75.776 55.9059 76.5833V76.9567C55.9059 77.7458 55.098 78.4648 54.3092 78.5116H50.6302C45.2473 78.5769 39.4629 75.9253 37.208 70.916C35.4153 66.9521 36.4237 62.288 39.9251 59.0666C42.8571 56.3966 46.5826 55.2154 50.4574 55.2154ZM51.0924 59.814H54.3978C55.2289 59.814 55.9059 60.5143 55.9059 61.3686V61.784C55.9059 62.6384 55.2289 63.3387 54.3978 63.3387C53.2353 63.3387 52.0961 63.3574 50.9383 63.3387C49.7991 63.4227 48.7067 63.6003 47.8291 64.3658C46.3632 65.5936 46.2324 67.718 47.6098 69.053C48.4641 69.8608 49.8226 70.323 50.9616 70.323H54.3978C55.2289 70.323 55.9059 71.0463 55.9059 71.9194V72.3348C55.9059 73.2127 55.2289 73.913 54.3978 73.913H50.9616C48.4873 73.913 45.6627 73.0169 43.996 71.1303C41.8299 68.6793 41.4145 65.0238 44.5237 62.0218C46.998 59.6131 51.0924 59.814 51.0924 59.814ZM76.4478 59.7905C77.8901 59.7905 78.6794 60.4675 79.1836 61.5227L83.717 72.4239C83.717 72.4239 84.875 75.3368 86.4109 75.248C87.9607 75.1407 88.7966 73.0589 88.7966 73.0589L95.6922 57.3582C96.1076 56.3963 96.5277 55.2994 97.8398 55.2154L100.468 55.1686L91.4904 74.3754C91.3128 74.7676 90.0431 77.8769 87.2184 78.292C84.6601 78.6841 82.4893 77.2603 81.4808 75.1177L76.3828 64.3003C76.3828 64.3003 75.855 63.3384 74.6928 63.3804H73.0306C72.4612 63.4457 72.1763 63.7541 72.1346 64.3235V76.9334C72.1346 77.8298 71.2799 78.5536 70.3603 78.5536H69.8326C68.9133 78.5536 68.1471 77.8298 68.1471 76.9334V61.4524C68.1471 60.4252 68.7631 59.7902 69.8326 59.7902L76.4478 59.7905ZM58.4502 59.898C57.6378 59.898 56.9608 60.6216 56.9608 61.4339V61.9381C56.9608 62.7457 57.6378 63.4039 58.4502 63.4039H61.8866C62.4558 63.4459 62.7407 63.7544 62.7827 64.3426V76.9337C62.7827 77.8301 63.6138 78.5539 64.5566 78.5539H65.0608C66.004 78.5539 66.7466 77.8301 66.7466 76.9337V61.5647C66.7466 60.5328 66.1348 59.898 65.0608 59.898H58.4502ZM77.1248 55.2154H58.4502C57.6378 55.2154 56.9608 55.9341 56.9608 56.7467V57.1389C56.9608 57.9512 57.6378 58.586 58.4502 58.586H77.0828C78.7682 58.628 79.7063 59.263 80.4766 61.1025L85.0103 71.9617C85.2716 72.7088 85.7106 73.7592 86.3456 73.8709C86.9991 73.9785 87.4377 72.774 87.8114 72.3586C88.1616 71.9432 89.8238 67.9373 89.8238 67.9373L95.2344 55.1686L92.891 55.2154C91.3128 55.3226 90.8742 56.8353 90.8742 56.8353L87.0223 66.532C86.9991 66.7516 86.7375 67.2138 86.4296 67.167C86.1027 67.1485 85.9487 66.532 85.9487 66.532L83.1475 58.3434C81.9428 54.8837 77.5635 55.2386 77.1248 55.2154Z" fill="black"/>
<path d="M70.6925 51.9934C73.3923 43.5553 81.2995 37.446 90.6335 37.446C102.194 37.446 111.566 46.818 111.566 58.379C111.566 67.9711 105.115 76.0564 96.3139 78.532L97.7813 70.86C97.8656 70.4193 98.1853 70.0632 98.6056 69.9062C104.495 67.7069 108.675 62.1593 108.675 55.6633C108.675 47.2389 101.645 40.4096 92.973 40.4096C85.6508 40.4096 79.4992 45.2782 77.7614 51.8648L70.6925 51.9934Z" fill="#CE1119"/>
</svg>
