<svg width="100" height="100" viewBox="0 0 100 100" fill="none" xmlns="http://www.w3.org/2000/svg">
 
<path d="M72.625 21.5906C75.8194 23.44 77.494 22.8607 81 21.9656C81.7838 21.78 82.5675 21.5943 83.375 21.4031C83.9112 21.2587 84.4475 21.1143 85 20.9656C84.835 21.77 84.67 22.5743 84.5 23.4031C83.9681 25.694 83.9681 25.694 84 26.9656C85.32 27.2956 86.64 27.6256 88 27.9656C85.7807 30.8736 84.0703 32.9187 81 34.9656C80.4503 38.0683 80.4503 38.0683 80.25 41.7156C79.1871 52.5155 74.3925 63.3639 66.1055 70.6257C53.3846 79.9268 41.6721 82.6582 26 80.9656C20.7951 79.7861 15.8014 77.767 12 73.9656C12.6175 73.9398 13.2349 73.914 13.8711 73.8875C20.3122 73.4561 25.2823 71.9349 31 68.9656C30.4431 68.5737 29.8862 68.1818 29.3125 67.7781C22.5242 62.4575 22.5242 62.4575 21.1875 58.6531C21.1256 58.0962 21.0638 57.5393 21 56.9656C22.485 56.4706 22.485 56.4706 24 55.9656C23.0719 55.4293 22.1438 54.8931 21.1875 54.3406C17.6888 51.7337 16.4901 50.0219 15 45.9656C14.8125 43.0906 14.8125 43.0906 15 40.9656C16.32 41.2956 17.64 41.6256 19 41.9656C18.34 40.9756 17.68 39.9856 17 38.9656C14.5794 34.7252 14.5318 31.804 15 26.9656C16 23.9656 16 23.9656 17 21.9656C17.4241 22.3407 17.8482 22.7158 18.2852 23.1023C28.0655 31.6359 36.1418 35.7259 49 37.9656C48.9588 36.9137 48.9175 35.8618 48.875 34.7781C49.0436 29.637 49.9567 27.2117 53.25 23.2781C59.1062 18.3536 66.0679 17.5315 72.625 21.5906Z" fill="#1C9EEF"/>
</svg>
