<svg width="128" height="128" viewBox="0 0 128 128" fill="none" xmlns="http://www.w3.org/2000/svg">

<path fill-rule="evenodd" clip-rule="evenodd" d="M38.5 63.5C38.5 63.5 71 63.4196 80.5 62.5C90 61.5804 95 57.5 95 57.5L34.4095 56.5012C32.7414 56.5443 31.3358 57.7589 31.0512 59.4031C28.9158 71.7408 34.4095 88 52 93C52 97.6706 52 102.963 64.5 102.5C76.7798 102.045 77.9612 95.7285 78.8007 91.2397C78.8158 91.1592 78.8307 91.0793 78.8456 91C89.0222 85.7514 92.1453 75.7399 92.5 69C83.5 81.5 78.8496 87.5046 62.5 88C52.1091 88.3149 45.143 82.513 41.5 75.6569C41.4117 75.4908 43.5839 75.3939 47.0272 75.2402C58.294 74.7375 83.1704 73.6274 87 67.5C75 70 41 71.5 39.5 71C38.7501 68.4824 38.4183 65.7588 38.5 63.5ZM63.5 99C75.4939 98.3337 76 92.5 76 92.5C68 96 57 94 57 94C57 94 54.5 99.5 63.5 99Z" fill="white"/>
<path fill-rule="evenodd" clip-rule="evenodd" d="M74 22.5C67.5 26 67.125 31.5 67.5 40.5C67.875 49.5 63 53.5 57 53C62.5 49.5 61 45 61 36C61 27 67.3273 22.5 74 22.5Z" fill="white"/>
<path fill-rule="evenodd" clip-rule="evenodd" d="M87 27C81 31 81.5 33 82.5 41C83.5 49 77.5 53.5 73 53C76.5 52 78.6394 45.3423 77.5 40.5C75.9042 33.7178 78 28.5 87 27Z" fill="white"/>
<path fill-rule="evenodd" clip-rule="evenodd" d="M56 26C50 30 50.5 32 51.5 40C52.5 48 46.5 52.5 42 52C45.5 51 47.6394 44.3423 46.5 39.5C44.9042 32.7178 47 27.5 56 26Z" fill="white"/>
<defs>
</defs>
</svg>
