<svg width="128" height="128" viewBox="0 0 128 128" fill="none" xmlns="http://www.w3.org/2000/svg">
 
<path d="M27.0329 58.3L30.0459 47.789H31.2879L34.4389 58.3L37.5209 47.973H40.0049L35.2669 62.21H33.4729L30.5059 52.619L27.6539 62.21H25.8369L21.3979 47.973H23.8819L27.0329 58.3Z" fill="#3EAFFF"/>
<path d="M49.2539 61.934H47.0689V61.106C46.4249 61.8573 45.4666 62.233 44.1939 62.233C42.9213 62.233 41.9016 61.7423 41.1349 60.761C40.3836 59.7796 40.0079 58.6296 40.0079 57.311C40.0079 55.9923 40.3913 54.873 41.1579 53.953C41.9399 53.0176 42.9366 52.55 44.1479 52.55C45.4359 52.55 46.4096 52.9333 47.0689 53.7V52.849H49.2539V61.934ZM47.3219 57.38C47.3219 56.5366 47.0843 55.8466 46.6089 55.31C46.1336 54.758 45.5203 54.482 44.7689 54.482C44.0329 54.482 43.4273 54.7503 42.9519 55.287C42.4919 55.8083 42.2619 56.506 42.2619 57.38C42.2619 58.254 42.4996 58.9593 42.9749 59.496C43.4503 60.0326 44.0636 60.301 44.8149 60.301C45.5663 60.301 46.1719 60.0403 46.6319 59.519C47.0919 58.9976 47.3219 58.2846 47.3219 57.38Z" fill="#3EAFFF"/>
<path d="M53.5337 61.934H51.3027V46.225H53.5337V61.934Z" fill="#3EAFFF"/>
<path d="M57.9585 61.934H55.7275V46.225H57.9585V61.934Z" fill="#3EAFFF"/>
<path d="M62.1993 53.677C62.8433 52.9256 63.8017 52.55 65.0743 52.55C66.2703 52.55 67.2593 53.0253 68.0413 53.976C68.8387 54.9266 69.2373 56.046 69.2373 57.334C69.2373 58.7293 68.8463 59.8946 68.0643 60.83C67.2823 61.7653 66.2703 62.233 65.0283 62.233C63.6943 62.233 62.7667 61.8496 62.2453 61.083L62.1993 65.775H59.9683V52.849H62.1993V53.677ZM66.9603 57.38C66.9603 56.598 66.738 55.9233 66.2933 55.356C65.8487 54.7733 65.2353 54.482 64.4533 54.482C63.7327 54.482 63.1347 54.7733 62.6593 55.356C62.184 55.9386 61.9463 56.6133 61.9463 57.38C61.9463 58.1313 62.1993 58.806 62.7053 59.404C63.2113 60.002 63.794 60.301 64.4533 60.301C65.2353 60.301 65.8487 60.025 66.2933 59.473C66.738 58.921 66.9603 58.2233 66.9603 57.38Z" fill="#3EAFFF"/>
<path d="M79.0371 61.934H76.8521V61.106C76.2081 61.8573 75.2498 62.233 73.9771 62.233C72.7045 62.233 71.6848 61.7423 70.9181 60.761C70.1668 59.7796 69.7911 58.6296 69.7911 57.311C69.7911 55.9923 70.1745 54.873 70.9411 53.953C71.7231 53.0176 72.7198 52.55 73.9311 52.55C75.2191 52.55 76.1928 52.9333 76.8521 53.7V52.849H79.0371V61.934ZM77.1051 57.38C77.1051 56.5366 76.8675 55.8466 76.3921 55.31C75.9168 54.758 75.3035 54.482 74.5521 54.482C73.8161 54.482 73.2105 54.7503 72.7351 55.287C72.2751 55.8083 72.0451 56.506 72.0451 57.38C72.0451 58.254 72.2828 58.9593 72.7581 59.496C73.2335 60.0326 73.8468 60.301 74.5981 60.301C75.3495 60.301 75.9551 60.0403 76.4151 59.519C76.8751 58.9976 77.1051 58.2846 77.1051 57.38Z" fill="#3EAFFF"/>
<path d="M83.1329 53.677C83.7769 52.9256 84.7353 52.55 86.0079 52.55C87.2039 52.55 88.1929 53.0253 88.9749 53.976C89.7723 54.9266 90.1709 56.046 90.1709 57.334C90.1709 58.7293 89.7799 59.8946 88.9979 60.83C88.2159 61.7653 87.2039 62.233 85.9619 62.233C84.6279 62.233 83.7003 61.8496 83.1789 61.083L83.1329 65.775H80.9019V52.849H83.1329V53.677ZM87.8939 57.38C87.8939 56.598 87.6716 55.9233 87.2269 55.356C86.7823 54.7733 86.1689 54.482 85.3869 54.482C84.6663 54.482 84.0683 54.7733 83.5929 55.356C83.1176 55.9386 82.8799 56.6133 82.8799 57.38C82.8799 58.1313 83.1329 58.806 83.6389 59.404C84.1449 60.002 84.7276 60.301 85.3869 60.301C86.1689 60.301 86.7823 60.025 87.2269 59.473C87.6716 58.921 87.8939 58.2233 87.8939 57.38Z" fill="#3EAFFF"/>
<path d="M93.0937 57.61C93.0937 58.484 93.2854 59.2046 93.6687 59.772C94.0521 60.3393 94.5811 60.623 95.2557 60.623C96.3137 60.623 96.9884 60.1016 97.2797 59.059L99.3957 59.404C98.7057 61.29 97.3257 62.233 95.2557 62.233C93.8757 62.233 92.7717 61.796 91.9437 60.922C91.1311 60.0326 90.7247 58.8826 90.7247 57.472C90.7247 55.9846 91.1157 54.7963 91.8977 53.907C92.6951 53.0023 93.7684 52.55 95.1177 52.55C96.4824 52.55 97.5404 52.9793 98.2917 53.838C99.0584 54.6813 99.4417 55.839 99.4417 57.311V57.61H93.0937ZM97.3717 56.368C97.3717 55.7393 97.1724 55.1873 96.7737 54.712C96.3904 54.2366 95.8844 53.999 95.2557 53.999C94.6424 53.999 94.1364 54.252 93.7377 54.758C93.3544 55.2486 93.1627 55.7853 93.1627 56.368H97.3717Z" fill="#3EAFFF"/>
<path d="M102.876 53.792C103.443 52.964 104.333 52.55 105.544 52.55C105.927 52.55 106.28 52.6266 106.602 52.78L106.326 54.804C105.989 54.5893 105.621 54.482 105.222 54.482C103.658 54.482 102.876 55.6013 102.876 57.84V61.934H100.645V52.849H102.876V53.792Z" fill="#3EAFFF"/>
<path d="M44.6761 82.6765L43.476 85.6989H41.0536L46.2984 71.8535H48.343L53.4545 85.6989H51.0099L49.8765 82.6765H44.6761ZM47.1874 75.1648L45.2317 80.8764H49.2542L47.1874 75.1648Z" fill="#878C87"/>
<path d="M54.2084 70.52H56.3641V77.7206C56.9864 76.9946 57.9124 76.6316 59.1421 76.6316C60.2978 76.6316 61.2534 77.0909 62.009 78.0095C62.7794 78.9281 63.1646 80.0096 63.1646 81.2542C63.1646 82.6024 62.7868 83.7284 62.0312 84.6322C61.2756 85.536 60.2978 85.9879 59.0977 85.9879C57.8087 85.9879 56.9123 85.6175 56.4086 84.8767L56.3641 85.6989H54.2084V70.52ZM60.9645 81.2986C60.9645 80.5578 60.7348 79.9059 60.2755 79.3429C59.8162 78.7799 59.231 78.4984 58.5198 78.4984C57.8087 78.4984 57.2309 78.7799 56.7864 79.3429C56.3419 79.8911 56.1197 80.5504 56.1197 81.3208C56.1197 82.0765 56.3493 82.7358 56.8086 83.2988C57.2827 83.847 57.8605 84.121 58.5421 84.121C59.2829 84.121 59.8681 83.8544 60.2978 83.321C60.7422 82.7728 60.9645 82.0987 60.9645 81.2986Z" fill="#878C87"/>
<path d="M63.2997 76.9205H65.7888L68.0779 82.1876L70.478 76.9205H72.9227L66.7 89.3659H64.2998L67.0111 84.3433L63.2997 76.9205Z" fill="#878C87"/>
<path d="M78.3219 78.7429C77.8478 78.2984 77.3514 78.0761 76.8329 78.0761C76.0476 78.0761 75.655 78.4317 75.655 79.1429C75.655 79.5429 76.0106 79.8689 76.7217 80.1207C78.0255 80.5949 78.833 81.0319 79.1441 81.432C79.4553 81.8172 79.6108 82.2987 79.6108 82.8765C79.6108 83.8247 79.2775 84.5803 78.6108 85.1433C77.9589 85.7064 77.1514 85.9879 76.1884 85.9879C74.9438 85.9879 73.9141 85.4989 73.0992 84.5211L74.0549 83.2988C74.7957 84.0396 75.4772 84.41 76.0995 84.41C77.0032 84.41 77.4551 83.9729 77.4551 83.0988C77.4551 82.6543 77.2181 82.3283 76.744 82.1209C76.2699 81.8987 75.9069 81.7357 75.655 81.632C74.2919 81.0393 73.6104 80.3208 73.6104 79.4763C73.6104 78.6317 73.8623 77.9502 74.366 77.4317C74.8846 76.8983 75.5587 76.6316 76.3884 76.6316C77.5737 76.6316 78.5145 76.9353 79.2108 77.5428L78.3219 78.7429Z" fill="#878C87"/>
<path d="M85.6575 78.7429C85.1834 78.2984 84.687 78.0761 84.1685 78.0761C83.3832 78.0761 82.9906 78.4317 82.9906 79.1429C82.9906 79.5429 83.3462 79.8689 84.0574 80.1207C85.3612 80.5949 86.1686 81.0319 86.4798 81.432C86.7909 81.8172 86.9465 82.2987 86.9465 82.8765C86.9465 83.8247 86.6131 84.5803 85.9464 85.1433C85.2945 85.7064 84.487 85.9879 83.524 85.9879C82.2794 85.9879 81.2497 85.4989 80.4349 84.5211L81.3905 83.2988C82.1313 84.0396 82.8128 84.41 83.4351 84.41C84.3389 84.41 84.7908 83.9729 84.7908 83.0988C84.7908 82.6543 84.5537 82.3283 84.0796 82.1209C83.6055 81.8987 83.2425 81.7357 82.9906 81.632C81.6275 81.0393 80.946 80.3208 80.946 79.4763C80.946 78.6317 81.1979 77.9502 81.7016 77.4317C82.2202 76.8983 82.8943 76.6316 83.724 76.6316C84.9093 76.6316 85.8501 76.9353 86.5464 77.5428L85.6575 78.7429Z" fill="#878C87"/>
</svg>
