<svg width="128" height="128" viewBox="0 0 128 128" fill="none" xmlns="http://www.w3.org/2000/svg">
 
<path d="M70.9101 97.1461C69.2967 97.1461 67.9888 95.8382 67.9888 94.2248C67.9888 92.6114 69.2967 91.3034 70.9101 91.3034H77.0899C81.806 91.3034 85.6292 87.4803 85.6292 82.7641V47.1461H68.6629C68.1665 47.1461 67.764 46.7437 67.764 46.2473V42.2023C67.764 41.7059 68.1665 41.3034 68.6629 41.3034H85.6292V33.7754C85.6292 32.1619 86.9372 30.854 88.5506 30.854C90.164 30.854 91.4719 32.1619 91.4719 33.7754V41.3034H98.1011C98.5976 41.3034 99 41.7059 99 42.2023V46.2473C99 46.7437 98.5976 47.1461 98.1011 47.1461H91.4719V82.7641C91.4719 90.7071 85.0329 97.1461 77.0899 97.1461H70.9101Z" fill="white"/>
<path d="M43.8315 53.2136C43.335 53.2136 42.9326 53.616 42.9326 54.1124V64.8989C42.9326 65.3954 43.335 65.7978 43.8315 65.7978H52.3708C52.8672 65.7978 53.2697 65.3954 53.2697 64.8989V62.2023C53.2697 61.7059 52.8672 61.3034 52.3708 61.3034H47.8764C47.6282 61.3034 47.427 61.1022 47.427 60.854V54.1124C47.427 53.616 47.0245 53.2136 46.5281 53.2136H43.8315Z" fill="white"/>
<path fill-rule="evenodd" clip-rule="evenodd" d="M43.382 38.7192C35.4391 38.7192 29 45.1582 29 53.1012V70.9664C29 78.9093 35.4391 85.3484 43.382 85.3484H48.8876C56.8306 85.3484 63.2697 78.9093 63.2697 70.9664V53.1012C63.2697 45.1582 56.8306 38.7192 48.8876 38.7192H43.382ZM48.8876 44.5619H43.382C38.6659 44.5619 34.8427 48.3851 34.8427 53.1012V70.9664C34.8427 75.6825 38.6659 79.5057 43.382 79.5057H48.8876C53.6038 79.5057 57.427 75.6825 57.427 70.9664V53.1012C57.427 48.3851 53.6038 44.5619 48.8876 44.5619Z" fill="white"/>
<path d="M79.5728 73.1999C79.4002 73.3784 79.1157 73.3832 78.9373 73.2106L69.415 64.004C69.2365 63.8314 69.2317 63.5469 69.4042 63.3685L72.5282 60.1374C72.7008 59.9589 72.9853 59.9541 73.1638 60.1266L82.6861 69.3333C82.8645 69.5058 82.8693 69.7904 82.6968 69.9688L79.5728 73.1999Z" fill="white"/>
</svg>
