<svg width="128" height="128" viewBox="0 0 128 128" fill="none" xmlns="http://www.w3.org/2000/svg">

<path d="M53.8821 72.6375L63.3821 79.6375C63.3821 79.6375 52.4889 90.9579 51.3821 87.6375L53.8821 72.6375Z" />
<path d="M51.3821 87.6375L53.8821 72.6375C73.3821 87.1375 67.3821 82.6375 73.3821 87.1375C80.5277 92.4967 82.6799 94.6375 84.3821 86.6375C88.9565 65.1375 88.9846 65.6375 93.3821 41.1375C94.4025 35.4525 92.7565 35.0942 86.8821 37.1375C75.3821 41.1375 76.8818 40.1372 31.882 57.6375C25.382 60.1653 26.0719 62.5559 29.8821 64.1375L44.8821 68.6375L51.3821 87.6375Z" fill="#FAFBFE"/>
<path d="M53.8821 72.6375L81.8821 45.6375L44.8821 68.6375L51.3821 87.6375L53.8821 72.6375Z" fill="#C7D8E8"/>
</svg>
