<svg width="128" height="128" viewBox="0 0 128 128" fill="none" xmlns="http://www.w3.org/2000/svg">
 
<path fill-rule="evenodd" clip-rule="evenodd" d="M64.2322 24.2584C61.715 21.699 57.5996 21.6647 55.0401 24.1818C52.4806 26.699 52.4463 30.8144 54.9635 33.3739L58.5855 37.0568H76.8129C72.7833 32.6533 68.4179 28.5145 64.2322 24.2584ZM96.3268 38.8025C99.0377 38.8025 101.464 40.4848 102.414 43.0236C103.365 45.5624 102.64 48.4244 100.595 50.2046L98.9867 51.6052H29.8742L28.3007 50.2904C26.2019 48.5367 25.4254 45.6568 26.3582 43.0857C27.2909 40.5146 29.7334 38.8025 32.4685 38.8025H96.3268ZM31.9816 53.3661L90.4896 102.254C93.2443 104.555 97.3435 104.188 99.6453 101.433C101.947 98.6787 101.58 94.5795 98.8251 92.2777L52.2562 53.3661H31.9816ZM77.1681 53.3661L66.6924 62.4878L76.8147 70.9115L96.9645 53.3661H77.1681ZM63.627 82.3946L53.5048 73.9709L30.7043 93.8244C27.9969 96.1818 27.7132 100.288 30.0707 102.995C32.4281 105.702 36.5338 105.986 39.2412 103.629L63.627 82.3946Z" fill="white"/>
</svg>
