<svg xmlns="http://www.w3.org/2000/svg" xmlns:xlink="http://www.w3.org/1999/xlink" width="32" height="32" viewBox="0 0 32 32" fill="none"><defs><rect id="path_0" x="0" y="0" width="32" height="32" /></defs><g opacity="1" transform="translate(0 0)  rotate(0 16 16)"> <g opacity="1" transform="translate(0 0)  rotate(0 16 16)"><mask id="bg-mask-0" fill="white"><use xlink:href="#path_0"></use></mask><g mask="url(#bg-mask-0)" ><path id="路径 1" fill-rule="evenodd" style="fill:#31AEFE" transform="translate(0.06274509374998968 0)  rotate(0 15.93725490625 15.93725490625)" opacity="1" d="M0,6.31L0,25.56C0,29.77 2.1,31.87 6.31,31.87L25.56,31.87C29.77,31.87 31.87,29.77 31.87,25.56L31.87,6.31C31.87,2.1 29.77,0 25.56,0L6.31,0C2.1,0 0,2.1 0,6.31Z " /><path id="分组 1" fill-rule="evenodd" style="fill:#FFFFFF" transform="translate(0.24 16.759999999999998)  rotate(0 15.761568624999997 7.6175686250322565)" opacity="1" d="M15.81 12.83C15.4 11.39 14.09 10.4 12.6 10.4L0 10.4C0.68 13.24 3.22 15.23 6.14 15.24L25.38 15.24C28.3 15.23 30.84 13.24 31.52 10.4L19.01 10.4C17.52 10.4 16.21 11.39 15.81 12.83Z M27.1278 1.51C25.3678 -0.5 21.9078 -0.5 20.1578 1.51C19.0778 2.73 18.8878 4.44 19.7978 5.76C20.2078 6.35 20.5678 6.88 20.0778 7.72C20.1978 7.69 20.3178 7.65 20.4378 7.6C20.9678 7.25 21.4578 7.29 22.0678 7.5C23.8978 8.11 25.5978 7.78 26.9978 6.4C28.3778 5.03 28.4078 2.96 27.1278 1.51Z " /><path id="分组 2" fill-rule="evenodd" style="fill:#31AEFE" transform="translate(21.558186532381512 19.099085667964584)  rotate(0 2.3249017400349157 0.6380923393250182)" opacity="1" d="M3.57868 0.17C3.45868 0.28 3.38868 0.44 3.37868 0.6C3.36868 0.77 3.41868 0.94 3.52868 1.06C3.63868 1.19 3.78868 1.26 3.95868 1.27C4.12868 1.29 4.28868 1.24 4.41868 1.13C4.54868 1.03 4.62868 0.88 4.64868 0.71C4.66868 0.53 4.60868 0.36 4.48868 0.22C4.37868 0.09 4.20868 0.01 4.03868 0C3.86868 -0.01 3.70868 0.05 3.57868 0.17Z M0.16 0.210512C0.04 0.340512 -0.02 0.520512 0 0.690512C0.01 0.860512 0.09 1.02051 0.21 1.13051C0.34 1.23051 0.51 1.29051 0.67 1.27051C0.84 1.26051 1 1.19051 1.11 1.07051C1.22 0.950512 1.28 0.780512 1.27 0.620512C1.26 0.270512 0.97 0.000512194 0.63 0.000512194C0.45 0.000512194 0.28 0.0705122 0.16 0.210512Z " /></g></g></g></svg>