<svg xmlns="http://www.w3.org/2000/svg" xmlns:xlink="http://www.w3.org/1999/xlink" width="32" height="32" viewBox="0 0 32 32" fill="none"><defs><rect id="path_0" x="0" y="0" width="20" height="20" /></defs><g opacity="1" transform="translate(0 0)  rotate(0 16 15.999999999999998)"> <g opacity="1" transform="translate(6 6)  rotate(0 10 10)"><mask id="bg-mask-0" fill="white"><use xlink:href="#path_0"></use></mask><g mask="url(#bg-mask-0)" ><path id="分组 1" fill-rule="evenodd" style="fill:#666666" transform="translate(0.01953125 0.43765624999998476)  rotate(0 9.98046875 9.562324218749998)" opacity="1" d="M6.84 5.3C6.78 5.3 6.65 5.44 6.65 5.51C6.65 5.58 6.73 5.68 6.87 5.79C6.97 5.87 7.09 5.98 7.03 6.09C6.75 6.68 5.68 6.64 5.23 6.51C5.04 6.45 4.96 6.39 5.04 6.23C5.08 6.15 5.24 5.95 5.38 5.82C5.47 5.73 5.5 5.55 5.42 5.54C4.98 5.48 4.1 5.7 3.67 5.79C3.58 5.81 3.51 5.73 3.5 5.61C3.5 5.47 3.51 5.32 3.53 5.23C3.59 4.97 3.85 4.38 3.95 4.27C4.07 4.13 4.2 4.11 4.38 4.2C4.47 4.24 4.53 4.26 4.6 4.26C4.68 4.26 4.77 4.25 4.83 4.19C5.14 3.93 5.11 3.35 4.93 3.16C4.79 3.01 4.53 3.42 4.4 3.5C4.26 3.58 4.18 3.58 4.12 3.53C4.12 3.53 3.76 3.41 4.17 2.46C4.31 2.14 4.84 2.1 4.88 2.05C4.97 1.93 5.25 1.32 5.23 1.29C5.21 1.25 5.12 1.28 5 1.37C4.77 1.53 4.68 1.56 4.68 1.48C4.68 1.42 4.88 1.18 5.05 1.03C5.3 0.8 5.34 0.78 5.44 0.84C5.52 0.87 5.57 0.85 5.73 0.72C5.9 0.57 6.17 0.27 6.15 0.25C6.14 0.24 6.09 0.25 6.04 0.27C5.92 0.32 5.73 0.37 5.71 0.35C5.67 0.33 5.76 0.26 5.94 0.18C6.1 0.1 6.15 0.08 6.18 0.09C6.19 0.08 6.2 0.07 6.22 0.07C6.19 0 6.18 0 6.14 0C6.08 0 5.76 0.14 5.56 0.24C4.68 0.72 3.84 1.31 3.31 1.72C1.15 3.39 0 6.2 0 9.14C0 14.66 4.47 19.12 9.98 19.12C15.49 19.12 19.96 14.66 19.96 9.14C19.96 5.02 17.66 1.58 14.1 0.06C14.1 0.06 13.84 0.12 13.74 0.24C13.62 0.37 13.54 0.44 13.6 0.48C13.62 0.5 13.94 0.62 13.95 0.64C13.95 0.62 14.48 0.94 13.76 1.07C13.57 1.11 13.38 0.92 13.25 0.71C13.22 0.66 13.17 0.6 13.14 0.58C13.07 0.55 12.8 0.5 12.66 0.5C12.52 0.5 12.2 0.62 12.05 0.74C12 0.78 11.92 0.82 11.86 0.84C11.75 0.89 11.4 0.95 11.34 0.93C11.32 0.93 11.24 0.93 11.16 0.95C11.07 0.96 10.95 0.97 10.84 0.96C10.63 0.95 10.62 0.93 10.62 0.74C10.62 0.57 10.6 0.55 10.4 0.53C10.1 0.5 9.65 0.59 9.52 0.71L9.48 0.75L9.49 1.05C9.5 1.21 9.49 1.35 9.49 1.36C9.43 1.39 8.98 1.45 8.7 1.46L8.38 1.47C8.38 1.47 8.32 1.85 8.41 2.15C8.45 2.27 8.48 2.43 8.57 2.51C8.73 2.65 8.9 2.62 9.17 2.39C9.38 2.21 9.53 2.19 9.7 2.31C9.82 2.39 9.95 2.58 9.98 2.71C10 2.83 10.01 3.03 9.99 3.12C9.99 3.12 9.82 3.73 9.1 3.34C9.04 3.3 8.9 3.39 8.85 3.44C8.79 3.5 8.75 3.87 8.78 4.1C8.8 4.29 8.81 4.35 8.84 4.46L8.94 4.88C8.71 4.86 8.32 4.86 8.15 4.9C8.04 4.92 7.92 4.94 7.89 4.95C7.86 4.96 7.79 4.98 7.75 4.99C7.7 5 7.64 5.02 7.62 5.03C7.6 5.04 7.47 5.08 7.32 5.13C7.18 5.17 7.02 5.23 6.97 5.25C6.92 5.28 6.86 5.3 6.84 5.3Z M15.8103 6.48028C15.6203 6.58028 15.1603 6.75028 14.7903 6.86028C14.2403 7.02028 14.1103 7.10028 14.1103 7.25028C14.1103 7.40028 14.1703 7.43028 14.5303 7.43028C14.8303 7.43028 14.9703 7.47028 15.0103 7.58028C15.0403 7.66028 14.9103 8.51028 14.7203 9.47028C14.1603 12.3103 14.2003 12.1303 14.0103 12.0803C13.8003 12.0303 12.0703 10.7903 12.0103 10.6603C11.9503 10.4903 12.8503 8.34028 13.0903 8.09028C13.2103 7.96028 13.4403 7.76028 13.5903 7.65028C13.8203 7.49028 13.8503 7.43028 13.7603 7.33028C13.6603 7.23028 13.5303 7.26028 13.0403 7.46028C12.7103 7.59028 12.1803 7.77028 11.8503 7.85028C10.9103 8.10028 10.7403 8.34028 11.4603 8.38028C11.8903 8.41028 11.9103 8.43028 11.9403 8.72028C11.9703 9.08028 11.6103 10.2403 11.4603 10.2403C11.3303 10.2403 10.1003 9.30028 10.0503 9.16028C9.99033 9.02028 10.0703 8.91028 10.3903 8.71028C10.9503 8.36028 10.4903 8.24028 9.77033 8.55028C9.53033 8.65028 8.94033 8.83028 8.44033 8.94028C7.62033 9.14028 7.33033 9.30028 7.50033 9.46028C7.53033 9.50028 7.74033 9.52028 7.96033 9.51028C8.17033 9.50028 8.47033 9.55028 8.61033 9.61028C9.08033 9.82028 11.0203 11.3103 11.0203 11.4603C11.0203 11.7303 10.2103 13.4703 10.0703 13.4903C9.95033 13.5203 6.77033 10.8803 6.45033 10.4903C6.29033 10.2903 6.44033 10.0103 6.81033 9.82028C7.09033 9.67028 7.19033 9.40028 6.97033 9.40028C6.90033 9.40028 6.49033 9.52028 6.06033 9.67028C5.62033 9.82028 4.84033 10.0303 4.33033 10.1403C3.35033 10.3403 3.19033 10.4203 3.28033 10.6503C3.33033 10.7703 3.44033 10.7903 3.88033 10.7403C4.26033 10.7003 4.52033 10.7303 4.75033 10.8203C5.06033 10.9603 7.02033 12.5903 8.85033 14.2303C9.98033 15.2503 10.0803 15.2503 10.5003 14.2603C10.6603 13.8803 10.9403 13.1703 11.1103 12.6903C11.3003 12.1903 11.4903 11.8303 11.5603 11.8303C11.6703 11.8303 11.9903 12.0703 13.6603 13.4003C14.0703 13.7203 14.0903 13.7303 14.2703 13.6203C14.4003 13.5403 15.0703 11.0003 15.5103 8.93028C15.8803 7.17028 15.8503 7.25028 16.2803 6.85028C16.8303 6.34028 16.5403 6.11028 15.8103 6.48028Z " /></g></g></g></svg>