<svg width="16" height="16" viewBox="0 0 16 16" fill="none" xmlns="http://www.w3.org/2000/svg">
 
<path d="M7.86849 2.24657C7.92724 2.15438 7.97287 2.02501 8.09506 2.00376C8.19599 1.98126 8.27849 2.06376 8.32162 2.14594C9.32849 3.85751 10.3379 5.56751 11.3447 7.27876C11.3979 7.35844 11.3988 7.47782 11.3197 7.54126C11.2682 7.59032 11.1941 7.59563 11.1266 7.59438C10.8438 7.59344 10.5607 7.59344 10.2779 7.59438C8.84224 7.59313 7.40693 7.59313 5.97162 7.59438C5.67818 7.59282 5.38474 7.59469 5.09131 7.59376C4.99318 7.60094 4.88349 7.53938 4.87006 7.43563C4.84849 7.33938 4.91849 7.25969 4.96099 7.18094C5.93131 5.53688 6.89974 3.89157 7.86849 2.24657V2.24657Z" fill="#1EBAA7"/>
<path d="M5.97165 7.59438C7.40696 7.59313 8.84227 7.59313 10.2779 7.59438C10.9179 8.79126 11.5432 9.99657 12.1798 11.1956C12.2229 11.2766 12.267 11.3681 12.2401 11.4622C12.2113 11.5813 12.0913 11.6634 11.9704 11.6559C11.0545 11.6569 10.1385 11.6556 9.22258 11.6566C8.48383 11.6556 7.74508 11.6566 7.00602 11.6563C6.10758 11.6566 5.20883 11.6559 4.31008 11.6566C4.20508 11.6628 4.08977 11.625 4.03727 11.5275C3.97758 11.4384 3.99571 11.3238 4.04852 11.2363C4.69165 10.0234 5.32446 8.80501 5.97165 7.59438V7.59438Z" fill="#1DB19E"/>
<path d="M7.00598 11.6562C7.74504 11.6566 8.48379 11.6556 9.22254 11.6566C9.23223 12.5209 9.22286 13.3856 9.22723 14.25C9.22661 14.3456 9.22973 14.4572 9.15254 14.5272C9.08286 14.6062 8.97036 14.6012 8.87473 14.6025C8.34317 14.6 7.81161 14.6037 7.28004 14.6009C7.13692 14.6134 7.00098 14.4912 7.00911 14.3459C7.00473 13.4494 7.01067 12.5525 7.00598 11.6562V11.6562Z" fill="#734A44"/>
</svg>
