<svg width="128" height="128" viewBox="0 0 128 128" fill="none" xmlns="http://www.w3.org/2000/svg">
 
<g opacity="0.99">
<path d="M21 40C21 36.6863 23.6863 34 27 34H39.2649C39.8504 34 40.4064 34.2565 40.7864 34.7019L56.3438 52.9375C57.3614 55.0711 55.4089 57.2253 53.3524 56.79C52.7464 56.6617 52.2605 56.2359 51.805 55.8162L36.8126 42H31.0001C29.8955 42 29.0001 42.8954 29.0001 44V84C29.0001 85.1046 29.8955 86 31.0001 86H36.8126L51.6968 71.6171C53.8697 69.8756 56.9333 72.1697 55.8779 74.743L41.8503 93.2098C41.4721 93.7076 40.8829 94 40.2577 94H27C23.6863 94 21 91.3137 21 88V40Z" fill="#2883EC"/>
<path d="M86.4022 93.3139C86.782 93.7498 87.3319 94 87.9101 94H101C104.314 94 107 91.3137 107 88V40C107 36.6863 104.314 34 101 34H87.8816C87.2839 34 86.7175 34.2674 86.3375 34.7288L72.2307 51.8642C71.9421 52.2147 71.6501 52.5779 71.5246 53.0143C70.9511 55.0084 73.1025 56.9579 75.1251 55.875L90.5001 42H97.0001C98.1046 42 99.0001 42.8954 99.0001 44V84C99.0001 85.1046 98.1046 86 97.0001 86H90.5001C84.5626 80.3125 73.2108 69.1448 65.1251 61.375C62.4969 58.8496 59.3438 62.4688 61.1876 64.375L86.4022 93.3139Z" fill="#2883EC"/>
</g>
</svg>
