<svg xmlns="http://www.w3.org/2000/svg" xmlns:xlink="http://www.w3.org/1999/xlink" fill="none" version="1.1" width="32" height="32" viewBox="0 0 32 32"><defs><mask id="master_svg0_1_5"><g><rect x="3" y="6" width="27" height="21" rx="0" fill="#FFFFFF" fill-opacity="1"/></g></mask><mask id="master_svg1_1_00"><g><rect x="3" y="6" width="27" height="20" rx="0" fill="#FFFFFF" fill-opacity="1"/></g></mask><linearGradient x1="-0.02810310572385788" y1="0.4989848732948303" x2="0.9996271133422852" y2="0.4989848732948303" id="master_svg2_1_98"><stop offset="0%" stop-color="#FF00FF" stop-opacity="1"/><stop offset="100%" stop-color="#254EFF" stop-opacity="1"/></linearGradient></defs><g style="mix-blend-mode:passthrough"><g style="mix-blend-mode:passthrough"></g><g style="mix-blend-mode:passthrough" mask="url(#master_svg1_1_00)"><g><path d="M27.543488243408202,25.06848043457031C28.428868243408203,25.06848043457031,29.146648243408205,24.353710434570313,29.146648243408205,23.471900434570312C29.146648243408205,22.590192434570312,28.428868243408203,21.875320434570312,27.543488243408202,21.875320434570312C26.658193243408203,21.875320434570312,25.940418243408203,22.590192434570312,25.940418243408203,23.471900434570312C25.940418243408203,24.353710434570313,26.658193243408203,25.06848043457031,27.543488243408202,25.06848043457031Z" fill="#486BFF" fill-opacity="1"/></g><g><path d="M3.0071021,24.0858C3.163867,22.621,3.483596,21.1781,3.960404,19.7835C4.4336,18.3857,5.073729999999999,17.0497,5.867,15.804C6.27533,15.16812,6.74178,14.57116,7.26042,14.02075C7.80348,13.436499999999999,8.43895,12.944749999999999,9.14159,12.56502C9.52019,12.36576,9.92429,12.21883,10.342749999999999,12.1283C10.7791,12.0344,11.22845,12.016200000000001,11.67102,12.07451C11.78223,12.08716,11.89028,12.10932,11.9999,12.13147C12.1116,12.15757,12.22189,12.18924,12.33039,12.2264C12.54492,12.298549999999999,12.75194,12.39129,12.94848,12.503309999999999C13.3192,12.719100000000001,13.6546,12.990179999999999,13.943,13.30713C14.4595,13.890920000000001,14.8722,14.55821,15.1633,15.28027C15.4458,15.95777,15.6733,16.6568,15.8433,17.3705C16.0133,18.0715,16.1388,18.7755,16.2374,19.4829C16.2834,19.837400000000002,16.3247,20.1917,16.3549,20.551000000000002C16.3692,20.7314,16.3803,20.9101,16.386699999999998,21.0952C16.386699999999998,21.1886,16.386699999999998,21.282,16.386699999999998,21.381700000000002C16.386699999999998,21.4814,16.386699999999998,21.57,16.375500000000002,21.6633C16.3505,22.4439,16.128700000000002,23.2057,15.7305,23.8785C15.5156,24.2259,15.2363,24.5294,14.9075,24.7725C14.567,25.0219,14.1716,25.1864,13.7542,25.2525C13.3368,25.3185,12.90968,25.2842,12.50834,25.1523C12.11251,25.0186,11.75195,24.798,11.45334,24.5067C11.16672,24.2225,10.92989,23.8925,10.75268,23.5304C10.582519999999999,23.1787,10.45914,22.8064,10.38565,22.4229C10.313880000000001,22.052,10.277709999999999,21.6754,10.27761,21.297800000000002C10.27761,20.936999999999998,10.27761,20.5779,10.299859999999999,20.2203C10.34094,19.5033,10.4253,18.7894,10.55248,18.0825C10.80898,16.6665,11.21864,15.28243,11.77429,13.9543C12.33248,12.611180000000001,13.0448,11.33685,13.897,10.15674C14.7693,8.9795,15.8036,7.87188,17.1334,7.03168C17.8261,6.586738,18.5953,6.27293,19.4023,6.106025C20.2446,5.9586134,21.1074,5.9725779,21.9444,6.147166C22.7875,6.328214,23.5851,6.676962,24.2895,7.17251C24.9699,7.65285,25.5739,8.232099999999999,26.0817,8.8909C27.0795,10.17256,27.7358,11.59664,28.2299,13.033380000000001C28.7138,14.46956,29.0507,15.95071,29.2356,17.4544L29.2356,17.4702C29.2977,17.9675,29.159,18.469,28.8498,18.8644C28.5407,19.2598,28.0865,19.5167,27.5871,19.5786C27.0879,19.6405,26.5843,19.502299999999998,26.1872,19.194499999999998C25.7901,18.8866,25.5322,18.4342,25.4701,17.936999999999998C25.4608,17.8592,25.4555,17.781100000000002,25.4541,17.7028C25.46,16.4309,25.3328,15.16191,25.0744,13.916319999999999C24.8422,12.71372,24.4128,11.55741,23.8034,10.493780000000001C23.1964,9.49217,22.3845,8.71843,21.3582,8.3719C21.0969,8.28138,20.827,8.21775,20.5526,8.18202C20.2864,8.14132,20.0159,8.137599999999999,19.7486,8.17094C19.178,8.250309999999999,18.6271,8.43375,18.1233,8.7121C17.0445,9.28489,16.0578,10.17573,15.211,11.17575C14.3534,12.19709,13.625,13.31943,13.0422,14.5176C12.44275,15.72087,11.98734,16.9902,11.68532,18.299300000000002C11.53594,18.954700000000003,11.42979,19.6191,11.36755,20.2883C11.33577,20.6222,11.31353,20.9576,11.30559,21.293C11.29267,21.6104,11.30969,21.9283,11.35643,22.2425C11.45335,22.8548,11.68373,23.4434,12.09683,23.8484C12.29,24.0503,12.5293,24.2025,12.79432,24.2924C13.0594,24.3823,13.3423,24.4069,13.6189,24.3644C13.898,24.3069,14.1613,24.1897,14.3903,24.0208C14.6194,23.8519,14.8089,23.6355,14.9456,23.3864C15.2402,22.8424,15.3942,22.234,15.3937,21.6159C15.3937,21.5367,15.3937,21.4576,15.3937,21.3769C15.3937,21.2962,15.3937,21.2187,15.3809,21.142699999999998C15.3699,20.9845,15.3508,20.8136,15.3317,20.647399999999998C15.292,20.3152,15.2395,19.9814,15.1728,19.649C15.0482,18.9852,14.8815,18.329900000000002,14.6739,17.6869C14.4778,17.0564,14.2263,16.4444,13.9224,15.85781C13.6472,15.30667,13.2846,14.80335,12.84832,14.36727C12.65415,14.18061,12.4323,14.02479,12.19057,13.90524C11.96796,13.800229999999999,11.72765,13.737449999999999,11.48194,13.72011C10.95524,13.68999,10.43217,13.82381,9.98526,14.10303C9.474409999999999,14.41472,9.01732,14.80634,8.63158,15.26287C8.21702,15.74661,7.84792,16.2673,7.52893,16.8183C6.87693,17.954900000000002,6.36481,19.165599999999998,6.00364,20.4244C5.62903,21.679299999999998,5.39354,22.9713,5.30138,24.2773C5.29664,24.4312,5.26081,24.5827,5.19604,24.7225C5.131270000000001,24.8624,5.03888,24.9878,4.92438,25.0913C4.80989,25.1949,4.67563,25.2744,4.52961,25.3251C4.3835999999999995,25.3759,4.22882,25.3968,4.0745000000000005,25.3868C3.9201829999999998,25.3767,3.769479,25.3358,3.631387,25.2664C3.493296,25.1971,3.370645,25.1007,3.270737,24.9831C3.17083,24.8655,3.0957173,24.7292,3.0498777,24.5821C3.00403803,24.435,2.9884051,24.2803,3.00392133,24.127C3.00434524,24.1132,3.00540869,24.0995,3.0071021,24.0858Z" fill="url(#master_svg2_1_98)" fill-opacity="1"/></g></g></g></svg>