<svg xmlns="http://www.w3.org/2000/svg" xmlns:xlink="http://www.w3.org/1999/xlink" width="32" height="32" viewBox="0 0 32 32" fill="none"><defs><rect id="path_0" x="0" y="0" width="22" height="22" /></defs><g opacity="1" transform="translate(0 0)  rotate(0 16 15.999999999999998)"> <g opacity="1" transform="translate(5 5)  rotate(0 11 11)"><mask id="bg-mask-0" fill="white"><use xlink:href="#path_0"></use></mask><g mask="url(#bg-mask-0)" ><path id="分组 1" fill-rule="evenodd" style="fill:#000000" transform="translate(0 5.115000000000015)  rotate(0 10.957222222222226 5.916754264805438)" opacity="1" d="M7.59 0.385L7.59 0.445C7.59 0.715 7.59 0.715 7.87 0.715C8.2 0.715 8.42 0.885 8.42 1.155C8.47 1.325 8.47 1.545 8.42 1.705C8.36 2.145 8.25 2.535 8.2 2.975C7.98 4.125 7.76 5.285 7.59 6.435C7.48 7.045 7.37 7.595 7.26 8.195C7.26 8.255 7.26 8.305 7.21 8.305C7.15 8.305 7.15 8.255 7.15 8.195C7.1 7.815 6.99 7.375 6.93 6.985C6.54 5.115 6.22 3.245 5.83 1.375C5.78 1.045 5.94 0.825 6.27 0.775L6.49 0.775C6.6 0.775 6.6 0.775 6.6 0.665L6.6 0.445C6.6 0.335 6.6 0.275 6.44 0.275L3.63 0.275C3.52 0.275 3.52 0.335 3.52 0.385L3.52 0.665C3.52 0.715 3.52 0.775 3.63 0.715C3.91 0.715 4.07 0.825 4.18 1.105C4.24 1.215 4.24 1.325 4.29 1.375C4.4 2.035 4.57 2.695 4.68 3.355C4.73 3.525 4.79 3.685 4.73 3.855C4.51 5.115 4.29 6.385 4.07 7.705C4.02 7.865 4.02 8.035 3.96 8.195C3.85 8.145 3.85 8.145 3.85 8.085C3.69 7.155 3.52 6.275 3.3 5.335C3.08 4.185 2.86 3.085 2.64 1.925C2.59 1.655 2.53 1.375 2.53 1.045C2.53 0.715 2.7 0.605 3.03 0.605L3.08 0.605C3.14 0.605 3.19 0.605 3.19 0.555L3.19 0.275C3.19 0.165 3.14 0.165 3.08 0.165L0.17 0.165C0.06 0.225 0 0.275 0 0.335L0 0.605C0 0.665 0 0.665 0.06 0.665C0.22 0.665 0.39 0.715 0.55 0.715C0.61 0.715 0.61 0.715 0.61 0.775C0.72 1.045 0.88 1.265 0.94 1.545C1.16 2.695 1.38 3.905 1.65 5.065C1.93 6.385 2.2 7.705 2.42 9.075C2.59 9.905 2.75 10.725 2.92 11.605C2.92 11.665 2.97 11.715 3.03 11.715L3.52 11.715C3.58 11.715 3.63 11.715 3.63 11.605C3.69 11.385 3.69 11.165 3.74 11.005C4.02 9.795 4.24 8.585 4.51 7.375C4.62 6.715 4.79 6.055 4.95 5.335C4.95 5.285 4.95 5.285 5.01 5.225C5.06 5.225 5.06 5.285 5.06 5.335C5.34 6.825 5.67 8.305 5.94 9.735C6.05 10.345 6.16 10.945 6.33 11.555C6.33 11.605 6.38 11.665 6.44 11.665L6.88 11.665C6.93 11.665 6.99 11.665 6.99 11.555L7.15 10.895C7.48 9.405 7.76 7.925 8.09 6.435C8.36 5.055 8.69 3.635 8.97 2.255C9.02 2.035 9.02 1.815 9.13 1.595L9.46 0.775C9.46 0.715 9.52 0.715 9.57 0.665C9.79 0.665 9.96 0.605 10.18 0.605C10.23 0.715 10.23 0.665 10.23 0.605L10.23 0.385C10.23 0.275 10.23 0.275 10.12 0.275L7.7 0.275C7.59 0.275 7.59 0.275 7.59 0.385Z M13.8 11.5C14.46 11.33 14.9 10.95 15.23 10.34C15.45 9.9 15.51 9.46 15.51 9.02L15.51 8.47C15.51 8.03 15.4 7.65 15.29 7.26C15.07 6.6 14.74 6.05 14.25 5.56C14.03 5.34 13.8 5.12 13.53 4.9C13.2 4.62 12.93 4.4 12.6 4.13C12.32 3.9 12.05 3.68 11.83 3.41C11.5 3.02 11.33 2.59 11.33 2.09L11.33 1.81L11.33 1.65C11.33 1.43 11.39 1.21 11.55 0.99C11.72 0.72 12.05 0.61 12.38 0.55L12.65 0.55C12.76 0.55 12.87 0.55 12.98 0.61C13.58 0.72 13.92 1.1 14.14 1.65C14.3 1.98 14.36 2.37 14.41 2.75C14.46 2.97 14.46 3.19 14.46 3.41L14.46 4.02C14.46 4.07 14.46 4.07 14.52 4.07C14.63 4.07 14.74 4.13 14.85 4.07L14.85 3.52L14.85 0.11C14.68 0.06 14.57 0.06 14.52 0.22L14.35 0.55C14.3 0.66 14.24 0.66 14.19 0.61C13.75 0.27 13.25 0 12.65 0C12.38 0 12.1 0 11.83 0.06C10.84 0.33 10.18 1.37 10.12 2.31L10.12 2.86C10.12 3.08 10.18 3.3 10.23 3.52C10.51 4.4 11.05 5.12 11.72 5.72C11.99 6 12.32 6.21 12.65 6.44C13.03 6.77 13.42 7.15 13.7 7.59C13.92 7.92 14.14 8.31 14.19 8.74C14.24 9.08 14.3 9.35 14.24 9.68C14.24 9.95 14.19 10.23 14.08 10.45C13.86 10.94 13.42 11.17 12.92 11.17C12.81 11.22 12.7 11.22 12.59 11.17L12.43 11.17C11.99 11.05 11.61 10.84 11.33 10.45C10.94 9.96 10.78 9.41 10.67 8.74C10.61 8.41 10.61 8.03 10.61 7.7C10.61 7.65 10.61 7.65 10.56 7.65L10.23 7.65L10.23 11.61L10.5 11.61C10.56 11.55 10.56 11.5 10.56 11.5C10.61 11.39 10.67 11.22 10.72 11.06C10.78 10.95 10.78 10.95 10.89 11C11.44 11.33 11.99 11.61 12.65 11.61L13.03 11.61C13.31 11.61 13.58 11.55 13.8 11.5Z M21.891 0.385C21.891 0.275 21.891 0.275 21.781 0.275L18.591 0.275C18.481 0.275 18.481 0.335 18.481 0.385L18.481 0.605C18.481 0.665 18.531 0.715 18.591 0.715L18.861 0.715C19.081 0.715 19.251 0.825 19.361 1.045C19.411 1.155 19.411 1.325 19.411 1.435L19.411 9.685C19.411 9.905 19.411 10.125 19.361 10.345C19.251 10.895 18.921 11.225 18.371 11.275C17.651 11.335 17.161 10.895 17.101 10.125C17.101 10.065 17.101 10.015 17.211 10.015C17.601 9.955 17.931 9.795 18.041 9.355C18.091 9.075 18.091 8.855 18.041 8.585C17.981 8.415 17.871 8.255 17.651 8.195C17.431 8.145 17.161 8.085 16.941 8.195C16.551 8.305 16.391 8.635 16.331 9.025C16.281 9.575 16.391 10.065 16.611 10.565C16.881 11.165 17.321 11.605 17.931 11.775C18.311 11.885 18.701 11.825 19.081 11.775C19.691 11.665 20.181 11.385 20.571 10.895C20.901 10.455 21.011 9.905 21.011 9.355L21.011 5.395L21.011 4.345L21.011 1.265C21.011 0.885 21.231 0.715 21.611 0.715C21.721 0.715 21.831 0.775 21.891 0.715C21.941 0.605 21.891 0.495 21.891 0.385Z " /><path id="分组 2" fill-rule="evenodd" style="fill:#000000" transform="translate(10.133749999999985 5.224999999999989)  rotate(0 2.4253472222222414 5.665000000000012)" opacity="1" d="M0.0918056 7.425C0.0418056 7.475 0.0918056 7.475 0.0918056 7.535L0.0918056 7.425Z M4.82625 3.96C4.87625 3.91 4.82625 3.91 4.82625 3.85L4.82625 0.11L4.82625 3.96Z M0.04 2.75L0.04 2.2C-0.01 2.37 -0.01 2.59 0.04 2.75Z M0.09625 7.42375L0.42625 7.42375C0.31625 7.37375 0.20625 7.37375 0.09625 7.42375Z M0.0918056 11.335L0.0918056 7.535 M0.0918056 7.535L0.0918056 11.335 M0.09625 7.53L0.09625 7.48 M0.09625 7.48L0.09625 7.53 M4.82625 0.11L4.82625 4.44089e-16 M4.82625 4.44089e-16L4.82625 0.11 M4.77125 3.85L4.77125 0.11L4.77125 0L4.77125 3.96L4.77125 3.85 M0.04125 2.75L0.04125 2.2 M0.04125 2.2L0.04125 2.75 M2.78625 11L2.40625 11 M2.40625 11L2.78625 11 M2.78625 11L2.40625 11 M2.40625 11L2.78625 11 M0.15125 7.425L0.48125 7.425 M0.48125 7.425L0.15125 7.425 M1.25125 1.985L1.25125 1.705 M1.25125 1.705L1.25125 1.985 M1.25125 1.985L1.25125 1.705 M1.25125 1.705L1.25125 1.985 M2.29625 0.44L2.56625 0.44 M2.56625 0.44L2.29625 0.44 M2.29625 0.44L2.56625 0.44 M2.56625 0.44L2.29625 0.44 " /></g></g></g></svg>