<svg width="128" height="128" viewBox="0 0 128 128" fill="none" xmlns="http://www.w3.org/2000/svg">
 
<path fill-rule="evenodd" clip-rule="evenodd" d="M61 24C33.7728 25.4193 21.5 53 18 67C18 39.231 39.5244 19.1203 59.9909 18.0534C87 16.6455 110 39.8436 110 66.4953C101.5 43 87.7799 22.604 61 24Z" fill="#026A36"/>
<path d="M32.6958 76.4174C33.7554 86.524 30.8586 95.1108 26.2257 95.5965C21.5927 96.0822 16.9781 88.2829 15.9185 78.1763C14.859 68.0697 17.7558 59.483 22.3887 58.9973C27.0216 58.5116 31.6362 66.3109 32.6958 76.4174Z" fill="#96C62C"/>
<path fill-rule="evenodd" clip-rule="evenodd" d="M34.9516 53.6238C37.3685 53.0448 39.7971 54.5346 40.3762 56.9515L48.1055 89.2131L57.7751 58.7393C59.7022 52.666 68.3094 52.7038 70.1832 58.7937L79.4596 88.9417L87.1239 56.9515C87.7029 54.5346 90.1316 53.0448 92.5485 53.6238C94.9654 54.2029 96.4552 56.6315 95.8762 59.0484L84.3762 107.048L75.699 107.323L63.934 69.0869L51.7893 107.361L43.1239 107.048L31.6239 59.0484C31.0448 56.6315 32.5347 54.2029 34.9516 53.6238Z" fill="#026A36"/>
<path fill-rule="evenodd" clip-rule="evenodd" d="M115.439 74.4604C114.795 68.8416 113.212 64.278 112.051 62.2187C111.949 62.0383 112.003 61.8085 112.179 61.6987C112.355 61.589 112.585 61.6406 112.692 61.8179C114.049 64.0635 116.267 68.5088 116.93 74.2896C117.615 80.2719 116.608 87.0986 113.653 93.6584C113.568 93.8472 113.344 93.9296 113.156 93.8428C112.968 93.756 112.887 93.533 112.971 93.3439C115.753 87.0996 116.105 80.268 115.439 74.4604Z" fill="#96C62C"/>
<path fill-rule="evenodd" clip-rule="evenodd" d="M120.439 74.4603C119.797 68.8543 118.219 66.0846 117.059 64.2152C116.95 64.0392 117.003 63.8085 117.179 63.6987C117.355 63.589 117.585 63.6418 117.699 63.815C119.057 65.8874 121.268 68.5182 121.93 74.2896C122.615 80.2711 121.608 85.165 118.654 91.6575C118.568 91.846 118.344 91.9296 118.156 91.8428C117.968 91.756 117.887 91.5318 117.972 91.343C120.754 85.1693 121.105 80.2671 120.439 74.4603Z" fill="#96C62C"/>
<path fill-rule="evenodd" clip-rule="evenodd" d="M125.439 74.4603C124.974 70.4013 123.183 67.5517 122.145 66.2409C121.999 66.0571 122.041 65.7852 122.239 65.661C122.39 65.5667 122.586 65.5884 122.709 65.7172C124.64 67.7467 126.566 71.116 126.93 74.2896C127.486 79.1446 126.535 84.7758 123.67 89.7068C123.573 89.8742 123.364 89.9385 123.188 89.8574C122.987 89.7648 122.909 89.5209 123.013 89.3259C125.468 84.72 126.002 79.3716 125.439 74.4603Z" fill="#96C62C"/>
<path fill-rule="evenodd" clip-rule="evenodd" d="M12.6449 74.4604C13.2887 68.8416 14.8721 64.278 16.033 62.2187C16.1347 62.0383 16.0809 61.8085 15.9053 61.6987C15.7296 61.589 15.499 61.6406 15.3919 61.8179C14.0348 64.0635 11.817 68.5088 11.1546 74.2896C10.4692 80.2719 11.4761 87.0986 14.4315 93.6584C14.5166 93.8472 14.7397 93.9296 14.9278 93.8428C15.1158 93.756 15.1975 93.533 15.1132 93.3439C12.3307 87.0996 11.9794 80.268 12.6449 74.4604Z" fill="#96C62C"/>
<path fill-rule="evenodd" clip-rule="evenodd" d="M7.64486 74.4603C8.28722 68.8543 9.86492 66.0846 11.0251 64.2152C11.1343 64.0392 11.0809 63.8085 10.9052 63.6987C10.7296 63.589 10.4988 63.6418 10.3853 63.815C9.02759 65.8874 6.81592 68.5182 6.15461 74.2896C5.46923 80.2711 6.47581 85.165 9.43029 91.6575C9.51608 91.846 9.73969 91.9296 9.92774 91.8428C10.1158 91.756 10.197 91.5318 10.1119 91.343C7.3306 85.1693 6.9795 80.2671 7.64486 74.4603Z" fill="#96C62C"/>
<path fill-rule="evenodd" clip-rule="evenodd" d="M2.64486 74.4603C3.10995 70.4013 4.90103 67.5517 5.93932 66.2409C6.08487 66.0571 6.04361 65.7852 5.84482 65.661C5.69405 65.5667 5.49799 65.5884 5.37542 65.7172C3.44428 67.7467 1.51825 71.116 1.15461 74.2896C0.598304 79.1446 1.54887 84.7758 4.41414 89.7068C4.51138 89.8742 4.7204 89.9385 4.89612 89.8574C5.09675 89.7648 5.1756 89.5209 5.07165 89.3259C2.61618 84.72 2.08211 79.3716 2.64486 74.4603Z" fill="#96C62C"/>
<path d="M94.9185 76.4174C93.859 86.524 96.7558 95.1108 101.389 95.5965C106.022 96.0822 110.636 88.2829 111.696 78.1763C112.755 68.0697 109.859 59.483 105.226 58.9973C100.593 58.5116 95.9781 66.3109 94.9185 76.4174Z" fill="#96C62C"/>
</svg>
