<svg width="128" height="128" viewBox="0 0 128 128" fill="none" xmlns="http://www.w3.org/2000/svg">
 
<path d="M27.8052 61.3725C32.1308 61.3725 31.7659 71.3819 34.5954 77.669C37.6167 84.3823 43.7999 94.72 43.7999 94.72C33.7907 91.1992 27.8052 79.6808 26.0952 74.5506C25.5922 73.0416 22.6503 61.3725 27.8052 61.3725Z" fill="#F8F9F0"/>
<path d="M33.0836 70.7279C31.547 58.3072 34.8943 44.3718 36.6044 42.8629C34.0895 38.336 35.6664 25.8986 37.9121 24.9568C41.0306 23.6491 50.7884 29.886 52.9009 31.7973C62.6587 27.7735 79.0558 28.6788 83.4821 30.4896C85.5946 28.88 94.5476 25.2586 100.382 27.3711C101.791 34.9158 98.9738 39.0402 96.9619 42.8629C109.536 63.6862 101.489 97.2852 87.0029 103.019C83.0038 104.602 79.3576 96.4302 78.3014 94.3177C72.9698 94.8206 70.304 94.8709 62.7593 93.9656C62.1557 96.7823 58.7355 103.019 52.6997 103.019C46.664 103.019 34.6202 83.1486 33.0836 70.7279Z" fill="#F8F9F0"/>
<path fill-rule="evenodd" clip-rule="evenodd" d="M74.3309 28.9303L83.4851 30.5398C89.2694 25.8118 100.285 26.5163 100.436 27.4214C101.374 33.0541 99.954 36.4195 98.6523 39.5041C97.9749 41.1094 97.3295 42.6386 97.0655 44.3718C92.4717 43.567 84.5106 40.2903 82.4791 39.0402C82.2525 38.9007 82.0149 38.7295 81.769 38.5314C79.1538 38.7824 71.7614 39.4444 66.585 39.4426C60.2773 39.4404 50.2382 38.4366 50.2382 38.4366L55.8715 34.4128C55.8715 34.4128 62.6418 35.2678 66.8868 35.2678C71.2435 35.2678 76.2925 34.7075 78.0578 34.494C76.4958 32.4688 75.074 30.2883 74.3309 28.9303ZM89.8227 37.2797C93.9974 42.3598 98.3734 33.8595 96.7135 31.8978C94.9263 29.7857 86.315 33.0114 89.8227 37.2797Z" fill="#B5D2E8"/>
<path d="M39.575 28.88C38.1164 30.1375 38.1854 39.3033 40.8828 38.336C55.4691 33.105 41.436 28.025 39.575 28.88Z" fill="#B5D2E8"/>
<path d="M102.85 70.7782C78.1032 68.0621 70.1561 51.7153 68.1442 47.289C87.9782 46.5331 94.001 48.9261 95.939 49.6962C96.1929 49.7971 96.3767 49.8701 96.5123 49.9045C102.087 51.3203 102.213 54.604 102.642 65.7457C102.701 67.2707 102.765 68.9434 102.85 70.7782Z" fill="#B5D2E8"/>
<path d="M49.1316 49.7046C49.1316 48.8216 49.2708 47.9744 49.5262 47.1885H62.2169C62.4723 47.9744 62.6115 48.8216 62.6115 49.7046C62.6115 53.8166 59.5939 57.15 55.8715 57.15C52.1492 57.15 49.1316 53.8166 49.1316 49.7046Z" fill="#B5D2E8"/>
<path d="M33.5644 56.569L33.0029 53.3849C35.3698 52.7192 38.0182 52.2685 40.4804 52.2685V55.4876C38.1986 55.4876 35.7539 55.9532 33.5644 56.569Z" fill="#B5D2E8"/>
<path d="M32.9608 62.4036L32.3993 59.2195C34.7662 58.5538 37.4146 58.1031 39.8768 58.1031V61.3222C37.595 61.3222 35.1503 61.7878 32.9608 62.4036Z" fill="#B5D2E8"/>
<path d="M32.3993 65.0538L32.9608 68.2379C36.0426 67.3711 39.2564 67.207 42.442 67.207V63.988C39.0871 63.988 35.6479 64.1401 32.3993 65.0538Z" fill="#B5D2E8"/>
<path d="M30.7728 65.346C30.2699 65.4466 25.9946 69.0177 25.7934 70.2249C25.7742 70.1279 25.7539 70.0267 25.7328 69.9215C25.2828 67.6793 24.4749 63.6532 26.925 61.8755C28.5623 60.6876 31.2758 65.2454 30.7728 65.346Z" fill="#B5D2E8"/>
<path d="M43.0402 94.217C48.528 93.4626 60.2977 95.1224 61.3037 97.0337C61.5779 97.5547 55.8715 103.371 52.6022 102.969C49.3328 102.566 45.2587 97.3355 43.0402 94.217Z" fill="#B5D2E8"/>
<path d="M94.1483 96.2792C93.1926 95.4242 81.5738 95.6756 79.9642 97.7379C80.5678 99.1462 83.4348 103.22 85.7485 103.22C89.4203 103.22 95.1039 97.1343 94.1483 96.2792Z" fill="#B5D2E8"/>
<path d="M90.1747 43.3658C90.1747 43.3658 75.9907 44.4221 65.6796 44.1203C55.3686 43.8185 40.1786 42.9634 40.1786 42.9634L49.1316 39.5432C49.1316 39.5432 59.1151 40.37 66.4844 40.4988C73.9867 40.63 83.8372 39.845 83.8372 39.845L90.1747 43.3658Z" fill="#B5D2E8"/>
<path d="M76.2925 33.608C76.2925 33.608 70.4593 34.2619 66.7862 34.2619C63.113 34.2619 57.4811 33.608 57.4811 33.608L59.0906 29.5842H74.683L76.2925 33.608Z" fill="#B5D2E8"/>
<path d="M58.3864 51.5708C58.3864 53.4284 57.2604 54.9343 55.8715 54.9343C54.4826 54.9343 53.3566 53.4284 53.3566 51.5708C53.3566 49.7132 54.4826 48.2074 55.8715 48.2074C57.2604 48.2074 58.3864 49.7132 58.3864 51.5708Z" fill="black"/>
<path d="M47.3131 74.8687C46.7636 72.9119 46.7172 70.5179 46.7172 68.716H48.3268C48.3268 70.5355 48.3811 72.7186 48.8627 74.4335C49.1025 75.2875 49.4297 75.9537 49.8476 76.3971C50.2421 76.8155 50.7425 77.0654 51.4453 77.0654C52.0912 77.0654 52.51 76.8033 52.8308 76.3513C53.1818 75.8567 53.4174 75.1213 53.5545 74.2274C53.7634 72.8651 53.7163 71.3954 53.6805 70.2802C53.6688 69.9172 53.6584 69.5914 53.6584 69.3195H55.2679C55.2679 69.5201 55.2767 69.7882 55.2871 70.1056C55.3237 71.2199 55.3802 72.9407 55.1455 74.4713C54.9933 75.4635 54.7071 76.4886 54.1433 77.2829C53.5494 78.1197 52.6604 78.675 51.4453 78.675C50.287 78.675 49.3666 78.2333 48.6764 77.5011C48.0098 76.7939 47.5888 75.8506 47.3131 74.8687Z" fill="black"/>
<path d="M79.7127 69.3195C79.7127 71.1269 79.784 73.404 80.3663 75.2458C80.6595 76.1731 81.1012 77.0542 81.7859 77.7096C82.4907 78.3844 83.4082 78.7756 84.5413 78.7756C85.7288 78.7756 86.6194 78.2768 87.2329 77.4918C87.8165 76.7451 88.1214 75.7789 88.2886 74.8429C88.5525 73.3651 88.5075 71.6982 88.4784 70.6194L88.4783 70.6165C88.4709 70.3433 88.4646 70.108 88.4646 69.9231H86.8551C86.8551 70.1682 86.8624 70.4522 86.8705 70.7637V70.7656C86.8985 71.8485 86.9351 73.2663 86.7041 74.5599C86.5569 75.3844 86.3148 76.0528 85.9647 76.5007C85.6446 76.9103 85.2148 77.166 84.5413 77.166C83.8134 77.166 83.2974 76.9285 82.8989 76.547C82.4801 76.1461 82.1485 75.5434 81.901 74.7606C81.4019 73.1821 81.3222 71.1336 81.3222 69.3195H79.7127Z" fill="black"/>
<path d="M67.4385 57.6085C67.2244 57.5219 67.0189 57.4031 66.846 57.2492C66.4304 57.7921 65.7348 58.0097 65.1216 57.9833C64.6896 57.9646 64.2511 57.8289 63.9105 57.5684C63.5618 57.3017 63.3156 56.9006 63.3156 56.393H64.1204C64.1204 56.6146 64.22 56.7919 64.3994 56.9292C64.587 57.0727 64.8589 57.1664 65.1562 57.1792C65.763 57.2054 66.2863 56.9102 66.3899 56.323L67.1812 56.3165C67.2212 56.5229 67.3917 56.7214 67.7402 56.8624C68.0857 57.0022 68.5465 57.0558 69.014 56.9994C69.4815 56.9431 69.9167 56.7817 70.2257 56.5324C70.5244 56.2915 70.7094 55.9681 70.7094 55.5379H71.5142C71.5142 56.2394 71.1962 56.7836 70.731 57.1588C70.276 57.5258 69.6865 57.729 69.1103 57.7984C68.5341 57.8678 67.9324 57.8083 67.4385 57.6085Z" fill="black"/>
<path fill-rule="evenodd" clip-rule="evenodd" d="M53.0533 30.8693C58.013 28.9377 64.4478 28.1999 70.184 28.1507C73.1513 28.1253 75.9552 28.284 78.3043 28.5651C80.3817 28.8136 82.1513 29.1632 83.3682 29.587C84.7121 28.7072 87.3571 27.5317 90.3334 26.7558C93.6162 25.9 97.5076 25.4743 100.656 26.6144L101.089 26.771L101.173 27.2234C102.501 34.3363 100.192 38.5887 98.2635 42.1412C98.1353 42.3772 98.0089 42.6101 97.8853 42.8405C104.096 53.4143 105.169 67.0422 102.92 78.7513C101.78 84.6867 99.7801 90.1684 97.1268 94.5461C94.4791 98.9145 91.1416 102.246 87.2992 103.767C85.994 104.284 84.7454 103.975 83.6777 103.307C82.6308 102.651 81.6956 101.618 80.8992 100.529C79.5183 98.6424 78.4236 96.4001 77.8236 95.1702C76.444 95.2962 75.2328 95.3887 74.0504 95.4386C72.8958 95.5143 71.7271 95.5243 70.5778 95.4801C69.9666 95.4566 69.3563 95.4176 68.7516 95.3641C67.2239 95.2638 65.4886 95.0956 63.3585 94.8469C62.8935 96.3579 61.8895 98.3576 60.3703 100.081C58.5875 102.103 56.0205 103.824 52.6998 103.824C51.7339 103.824 50.7349 103.431 49.7611 102.824C48.7782 102.211 47.7563 101.338 46.7278 100.282C45.3575 98.8736 43.9439 97.1056 42.5623 95.1092C37.8078 93.1554 34.0147 89.4978 31.1908 85.7207C28.1745 81.6861 26.2121 77.4461 25.3317 74.805C25.0626 73.9977 24.1831 70.63 24.0247 67.4355C23.9461 65.8491 24.0386 64.2038 24.544 62.9238C24.8008 62.2735 25.1798 61.6772 25.7355 61.2428C26.3017 60.8001 26.9982 60.5677 27.8053 60.5677C29.2754 60.5677 30.2845 61.449 30.9843 62.6224C31.3358 63.2117 31.6308 63.9068 31.8892 64.6668C31.8443 60.3603 32.2451 56.1474 32.8324 52.573C33.2663 49.9324 33.8046 47.6239 34.348 45.8686C34.6194 44.9922 34.8962 44.2402 35.1677 43.6484C35.315 43.3274 35.4755 43.0195 35.6517 42.7569C35.0995 41.5403 34.7837 39.9908 34.6308 38.363C34.4545 36.4863 34.4878 34.4262 34.6719 32.4892C34.8558 30.555 35.193 28.7133 35.6381 27.2771C35.86 26.561 36.117 25.9187 36.4109 25.409C36.6889 24.9267 37.0708 24.437 37.601 24.2147C38.1569 23.9815 38.796 23.94 39.4341 23.9951C40.08 24.0508 40.7848 24.2109 41.5115 24.4366C42.9645 24.888 44.5917 25.6297 46.1598 26.4584C48.9753 27.9462 51.7157 29.777 53.0533 30.8693ZM35.8506 78.4675C34.8743 75.6971 34.1775 73.0149 33.8823 70.6291C33.126 64.5155 33.5707 58.0067 34.4206 52.8339C34.6416 51.4893 34.8892 50.2394 35.1487 49.1144C44.0727 47.7319 59.8467 47.4526 73.7936 47.7774C73.1737 48.3271 72.7716 49.2104 72.7716 50.2063C72.7716 51.873 73.8976 53.2242 75.2865 53.2242C76.6755 53.2242 77.8014 51.873 77.8014 50.2063C77.8014 49.2586 77.4374 48.4129 76.8679 47.8596C81.1103 47.9878 85.1131 48.171 88.6146 48.394C91.2875 48.5642 94.043 49.2464 96.2805 50.266C98.554 51.302 100.136 52.6132 100.701 53.9414L100.71 53.9377C102.812 61.8979 102.849 70.5884 101.34 78.4477C100.229 84.2317 98.2872 89.5264 95.7503 93.7119C93.2079 97.9067 90.1073 100.925 86.7068 102.271C86.0124 102.546 85.3056 102.427 84.5319 101.942C83.7374 101.445 82.9452 100.6 82.1981 99.5789C80.9291 97.8448 79.916 95.7852 79.3056 94.5361C80.6373 94.1295 81.8556 93.5813 82.8872 92.8665C83.2525 92.6134 83.3434 92.112 83.0902 91.7467C82.8371 91.3813 82.3357 91.2904 81.9704 91.5436C80.0007 92.9085 77.1055 93.6239 73.9563 93.8317C72.3402 93.8989 70.7758 93.8834 68.8762 93.7594C65.1958 93.4325 61.8421 92.5571 59.9328 91.5009C59.5438 91.2857 59.0542 91.4266 58.839 91.8155C58.6239 92.2044 58.7647 92.6941 59.1537 92.9093C59.9151 93.3305 60.8514 93.7163 61.9111 94.0545C60.8371 98.1779 57.1781 102.214 52.6998 102.214C52.1567 102.214 51.4591 101.986 50.6129 101.458C49.776 100.936 48.8547 100.159 47.8812 99.159C42.5929 93.7253 39.057 85.2519 35.8506 78.4675ZM30.9796 67.354C30.5794 65.7154 30.1534 64.3713 29.602 63.4469C29.0653 62.5471 28.4979 62.1772 27.8053 62.1772C27.3236 62.1772 26.9844 62.3094 26.7268 62.5108C26.4586 62.7205 26.2256 63.0476 26.0411 63.5149C25.664 64.47 25.5569 65.8363 25.6323 67.3558C25.7819 70.3731 26.6248 73.5944 26.8587 74.296C27.6884 76.7852 29.5737 80.8695 32.4799 84.7569C34.7054 87.7336 37.4991 90.5546 40.8371 92.4717C35.9579 84.594 33.1581 76.2733 30.9796 67.354ZM88.7169 46.7877C73.3934 45.8117 48.3527 45.587 35.5724 47.4239C35.6764 47.0423 35.7811 46.682 35.8856 46.3447C36.1445 45.5084 36.3978 44.8271 36.6306 44.3195C36.774 44.007 36.8953 43.7931 36.9869 43.6552C42.2937 43.3162 47.8797 41.5305 52.0725 39.1219C54.1925 37.904 55.9957 36.5045 57.226 35.0149C58.2883 33.7289 58.9763 32.3073 58.9792 30.8457C62.5706 30.1153 66.5027 29.7918 70.1978 29.7602C71.4691 29.7493 72.708 29.773 73.89 29.8259C75.6575 34.1479 79.4081 37.8789 83.7299 40.6483C88.1474 43.4791 93.258 45.368 97.6934 45.8609C98.4116 47.2983 99.0415 48.786 99.5871 50.3119C98.8007 49.7414 97.9021 49.2362 96.9479 48.8013C94.5219 47.6959 91.5736 46.9697 88.7169 46.7877ZM51.2708 37.7262C47.3376 39.9857 42.0811 41.6794 37.0918 42.0349C36.6638 41.0663 36.3771 39.7435 36.2333 38.2124C36.0681 36.4545 36.0978 34.4976 36.2742 32.6416C36.4509 30.7829 36.7719 29.0557 37.1755 27.7536C37.3779 27.1005 37.5929 26.5812 37.8053 26.2129C38.0335 25.817 38.1921 25.7121 38.2234 25.699C38.4471 25.6052 38.7951 25.5555 39.2958 25.5987C39.7887 25.6412 40.3742 25.7688 41.034 25.9737C42.3536 26.3837 43.8826 27.0754 45.4078 27.8814C48.4703 29.4998 51.3736 31.5007 52.361 32.394L52.7379 32.735L53.2078 32.5413C54.4808 32.0163 55.8749 31.5764 57.3461 31.2126C57.2435 32.0726 56.7964 33.0076 55.9851 33.9899C54.9175 35.2824 53.2878 36.5675 51.2708 37.7262ZM84.5983 39.2931C80.6911 36.7894 77.4051 33.5501 75.6951 29.9322C76.5451 29.9947 77.3546 30.0725 78.1131 30.1632C80.4075 30.4377 82.1743 30.824 83.1774 31.2344L83.6036 31.4088L83.9698 31.1297C84.9075 30.4152 87.5599 29.1422 90.7394 28.3133C93.7509 27.5282 97.0509 27.1916 99.6732 27.9836C100.713 34.2381 98.7072 37.941 96.8469 41.3754C96.6448 41.7484 96.4444 42.1184 96.2498 42.488L96.0383 42.89L96.2731 43.2789C96.4388 43.5533 96.6008 43.83 96.7593 44.1089C92.864 43.4778 88.4665 41.7719 84.5983 39.2931Z" fill="black"/>
</svg>
