<svg width="128" height="128" viewBox="0 0 128 128" fill="none" xmlns="http://www.w3.org/2000/svg">
 
<path d="M39.9263 81.1211C41.7153 81.1211 43.1862 80.5646 44.3391 79.4514C45.5317 78.3383 46.128 76.8078 46.128 74.8598C46.128 73.0311 45.3329 71.4409 43.7427 70.0893C42.4308 68.9762 40.9202 67.9425 39.2107 66.9884C37.5411 65.9946 36.4876 65.3784 36.0503 65.1399C35.613 64.8616 34.8775 64.3646 33.8439 63.6491C32.8103 62.9335 32.0549 62.3173 31.5779 61.8005C31.1406 61.2837 30.6238 60.6476 30.0275 59.8923C28.9541 58.4611 28.4174 56.6523 28.4174 54.4658C28.4174 51.1264 29.6498 48.5225 32.1146 46.6541C34.6191 44.7459 37.7995 43.7917 41.6556 43.7917C43.047 43.7917 46.6647 44.3086 52.5086 45.3422C52.4688 46.2963 52.2502 47.8864 51.8526 50.1127C51.4948 52.3389 51.1967 53.8894 50.9582 54.764L48.0362 55.1814C47.7579 51.9613 47.3803 49.735 46.9032 48.5026C45.5516 47.5088 43.6434 47.0119 41.1786 47.0119C39.6282 47.0119 38.3361 47.5088 37.3025 48.5026C36.3087 49.4567 35.8117 50.7885 35.8117 52.498C35.8117 54.1676 36.6665 55.6386 38.3759 56.9107C39.648 57.8648 41.2581 58.8984 43.2061 60.0115C45.154 61.0849 46.5852 61.9197 47.4995 62.5161C48.4139 63.1124 49.4674 63.9075 50.66 64.9013C52.8862 66.8493 53.9994 69.3339 53.9994 72.3553C53.9994 76.291 52.5881 79.2924 49.7655 81.3596C46.9827 83.4269 43.544 84.4605 39.4493 84.4605C35.3546 84.4605 31.5779 83.725 28.1193 82.2541C28.0398 81.7373 28 80.1471 28 77.4836C28 74.7803 28.0795 73.051 28.2385 72.2956L31.3394 71.6397C31.5779 74.4225 32.3929 76.7084 33.7843 78.4973C35.1757 80.2465 37.223 81.1211 39.9263 81.1211Z" fill="white"/>
<path d="M78.5326 84.4605C72.4502 84.2617 67.6399 82.4529 64.1018 79.034C60.5637 75.5754 58.7946 70.8446 58.7946 64.8417C58.7946 58.8388 60.6432 53.8297 64.3403 49.8145C68.0772 45.7993 73.0863 43.7917 79.3675 43.7917C85.6487 43.7917 90.6577 45.5211 94.3946 48.9797C98.1315 52.4383 100 57.189 100 63.2316C100 69.2346 98.2111 74.2237 94.6332 78.1992C91.0553 82.1746 86.2847 84.2418 80.3216 84.4009C81.2359 84.6394 83.1243 85.6929 85.9866 87.5613C88.8887 89.4298 91.095 90.364 92.6057 90.364C94.1164 90.364 95.6867 89.231 97.3166 86.965L98.9863 89.1117C96.9985 91.8548 95.3686 93.7233 94.0965 94.7171C92.8243 95.711 91.5323 96.2079 90.2204 96.2079C88.9483 96.2079 87.5171 95.6911 85.927 94.6575C84.3368 93.6636 82.846 92.6499 81.4546 91.6163C80.1029 90.6224 79.0494 90.1255 78.2941 90.1255C77.5388 90.1255 76.6841 90.4634 75.73 91.1392C74.8156 91.8548 74.0801 92.5505 73.5236 93.2263L71.4365 91.6163C72.1521 90.6224 73.3049 89.2906 74.8951 87.621C76.525 85.991 77.7375 84.9375 78.5326 84.4605ZM79.0097 47.2504C74.9945 47.2504 72.0129 48.7213 70.065 51.6631C68.1567 54.5652 67.2026 58.4611 67.2026 63.3509C67.2026 68.2009 68.2959 72.3752 70.4824 75.8735C72.6689 79.3719 75.7697 81.1211 79.7849 81.1211C83.8001 81.1211 86.7618 79.6701 88.67 76.768C90.618 73.8262 91.592 69.9104 91.592 65.0206C91.592 60.091 90.4987 55.897 88.3122 52.4383C86.1257 48.9797 83.0249 47.2504 79.0097 47.2504Z" fill="white"/>
</svg>
