<svg width="128" height="128" viewBox="0 0 128 128" fill="none" xmlns="http://www.w3.org/2000/svg">
 
<path fill-rule="evenodd" clip-rule="evenodd" d="M64.9786 40.5876C65.0888 40.6707 65.1109 40.8275 65.0278 40.9377C64.8638 41.1553 64.5869 41.4393 64.2311 41.782C63.9443 42.0583 63.5972 42.3811 63.2019 42.7489C63.1027 42.8412 63.0005 42.9363 62.8954 43.0342C61.8458 44.0121 60.5003 45.28 59.0082 46.8461C56.0239 49.9784 52.4548 54.3019 49.5059 59.8691C49.4413 59.9911 49.29 60.0376 49.168 59.973C49.046 59.9083 48.9994 59.757 49.0641 59.635C52.0406 54.0156 55.6412 49.6553 58.6462 46.5012C60.1488 44.9241 61.5029 43.6482 62.5546 42.6684C62.6607 42.5695 62.7636 42.4738 62.8631 42.3811C63.258 42.0138 63.6009 41.6949 63.8843 41.4219C64.2421 41.0772 64.4915 40.8186 64.6284 40.6368C64.7115 40.5266 64.8683 40.5045 64.9786 40.5876Z" fill="black"/>
<path fill-rule="evenodd" clip-rule="evenodd" d="M46.492 71.7348C46.6083 71.8092 46.6423 71.9638 46.5679 72.0801L39.543 83.0642C39.4686 83.1805 39.314 83.2145 39.1976 83.1401C39.0813 83.0657 39.0473 82.9111 39.1217 82.7948L46.1467 71.8107C46.2211 71.6944 46.3757 71.6604 46.492 71.7348Z" fill="black"/>
<path fill-rule="evenodd" clip-rule="evenodd" d="M60.0439 77.8765C60.7055 78.3751 61.646 78.2429 62.1445 77.5813C62.6431 76.9197 62.5109 75.9792 61.8493 75.4806C61.1877 74.9821 60.2472 75.1142 59.7486 75.7758C59.2501 76.4375 59.3823 77.378 60.0439 77.8765ZM59.743 78.2758C60.6251 78.9406 61.8791 78.7643 62.5439 77.8822C63.2086 77 63.0324 75.746 62.1502 75.0813C61.2681 74.4165 60.0141 74.5928 59.3493 75.4749C58.6846 76.3571 58.8608 77.6111 59.743 78.2758Z" fill="black"/>
<path fill-rule="evenodd" clip-rule="evenodd" d="M54.6502 75.0643C55.3118 75.5628 56.2524 75.4306 56.7509 74.769C57.2495 74.1074 57.1173 73.1669 56.4557 72.6684C55.7941 72.1698 54.8536 72.302 54.355 72.9636C53.8564 73.6252 53.9886 74.5657 54.6502 75.0643ZM54.3493 75.4636C55.2315 76.1283 56.4855 75.9521 57.1502 75.0699C57.815 74.1878 57.6387 72.9338 56.7566 72.269C55.8744 71.6043 54.6204 71.7805 53.9557 72.6627C53.2909 73.5448 53.4672 74.7988 54.3493 75.4636Z" fill="black"/>
<path fill-rule="evenodd" clip-rule="evenodd" d="M65.5681 85.483C65.6818 85.5614 65.7103 85.7171 65.6319 85.8308L58.8094 95.7153C58.731 95.8289 58.5753 95.8575 58.4617 95.779C58.348 95.7006 58.3195 95.5449 58.3979 95.4313L65.2204 85.5467C65.2988 85.4331 65.4545 85.4046 65.5681 85.483Z" fill="black"/>
<path fill-rule="evenodd" clip-rule="evenodd" d="M45.905 50.9443C46.3461 51.2767 46.9731 51.1886 47.3054 50.7475C47.6378 50.3064 47.5497 49.6794 47.1086 49.3471C46.6675 49.0147 46.0405 49.1028 45.7082 49.5439C45.3758 49.985 45.4639 50.612 45.905 50.9443ZM45.6041 51.3437C46.2657 51.8422 47.2062 51.71 47.7048 51.0484C48.2033 50.3868 48.0711 49.4463 47.4095 48.9478C46.7479 48.4492 45.8074 48.5814 45.3088 49.243C44.8103 49.9046 44.9425 50.8451 45.6041 51.3437Z" fill="black"/>
<path fill-rule="evenodd" clip-rule="evenodd" d="M89.0029 95.9423C89.6645 96.4409 90.605 96.3087 91.1036 95.6471C91.6022 94.9855 91.47 94.045 90.8084 93.5464C90.1468 93.0479 89.2062 93.18 88.7077 93.8416C88.2091 94.5033 88.3413 95.4438 89.0029 95.9423ZM88.702 96.3416C89.5842 97.0064 90.8382 96.8301 91.5029 95.948C92.1677 95.0658 91.9914 93.8118 91.1093 93.1471C90.2271 92.4823 88.9731 92.6586 88.3084 93.5407C87.6436 94.4229 87.8199 95.6769 88.702 96.3416Z" fill="black"/>
<path fill-rule="evenodd" clip-rule="evenodd" d="M43.3492 97.5387C43.4594 97.6217 43.4815 97.7785 43.3984 97.8888L41.292 100.684C41.2089 100.794 41.0522 100.816 40.9419 100.733C40.8316 100.65 40.8096 100.493 40.8927 100.383L42.9991 97.5879C43.0822 97.4776 43.2389 97.4556 43.3492 97.5387Z" fill="black"/>
<path fill-rule="evenodd" clip-rule="evenodd" d="M92.4857 59.5001C92.6237 59.5004 92.7354 59.6126 92.7351 59.7507L92.73 62.0007L94.98 62.0058C95.1181 62.0061 95.2297 62.1183 95.2294 62.2564C95.2291 62.3944 95.1169 62.5061 94.9789 62.5058L92.7289 62.5007L92.7238 64.7507C92.7234 64.8888 92.6113 65.0004 92.4732 65.0001C92.3351 64.9998 92.2234 64.8876 92.2238 64.7496L92.2289 62.4995L89.9789 62.4944C89.8408 62.4941 89.7291 62.3819 89.7294 62.2439C89.7297 62.1058 89.8419 61.9941 89.98 61.9944L92.23 61.9995L92.2351 59.7496C92.2354 59.6115 92.3476 59.4998 92.4857 59.5001Z" fill="black"/>
<path fill-rule="evenodd" clip-rule="evenodd" d="M33.145 61.7679C33.2817 61.7487 33.4082 61.844 33.4274 61.9807L33.5894 63.1336L34.7423 62.9715C34.879 62.9523 35.0054 63.0476 35.0247 63.1843C35.0439 63.321 34.9486 63.4475 34.8119 63.4667L33.659 63.6287L33.821 64.7816C33.8402 64.9183 33.745 65.0447 33.6082 65.0639C33.4715 65.0832 33.3451 64.9879 33.3259 64.8512L33.1639 63.6983L32.011 63.8603C31.8742 63.8795 31.7478 63.7843 31.7286 63.6475C31.7094 63.5108 31.8047 63.3844 31.9414 63.3652L33.0943 63.2032L32.9322 62.0503C32.913 61.9135 33.0083 61.7871 33.145 61.7679Z" fill="black"/>
<path fill-rule="evenodd" clip-rule="evenodd" d="M51.7899 42.0102C51.9267 41.991 52.0531 42.0862 52.0723 42.223L52.1359 42.6756L52.5886 42.612C52.7253 42.5928 52.8517 42.6881 52.8709 42.8248C52.8901 42.9615 52.7949 43.0879 52.6582 43.1071L52.2055 43.1708L52.2691 43.6234C52.2883 43.7601 52.1931 43.8866 52.0563 43.9058C51.9196 43.925 51.7932 43.8297 51.774 43.693L51.7104 43.2403L51.2577 43.304C51.121 43.3232 50.9946 43.2279 50.9753 43.0912C50.9561 42.9545 51.0514 42.828 51.1881 42.8088L51.6408 42.7452L51.5772 42.2926C51.5579 42.1558 51.6532 42.0294 51.7899 42.0102Z" fill="black"/>
<path d="M30.8993 53.4103C30.7332 53.6308 30.4197 53.6749 30.1991 53.5087C29.9786 53.3425 29.9345 53.029 30.1007 52.8085C30.2669 52.5879 30.5804 52.5439 30.8009 52.71C31.0215 52.8762 31.0655 53.1897 30.8993 53.4103Z" fill="black"/>
<path d="M64.7903 101.487C64.6241 101.708 64.3106 101.752 64.09 101.586C63.8695 101.42 63.8254 101.106 63.9916 100.886C64.1578 100.665 64.4713 100.621 64.6919 100.787C64.9124 100.953 64.9565 101.267 64.7903 101.487Z" fill="black"/>
<path d="M76.1093 93.113C75.7769 93.5541 75.1499 93.6422 74.7089 93.3099C74.2678 92.9775 74.1797 92.3505 74.512 91.9094C74.8444 91.4683 75.4714 91.3802 75.9125 91.7126C76.3536 92.045 76.4417 92.672 76.1093 93.113Z" fill="black"/>
<path d="M81.1434 78.1244C80.811 78.5655 80.184 78.6536 79.7429 78.3213C79.3018 77.9889 79.2137 77.3619 79.5461 76.9208C79.8785 76.4797 80.5055 76.3916 80.9465 76.724C81.3876 77.0564 81.4757 77.6834 81.1434 78.1244Z" fill="black"/>
<path d="M90.5449 31.9787C89.843 30.9937 88.8512 30.0966 87.7458 29.5649C87.6214 29.505 87.569 29.3556 87.6289 29.2312C87.6888 29.1068 87.8381 29.0544 87.9626 29.1143C89.1547 29.6878 90.2087 30.6453 90.9521 31.6886C91.6916 32.7262 92.1479 33.8835 92.0913 34.8631C92.0833 35.0009 91.9651 35.1062 91.8273 35.0982C91.6894 35.0903 91.5841 34.9721 91.5921 34.8342C91.6395 34.014 91.2509 32.9694 90.5449 31.9787Z" fill="black"/>
<path d="M88.2443 43.3556C88.3081 43.2332 88.2606 43.0822 88.1382 43.0183C88.0158 42.9545 87.8648 43.002 87.8009 43.1244C87.5811 43.5461 87.1462 44.1263 86.6372 44.6657C86.1265 45.2069 85.566 45.6804 85.1048 45.9098C84.9811 45.9712 84.9307 46.1213 84.9922 46.2449C85.0537 46.3686 85.2037 46.419 85.3273 46.3575C85.8672 46.0891 86.4757 45.5653 87.0008 45.0089C87.5276 44.4506 87.9955 43.8328 88.2443 43.3556Z" fill="black"/>
<path fill-rule="evenodd" clip-rule="evenodd" d="M70.0091 74.4722C68.3147 75.2063 67.0425 74.8941 66.0875 74.5157C65.7154 75.0177 65.3405 75.5232 64.9644 76.0303L64.9568 76.0406C64.4668 76.7012 63.9744 77.365 63.4845 78.0264C60.9121 81.4991 58.3932 84.9232 56.4813 87.6755C55.5252 89.0518 54.7232 90.257 54.1428 91.2144C53.8526 91.6933 53.6197 92.1071 53.4512 92.4474C53.28 92.7931 53.1846 93.0449 53.155 93.2056C52.7429 95.4433 51.7921 97.1557 50.6014 98.0774C50.0039 98.54 49.3415 98.8062 48.6581 98.8287C47.9731 98.8512 47.2873 98.628 46.6478 98.1461C45.8236 97.5251 45.3997 96.9235 45.2974 96.288C45.2801 96.18 45.2723 96.0728 45.273 95.9664C44.4027 96.3013 43.6159 96.3783 42.9272 96.2408C42.1767 96.091 41.5629 95.6904 41.0999 95.1308C40.18 94.0192 39.8559 92.2869 40.169 90.5867C40.2414 90.1934 40.5313 89.5663 40.9523 88.7971C41.3798 88.0161 41.9613 87.0559 42.6449 85.9824C44.0124 83.8348 45.7955 81.2223 47.5892 78.6617C50.748 74.1524 53.9447 69.7965 54.9729 68.4094C54.4902 68.2543 53.972 67.9795 53.4173 67.5615C52.3838 66.7826 52.3453 65.4386 52.8018 63.9378C53.2629 62.4217 54.2586 60.6306 55.479 58.8028C55.6306 58.5757 55.7858 58.3478 55.9442 58.1195C55.924 58.0237 55.9614 57.9209 56.047 57.8619C56.0914 57.8313 56.1372 57.8027 56.1845 57.7761C58.5431 54.4339 61.5043 51.054 63.3226 49.0178C66.311 45.6712 69.981 45.2313 71.8744 45.4731C71.8431 45.4276 71.8123 45.3818 71.7818 45.3356C69.4732 41.838 69.5645 36.9943 72.3451 33.3043C75.835 28.6731 82.2398 27.6131 86.6505 30.9368C91.0613 34.2606 91.8077 40.7094 88.3178 45.3406C86.2337 48.1063 83.1102 49.5984 79.9925 49.6439C80.3668 50.4615 81.0917 52.3273 81.1523 55.0096C81.2236 58.1691 80.3729 62.4429 76.9748 67.4548C74.083 71.7199 71.8205 73.6875 70.0091 74.4722ZM86.3496 31.3361C82.1775 28.1923 76.0822 29.1759 72.7444 33.6052C70.2231 36.9512 70.025 41.2762 71.8817 44.5426C74.7186 44.1842 78.1071 45.505 79.7598 49.1446C82.7976 49.1719 85.8773 47.7485 87.9185 45.0397C91.2562 40.6104 90.5217 34.48 86.3496 31.3361ZM72.1689 45.0142C74.6893 44.7825 77.6258 45.9573 79.175 49.0787C79.0947 49.0661 79.0023 49.0528 78.8961 49.0393L79.3847 49.5322C79.6254 50.0164 80.5835 51.9668 80.6524 55.0209C80.7213 58.0727 79.9029 62.2451 76.561 67.1742C76.2744 67.5968 75.9946 67.9958 75.7214 68.3726C75.4627 67.196 74.9345 66.3955 74.3999 65.8467C73.9439 65.3787 73.4536 65.0759 73.1892 64.9127C73.1522 64.8898 73.119 64.8693 73.0915 64.8518C74.0583 63.4397 74.7706 62.3163 75.1063 61.6185C75.2781 61.2614 75.529 60.8184 75.8205 60.3039C75.8962 60.1703 75.9749 60.0313 76.0554 59.8883C76.4427 59.2001 76.8712 58.4166 77.2476 57.5912C77.9581 56.0333 78.5064 54.2772 78.1985 52.6989C78.1721 52.5634 78.0352 52.4828 77.9015 52.517C77.7677 52.5512 77.6877 52.6872 77.7132 52.8229C77.9772 54.2303 77.492 55.8503 76.7927 57.3838C76.4254 58.1892 76.0054 58.9576 75.6196 59.6431C75.5428 59.7796 75.4671 59.9132 75.3934 60.0435L75.3909 60.0478C75.0981 60.5646 74.8356 61.028 74.6557 61.4018C74.1149 62.5259 72.5175 64.8612 70.3942 67.805C68.6809 70.1802 66.6372 72.9357 64.5561 75.7414C64.0659 76.4023 63.5732 77.0667 63.0827 77.7288C61.3726 80.0374 59.684 82.3275 58.1808 84.4142C57.9777 83.3249 57.1778 82.5376 56.3712 82.0139C55.8878 81.7001 55.3919 81.4732 54.9956 81.3223C54.7351 81.2231 54.507 81.1529 54.3485 81.1134C54.4794 80.9255 54.6111 80.7365 54.7436 80.5466C55.6373 79.2659 56.5655 77.9446 57.4846 76.6362L57.4851 76.6354C59.8991 73.1991 62.25 69.8525 63.7461 67.5683C64.2741 67.9322 64.9576 68.1557 65.8016 68.0371C65.9383 68.0178 66.0336 67.8914 66.0144 67.7547C65.9951 67.618 65.8687 67.5227 65.732 67.5419C64.7783 67.676 64.0807 67.293 63.5999 66.7869C63.1092 66.2705 62.8612 65.642 62.8198 65.3474C62.8006 65.2107 62.6742 65.1154 62.5374 65.1347C62.4007 65.1539 62.3055 65.2803 62.3247 65.417C62.3817 65.8227 62.6806 66.5454 63.2374 67.1314C63.2758 67.1717 63.3155 67.2116 63.3565 67.2506C61.8667 69.5283 59.5091 72.8843 57.0818 76.3398L57.081 76.3409C56.1607 77.6509 55.2304 78.9752 54.3336 80.2605C53.8427 80.9639 53.3619 81.6557 52.8983 82.3268C52.7526 81.5574 52.4449 80.9407 52.0395 80.4505C51.5734 79.8867 50.99 79.5044 50.4087 79.2468C49.5577 78.8698 48.6935 78.7521 48.1542 78.7269C51.406 74.0916 54.6596 69.6683 55.5025 68.5348C55.637 68.555 55.7685 68.5656 55.897 68.5671C56.6284 68.5757 57.2295 68.2911 57.7043 67.886C58.1759 67.4837 58.5266 66.96 58.7715 66.4729C59.0163 65.9862 59.1632 65.5203 59.2186 65.2193C59.4178 64.1369 60.0845 61.6216 61.5853 59.63C62.3376 58.6316 63.9142 56.5395 65.5896 54.5234C66.4274 53.5153 67.2877 52.5288 68.0804 51.7087C68.7791 50.9859 69.414 50.4045 69.9279 50.0492C70.0415 49.9707 70.0795 49.8172 70.008 49.6991C69.9364 49.581 69.7826 49.5429 69.6686 49.6208C69.1033 50.0071 68.4313 50.6263 67.7209 51.3612C66.9161 52.1938 66.0469 53.1908 65.205 54.2039C63.5212 56.2301 61.9382 58.3308 61.186 59.3291C61.0046 59.5698 60.835 59.8174 60.6766 60.069C60.4757 59.0264 59.7618 58.2837 58.9374 57.8747C58.3187 57.5679 57.6096 57.4362 56.9824 57.5197C59.2514 54.3852 61.9762 51.2763 63.6955 49.3509C66.8335 45.8368 70.7355 45.6948 72.2604 46.0479C72.2604 46.0479 72.716 46.1052 73.359 46.3268C72.6173 45.6981 72.5074 45.5304 72.2591 45.1516L72.1689 45.0142ZM47.8325 79.1861C46.0969 81.6678 44.3861 84.1787 43.0666 86.2509C42.3857 87.3204 41.8108 88.2701 41.3909 89.0372C40.9647 89.816 40.7164 90.3751 40.6607 90.6773C40.3663 92.2757 40.6847 93.8448 41.4851 94.8121C41.8822 95.292 42.398 95.6253 43.025 95.7505C43.6538 95.876 44.4146 95.7961 45.3048 95.4136L45.3326 95.4784C45.4122 95.1344 45.5646 94.7966 45.7494 94.4614C45.9143 94.1623 46.111 93.855 46.316 93.5392L46.3945 93.4185C46.5766 93.1384 46.7642 92.8498 46.9475 92.545C47.3662 91.8488 47.7542 91.0803 47.9729 90.19C48.046 89.8923 48.2884 89.41 48.6354 88.8088C48.9886 88.1967 49.4683 87.4317 50.04 86.5559C50.7417 85.4809 51.5847 84.235 52.508 82.893C52.4983 82.8404 52.4886 82.7722 52.4785 82.685C52.3792 81.8268 52.0767 81.1878 51.6804 80.7085C51.2827 80.2275 50.7784 79.893 50.2568 79.6619C49.2269 79.2055 48.1613 79.1666 47.8325 79.1861ZM54.0767 81.5041C52.7029 83.4808 51.4409 85.3245 50.4587 86.8292C49.8889 87.702 49.415 88.4581 49.0684 89.0587C48.7156 89.6701 48.5119 90.092 48.4585 90.3093C48.223 91.268 47.8075 92.0852 47.376 92.8027C47.1878 93.1156 46.9951 93.412 46.8133 93.6916L46.7354 93.8114C46.5299 94.128 46.3424 94.4214 46.1873 94.7028C45.8747 95.2698 45.7169 95.7479 45.7911 96.2086C45.8644 96.6641 46.1756 97.1643 46.9487 97.7468C47.5071 98.1676 48.0829 98.3473 48.6417 98.3289C49.2022 98.3105 49.7658 98.092 50.2953 97.6821C51.3586 96.859 52.2654 95.2755 52.6632 93.1151C52.7061 92.8822 52.8285 92.5782 53.0031 92.2256C53.1803 91.8676 53.4212 91.4404 53.7152 90.9552C54.3035 89.9847 55.1124 88.7696 56.0707 87.3902C56.5894 86.6435 57.1525 85.8477 57.7489 85.0153L57.749 85.0135C57.803 83.8105 57.0253 82.9607 56.1406 82.3863C55.6991 82.0997 55.241 81.8895 54.871 81.7487C54.4925 81.6045 54.2299 81.5419 54.1779 81.5363C54.1419 81.5324 54.1076 81.521 54.0767 81.5041ZM70.7997 68.0975C71.5358 67.0769 72.2132 66.1235 72.8073 65.2647C72.8611 65.3005 72.9222 65.3383 72.9895 65.3799C73.2625 65.5488 73.6378 65.781 74.0418 66.1956C74.5784 66.7464 75.122 67.5937 75.3136 68.925C73.0401 71.9487 71.2387 73.3946 69.8103 74.0135C68.355 74.6439 67.2638 74.4258 66.3962 74.0991C67.9698 71.9748 69.4823 69.9239 70.7997 68.0975ZM55.8948 59.0804C56.0979 58.7763 56.3076 58.4705 56.5227 58.1643C57.0894 57.8994 57.9456 57.941 58.7152 58.3227C59.5612 58.7423 60.2355 59.5423 60.2329 60.6769C60.2328 60.7166 60.242 60.7541 60.2584 60.7875C59.3343 62.5039 58.8862 64.2629 58.7268 65.1288C58.681 65.3776 58.5509 65.7986 58.3248 66.2483C58.0989 66.6977 57.7849 67.16 57.3797 67.5056C56.9778 67.8486 56.4903 68.074 55.9029 68.0671C55.3121 68.0602 54.5882 67.8178 53.7182 67.1621C52.9548 66.5869 52.8362 65.543 53.2802 64.0833C53.7195 62.639 54.6819 60.897 55.8948 59.0804Z" fill="black"/>
<path d="M78.3406 35.318C82.0442 33.7264 85.3884 37.875 85.3258 41.8339C86.2455 33.1359 79.1448 33.4198 77.5419 34.7162C74.5812 37.1108 73.4276 41.0068 74.9208 44.0102C74.2703 41.0269 76.1301 39.913 76.1301 39.913C76.1301 39.913 75.1638 39.8089 75.2331 38.6109C75.3024 37.4129 76.1358 37.413 77.2353 37.6155C76.4367 37.0137 77.1544 35.8277 78.3406 35.318Z" fill="black"/>
<path fill-rule="evenodd" clip-rule="evenodd" d="M82.7616 45.4641C81.7359 46.1955 80.5665 46.6064 79.4842 46.4687C79.3921 46.4569 79.3258 46.4848 79.2662 46.5515C79.198 46.6278 79.1363 46.7613 79.1041 46.9522C79.0398 47.3325 79.1076 47.8518 79.3347 48.3085L78.887 48.5311C78.6163 47.9867 78.5279 47.3607 78.6111 46.8688C78.6525 46.6237 78.7406 46.3894 78.8933 46.2184C79.0547 46.0377 79.2806 45.9387 79.5474 45.9727C80.4645 46.0894 81.5093 45.743 82.4713 45.057C83.4301 44.3733 84.282 43.3687 84.8099 42.2166C85.3373 41.0656 85.537 39.7783 85.2117 38.5201C84.8873 37.2651 84.0336 36.0115 82.4042 34.9362C80.8391 33.9032 79.4455 33.8573 78.2854 34.3743C77.1095 34.8982 76.1339 36.0186 75.4663 37.39C74.7999 38.7588 74.4549 40.3493 74.5182 41.7737C74.5818 43.2028 75.0526 44.4226 75.9683 45.1126L75.6674 45.5119C74.5865 44.6974 74.0858 43.3048 74.0187 41.7959C73.9514 40.2823 74.3165 38.6093 75.0167 37.1711C75.7156 35.7354 76.7629 34.5053 78.0819 33.9176C79.4168 33.3227 81.4543 32.8139 83.1437 33.9289C84.741 35.1325 85.3356 37.0016 85.6958 38.395C86.0552 39.7852 85.8299 41.1908 85.2645 42.4248C84.6995 43.6578 83.7904 44.7304 82.7616 45.4641Z" fill="black"/>
</svg>
