<svg width="128" height="128" viewBox="0 0 128 128" fill="none" xmlns="http://www.w3.org/2000/svg">
 
<path d="M80.8208 71.7611V59.8173L92.4544 65.8669L80.8208 71.7611Z" fill="#FF3651"/>
<path fill-rule="evenodd" clip-rule="evenodd" d="M96.6159 55.2764H75.8425V76.2652H96.6159V55.2764ZM68.4584 47.8923V83.6493H104V47.8923H88.4183L89.4139 44.6217L80.7428 43.4225L78.7779 47.8923H68.4584Z" fill="white"/>
<path fill-rule="evenodd" clip-rule="evenodd" d="M60.2269 43.4224H27.4089V61.4723H39.7157V63.3559H25.768V68.2786H39.7157V70.1623H24.1272V75.9055H25.768V75.0407H62.0748V75.9055H63.5088V70.1623H47.9202V68.2786H61.8678V63.3559H47.9202V61.4723H60.2269V43.4224ZM44.7111 56.1788L47.9638 47.4365L56.8657 48.3781L54.5546 56.5953L53.0139 55.9534L53.9127 50.518L48.8197 50.2612L46.7654 55.9534L44.7111 56.1788ZM40.2601 56.1788V48.378L30.5608 49.6271L32.8286 56.5567L34.0886 56.1788L33.2066 51.202L38.591 50.9031V56.1788H40.2601Z" fill="white"/>
<path d="M33.5735 77.7806L27.2741 76.7445L24 81.925L30.4652 84.5774L33.5735 77.7806Z" fill="white"/>
<path d="M60.0242 75.7968L54.8341 77.7806L57.2379 83.5827L64.2004 81.3033L60.0242 75.7968Z" fill="white"/>
<path d="M36.14 83.6383V77.4843H42.3934L43.6838 83.6383H36.14Z" fill="white"/>
<path d="M45.5697 77.8813H51.8232L54.2054 83.6383H46.8601L45.5697 77.8813Z" fill="white"/>
</svg>
