<svg width="128" height="128" viewBox="0 0 128 128" fill="none" xmlns="http://www.w3.org/2000/svg">
 
<path d="M105.5 76.5C105.5 76.5 105.5 76.5 106.265 78.5C99.9532 96.2988 83.412 109 64 109C37.5 109 18 87.6813 18 62C18 48.8754 26 33 33.5 29C35.6687 46.2925 41.9763 70.8331 43.6099 77.0336C43.8401 77.9072 44.6274 78.5 45.5308 78.5H49C49.8889 78.5 50.6711 77.9134 50.92 77.06L57.5 54.5L65.1447 87.9457C65.3526 88.8551 66.1616 89.5 67.0944 89.5H71.0342C71.9068 89.5 72.6786 88.9343 72.9414 88.1023L78.5 70.5L81.5 76.5H105.5Z" fill="#00C000"/>
<path d="M109 62.5C109 64.8793 108.5 69.5 108 72C100.5 72.5 85 73 85 73L79.5 54.5H72L66 75C66 75 61 46.5 59.5 39C58.7532 35.2661 51 37 51 37L43.5 63.5C43.5 63.5 38 38 36.5 25.6903C44.1047 19.615 53.6438 16 64 16C88.8528 16 109 36.8188 109 62.5Z" fill="#FF8C1A"/>
</svg>
