<svg width="128" height="128" viewBox="0 0 128 128" fill="none" xmlns="http://www.w3.org/2000/svg">
<g clip-path="url(#clip0_348_78)">
<path d="M66.992 30.0721C63.5858 30.0721 40.3943 29.6614 36.7357 29.6615C56.6225 46.8437 43.2201 60.799 39.1221 67.0488C36.238 71.4472 12.4631 98.5757 0.266174 112.097V128.348C36.6921 128.348 64.3403 128.069 87.0333 128.069C96.4948 118.793 101.509 110.569 101.509 98.0562C101.509 76.9862 93.9241 74.4542 93.9241 65.8634C93.9241 55.7831 103.605 48.6566 106.802 47.9321C101.251 47.6951 101.748 47.5956 95.3665 47.3555C90.5097 34.5138 79.1344 30.0721 66.992 30.0721Z" fill="url(#paint1_linear_348_78)"/>
<path d="M61.3211 128.147L67.3005 120.997C77.3681 108.959 75.7704 91.0384 63.7321 80.9709C53.4258 72.3518 38.8082 72.2826 28.498 79.9952C21.8231 87.7848 13.2433 97.5607 6.20305 105.468L0.266193 112.567L0.266174 128.348C20.6238 128.348 38.2398 128.261 53.7814 128.184C56.3503 128.171 58.8626 128.159 61.3211 128.147Z" fill="white" fill-opacity="0.9"/>
</g>
<defs>
 
<linearGradient id="paint1_linear_348_78" x1="106.802" y1="10.8971" x2="2.59379" y2="128.348" gradientUnits="userSpaceOnUse">
<stop offset="0.286622" stop-color="white" stop-opacity="0.8"/>
<stop offset="1" stop-color="white" stop-opacity="0"/>
</linearGradient>
<clipPath id="clip0_348_78">
<rect width="128" height="128" fill="white"/>
</clipPath>
</defs>
</svg>
