<svg width="128" height="128" viewBox="0 0 128 128" fill="none" xmlns="http://www.w3.org/2000/svg">
 
<path d="M28.5439 93.1484C26.9326 93.1484 26.127 92.3428 26.127 90.7314V39.1689C26.127 37.5576 26.9326 36.752 28.5439 36.752H33.0557C34.667 36.752 35.4727 37.5576 35.4727 39.1689V43.4658H35.6875C38.015 40.8877 40.5394 38.972 43.2607 37.7188C45.9821 36.4655 48.596 35.8389 51.1025 35.8389C55.7217 35.8389 59.2666 37.0026 61.7373 39.3301C64.2438 41.6217 65.8551 43.9313 66.5713 46.2588H66.7861C68.7555 43.3226 71.2441 40.8519 74.252 38.8467C77.2598 36.8415 80.4645 35.8389 83.8662 35.8389C89.5596 35.8389 93.8564 37.6829 96.7568 41.3711C99.6572 45.0234 101.107 50.0365 101.107 56.4102V90.7314C101.107 92.3428 100.302 93.1484 98.6904 93.1484H94.0713C92.46 93.1484 91.6543 92.3428 91.6543 90.7314V59.5254C91.6543 52.5072 90.777 47.9775 89.0225 45.9365C87.2679 43.8597 84.5645 42.8213 80.9121 42.8213C77.3314 42.8213 74.3415 44.361 71.9424 47.4404C69.5433 50.484 68.3438 55.0853 68.3438 61.2441V90.7314C68.3438 92.3428 67.5381 93.1484 65.9268 93.1484H61.3076C59.6963 93.1484 58.8906 92.3428 58.8906 90.7314V59.5254C58.8906 52.5072 58.0133 47.9775 56.2588 45.9365C54.5042 43.8597 51.8008 42.8213 48.1484 42.8213C44.5677 42.8213 41.5778 44.2178 39.1787 47.0107C36.7796 49.7679 35.5801 54.5124 35.5801 61.2441V90.7314C35.5801 92.3428 34.7744 93.1484 33.1631 93.1484H28.5439Z" fill="url(#paint0_linear_367_143)"/>
<defs>
<linearGradient id="paint0_linear_367_143" x1="23.0727" y1="73.7057" x2="101.107" y2="74.1816" gradientUnits="userSpaceOnUse">
<stop stop-color="#DC3265"/>
<stop offset="0.499944" stop-color="#FAC602"/>
<stop offset="1" stop-color="#35BCEB"/>
</linearGradient>
</defs>
</svg>
