<svg width="128" height="128" viewBox="0 0 128 128" fill="none" xmlns="http://www.w3.org/2000/svg">
 
<path d="M82.0058 91.3904C82.0058 93.3247 80 94 76.6199 93.6246C73.2398 93.2493 71.4308 91.0951 71.6738 89.4562C71.9168 87.8172 74.7683 87.2845 77.4999 87.6895C80.2315 88.0945 82.0059 89.4562 82.0058 91.3904Z" fill="#B0531E"/>
<path d="M62.8415 91.5082C62.8415 93.4424 60.5 94 57.4556 93.7424C54.4111 93.4848 52.2665 91.2129 52.5095 89.5739C52.7525 87.935 55.604 87.4023 58.3356 87.8073C61.0672 88.2123 62.8416 89.5739 62.8415 91.5082Z" fill="#B0531E"/>
<path fill-rule="evenodd" clip-rule="evenodd" d="M81.3974 92.4313C81.5955 92.1603 81.7058 91.8197 81.7058 91.3904C81.7058 90.5266 81.3138 89.7843 80.5889 89.2001C79.8577 88.6106 78.7868 88.1836 77.4559 87.9863C76.1186 87.788 74.7656 87.8221 73.7305 88.0963C72.6739 88.3763 72.0642 88.8686 71.9705 89.5002C71.8678 90.193 72.1961 91.0491 72.9932 91.7952C73.7845 92.5359 75.019 93.145 76.653 93.3265C78.3277 93.5124 79.6152 93.4311 80.4705 93.0945C80.8932 92.9281 81.1978 92.7043 81.3974 92.4313ZM62.1977 92.5174C62.4169 92.2545 62.5415 91.9262 62.5415 91.5082C62.5415 90.6444 62.1494 89.9021 61.4246 89.3178C60.6934 88.7284 59.6225 88.3014 58.2916 88.104C56.9543 87.9057 55.6013 87.9398 54.5662 88.2141C53.5096 88.4941 52.8999 88.9864 52.8062 89.6179C52.7056 90.2964 53.101 91.1817 53.9514 91.9541C54.79 92.7157 56.0256 93.3203 57.4809 93.4435C58.9877 93.571 60.2829 93.4922 61.1882 93.1651C61.6379 93.0027 61.9745 92.785 62.1977 92.5174ZM76.6199 93.6246C80 94 82.0058 93.3247 82.0058 91.3904C82.0059 89.4562 80.2315 88.0945 77.4999 87.6895C74.7683 87.2845 71.9168 87.8172 71.6738 89.4562C71.4308 91.0951 73.2398 93.2493 76.6199 93.6246ZM57.4556 93.7424C60.5 94 62.8415 93.4424 62.8415 91.5082C62.8416 89.5739 61.0672 88.2123 58.3356 87.8073C55.604 87.4023 52.7525 87.935 52.5095 89.5739C52.2665 91.2129 54.4111 93.4848 57.4556 93.7424Z" fill="#512601"/>
<path d="M52.7295 90.0949C51.6212 87.7977 51 85.2214 51 82.5C51 72.835 58.835 64.5 68.5 64.5C78.5 64 87.5 69.5 88 76C88 77.5218 87.7562 79.1595 87.3075 80.8387C83.3774 88.2611 74.7504 92 65.5002 92C59.8174 92 55.7775 91.2922 52.7295 90.0949Z" fill="#FCF7D0"/>
<path fill-rule="evenodd" clip-rule="evenodd" d="M67.5298 57.4693L49.0307 58.0298L48.9702 56.0307L67.4693 55.4702L67.5298 57.4693ZM73.5 55.5H84.5V57.5H73.5V55.5Z" fill="black"/>
<path d="M56 61.5C56 62.3284 53.5376 63 50.5 63C47.4624 63 45 62.3284 45 61.5C45 60.6716 47.4624 60 50.5 60C53.5376 60 56 60.6716 56 61.5Z" fill="#EC1E1D"/>
<path d="M91 61C91 61.5523 89.2091 62 87 62C84.7909 62 83 61.5523 83 61C83 60.4477 84.7909 60 87 60C89.2091 60 91 60.4477 91 61Z" fill="#EC1E1D"/>
<path d="M82.9092 61C82.9092 63 79.0889 63.5 71.9092 63.5C67.5 63.5 64.5 62.5 56.9092 62.5C59 60 64.2753 58.5 70.5 58.5C75.5 58.5 82.9092 59 82.9092 61Z" fill="#C45F00"/>
<path fill-rule="evenodd" clip-rule="evenodd" d="M81.914 61.8243C82.2779 61.5704 82.4092 61.3055 82.4092 61C82.4092 60.9217 82.378 60.8173 82.2337 60.678C82.083 60.5325 81.836 60.3779 81.4779 60.2259C80.7635 59.9225 79.7304 59.6799 78.5048 59.4944C76.0633 59.1248 72.9895 59 70.5 59C67.4248 59 64.5983 59.3709 62.2943 60.0425C60.5506 60.5509 59.1385 61.222 58.1401 62.009C61.3168 62.0559 63.648 62.2798 65.6575 62.5031C65.9634 62.537 66.2611 62.5709 66.5526 62.6041C68.4189 62.8164 70.0325 63 71.9092 63C75.5005 63 78.2046 62.8739 80.0024 62.5099C80.9044 62.3274 81.5271 62.0942 81.914 61.8243ZM57.5834 62.5027C61.5165 62.5341 64.1762 62.8368 66.4935 63.1006C68.3588 63.3129 70.0022 63.5 71.9092 63.5C79.0889 63.5 82.9092 63 82.9092 61C82.9092 59 75.5 58.5 70.5 58.5C64.701 58.5 59.7259 59.8019 57.3821 62.0013C57.21 62.1627 57.0522 62.329 56.9092 62.5C57.1381 62.5 57.3628 62.5009 57.5834 62.5027Z" fill="#512601"/>
<path d="M71 51C71 52.1046 70.3284 53 69.5 53C68.6715 53 68 52.1046 68 51C68 49.8954 68.6715 49 69.5 49C70.3284 49 71 49.8954 71 51Z" fill="#512601"/>
<path d="M77.4977 53.4276C76.9729 54.0686 76.201 54.3046 75.7737 53.9547C75.3464 53.6048 75.4254 52.8015 75.9503 52.1606C76.4751 51.5196 77.247 51.2836 77.6743 51.6335C78.1016 51.9834 78.0225 52.7867 77.4977 53.4276Z" fill="#512601"/>
<path d="M63.2333 53.4982C63.9144 53.9697 64.7214 53.9839 65.0358 53.5298C65.3502 53.0757 65.0528 52.3253 64.3717 51.8538C63.6905 51.3823 62.8835 51.3681 62.5692 51.8222C62.2548 52.2763 62.5522 53.0267 63.2333 53.4982Z" fill="#512601"/>
<path fill-rule="evenodd" clip-rule="evenodd" d="M52.6466 36.6464C52.8418 36.4512 53.1584 36.4512 53.3537 36.6464C53.8036 37.0963 55.0042 37.9442 56.4336 38.7522C57.8161 39.5336 59.3319 40.2314 60.4887 40.4867C67.2983 38.7469 74.3252 39.2538 79.8423 43.6722C83.9588 46.969 87.1704 52.3926 88.8426 60.5277C90.7642 58.6997 92.3743 56.6363 93.5394 54.9642C94.1855 54.037 94.6922 53.2338 95.0369 52.6633C95.2092 52.3782 95.3408 52.1514 95.4291 51.9966C95.4732 51.9192 95.5064 51.8598 95.5284 51.8201L95.5529 51.7757L95.5588 51.7649L95.5601 51.7625C95.6631 51.5722 95.8769 51.4693 96.0897 51.5081C96.3026 51.5469 96.4663 51.7181 96.4955 51.9324C96.9997 55.6298 97.2548 61.2372 96.3668 66.0409C95.923 68.4414 95.1869 70.6805 94.0221 72.3824C92.9648 73.9271 91.5451 75.0389 89.6845 75.4041C88.8157 80.2382 86.3876 84.0686 82.981 86.8671C78.4006 90.63 72.0874 92.5 65.5002 92.5C58.9568 92.5 54.5242 91.5685 51.2577 89.9993C47.9816 88.4254 45.9237 86.2313 44.1002 83.8C43.9769 83.6355 43.7623 83.4667 43.423 83.2903C43.0866 83.1155 42.6637 82.9512 42.1581 82.7776C41.8444 82.6698 41.4979 82.5584 41.1277 82.4394C40.3327 82.1837 39.4283 81.8929 38.5039 81.5275C35.7548 80.4406 32.6354 78.6284 30.5591 74.7353L30.3354 74.3158L30.743 74.0713C31.4911 73.6224 32.2721 73.1347 33.059 72.621C31.8195 71.2338 30.5304 69.4614 29.8269 67.8031C29.4384 66.8874 29.2053 65.9535 29.3042 65.1157C29.4076 64.2409 29.8712 63.5055 30.7765 63.0528C31.4298 62.7261 32.32 62.7508 33.0692 62.9551C33.5866 63.0962 34.1285 63.3486 34.5258 63.7217C34.7622 63.4918 35.0381 63.2695 35.3306 63.0802C35.8166 62.7657 36.4138 62.5 37.0002 62.5C38.1477 62.5 39.0809 62.9433 39.6988 63.8986C40.1461 64.5901 40.4078 65.5189 40.5091 66.6716C40.6912 66.4681 40.8595 66.2682 41.0125 66.0726C41.685 65.2127 42.0001 64.5131 42.0001 64V63.9603L42.0064 63.921C43.006 57.6737 44.1424 52.6953 46.7748 48.8429C49.2064 45.2844 52.8752 42.7382 58.7299 40.9757C57.8024 40.6117 56.8283 40.124 55.9416 39.6228C54.4961 38.8058 53.1967 37.9037 52.6466 37.3536C52.4513 37.1583 52.4513 36.8417 52.6466 36.6464ZM39.5564 67.651C39.5348 66.1218 39.277 65.0875 38.8592 64.4418C38.4484 63.8067 37.8528 63.5 37.0002 63.5C36.6923 63.5 36.2894 63.6509 35.8739 63.9198C35.4669 64.1832 35.1108 64.5191 34.9002 64.8C34.7962 64.9386 34.6279 65.0135 34.4553 64.998C34.2827 64.9824 34.1304 64.8786 34.0529 64.7236C33.8969 64.4114 33.4392 64.0925 32.8061 63.9199C32.1802 63.7492 31.5703 63.7739 31.2237 63.9472C30.6291 64.2446 30.3624 64.682 30.2973 65.233C30.2279 65.8211 30.3883 66.566 30.7475 67.4126C31.411 68.9765 32.6742 70.7066 33.9014 72.0622C35.4512 71.018 36.9867 69.8903 38.302 68.7762C38.7505 68.3963 39.171 68.02 39.5564 67.651ZM89.8482 74.3403C91.2362 73.9697 92.3313 73.0823 93.1969 71.8176C94.2508 70.2778 94.9522 68.1919 95.3835 65.8591C96.1365 61.7856 96.0448 57.079 95.679 53.5301C95.3416 54.0754 94.8978 54.7638 94.3599 55.5358C93.0818 57.3701 91.2628 59.6901 89.0667 61.6848C89.5239 64.1969 89.8405 66.9547 89.9994 69.9737C90.0801 71.5057 90.0255 72.9614 89.8482 74.3403ZM79.2172 44.4528C73.9953 40.2708 67.2805 39.7587 60.6256 41.484C53.9505 43.2146 50.0736 45.7878 47.6004 49.4071C45.1128 53.0476 43.9986 57.8076 42.9997 64.0422C42.9839 64.894 42.4913 65.8049 41.8003 66.6886C41.0833 67.6054 40.0861 68.5756 38.9483 69.5393C36.7945 71.3636 34.0848 73.2082 31.6711 74.6786C33.5897 78.0024 36.3482 79.5999 38.8716 80.5975C39.7668 80.9514 40.6108 81.2226 41.3896 81.4728C41.7702 81.5951 42.1352 81.7123 42.483 81.8318C43.0009 82.0097 43.4803 82.1931 43.8842 82.403C44.285 82.6114 44.6486 82.8645 44.9002 83.2C46.6739 85.5649 48.6161 87.6208 51.6907 89.0979C54.7749 90.5796 59.0437 91.5 65.5002 91.5C71.9131 91.5 77.9844 89.6777 82.3463 86.0944C86.6923 82.524 89.3772 77.1783 89.0008 70.0263C88.2941 56.5983 84.4455 48.6399 79.2172 44.4528Z" fill="#512601"/>
<path fill-rule="evenodd" clip-rule="evenodd" d="M42 78.5C41 79.5 39.8951 80.4483 38.5073 80.573C37.3325 80.6786 36.3803 80.5869 35.5 80L35.7774 79.084C36.397 79.4971 37.3675 79.6714 38.4178 79.577C40.0364 79.4315 40.5 79 42 78.5Z" fill="#512601"/>
<path fill-rule="evenodd" clip-rule="evenodd" d="M49.8885 78.0558C49.3885 80.0558 48.4575 81.3498 46.9919 82.1173C45.7513 82.767 44.6756 83.1307 43.4823 83.0059L42.3887 82.0558C43.2286 82.1436 45.3909 81.8255 46.5 81.2447C48.2094 80.3496 48.3885 79.5558 49.8885 78.0558Z" fill="#512601"/>
</svg>
