<svg width="128" height="128" viewBox="0 0 128 128" fill="none" xmlns="http://www.w3.org/2000/svg">
 
<path d="M114 64C114 91.6142 91.6142 114 64 114C36.3858 114 14 91.6142 14 64C14 36.3858 36.3858 14 64 14C91.6142 14 114 36.3858 114 64Z" fill="white"/>
<path fill-rule="evenodd" clip-rule="evenodd" d="M79.4875 84.8859C75.1615 88.0991 69.8027 90 64 90C49.6406 90 38 78.3594 38 64C38 49.6406 49.6406 38 64 38C78.3594 38 90 49.6406 90 64C90 68.9306 88.6275 73.5406 86.2438 77.4689L92.7437 84.4331C94.6279 86.4519 94.5188 89.6158 92.5 91.5C90.4812 93.3841 87.3173 93.275 85.4331 91.2563L79.4875 84.8859ZM79 64C79 72.2843 72.2843 79 64 79C55.7157 79 49 72.2843 49 64C49 55.7157 55.7157 49 64 49C72.2843 49 79 55.7157 79 64Z" fill="#339DFB"/>
</svg>
