<svg width="128" height="128" viewBox="0 0 128 128" fill="none" xmlns="http://www.w3.org/2000/svg">
 
<path d="M32.8899 57.2314L32.8899 34.0256L40.0737 40.9675C40.0737 40.9675 50.7698 33.3128 63.0389 40.6247C51.6373 41.9879 48.489 49.0994 48.489 49.0994L56.9044 57.2314H32.8899Z" fill="white"/>
<path d="M93.0002 72.8796L93.0002 96.0854L85.8164 89.1435C85.8164 89.1435 75.1203 96.7982 62.8512 89.4863C74.2528 88.1231 77.4011 81.0116 77.4011 81.0116L68.9857 72.8796H93.0002Z" fill="white"/>
<path d="M41.5763 96.1153C39.6117 96.1153 37.8288 95.7453 36.2276 95.0052C34.6263 94.2517 33.3548 93.1685 32.4129 91.7556C31.471 90.3293 31 88.6069 31 86.5886C31 84.8124 31.3499 83.3726 32.0496 82.2692C32.7493 81.1524 33.6844 80.2778 34.8551 79.6453C36.0258 79.0129 37.3175 78.542 38.7304 78.2325C40.1567 77.9095 41.5897 77.6539 43.0295 77.4655C44.9133 77.2233 46.4406 77.0416 47.6112 76.9205C48.7953 76.786 49.6565 76.564 50.1947 76.2545C50.7464 75.945 51.0223 75.4068 51.0223 74.6398V74.4783C51.0223 72.4868 50.4773 70.9394 49.3874 69.836C48.3109 68.7327 46.6761 68.181 44.4827 68.181C42.2087 68.181 40.4258 68.6788 39.1341 69.6746C37.8423 70.6703 36.934 71.7333 36.4092 72.8636L31.8881 71.2489C32.6954 69.3651 33.7719 67.8984 35.1175 66.8488C36.4765 65.7858 37.9567 65.0458 39.5579 64.6286C41.1726 64.198 42.7604 63.9827 44.3213 63.9827C45.317 63.9827 46.4608 64.1038 47.7525 64.3461C49.0577 64.5748 50.3159 65.0525 51.5269 65.7791C52.7514 66.5057 53.7673 67.6024 54.5746 69.0691C55.382 70.5357 55.7857 72.5003 55.7857 74.9627V95.3887H51.0223V91.1904H50.7801C50.4571 91.8632 49.9189 92.5831 49.1654 93.3501C48.4119 94.1171 47.4094 94.7697 46.158 95.3079C44.9066 95.8462 43.3794 96.1153 41.5763 96.1153ZM42.3029 91.8363C44.1867 91.8363 45.7745 91.4663 47.0663 90.7262C48.3715 89.9862 49.3538 89.0308 50.0131 87.8601C50.6859 86.6895 51.0223 85.4583 51.0223 84.1665V79.8068C50.8204 80.049 50.3764 80.271 49.6902 80.4729C49.0174 80.6613 48.2369 80.8295 47.3488 80.9775C46.4742 81.112 45.6198 81.2331 44.7855 81.3408C43.9647 81.435 43.2986 81.5157 42.7873 81.583C41.5494 81.7445 40.3922 82.0068 39.3157 82.3702C38.2527 82.72 37.3915 83.2515 36.7322 83.9647C36.0863 84.6644 35.7634 85.6197 35.7634 86.8308C35.7634 88.4858 36.3756 89.7372 37.6001 90.5849C38.838 91.4192 40.4056 91.8363 42.3029 91.8363Z" fill="white"/>
<path d="M72.3029 38.9411V42.799H68.445V35.2481H80.7771C80.5792 34.8744 80.3704 34.5007 80.1506 34.127C79.9527 33.7313 79.7329 33.3796 79.4911 33.0718L83.4149 31.8848C83.8106 32.3904 84.1843 32.9509 84.536 33.5664C84.9097 34.1599 85.2065 34.7205 85.4263 35.2481H96.7692V42.799H92.7135V38.9411H72.3029ZM82.5906 62.1873C81.7992 62.4951 80.876 62.6819 79.8208 62.7479C78.7657 62.8138 77.5567 62.8468 76.1938 62.8468C76.0619 62.2533 75.8311 61.5718 75.5013 60.8025C75.1716 60.0331 74.8309 59.3846 74.4791 58.857C74.9847 58.879 75.5123 58.901 76.0619 58.923C76.6114 58.923 77.117 58.923 77.5786 58.923C78.0623 58.923 78.4909 58.923 78.8646 58.923C79.2383 58.923 79.5021 58.923 79.656 58.923C79.9857 58.923 80.2055 58.89 80.3154 58.8241C80.4473 58.7361 80.5133 58.5713 80.5133 58.3295V53.4494H68.2801V49.7234H80.5133V47.9758C81.2167 47.6241 81.8982 47.2174 82.5576 46.7558C83.2391 46.2722 83.8986 45.7776 84.536 45.272H73.9186V41.6119H88.4929L89.3831 41.4141L91.988 43.4584C91.0208 44.4696 89.9107 45.4808 88.6577 46.492C87.4047 47.4812 86.0858 48.3715 84.7009 49.1628V49.7234H97V53.4494H84.7009V58.4284C84.7009 59.4835 84.547 60.2969 84.2393 60.8684C83.9535 61.4399 83.404 61.8796 82.5906 62.1873Z" fill="white"/>
</svg>
