<svg width="128" height="128" viewBox="0 0 128 128" fill="none" xmlns="http://www.w3.org/2000/svg">

<path d="M71.6741 40.8756L80.1729 37.731C80.7122 39.7294 80.9999 41.8311 80.9999 44C80.9999 51.1683 77.8573 57.6026 72.8745 62.0003L72.9999 62C84.9393 62 94.999 70.0475 98.0507 81.0142L89.5666 84.1694C87.8293 76.6253 81.0716 71 72.9999 71C63.6111 71 55.9999 78.6112 55.9999 88C55.9999 90.862 56.7072 93.5589 57.9565 95.9253L49.4725 99.0805C47.8866 95.7191 46.9999 91.9631 46.9999 88C46.9999 79.954 50.6547 72.7617 56.3946 67.9925C47.0935 67.7623 39.1056 62.2404 35.3276 54.3237L43.8263 51.1792C46.3712 55.839 51.3164 59 56.9999 59C65.2842 59 71.9999 52.2843 71.9999 44C71.9999 42.9286 71.8876 41.8834 71.6741 40.8756Z" fill="white"/>
<path d="M67.9999 44.5C67.9999 50.299 63.2989 55 57.4999 55C51.7009 55 46.9999 50.299 46.9999 44.5C46.9999 38.701 51.7009 34 57.4999 34C63.2989 34 67.9999 38.701 67.9999 44.5Z" fill="white"/>
</svg>
