<svg width="128" height="128" viewBox="0 0 128 128" fill="none" xmlns="http://www.w3.org/2000/svg">
 
<path d="M85.7162 72.9095H89.143C89.8537 72.0211 90.4121 70.7265 90.8183 69.0259C91.2498 67.3252 91.4655 65.6372 91.4655 63.9619C91.4655 59.9768 90.7167 57.0704 89.2191 55.2428H85.7162V72.9095ZM80.5381 77.3262V50.6738H91.5798C95.1842 53.8721 96.9864 58.2126 96.9864 63.6954C96.9864 69.1528 95.2984 73.6964 91.9224 77.3262H80.5381Z" fill="black"/>
<path d="M99.9473 77.3262V50.6738H110.799C112.042 51.1307 113.147 51.9303 114.111 53.0725C115.076 54.2148 115.558 55.5982 115.558 57.2227C115.558 60.091 114.619 62.0963 112.74 63.2385V63.3908C115.076 64.6853 116.243 66.716 116.243 69.4828C116.243 72.6556 114.631 75.2701 111.408 77.3262H99.9473ZM105.125 61.6774H108.895C110.012 60.9921 110.57 59.9514 110.57 58.5553C110.57 57.1592 110.05 56.0551 109.009 55.2428H105.125V61.6774ZM105.125 72.9095H109.047C109.504 72.5795 109.91 72.0591 110.266 71.3484C110.646 70.6377 110.837 69.927 110.837 69.2162C110.837 68.5055 110.684 67.8582 110.38 67.2744C110.075 66.6906 109.694 66.2591 109.238 65.9799H105.125V72.9095Z" fill="black"/>
<path d="M72.4655 76.3899C73.2122 75.4566 73.5855 74.1849 73.5855 72.5749V56.7899H69.4205V72.5749C69.4205 74.0916 68.9772 75.2349 68.0905 76.0049C67.2272 76.7749 66.0489 77.1599 64.5555 77.1599H49.6455V56.7899H45.5855V78.9449H65.6055C67.0522 78.9449 68.3705 78.7466 69.5605 78.3499C70.7739 77.9532 71.7422 77.2999 72.4655 76.3899Z" fill="#EE0014"/>
<path d="M75.1255 51.8199C75.6155 51.5166 75.8605 51.0266 75.8605 50.3499C75.8605 49.7432 75.6622 49.2532 75.2655 48.8799C74.8689 48.4832 74.3672 48.2849 73.7605 48.2849C73.1305 48.2849 72.5939 48.5066 72.1505 48.9499C71.7305 49.3932 71.5205 49.9299 71.5205 50.5599H43.6955V52.2399H73.5155C74.1222 52.2399 74.6589 52.0999 75.1255 51.8199Z" fill="#EE0014"/>
<path fill-rule="evenodd" clip-rule="evenodd" d="M51.3605 56.7549V73.7649H61.5805C62.8172 73.7649 63.9022 73.6016 64.8355 73.2749C65.7689 72.9249 66.5039 72.3649 67.0405 71.5949C67.5772 70.8016 67.8455 69.7399 67.8455 68.4099V56.7899L51.3605 56.7549ZM57.3455 65.7499V72.0849H55.0005V65.7499H57.3455ZM57.3455 58.3649V64.2099H55.0005V58.3649H57.3455ZM61.3005 58.3649H63.9605V68.8999C63.9605 69.7399 63.7505 70.4749 63.3305 71.1049C62.9105 71.7349 62.2339 72.0616 61.3005 72.0849V65.7499H62.0705C62.4672 65.7499 62.8289 65.6799 63.1555 65.5399C63.5055 65.3766 63.6805 65.0732 63.6805 64.6299C63.6805 64.2799 63.5872 63.9766 63.4005 63.7199C63.2139 63.4632 62.9222 63.3349 62.5255 63.3349C62.2922 63.3349 62.0472 63.4166 61.7905 63.5799C61.5572 63.7432 61.4405 63.9532 61.4405 64.2099H61.3005V58.3649Z" fill="#EE0014"/>
<path d="M16.2555 68.7599C16.4422 67.8032 16.5355 67.0099 16.5355 66.3799C16.5355 66.2166 16.4772 66.0649 16.3605 65.9249C16.2672 65.7616 16.1272 65.6799 15.9405 65.6799C15.7772 65.6799 15.6489 65.7382 15.5555 65.8549C15.4622 65.9716 15.3805 66.0882 15.3105 66.2049C15.1472 66.5082 14.9722 66.8116 14.7855 67.1149C14.6222 67.3949 14.4472 67.6866 14.2605 67.9899C12.6272 70.5799 10.7489 72.9716 8.62553 75.1649C8.81219 75.3282 9.06886 75.5732 9.39553 75.8999C9.72219 76.2032 10.0722 76.5182 10.4455 76.8449C10.8422 77.1716 11.2155 77.4399 11.5655 77.6499C11.9389 77.8832 12.2422 77.9999 12.4755 77.9999C12.8255 77.9999 13.0939 77.8716 13.2805 77.6149C13.4905 77.3582 13.6655 77.1016 13.8055 76.8449C14.0855 76.2616 14.3889 75.5149 14.7155 74.6049C15.0422 73.6949 15.3339 72.7266 15.5905 71.6999C15.8705 70.6732 16.0922 69.6932 16.2555 68.7599Z" fill="#EE0014"/>
<path d="M15.4155 63.2999C15.7889 63.2999 15.9755 63.1016 15.9755 62.7049C15.9755 62.4482 15.8705 62.1332 15.6605 61.7599C15.4505 61.3632 15.2055 60.9899 14.9255 60.6399C14.6689 60.2666 14.4472 59.9866 14.2605 59.7999L13.5255 59.0649C13.1755 58.7149 12.8255 58.3882 12.4755 58.0849C12.1255 57.7582 11.8689 57.5716 11.7055 57.5249C11.6355 57.5016 11.5655 57.4899 11.4955 57.4899C11.4255 57.4666 11.3555 57.4549 11.2855 57.4549C10.9822 57.4549 10.7255 57.6066 10.5155 57.9099C10.3289 58.1899 10.1772 58.4349 10.0605 58.6449L8.41553 61.6199C9.51219 61.8066 10.6322 62.0632 11.7755 62.3899C12.9189 62.6932 14.0272 62.9849 15.1005 63.2649C15.1705 63.2882 15.2755 63.2999 15.4155 63.2999Z" fill="#EE0014"/>
<path fill-rule="evenodd" clip-rule="evenodd" d="M40.8605 79.2599C41.2572 78.9799 41.4555 78.5716 41.4555 78.0349C41.4555 77.5216 41.2689 77.1132 40.8955 76.8099C40.5222 76.5066 40.0905 76.3549 39.6005 76.3549C39.1105 76.3549 38.6905 76.5066 38.3405 76.8099C37.9905 77.0899 37.7689 77.4632 37.6755 77.9299C36.5322 77.5332 35.4122 77.0316 34.3155 76.4249C33.2189 75.8182 32.1805 75.1649 31.2005 74.4649C31.7139 74.1382 32.2855 73.7416 32.9155 73.2749C33.5455 72.8082 34.1522 72.2832 34.7355 71.6999C35.3422 71.1166 35.8555 70.5099 36.2755 69.8799C36.7189 69.2499 36.9872 68.6316 37.0805 68.0249H18.2505V69.4949H24.2705L21.3655 70.8249C22.0189 71.4782 22.7072 72.1199 23.4305 72.7499C24.1539 73.3566 24.9005 73.9166 25.6705 74.4299C24.3405 75.1999 22.9639 75.8999 21.5405 76.5299C20.1172 77.1366 18.6589 77.6499 17.1655 78.0699C17.0022 78.1166 16.6872 78.1866 16.2205 78.2799C15.7772 78.3966 15.3455 78.5016 14.9255 78.5949C14.5055 78.6882 14.2605 78.7466 14.1905 78.7699L14.0505 78.9099C13.9805 78.9799 13.9455 79.0382 13.9455 79.0849C13.9455 79.3416 14.1322 79.4699 14.5055 79.4699H15.3105C16.7105 79.4699 18.2155 79.3532 19.8255 79.1199C21.4589 78.9099 22.9405 78.5832 24.2705 78.1399C24.9939 77.8832 25.6939 77.5916 26.3705 77.2649C27.0705 76.9616 27.7472 76.6349 28.4005 76.2849C30.0572 77.2649 31.8305 78.0816 33.7205 78.7349C35.6105 79.3882 37.5355 79.7149 39.4955 79.7149C40.0089 79.7149 40.4639 79.5632 40.8605 79.2599ZM26.8605 71.0349L25.5305 69.4949H31.2355C30.8155 70.0316 30.3605 70.5566 29.8705 71.0699C29.3805 71.5599 28.8672 72.0149 28.3305 72.4349C27.8172 71.9916 27.3272 71.5249 26.8605 71.0349Z" fill="#EE0014"/>
<path d="M16.9905 55.0749C17.3872 55.0749 17.5855 54.8649 17.5855 54.4449C17.5855 54.1882 17.4339 53.8266 17.1305 53.3599C16.8272 52.8699 16.4539 52.3682 16.0105 51.8549C15.5672 51.3182 15.1239 50.8399 14.6805 50.4199C14.2605 49.9999 13.9339 49.7316 13.7005 49.6149C13.5372 49.5216 13.3389 49.4749 13.1055 49.4749C12.8489 49.4749 12.6155 49.5799 12.4055 49.7899C12.3122 49.8832 12.1722 50.0932 11.9855 50.4199C11.7989 50.7232 11.5889 51.0849 11.3555 51.5049C11.1222 51.9016 10.9122 52.2749 10.7255 52.6249C10.5389 52.9749 10.3989 53.2316 10.3055 53.3949L12.0555 53.7449C12.6389 53.8616 13.2105 54.0016 13.7705 54.1649C13.8872 54.1882 14.0972 54.2582 14.4005 54.3749C14.7272 54.4682 15.0772 54.5732 15.4505 54.6899C15.8472 54.7832 16.1855 54.8766 16.4655 54.9699C16.7689 55.0399 16.9439 55.0749 16.9905 55.0749Z" fill="#EE0014"/>
<path fill-rule="evenodd" clip-rule="evenodd" d="M38.0955 65.4349C38.6089 64.9916 38.8655 64.3032 38.8655 63.3699V59.6949H17.7255V66.3799H34.0005C34.7472 66.3799 35.4939 66.3332 36.2405 66.2399C36.9872 66.1232 37.6055 65.8549 38.0955 65.4349ZM23.7805 61.0249V64.9449H21.5055V61.0249H23.7805ZM29.3105 61.0249V64.9449H27.0355V61.0249H29.3105ZM32.5305 61.0249H34.9105V63.1599C34.9105 63.6032 34.8055 64.0116 34.5955 64.3849C34.3855 64.7582 34.0239 64.9449 33.5105 64.9449H32.5305V61.0249Z" fill="#EE0014"/>
<path fill-rule="evenodd" clip-rule="evenodd" d="M35.5755 56.9649C36.0422 56.4049 36.2755 55.5649 36.2755 54.4449V49.4749H20.2455V58.2949H31.1655C32.1222 58.2949 32.9855 58.2132 33.7555 58.0499C34.5255 57.8632 35.1322 57.5016 35.5755 56.9649ZM23.8855 50.9449H32.2855V54.7949C32.2855 55.2382 32.2039 55.6932 32.0405 56.1599C31.8772 56.6266 31.5155 56.8599 30.9555 56.8599H23.8855V54.7949H29.6605C30.0105 54.7949 30.3255 54.6782 30.6055 54.4449C30.9089 54.2116 31.0605 53.9082 31.0605 53.5349C31.0605 53.1382 30.9089 52.8116 30.6055 52.5549C30.3255 52.2749 29.9872 52.1349 29.5905 52.1349C29.2172 52.1349 28.8905 52.2516 28.6105 52.4849C28.3305 52.7182 28.1672 53.0332 28.1205 53.4299H23.8855V50.9449Z" fill="#EE0014"/>
</svg>
