<svg width="128" height="128" viewBox="0 0 128 128" fill="none" xmlns="http://www.w3.org/2000/svg">
 
<path fill-rule="evenodd" clip-rule="evenodd" d="M42.69 73.2136L50.3528 67.2345C51.06 66.6827 52.0525 66.6851 52.7571 67.2401L59.061 72.2064C60.0541 72.9888 60.0506 74.4952 59.0538 75.273L42.9582 87.8319C38.0967 91.6251 31 88.1611 31 81.9948V46.0048C31 39.8385 38.0967 36.3745 42.9582 40.1678L85.31 73.2136V54.7861L77.8645 60.5956C77.1573 61.1474 76.1648 61.145 75.4602 60.59L69.1563 55.6237C68.1632 54.8413 68.1667 53.3349 69.1635 52.5571L85.0418 40.1678C89.9033 36.3745 97 39.8385 97 46.0048V81.9948C97 88.1611 89.9033 91.6251 85.0418 87.8319L42.69 54.7861V73.2136Z" fill="white"/>
</svg>
