<svg width="128" height="128" viewBox="0 0 128 128" fill="none" xmlns="http://www.w3.org/2000/svg">
 
<path d="M76 108.5C73.5 108.5 73 104.5 73 100.5C76.6667 99.8333 81 99.5 83.5 99.5C84.5 99.5 79.5 108.5 76 108.5Z" fill="#E85642"/>
<path d="M41.5 65.5C41 66 27.5 79 17.5 85C7.5 91 13 79.5 13 66C13 52.5 7.5 43 16.5 47.5C24.3102 51.4052 41.5 65.5 41.5 65.5Z" fill="#E85642"/>
<path d="M94 35C94 42.1797 83.7026 48 71 48C58.2975 48 48 42.1797 48 35C52 27 60 21.5 71 21.5C82 21.5 90.5 27 94 35Z" fill="#E85642"/>
<path d="M119 66C119 85.33 97.7335 101 71.5 101C45.2665 101 24 85.33 24 66C24 46.67 45.2665 31 71.5 31C97.7335 31 119 46.67 119 66Z" fill="#FF674B"/>
<path d="M47 49C47 47.8954 47.8954 47 49 47H68C69.1046 47 70 47.8954 70 49C70 50.1046 69.1046 51 68 51H49C47.8954 51 47 50.1046 47 49Z" fill="white"/>
<path d="M47 83C47 81.8954 47.8954 81 49 81H68C69.1046 81 70 81.8954 70 83C70 84.1046 69.1046 85 68 85H49C47.8954 85 47 84.1046 47 83Z" fill="white"/>
<path d="M36 66C36 64.8954 36.8954 64 38 64H61C62.1046 64 63 64.8954 63 66C63 67.1046 62.1046 68 61 68H38C36.8954 68 36 67.1046 36 66Z" fill="white"/>
<path d="M90.3988 33.8798C107.229 39.2637 119 51.6189 119 66C119 79.9448 107.932 91.9848 91.9164 97.6111C81.8235 90.487 75 77.3858 75 65C75 53.2456 81.1455 41.0548 90.3988 33.8798Z" fill="#F2AF55"/>
<path d="M100 56.5C100 58.9853 97.9853 61 95.5 61C93.0147 61 91 58.9853 91 56.5C91 54.0147 93.0147 52 95.5 52C97.9853 52 100 54.0147 100 56.5Z" fill="#D37B2D"/>
</svg>
