<svg width="128" height="128" viewBox="0 0 128 128" fill="none" xmlns="http://www.w3.org/2000/svg">
 
<path d="M61.4248 26.991L12.9042 52.9471C11.7028 53.5898 11.6975 55.3314 12.895 55.9816L60.5991 81.8856C62.5938 82.9688 64.9903 82.973 66.9887 81.8966L115.1 55.9844C116.304 55.3358 116.299 53.5855 115.091 52.9444L66.1614 26.9829C64.6775 26.1956 62.9061 26.1986 61.4248 26.991Z" fill="white"/>
<path d="M21.2445 67.3899L60.5991 88.76C62.5938 89.8432 64.9903 89.8473 66.9887 88.771L106.687 67.3899L115.091 71.8488C116.299 72.4899 116.304 74.2402 115.1 74.8888L66.9887 100.801C64.9903 101.877 62.5938 101.873 60.5991 100.79L12.895 74.886C11.6975 74.2357 11.7028 72.4942 12.9042 71.8515L21.2445 67.3899Z" fill="#6A8FB6"/>
</svg>
