<svg width="128" height="128" viewBox="0 0 128 128" fill="none" xmlns="http://www.w3.org/2000/svg">

<path d="M95.9992 64.1909C95.9497 62.8385 95.5101 61.5293 94.7334 60.4211C93.9567 59.3129 92.876 58.453 91.6216 57.9452C90.3672 57.4373 88.9926 57.3031 87.6637 57.5588C86.3348 57.8146 85.1082 58.4492 84.1319 59.3863C78.6663 55.671 72.2415 53.6184 65.6343 53.4767L68.7572 38.4864L79.039 40.6485C79.1613 41.7847 79.6845 42.8401 80.5147 43.6253C81.345 44.4105 82.4279 44.8741 83.5692 44.9328C84.7104 44.9915 85.8352 44.6415 86.7417 43.9457C87.6481 43.2498 88.2769 42.2537 88.5151 41.136C88.7533 40.0184 88.5853 38.8524 88.0413 37.8474C87.4973 36.8425 86.6129 36.0643 85.5469 35.6526C84.4809 35.2409 83.303 35.2227 82.2248 35.6012C81.1465 35.9796 80.2385 36.7301 79.6636 37.7177L67.8924 35.3635C67.6999 35.3212 67.5009 35.3176 67.307 35.3529C67.1131 35.3881 66.9281 35.4615 66.7627 35.5687C66.5974 35.676 66.455 35.815 66.3437 35.9777C66.2325 36.1404 66.1547 36.3235 66.1147 36.5165L62.5593 53.1884C55.8708 53.2892 49.3577 55.3434 43.8215 59.098C43.0809 58.4011 42.1975 57.8736 41.2327 57.5521C40.2679 57.2305 39.2447 57.1226 38.2341 57.2357C37.2234 57.3489 36.2494 57.6805 35.3797 58.2075C34.5099 58.7345 33.7651 59.4443 33.1969 60.2877C32.6287 61.1312 32.2507 62.0881 32.0891 63.0922C31.9275 64.0962 31.9862 65.1234 32.261 66.1026C32.5359 67.0817 33.0203 67.9894 33.6808 68.7627C34.3413 69.5359 35.1621 70.1564 36.0862 70.581C36.0321 71.2846 36.0321 71.9913 36.0862 72.695C36.0862 83.4572 48.6261 92.2015 64.0968 92.2015C79.5675 92.2015 92.1075 83.4572 92.1075 72.695C92.1615 71.9913 92.1615 71.2846 92.1075 70.581C93.2931 69.9917 94.2877 69.0789 94.9764 67.9481C95.665 66.8173 96.0196 65.5147 95.9992 64.1909V64.1909ZM47.9535 68.9954C47.9535 68.0452 48.2352 67.1163 48.7632 66.3262C49.2911 65.5361 50.0415 64.9202 50.9194 64.5566C51.7973 64.193 52.7634 64.0978 53.6954 64.2832C54.6273 64.4686 55.4834 64.9262 56.1554 65.5981C56.8273 66.27 57.2849 67.1261 57.4703 68.0581C57.6557 68.9901 57.5605 69.9562 57.1969 70.8341C56.8332 71.712 56.2174 72.4624 55.4273 72.9903C54.6372 73.5182 53.7083 73.8 52.758 73.8C52.1271 73.8 51.5023 73.6757 50.9194 73.4343C50.3365 73.1928 49.8068 72.8389 49.3607 72.3928C48.9145 71.9466 48.5606 71.417 48.3192 70.8341C48.0777 70.2512 47.9535 69.6264 47.9535 68.9954V68.9954ZM75.868 82.208C72.4593 84.7768 68.2653 86.0842 64.0007 85.9075C59.7361 86.0842 55.5422 84.7768 52.1334 82.208C51.9291 81.9591 51.8247 81.6431 51.8405 81.3214C51.8563 80.9997 51.9912 80.6955 52.2189 80.4678C52.4466 80.24 52.7509 80.1052 53.0726 80.0894C53.3942 80.0736 53.7102 80.178 53.9592 80.3823C56.8478 82.5011 60.3738 83.5691 63.9527 83.4092C67.5359 83.604 71.0784 82.5701 73.9942 80.4784C74.2491 80.2299 74.5922 80.0928 74.9481 80.0973C75.1243 80.0996 75.2984 80.1365 75.4604 80.206C75.6223 80.2755 75.769 80.3762 75.892 80.5024C76.0151 80.6286 76.112 80.7778 76.1774 80.9414C76.2428 81.1051 76.2753 81.28 76.2731 81.4563C76.2708 81.6325 76.2339 81.8066 76.1644 81.9685C76.0949 82.1305 75.9942 82.2772 75.868 82.4002V82.208ZM75.0032 73.9922C74.0529 73.9922 73.124 73.7104 72.3339 73.1825C71.5438 72.6545 70.928 71.9042 70.5643 71.0263C70.2007 70.1483 70.1055 69.1823 70.2909 68.2503C70.4763 67.3183 70.9339 66.4622 71.6058 65.7903C72.2778 65.1184 73.1339 64.6608 74.0659 64.4754C74.9979 64.29 75.9639 64.3851 76.8418 64.7488C77.7197 65.1124 78.4701 65.7282 78.998 66.5183C79.526 67.3085 79.8078 68.2374 79.8078 69.1876C79.8339 69.8386 79.7273 70.4881 79.4945 71.0966C79.2617 71.7052 78.9076 72.26 78.4537 72.7274C77.9998 73.1947 77.4556 73.5649 76.8542 73.8154C76.2527 74.0659 75.6066 74.1914 74.9551 74.1844L75.0032 73.9922Z" fill="white"/>
</svg>
