<svg width="128" height="128" viewBox="0 0 128 128" fill="none" xmlns="http://www.w3.org/2000/svg">
 
<path d="M16.702 95.3891C14.2565 94.5303 12.6085 93.9514 12.1913 93.8099C7.88003 92.3471 5.25828 90.2247 7.23951 83.2969C8.90539 77.4718 11.3519 72.3596 13.342 68.201C14.2069 66.3938 14.9855 64.7667 15.5765 63.3396C15.6114 63.2552 15.6678 63.1626 15.7312 63.0586C16.0279 62.5715 16.4762 61.8353 15.5765 60.5392C14.6333 59.1806 12.4256 56.3731 11.9996 55.8533C10.0035 53.4174 9.81674 49.698 11.432 48.1058C15.2133 44.3785 24.2705 39.6092 30.2399 36.5328C30.3243 36.4893 30.4218 36.4478 30.5259 36.4034C31.2818 36.0812 32.3904 35.6086 31.4287 33.1459C29.5536 28.3437 30.9726 23.351 36.4109 23.351C38.5819 23.351 42.7307 23.3517 47.1623 23.3526C52.2425 23.3535 57.6944 23.3545 60.9648 23.3545C61.0661 23.0407 61.1619 22.7015 61.2611 22.3503C61.8938 20.1109 62.6643 17.3836 65.8528 17.6353C70.8665 18.0311 88.8091 25.5676 92.8211 27.2528C93.2766 27.4441 93.5525 27.56 93.6096 27.5815C94.4321 27.8909 95.4986 28.1398 95.7869 27.1501C96.2952 25.4048 99.837 23.9744 102.715 26.7611C104.245 28.2428 108.204 33.0896 112.097 37.8562C116.054 42.7016 119.944 47.4641 121.146 48.5247C114.22 45.5442 109.819 41.4578 106.313 38.2021C105.353 37.3108 104.46 36.4818 103.601 35.7547C103.464 35.6389 103.311 35.5004 103.142 35.3487C101.79 34.128 99.4881 32.0512 97.2754 34.0627C96.6701 34.613 94.7473 36.6198 92.0389 39.4464C83.6164 48.2365 67.5973 64.9549 59.9829 70.4521C73.665 55.83 89.6018 34.4461 91.4748 31.7983C91.9514 31.1245 92.513 30.1973 91.1824 29.9227C89.7895 29.6352 75.2667 25.732 73.6068 25.2674C73.5437 25.2497 73.4722 25.229 73.3931 25.2061C71.9427 24.7856 67.9312 23.6226 66.6427 27.1462C66.2503 28.2192 65.2911 31.4779 63.9715 35.9607C60.5522 47.5763 54.7136 67.4105 50.0493 78.7343C55.1038 57.6417 59.1482 36.5972 60.1209 28.9692C56.2213 28.9692 51.2303 29.0282 47.5587 29.0717C45.4224 29.0969 43.7329 29.1169 42.9648 29.1169C41.2531 29.1169 37.6992 29.43 38.2526 33.6023C38.395 34.6757 39.2244 38.1452 40.3542 42.8704C43.3512 55.406 48.4612 76.7795 48.4612 85.7027C45.5505 72.7936 35.228 42.6152 34.0373 41.5733C30.2399 42.1957 23.4642 45.8178 19.632 48.9143C18.8885 49.515 16.4639 51.6358 18.4572 54.3651C20.9318 57.7535 24.2694 61.8383 27.9033 66.2857C35.5144 75.6005 44.4252 86.506 49.4285 95.9353C45.4911 91.9532 39.5941 85.8122 34.1775 80.1716C28.1211 73.8646 22.6653 68.1832 21.2211 66.8444C19.1986 68.5349 14.9246 79.2915 14.3642 81.1559C14.2992 81.372 14.1802 81.6306 14.0444 81.926C13.2232 83.7111 11.785 86.8378 17.9242 90.0336C19.6038 90.9079 23.6048 92.6674 28.5054 94.8225C39.4553 99.6378 54.8963 106.428 58.9665 109.732C56.7536 109.455 28.0867 99.3874 16.702 95.3891Z" fill="white"/>
<path d="M95.4669 56.3485L113.885 86.4371C113.885 86.4371 116.367 90.3849 116.367 92.857C116.367 98.128 112.094 102.401 106.823 102.401C103.3 102.401 100.197 100.753 98.5432 97.9139C97.3303 105.119 101.941 108.754 103.697 110.138C103.759 110.187 103.818 110.234 103.874 110.278H87.0519C88.4718 109.263 94.1763 103.929 92.6002 97.9139C90.9133 100.609 87.9182 102.401 84.5045 102.401C79.2335 102.401 74.9605 98.128 74.9605 92.857C74.9605 91.0257 75.4763 89.3148 76.3706 87.8617L95.4669 56.3485Z" fill="white"/>
 
</svg>
