<svg width="128" height="128" viewBox="0 0 128 128" fill="none" xmlns="http://www.w3.org/2000/svg">
 
<path fill-rule="evenodd" clip-rule="evenodd" d="M45.5923 45.4983C40.1 45.4827 36.5 45.4725 36.5 51C36.5 56.5 38.5 65.1667 39.5 69.5C40 71.5 41.5 75 46 76C48.7333 76.6074 52.9768 77.4346 57.5 78C61.8923 78.549 63 77.5 63.5 73C63.765 70.6147 64 68 64 67H65V69.5C65 73 66.5 75.1 70.5 75.5C72.8406 75.734 73.8717 75.815 74.5897 75.8714L74.5899 75.8714L74.5901 75.8714H74.5902L74.5903 75.8714C75.0991 75.9114 75.4508 75.939 76 76C78.709 76.301 80.5 78 80.5 81L80.5 87C80.5 88.5 80.5 90.5 77.5 90.5H72C69 90.5 69 85 71.5 85H74V82H74.149L74.149 80.5H69.5C68 80.5 64 81.5 64 86.5V92.5C64 93 65 97 70.5 97H80C89.5 97 91 80 91.5 71C92.3391 55.8951 91.1092 48.6098 90.5658 45.3915L90.5655 45.3897C90.5424 45.2525 90.5204 45.1227 90.5 45C90.4186 44.5118 90.3549 44.0364 90.2932 43.5761C89.7862 39.793 89.4152 37.0244 80.5 36.5C80.0552 36.4738 79.6105 36.4473 79.1664 36.4208L79.1653 36.4208C75.6159 36.2091 72.1105 36 69 36C69 30.8588 63.3205 30.9603 61.3543 30.9954C61.217 30.9979 61.0979 31 61 31L56.5448 31L56 31C53.5 31 51 32.5 51 36.5V43C51 44.5 51 45.5 46.5 45.5C46.1924 45.5 45.8901 45.4991 45.5933 45.4983H45.5928H45.5923ZM46.6844 43.4661C43.5511 43.3849 39.0853 43.2692 38 44.5C41 41 45.9999 36 49 33C48.0811 33.9195 48.297 38.636 48.4321 41.5878C48.4691 42.3951 48.5 43.0705 48.5 43.5C47.9916 43.5 47.3701 43.4839 46.6849 43.4661L46.6845 43.4661L46.6844 43.4661ZM81.7622 63.151C81.8331 63.2291 81.9971 63.1807 81.9941 63.0752C81.9039 59.8783 80.7676 58.5 78.5 58.5C76.5 58.5 75 59.5 75 62.5C79.378 62.0622 81.0727 62.3911 81.7622 63.151Z" fill="white"/>
</svg>
