<svg width="128" height="128" viewBox="0 0 128 128" fill="none" xmlns="http://www.w3.org/2000/svg">
 
<path fill-rule="evenodd" clip-rule="evenodd" d="M98.641 44.0001L64 24.0001L29.359 44.0001V84.0001L64 104L80.3171 94.5795L72.9103 83.0215C70.2054 84.2907 67.1855 85 64 85C52.402 85 43 75.598 43 64C43 52.402 52.402 43 64 43C75.598 43 85 52.402 85 64C85 70.6195 81.9372 76.5237 77.1515 80.3728L84.6519 92.0768L98.641 84.0001V44.0001ZM64 80C72.8366 80 80 72.8366 80 64C80 55.1634 72.8366 48 64 48C55.1634 48 48 55.1634 48 64C48 72.8366 55.1634 80 64 80Z" fill="#23CF5F"/>
</svg>
