<svg width="128" height="128" viewBox="0 0 128 128" fill="none" xmlns="http://www.w3.org/2000/svg">
 
<path fill-rule="evenodd" clip-rule="evenodd" d="M45 88.5L31 80L50 64C50 64 52.5 79.5 63 80C67.5 80 63 71 63 71L87 59L85.5 69.5C85.5 69.5 100.5 79.5 109.618 84.5C112.433 78.2443 114 71.3051 114 64C114 36.3858 91.6142 14 64 14C36.3858 14 14 36.3858 14 64C14 82.7127 24.2797 99.0245 39.5 107.596C43 97.5 45 88.5 45 88.5ZM64 119C94.3757 119 119 94.3757 119 64C119 33.6243 94.3757 9 64 9C33.6243 9 9 33.6243 9 64C9 94.3757 33.6243 119 64 119Z" fill="black"/>
<path d="M95.6488 44.4826C95.7791 49.2201 80.7456 53.477 62.0705 53.9907C43.3955 54.5044 28.1507 51.0804 28.0204 46.3429C27.9443 43.5776 32.0347 40.7889 40 39C42 24.5 36 18.5 63 18.5C90 18.5 80 25.5 84.5 38.5C92.1507 39.8637 95.575 41.7989 95.6488 44.4826Z" fill="black"/>
<path d="M85.9406 38.7736C85.5766 38.937 85.1821 39.1078 84.7634 39.2828C83.1379 39.9621 81.0011 40.765 78.5326 41.5344C73.6159 43.0669 67.2773 44.5 61 44.5C55.5121 44.5 50.0632 43.4576 45.6052 42.1008C42.9088 41.2802 40.4753 40.314 38.5793 39.3399C39.0383 39.223 39.5119 39.1096 40 39C40.1566 37.8647 40.2641 36.7815 40.3423 35.7492C41.9033 36.5561 44.1034 37.4626 46.7698 38.2741C50.9368 39.5423 55.9879 40.5 61 40.5C66.7227 40.5 72.6341 39.1831 77.3424 37.7156C79.6864 36.985 81.7058 36.2253 83.221 35.5921C83.3716 35.5292 83.5159 35.4681 83.6541 35.4088C83.8568 36.3981 84.1292 37.4287 84.5 38.5C84.998 38.5888 85.4781 38.68 85.9406 38.7736Z" fill="#BD5343"/>
</svg>
