<svg width="128" height="128" viewBox="0 0 128 128" fill="none" xmlns="http://www.w3.org/2000/svg">
 
<path fill-rule="evenodd" clip-rule="evenodd" d="M44.5 53C50.299 53 55 48.299 55 42.5C55 36.701 50.299 32 44.5 32C38.701 32 34 36.701 34 42.5C34 48.299 38.701 53 44.5 53ZM44.5 61C54.7173 61 63 52.7173 63 42.5C63 32.2827 54.7173 24 44.5 24C34.2827 24 26 32.2827 26 42.5C26 52.7173 34.2827 61 44.5 61Z" fill="white"/>
<path d="M45.5 88.9779C45.5 88.9779 45.5 89 54 88.9779C52.3193 92.5373 48.6973 95 44.5 95C38.701 95 34 90.299 34 84.5C34 78.701 38.701 74 44.5 74C47.7451 74 50.6464 75.4721 52.5725 77.785L59.2507 73.3329C55.8726 68.8776 50.5223 66 44.5 66C34.2827 66 26 74.2827 26 84.5C26 94.7173 34.2827 103 44.5 103C54.7173 103 63 94.7173 63 84.5C63 83.6521 62.943 82.8176 62.8325 82H45.5C45.5 84.5 45.5 88.9779 45.5 88.9779Z" fill="white"/>
<path d="M84.5 88.9779C84.5 88.9779 84.5 89 93 88.9779C91.3193 92.5373 87.6973 95 83.5 95C77.701 95 73 90.299 73 84.5C73 78.701 77.701 74 83.5 74C86.7451 74 89.6464 75.4721 91.5725 77.785L98.2507 73.3329C94.8726 68.8776 89.5223 66 83.5 66C73.2827 66 65 74.2827 65 84.5C65 94.7173 73.2827 103 83.5 103C93.7173 103 102 94.7173 102 84.5C102 83.6521 101.943 82.8176 101.833 82H84.5C84.5 84.5 84.5 88.9779 84.5 88.9779Z" fill="white"/>
<path fill-rule="evenodd" clip-rule="evenodd" d="M85 24H67V61H75V52H85C92.732 52 99 45.732 99 38C99 30.268 92.732 24 85 24ZM84 32H75V44H84C87.3137 44 90 41.3137 90 38C90 34.6863 87.3137 32 84 32Z" fill="white"/>
<path d="M103 57C103 59.2091 101.209 61 99 61C96.7909 61 95 59.2091 95 57C95 54.7909 96.7909 53 99 53C101.209 53 103 54.7909 103 57Z" fill="white"/>
</svg>
