<svg width="128" height="128" viewBox="0 0 128 128" fill="none" xmlns="http://www.w3.org/2000/svg">
 
<path d="M51.8515 39.7136C51.8515 43.9216 48.4403 47.3328 44.2323 47.3328C40.0243 47.3328 36.613 43.9216 36.613 39.7136C36.613 35.5056 40.0243 32.0944 44.2323 32.0944C48.4403 32.0944 51.8515 35.5056 51.8515 39.7136Z" fill="white"/>
<path d="M68.4121 40.6406L68.5919 68.0811C60.9679 73.1903 56.2167 80.2895 53.4857 87.6821C60.2661 82.3142 71.0959 75.5338 85.6891 74.5821V32.4923C82.4667 32.9338 71.535 37.7248 68.4121 40.6406Z" fill="white"/>
<path d="M52.4428 50.026C52.4428 50.026 52.4428 80.5636 52.3254 87.8813C56.3427 72.9597 66.905 66.4605 66.905 66.4605C66.905 62.5419 66.9352 53.1219 66.9607 45.1809L66.9607 45.178V45.1771L66.9607 45.1756L66.9607 45.1702C66.9793 39.3882 66.9953 34.3922 66.9953 32.8785C61.8127 36.3983 55.6877 43.7704 52.4428 50.026Z" fill="white"/>
<path d="M94 47.0793H87.047C87.047 52.8288 87.0417 60.2661 87.0373 66.299V66.3199C87.0344 70.4271 87.0319 73.8811 87.0319 75.7045C80.1865 76.2885 66.6703 79.0556 55.9921 86.7893C76.5379 81.0911 88.1514 85.522 93.1366 87.424L93.138 87.4245C93.4513 87.544 93.7385 87.6536 94 87.75L94 47.0793Z" fill="white"/>
<path d="M35.6093 58.0576V54.8316C40.1644 54.3307 45.314 52.1689 47.5588 49.2702H50.326L51.4525 50.3188C51.4525 50.3188 51.4005 84.4335 51.4005 86.1807C51.4005 97.6306 38.098 103.692 36.4759 103.906C35.5367 103.137 34 101.472 34 101.472C34 101.472 42.169 99.0431 42.2387 86.6172C42.3083 74.1914 42.3083 61.0766 42.3083 60.7451C42.3083 58.6434 40.5017 58.0576 35.6093 58.0576Z" fill="white"/>
</svg>
