<svg width="128" height="128" viewBox="0 0 128 128" fill="none" xmlns="http://www.w3.org/2000/svg">
 
<path fill-rule="evenodd" clip-rule="evenodd" d="M66.2752 71.551C66.2752 74.718 66.2752 78.1904 62.6465 78.8309C62.0916 78.9289 61.7201 78.299 61.9294 77.7758C62.6445 75.988 62.9511 73.6997 61.922 74.0038C60.8337 74.3253 59.6465 74.4861 58.3604 74.4861C56.6894 74.4861 55.1395 74.2112 53.7104 73.6616C52.2813 73.112 51.0392 72.3095 49.9839 71.2542C48.9505 70.1989 48.1371 68.8907 47.5435 67.3298C46.9498 65.7688 46.653 63.966 46.653 61.9213C46.653 59.8986 46.9608 58.1068 47.5764 56.5458C48.192 54.9629 49.0275 53.6218 50.0828 52.5225C51.1381 51.4232 52.3693 50.5878 53.7764 50.0161C55.2054 49.4445 56.7334 49.1587 58.3604 49.1587C60.1192 49.1587 61.6142 49.4775 62.8454 50.1151C64.0986 50.7526 65.1209 51.4782 65.9124 52.2916L63.3071 55.3916C62.7135 54.82 62.0429 54.3363 61.2954 53.9406C60.5699 53.5448 59.6465 53.3469 58.5252 53.3469C57.5139 53.3469 56.5795 53.5448 55.7221 53.9406C54.8866 54.3143 54.1611 54.8639 53.5455 55.5895C52.9519 56.315 52.4792 57.1944 52.1274 58.2277C51.7977 59.2611 51.6328 60.4373 51.6328 61.7564C51.6328 64.4167 52.2374 66.5053 53.4466 68.0223C54.6558 69.5173 56.4586 70.2648 58.855 70.2648C59.4486 70.2648 60.0203 70.1879 60.5699 70.034C61.1195 69.8801 61.5702 69.6492 61.922 69.3414V64.5266H57.6018V60.5362H66.2752V71.551ZM30.6616 67.7585L28.9468 74.0244H24L31.8159 49.6204H37.5541L45.403 74.0244H40.2913L38.5764 67.7585H30.6616ZM31.7169 63.966H37.5211L36.7956 61.2947C36.4218 60.0196 36.0591 58.7004 35.7073 57.3373C35.3775 55.9742 35.0258 54.6331 34.652 53.314H34.5201C34.2123 54.6551 33.8825 56.0072 33.5307 57.3703C33.179 58.7114 32.8162 60.0196 32.4425 61.2947L31.7169 63.966ZM86.8469 74.0244V69.9351H76.3928V63.4053H84.9672V59.316H76.3928V53.6767H86.4842V49.6204H71.512V74.0244H86.8469ZM90.1814 51.1813V49.5956H95.78V51.1813H90.1814ZM91.2979 54.2395H89.7445V52.6538H96.2169V54.2395H93.3043L92.2688 58.8835H94.0972L93.6603 56.5858H95.5535L96.3626 60.8252H94.4694L94.4047 60.453H91.9128H90.7477H89.9063L91.2979 54.2395ZM104 59.3042C104 59.5199 103.957 59.7195 103.871 59.9029C103.795 60.0863 103.687 60.2481 103.547 60.3883C103.407 60.5178 103.239 60.6256 103.045 60.7119C102.862 60.7874 102.668 60.8252 102.463 60.8252H101.994H100.359L100.909 59.4175H101.476C101.627 59.4175 101.751 59.3689 101.848 59.2718C101.945 59.1747 101.994 59.0507 101.994 58.8997V51.8771H100.311L98.6926 60.8252H96.6862L98.3043 51.8771H96.3626V50.2914H98.5955L98.7897 49.1587H100.796L100.602 50.2914H101.994H104V51.8771V59.3042ZM103.984 68.3879C103.984 68.636 103.935 68.8679 103.838 69.0837C103.752 69.2994 103.628 69.4882 103.466 69.65C103.304 69.8118 103.116 69.9413 102.9 70.0384C102.684 70.1246 102.452 70.1678 102.204 70.1678H94.1458V69.0351V68.0804V66.9478H96.1684H101.961H103.984V68.0804V68.3879ZM98.7736 68.0804V69.0351H99.3561V68.0804H98.7736ZM96.1684 69.0351H96.751V68.0804H96.1684V69.0351ZM101.46 69.0351C101.6 69.0351 101.719 68.9866 101.816 68.8895C101.913 68.7924 101.961 68.6738 101.961 68.5335V68.0804H101.379V69.0351H101.46ZM94.5342 63.2747V62.5627H103.596V63.2423V63.6307V64.6986C103.596 64.9467 103.547 65.1787 103.45 65.3944C103.364 65.5994 103.24 65.7827 103.078 65.9446C102.916 66.1064 102.727 66.2358 102.511 66.3329C102.296 66.4192 102.064 66.4623 101.816 66.4623H94.5342V65.9769V65.4106V63.6307V63.2747ZM100.893 65.4106C101.023 65.4106 101.136 65.3674 101.233 65.2811C101.33 65.184 101.384 65.0708 101.395 64.9413H96.7348V65.4106H100.893ZM101.395 63.6307H96.7348V64.0837H101.395V63.6307ZM89.777 74.2131L91.2656 69.6176H93.7089L92.2041 74.2131H89.777ZM89.777 65.2488H90.8773L89.777 62.5789H92.2041L93.7089 66.2035H92.6086L93.7089 68.8733H91.2656L89.777 65.2488ZM103.968 71.8506C103.687 72.0987 103.396 72.3199 103.094 72.514C102.792 72.6974 102.484 72.8646 102.172 73.0157C102.484 73.0264 102.786 73.0372 103.078 73.048H103.968V74.2131C103.169 74.2023 102.355 74.1861 101.524 74.1645C100.705 74.1321 99.8847 74.0512 99.0648 73.9218C98.2342 74.0512 97.4036 74.1321 96.573 74.1645C95.7531 74.1861 94.9441 74.2023 94.1458 74.2131V73.048H95.0196C95.3216 73.0372 95.6291 73.0264 95.9419 73.0157C95.7154 72.897 95.4942 72.7783 95.2785 72.6597C95.0735 72.541 94.8632 72.4062 94.6474 72.2551H97.4468C97.9106 72.4277 98.45 72.5734 99.0648 72.692C99.5503 72.5949 99.9926 72.4817 100.392 72.3522C100.802 72.212 101.152 72.0448 101.443 71.8506H94.1458V70.5885H103.968V71.8506Z" fill="white"/>
</svg>
