<svg width="128" height="128" viewBox="0 0 128 128" fill="none" xmlns="http://www.w3.org/2000/svg">
 
<path fill-rule="evenodd" clip-rule="evenodd" d="M68.8662 103.74C82.7464 101.732 93.8331 90.4377 93.5073 72.8844C92.426 75.7679 89.5425 78.4713 87.9205 78.5613C90.1733 71.9834 89.5425 62.1614 87.3348 59.368C85.9451 68.8352 82.0858 68.8004 80.437 68.7855C80.3752 68.785 80.3166 68.7844 80.2612 68.7844C82.04 64.0595 83.7304 51.6186 75.7107 45.9417C76.2063 50.1318 76.3865 57.1153 73.3679 58.6922C72.5418 58.6922 72.3551 55.8897 72.1757 53.1977C72.0714 51.6318 71.9696 50.1033 71.7459 49.1856C70.8393 45.4667 69.2184 42.9103 67.5137 40.2214C65.0672 36.3627 62.4478 32.2313 61.5184 24C57.686 33.0945 60.0342 40.8132 61.5211 45.7005C62.2367 48.0527 62.7528 49.7491 62.2844 50.6274C60.8426 48.7351 55.2558 43.0582 47.7768 42.3373C54.7152 47.4735 53.4086 62.3416 50.8855 63.0625C49.2725 63.5233 45.8483 59.4412 43.0551 56.1114C42.8532 55.8707 42.6547 55.634 42.4603 55.4032C42.6217 56.2732 42.8921 57.2789 43.1928 58.3975C44.4027 62.8982 46.1041 69.2272 43.1812 75.9031C41.6837 75.7269 40.0332 74.3452 38.03 72.6683C36.9594 71.7721 35.7881 70.7916 34.4856 69.8657C34.4856 73.8133 37.2612 102.485 62.2673 104C55.414 101.217 46.2079 89.5919 46.5603 84.4635C49.624 86.8514 51.246 87.6624 53.0482 87.4371C52.3273 85.7701 51.6515 77.435 53.8591 75.0921C54.4449 78.1558 57.013 85.7701 59.4234 86.8514C58.7251 83.8327 57.824 73.1097 59.4234 70.1811C59.4584 70.252 59.4934 70.3229 59.5284 70.3937C61.406 74.1947 63.2292 77.8855 65.5734 77.8855C66.9701 73.8756 65.1228 67.2526 62.9152 63.8735C69.7265 66.9782 69.655 75.0839 69.615 79.6226C69.5982 81.5387 69.5869 82.819 70.1014 82.819C71.1209 82.819 71.7828 81.248 72.5665 79.3879C73.2547 77.7544 74.0369 75.8979 75.2376 74.6866C74.8772 77.0294 75.0349 86.2657 75.8459 87.4371C76.6569 88.6085 77.7156 85.9503 79.2024 81.6476C80.3563 89.9706 75.1726 100.66 68.8662 103.74Z" fill="black"/>
</svg>
