<svg width="128" height="128" viewBox="0 0 128 128" fill="none" xmlns="http://www.w3.org/2000/svg">
 
<path d="M48.8408 40.9122C50.7863 40.8761 52.729 41.0756 54.6265 41.5062C56.2241 41.8551 57.741 42.5041 59.0964 43.419C60.3482 44.3287 61.3387 45.5517 61.9685 46.9652C62.6922 48.7034 63.0413 50.5746 62.9931 52.4568C63.0753 54.5235 62.5475 56.5687 61.4754 58.3375C60.3476 60.0081 58.7887 61.3423 56.9639 62.1986C59.4402 62.8662 61.597 64.3953 63.0466 66.5111C64.4381 68.7529 65.1375 71.3553 65.0573 73.9926C65.1032 76.0954 64.6684 78.1809 63.7861 80.0902C62.9706 81.7557 61.7764 83.2072 60.2993 84.3284C58.7785 85.4373 57.0671 86.2578 55.2502 86.749C53.366 87.2703 51.4195 87.5321 49.4645 87.5272H28V40.9122H48.8408ZM47.6023 59.7661C49.1309 59.8291 50.6356 59.3715 51.8703 58.4682C52.4616 57.9418 52.9216 57.2844 53.2135 56.5484C53.5054 55.8125 53.6211 55.0185 53.5513 54.2299C53.5909 53.3089 53.4075 52.3919 53.0167 51.5569C52.6852 50.8921 52.1698 50.3364 51.5317 49.956C50.8854 49.5373 50.1593 49.2572 49.3992 49.1333C48.5745 48.9736 47.7353 48.9009 46.8955 48.9165H37.7239V59.8077H47.6023V59.7661ZM48.1369 79.612C49.0613 79.6245 49.9839 79.5248 50.8842 79.315C51.707 79.1333 52.4874 78.7955 53.1831 78.32C53.8646 77.8448 54.4152 77.2053 54.7839 76.4608C55.2115 75.5114 55.4079 74.4742 55.3571 73.4343C55.4498 72.4866 55.3243 71.5302 54.9902 70.6386C54.6561 69.7469 54.1222 68.9436 53.4296 68.2902C51.9615 67.2088 50.1623 66.6732 48.3419 66.7754H37.7239V79.612H48.1369Z" fill="white"/>
<path d="M78.9067 79.4397C79.6699 80.1471 80.5689 80.692 81.5492 81.0412C82.5295 81.3905 83.5706 81.5368 84.6091 81.4712C86.2556 81.5128 87.8701 81.0119 89.2038 80.0456C90.2889 79.3401 91.1105 78.296 91.5412 77.0756H99.296C98.4698 80.55 96.452 83.625 93.5936 85.7659C90.8513 87.5861 87.6107 88.5078 84.321 88.4033C81.9732 88.4341 79.6431 87.9927 77.4691 87.1054C75.5026 86.2853 73.7389 85.0456 72.3013 83.473C70.869 81.8252 69.7687 79.9161 69.0609 77.8507C68.2664 75.5421 67.8776 73.1134 67.9115 70.6721C67.897 68.2718 68.299 65.8872 69.0995 63.6242C70.175 60.4406 72.2314 57.6796 74.9735 55.7374C77.7157 53.7951 81.0026 52.7714 84.3626 52.8132C86.8433 52.7614 89.2964 53.3419 91.4908 54.5002C93.4742 55.5878 95.1853 57.1111 96.4953 58.9553C97.8353 60.8904 98.7958 63.0624 99.3258 65.3557C99.9069 67.8184 100.114 70.3545 99.9406 72.8789H76.8425C76.6553 75.2506 77.3953 77.6024 78.9067 79.4397ZM89.0405 61.7115C88.3941 61.065 87.6167 60.5645 86.7606 60.2438C85.9045 59.9231 84.9896 59.7895 84.0775 59.8522C82.8675 59.8061 81.6662 60.0742 80.5907 60.6304C79.738 61.0998 78.9853 61.7314 78.375 62.4896C77.8342 63.2006 77.4312 64.0065 77.187 64.8657C76.9669 65.5823 76.8294 66.3217 76.7771 67.0695H91.0839C90.9592 65.1201 90.2491 63.2537 89.0464 61.7145L89.0405 61.7115Z" fill="white"/>
<path d="M92.8599 44.0248H74.9327V48.6076H92.8599V44.0248Z" fill="white"/>
</svg>
