<svg width="128" height="128" viewBox="0 0 128 128" fill="none" xmlns="http://www.w3.org/2000/svg">
 
<path d="M37.0862 38.0518L36.8615 34.6372L50.1669 33.8104L51.0301 57.3959L35.8255 58.4349L51.0301 58.435V95.7379H34.3477V38.0518H37.0862Z" fill="white"/>
<path d="M54.7108 58.435V95.7379H72.515V58.435L64.7741 58.435V86.4969H62.4518V58.435L54.7108 58.435Z" fill="white"/>
<path d="M64.7741 56.4776L64.2695 42.7894L61.9442 43.0515L62.4518 56.6328L54.7108 57.1499L54.0036 33.8104L71.7409 33.0363L72.515 55.9604L64.7741 56.4776Z" fill="white"/>
<path d="M76.1958 58.435V95.7379H94V58.4351L86.2591 58.4351V86.4969H83.9368V58.4351L76.1958 58.435Z" fill="white"/>
<path d="M83.9368 55.1973L76.1958 55.7145L75.3556 33.0363L93.2259 32.2622L94 54.525L86.2591 55.0421L85.7197 42.514L83.4473 42.7545L83.9368 55.1973Z" fill="white"/>
</svg>
