<svg width="128" height="128" viewBox="0 0 128 128" fill="none" xmlns="http://www.w3.org/2000/svg">
 
<path fill-rule="evenodd" clip-rule="evenodd" d="M64 124C97.1371 124 124 97.1371 124 64C124 30.8629 97.1371 4 64 4C30.8629 4 4 30.8629 4 64C4 97.1371 30.8629 124 64 124ZM102 31.5C72.2222 -1.99999 31.9999 23.5 30.9999 27C59.4999 9.50001 86.9382 20.0312 95.9999 31.5C111.407 51 109.5 74.5 89.9999 87C85.7905 89.6983 68.2798 91.9716 60.9999 87C40.4999 73 50.4999 60.5 58.4999 50.5C31.4999 61.5 38.9999 92.5 64.9999 95.5C79.4999 96.3788 89.8935 92.9505 98.9999 84C108.5 73 118.633 50.2122 102 31.5ZM42.4999 103.5C70.4999 123 95.6361 101.017 96.4999 98C71.8796 113.084 54.4113 104.141 47.9999 100C23.9999 84.5 29.8696 60.2163 46.0314 48.4413C53.4999 43 64.3121 42.9441 69.9999 48C83.4999 60 74.4999 72 65.4999 75.5C87.9999 80.5 89.9999 42.5 61.9999 39.5C49.4738 38.7425 44.3668 43.2852 36.4999 51C28.2932 60.4813 22.9999 87.5 42.4999 103.5ZM23.4999 89.5C7.9999 74 10.4186 24.4871 55.9999 25.5C101 26.5 97.5 64 91.9999 72C84.378 83.0863 67.4999 87.5 56.4999 74C71 85.5 90.4999 80 90.4999 55.5C90.4999 42.9803 78.5 28.5 57.4999 28.5C33.5 28.5 10.9998 53.5 23.4999 89.5Z" fill="#353535"/>
</svg>
