<svg width="128" height="128" viewBox="0 0 128 128" fill="none" xmlns="http://www.w3.org/2000/svg">
 
<path d="M100.648 95C91.8435 105.399 78.6927 112 64 112C37.4903 112 16 90.5097 16 64C16 37.4903 37.4903 16 64 16C78.6927 16 91.8435 22.6014 100.648 33H108.221C98.4523 19.0908 82.2878 10 64 10C34.1766 10 10 34.1766 10 64C10 93.8234 34.1766 118 64 118C82.2878 118 98.4523 108.909 108.221 95H100.648Z" fill="white"/>
<path d="M59.94 30H68.06L101.975 88H95.0247L64 34.9432L32.9752 88H26.0247L59.94 30Z" fill="white"/>
<path d="M53 62C48.5 64.5 45.5 69.5 45.5 73C46.5 73 47.8521 73.251 49 74C50.7852 75.1648 53.1221 77.4635 55 78C58.5 79 60.5 78.5 63 77.5C62 77.5 59.7283 76.8913 57.5 76C55 75 53 74 51.5 72.5C53 73.5 60.9654 74.7977 64 75C71.5 75.5 77.6975 74.6162 77 74.5C74 74 64.9592 71.9932 62 71.5C59 71 56.5 70.5 53 70C55.5 69.5 65.5 71.5 77.5 71C82.5 70.7917 88.6667 65.3333 90.5 63C87.8333 64.1667 82.5103 67.1862 80 67.5C76 68 69 67.5 65 67.5C62.9604 67.5 56 67.1667 52.5 67.5C58.3333 66.8333 73.544 66.508 77 65.5C89 62 94.5 56.5 97.5 53C96.5 53 86 59.5 77.5 62C70.632 64.02 61.5 63.5 55.5 63.5C61.5 63.0129 84 57 91 52.5C102.48 45.1201 105 38 105.5 35C100.833 39.8333 94.5 47.5 82.5 52.5C73.5862 56.2141 61.3074 57.3848 53 62Z" fill="white"/>
 
</svg>
