<svg width="128" height="128" viewBox="0 0 128 128" fill="none" xmlns="http://www.w3.org/2000/svg">
 
<path fill-rule="evenodd" clip-rule="evenodd" d="M96.5395 83.1228L97.1006 83.1072C98.9572 83.012 103.743 82.1626 103.743 75.9194V74.7333H98.7484C98.7811 77.4706 98.5879 78.1113 95.7866 78.1113V67.9291H74.5743L74.5103 71.8355C73.9663 76.7987 68.7956 77.8385 67.3538 78.0317V83.0575C67.5129 83.0433 78.4323 82.2762 79.5048 72.2361H90.7922V83.1228H96.5395Z" fill="white"/>
<path fill-rule="evenodd" clip-rule="evenodd" d="M66.4589 60.7413V67.9291H71.4676V65.0639H98.9885V67.9305H104V60.7413H66.4589ZM82.6754 53.5692H68.8596V57.8762H101.503V53.5692H87.6869V50.8163H102.943V46.5093H87.6869V44.8757H82.6754V46.5093H67.4177V50.8163H82.674L82.6754 53.5692Z" fill="white"/>
<path fill-rule="evenodd" clip-rule="evenodd" d="M45.2934 72.6679H49.4071C50.6245 82.3061 61.4786 83.0575 61.5098 83.0575V78.0318C60.132 77.84 55.5551 76.8954 54.5139 72.6694H61.5908V68.3624H45.2934V65.3992H57.6844C59.0126 65.3992 60.1178 64.2955 60.1178 62.9673V45.6286H25.4716V65.3992H40.2832V68.3624H24V72.6694H31.0429C29.9874 76.8968 25.4091 77.8386 24.0469 78.0318V83.0575C24.081 83.0575 34.918 82.3046 36.151 72.6694H40.2832V83.1243H45.2934V72.6679ZM45.2934 49.9356H55.1062V53.3604H45.2934V49.9356ZM45.2934 57.6674H55.1062V61.0795H45.2934V57.6674ZM30.4846 49.9356H40.2832V53.3604H30.4846V49.9356ZM30.4846 61.0795V57.6674H40.2832V61.0795H30.4846Z" fill="white"/>
</svg>
