<svg width="128" height="128" viewBox="0 0 128 128" fill="none" xmlns="http://www.w3.org/2000/svg">
 
<path fill-rule="evenodd" clip-rule="evenodd" d="M29.5 44.5776C29.5 44.2202 29.6907 43.89 30.0003 43.7114L41.0003 37.3652C41.6669 36.9806 42.5 37.4618 42.5 38.2314V75.6476C42.5 76.0065 42.6923 76.3378 43.0039 76.5158L56.0039 83.9444C56.6705 84.3254 57.5 83.844 57.5 83.0762V72.5C57.5 71.9477 57.9477 71.5 58.5 71.5H69.5C70.0523 71.5 70.5 71.9477 70.5 72.5V105.478C70.5 106.245 69.6705 106.727 69.0039 106.346L30.0039 84.06C29.6923 83.882 29.5 83.5507 29.5 83.1918V44.5776Z" fill="#393C3F"/>
<path fill-rule="evenodd" clip-rule="evenodd" d="M98 83.6231C98 83.9805 97.8093 84.3107 97.4997 84.4893L86.4997 90.8355C85.8331 91.2201 85 90.739 85 89.9693V52.5531C85 52.1943 84.8077 51.8629 84.4961 51.6849L71.4961 44.2563C70.8295 43.8754 70 44.3567 70 45.1246V55.7007C70 56.253 69.5523 56.7007 69 56.7007H58C57.4477 56.7007 57 56.253 57 55.7007V22.7232C57 21.9554 57.8295 21.474 58.4961 21.855L97.4961 44.1407C97.8077 44.3187 98 44.6501 98 45.0089V83.6231Z" fill="#393C3F"/>
</svg>
