<svg width="128" height="128" viewBox="0 0 128 128" fill="none" xmlns="http://www.w3.org/2000/svg">
 
<path fill-rule="evenodd" clip-rule="evenodd" d="M42.1417 19.925C44.2618 18.3674 47.2431 18.8234 48.8008 20.9435L57.0969 32.2355C59.2966 32.2065 61.5969 32.1909 64 32.1909C66.305 32.1909 68.5155 32.2053 70.6333 32.232L78.9269 20.9435C80.4845 18.8234 83.4659 18.3674 85.586 19.925C87.7061 21.4826 88.1621 24.464 86.6045 26.5841L82.2404 32.5241C86.9596 32.7069 91.0344 32.9495 94.4997 33.2121C103.747 33.9129 110.382 41.5962 110.633 50.8668L111.158 70.2985L110.45 91.5284C110.191 99.2836 105.326 105.883 97.6471 106.997C90.3947 108.049 79.5023 109 63.8206 109C48.2465 109 37.3962 108.062 30.1439 107.019C22.3878 105.903 17.5005 99.2098 17.322 91.3758L16.8418 70.2985L17.367 50.8668C17.6175 41.5962 24.2528 33.9129 33.5003 33.2121C36.9007 32.9544 40.8878 32.716 45.4949 32.5345L41.1232 26.5841C39.5656 24.464 40.0215 21.4826 42.1417 19.925ZM64 40.7651C51.0882 40.7651 41.249 41.2237 34.1482 41.7618C29.7222 42.0972 26.0822 45.7671 25.9381 51.0985L25.4187 70.3167L25.894 91.1805C25.9964 95.6754 28.544 98.126 31.365 98.5319C38.1478 99.5078 48.5837 100.426 63.8206 100.426C79.1629 100.426 89.6374 99.495 96.4162 98.5116C99.2034 98.1073 101.732 95.6931 101.881 91.2425L102.58 70.2714L102.062 51.0985C101.918 45.7671 98.2778 42.0972 93.8518 41.7618C86.751 41.2237 76.9118 40.7651 64 40.7651Z" fill="#53ABDF"/>
<path fill-rule="evenodd" clip-rule="evenodd" d="M72.3394 60.3001C72.6594 58.2199 74.6052 56.7931 76.6853 57.1131C81.6358 57.8747 88.8794 60.0245 93.5382 63.039C95.3052 64.1824 95.8107 66.5417 94.6674 68.3086C93.5241 70.0756 91.1648 70.5812 89.3978 69.4378C85.9587 67.2126 79.8646 65.3134 75.5264 64.646C73.4463 64.326 72.0194 62.3803 72.3394 60.3001Z" fill="#53ABDF"/>
<path fill-rule="evenodd" clip-rule="evenodd" d="M55.2214 60.3001C54.9013 58.2199 52.9556 56.793 50.8755 57.1131C45.925 57.8747 38.6814 60.0245 34.0226 63.039C32.2556 64.1823 31.75 66.5416 32.8934 68.3086C34.0367 70.0756 36.396 70.5811 38.163 69.4378C41.602 67.2125 47.6961 65.3134 52.0344 64.646C54.1145 64.3259 55.5414 62.3802 55.2214 60.3001Z" fill="#53ABDF"/>
<path fill-rule="evenodd" clip-rule="evenodd" d="M52.5377 73.8168C53.581 73.9543 54.3152 74.9116 54.1777 75.9549C53.9226 77.8895 55.0425 79.4763 56.2747 79.8443C57.2644 80.1399 59.5672 79.9031 62.131 75.2664C62.9432 73.7974 65.108 73.9179 65.743 75.4822C66.6074 77.6114 67.6117 78.7816 68.4857 79.3734C69.3273 79.9433 70.1359 80.0429 70.8639 79.8793C72.4255 79.5283 74.0043 77.8229 74.208 75.5367C74.3014 74.4885 75.2269 73.7145 76.275 73.8079C77.3232 73.9013 78.0972 74.8268 78.0038 75.8749C77.6752 79.5618 75.1094 82.8309 71.6996 83.5973C69.9419 83.9923 68.0582 83.6862 66.349 82.5288C65.3709 81.8665 64.4854 80.9513 63.7078 79.7878C61.1179 83.0779 58.076 84.3594 55.1842 83.4957C51.8492 82.4997 49.9446 78.9072 50.3996 75.4567C50.5372 74.4134 51.4945 73.6792 52.5377 73.8168Z" fill="#53ABDF"/>
</svg>
