<svg width="128" height="128" viewBox="0 0 128 128" fill="none" xmlns="http://www.w3.org/2000/svg">
 
<path d="M61.232 27.478C61.772 27.298 62.312 27.418 62.852 27.838C63.032 28.018 63.272 28.138 63.5721 28.198C63.872 28.258 64.172 28.438 64.472 28.738C64.772 28.978 65.1021 29.098 65.4621 29.098C65.8821 29.098 66.2121 29.248 66.4521 29.548C66.7521 29.848 67.1421 29.998 67.6221 29.998C68.0421 29.998 68.282 30.058 68.342 30.178C68.402 30.358 68.672 30.478 69.1521 30.538C69.5721 30.658 69.9021 30.808 70.1421 30.988C70.4421 31.288 70.6821 31.528 70.862 31.708C71.102 31.888 71.192 32.188 71.132 32.608C71.0721 32.968 70.8621 33.208 70.502 33.328C70.202 33.448 70.052 33.598 70.052 33.778C70.052 33.898 69.9321 33.988 69.6921 34.048C68.8521 34.408 68.3721 34.948 68.2521 35.668C68.1921 36.088 68.072 36.388 67.892 36.568C67.7121 36.748 67.5621 37.168 67.4421 37.828C67.3221 38.488 67.2921 38.878 67.3521 38.998C67.472 39.058 67.7721 39.118 68.2521 39.178C68.6721 39.238 69.0021 39.178 69.2421 38.998C69.6021 38.638 70.7421 38.428 72.6621 38.368C73.2621 38.368 73.7421 38.218 74.1021 37.918C74.4021 37.678 74.582 37.558 74.642 37.558C74.762 37.558 74.8821 37.408 75.002 37.108C75.1221 36.808 75.2421 36.658 75.362 36.658C75.5421 36.658 75.7521 36.448 75.9921 36.028C76.1121 35.608 76.4121 35.218 76.8921 34.858C77.4321 34.438 77.8821 34.228 78.2421 34.228C78.4821 34.228 78.7521 34.378 79.0521 34.678C79.3521 34.978 79.5621 35.128 79.6821 35.128C79.8021 35.128 79.9521 35.398 80.1321 35.938C80.3121 36.298 80.4321 36.508 80.4921 36.568C80.6121 36.628 80.8221 36.658 81.1221 36.658C82.0221 36.658 82.562 36.898 82.7421 37.378C82.9821 38.038 82.8621 38.578 82.382 38.998C82.202 39.238 82.0521 39.478 81.9321 39.718C81.8121 39.898 81.4821 40.048 80.9421 40.168C80.4621 40.288 80.2221 40.498 80.2221 40.798C80.1621 40.918 80.1021 41.008 80.042 41.068C80.042 41.068 79.9521 41.098 79.7721 41.158C79.6521 41.158 79.442 41.158 79.142 41.158C78.782 41.098 78.4821 41.128 78.2421 41.248C77.9421 41.308 77.8521 41.458 77.972 41.698L78.1521 41.788C78.3321 41.788 78.4821 41.908 78.6021 42.148C78.722 42.388 78.902 42.358 79.142 42.058C79.622 41.458 80.0421 41.548 80.4021 42.328C80.5221 42.688 80.6121 43.018 80.6721 43.318C80.792 43.558 80.822 43.768 80.7621 43.948C80.7621 44.128 80.7021 44.218 80.5821 44.218C80.4021 44.218 80.2821 44.098 80.2221 43.858C80.1621 43.618 80.0121 43.528 79.7721 43.588C79.2321 43.648 79.2621 44.008 79.8621 44.668C80.1021 44.968 80.2521 45.418 80.312 46.018C80.372 46.678 80.492 47.038 80.6721 47.098L80.8521 46.918C80.8521 46.858 80.8521 46.768 80.8521 46.648C80.9121 46.348 81.1521 46.138 81.5721 46.018C82.1121 45.838 82.4721 45.688 82.6521 45.568C82.8921 45.448 83.5521 45.328 84.632 45.208L86.162 45.118L86.9721 44.308C87.5121 43.828 87.9021 43.558 88.1421 43.498C88.3821 43.378 88.652 43.078 88.952 42.598C89.252 42.118 89.6721 41.818 90.2121 41.698C91.4121 41.578 92.2821 41.788 92.8221 42.328C93.0621 42.568 93.2421 42.688 93.3621 42.688C93.4821 42.688 93.7521 42.868 94.1721 43.228C94.9521 44.008 94.9821 44.818 94.2621 45.658C94.0221 46.078 93.9021 46.378 93.9021 46.558C93.9021 46.738 93.842 46.858 93.722 46.918C93.602 46.978 91.8621 46.978 88.5021 46.918C84.2421 46.918 81.962 47.008 81.662 47.188C81.422 47.248 81.3921 47.428 81.5721 47.728C81.7521 47.968 81.8421 48.118 81.8421 48.178C81.8421 48.298 81.6021 48.448 81.1221 48.628C80.7021 48.748 80.3421 48.808 80.042 48.808C79.8021 48.808 79.6521 48.838 79.592 48.898C79.592 48.958 79.592 49.138 79.592 49.438C79.592 49.918 79.5321 50.248 79.4121 50.428C79.2321 50.548 79.142 50.698 79.142 50.878C79.142 50.998 79.022 51.088 78.782 51.148C78.5421 51.208 78.4221 51.358 78.4221 51.598C78.4221 51.838 78.7221 51.958 79.3221 51.958C80.2821 51.958 80.9121 51.478 81.2121 50.518C81.2721 50.158 81.452 49.948 81.7521 49.888C82.0521 49.768 82.3221 49.828 82.5621 50.068C82.8021 50.308 83.012 50.428 83.1921 50.428C83.312 50.428 83.402 50.548 83.4621 50.788C83.582 51.028 83.792 51.328 84.092 51.688C84.452 51.988 84.632 52.348 84.632 52.768C84.632 53.308 84.482 53.638 84.182 53.758C83.882 53.818 83.0121 53.818 81.5721 53.758C80.3721 53.698 79.6521 53.638 79.4121 53.578C79.1721 53.518 78.9321 53.368 78.6921 53.128C78.3921 52.768 78.002 52.648 77.522 52.768C77.1021 52.828 76.8621 52.978 76.8021 53.218C76.742 53.458 76.3221 53.638 75.5421 53.758C74.8221 53.818 74.372 53.908 74.192 54.028C74.072 54.148 73.8321 54.178 73.4721 54.118C73.0521 54.118 72.2121 54.178 70.9521 54.298C69.6921 54.478 68.9721 54.538 68.792 54.478C68.6121 54.478 68.4321 54.598 68.2521 54.838C68.0721 55.018 67.802 55.468 67.4421 56.188C67.2021 56.668 67.142 56.998 67.2621 57.178C67.382 57.298 67.4421 57.598 67.4421 58.078C67.4421 58.558 67.5021 58.798 67.6221 58.798C67.7421 58.798 67.9221 58.918 68.1621 59.158C68.4021 59.398 68.7321 59.458 69.1521 59.338C69.452 59.218 69.752 59.188 70.052 59.248C70.292 59.308 70.5021 59.278 70.6821 59.158C70.8621 58.978 71.4321 58.918 72.3921 58.978C73.3521 58.978 74.4321 58.858 75.6321 58.618C76.8321 58.318 77.552 57.988 77.792 57.628C78.032 57.388 78.3321 57.238 78.6921 57.178C78.9921 57.118 79.172 56.998 79.232 56.818C79.2921 56.638 79.5021 56.488 79.8621 56.368C80.2821 56.188 80.6121 56.098 80.8521 56.098C80.9721 56.098 81.1221 56.128 81.302 56.188C81.482 56.248 81.6621 56.308 81.8421 56.368C82.0221 56.428 82.1721 56.518 82.2921 56.638C82.4721 56.758 82.5921 56.848 82.6521 56.908C82.8321 57.148 83.012 57.268 83.1921 57.268C83.312 57.268 83.402 57.388 83.4621 57.628C83.5221 57.808 83.732 58.048 84.092 58.348C84.5121 58.648 84.8121 58.798 84.9921 58.798C85.2321 58.798 85.3521 59.098 85.3521 59.698C85.4121 60.238 85.3221 60.508 85.0821 60.508C85.0821 60.508 84.9921 60.538 84.812 60.598C84.632 60.598 84.392 60.598 84.092 60.598C83.792 60.598 83.462 60.598 83.1021 60.598C82.7421 60.598 82.3221 60.598 81.8421 60.598C81.4221 60.598 80.9721 60.598 80.4921 60.598C77.6121 60.598 76.1121 60.718 75.9921 60.958C75.8721 61.138 75.572 61.228 75.0921 61.228C74.6121 61.228 74.2821 61.138 74.1021 60.958C73.9821 60.778 73.2621 60.688 71.9421 60.688C70.682 60.688 70.0221 60.748 69.9621 60.868C69.9021 60.988 69.6921 61.048 69.3321 61.048C69.0921 61.048 68.8821 61.108 68.702 61.228C68.5821 61.288 68.4621 61.438 68.342 61.678C68.282 61.858 68.2221 62.158 68.1621 62.578C68.1021 63.298 68.012 63.808 67.892 64.108C67.652 64.468 67.5621 65.038 67.6221 65.818C67.7421 66.598 67.9521 67.108 68.2521 67.348C68.7921 67.708 71.0721 67.738 75.0921 67.438C76.3521 67.378 77.252 67.408 77.792 67.528C79.232 67.948 80.0421 67.978 80.2221 67.618C80.2821 67.438 80.9121 67.378 82.112 67.438C83.3721 67.438 84.2421 67.288 84.7221 66.988C85.2621 66.628 85.6521 66.328 85.8921 66.088C86.1921 65.788 86.4621 65.638 86.702 65.638C86.942 65.638 87.3921 65.188 88.0521 64.288C88.2321 64.048 88.652 63.898 89.312 63.838C89.8521 63.778 90.182 63.778 90.302 63.838C90.422 63.898 90.542 64.048 90.662 64.288C90.962 64.828 91.1421 65.128 91.202 65.188C91.2621 65.428 91.412 65.578 91.652 65.638C91.832 65.638 92.1621 65.968 92.6421 66.628C93.1221 67.228 93.4221 67.528 93.5421 67.528C93.6621 67.528 93.722 67.768 93.722 68.248C93.722 68.668 93.5421 69.058 93.1821 69.418C92.5221 70.138 91.7121 70.438 90.7521 70.318C89.4321 70.078 88.6521 69.958 88.4121 69.958C87.5121 69.838 86.9721 69.718 86.7921 69.598C86.6721 69.418 86.252 69.448 85.5321 69.688C84.872 69.868 84.152 69.988 83.372 70.048C82.5921 70.048 82.1121 69.958 81.9321 69.778C81.6921 69.538 80.9721 69.508 79.7721 69.688C78.5721 69.808 77.732 69.808 77.2521 69.688C76.2321 69.388 74.2521 69.478 71.312 69.958C70.472 70.078 69.512 70.138 68.432 70.138C65.2521 70.018 61.802 70.198 58.082 70.678C57.062 70.738 55.502 70.798 53.402 70.858C51.242 70.918 50.012 71.038 49.712 71.218C49.472 71.398 48.842 71.548 47.822 71.668C46.742 71.788 45.992 71.908 45.572 72.028C45.032 72.148 43.502 72.268 40.982 72.388C38.462 72.508 36.992 72.538 36.572 72.478C36.212 72.418 36.002 72.298 35.942 72.118C35.882 71.938 35.762 71.848 35.582 71.848C35.402 71.848 35.222 71.638 35.042 71.218C34.922 70.738 34.892 70.288 34.952 69.868C35.012 69.508 35.072 69.298 35.132 69.238C35.192 69.118 35.372 69.028 35.672 68.968C36.812 68.608 38.042 68.548 39.362 68.788C40.442 69.028 41.282 68.968 41.882 68.608C42.122 68.428 42.362 68.368 42.602 68.428C42.842 68.488 43.262 68.458 43.862 68.338C44.522 68.218 45.062 68.278 45.482 68.518C45.842 68.698 46.322 68.788 46.922 68.788C47.522 68.788 49.262 68.668 52.142 68.428C54.902 68.188 57.032 68.098 58.532 68.158C60.032 68.158 60.842 68.098 60.962 67.978C61.382 67.678 61.592 66.178 61.592 63.478L61.5021 61.498L60.602 61.408C59.222 61.288 58.412 61.468 58.172 61.948C57.992 62.248 56.672 62.398 54.212 62.398C53.432 62.398 53.012 62.458 52.952 62.578C52.892 62.698 52.652 62.728 52.232 62.668C51.752 62.608 51.242 62.668 50.702 62.848C50.222 62.968 49.352 63.088 48.092 63.208C46.892 63.268 46.112 63.268 45.752 63.208C45.452 63.148 45.272 62.968 45.212 62.668C45.152 62.368 45.032 62.158 44.852 62.038C44.732 61.918 44.792 61.678 45.032 61.318C45.272 60.898 45.542 60.658 45.842 60.598C46.202 60.538 47.492 60.448 49.712 60.328C51.812 60.208 53.552 60.058 54.932 59.878C56.312 59.758 57.542 59.698 58.622 59.698C59.462 59.698 59.972 59.668 60.152 59.608C60.332 59.548 60.482 59.428 60.602 59.248C60.722 58.948 60.782 58.708 60.782 58.528C60.782 58.408 60.872 58.198 61.052 57.898C61.292 57.598 61.412 57.298 61.412 56.998C61.412 56.698 61.502 56.428 61.682 56.188C61.802 55.888 61.802 55.648 61.682 55.468C61.382 55.228 61.412 54.928 61.772 54.568C62.012 54.328 62.132 53.938 62.132 53.398C62.132 52.798 62.102 52.438 62.042 52.318C62.042 52.198 61.952 52.138 61.772 52.138C61.352 52.138 61.082 52.048 60.962 51.868C60.9021 51.688 61.0221 51.478 61.3221 51.238C61.562 50.998 61.652 50.728 61.592 50.428C61.412 49.828 61.532 49.468 61.952 49.348C62.192 49.288 62.342 49.078 62.402 48.718C62.462 48.358 62.402 48.088 62.222 47.908C62.102 47.728 61.712 47.668 61.052 47.728C60.392 47.788 59.8521 47.938 59.4321 48.178C58.8921 48.478 57.362 48.658 54.842 48.718C53.762 48.778 53.132 48.898 52.952 49.078C52.832 49.258 51.602 49.438 49.262 49.618C46.922 49.798 45.602 49.948 45.302 50.068C45.002 50.188 44.372 50.278 43.412 50.338C42.452 50.398 41.762 50.548 41.342 50.788C40.862 51.148 40.202 51.358 39.362 51.418C38.522 51.478 37.922 51.388 37.562 51.148C37.262 50.908 36.992 50.548 36.752 50.068C36.512 49.588 36.332 49.348 36.212 49.348C36.092 49.348 36.002 49.228 35.942 48.988C35.882 48.808 35.732 48.718 35.492 48.718C35.252 48.718 34.952 48.538 34.592 48.178C34.172 47.818 33.932 47.638 33.872 47.638C33.752 47.638 33.602 47.458 33.422 47.098C33.242 46.678 33.182 46.408 33.242 46.288C33.302 46.168 33.572 45.988 34.052 45.748C34.592 45.508 34.952 45.388 35.132 45.388C35.792 45.388 36.902 45.628 38.462 46.108C38.882 46.228 39.272 46.288 39.632 46.288C39.932 46.288 40.142 46.378 40.262 46.558C40.442 46.738 40.592 46.828 40.712 46.828C40.892 46.828 41.102 46.948 41.342 47.188C41.642 47.368 42.572 47.458 44.132 47.458C45.692 47.458 46.592 47.368 46.832 47.188C47.132 47.008 48.782 46.918 51.782 46.918C57.062 46.978 59.972 46.738 60.512 46.198C60.812 45.898 60.962 45.598 60.962 45.298C60.962 44.998 61.052 44.728 61.232 44.488C61.352 44.248 61.412 43.948 61.412 43.588C61.412 43.228 61.472 42.898 61.592 42.598C61.712 42.298 61.562 41.938 61.142 41.518C60.722 41.038 60.272 40.798 59.792 40.798C59.192 40.798 57.962 40.888 56.102 41.068C54.302 41.248 53.342 41.398 53.222 41.518C53.042 41.578 52.292 41.638 50.972 41.698L48.902 41.878L48.632 41.158C48.452 40.738 48.272 40.438 48.092 40.258C47.972 40.078 47.882 39.748 47.822 39.268V38.458H51.152C53.312 38.458 54.482 38.578 54.6621 38.818C54.842 39.058 55.262 39.088 55.922 38.908C56.582 38.728 57.512 38.608 58.712 38.548C59.372 38.548 59.852 38.518 60.152 38.458C60.452 38.398 60.662 38.338 60.782 38.278C60.902 38.158 60.962 38.038 60.962 37.918C60.962 37.678 61.022 37.528 61.142 37.468C61.2621 37.348 61.2621 36.958 61.142 36.298C61.022 35.758 60.962 35.368 60.962 35.128C61.082 34.828 61.142 34.318 61.142 33.598C61.202 32.818 61.202 32.368 61.142 32.248C61.022 32.008 60.932 31.198 60.872 29.818L60.692 27.658L61.232 27.478ZM64.652 36.478C64.832 36.478 64.922 36.448 64.922 36.388C64.922 36.268 64.862 36.178 64.742 36.118C64.622 36.058 64.532 36.058 64.472 36.118C64.232 36.358 64.292 36.478 64.652 36.478ZM73.7421 40.258C73.5621 40.138 72.6021 40.078 70.862 40.078H68.342L68.1621 40.708C68.0421 41.068 67.8621 41.428 67.6221 41.788C67.3821 42.088 67.2621 42.298 67.2621 42.418C67.2621 42.658 66.9621 42.748 66.362 42.688C66.062 42.688 65.7321 42.718 65.3721 42.778C65.0121 42.838 64.862 43.078 64.922 43.498C64.922 43.798 64.952 43.978 65.012 44.038C65.132 44.098 65.342 44.158 65.642 44.218C66.062 44.218 66.392 44.098 66.632 43.858C66.932 43.438 67.2021 43.618 67.4421 44.398C67.6221 44.878 67.772 45.148 67.892 45.208C68.072 45.268 68.2221 45.418 68.342 45.658C68.522 46.258 69.3921 46.408 70.9521 46.108C71.6721 45.988 72.2421 45.988 72.6621 46.108C73.142 46.168 73.532 46.048 73.832 45.748C74.132 45.448 74.2821 45.028 74.2821 44.488C74.2821 43.948 74.3721 43.468 74.5521 43.048C74.7921 42.568 74.822 42.238 74.642 42.058C74.4621 41.818 74.312 41.488 74.192 41.068C74.132 40.648 73.9821 40.378 73.7421 40.258ZM78.4221 45.928C78.4221 45.688 78.3621 45.538 78.2421 45.478C78.1821 45.358 78.0621 45.358 77.882 45.478C77.7621 45.598 77.6721 45.748 77.6121 45.928C77.4921 46.288 77.462 46.498 77.522 46.558C77.5821 46.618 77.7321 46.618 77.972 46.558C78.2721 46.498 78.4221 46.288 78.4221 45.928ZM77.2521 46.468C77.2521 46.708 76.9821 46.828 76.4421 46.828C76.262 46.828 76.1721 46.738 76.1721 46.558C76.1721 46.378 76.352 46.288 76.712 46.288C77.0721 46.288 77.2521 46.348 77.2521 46.468ZM73.292 47.728C73.1121 47.608 72.2421 47.548 70.6821 47.548C69.3021 47.548 68.4921 47.608 68.2521 47.728C68.0121 47.848 67.952 48.298 68.0721 49.078C68.1321 49.618 68.072 50.158 67.892 50.698C67.7121 51.118 67.6221 51.418 67.6221 51.598C67.6821 51.718 67.8321 52.018 68.0721 52.498C68.3721 53.158 68.5521 53.488 68.6121 53.488C68.6721 53.488 68.8521 53.308 69.1521 52.948C69.452 52.648 70.2021 52.438 71.4021 52.318C72.0021 52.258 72.4221 52.198 72.6621 52.138C72.9021 52.078 73.0821 52.018 73.202 51.958C73.3821 51.838 73.5621 51.688 73.7421 51.508C74.1621 51.088 74.3421 50.668 74.2821 50.248C74.2221 49.768 74.072 49.378 73.832 49.078C73.592 48.718 73.4721 48.418 73.4721 48.178C73.4721 47.998 73.4121 47.848 73.292 47.728ZM64.922 50.698C64.862 50.518 64.742 50.428 64.562 50.428C64.322 50.428 64.172 50.668 64.112 51.148C64.052 51.688 63.9021 52.018 63.6621 52.138C63.2421 52.378 63.332 52.588 63.932 52.768C64.352 52.948 64.622 52.978 64.742 52.858C64.862 52.678 65.012 52.588 65.192 52.588C65.432 52.588 65.6121 52.528 65.7321 52.408C65.8521 52.228 65.762 52.108 65.4621 52.048C65.162 51.988 65.012 51.778 65.012 51.418C65.012 51.118 64.982 50.878 64.922 50.698ZM65.102 53.848C64.262 53.488 63.7821 53.548 63.6621 54.028C63.6621 54.208 63.7821 54.388 64.0221 54.568C64.382 54.928 64.8021 54.958 65.2821 54.658C65.702 54.298 65.642 54.028 65.102 53.848ZM64.832 57.628C64.832 57.448 64.712 57.328 64.472 57.268C64.292 57.208 64.2021 57.298 64.2021 57.538C64.2621 57.838 64.412 57.928 64.652 57.808L64.832 57.628ZM65.012 59.248C64.952 58.828 64.5621 58.708 63.8421 58.888C63.362 59.008 63.302 59.188 63.6621 59.428C63.962 59.608 64.292 59.698 64.652 59.698C64.952 59.698 65.072 59.548 65.012 59.248ZM66.4521 60.688C66.3921 60.568 66.1521 60.478 65.7321 60.418C65.3121 60.358 65.072 60.388 65.012 60.508C64.952 60.568 64.922 60.718 64.922 60.958C64.922 61.438 65.2821 61.678 66.0021 61.678C66.1221 61.678 66.212 61.618 66.272 61.498C66.3921 61.378 66.4821 61.258 66.542 61.138C66.602 60.958 66.5721 60.808 66.4521 60.688ZM66.542 67.618C66.4821 67.198 66.1221 67.108 65.4621 67.348C65.162 67.468 65.012 67.678 65.012 67.978C65.072 68.218 65.282 68.338 65.642 68.338C65.822 68.398 65.9721 68.398 66.0921 68.338C66.2721 68.278 66.3921 68.188 66.4521 68.068C66.5721 67.948 66.602 67.798 66.542 67.618ZM52.052 52.858C56.672 52.678 59.312 52.678 59.972 52.858C60.392 52.918 60.632 53.008 60.692 53.128C60.752 53.248 60.722 53.488 60.602 53.848C60.362 54.328 59.192 54.658 57.092 54.838C56.252 54.958 55.502 55.078 54.842 55.198C54.242 55.318 52.832 55.408 50.612 55.468C48.392 55.528 47.192 55.528 47.012 55.468C46.892 55.348 46.832 55.048 46.832 54.568C46.892 54.028 47.042 53.758 47.282 53.758C47.522 53.698 47.732 53.548 47.912 53.308C48.092 53.068 49.472 52.918 52.052 52.858ZM75.592 71.218C76.1921 70.978 76.5521 70.858 76.6721 70.858C76.8521 70.798 77.0321 70.858 77.2121 71.038C77.3921 71.158 77.542 71.338 77.662 71.578C77.7821 71.758 77.8721 71.968 77.9321 72.208C78.1721 73.408 78.5621 74.068 79.1021 74.188C79.4021 74.248 79.5521 74.548 79.5521 75.088C79.5521 75.568 79.6721 75.838 79.9121 75.898C80.1521 75.958 80.3621 76.198 80.542 76.618C80.7221 77.038 80.7821 77.398 80.7221 77.698C80.6021 78.058 80.422 78.328 80.182 78.508C78.8621 79.588 78.2921 81.568 78.472 84.448C78.5321 85.348 78.4721 86.008 78.2921 86.428C78.1121 86.848 77.9921 87.688 77.9321 88.948C77.8121 92.188 77.6921 93.868 77.5721 93.988C77.2121 94.228 77.0321 94.558 77.0321 94.978C77.0321 95.158 76.9121 95.458 76.6721 95.878C76.432 96.358 76.312 96.688 76.312 96.868C76.312 96.988 76.1021 97.288 75.6821 97.768C75.3221 98.188 75.142 98.458 75.142 98.578C75.142 98.698 75.0521 98.788 74.8721 98.848C74.6921 98.908 74.6021 99.058 74.6021 99.298C74.6021 99.538 74.5121 99.688 74.3321 99.748C74.092 99.868 73.912 100.018 73.792 100.198C73.492 100.558 73.0121 100.678 72.3521 100.558C71.6921 100.438 71.242 100.138 71.002 99.658C70.8221 99.298 70.7021 99.118 70.642 99.118C70.282 99.118 70.1021 98.368 70.1021 96.868C70.1021 95.608 69.922 94.858 69.562 94.618C69.2021 94.438 67.3721 94.618 64.0721 95.158C62.7521 95.398 61.8521 95.428 61.3721 95.248C60.6521 94.948 59.632 94.828 58.312 94.888C56.992 94.948 56.2121 95.128 55.972 95.428C55.852 95.548 55.702 95.908 55.522 96.508C55.342 97.108 55.252 97.468 55.252 97.588C55.252 97.768 55.0421 98.038 54.6221 98.398C54.0821 98.818 53.482 99.028 52.822 99.028C52.162 99.088 51.682 98.878 51.382 98.398C51.262 98.218 51.142 98.128 51.022 98.128C50.722 98.128 50.572 97.798 50.572 97.138C50.572 96.898 50.4821 96.628 50.3021 96.328C50.1221 96.088 50.092 95.698 50.212 95.158C50.332 94.618 50.3621 94.018 50.3021 93.358C50.2421 92.758 50.272 92.368 50.392 92.188C50.572 91.948 50.6621 89.638 50.6621 85.258C50.6021 83.038 50.4821 81.748 50.3021 81.388C50.1821 81.028 50.092 79.708 50.032 77.428V74.188H51.382C52.222 74.188 52.732 74.278 52.912 74.458C53.152 74.638 53.362 74.728 53.542 74.728C53.7221 74.728 53.872 74.818 53.992 74.998C54.172 75.178 54.292 75.268 54.352 75.268C54.472 75.268 54.652 75.388 54.892 75.628C55.132 75.868 55.5521 75.988 56.1521 75.988C56.752 75.988 57.142 76.078 57.322 76.258C57.682 76.678 59.182 76.828 61.822 76.708C63.802 76.588 64.882 76.438 65.062 76.258C65.3021 76.078 65.7821 75.958 66.502 75.898C67.282 75.778 67.732 75.688 67.8521 75.628C67.972 75.508 68.3621 75.388 69.0221 75.268C70.3421 75.028 71.002 74.758 71.002 74.458C71.002 74.338 71.242 74.248 71.722 74.188C72.2021 74.068 72.8321 73.618 73.6121 72.838C74.3321 72.058 74.992 71.518 75.592 71.218ZM74.5121 75.178C73.732 74.998 73.1621 74.998 72.8021 75.178C72.382 75.238 72.1721 75.358 72.1721 75.538C72.1721 75.718 72.0521 75.868 71.812 75.988C71.2121 76.168 71.1521 76.378 71.6321 76.618C72.1721 76.858 72.5621 76.858 72.8021 76.618C72.982 76.498 73.1621 76.498 73.3421 76.618C73.5221 76.678 73.6121 76.828 73.6121 77.068C73.6121 77.368 73.4921 77.518 73.2521 77.518C73.0121 77.518 72.8621 77.608 72.8021 77.788C72.742 77.968 72.772 78.118 72.8921 78.238C73.072 78.418 73.372 78.508 73.792 78.508C74.2121 78.508 74.5121 78.418 74.6921 78.238C74.8721 77.998 75.1121 77.908 75.4121 77.968C75.7721 78.028 76.0121 77.908 76.1321 77.608C76.3121 77.248 76.282 76.948 76.042 76.708C75.8621 76.528 75.5321 76.438 75.0521 76.438C74.6321 76.438 74.4221 76.378 74.4221 76.258C74.4221 76.078 74.5121 75.958 74.6921 75.898C74.8721 75.778 74.9321 75.658 74.8721 75.538C74.8721 75.358 74.7521 75.238 74.5121 75.178ZM71.362 77.788C71.362 77.488 70.9421 77.488 70.1021 77.788L69.6521 78.058C69.412 78.238 69.052 78.358 68.572 78.418C68.0921 78.478 66.6821 78.508 64.342 78.508C61.102 78.508 59.182 78.598 58.5821 78.778C57.802 78.898 57.1721 79.018 56.6921 79.138C56.0321 79.258 55.612 79.498 55.432 79.858C55.312 80.218 55.222 80.848 55.162 81.748C55.162 82.648 55.282 83.368 55.522 83.908C56.182 85.228 56.122 86.218 55.342 86.878C54.982 87.118 54.8021 87.538 54.8021 88.138C54.8621 88.918 54.922 89.728 54.982 90.568C55.162 92.068 55.582 92.908 56.242 93.088C56.902 93.208 59.7821 92.938 64.8821 92.278C66.6221 92.038 67.7621 92.008 68.3021 92.188C68.9021 92.368 69.322 92.428 69.562 92.368C70.162 92.188 70.4621 90.628 70.4621 87.688C70.4621 86.248 70.5521 85.408 70.7321 85.168C70.912 84.928 71.002 84.298 71.002 83.278C71.002 82.258 70.912 81.568 70.7321 81.208C70.612 80.968 70.5221 80.608 70.4621 80.128C70.4621 79.648 70.522 79.378 70.642 79.318C70.7021 79.318 70.7921 79.228 70.9121 79.048C71.0321 78.808 71.1221 78.568 71.1821 78.328C71.3021 78.088 71.362 77.908 71.362 77.788ZM73.6121 81.568C73.4321 81.268 73.1621 81.118 72.8021 81.118C72.442 81.058 72.202 81.178 72.0821 81.478C71.962 82.138 72.1421 82.558 72.6221 82.738C73.1621 82.918 73.5221 82.888 73.7021 82.648C73.9421 82.348 73.9121 81.988 73.6121 81.568ZM75.8621 82.648C75.9821 82.588 76.042 82.498 76.042 82.378C76.042 82.258 75.9821 82.198 75.8621 82.198C75.7421 82.258 75.6521 82.318 75.592 82.378C75.592 82.438 75.622 82.498 75.6821 82.558C75.7421 82.618 75.8021 82.648 75.8621 82.648ZM76.2221 83.728C76.1621 83.608 76.0121 83.548 75.7721 83.548C75.5921 83.488 75.4421 83.548 75.3221 83.728C75.202 83.848 75.172 83.998 75.232 84.178C75.3521 84.298 75.5021 84.358 75.6821 84.358C76.1621 84.358 76.3421 84.148 76.2221 83.728ZM75.952 86.428C75.952 86.308 75.8921 86.248 75.7721 86.248C75.6521 86.248 75.592 86.338 75.592 86.518C75.592 86.698 75.6521 86.758 75.7721 86.698C75.8921 86.638 75.952 86.548 75.952 86.428ZM57.322 84.718L57.412 84.358H62.542L67.6721 84.448V85.528C67.732 86.248 67.702 86.668 67.5821 86.788C67.4621 86.908 67.0421 86.968 66.3221 86.968C65.9621 86.908 65.4221 86.878 64.702 86.878C61.5821 86.878 59.4221 86.878 58.222 86.878H57.502L57.412 85.978C57.292 85.438 57.262 85.018 57.322 84.718Z" fill="black"/>
</svg>
