<svg width="128" height="128" viewBox="0 0 128 128" fill="none" xmlns="http://www.w3.org/2000/svg">
 
<path d="M86.8154 33.1685L95.9928 77.0426C95.9928 77.0426 87.2281 81.3342 87.2281 86.3178C87.2281 93.3944 95.4047 93.4142 95.4047 93.4142L95.4739 94.7771C95.4739 94.7771 51.902 94.8315 39.8474 94.8315C29.975 94.8315 31.9478 83.3057 32.6212 76.6134C34.2496 60.431 35.8849 44.5669 36.2852 39.3632C36.6054 35.2002 40.1527 33.1684 43.985 33.1685H86.8154Z" fill="#FFD05B"/>
<path d="M46.5425 33.1685L43.985 33.1685C40.1527 33.1684 36.6054 35.2002 36.2852 39.3632C35.9645 43.532 34.8512 54.5423 33.5839 67.077C33.2692 70.189 32.9451 73.3949 32.6212 76.6134C32.5753 77.0695 32.5234 77.548 32.4696 78.0438C31.7339 84.8232 30.6478 94.8315 39.8474 94.8315C40.6504 94.8315 41.5933 94.8312 42.6539 94.8308L46.5425 33.1685Z" fill="#324A5E"/>
<path d="M33.4684 82.5215C33.4684 79.4908 35.9253 77.034 38.9559 77.034H96C96 77.034 93.0912 80.385 93.0512 85.0367C93.0112 89.6884 95.3762 93.4022 95.3762 93.4022H38.9559C35.9253 93.4022 33.4684 90.9454 33.4684 87.9148V82.5215Z" fill="white"/>
</svg>
