<svg width="128" height="128" viewBox="0 0 128 128" fill="none" xmlns="http://www.w3.org/2000/svg">
<g clip-path="url(#clip0_320_314)">
 
<path d="M98 35.5C96.2648 36.0506 91.5415 52.3866 96.5 61.5L60 87.5C58.1592 86.2651 43.2454 78.2982 30.5 79.5C38 68 45.2251 67.1007 54.5 67C52.0339 62.6665 43.8573 57.3932 38 55.5C44.5 47 58.0243 47.5122 65 53.3707C61.1251 40.1618 67.3091 34.8018 72.7439 29.553C72.7439 42.5 75 46 79 52.5C80.6476 42.9959 90.0727 35.9689 98 35.5Z" fill="#4DDD4C"/>
<path d="M145 105C145 129.853 124.853 150 100 150C75.1472 150 55 129.853 55 105C55 80.1472 75.1472 60 100 60C124.853 60 145 80.1472 145 105Z" fill="#515151"/>
<path fill-rule="evenodd" clip-rule="evenodd" d="M58.5297 122.501L66.0128 123.213L72.447 109.331L59.7316 108.12L56.2587 115.613C56.13 115.081 56.0108 114.545 55.9013 114.006L58.676 108.019L55.0782 107.676C55.0586 107.341 55.0426 107.005 55.0303 106.667L59.1219 107.057L64.9755 94.427L56.4471 93.6363C56.5324 93.3083 56.6214 92.9818 56.7139 92.6567L65.4218 93.4641L71.2557 80.8766L62.5156 80.093C62.7274 79.7748 62.9432 79.4595 63.1629 79.1471L71.7024 79.9127L78.0865 66.1382L77.4092 66.0728C78.1995 65.6132 79.0052 65.1769 79.8251 64.7649L79.5871 65.2785L92.2951 66.5055L95.1926 60.2537C95.5752 60.2131 95.9592 60.1773 96.3446 60.1463L93.3501 66.6073L107.635 67.9866L110.721 61.2849C111.051 61.3655 111.379 61.4497 111.706 61.5375L108.689 68.0883L123.174 69.4869L124.266 67.0967C124.55 67.2789 124.832 67.4642 125.111 67.6526L124.227 69.5886L128.259 69.9779C128.717 70.3475 129.167 70.7259 129.609 71.1129L123.788 70.5508L117.631 84.0304L132.674 85.3791L133.261 84.1173L134.168 84.539L133.733 85.474L134.045 85.502L133.955 86.498L133.285 86.4378L127.347 99.2055L130.546 99.5021L130.454 100.498L126.899 100.168L120.957 112.946L132.047 114.002L131.953 114.998L120.509 113.908L114.054 127.789L132.047 129.502L131.953 130.498L113.607 128.751L103.798 149.842C103.419 149.874 103.039 149.901 102.658 149.923L112.551 128.65L97.888 127.253L95.4548 132.58L94.5452 132.165L96.8344 127.153L82.1382 125.754L80.4541 129.411L79.5458 128.993L81.0835 125.653L66.6225 124.276L63.4118 131.203C63.187 130.89 62.9662 130.574 62.7493 130.255L65.5669 124.175L58.9885 123.549C58.8313 123.202 58.6784 122.852 58.5297 122.501ZM60.1775 107.157L72.8929 108.368L78.7619 95.7052L66.0322 94.525L60.1775 107.157ZM66.4785 93.5621L79.2082 94.7423L85.0609 82.1143L72.3139 80.9715L66.4785 93.5621ZM72.7606 80.0076L85.5077 81.1504L91.8495 67.4671L79.1414 66.2401L72.7606 80.0076ZM81.5266 124.691L67.0684 123.314L73.5026 109.431L87.9205 110.804L81.5266 124.691ZM97.2741 126.19L82.5813 124.791L88.9751 110.905L103.619 112.299L97.2741 126.19ZM112.998 127.688L98.3277 126.291L104.673 112.4L119.453 113.807L112.998 127.688ZM73.9485 108.469L88.3635 109.842L94.213 97.1378L79.8187 95.8032L73.9485 108.469ZM80.265 94.8403L94.6564 96.1746L100.493 83.4979L86.1191 82.2092L80.265 94.8403ZM86.5659 81.2453L100.937 82.5337L107.192 68.9485L92.9044 67.5689L86.5659 81.2453ZM104.059 111.337L89.4182 109.942L95.2688 97.2357L109.881 98.5904L104.059 111.337ZM119.901 112.845L105.112 111.437L110.936 98.6882L125.842 100.07L119.901 112.845ZM122.735 70.4491L108.246 69.0502L101.994 82.6285L116.575 83.9357L122.735 70.4491ZM116.134 84.9002L101.551 83.5927L95.7123 96.2725L110.321 97.6269L116.134 84.9002ZM111.376 97.7247L126.29 99.1075L132.226 86.3429L117.19 84.9949L111.376 97.7247Z" fill="#323232"/>
<path fill-rule="evenodd" clip-rule="evenodd" d="M72.7888 68.6056C73.2828 69.5935 72.8824 70.7949 71.8944 71.2888C70.1291 72.1715 62.0959 77.0661 56.5332 86.4568C51.0431 95.725 47.8386 109.561 55.8454 128.729C56.2711 129.748 55.79 130.92 54.7708 131.345C53.7516 131.771 52.5802 131.29 52.1545 130.271C43.6613 109.939 46.9568 94.775 53.0917 84.4182C59.1541 74.1839 67.8709 68.8285 70.1056 67.7111C71.0935 67.2172 72.2949 67.6176 72.7888 68.6056Z" fill="#2A2A2A"/>
<path fill-rule="evenodd" clip-rule="evenodd" d="M72.4482 28.7391C73.1721 29.1289 73.5837 29.922 73.4857 30.7383C72.7441 36.9183 72.6472 41.5518 73.4019 45.4994C73.9175 48.1966 74.841 50.625 76.3001 53.0371C79.7863 44.1185 87.1468 38.5 96 38.5C97.01 38.5 97.8616 39.2531 97.985 40.2556C98.0968 41.1635 97.5796 42.0178 96.7531 42.3529C96.7183 42.3858 96.667 42.4378 96.5992 42.5155C96.3692 42.7793 96.0658 43.208 95.727 43.8096C95.0536 45.0052 94.3345 46.7158 93.812 48.7481C92.8399 52.5284 92.6019 57.193 94.3493 61.5932C106.576 62.5912 115.211 66.4943 121.279 71.1421C127.529 75.9303 130.95 81.4288 132.789 85.1055L129.211 86.8944C127.549 83.5711 124.471 78.6261 118.846 74.3175C113.238 70.0217 104.996 66.2781 92.8712 65.4958C92.1476 65.4491 91.506 65.0145 91.1943 64.3598C88.4313 58.5576 88.7376 52.4201 89.938 47.7519C90.3857 46.0109 90.9664 44.4375 91.5873 43.119C85.6483 44.835 80.8287 50.0542 78.9456 57.9632C78.7685 58.7067 78.1832 59.2844 77.4374 59.4515C76.6916 59.6187 75.9157 59.3462 75.4382 58.7494C72.262 54.779 70.3543 50.8603 69.473 46.2505C68.8679 43.0852 68.7575 39.6471 69.0014 35.7213C67.4335 37.5287 66.0768 39.5705 65.0998 41.9477C63.4057 46.0702 62.7777 51.3885 64.4476 58.5455C64.6477 59.4029 64.2636 60.2902 63.5016 60.7311C62.7396 61.172 61.7789 61.0628 61.1353 60.4621C55.0512 54.7836 46.2023 53.9022 39.6361 58.8986C45.2883 61.6336 50.3905 65.809 52.7888 70.6056C53.1064 71.2407 53.0634 71.9966 52.6758 72.5916C52.2882 73.1866 51.6141 73.5315 50.9048 73.4977C42.6622 73.1052 36.4152 76.7107 31.8224 82.5288C37.4566 82.8139 41.7882 84.1475 45.045 85.6931C48.3126 87.2439 50.5104 89.0334 51.6438 89.9562C51.8725 90.1425 52.0579 90.2934 52.2 90.4L49.8 93.6C49.5744 93.4308 49.3216 93.2263 49.035 92.9944C47.8554 92.0402 46.104 90.6233 43.33 89.3068C39.9251 87.6909 34.9921 86.2601 28.0689 86.4988C27.33 86.5243 26.6372 86.14 26.2677 85.4995C25.8981 84.8591 25.9121 84.067 26.304 83.44C30.9797 75.959 37.8826 70.3627 47.3344 69.5659C44.5887 66.2469 40.1642 63.2445 35.282 61.3667C34.6608 61.1278 34.1991 60.5954 34.0505 59.9467C33.9018 59.2979 34.0857 58.6177 34.5409 58.1321C41.5671 50.6375 51.7408 49.9087 59.6826 54.4505C59.0709 48.9133 59.8027 44.3143 61.4001 40.4273C63.4445 35.4525 66.8311 31.8307 70.2081 28.9732C70.8357 28.4422 71.7244 28.3493 72.4482 28.7391Z" fill="#2A2A2A"/>
<path d="M94 92C94 94.2091 92.2091 96 90 96C87.7909 96 86 94.2091 86 92C86 89.7909 87.7909 88 90 88C92.2091 88 94 89.7909 94 92Z" fill="#111111"/>
<path d="M75 103C75 105.209 73.2091 107 71 107C68.7909 107 67 105.209 67 103C67 100.791 68.7909 99 71 99C73.2091 99 75 100.791 75 103Z" fill="#111111"/>
<path d="M111.928 93.9378C112.744 95.3797 110.618 98.126 107.18 100.072C103.742 102.018 100.294 102.426 99.4776 100.984C98.6616 99.5422 100.787 96.7959 104.225 94.8501C107.663 92.9043 111.112 92.4959 111.928 93.9378Z" fill="#F27D75"/>
<path d="M73.9279 115.611C74.744 117.053 72.6185 119.799 69.1804 121.745C65.7424 123.691 62.2937 124.099 61.4776 122.657C60.6616 121.215 62.7871 118.469 66.2252 116.523C69.6632 114.577 73.1119 114.169 73.9279 115.611Z" fill="#F27D75"/>
</g>
<defs>
<clipPath id="clip0_320_314">
<rect width="128" height="128" fill="white"/>
</clipPath>
</defs>
</svg>
