<svg width="128" height="128" viewBox="0 0 128 128" fill="none" xmlns="http://www.w3.org/2000/svg">
 
<path d="M73 48L78.5 49.5L75.5 52.5V60.5H70.5V55.5L67 57L66 55.5C66 55.5 69.5 52 73 48Z" fill="white"/>
<path d="M86 48V50.5L92 48L95.5 52L86 54.5V56.5H92L92.5 54L97.5 57L94.5 60.5L80.5 60V55.5L76.5 56.5V54L80.5 52V48H86Z" fill="white"/>
<path d="M70 71V62.5H88L89.5 61L93.5 63L92 64V71H88V64H74V71H70Z" fill="white"/>
<path d="M85 66H79C79 72.5 72 75.5 68.5 76L66.5 79C70.5 79 76.4 77.9 80 75.5C83.6 73.1 84.8333 68.1667 85 66Z" fill="white"/>
<path d="M34.5 54V49L39.5 52V57L34.5 54Z" fill="white"/>
<path d="M34.5 57.5H31V61H34.5V71.5L33 73.5L35.5 78L42 71L41 69.5L39 70.5V59.5L39.5 59L35.5 56L34.5 57.5Z" fill="white"/>
<path fill-rule="evenodd" clip-rule="evenodd" d="M45 50.5L42.5 49V66H47.5V65H54.5V66H59.5V52L60 51.5L56 49L55 50.5H45ZM52.5987 61.0434C52.5216 61.15 52.435 61.2519 52.339 61.3479L50.374 63.3128L50.3517 63.2904L50.3293 63.3128L48.3644 61.3479C48.2683 61.2519 48.1818 61.15 48.1046 61.0434L45.3646 58.3033C44.3882 57.327 44.3882 55.7441 45.3646 54.7678L45.5617 54.5706C46.538 53.5943 48.1209 53.5943 49.0972 54.5706L50.3517 55.8251L51.6061 54.5706C52.5824 53.5943 54.1653 53.5943 55.1416 54.5706L55.3388 54.7678C56.3151 55.7441 56.3151 57.327 55.3388 58.3033L52.5987 61.0434Z" fill="white"/>
<path d="M51 68H46C43 75 39 77 39 77V79C40.2 79 48.5 75 51 68Z" fill="white"/>
<path d="M54.5 67L52 68.5L60.5 78.5L63 75L54.5 67Z" fill="white"/>
<path d="M85.5 72L84.5 73.5L95 79L96.5 74.5L85.5 72Z" fill="white"/>
</svg>
