<svg width="128" height="128" viewBox="0 0 128 128" fill="none" xmlns="http://www.w3.org/2000/svg">
 
<path d="M67.5983 64.8172H68.5748C69.1536 64.8172 69.6057 64.8895 69.9312 65.0342C70.2658 65.1698 70.433 65.4411 70.433 65.848C70.433 66.3182 70.2386 66.6302 69.8498 66.7839C69.47 66.9286 68.9365 67.0009 68.2493 67.0009L67.9374 66.9873C67.7927 66.9693 67.6797 66.9602 67.5983 66.9602V64.8172Z" fill="white"/>
<path d="M75.5213 64.8172C76.3712 64.8172 77.0178 65.0297 77.4608 65.4547C77.9039 65.8706 78.1254 66.4855 78.1254 67.2993C78.1254 67.6158 78.0938 67.8961 78.0305 68.1402C77.9672 68.3753 77.8903 68.5607 77.7999 68.6963C77.5467 69.1937 77.1896 69.5147 76.7284 69.6593C76.2672 69.804 75.7473 69.8764 75.1686 69.8764H74.3005V64.8172H75.5213Z" fill="white"/>
<path fill-rule="evenodd" clip-rule="evenodd" d="M63.3096 104.69C85.7823 104.69 104 86.4727 104 64C104 41.5273 85.7823 23.3096 63.3096 23.3096C44.4854 23.3096 28.6468 36.0921 24 53.4506H41.6216C45.5347 45.4208 53.776 39.8879 63.3096 39.8879C72.9269 39.8879 81.2292 45.5184 85.0998 53.6629H64.0686C61.5717 53.6629 59.5475 55.6871 59.5475 58.1841C59.5475 61.3757 59.5153 64.5726 59.4832 67.7711C59.4159 74.4592 59.3485 81.1547 59.5749 87.8247C51.6567 86.5935 45.0133 81.5094 41.6215 74.5494H24C28.6468 91.9079 44.4854 104.69 63.3096 104.69ZM65.2792 88.0329C74.588 87.2803 82.4031 81.2405 85.7181 72.92H65.2792V88.0329ZM66.2691 63.6236V71.0835H67.5983V68.1674C67.6616 68.1764 67.752 68.1854 67.8695 68.1945C67.9871 68.2035 68.0956 68.208 68.1951 68.208C69.244 68.199 70.103 68.0362 70.7721 67.7198C71.4503 67.3942 71.7849 66.7613 71.7758 65.8209C71.7758 64.356 70.754 63.6236 68.7105 63.6236H66.2691ZM72.9713 63.6236V71.0835H74.8295C75.2726 71.0835 75.6343 71.0745 75.9146 71.0564C76.2039 71.0383 76.4933 70.9976 76.7827 70.9343C77.7411 70.663 78.4284 70.1838 78.8443 69.4966C79.2693 68.8094 79.4818 68.0182 79.4818 67.123C79.4818 66.5352 79.3597 65.9791 79.1156 65.4547C78.8714 64.9302 78.451 64.4962 77.8542 64.1526C77.2664 63.7999 76.4797 63.6236 75.4941 63.6236H72.9713ZM85.7075 64.8172H82.2082V67.028H85.2871V68.2487H82.2082V71.0835H80.8789V63.6236H85.7075V64.8172Z" fill="white"/>
<path d="M51.5426 54.7503C51.0498 54.367 50.3397 54.4557 49.9564 54.9485C49.5732 55.4412 49.6619 56.1513 50.1546 56.5346L55.0166 60.3166C55.5093 60.6999 56.2195 60.6112 56.6027 60.1184C56.986 59.6257 56.8973 58.9156 56.4046 58.5323L51.5426 54.7503Z" fill="white"/>
<path d="M51.5426 60.6453C51.0498 60.262 50.3397 60.3507 49.9564 60.8435C49.5732 61.3362 49.6619 62.0463 50.1546 62.4296L55.0166 66.2116C55.5093 66.5949 56.2195 66.5062 56.6027 66.0134C56.986 65.5207 56.8973 64.8106 56.4046 64.4273L51.5426 60.6453Z" fill="white"/>
<path d="M49.9564 66.7382C50.3397 66.2455 51.0498 66.1568 51.5426 66.54L56.4046 70.3221C56.8973 70.7053 56.986 71.4155 56.6027 71.9082C56.2195 72.4009 55.5093 72.4896 55.0166 72.1064L50.1546 68.3244C49.6619 67.9411 49.5732 67.2309 49.9564 66.7382Z" fill="white"/>
</svg>
