<svg width="128" height="128" viewBox="0 0 128 128" fill="none" xmlns="http://www.w3.org/2000/svg">
 
<path fill-rule="evenodd" clip-rule="evenodd" d="M95 25H33C28.5817 25 25 28.5817 25 33V95C25 99.4183 28.5817 103 33 103H95C99.4183 103 103 99.4183 103 95V33C103 28.5817 99.4183 25 95 25ZM33 14C22.5066 14 14 22.5066 14 33V95C14 105.493 22.5066 114 33 114H95C105.493 114 114 105.493 114 95V33C114 22.5066 105.493 14 95 14H33Z" fill="black"/>
<path d="M52 85C52 89.9706 47.9706 94 43 94C38.0294 94 34 89.9706 34 85C34 80.0294 38.0294 76 43 76C47.9706 76 52 80.0294 52 85Z" fill="black"/>
</svg>
