<svg width="128" height="128" viewBox="0 0 128 128" fill="none" xmlns="http://www.w3.org/2000/svg">

<path d="M66.1363 66.9235C65.548 67.3442 64.8275 67.5918 64.0492 67.5918C62.0655 67.5918 60.4574 65.9837 60.4574 64C60.4574 62.0163 62.0655 60.4082 64.0492 60.4082C64.8275 60.4082 65.548 60.6558 66.1363 61.0765L70.0538 57.1589C68.4513 55.7512 66.3499 54.8976 64.0492 54.8976C59.0221 54.8976 54.9468 58.9729 54.9468 64C54.9468 69.0271 59.0221 73.1024 64.0492 73.1024C66.3499 73.1024 68.4513 72.2488 70.0538 70.8411L66.1363 66.9235Z" fill="white"/>
<path d="M74.1756 74.9629C71.5062 77.4417 67.9301 78.9574 64 78.9574C55.7392 78.9574 49.0426 72.2608 49.0426 64C49.0426 55.7392 55.7392 49.0426 64 49.0426C67.9301 49.0426 71.5062 50.5583 74.1756 53.0372L79.7447 47.4681C75.6486 43.5658 70.104 41.1702 64 41.1702C51.3915 41.1702 41.1702 51.3915 41.1702 64C41.1702 76.6085 51.3915 86.8298 64 86.8298C70.104 86.8298 75.6486 84.4342 79.7447 80.5319L74.1756 74.9629Z" fill="white"/>
<path d="M84.7558 85.543C79.3765 90.7269 72.0605 93.9149 64 93.9149C47.4785 93.9149 34.0851 80.5215 34.0851 64C34.0851 47.4785 47.4785 34.0851 64 34.0851C80.5215 34.0851 93.9149 47.4785 93.9149 64C93.9149 69.8929 92.211 75.3878 89.269 80.019L94.3783 85.1283C98.5524 79.1379 101 71.8548 101 64C101 43.5655 84.4345 27 64 27C43.5655 27 27 43.5655 27 64C27 84.4345 43.5655 101 64 101C71.3831 101 78.2612 98.8375 84.0353 95.1113C89.7664 101 89.7664 101 89.7664 101C89.7664 101 93.8121 97.084 94.9481 95.9814L84.7558 85.543Z" fill="white"/>
</svg>
