<svg width="128" height="128" viewBox="0 0 128 128" fill="none" xmlns="http://www.w3.org/2000/svg">

<path d="M55.0688 83.4656C55.0688 88.179 51.2478 92 46.5344 92C41.821 92 38 88.179 38 83.4656C38 78.7522 41.821 74.9312 46.5344 74.9312C51.2478 74.9312 55.0688 78.7522 55.0688 83.4656Z" fill="white"/>
<path d="M43.5082 36C71.394 36 94 58.6059 94 86.4917C94 89.5338 91.5339 92 88.4918 92C85.4497 92 82.9836 89.5339 82.9836 86.4918C82.9836 64.6902 65.3098 47.0164 43.5082 47.0164C40.4661 47.0164 38 44.5503 38 41.5082C38 38.4661 40.4661 36 43.5082 36Z" fill="white"/>
<path d="M43.7653 54.3617C61.2439 54.4987 75.399 68.5915 75.6363 86.0461C75.889 89.2012 73.3221 92 70.1459 92C67.1038 92 64.6377 89.5339 64.6377 86.4918L64.623 86.4917C64.6229 74.8304 55.1695 65.3771 43.5082 65.3771L43.5082 65.3722C40.4661 65.3722 38 62.9061 38 59.864C38 56.7618 40.6711 54.2196 43.7653 54.3617Z" fill="white"/>
 
</svg>
