<svg width="128" height="128" viewBox="0 0 128 128" fill="none" xmlns="http://www.w3.org/2000/svg">
 
<path d="M42.3143 31C36.0656 31 31 36.0656 31 42.3143V85.6857C31 91.9344 36.0656 97 42.3143 97H89.4571C93.6229 97 97 93.6229 97 89.4571V72.3547C97 64.0997 88.6541 64.337 86.1122 65.9168C80.2599 69.5539 67.6585 77.3803 63.2339 80.0869C62.2827 80.6687 61.2688 81.2181 60.0668 81.2181C57.3064 81.2181 55.0687 78.9804 55.0687 76.22V51.7847C55.0687 49.0243 57.3064 46.7865 60.0668 46.7865C61.2688 46.7865 62.2811 47.3387 63.2339 47.9178C64.6865 48.8007 79.5709 58.051 86.1122 62.1173C88.4022 63.5408 97 65.9168 97 57.0022V38.5429C97 34.3771 93.6229 31 89.4571 31H42.3143Z" fill="url(#paint0_linear_367_112)"/>
<path d="M39.4857 34.7714C34.7992 34.7714 31 38.5706 31 43.2571V84.7429C31 89.4294 34.7992 93.2286 39.4857 93.2286C41.5264 93.2286 43.2478 92.2957 44.8627 91.3079C48.3557 89.1712 54.8504 85.1551 61.7989 80.8485C61.2603 81.071 60.6887 81.2181 60.0668 81.2181C57.3064 81.2181 55.0687 78.9804 55.0687 76.22V51.7847C55.0687 49.0243 57.3064 46.7865 60.0668 46.7865C60.6363 46.7865 61.1632 46.9105 61.6613 47.1025C53.3885 41.965 46.1273 37.4607 44.8627 36.6921C43.245 35.7089 41.5264 34.7714 39.4857 34.7714Z" fill="url(#paint1_linear_367_112)"/>
<defs>
<linearGradient id="paint0_linear_367_112" x1="64" y1="31" x2="64" y2="97" gradientUnits="userSpaceOnUse">
<stop stop-color="#FDD739"/>
<stop offset="0.449419" stop-color="#F18200"/>
<stop offset="0.588589" stop-color="#E11E25"/>
<stop offset="1" stop-color="#A82075"/>
</linearGradient>
<linearGradient id="paint1_linear_367_112" x1="32.194" y1="62.377" x2="55.6613" y2="62.377" gradientUnits="userSpaceOnUse">
<stop stop-color="#0067B0"/>
<stop offset="1" stop-color="#02958A"/>
</linearGradient>
</defs>
</svg>
