<svg width="128" height="128" viewBox="0 0 128 128" fill="none" xmlns="http://www.w3.org/2000/svg">
 
<path fill-rule="evenodd" clip-rule="evenodd" d="M38.202 34C38.6124 34.1637 39.0228 34.3277 39.4328 34.4917C39.4328 36.8683 39.4328 39.2748 39.4328 41.6229C41.5081 41.544 43.2737 41.2545 44.6022 41.9107C44.5203 42.6883 44.4382 43.5083 44.3561 44.3279C43.2935 46.4474 40.6518 46.1011 38.202 46.7867C38.202 48.0161 38.202 49.2458 38.202 50.4752C40.0812 49.4803 41.8518 48.4757 44.3561 48.0161C47.6657 53.3925 33.2109 56.1691 31.0165 59.8195C30.3877 60.6417 30.4232 61.2097 30.5712 62.0325C34.1097 61.5796 40.3049 53.4318 42.8791 59.8195C42.7972 60.1475 42.7151 60.4754 42.6329 60.866C41.467 61.1643 41.3167 61.0836 41.156 62.5245C42.1026 64.0495 42.1323 66.3225 40.5146 67.1966C40.4997 67.5243 40.5816 67.8522 40.6637 68.1802C41.6482 68.0162 42.6332 67.8522 43.6806 67.6883C43.6806 69.0816 43.6806 70.4753 43.6806 71.9107C42.2228 73.0982 40.8277 74.3279 39.4328 75.5573C39.5971 75.7213 39.7611 75.8852 39.9254 76.0489C41.924 75.3449 44.5259 75.6272 45.5869 77.2786C45.0126 78.5081 44.4382 79.8243 43.8638 80.9672C38.5451 81.9426 33.875 90.2782 28.1095 86.8687C26.2902 80.1059 27.8756 79.3792 34.5096 77.7703C34.6835 76.8688 34.6739 76.1951 34.7558 75.0653C34.6739 75.0653 34.6835 75.0653 34.5096 75.0653C33.8534 75.721 33.1969 76.3769 32.5404 77.0325C32.4583 77.0325 32.3764 77.0325 32.2943 77.0325C31.0695 76.8962 31.341 77.0794 31.0165 76.295C28.221 70.6915 28.8327 66.287 28.8481 59.5737C26.368 60.9604 22.6308 62.2489 19.9862 60.3115C19.6582 59.4918 19.3299 58.6719 19.0017 57.8523C27.3297 57.0033 32.2206 56.5553 35.9866 51.4588C35.7405 49.9017 35.4944 48.3441 35.2483 46.7867C34.1817 46.9507 33.1148 47.1854 32.0482 47.2786C31.4738 46.2132 30.8995 45.1472 30.3251 44.0817C32.2037 43.2881 33.8089 43.1019 35.2483 42.1146C36.0233 39.7466 35.2122 38.8929 35.0022 36.4588C36.7515 36.1 37.3969 35.1479 38.202 34ZM104.173 37.1966C105.404 37.7704 106.635 38.3442 107.865 38.918C107.857 41.0998 107.249 41.9806 106.388 43.0982C105.708 43.1803 104.911 43.2621 104.173 43.5563C104.173 43.4261 104.173 43.508 104.173 43.5901C104.419 43.9999 104.665 44.4097 104.911 44.8195C106.094 44.9223 108.033 44.348 108.85 45.0653C109.556 46.4378 109.23 48.0572 108.85 49.4916C107.924 49.9711 106.424 49.9265 105.404 50.4752C105.404 50.9669 105.404 51.4588 105.404 51.9508C105.896 51.9508 106.388 51.9508 106.881 51.9508C107.929 51.3633 108.454 50.9322 109.835 50.7211C110.819 51.2949 111.804 51.8686 112.789 52.4424C111.571 56.1333 108.658 56.8463 108.112 59.5737C108.194 59.5737 108.318 59.5737 108.358 59.5737C109.489 59.1048 110.73 58.7284 112.05 59.0817C112.05 59.4916 112.05 59.9016 112.05 60.3115C110.811 63.0863 107.861 63.2325 106.388 65.6456C106.224 66.8686 106.06 68.2623 105.896 69.6557C106.635 70.3114 107.373 70.967 108.112 71.6229C108.522 71.4589 108.932 71.4155 109.342 71.131C109.26 70.9204 109.178 70.3114 109.096 69.9016C111.756 69.9822 113.588 71.5183 115.496 72.6065C115.978 74.0943 116.527 75.7373 115.743 77.2786C115.332 77.6884 114.922 78.0983 114.512 78.5081C108.98 79.9655 108.668 73.9903 106.142 71.6229C106.378 77.9465 108.361 87.2439 106.635 93.5081C105.322 93.672 104.009 93.836 102.696 94C102.04 88.6725 101.383 83.3436 100.984 78.0161C100.691 75.0243 101.906 69.6732 100.481 67.6883C99.1244 68.6177 98.7653 69.4982 96.5421 69.6557C95.2127 68.8087 94.556 67.9181 93.8342 66.4588C93.8342 66.213 93.8342 65.9672 93.8342 65.7211C95.6581 64.3932 98.7428 62.1447 99.7422 60.0653C99.7422 59.3279 99.7422 58.5898 99.7422 57.8523C99.66 57.8523 99.5779 57.8523 99.496 57.8523C97.1619 58.9093 96.176 60.8855 94.819 57.3604C94.3393 55.8974 94.6873 54.084 95.8034 53.426C97.1983 53.1802 98.5934 53.165 99.9883 52.6883C99.9883 52.1148 99.9883 51.5407 99.9883 50.9672C99.8243 50.8032 99.66 50.6392 99.496 50.4752C98.3325 50.9433 97.0308 51.34 96.296 50.2294C96.1573 49.4098 95.8034 48.8311 95.5573 47.7703C97.9602 46.5936 99.8595 46.2767 99.9883 42.8523C99.8243 42.8523 99.66 42.8523 99.496 42.8523C97.8551 42.6883 96.2135 42.5244 94.5728 42.3604C94.5728 42.1146 94.5728 41.9107 94.5728 41.6229C97.7727 40.1477 100.973 38.7767 104.173 37.1966ZM53.9563 42.6065C55.1869 42.7702 56.4181 42.9342 57.6487 43.0982C57.3461 47.2428 55.2921 52.3271 50.7562 52.4424C50.7562 52.1966 50.7562 51.9508 50.7562 51.7047C51.547 50.1831 52.4878 49.3606 52.7255 47.2786C51.7503 46.3932 51.1037 45.9115 50.7562 44.3279C51.8228 43.7541 52.8897 43.18 53.9563 42.6065ZM89.8253 44.3279C92.1731 44.2431 93.3912 44.6858 94.819 45.5573C94.7957 47.7671 94.2338 48.9834 93.342 50.2294C92.1117 50.4557 91.8262 50.355 91.3728 51.4588C91.3728 52.1145 91.3728 52.7704 91.3728 53.426C92.1111 53.5082 92.9913 53.59 93.5881 53.6718C93.5881 53.754 93.5881 53.8358 93.5881 53.918C93.0632 56.9634 91.7855 59.4214 91.1266 61.5409C90.5523 66.9502 89.9776 72.361 89.4035 77.7703C88.9681 78.6368 88.6352 78.5582 87.434 78.7539C87.27 78.5081 87.1058 78.2622 86.9418 78.0161C86.1213 76.1981 85.3005 74.0515 84.4803 71.9107C85.2321 71.7869 85.4648 71.7048 85.957 71.6229C86.2049 70.1989 86.8177 68.1368 86.2034 66.7047C85.3669 67.3926 85.0107 67.7217 83.7417 67.4424C83.4956 65.8032 83.4932 64.1637 83.0033 62.5245C84.4824 61.4683 86.0738 60.003 86.6593 57.8523C84.7489 56.7814 83.7123 56.0576 83.4956 53.426C85.4607 52.9894 86.0383 52.4867 86.6957 50.7211C86.6593 50.4752 86.2034 50.2294 85.957 49.9836C85.0547 49.8196 84.1518 49.6556 83.4932 49.4916C83.1673 48.672 83.0852 47.8521 83.0033 47.0325L89.8253 44.5737C89.8253 44.5466 89.8253 44.4097 89.8253 44.3279ZM19.0017 45.0653C23.3234 44.8303 29.5203 47.9777 27.8505 52.1966C26.7027 53.9876 18.6414 53.3616 17.2786 51.7047C17.4426 51.4588 17.6068 51.4699 17.7708 50.9672C19.1013 50.6692 20.4018 50.1048 19.8554 48.5081C19.2519 47.6456 18.9574 47.2017 17.5247 47.0325C17.8713 45.843 18.2613 45.7682 19.0017 45.0653ZM75.6184 46.0489C79.8795 45.8552 84.6379 50.0713 82.5108 53.6718C79.0637 53.7403 73.6596 54.195 71.6799 52.4424C73.3142 52.1395 74.7292 51.3036 75.4981 50.2294C75.4981 49.9836 75.4981 49.8214 75.4981 49.4916C74.2355 48.8509 73.5962 48.4064 72.6644 47.2786C72.833 47.1854 72.8287 46.9507 72.9108 46.7867C73.8131 46.6903 74.7161 46.295 75.6184 46.0489ZM16.2938 55.3932C16.6894 55.3932 16.7863 55.3932 17.0325 55.3932C17.0325 55.7212 17.0325 56.0491 17.0325 56.3768C16.376 57.1146 15.7195 57.8523 15.0629 58.5901C15.1078 62.4572 17.0654 63.3854 19.0017 64.9836C18.7125 69.4629 17.9561 75.5817 20.9709 77.5245C23.5515 75.5503 26.2681 70.8854 27.3711 67.4424C27.4532 67.4424 27.5351 67.4424 27.8505 67.4424C27.1002 75.3452 23.4516 82.6891 19.0017 86.8687C18.5913 86.8687 18.1812 86.8687 17.7708 86.8687C17.1964 86.5408 16.6221 86.2128 16.0477 85.8851C14.8142 80.3963 16.4141 73.7016 15.0629 67.6883C14.2483 64.0615 12.2767 60.695 11.8631 55.8851C11.945 55.803 12.0271 55.7212 12.1093 55.6393C13.4974 56.2183 15.1509 56.2629 16.2938 55.3932ZM68.2337 55.6393C77.0531 62.5265 71.5209 66.4582 74.1414 77.0325C74.3875 77.1854 74.6339 77.1965 74.88 77.2786C78.3606 74.9975 80.3692 71.0474 82.7572 67.6883C82.9212 67.7704 83.0852 67.8522 83.4932 67.9344C83.4932 68.426 83.4932 68.918 83.4932 69.4096C81.9035 73.8015 76.3827 89.3748 70.9413 86.8687C71.0234 83.0165 71.1056 79.3233 71.1877 75.3115C70.0171 68.6981 65.8253 62.2355 68.2337 55.6393ZM51.9871 58.8359C56.024 58.7401 59.5037 63.3799 57.6487 66.4588C53.6033 67.6664 52.4595 71.4301 48.5097 71.6229C48.1305 71.4589 47.9665 71.4155 47.8023 71.131C49.3512 69.0499 51.6111 66.3875 52.2332 63.5081C52.6931 61.466 51.3664 60.4204 51.9871 58.8359ZM35.4944 62.5245C33.8965 63.7017 32.9214 64.695 32.0482 66.7047C32.2122 66.8686 32.3764 67.0326 32.5404 67.1966C33.3609 66.377 34.1817 65.5571 35.0022 64.7375C35.5762 64.2458 36.1509 63.7539 36.7253 63.2622C36.8476 63.0164 36.561 62.7703 36.4789 62.5245C36.1509 62.5245 35.8227 62.5245 35.4944 62.5245ZM53.4641 71.6229C56.7624 71.6946 62.9199 78.19 59.3718 80.7211C55.136 82.6358 51.9822 84.8844 46.0792 84.9015C46.1613 84.7376 46.3457 84.5736 46.3253 84.601C51.0364 83.0675 55.4534 77.4927 52.2332 73.0982C52.3154 72.7705 52.3972 72.4425 52.4794 72.1146C52.8076 71.9506 53.1359 71.7866 53.4641 71.6229Z" fill="black"/>
</svg>
