<svg width="128" height="128" viewBox="0 0 128 128" fill="none" xmlns="http://www.w3.org/2000/svg">
<path d="M36.4041 26.769C22.0447 26.769 10.4041 38.4096 10.4041 52.769V88.1007C10.4041 93.0713 14.4336 97.1007 19.4041 97.1007H20.3341C25.3046 97.1007 29.3341 93.0713 29.3341 88.1007V77.8932H47.1455C52.6683 77.8932 57.1455 73.3705 57.1455 67.8477C57.1455 62.3248 52.6683 57.8021 47.1455 57.8021H28.8872V52.5225C28.8872 48.1042 32.469 44.5225 36.8872 44.5225H65.1834V73.959C66.4575 87.4074 77.7822 97.9283 91.5642 97.9283C106.2 97.9283 118.064 86.0639 118.064 71.4283C118.064 56.7928 106.2 44.9283 91.5642 44.9283C90.5253 44.9283 89.5005 44.9881 88.4928 45.1044V64.584C89.4302 64.1627 90.4698 63.9283 91.5642 63.9283C95.7063 63.9283 99.0642 67.2862 99.0642 71.4283C99.0642 75.5705 95.7063 78.9283 91.5642 78.9283C88.1183 78.9283 85.2152 76.6045 84.3366 73.4385V36.769C84.3366 31.2462 79.8594 26.769 74.3366 26.769H36.4041Z" fill="#0099FF"/>
</svg>
