<svg width="128" height="128" viewBox="0 0 128 128" fill="none" xmlns="http://www.w3.org/2000/svg">
 

<path d="M113.361 69.8734C113.112 69.8734 112.987 69.9984 112.862 70.2483C111.862 73.1225 110.487 74.872 109.363 74.872C108.738 74.872 108.488 74.1222 108.488 72.9975C108.921 68.7403 109.844 64.5471 111.237 60.501C111.237 59.6262 110.737 59.2513 109.612 59.2513C108.488 59.2513 107.113 59.6262 105.988 61.7506C105.614 59.8761 104.239 59.1263 102.489 59.1263C100.365 59.1263 98.3656 60.376 96.741 62.6254C95.1165 64.7498 93.117 65.4996 91.7424 65.1247C92.5632 63.2699 93.0295 61.2778 93.117 59.2513C93.117 57.0019 91.9923 55.6273 90.2428 55.6273C87.4935 55.6273 85.9939 58.1266 85.9939 61.0008C85.9939 63.0003 86.8687 65.2497 88.9931 66.2494C87.2436 70.2483 84.7443 73.7473 83.7446 73.7473C82.4949 73.7473 82.12 67.749 82.12 63.2502C82.12 60.7509 82.3699 60.6259 82.3699 59.8761C82.3699 59.3763 82.12 59.1263 80.9953 59.1263C78.371 59.1263 77.4963 61.3757 77.2463 64C77.2463 64.9997 77.2463 65.9995 76.8714 66.8742C75.7468 70.8731 73.4974 73.8723 71.8728 73.8723C71.248 73.8723 71.123 73.2475 71.123 72.2478C71.123 69.3735 72.7476 65.8745 72.7476 62.7504C72.7476 60.501 71.7478 59.0014 69.8734 59.0014C67.7489 59.0014 64.8747 61.7506 62.0005 66.4993C63.0002 62.7504 63.2502 59.2513 60.7509 59.2513C60.1455 59.2281 59.544 59.357 59.0013 59.6262C58.8279 59.7241 58.6877 59.8716 58.5986 60.0497C58.5096 60.2278 58.4758 60.4285 58.5015 60.6259C58.7514 64.6248 55.2524 74.7471 52.0033 74.7471C51.3784 74.7471 51.1285 74.1222 51.1285 72.9975C51.5632 68.7405 52.4857 64.5474 53.8777 60.501C53.8777 59.6262 53.3779 59.2513 52.2532 59.2513C51.1285 59.2513 49.7539 59.7512 48.6292 61.7506C48.2543 60.0011 46.8797 59.2513 45.1301 59.2513C42.131 59.2513 38.8819 62.2505 37.5072 66.3744C35.5078 71.7479 31.6338 76.9964 26.2603 76.9964C21.6366 76.9964 19.1373 72.9975 19.1373 66.7493C19.0123 57.6268 25.7605 50.2538 30.6341 50.2538C33.1334 50.2538 34.1332 51.7534 34.1332 54.0028C34.1332 56.877 32.6336 58.1266 32.6336 59.2513C32.6336 59.5012 32.8835 59.8761 33.3834 59.8761C35.5078 59.8761 38.0071 57.3768 38.0071 53.8778C38.0071 50.3787 35.2579 48.0044 30.3842 48.0044C22.2614 48.0044 14.0137 56.0022 14.0137 66.7493C14.0137 74.997 18.1375 79.9956 25.2606 79.9956C30.1343 79.9956 34.3831 76.2467 36.6325 71.8729C36.8824 75.4969 38.6319 77.3713 41.1312 77.3713C43.3806 77.3713 45.1301 76.1217 46.6297 73.6224C47.1296 76.1217 48.5042 77.3713 50.3787 77.3713C52.5031 77.3713 54.1277 76.1217 55.8772 73.6224C55.8772 75.4969 56.3771 77.3713 58.0016 77.3713C58.8764 77.3713 59.7511 77.1214 60.0011 76.4966C61.7506 68.9986 66.2494 63.0003 67.499 63.0003C67.8739 63.0003 67.9989 63.3752 67.9989 63.875C67.9989 65.8745 66.6243 69.9984 66.6243 72.6226C66.6243 75.4969 67.8739 77.3713 70.3732 77.3713C73.1225 77.3713 75.8717 73.9973 77.8712 68.9986C78.371 73.6224 79.6207 77.3713 81.6201 77.3713C84.1195 77.3713 88.3683 72.2478 90.9926 66.7493C91.9923 66.8742 93.4919 66.8742 94.9915 65.8745C94.3495 67.4638 94.0104 69.1592 93.9917 70.8731C93.9917 75.8718 96.4911 77.3713 98.4905 77.3713C100.74 77.3713 102.489 76.1217 103.864 73.6224C104.364 75.7468 105.489 77.3713 107.613 77.3713C111.112 77.3713 113.986 73.8723 113.986 71.1231C113.986 70.3733 113.736 69.8734 113.361 69.8734ZM43.1307 74.6221C41.881 74.6221 41.2562 73.2475 41.2562 71.248C41.2562 67.624 43.7555 61.7506 46.2548 61.7506C47.3795 61.7506 47.7544 63.0003 47.7544 64.6248C47.7544 68.2488 45.505 74.6221 43.1307 74.6221ZM89.8679 64C89.0934 63.0021 88.6952 61.7633 88.7432 60.501C88.7432 59.1263 89.368 57.8767 89.9928 57.8767C90.6177 57.8767 90.8676 58.5015 90.8676 59.3763C90.8676 60.7509 90.2428 62.8753 89.8679 64ZM100.49 74.6221C99.2403 74.6221 98.6155 72.9975 98.6155 71.248C98.6155 67.749 101.115 61.7506 103.614 61.7506C104.864 61.7506 105.114 63.0003 105.114 64.6248C105.114 68.2488 102.864 74.6221 100.49 74.6221Z" fill="white"/>
  
</svg>
