<svg width="128" height="128" viewBox="0 0 128 128" fill="none" xmlns="http://www.w3.org/2000/svg">
 
<path d="M40.5 107V86V79.5H88V86H86V102H80.5V107H40.5Z" fill="white"/>
<path d="M74.5 22H52V27.5H45.5V33H40.5V39H34V43H28V49H23.5V60H17V80.5H23.5V86H40.5V80.5H86.5V86H103V80.5H110V60H103V49H97.5V43H92.5V37.5H85.5V33H80V27.5H74.5V22Z" fill="#F7B400"/>
<path d="M80.5 27.5H69V32H63V44H69V48.5H86.5V44H93V37.5H86.5V32H80.5V27.5Z" fill="#00AB00"/>
<path d="M51.5 48.5H34.5V53.5H28.5V71H34.5V75.5H51.5V70H57.5V53.5H51.5V48.5Z" fill="#00AB00"/>
<path d="M98 59.5H86V70.5H92.5V75.5H105V64.5H98V59.5Z" fill="#00AB00"/>
<path d="M28.5 86V80.5H45.5V86H28.5Z" fill="#00AB00"/>
<path d="M81.5 86V80.5H98.5V86H81.5Z" fill="#00AB00"/>
<path d="M69.5 107H75.5V102H80.5V92H75V102H69.5V107Z" fill="#F7B400"/>
<path d="M38.5 107V102H46V107H38.5Z" fill="#FFF0F7"/>
</svg>
