<svg width="128" height="128" viewBox="0 0 128 128" fill="none" xmlns="http://www.w3.org/2000/svg">
 
<path d="M75.2453 30.9801C70.7583 33.1453 67.3927 36.794 64.9349 40.9313C60.9833 34.2884 54.7014 28.9011 45.1872 28.9011C35.6692 28.9011 24 36.9788 24 50.6237C24 64.4384 35.5276 70.9866 41.2374 74.6841C47.3402 78.6329 57.7538 85.8122 64.934 99.099C72.117 85.8132 82.5287 78.6329 88.6333 74.6841C92.9225 71.9037 100.5 67.5133 104 59.6363L75.2453 30.9801ZM74.9012 60.4203V34.46L100.861 60.4193H74.9012V60.4203Z" fill="white"/>
<path d="M74.9011 60.4202V34.46L100.861 60.4202H74.9011Z" fill="#E5322D"/>
</svg>
