<svg width="128" height="128" viewBox="0 0 128 128" fill="none" xmlns="http://www.w3.org/2000/svg">
 
<path fill-rule="evenodd" clip-rule="evenodd" d="M49.153 37.6624C51.8354 32.0241 55.5588 25.6791 59.6452 19.7151C67.4872 21.8325 75.0487 24.8469 82.3587 28.8526C102.062 39.6495 106.103 47.441 105.593 47.0456L93.9773 63.9434C87.2975 56.2499 81.6098 51.1387 72.9198 46.3768C65.431 42.2732 59.6452 39.6504 49.153 37.6624Z" fill="#6A15FF"/>
<path fill-rule="evenodd" clip-rule="evenodd" d="M94.5597 65.0484C98.2283 70.1007 102.02 76.4053 105.303 82.8466C99.6927 88.7207 93.6123 94.2189 86.4148 98.4234C74.0849 105.626 64.1384 110.259 59.0919 110.859L48.7399 91.7462C58.6912 89.5596 67.2012 87.1066 75.5394 81.7525C82.725 77.1386 87.7956 73.3119 94.5597 65.0484Z" fill="#15C701"/>
<path fill-rule="evenodd" clip-rule="evenodd" d="M48.3064 91.6267C42.0922 92.2344 33.9776 92.0544 26.7605 91.6268C24.5328 83.8155 23.2227 75.9908 22.8872 67.662C22.1469 49.2835 27.3301 37.7846 27.2546 38.4261L47.676 38.4261C44.5265 48.1158 43.1242 56.8675 43.5231 66.7687C43.8668 75.3012 44.6016 81.611 48.3064 91.6267Z" fill="#010001"/>
</svg>
