<svg width="128" height="128" viewBox="0 0 128 128" fill="none" xmlns="http://www.w3.org/2000/svg">
 
<path fill-rule="evenodd" clip-rule="evenodd" d="M51.86 34.9V25.54H22.34V35.26H30.401C28.7011 49.7463 25.7929 63.4551 20 72.43C21.8 74.77 24.59 79.99 25.58 82.42C26.2662 81.4055 26.9259 80.3454 27.56 79.2431V101.77H36.2V95.38H48.3659L49.88 102.4C52.4405 101.984 55.2287 101.511 58.1434 101.001L57.5 99.5L55.5 96.5L60.5 92L58 87L61.5 85L57.9597 82.9348C56.028 86.4582 54.0847 89.7677 52.2369 92.6602C51.8348 92.715 51.4391 92.7683 51.05 92.82V65.8606C53.3507 68.3733 55.6674 71.2479 57.6498 74.0145L60 72L62.5 70V66L62.6182 65.8818C62.2213 65.3773 61.8116 64.8688 61.3915 64.359C61.5311 64.1182 61.6712 63.8734 61.8118 63.6247L61.5 63.5L62.1363 63.0455C62.2409 62.8573 62.3456 62.6672 62.4505 62.4753L60.5 61.5L63 58.5L60 57L64 54L61.5 51.5L63 50L61.5 48L64 47.5L65 46L62.5 44.5L62.6222 44.3778L61.4072 44.08H62.92L65 42L63 40.5L65 38.5L61.5 36V34.9H51.86ZM51.68 35.26H40.2164C39.382 41.4498 38.3188 47.584 36.9649 53.44H51.05V61.3312L53.93 56.32C54.5154 56.8746 55.1056 57.4527 55.6954 58.0483C57.7788 53.4315 59.7739 48.2481 61.0133 44.08H51.68V35.26ZM36.2 62.8H42.23V86.11H36.2V62.8Z" fill="#1B53F6"/>
<path d="M61.5 32.8824C61.3526 32.5282 61.2002 32.172 61.0434 31.815L61.5 32.5V32.8824Z" fill="#1B53F6"/>
<path d="M60.6366 30.909L66.5 27L64 24L66.9663 22.8135C66.7921 22.5478 66.6166 22.2864 66.44 22.03L57.62 25.18C58.6767 26.9161 59.7177 28.9054 60.6366 30.909Z" fill="#1B53F6"/>
<path d="M69.6455 27.4241L69 28.5L63.5 32H66V36.5L69 38.5L67 41.5H69.5V44.08H105.32V34.9H95.2577C96.6144 32.5912 98.0849 29.9176 99.5839 27.1924C100.084 26.2835 100.587 25.3688 101.09 24.46L89.93 21.58C88.8981 25.5354 86.8804 30.9697 84.9758 34.9H72.8028C72.1593 32.7847 71.0295 30.0965 69.6455 27.4241Z" fill="#1B53F6"/>
<path d="M67.9461 45.6827L69 47L65.5 49H67.5V51.5H66L66.9709 53.4419C68.101 51.0238 69.1984 48.5751 70.22 46.24L67.9461 45.6827Z" fill="#1B53F6"/>
<path fill-rule="evenodd" clip-rule="evenodd" d="M67.7808 62.7192L69.5 61V58.4916C69.847 57.6009 70.1776 56.7259 70.49 55.87L78.4934 59.1758L79.76 57.04C80.2664 57.5183 80.7757 58.0161 81.2844 58.5289C83.2979 53.8011 85.1854 48.4929 86.42 44.26L95.6 46.42C92.8981 52.673 89.7988 59.7207 87.0407 65.007C88.3571 66.6565 89.5475 68.2839 90.5216 69.7761C92.645 65.291 94.5545 60.8582 96.05 56.86L104.51 60.1C101.624 66.3686 98.1725 73.2248 94.632 79.6946L101 76.84C104.06 84.22 106.58 93.85 107.21 100.33L98.75 104.02C98.6385 102.437 98.4165 100.644 98.1018 98.7281C91.4393 100.178 84.8693 101.573 79.31 102.67L78.7865 100.616L72.2 103.48C72.1144 102.004 71.9271 100.334 71.6611 98.5491C68.8538 99.0745 66.0262 99.5944 63.256 100.093L60.5 95.5L65 93L64.1691 90.9228C65.3207 90.7493 66.4868 90.5729 67.6619 90.3951C68.4446 90.2767 69.2313 90.1577 70.0202 90.0386C69.3337 87.0493 68.5436 84.0591 67.7316 81.3429C66.9179 82.838 66.1018 84.3096 65.2884 85.7461L63 83L60.5 81.5L62 79.5V75L65 73V71.5L66 69.5V66.7989C66.12 66.5322 66.2391 66.2658 66.3574 66H68L67.5455 63.2733C67.6245 63.0882 67.7029 62.9035 67.7808 62.7192ZM68.5229 79.8798L75.17 77.02C76.654 81.313 77.982 86.3239 78.9701 90.9866C81.2285 87.4349 83.6065 83.3035 85.9093 78.9652C83.5874 74.8315 79.6508 69.5047 75.8525 65.4888C73.5591 70.242 71.0618 75.1576 68.5229 79.8798ZM87.5905 91.8021C89.5545 88.6557 91.592 85.1741 93.6154 81.5372C94.6152 84.2754 95.5276 87.2716 96.3 90.2666C93.2968 90.8092 90.3615 91.3286 87.5905 91.8021Z" fill="#1B53F6"/>
<path d="M65.1445 86H63V88L63.4061 89.0151C63.9827 88.0313 64.5628 87.0248 65.1445 86Z" fill="#1B53F6"/>
</svg>
