<svg width="128" height="128" viewBox="0 0 128 128" fill="none" xmlns="http://www.w3.org/2000/svg">
 
<path d="M26.9941 41.8838C26.6675 41.8838 26.4009 42.1449 26.394 42.4714L26.1662 53.2735L23.0159 52.9529C22.7408 52.9249 22.4821 53.0885 22.3895 53.3491L19.0347 62.7933C18.9521 63.0258 19.0201 63.2851 19.2062 63.447L23.5041 67.1868C23.7921 67.4374 24.2428 67.3068 24.3521 66.941L25.9782 61.4984L25.4484 85.4288C25.441 85.7641 25.7098 86.0404 26.0452 86.0423L32.5954 86.0788C32.9331 86.0807 33.2059 85.8037 33.1988 85.466L32.5945 56.6074H34.833C35.1805 56.6074 35.4554 56.3132 35.4318 55.9665L34.886 47.9426C34.8726 47.7458 34.709 47.593 34.5117 47.593H32.4965L32.3769 42.47C32.3693 42.1441 32.1029 41.8838 31.7769 41.8838H26.9941Z" fill="#202020"/>
<path d="M79.6576 76.1337C79.3592 76.3502 79.302 76.5713 79.6576 76.7087C79.757 76.7472 79.8863 76.794 80.0346 76.8477C80.9666 77.185 82.6503 77.7946 82.419 78.3115C81.8268 79.6346 80.4326 80.2925 79.1558 80.2925C77.0612 80.2925 75.3632 78.5944 75.3632 76.4998C75.3632 74.4052 77.0612 72.7072 79.1558 72.7072C80.4595 72.7072 81.6416 73.3917 82.0962 74.1292C82.4634 74.7249 81.0814 75.4078 80.228 75.8295C79.9663 75.9587 79.7542 76.0635 79.6576 76.1337Z" fill="#202020"/>
<path fill-rule="evenodd" clip-rule="evenodd" d="M40.9205 62.3773C40.9205 62.3773 41.4816 59.2695 41.677 56.7436C40.4832 56.8815 39.2583 57.0453 38.5317 57.1452C38.1789 57.1938 37.861 56.9277 37.8472 56.5718L37.6579 51.6832C37.6489 51.4494 37.8194 51.2476 38.0514 51.2177C38.8604 51.1132 40.7246 50.8643 42.3334 50.5883C42.5944 47.8949 42.7282 43.5888 42.7635 42.3156C42.7692 42.112 42.9358 41.9499 43.1394 41.9499H48.4277C48.6439 41.9499 48.8153 42.132 48.8022 42.3478L48.3558 49.681L58.7725 48.1295C58.9031 48.11 59.0311 48.1782 59.0877 48.2975L60.7376 51.7685C60.7803 51.8582 60.7856 51.9611 60.7524 52.0548L57.8984 60.1144L68.448 58.7224L69.3733 57.081L65.5717 57.5069C65.3646 57.5301 65.1783 57.3801 65.1568 57.1728L64.7664 53.4131C64.7451 53.2079 64.8934 53.024 65.0985 53.0015L72.248 52.2143L73.2143 50.3735L65.0697 51.4457C64.7345 51.4898 64.429 51.2485 64.3943 50.9122L63.9323 46.4328C63.9124 46.2395 64.0434 46.063 64.2342 46.026L85.3972 41.9302C85.7547 41.861 86.091 42.1235 86.1106 42.4871L86.421 48.2452C86.4337 48.4806 86.2627 48.6859 86.029 48.716L79.1197 49.6052L78.2487 51.4219L85.9765 50.5628C86.2311 50.5345 86.458 50.7241 86.4754 50.9797L86.7212 54.6039C86.7376 54.8452 86.5604 55.0563 86.3199 55.082L75.8605 56.1982L75.16 57.7744L93.9586 55.3198C94.1973 55.2886 94.4031 55.4871 94.3807 55.7267L93.797 61.9569C93.7638 62.3118 93.4854 62.5943 93.131 62.6328L71.2911 65.0027L70.4473 66.5788L88.8027 64.6671C89.0499 64.6414 89.2711 64.8208 89.2971 65.0679L91.4252 85.3641C91.4624 85.7184 91.1845 86.0269 90.8283 86.0269H67.2488C66.9829 86.0269 66.7749 85.7976 66.8007 85.533L68.2982 70.1894L63.4374 77.5048C63.2463 77.7924 62.8158 77.7666 62.6604 77.4582L59.6488 71.4798C59.5438 71.2715 59.5691 71.0212 59.7135 70.8381L63.6071 65.9006C63.6071 65.9006 52.4809 67.102 46.8045 67.7178C46.4011 72.3712 44.5084 83.1974 44.0793 85.6215C44.0286 85.9077 43.781 86.1089 43.4904 86.1089H36.1453C35.7326 86.1089 35.4398 85.7045 35.5684 85.3123C36.3308 82.9878 38.5455 75.9054 39.7948 68.4628C37.9955 68.6891 36.3422 68.87 35.4673 68.9628C35.1167 68.9999 34.8121 68.7269 34.8082 68.3743L34.7542 63.5243C34.7517 63.2946 34.9225 63.0998 35.1505 63.0724L40.9205 62.3773ZM47.9528 55.8803L51.8756 55.3062L50.8505 61.0331L47.4608 61.4842L47.9528 55.8803ZM85.8554 76.9815C85.8554 78.1434 84.1657 79.7022 82.8651 80.6894C81.8071 81.4925 80.434 81.9774 78.9335 81.9774C77.5556 81.9774 76.2851 81.5685 75.2674 80.8798C73.8145 79.8966 71.9582 78.3065 71.9582 77.0241C71.9582 76.3682 72.7082 75.3129 73.3744 74.3755C73.5315 74.1544 73.6839 73.9399 73.8208 73.7387C74.1356 73.276 73.9168 72.8587 73.7459 72.5329C73.6978 72.441 73.6534 72.3565 73.6259 72.2802C73.3386 71.4832 74.1088 71.1498 74.6261 71.3912C74.7562 71.4519 74.8707 71.5408 74.9846 71.6292C75.281 71.8594 75.5735 72.0865 76.1278 71.8062C76.5836 71.5758 76.9096 71.4382 77.4613 71.3208C77.9718 71.2122 78.1309 70.6855 78.2554 70.2737C78.2839 70.1793 78.3106 70.0909 78.3393 70.015C78.5249 69.5241 79.2984 69.6979 79.4637 70.015C79.511 70.1057 79.5379 70.2289 79.5676 70.3651C79.6482 70.7341 79.7495 71.1982 80.3338 71.3689C80.8773 71.5276 81.4036 71.6923 81.8816 71.9473C82.1563 72.0938 82.4354 71.9002 82.7384 71.6899C82.9761 71.525 83.2285 71.3499 83.5052 71.3205C83.9041 71.2781 84.3778 71.5466 84.1631 72.2289C84.1421 72.2958 84.1004 72.382 84.0528 72.4805C83.9057 72.7848 83.7013 73.2074 83.8689 73.5497C84.0759 73.9723 84.4164 74.4369 84.7576 74.9024C85.3057 75.6503 85.8554 76.4004 85.8554 76.9815Z" fill="#202020"/>
<path d="M54.6861 68.3402L49.3424 68.881C48.9429 68.9214 48.695 69.3352 48.8478 69.7066L55.4061 85.6398C55.5218 85.921 55.7958 86.1045 56.0999 86.1045H63.1483C63.5947 86.1045 63.8849 85.6347 63.6851 85.2356L55.4326 68.7508C55.2931 68.4723 54.9961 68.3089 54.6861 68.3402Z" fill="#202020"/>
<path d="M99.3779 45.1506L108.359 44.5475C108.742 44.5218 109.051 44.8574 108.993 45.2369L104.702 73.3667C104.646 73.7331 104.331 74.0038 103.96 74.0038H97.0882C96.6486 74.0038 96.3031 73.6276 96.3406 73.1896L98.6806 45.8352C98.7122 45.4662 99.0084 45.1754 99.3779 45.1506Z" fill="#202020"/>
<path d="M95.1082 85.2907L95.9391 77.0628C95.9701 76.7562 96.2282 76.5229 96.5363 76.5229H103.465C103.821 76.5229 104.098 76.8298 104.062 77.1833L103.231 85.4412C103.193 85.8246 102.87 86.1164 102.485 86.1164H95.8546C95.4105 86.1164 95.0635 85.7326 95.1082 85.2907Z" fill="#202020"/>
</svg>
