<svg width="128" height="128" viewBox="0 0 128 128" fill="none" xmlns="http://www.w3.org/2000/svg">
 
<path d="M47.729 27.3C21.1682 17.5616 22.2389 24.4396 22.3803 27.3C23.1084 42.0327 27.285 47.4792 30.8095 53.0271L31.5928 54.5249C30.8095 56.0726 30.3942 58.2212 30.8095 64.8433C31.5928 77.3331 39.4297 83.2522 49.7571 85.2298C54.2154 86.0835 60.2864 86.4347 63.727 86.4347V89.7057C63.727 91.9337 54.2629 97.3916 54.2629 106.526C54.2629 107.584 53.8883 107.863 53.3109 107.863H48.6177C45.538 107.863 37.8643 103.693 38.0434 97.7822C38.1397 94.6063 34.8856 94.3058 34.8856 97.7822C34.8856 100.361 36.0556 110.695 48.999 113.541C50.9751 113.976 55.5172 113.541 55.7215 114.143C56.818 117.375 61.6625 121.062 68.9835 120.802C78.1102 120.478 81.3473 115.39 81.7208 105.842C81.9207 100.73 76.9315 88.5727 76.6247 86.8418C76.3895 85.5152 76.8481 85.6707 77.9674 85.535C116.935 80.8123 106.262 54.6417 105.64 51.2593C105.46 50.2797 105.893 49.3619 106.262 48.5786C108.165 44.5458 113.001 37.6819 111.652 22.1124C110.894 13.374 88.169 24.4224 86.0516 25.4808C85.3187 25.8472 83.9626 26.1903 82.7794 25.4808C79.9756 23.7995 63.3745 19.8523 50.7313 27.3C49.671 27.9246 49.5214 27.9572 47.729 27.3Z" fill="black"/>
</svg>
