<svg width="128" height="128" viewBox="0 0 128 128" fill="none" xmlns="http://www.w3.org/2000/svg">
 
<path fill-rule="evenodd" clip-rule="evenodd" d="M20.0294 69.009C20.0294 78.1007 27.3997 85.471 36.4915 85.471C45.5833 85.471 52.9536 78.1007 52.9536 69.009C52.9536 59.9172 45.5833 52.5469 36.4915 52.5469C27.3997 52.5469 20.0294 59.9172 20.0294 69.009ZM41.0301 60.6253C41.0301 62.4891 42.541 64 44.4048 64C46.2686 64 47.7795 62.4891 47.7795 60.6253C47.7795 58.7615 46.2686 57.2506 44.4048 57.2506C42.541 57.2506 41.0301 58.7615 41.0301 60.6253Z" fill="#24201C"/>
<path fill-rule="evenodd" clip-rule="evenodd" d="M106.345 69.009C106.345 78.1007 98.9745 85.471 89.8827 85.471C80.791 85.471 73.4206 78.1007 73.4206 69.009C73.4206 59.9172 80.791 52.5469 89.8827 52.5469C98.9745 52.5469 106.345 59.9172 106.345 69.009ZM85.3442 60.6253C85.3442 62.4891 83.8333 64 81.9695 64C80.1057 64 78.5948 62.4891 78.5948 60.6253C78.5948 58.7615 80.1057 57.2506 81.9695 57.2506C83.8333 57.2506 85.3442 58.7615 85.3442 60.6253Z" fill="#24201C"/>
<path fill-rule="evenodd" clip-rule="evenodd" d="M43.9645 127.785C42.5157 127.785 41.5476 126.293 42.1383 124.97L45.5752 117.273C34.4033 114.811 25.316 109.995 18.5958 103.616C18.3042 103.62 18.0087 103.623 17.7099 103.623C12.4981 103.623 8.27315 102.936 8.27315 102.09C8.27315 101.356 11.4483 100.743 15.689 100.593C14.7562 99.5285 13.8819 98.4292 13.067 97.2979C12.4313 97.3199 11.772 97.3314 11.0961 97.3314C5.88433 97.3314 1.65936 96.6453 1.65936 95.799C1.65936 94.954 5.87077 94.2687 11.071 94.2665C7.09136 87.6286 5.00778 80.069 5.00778 72.1126C5.00778 65.252 5.83988 59.1987 8.93258 53.2851C10.8735 49.5739 11.711 37.7146 12.4255 27.5965C12.8496 21.5923 13.2303 16.2013 13.7725 13.4899C14.9838 7.43337 28.3807 12.7754 41.5031 18.008C50.2277 21.487 58.8311 24.9176 63.6511 24.9176C68.5669 24.9176 76.3449 21.579 84.346 18.1446C97.352 12.5618 110.948 6.72598 113.799 14.5655C115.458 19.1286 115.845 27.6294 116.209 35.6385C116.553 43.2034 116.877 50.3296 118.235 53.2851C120.701 58.653 121.41 66.0236 121.41 72.1126C121.41 80.2295 119.432 87.7482 115.65 94.2839C116.116 94.2724 116.593 94.2665 117.078 94.2665C122.29 94.2665 126.515 94.9526 126.515 95.7989C126.515 96.6453 122.29 97.3314 117.078 97.3314C115.915 97.3314 114.802 97.2972 113.773 97.2348C112.976 98.38 112.118 99.49 111.201 100.562C116.068 100.623 119.901 101.284 119.901 102.09C119.901 102.936 115.676 103.623 110.464 103.623C109.74 103.623 109.034 103.609 108.356 103.584C101.669 110.049 92.5384 114.83 81.2597 117.273L84.7791 124.952C85.3862 126.277 84.4182 127.785 82.9609 127.785H43.9645ZM57.5542 70.9773C57.5542 58.2747 47.2568 47.9773 34.5542 47.9773H25.5427C20.0199 47.9773 15.5427 52.4544 15.5427 57.9773V67.774C15.5427 80.4766 25.8402 90.774 38.5427 90.774H47.5542C53.0771 90.774 57.5542 86.2968 57.5542 80.774V70.9773ZM68.82 70.9773C68.82 58.2747 79.1175 47.9773 91.82 47.9773H100.831C106.354 47.9773 110.831 52.4544 110.831 57.9773V67.774C110.831 80.4766 100.534 90.774 87.8315 90.774H78.82C73.2972 90.774 68.82 86.2969 68.82 80.774V70.9773ZM24.1819 34.4762L24.7033 25.1775L33.225 28.176C33.225 28.176 26.4848 30.9566 24.1819 34.4762ZM103.221 34.4762L102.7 25.1775L94.1779 28.1761C94.1779 28.1761 100.918 30.9566 103.221 34.4762ZM68.1722 86.5153H57.8278C56.9052 86.5153 56.4748 87.6581 57.1681 88.2668L61.7477 92.287C62.291 92.764 63.0974 92.7855 63.6654 92.3381L68.791 88.3008C69.5366 87.7136 69.1213 86.5153 68.1722 86.5153Z" fill="#24201C"/>
</svg>
