<svg width="128" height="128" viewBox="0 0 128 128" fill="none" xmlns="http://www.w3.org/2000/svg">
 
<path d="M34.6281 65.8263C37.8869 65.8031 41.1459 65.8205 44.4049 65.8205C47.6011 65.8214 50.7975 65.8034 53.9935 65.8274L34.6281 65.8263ZM40.6357 46.7091C40.6244 44.5854 38.8167 42.8438 36.6613 42.8801C34.4444 42.9175 32.7987 44.5891 32.8053 46.7968C32.812 48.9848 34.5019 50.6126 36.7442 50.5908C38.9665 50.5691 40.6473 48.8926 40.6357 46.7091ZM73.0256 71.9588C76.183 71.9588 79.3096 72.0119 82.433 71.9365C84.0158 71.8984 85.1924 70.5719 85.2732 69.0164C85.3504 67.5338 84.186 65.9258 82.6844 65.8713C79.5117 65.7563 76.3319 65.8364 73.0256 65.8364C73.0256 67.9123 73.0256 69.8058 73.0256 71.9588ZM53.9937 65.8274C50.7977 65.8034 47.6013 65.8214 44.4051 65.8208C41.1461 65.8205 37.8871 65.8031 34.6283 65.8263L53.9937 65.8274ZM34.6281 65.8263C32.3128 65.8427 30.9922 66.99 31 68.9055C31.0075 70.7486 32.2898 71.9279 34.4865 71.9384C41.0042 71.9697 47.5222 71.9676 54.0399 71.9397C56.2317 71.9304 57.5669 70.7507 57.5975 68.9491C57.6298 67.0407 56.2805 65.8444 53.9935 65.8272L34.6281 65.8263ZM34.9588 80.2105C39.4969 85.3621 45.2684 87.5566 52.1996 86.8782C61.0504 86.0118 68.2115 79.5581 69.2172 71.4381C70.3624 62.1903 65.3746 54.3499 56.4918 51.4352C53.0672 50.3115 53.0672 50.3115 53.0607 46.8222C53.0607 45.9588 53.1033 45.093 53.0522 44.2326C52.9364 42.2902 51.6812 41.0292 49.8972 41.0024C48.1467 40.9762 46.8923 42.0631 46.7185 43.9717C46.5793 45.5021 46.5609 47.056 46.6519 48.5901C46.7379 50.0367 46.3598 50.7207 44.7535 51.1132C40.7003 52.103 37.2943 54.2669 34.6698 57.5113C33.5972 58.8372 33.671 60.5277 34.7613 61.5168C35.9867 62.6286 37.6285 62.5162 38.934 61.2192C39.507 60.6499 40.0311 60.0302 40.6282 59.4874C47.3132 53.4093 59.1405 55.6093 62.6254 63.633C64.6084 68.1987 64.1424 72.6337 60.9306 76.4959C57.3482 80.8038 52.5041 82.0538 47.0593 81.1502C43.7745 80.605 41.253 78.7464 38.9899 76.3891C38.3371 75.7092 37.0083 75.2595 36.0691 75.3686C35.3171 75.4559 34.2383 76.4762 34.1133 77.2147C33.9538 78.1568 34.3163 79.4811 34.9588 80.2105ZM66.9347 84.0677C71.229 86.6091 75.6998 87.3941 80.5478 86.8234C91.7647 85.5029 99.3172 74.7725 96.3526 64.0634C94.4151 57.0646 89.6093 52.8281 82.5631 51.0728C80.9574 50.6729 80.3943 50.05 80.5486 48.4776C80.6804 47.1333 80.5974 45.766 80.5674 44.4099C80.5208 42.3009 79.332 41.0252 77.4368 41.0004C75.5404 40.9755 74.3227 42.2453 74.2805 44.3435C74.2506 45.823 74.1932 47.3091 74.2961 48.7822C74.3904 50.1314 73.8891 50.6947 72.5378 51.0653C70.6079 51.5944 68.7786 52.4782 66.8075 53.249C68.1068 54.9672 69.1485 56.3447 70.2886 57.8523C77.3006 54.1861 84.6993 56.4745 88.3654 60.7331C91.86 64.7927 92.3 71.0397 89.2486 75.5466C87.5984 77.984 85.3223 79.6728 82.4963 80.6101C78.2638 82.0138 74.1546 81.6334 70.2764 79.5959C69.1107 81.1555 68.0493 82.5759 66.9347 84.0677ZM94.1523 46.7992C94.1691 44.6041 92.5071 42.9063 90.3158 42.8798C88.1376 42.8534 86.3581 44.5658 86.3431 46.7031C86.3277 48.895 87.9986 50.5724 90.2198 50.5949C92.4752 50.6177 94.1354 49.0153 94.1523 46.7992ZM67.7662 46.7936C67.7991 44.6836 66.0158 42.8882 63.8781 42.8788C61.6261 42.8691 59.9858 44.4724 59.9564 46.7121C59.9267 48.9513 61.5443 50.5879 63.7904 50.5911C66.0451 50.5945 67.7319 48.9831 67.7662 46.7936Z" fill="white"/>
</svg>
