<svg width="128" height="128" viewBox="0 0 128 128" fill="none" xmlns="http://www.w3.org/2000/svg">
 
<path fill-rule="evenodd" clip-rule="evenodd" d="M64 15.8842H100.419V18.7702H89.8948V22.706C93.8772 25.2014 96.5254 29.6292 96.5254 34.6755C96.5254 42.4708 90.206 48.7902 82.4106 48.7902C80.5357 48.7902 78.7462 48.4247 77.1095 47.761C76.7032 42.356 73.1899 37.8176 68.3505 35.9269C68.3143 35.5146 68.2958 35.0972 68.2958 34.6755C68.2958 29.5665 71.0102 25.0915 75.0755 22.6139V18.7702H64V15.8842ZM59.2661 35.5871C59.2853 35.2857 59.2951 34.9817 59.2951 34.6755C59.2951 26.8801 52.9757 20.5607 45.1803 20.5607C37.3849 20.5607 31.0655 26.8801 31.0655 34.6755C31.0655 42.4708 37.3849 48.7902 45.1803 48.7902C46.69 48.7902 48.1444 48.5532 49.5082 48.1143C49.8025 42.1945 53.8193 37.2545 59.2661 35.5871ZM49.7831 51.6541H30.6564L21.2465 98.7034L27.1788 101.772V111.386H46.6122V65.5643H79.5467L88.752 98.7034L81.3878 101.772L76.0692 81.5201L70.1369 84.1795L74.6372 105.454L79.5467 103.204L81.3878 111.386H109.208L97.1391 51.6541H76.8566C75.5462 57.9284 69.9834 62.6414 63.3199 62.6414C56.6564 62.6414 51.0936 57.9284 49.7831 51.6541Z" fill="#009999"/>
</svg>
