<svg width="128" height="128" viewBox="0 0 128 128" fill="none" xmlns="http://www.w3.org/2000/svg">
 
<path d="M35.033 44.0427C36.4137 44.0427 37.533 45.162 37.533 46.5427V49.1396C37.533 50.5204 36.4137 51.6396 35.033 51.6396C33.6522 51.6396 32.533 50.5204 32.533 49.1396V46.5427C32.533 45.162 33.6522 44.0427 35.033 44.0427Z" fill="#343234"/>
<path d="M27.4922 46.0975C28.873 46.0975 29.9922 47.2168 29.9922 48.5975V58.8086H40.669V57.5458C40.669 56.1651 41.7883 55.0458 43.169 55.0458C44.5497 55.0458 45.669 56.1651 45.669 57.5458V58.8086H55.8497V51.0642L42.594 51.0642C41.2133 51.0642 40.094 49.945 40.094 48.5642C40.094 47.1835 41.2133 46.0642 42.594 46.0642L57.3497 46.0642C59.2827 46.0642 60.8497 47.6312 60.8497 49.5642V82.0008C60.8497 83.3815 59.7304 84.5008 58.3497 84.5008C56.969 84.5008 55.8497 83.3815 55.8497 82.0008V63.8086H45.669V82.0009C45.669 83.3816 44.5497 84.5009 43.169 84.5009C41.7883 84.5009 40.669 83.3816 40.669 82.0009V63.8086H29.9922V82.0009C29.9922 83.3816 28.873 84.5009 27.4922 84.5009C26.1115 84.5009 24.9922 83.3816 24.9922 82.0009V48.5975C24.9922 47.2168 26.1115 46.0975 27.4922 46.0975Z" fill="#343234"/>
<path d="M37.533 72.8257C37.533 71.445 36.4137 70.3257 35.033 70.3257C33.6522 70.3257 32.533 71.445 32.533 72.8257V82.0009C32.533 83.3816 33.6522 84.5009 35.033 84.5009C36.4137 84.5009 37.533 83.3816 37.533 82.0009V72.8257Z" fill="#343234"/>
<path d="M53.309 72.7264C53.309 71.3457 52.1897 70.2264 50.809 70.2264C49.4282 70.2264 48.309 71.3457 48.309 72.7264V82.0008C48.309 83.3815 49.4282 84.5008 50.809 84.5008C52.1897 84.5008 53.309 83.3815 53.309 82.0008V72.7264Z" fill="#343234"/>
<path d="M67.8065 46.266C67.8065 44.8853 68.9257 43.766 70.3065 43.766H101.039C102.42 43.766 103.539 44.8853 103.539 46.266V49.8117C103.539 51.1924 102.42 52.3117 101.039 52.3117C99.6587 52.3117 98.5395 51.1924 98.5395 49.8117V48.766H72.8065V49.8117C72.8065 51.1924 71.6872 52.3117 70.3065 52.3117C68.9257 52.3117 67.8065 51.1924 67.8065 49.8117V46.266Z" fill="#343234"/>
<path d="M72.8065 82.001C72.8065 83.3817 71.6872 84.501 70.3065 84.501C68.9257 84.501 67.8065 83.3817 67.8065 82.001C67.8065 80.6203 68.9257 79.501 70.3065 79.501C71.6872 79.501 72.8065 80.6203 72.8065 82.001Z" fill="#343234"/>
<path d="M83.0508 82.001C83.0508 83.3817 81.9315 84.501 80.5508 84.501C79.1701 84.501 78.0508 83.3817 78.0508 82.001C78.0508 80.6203 79.1701 79.501 80.5508 79.501C81.9315 79.501 83.0508 80.6203 83.0508 82.001Z" fill="#343234"/>
<path d="M90.7951 84.501C92.1758 84.501 93.2951 83.3817 93.2951 82.001C93.2951 80.6203 92.1758 79.501 90.7951 79.501C89.4144 79.501 88.2951 80.6203 88.2951 82.001C88.2951 83.3817 89.4144 84.501 90.7951 84.501Z" fill="#343234"/>
<path d="M103.539 82.001C103.539 83.3817 102.42 84.501 101.039 84.501C99.6587 84.501 98.5394 83.3817 98.5394 82.001C98.5394 80.6203 99.6587 79.501 101.039 79.501C102.42 79.501 103.539 80.6203 103.539 82.001Z" fill="#343234"/>
<path fill-rule="evenodd" clip-rule="evenodd" d="M70.3065 54.1326C68.9257 54.1326 67.8065 55.2519 67.8065 56.6326V74.9002C67.8065 76.2809 68.9257 77.4002 70.3065 77.4002H101.039C102.42 77.4002 103.539 76.2809 103.539 74.9002V56.6326C103.539 55.2519 102.42 54.1326 101.039 54.1326H70.3065ZM72.8065 72.4002V68.2665H83.165V72.4002H72.8065ZM88.165 72.4002H98.5395V68.2665H88.165V72.4002ZM88.165 63.2665H98.5395V59.1326H88.165V63.2665ZM83.165 59.1326H72.8065V63.2665H83.165V59.1326Z" fill="#343234"/>
</svg>
