<svg width="128" height="128" viewBox="0 0 128 128" fill="none" xmlns="http://www.w3.org/2000/svg">
<g clip-path="url(#clip0_313_557)">
 
<path fill-rule="evenodd" clip-rule="evenodd" d="M88 42C88 66.8528 67.8528 87 43 87C18.1472 87 -2 66.8528 -2 42C-2 17.1472 18.1472 -3 43 -3C67.8528 -3 88 17.1472 88 42ZM79.6031 101.679C68.9532 108.225 56.4175 112 43 112C4.34007 112 -27 80.6599 -27 42C-27 3.34007 4.34007 -28 43 -28C81.6599 -28 113 3.34007 113 42C113 55.8387 108.984 68.7394 102.054 79.6005L121.168 99.7689C127.149 106.079 126.881 116.043 120.571 122.023C114.261 128.003 104.298 127.736 98.3172 121.426L79.6031 101.679Z" fill="#4F97F6"/>
<path d="M25 96L40 23.5H29.4428C28.0203 23.5 26.7933 24.4991 26.5051 25.8922L12 96H25Z" fill="white"/>
<path fill-rule="evenodd" clip-rule="evenodd" d="M57.7855 21.2857C50.7928 21.7095 44.9089 26.676 43.3171 33.4983L36.8294 61.3026C34.4207 71.6255 42.6337 81.3555 53.2145 80.7143C60.2072 80.2905 66.0911 75.324 67.6829 68.5017L74.1706 40.6974C76.5793 30.3745 68.3663 20.6445 57.7855 21.2857ZM58.554 33.5C56.1909 33.5 54.1505 35.1544 53.662 37.4665L47 69L50.5315 69.4414C53.0714 69.7589 55.4408 68.107 56.0214 65.6141L63.5 33.5H58.554Z" fill="white"/>
<path fill-rule="evenodd" clip-rule="evenodd" d="M97.3787 21.2857C90.386 21.7095 84.5021 26.676 82.9102 33.4983L76.4226 61.3026C74.0139 71.6255 82.2269 81.3555 92.8076 80.7143C99.8003 80.2905 105.684 75.324 107.276 68.5017L113.764 40.6974C116.172 30.3745 107.959 20.6445 97.3787 21.2857ZM98.1472 33.5C95.7841 33.5 93.7436 35.1544 93.2552 37.4665L86.5932 69L90.1247 69.4414C92.6645 69.7589 95.034 68.107 95.6145 65.6141L103.093 33.5H98.1472Z" fill="white"/>
<path d="M103.464 81.4747C103.554 81.2901 103.338 81.1119 103.17 81.2294C95.4355 86.635 84.5537 90 72.5 90C61.2093 90 50.947 87.0475 43.3361 82.2311C43.1632 82.1217 42.9562 82.3087 43.0532 82.489C48.2953 92.239 59.7334 99 73 99C86.7219 99 98.4876 91.767 103.464 81.4747Z" fill="white"/>
</g>
<defs>
<clipPath id="clip0_313_557">
<rect width="128" height="128" fill="white"/>
</clipPath>
</defs>
</svg>
