<svg width="128" height="128" viewBox="0 0 128 128" fill="none" xmlns="http://www.w3.org/2000/svg">
 
<path fill-rule="evenodd" clip-rule="evenodd" d="M66 97C88.8062 97 105 81.0382 105 64C105 46.9618 88.8062 31 66 31C43.1938 31 27 46.9618 27 64C27 74.0652 32.6513 83.7548 41.9786 90C44 92 43 95 41.5 97C49.5214 97 61.178 97 66 97ZM66 107C93.062 107 115 87.7482 115 64C115 40.2518 93.062 21 66 21C38.938 21 17 40.2518 17 64C17 75.2584 21.9305 85.5063 30 93.1715C23.5 97 24.5 107 32.5 107C55 107 57.4847 107 66 107Z" fill="#F4EA2A"/>
<path d="M40 55C40 52.2386 42.2386 50 45 50H88C90.7614 50 93 52.2386 93 55C93 57.7614 90.7614 60 88 60H45C42.2386 60 40 57.7614 40 55Z" fill="#1AFA29"/>
<path d="M53 72C53 69.2386 55.2386 67 58 67H88C90.7614 67 93 69.2386 93 72C93 74.7614 90.7614 77 88 77H58C55.2386 77 53 74.7614 53 72Z" fill="#1AFA29"/>
</svg>
