<svg width="128" height="128" viewBox="0 0 128 128" fill="none" xmlns="http://www.w3.org/2000/svg">
<path d="M67.303 30.3616C67.4708 30.0819 67.5827 29.9421 67.6386 29.9421C67.6945 29.9421 67.8343 30.026 68.058 30.1938C68.3936 30.3616 68.6452 30.4455 68.813 30.4455C69.3163 30.6132 69.9315 30.9767 70.6585 31.536C71.4415 32.0393 71.9448 32.4587 72.1685 32.7943C72.3922 33.0739 72.504 33.3535 72.504 33.6332C72.5599 33.9128 72.5599 34.3322 72.504 34.8915C72.3922 36.0099 72.3083 36.6251 72.2524 36.737C72.1964 36.9607 72.2803 37.0725 72.504 37.0725L73.1751 36.9047C73.3429 36.737 73.5386 36.7649 73.7623 36.9886C74.3775 37.4919 74.9088 37.7436 75.3562 37.7436C75.6358 37.7436 75.8036 37.7716 75.8595 37.8275L77.3694 38.5825C78.0965 38.8621 78.5718 39.1138 78.7955 39.3375C79.0192 39.5612 79.187 39.8967 79.2988 40.3441V40.5958C79.2988 40.8754 79.1311 41.183 78.7955 41.5185C78.404 41.91 78.1244 42.1057 77.9567 42.1057C77.677 42.1057 77.3974 42.2455 77.1178 42.5251C76.8382 42.8048 76.5306 42.9166 76.195 42.8607C76.0273 42.8048 75.496 42.9446 74.6012 43.2801C73.7064 43.6157 73.1471 43.8953 72.9235 44.119L72.0007 44.2029C71.2178 44.2029 70.6026 44.4266 70.1552 44.874C69.9315 45.0977 69.7358 45.2095 69.568 45.2095C69.2324 45.2095 68.841 45.3493 68.3936 45.629C67.8343 45.9645 67.4708 46.1323 67.303 46.1323C66.9675 46.1323 66.2405 46.4678 65.122 47.1389C64.7305 47.4185 64.2831 47.6702 63.7798 47.8939C63.3324 48.1176 62.9689 48.2574 62.6893 48.3133C62.6333 48.3133 62.6054 48.2854 62.6054 48.2295C62.6054 48.1176 62.9969 47.7821 63.7798 47.2228C64.4509 46.7754 64.9542 46.3839 65.2898 46.0484L66.4642 45.0418C67.0234 44.6503 67.7225 43.9792 68.5613 43.0285C69.4002 42.0218 69.7637 41.4626 69.6519 41.3507C69.6519 41.2948 69.54 41.2668 69.3163 41.2668C69.0926 41.2109 68.8969 41.183 68.7291 41.183L67.6386 41.0991C67.4708 41.0432 67.2471 40.8195 66.9675 40.428C66.7438 40.0365 66.6319 39.7569 66.6319 39.5891C66.6319 39.4773 66.5201 39.1976 66.2964 38.7502C66.0727 38.3029 65.9609 37.9673 65.9609 37.7436C65.9609 37.464 66.0727 36.9886 66.2964 36.3175C66.5201 35.6464 66.7997 34.9753 67.1353 34.3042C67.4708 33.6891 67.6945 33.0459 67.8064 32.3749V31.8715C67.8064 31.6478 67.6665 31.4241 67.3869 31.2004L66.9675 30.781L67.303 30.3616ZM48.3446 31.7876C48.6243 31.7876 48.9878 31.8995 49.4352 32.1232C49.8266 32.291 50.1063 32.4587 50.274 32.6265C50.4418 32.7943 50.6096 33.046 50.7773 33.3815L51.4484 34.3881C51.6721 34.7237 51.8679 35.2829 52.0357 36.0659C52.2034 36.8488 52.2873 37.5758 52.2873 38.2469C52.2873 38.6943 52.2034 39.2536 52.0357 39.9247C51.8679 40.5958 51.7001 41.0152 51.5323 41.183C51.3086 41.6304 51.1409 42.0218 51.029 42.3574L50.6096 43.2801L51.1129 43.5318L52.0357 43.8673C52.3153 43.8673 52.6788 44.091 53.1262 44.5384L53.7973 45.2095L54.3006 44.7901C54.8598 44.4545 55.7267 43.7275 56.9011 42.609C58.0755 41.4346 58.9703 40.4559 59.5855 39.673C59.7532 39.4493 59.893 39.3375 60.0049 39.3375C60.2286 39.3375 60.1167 39.7849 59.6693 40.6796C59.2779 41.5744 58.8305 42.3015 58.3272 42.8607C58.0475 43.1403 57.9077 43.364 57.9077 43.5318L57.1527 44.874C56.5935 45.7688 56.3139 46.2721 56.3139 46.3839C56.3139 46.6636 56.202 47.0271 55.9783 47.4745C55.8106 47.8659 55.5869 48.2015 55.3072 48.4811C54.9717 48.9285 54.8039 49.2361 54.8039 49.4039C54.8039 49.6276 54.6361 49.8792 54.3006 50.1588C54.021 50.4385 53.8812 50.6622 53.8812 50.8299C53.8812 50.9977 53.7693 51.1655 53.5456 51.3333C53.3778 51.501 53.1821 51.5849 52.9584 51.5849H51.6162C51.057 51.529 50.6096 51.4172 50.274 51.2494C49.9385 51.0816 49.6589 50.802 49.4352 50.4105C48.093 48.565 46.8347 47.5304 45.6603 47.3067C45.4366 47.2508 45.2408 47.1389 45.0731 46.9711C44.9612 46.7474 44.8214 46.3839 44.6536 45.8806C44.5418 45.3773 44.402 45.0977 44.2342 45.0418C44.1223 44.8181 44.0664 44.6503 44.0664 44.5384C44.0664 44.2588 44.2342 43.9233 44.5697 43.5318C46.0797 41.5185 47.2821 39.2256 48.1769 36.6531C48.4006 35.9261 48.5124 35.3109 48.5124 34.8076C48.5124 34.1924 48.4844 33.773 48.4285 33.5493C48.3726 33.3256 48.2328 33.0739 48.0091 32.7943C47.7295 32.5147 47.5617 32.3189 47.5058 32.2071C47.5058 32.0393 47.6176 31.9275 47.8413 31.8715L48.3446 31.7876ZM61.8504 50.9138C62.13 50.6342 62.3537 50.6062 62.5215 50.8299C62.5774 50.9418 62.8291 51.1655 63.2765 51.501C63.7798 51.7807 64.1433 51.9484 64.367 52.0044L65.0381 52.3399C65.5414 52.5636 66.0168 52.7314 66.4642 52.8432C67.1353 53.0669 67.5827 53.3745 67.8064 53.766C68.0301 54.0456 68.1699 54.2693 68.2258 54.4371C68.2817 54.5489 68.2817 54.7726 68.2258 55.1082C68.1699 55.3319 68.1419 55.5276 68.1419 55.6954C68.1978 55.8072 68.2538 55.8911 68.3097 55.947L68.4775 56.2826C68.4775 56.6181 68.3097 56.9257 67.9741 57.2053C67.4149 57.7087 66.8836 57.8485 66.3803 57.6248C66.0447 57.5129 65.7651 57.457 65.5414 57.457C65.1499 57.457 64.6466 57.5409 64.0315 57.7087L62.5215 58.1281C61.9623 58.184 61.2073 58.4636 60.2566 58.967L59.4177 59.2186C59.1381 59.3305 58.9983 59.4144 58.9983 59.4703C58.9983 59.5262 58.6907 59.7219 58.0755 60.0575C57.5163 60.2812 57.1527 60.5608 56.985 60.8964C56.8731 61.176 56.8731 61.7352 56.985 62.5741C57.0409 63.357 57.1248 63.8603 57.2366 64.084C57.4044 64.2518 57.6281 64.2518 57.9077 64.084C58.2433 63.9163 58.411 63.7205 58.411 63.4968C58.411 63.385 58.439 63.3011 58.4949 63.2452C58.5509 63.1893 58.6627 63.1893 58.8305 63.2452C59.1101 63.357 59.3058 63.357 59.4177 63.2452C59.4177 63.1893 59.6973 62.9935 60.2566 62.658C60.3684 62.602 60.5082 62.5182 60.676 62.4063C60.8997 62.2945 61.0115 62.2945 61.0115 62.4063C61.0115 62.5182 61.403 62.7698 62.1859 63.1613C62.9689 63.4968 63.64 63.7205 64.1992 63.8324C64.5348 63.9442 65.0101 64.1959 65.6253 64.5874C66.2405 64.9229 66.6599 65.2025 66.8836 65.4262C66.9955 65.594 67.1073 65.9296 67.2191 66.4329C67.3869 66.9362 67.4708 67.3836 67.4708 67.7751C67.4708 67.8869 67.359 68.0547 67.1353 68.2784L66.5481 68.6978C66.3803 68.8656 66.1566 68.9495 65.877 68.9495C65.4855 69.0054 64.9262 69.1732 64.1992 69.4528C63.4722 69.6765 62.857 69.8722 62.3537 70.04C62.2419 70.0959 62.0182 70.1798 61.6826 70.2917C61.403 70.4035 60.9836 70.5993 60.4243 70.8789C59.1381 71.3822 58.2433 71.8016 57.7399 72.1372C57.2926 72.4168 57.0129 72.7244 56.9011 73.0599C56.8452 73.1718 56.8172 73.3395 56.8172 73.5632C56.8172 73.7869 56.8452 73.9827 56.9011 74.1505C57.0129 74.3182 57.0968 74.4021 57.1527 74.4021C57.712 74.2903 58.5509 74.0666 59.6693 73.731C60.7878 73.3395 61.7945 72.976 62.6893 72.6405C63.4163 72.3609 64.1433 72.1651 64.8703 72.0533C65.5973 71.9414 66.5201 71.8576 67.6386 71.8016C69.3163 71.7457 70.5187 71.7737 71.2457 71.8855C72.0287 71.9974 72.6998 72.249 73.259 72.6405C74.2656 73.3675 74.9088 73.8708 75.1884 74.1505C75.468 74.3742 75.7197 74.7097 75.9434 75.1571C76.2789 75.7163 76.4187 76.0799 76.3628 76.2476C76.3628 76.4713 76.0832 76.8069 75.5239 77.2543L74.6851 78.0931H72.504C71.3855 78.0931 70.6585 78.1211 70.323 78.177C69.9874 78.2329 69.4002 78.4287 68.5613 78.7642C66.9955 79.3235 65.7372 79.7429 64.7864 80.0225C63.6679 80.3022 62.3537 80.8055 60.8438 81.5325C59.0542 82.3714 57.9916 82.8467 57.6561 82.9586C57.0409 83.1823 56.4816 83.4619 55.9783 83.7974L55.5589 84.0491L55.6428 85.8946C55.6987 86.342 55.7267 86.7894 55.7267 87.2368C55.7267 87.6842 55.7546 88.0477 55.8106 88.3273C55.8106 88.7188 55.9224 88.9984 56.1461 89.1662C56.3698 89.334 57.0409 89.6415 58.1594 90.0889C59.1101 90.4804 59.893 90.76 60.5082 90.9278C61.1793 91.0956 62.2698 91.2913 63.7798 91.515C65.122 91.6828 66.0727 91.7667 66.6319 91.7667C67.5267 91.7667 68.3376 91.7387 69.0647 91.6828C71.5813 91.5709 73.3988 91.4032 74.5173 91.1795C75.6917 90.9558 77.0619 90.5363 78.6277 89.9212L81.8993 88.7468C83.8008 87.9638 85.0311 87.3766 85.5903 86.9851C86.2055 86.5937 86.5131 86.1183 86.5131 85.5591C86.5131 85.3354 86.569 85.1676 86.6809 85.0557C86.7927 84.9439 86.9325 84.4406 87.1003 83.5458C87.2681 82.5951 87.3799 81.6164 87.4359 80.6097C87.5477 79.3235 87.6875 78.3728 87.8553 77.7576C88.0231 77.1424 88.107 76.5272 88.107 75.9121C88.107 75.6884 88.107 75.5486 88.107 75.4926C88.1629 75.3808 88.2188 75.3249 88.2747 75.3249C88.6662 75.3249 88.9179 75.3528 89.0297 75.4088C89.1416 75.4647 89.1975 75.6045 89.1975 75.8282C89.1975 75.996 89.2534 76.1358 89.3653 76.2476C89.4212 76.2476 89.4491 76.4154 89.4491 76.7509V76.9187C89.4491 77.0865 89.5051 77.3382 89.6169 77.6737L90.1202 78.932C90.2321 79.3794 90.3719 79.7988 90.5397 80.1903L91.043 81.9519L91.4624 83.6297C91.798 84.5804 91.9937 85.1396 92.0496 85.3074C92.2733 86.0903 92.497 86.5377 92.7207 86.6496C92.9444 86.6496 93.0563 86.7614 93.0563 86.9851C93.0563 87.097 93.1402 87.2927 93.3079 87.5723C93.4757 87.852 93.6435 88.3832 93.8113 89.1662C93.979 89.8932 94.035 90.3686 93.979 90.5923C93.8672 90.8719 93.6714 91.1795 93.3918 91.515C93.1122 91.8506 92.6648 92.3259 92.0496 92.9411C91.4904 93.5003 91.015 93.8918 90.6236 94.1155C90.288 94.3392 89.9245 94.4511 89.533 94.4511C89.1975 94.4511 88.5823 94.6188 87.6875 94.9544C86.8487 95.2899 86.2614 95.5975 85.9259 95.8771C85.5344 96.2127 84.8913 96.5762 83.9965 96.9677C83.1576 97.3032 82.5704 97.471 82.2349 97.471C81.8993 97.471 81.4799 97.5549 80.9766 97.7226C80.5292 97.8904 79.8581 98.0023 78.9633 98.0582C78.0685 98.0582 76.5306 98.0582 74.3495 98.0582H72.504C71.4974 98.0582 70.7144 98.0023 70.1552 97.8904C69.1485 97.5549 67.6106 97.2752 65.5414 97.0515C64.7025 96.9397 63.9476 96.7719 63.2765 96.5482C62.6054 96.3245 61.5149 95.8492 60.0049 95.1221C57.1527 93.724 54.9717 92.4657 53.4617 91.3472C52.8466 90.8439 52.1195 90.0889 51.2807 89.0823C50.4977 88.0197 50.1063 87.3207 50.1063 86.9851C50.1063 86.5937 49.7707 86.5098 49.0996 86.7335L48.093 86.9012C47.366 87.069 46.6949 87.2648 46.0797 87.4885C45.5764 87.7121 45.0171 87.852 44.402 87.9079C43.7868 87.9638 43.3114 87.9358 42.9759 87.824C42.7522 87.6562 41.7455 87.5723 39.956 87.5723C39.0612 87.5723 38.418 87.6003 38.0266 87.6562C37.6351 87.6562 37.4394 87.7122 37.4394 87.824C37.4394 87.8799 37.4114 87.9359 37.3555 87.9918C37.2995 88.0477 37.2157 88.0757 37.1038 88.0757C36.8801 88.1316 36.7683 88.0477 36.7683 87.824C36.7683 87.6003 36.8242 87.4885 36.936 87.4885C36.7123 87.1529 36.4048 86.7894 36.0133 86.3979C35.2303 85.615 34.8109 85.0557 34.755 84.7202L34.3355 83.9652C34.1118 83.7974 34 83.378 34 82.7069C34 82.0917 34.0839 81.6723 34.2517 81.4486C34.4754 81.1131 34.8389 80.6936 35.3422 80.1903C35.9014 79.6311 36.237 79.3794 36.3488 79.4353C36.4607 79.4912 36.5725 79.4353 36.6844 79.2676C36.6844 79.1557 36.7683 79.0998 36.936 79.0998C36.992 79.0998 36.992 79.2116 36.936 79.4353C36.7683 79.659 36.6285 80.1903 36.5166 81.0292C36.4048 81.868 36.4048 82.3154 36.5166 82.3714C36.7403 82.5391 37.3555 82.5112 38.3621 82.2875C39.4247 82.0638 40.3474 81.7562 41.1304 81.3647L44.5697 80.1064C46.3593 79.4912 47.7295 78.932 48.6802 78.4287C49.575 77.9813 50.1342 77.6737 50.3579 77.5059C50.5816 77.3382 50.7494 77.0865 50.8612 76.7509C51.029 75.968 51.1409 75.241 51.1968 74.5699L51.2807 73.1438L50.7773 73.2277C50.6655 73.2836 50.4418 73.3116 50.1063 73.3116C49.7148 73.3116 49.2953 73.2836 48.848 73.2277C48.4565 73.1159 48.2328 73.004 48.1769 72.8922C47.8413 72.7244 47.6176 72.6405 47.5058 72.6405C47.2261 72.6405 46.8626 72.4168 46.4152 71.9694C46.0238 71.4661 45.7721 70.9907 45.6603 70.5433C45.6603 70.4874 45.5764 70.1239 45.4086 69.4528C45.2408 69.1173 45.1569 68.8376 45.1569 68.6139C45.1569 68.3343 45.2408 68.0826 45.4086 67.859L45.828 67.0201C45.9399 66.6845 46.3593 66.2092 47.0863 65.594L49.519 63.2452C51.2527 61.6234 52.1195 60.7286 52.1195 60.5608C52.1195 60.449 51.756 60.393 51.029 60.393C50.4698 60.393 50.0783 60.3651 49.8546 60.3091C49.6868 60.2532 49.2954 60.0295 48.6802 59.638C47.8413 59.1347 47.366 58.7153 47.2541 58.3797L46.6669 57.3731C46.2754 56.8139 46.1915 56.2546 46.4152 55.6954L46.583 55.2759L46.9186 55.6115C47.1423 55.8352 47.5337 55.947 48.093 55.947C49.0996 55.947 50.302 55.5556 51.7001 54.7726C52.483 54.3811 52.9584 54.1854 53.1262 54.1854C53.294 54.1854 53.7973 53.9897 54.6361 53.5982C55.5309 53.1508 56.0063 52.8712 56.0622 52.7593C56.1181 52.6475 56.7333 52.3958 57.9077 52.0044C59.0821 51.6129 59.8371 51.3892 60.1727 51.3333C60.3404 51.2773 60.648 51.2494 61.0954 51.2494C61.4869 51.2494 61.7386 51.1375 61.8504 50.9138ZM52.4551 64.839C52.5669 64.2239 52.5949 63.9163 52.539 63.9163C52.4271 63.8044 51.7001 64.4196 50.3579 65.7618C49.0157 67.048 48.2887 67.8869 48.1769 68.2784L48.0091 68.8656L48.5124 68.7817C49.0717 68.6139 49.6868 68.3343 50.3579 67.9428C51.029 67.6073 51.4484 67.3836 51.6162 67.2717C51.784 67.104 51.9238 66.8523 52.0357 66.5168C52.2034 66.1253 52.3432 65.566 52.4551 64.839ZM87.7714 74.4021C87.7714 74.2903 87.7994 74.2343 87.8553 74.2343L88.0231 74.4021C88.0231 74.514 87.9951 74.5699 87.9392 74.5699C87.8273 74.5699 87.7714 74.514 87.7714 74.4021Z" fill="white"/>
</svg>
