<svg width="128" height="128" viewBox="0 0 128 128" fill="none" xmlns="http://www.w3.org/2000/svg">
 
<path d="M81 86.5C77.7943 81.9203 71.5 82 68.5 82C60 83 68.5 91.5 70 93C71.5 94.5 76.5 100 78.5 104.5C80.5 109 86 109 92.5 108.5C99 108 90 98.5 88 96.5C86 94.5 84.5 91.5 81 86.5Z" fill="#70AD47"/>
<path d="M65 44.5C59 44 59.5 49 63 52C63.8333 52.8333 66.2971 55.4717 70.5 57C76 59 71.5 61.5 70 63.5C68.6584 65.2889 44 89 43 90C39.5 93.5 37.5 97 33 103C28.5 109 38 109 41.5 109C45 109 45.8274 108.054 49 104C57.9999 92.5002 82.9995 67.5005 89 61.5C95 55.5 82 46.5 81 45.5C80 44.5 76.5 45 76 45C75.5 45 71 45 65 44.5Z" fill="#5B9BD5"/>
<path d="M69.5001 28.5C74.0001 14.5 61.622 17 56.5001 24C51.5001 30.8333 46.4941 36.9173 39.5 43.5C29.9374 52.5 36.2417 59.2416 40 63C43 66 48.4999 72.65 55 72C64.5 71.05 61.4999 65.5 60.5 63.5C60.0528 62.6056 56.9762 59.1857 52.5 56.5C47.5 53.5 50.3333 51 53 49C55 47.5 65.9643 39.5 69.5001 28.5Z" fill="#9DC3E6"/>
</svg>
