<svg width="128" height="128" viewBox="0 0 128 128" fill="none" xmlns="http://www.w3.org/2000/svg">
 
<path fill-rule="evenodd" clip-rule="evenodd" d="M63.9376 42.7128L48.072 27.173L44.5189 30.6908L57.6376 43.9412H34.55C31.2363 43.9412 28.55 46.6274 28.55 49.9412V87.2524C28.55 90.5661 31.2363 93.2524 34.55 93.2524H44.3671L46.7113 96.3636C46.9169 96.6365 47.3295 96.6274 47.5228 96.3457L49.6464 93.2524H77.0253L79.2544 96.3484C79.4553 96.6274 79.8714 96.6251 80.0692 96.3439L82.2433 93.2524H93.3559C96.6696 93.2524 99.3559 90.5661 99.3559 87.2524V49.9412C99.3559 46.6275 96.6696 43.9412 93.3559 43.9412H69.189L83.4507 30.9202L80.1333 27.1793L63.9376 42.7128Z" fill="#231717"/>
<path fill-rule="evenodd" clip-rule="evenodd" d="M71.9891 75.8222C75.8418 75.8222 78.965 72.6204 78.965 68.6708C78.965 64.7213 75.8418 61.5195 71.9891 61.5195C68.1365 61.5195 65.0133 64.7213 65.0133 68.6708C65.0133 72.6204 68.1365 75.8222 71.9891 75.8222ZM71.9891 72.1253C73.3593 72.1253 74.4701 70.5787 74.4701 68.6708C74.4701 66.763 73.3593 65.2164 71.9891 65.2164C70.6189 65.2164 69.5082 66.763 69.5082 68.6708C69.5082 70.5787 70.6189 72.1253 71.9891 72.1253Z" fill="#FFC913"/>
<path d="M50.1434 62.0592H54.0066L59.1576 68.91V62.0592H63.1754V75.2457H59.1576L54.0066 68.0343V75.2457H50.1434V62.0592Z" fill="#FFC913"/>
<path d="M49.249 77.0928H80.3027V78.0683H49.249V77.0928Z" fill="white"/>
<path d="M49.249 79.0928H80.3027V79.5828H49.249V79.0928Z" fill="white"/>
<path d="M30.6169 66.0967V50.3388C30.6169 47.5383 32.9171 46.6298 36.1142 46.6298H49.1831C53.1347 46.6298 58.7342 50.3388 51.9836 53.3717C45.2331 56.4046 39.2104 64.3128 38.0849 72.5603C37.9166 73.7935 37.7737 76.1906 35.2844 76.1906C32.7951 76.1906 30.6169 71.9439 30.6169 66.0967Z" fill="url(#paint0_linear_326_194)"/>
<defs>
<linearGradient id="paint0_linear_326_194" x1="42.8767" y1="46.6298" x2="34.0341" y2="75.0785" gradientUnits="userSpaceOnUse">
<stop stop-color="#675E5C"/>
<stop offset="0.544155" stop-color="#87827F"/>
<stop offset="1" stop-color="#3D3233"/>
</linearGradient>
</defs>
</svg>
