<svg width="128" height="128" viewBox="0 0 128 128" fill="none" xmlns="http://www.w3.org/2000/svg">
 
<path d="M102 43.4567V85.411L64.7716 107.112V63.9999L102 43.4567Z" fill="#FB6767"/>
<path d="M26 43.4567V85.411L63.2284 107.112V63.9999L26 43.4567Z" fill="#C04C4D"/>
<path d="M101.711 41.6242L64.0964 62.5532L26.2893 41.6242L64.0964 20.8882L101.711 41.6242Z" fill="#FFD9D8"/>
<path fill-rule="evenodd" clip-rule="evenodd" d="M100.746 45.688V84.5186L66.0254 104.884V88.5933L81.0239 80.1183V73.3785L66.0254 81.48V65.0516L100.746 45.688ZM70.6548 67.7705V73.7177L85.6533 65.6162V82.8198L70.6548 91.2948V96.8013L96.1168 81.8669V53.5706L70.6548 67.7705Z" fill="#EF3231"/>
<path fill-rule="evenodd" clip-rule="evenodd" d="M27.736 46.2537V84.4173L61.5888 104.416V65.2434L48.4721 57.9398V74.3797L41.0457 70.3397V53.3521L27.736 46.2537ZM36.4162 56.1298V73.0914L53.1015 82.1682V65.8163L56.9594 67.9644V96.3044L32.3655 81.7753V53.9694L36.4162 56.1298Z" fill="#A70D0D"/>
<path fill-rule="evenodd" clip-rule="evenodd" d="M55.4973 27.2205L69.2806 34.6422L77.4545 30.0474L98.0689 41.6391L63.9048 60.5693L43.114 49.0747L53.4473 43.4958L39.9891 35.8054L55.4973 27.2205ZM55.528 32.4949L49.4322 35.8694L62.9791 43.6106L52.7692 49.1229L63.9023 55.2781L88.5707 41.6094L77.4541 35.3584L69.3286 39.926L55.528 32.4949Z" fill="#F7ACAB"/>
</svg>
