<svg width="128" height="128" viewBox="0 0 128 128" fill="none" xmlns="http://www.w3.org/2000/svg">
 
<path d="M36.1215 40.1758H30.7462C25.9158 40.1758 22 44.0916 22 48.922V53.4773C22 58.3077 25.9158 62.2235 30.7462 62.2235H36.1215V57.0304H33.0239C31.0112 57.0304 29.3796 55.3989 29.3796 53.3862V49.0131C29.3796 47.0004 31.0112 45.3688 33.0239 45.3688H36.1215V40.1758Z" fill="white"/>
<path d="M44.9588 40.5402H38.6725V62.2235H44.9588V53.3406H48.9675V62.2235H55.2538V40.5402H48.9675V48.6942H44.9588V40.5402Z" fill="white"/>
<path d="M64.9111 40.5858H58.5336V61.9046H64.9111V40.5858Z" fill="white"/>
<path d="M74.8416 40.5858H68.4642V61.9046H74.8416V51.2452L79.3514 61.9046H85.7288V40.5858H79.3514V51.2452L74.8416 40.5858Z" fill="white"/>
<path fill-rule="evenodd" clip-rule="evenodd" d="M99.987 40.4491H92.4252L87.5054 61.9046H106L99.987 40.4491ZM97.026 47.1077H95.705L94.709 54.2973H98.3983L97.026 47.1077ZM93.6551 61.9046L94.1032 58.6704H99.233L99.8503 61.9046H93.6551Z" fill="white"/>
<path d="M91.3774 65.7766H84.59L90.2386 78.076V87.7788H97.1627V78.076L103.358 65.7766H96.6616L94.1106 72.473L91.3774 65.7766Z" fill="white"/>
<path fill-rule="evenodd" clip-rule="evenodd" d="M49.5141 66.3688H57.0759L63.0889 87.8244H44.5944L49.5141 66.3688ZM52.7939 73.0274H54.115L55.4872 80.217H51.7979L52.7939 73.0274ZM51.1921 84.5901L50.744 87.8244H56.9393L56.3219 84.5901H51.1921Z" fill="white"/>
<path d="M70.9241 66.4599H64.5466V87.7788H70.9241V66.4599Z" fill="white"/>
<path d="M81.128 66.4599H74.7505V87.7788H86.5488V82.5858H81.128V66.4599Z" fill="white"/>
<path fill-rule="evenodd" clip-rule="evenodd" d="M34.2993 66.4144H26.6464V87.8244H34.2993C39.9348 87.8244 44.5033 83.2559 44.5033 77.6205V76.6183C44.5033 70.9828 39.9348 66.4144 34.2993 66.4144ZM35.3015 71.3416H33.6616V82.4947H35.3015C36.5091 82.4947 37.4881 81.5157 37.4881 80.3081V73.5282C37.4881 72.3206 36.5091 71.3416 35.3015 71.3416Z" fill="white"/>
</svg>
