<svg width="128" height="128" viewBox="0 0 128 128" fill="none" xmlns="http://www.w3.org/2000/svg">
 
<path d="M46.0537 40.2512L44.4683 38.7927C43.961 38.2853 43.665 37.8414 43.5805 37.4609C43.4959 37.0382 43.6228 36.5309 43.961 35.939C44.5106 35.3894 45.2293 35.1357 46.1171 35.178C47.0049 35.178 47.639 35.3048 48.0195 35.5585C49.922 36.5731 51.5496 37.2073 52.9024 37.4609C54.2976 37.7146 56.2211 37.8414 58.6732 37.8414C60.2374 37.8414 61.0195 38.6658 61.0195 40.3146C61.0195 41.1601 60.7447 41.7943 60.1951 42.217C59.6878 42.5975 59.0325 42.7878 58.2293 42.7878L52.9024 42.7244C50.0699 42.7244 47.787 41.9 46.0537 40.2512ZM56.0098 55.4707C55.2488 55.217 54.7626 54.9422 54.5512 54.6463C54.3821 54.3081 54.3398 53.9487 54.4244 53.5683C54.6358 52.9341 55.122 52.5536 55.8829 52.4268C56.6439 52.2577 57.3626 52.2366 58.039 52.3634C60.7447 52.7861 62.8797 53.8219 64.4439 55.4707C66.0504 57.1195 66.8325 59.1065 66.7902 61.4317C66.748 64.4333 65.5008 67.0756 63.0488 69.3585C60.639 71.6414 57.5106 72.7829 53.6634 72.7829C50.0276 72.7829 46.9415 71.6414 44.4049 69.3585C41.9106 67.0333 40.6211 64.1796 40.5366 60.7975C40.4943 58.8105 40.9593 56.9292 41.9317 55.1536C42.9463 53.3357 44.1301 51.9406 45.4829 50.9683H39.7122C38.5707 50.9683 38 50.1227 38 48.4317C38 46.7829 38.6976 45.9585 40.0927 45.9585H66.4098C67.8049 45.9585 68.5024 46.7829 68.5024 48.4317C68.5024 50.1227 67.826 50.9683 66.4732 50.9683H57.6585C54.826 50.9683 52.4163 51.9406 50.4293 53.8853C48.4423 55.7878 47.4488 58.0918 47.4488 60.7975C47.4488 62.7422 48.0618 64.3487 49.2878 65.617C50.5561 66.8853 52.0569 67.5195 53.7902 67.5195C55.4813 67.5195 56.9187 66.9065 58.1024 65.6805C59.3285 64.4544 59.9626 62.9959 60.0049 61.3048C60.0472 59.8674 59.7301 58.6414 59.0537 57.6268C58.3772 56.6122 57.3626 55.8935 56.0098 55.4707ZM80.5512 36.2561V54.139H87.9707C89.3236 54.139 90 55.0268 90 56.8024C90 58.578 89.3236 59.4658 87.9707 59.4658H80.5512V74.1146C80.5512 78.004 78.8179 79.9487 75.3512 79.9487H73.7024V40.8853C73.7024 39.6593 73.5545 38.8772 73.2585 38.539C72.9626 38.2008 72.4764 37.926 71.8 37.7146C70.8276 37.5032 70.0878 37.2496 69.5805 36.9536C69.0732 36.6577 68.8195 36.1927 68.8195 35.5585C68.8195 34.2479 69.6862 33.5927 71.4195 33.5927H77.5707C79.5577 33.5927 80.5512 34.4805 80.5512 36.2561ZM80.9951 94.4073H58.4195C54.2341 94.4073 52.1415 92.5048 52.1415 88.7V83.2463C52.1415 82.0203 51.9724 81.2382 51.6341 80.9C51.2959 80.5618 50.7675 80.2658 50.0488 80.0122C49.0764 79.7585 48.4211 79.5048 48.0829 79.2512C47.7447 78.9553 47.5756 78.4902 47.5756 77.8561C47.5756 76.5455 48.3366 75.8902 49.8585 75.8902H55.9463C57.9756 75.8902 58.9902 76.8837 58.9902 78.8707V87.8756C58.9902 88.7634 59.3707 89.2073 60.1317 89.2073H81.122C82.4748 89.2073 83.1512 90.074 83.1512 91.8073C83.1512 93.5406 82.4325 94.4073 80.9951 94.4073Z" fill="white"/>
</svg>
