<svg width="128" height="128" viewBox="0 0 128 128" fill="none" xmlns="http://www.w3.org/2000/svg">
<path fill-rule="evenodd" clip-rule="evenodd" d="M15 61C13.8954 61 13 61.8954 13 63V113H115V63C115 61.8954 114.105 61 113 61H112C110.895 61 110 61.8954 110 63V72H18V63C18 61.8954 17.1046 61 16 61H15ZM110 90H18V95H110V90Z" fill="white"/>
<path d="M28 38H48V66H28V38Z" fill="white"/>
<path fill-rule="evenodd" clip-rule="evenodd" d="M67 25L57.4007 17.4875C56.1691 16.5237 54.6503 16 53.0865 16H20C16.134 16 13 19.134 13 23V31C13 34.866 16.134 38 20 38H60C63.866 38 67 34.866 67 31V25ZM62 31V27.4361L54.3191 21.425C53.9672 21.1496 53.5333 21 53.0865 21H20C18.8954 21 18 21.8954 18 23V31C18 32.1046 18.8954 33 20 33H60C61.1046 33 62 32.1046 62 31Z" fill="white"/>
<path d="M33 7H43L48 12V17H28V12L33 7Z" fill="white"/>
<path d="M90 14.7499C90 13.4945 88.8517 12.5445 87.6604 12.9405C80.3047 15.3855 75 22.3233 75 30.5C75 38.4299 79.9893 45.1945 87 47.8259L85.5 66.5H101.5L100 47.8259C107.011 45.1945 112 38.4299 112 30.5C112 22.3233 106.695 15.3855 99.3396 12.9405C98.1483 12.5445 97 13.4945 97 14.7499V29C97 30.1046 96.1046 31 95 31H92C90.8954 31 90 30.1046 90 29V14.7499Z" fill="white"/>
</svg>
