<svg width="128" height="128" viewBox="0 0 128 128" fill="none" xmlns="http://www.w3.org/2000/svg">
 
<g style="mix-blend-mode:multiply">
<path d="M98.738 59.6957C99.0097 63.8585 98.3512 68.2544 96.6636 72.5693C97.6697 60.9307 94.7114 56.0307 87.7688 49.6055C96.186 63.4246 95.3854 81.529 85.7712 91.4064C81.2173 95.0288 75.74 97.54 69.7495 98.53C65.946 98.7909 61.6937 98.3615 56.9973 97.0941C88.5509 97.0941 92.2567 50.5973 67.3591 37.7082C80.6802 35.0579 90.4859 40.1407 95.3533 48.4273C97.0794 51.8958 98.2469 55.6912 98.738 59.6957Z" fill="url(#paint0_linear_406_232)"/>
<path d="M43.9905 54.9303C43.9905 72.2379 58.0211 86.2684 75.3286 86.2684C89.7916 86.2684 98.2213 76.7421 98.991 64.8C98.997 64.5341 99 64.2674 99 64C99 60.4428 98.4693 57.0095 97.4828 53.775C96.3657 63.0938 90.0086 70.2122 80.8737 70.2122C66.005 70.2122 56.7634 58.7585 56.7634 48.0233C56.7634 38.813 64.1032 32.2991 76.8274 31.4253C72.8553 29.8599 68.5281 29 64 29C44.67 29 29 44.67 29 64C29 83.33 44.67 99 64 99C72.1203 99 79.5948 96.2346 85.5329 91.5943C81.6696 93.2974 77.3972 94.243 72.9039 94.243C55.5963 94.243 41.5658 80.2125 41.5658 62.9049C41.5658 58.2538 42.5791 53.8393 44.3969 49.8701C44.1295 51.5173 43.9905 53.2076 43.9905 54.9303Z" fill="url(#paint1_radial_406_232)"/>
</g>
<defs>
<linearGradient id="paint0_linear_406_232" x1="64" y1="29.2194" x2="64" y2="99.111" gradientUnits="userSpaceOnUse">
<stop stop-color="#F28E38"/>
<stop offset="1" stop-color="#F8C27E"/>
</linearGradient>
<radialGradient id="paint1_radial_406_232" cx="0" cy="0" r="1" gradientUnits="userSpaceOnUse" gradientTransform="translate(64 64) rotate(90) scale(35)">
<stop stop-color="#FF2617"/>
<stop offset="1" stop-color="#C30008"/>
</radialGradient>
</defs>
</svg>
