<svg width="128" height="128" viewBox="0 0 128 128" fill="none" xmlns="http://www.w3.org/2000/svg">
 
<path d="M53.3168 52.6399H58.2763V53.8206H69.6279V52.6399H74.5873V53.8206H78.2709V55.8206H74.5873V57.8197H69.6279V55.8206H58.2763V57.8197H53.3168V55.8206H49.2448V53.8206H53.3168V52.6399Z" fill="white"/>
<path fill-rule="evenodd" clip-rule="evenodd" d="M59.1791 59.1069H65.1382C62.8854 60.2778 61.3467 62.6328 61.3467 65.3471C61.3467 69.2287 64.4934 72.3754 68.375 72.3754C72.2566 72.3754 75.4033 69.2287 75.4033 65.3471C75.4033 62.6328 73.8646 60.2778 71.6118 59.1069H77.1767V71.3244H109.428V75.36H59.1791V59.1069ZM108.515 72.0271H105.992V74.5495H108.515V72.0271ZM104.986 72.0271H102.464V74.5495H104.986V72.0271ZM98.935 72.0271H101.457V74.5495H98.935V72.0271ZM97.9288 72.0271H95.4064V74.5495H97.9288V72.0271ZM91.8779 72.0271H94.4003V74.5495H91.8779V72.0271ZM90.8717 72.0271H88.3493V74.5495H90.8717V72.0271ZM84.8207 72.0271H87.3431V74.5495H84.8207V72.0271ZM83.8146 72.0271H81.2922V74.5495H83.8146V72.0271ZM77.7636 72.0271H80.286V74.5495H77.7636V72.0271ZM76.7574 72.0271H74.235V74.5495H76.7574V72.0271Z" fill="white"/>
<path d="M49.9081 58.9028H54.85L56.9769 61.9681H51.9099L49.9081 58.9028Z" fill="white"/>
<path d="M49.9081 64.011H54.85L56.9769 67.0762H51.9099L49.9081 64.011Z" fill="white"/>
<path d="M30.9568 53.835H19.572V55.835H47.9302V53.835H36.3083V52.6702H30.9568V53.835Z" fill="white"/>
<path d="M18.572 60.6193H24.9774L22.9936 57.4332H28.5254L30.2422 60.6193H37.0329L38.7497 57.4332H43.9763L42.2977 60.6193H48.3588V63.0591H18.572V60.6193Z" fill="white"/>
<path d="M20.7089 64.011H26.638V75.36H20.7089V64.011Z" fill="white"/>
<path d="M28.1432 64.011H39.593V66.5652H28.1432V64.011Z" fill="white"/>
<path d="M28.1432 68.4084H39.593V70.9627H28.1432V68.4084Z" fill="white"/>
<path d="M28.1432 72.8059H39.593V75.3601H28.1432V72.8059Z" fill="white"/>
<path d="M40.5808 64.011H46.5099V73.4818H50.829L52.0465 68.4767H57.0516L55.3832 75.36H40.5808V64.011Z" fill="white"/>
<path d="M82.4315 52.8669H91.2333L85.0589 58.8443H91.9558V61.2746L79.41 67.3176L85.0589 61.2746H78.9502L82.4315 52.8669Z" fill="white"/>
<path d="M92.941 69.1569H80.9865L84.7305 66.7922H92.941V69.1569Z" fill="white"/>
<path d="M98.3272 52.8669H107.129L100.955 58.8443H107.851V61.2746L95.3057 67.3176L100.955 61.2746H94.8459L98.3272 52.8669Z" fill="white"/>
<path d="M108.837 69.1569H96.8821L100.626 66.7922H108.837V69.1569Z" fill="white"/>
<path fill-rule="evenodd" clip-rule="evenodd" d="M74.3113 65.3472C74.3113 68.6257 71.6535 71.2835 68.375 71.2835C65.0965 71.2835 62.4387 68.6257 62.4387 65.3472C62.4387 62.0687 65.0965 59.4109 68.375 59.4109C71.6535 59.4109 74.3113 62.0687 74.3113 65.3472ZM71.0244 65.8474H73.2863C73.1542 67.1596 72.5082 68.3202 71.5526 69.1248L70.2581 67.276C70.6461 66.8972 70.9202 66.4023 71.0244 65.8474ZM69.4255 67.8304L70.7265 69.6884C70.0274 70.0679 69.2264 70.2835 68.375 70.2835C67.478 70.2835 66.637 70.0442 65.9121 69.6261L67.2067 67.7771C67.5602 67.9474 67.9565 68.0427 68.375 68.0427C68.7477 68.0427 69.1027 67.9671 69.4255 67.8304ZM66.4016 67.1835L65.1008 69.0413C64.1984 68.2409 63.5913 67.1149 63.4638 65.8474H65.7257C65.8215 66.3582 66.0615 66.8181 66.4016 67.1835ZM71.0245 64.8474H73.2863C73.1544 63.5352 72.5085 62.3746 71.5531 61.5699L70.2586 63.4186C70.6465 63.7975 70.9205 64.2925 71.0245 64.8474ZM68.375 60.4109C69.2266 60.4109 70.0278 60.6265 70.727 61.0062L69.4262 62.864C69.1032 62.7271 68.7479 62.6514 68.375 62.6514C67.9562 62.6514 67.5597 62.7469 67.2061 62.9173L65.9116 61.0686C66.6366 60.6502 67.4778 60.4109 68.375 60.4109ZM65.1003 61.6534L66.4011 63.5111C66.0611 63.8766 65.8213 64.3366 65.7255 64.8474H63.4637C63.5911 63.5799 64.198 62.4539 65.1003 61.6534ZM70.0707 65.3471C70.0707 66.2836 69.3115 67.0427 68.375 67.0427C67.4385 67.0427 66.6793 66.2836 66.6793 65.3471C66.6793 64.4106 67.4385 63.6514 68.375 63.6514C69.3115 63.6514 70.0707 64.4106 70.0707 65.3471Z" fill="white"/>
</svg>
