<svg width="128" height="128" viewBox="0 0 128 128" fill="none" xmlns="http://www.w3.org/2000/svg">
 
<path fill-rule="evenodd" clip-rule="evenodd" d="M64 31.4174C46.0052 31.4174 31.4174 46.0052 31.4174 64C31.4174 81.9949 46.0052 96.5826 64 96.5826C81.9949 96.5826 96.5826 81.9949 96.5826 64C96.5826 61.9365 96.3912 59.9211 96.0263 57.9695C95.6498 55.9561 96.9767 54.0187 98.9901 53.6422C101.003 53.2657 102.941 54.5927 103.317 56.606C103.766 59.005 104 61.4769 104 64C104 86.0914 86.0914 104 64 104C41.9086 104 24 86.0914 24 64C24 41.9086 41.9086 24 64 24C65.901 24 67.7731 24.1329 69.607 24.3903C71.6353 24.6751 73.0488 26.5503 72.764 28.5787C72.4793 30.607 70.6041 32.0205 68.5757 31.7357C67.0824 31.5261 65.555 31.4174 64 31.4174Z" fill="#14B997"/>
<path d="M96.4468 39.2714C96.4468 43.368 93.1258 46.6889 89.0293 46.6889C84.9328 46.6889 81.6119 43.368 81.6119 39.2714C81.6119 35.1749 84.9328 31.854 89.0293 31.854C93.1258 31.854 96.4468 35.1749 96.4468 39.2714Z" fill="#14BA94"/>
</svg>
