<svg width="128" height="128" viewBox="0 0 128 128" fill="none" xmlns="http://www.w3.org/2000/svg">
 
<path d="M75.0978 45.1686C75.0978 47.6539 73.0831 49.6686 70.5978 49.6686C68.1125 49.6686 66.0978 47.6539 66.0978 45.1686C66.0978 42.6833 68.1125 40.6686 70.5978 40.6686C73.0831 40.6686 75.0978 42.6833 75.0978 45.1686Z" fill="#1E4FC8"/>
<path fill-rule="evenodd" clip-rule="evenodd" d="M74.6265 52.0647C76.7784 50.8214 79.5308 51.5579 80.7742 53.7098L90.5513 70.6319C91.7947 72.7838 91.0581 75.5362 88.9062 76.7795C86.7543 78.0229 84.0019 77.2863 82.7586 75.1344L72.9814 58.2123C71.738 56.0604 72.4746 53.308 74.6265 52.0647Z" fill="#1E4FC8"/>
<path fill-rule="evenodd" clip-rule="evenodd" d="M48.8264 43.7825C50.7537 40.4594 55.5528 40.4606 57.4783 43.7847L72.7825 70.2055C74.0282 72.356 73.2946 75.1092 71.1441 76.3549C68.9935 77.6006 66.2403 76.8671 64.9946 74.7166L54.8792 57.2535C54.109 55.9239 52.1894 55.9234 51.4185 57.2526L41.0301 75.1651C39.7833 77.315 37.0297 78.0471 34.8798 76.8003C32.7299 75.5534 31.9979 72.7999 33.2447 70.65L48.8264 43.7825Z" fill="url(#paint0_linear_348_166)"/>
<path fill-rule="evenodd" clip-rule="evenodd" d="M55.4095 41.4011C57.5594 42.6479 58.2915 45.4015 57.0447 47.5514L41.0301 75.1651C39.7833 77.315 37.0297 78.0471 34.8798 76.8003C32.7299 75.5534 31.9979 72.7999 33.2447 70.65L49.2592 43.0362C50.5061 40.8863 53.2596 40.1543 55.4095 41.4011Z" fill="url(#paint1_linear_348_166)"/>
<defs>
<linearGradient id="paint0_linear_348_166" x1="64.0918" y1="49.1901" x2="77.4237" y2="80.6491" gradientUnits="userSpaceOnUse">
<stop offset="0.039207" stop-color="#0F3BA6"/>
<stop offset="1" stop-color="#1F50C9"/>
</linearGradient>
<linearGradient id="paint1_linear_348_166" x1="45.1447" y1="40.7931" x2="45.1447" y2="77.4083" gradientUnits="userSpaceOnUse">
<stop stop-color="#1F50C9"/>
<stop offset="1" stop-color="#1F50C9"/>
</linearGradient>
</defs>
</svg>
