<svg xmlns="http://www.w3.org/2000/svg" xmlns:xlink="http://www.w3.org/1999/xlink" width="32" height="32" viewBox="0 0 32 32" fill="none"><g opacity="1" transform="translate(0 0)  rotate(0 16 15.999999999999998)"> <g opacity="1" transform="translate(7 7.368150507963037)  rotate(0 9 8.63184949203707)"><path id="路径 2" fill-rule="evenodd" style="fill:#FFFFFF" transform="translate(0 0.08122704991372391)  rotate(0 3.5238506928508335 8.192029277971056)" opacity="1" d="M5.48,14.81C5.46,15.59 4.9,16.25 4.13,16.38L5.48,16.38C5.89,16.39 6.3,16.22 6.59,15.93C6.89,15.63 7.05,15.23 7.05,14.81L7.05,1.61C7.04,0.74 6.35,0.03 5.48,0L1.57,0C0.71,0.01 0.01,0.71 0,1.57L0,14.81C0,15.23 0.16,15.63 0.46,15.93C0.75,16.22 1.15,16.39 1.57,16.38L3.14,16.38C3.43,16.4 3.71,16.25 3.86,16C4.01,15.75 4.01,15.44 3.86,15.19C3.71,14.94 3.43,14.79 3.14,14.81L2.38,14.81C1.96,14.81 1.62,14.47 1.62,14.05L1.62,2.37C1.62,1.95 1.96,1.61 2.38,1.61L4.71,1.61C5.14,1.61 5.48,1.95 5.48,2.37L5.48,14.81Z " /><path id="路径 3" fill-rule="evenodd" style="fill:#FFFFFF" transform="translate(8.527785609647596 0)  rotate(0 4.736107195176203 8.63184949203707)" opacity="1" d="M1.11,16.81C1.4,16.52 1.57,16.12 1.57,15.7L1.57,7.04L6.57,7.04L6.57,17.23C6.98,17.23 7.38,17.06 7.67,16.77C7.96,16.48 8.13,16.08 8.13,15.66L8.13,7.03C8.85,6.88 9.37,6.24 9.38,5.51L1.66,5.51L1.66,2.46C1.66,1.92 1.98,1.61 2.42,1.61L7.9,1.61C8.32,1.61 8.72,1.45 9.01,1.15C9.31,0.85 9.47,0.45 9.47,0.04L9.47,0L1.57,0C0.7,0.03 0.01,0.74 0,1.61L0,17.26C0.42,17.27 0.82,17.1 1.11,16.81Z " /></g></g></svg>