<svg xmlns="http://www.w3.org/2000/svg" xmlns:xlink="http://www.w3.org/1999/xlink" width="32" height="32" viewBox="0 0 32 32" fill="none"><defs><rect id="path_0" x="0" y="0" width="20" height="20" /></defs><g opacity="1" transform="translate(0 0)  rotate(0 16 15.999999999999998)"><g opacity="1" transform="translate(6 6)  rotate(0 10 10)"><mask id="bg-mask-0" fill="white"><use xlink:href="#path_0"></use></mask><g mask="url(#bg-mask-0)" ><path id="路径 1" fill-rule="evenodd" style="fill:#FFFFFF" transform="translate(0.4046288607714814 0.14243643476311263)  rotate(0 9.58578367458832 9.837196356633696)" opacity="1" d="M16.62,14.49L17.06,14.06C17.86,13.25 18.28,12.69 18.66,11.9C19.56,10.04 19.27,8.25 17.77,6.37C17.44,5.96 16.66,5.18 16.19,4.78C14.43,3.31 11.69,1.7 9.49,0.84C8.35,0.39 7.37,0.14 6.39,0.03C6.01,-0.01 5.25,-0.01 4.87,0.04C3.8,0.19 2.92,0.63 2.2,1.38C0.98,2.65 0.31,4.63 0.04,7.7C-0.02,8.47 -0.01,11.41 0.06,12.17C0.23,14 0.55,15.38 1.04,16.5C1.39,17.29 1.74,17.82 2.26,18.33C3.03,19.12 3.92,19.52 5.13,19.65C7.27,19.87 10.45,18.73 13.95,16.49L14.42,16.2L14.99,16.35C16.53,16.77 17.25,16.96 17.26,16.95C17.27,16.94 17.13,16.39 16.95,15.72L16.62,14.49Z " /><path id="分组 1" fill-rule="evenodd" style="fill:#E64A3A" transform="translate(2.372148455664046 7.1634700177014565)  rotate(0 7.25278511015625 2.649658164381242)" opacity="1" d="M0 0.1L0 5.18L1.09 5.18L1.09 1.97L1.27 1.72C1.48 1.43 1.74 1.17 1.9 1.11C1.96 1.08 2.08 1.06 2.17 1.06C2.37 1.06 2.52 1.15 2.62 1.36L2.7 1.52L2.71 3.35L2.72 5.18L3.81 5.18L3.8 3.2L3.79 1.23L3.7 0.99C3.52 0.44 3.2 0.14 2.72 0.04C2.16 -0.08 1.72 0.07 1.26 0.54L0.96 0.83L0.96 0.59C0.96 0.45 0.95 0.28 0.94 0.22L0.92 0.1L0 0.1Z M6.01844 3.17501L5.99844 2.97501L7.48844 2.97501C8.50844 2.97501 8.97844 2.96501 8.99844 2.93501C9.00844 2.92501 9.01844 2.66501 9.01844 2.37501C9.01844 1.93501 9.00844 1.79501 8.94844 1.55501C8.83844 1.10501 8.68844 0.825015 8.40844 0.545015C8.12844 0.265015 7.86844 0.135015 7.49844 0.0550147C6.78844 -0.0949854 6.13844 0.0850146 5.64844 0.575015C5.14844 1.08501 4.88844 1.81501 4.88844 2.75501C4.88844 4.21501 5.53844 5.10501 6.72844 5.27501C7.16844 5.34501 8.10844 5.25501 8.61844 5.09501L8.78844 5.04501L8.78844 4.08501L8.71844 4.10501C8.05844 4.29501 7.20844 4.37501 6.86844 4.27501C6.38844 4.13501 6.06844 3.72501 6.01844 3.17501Z M13.2502 5.17926C13.5902 5.17926 13.8702 5.17926 13.8702 5.16926C13.8702 5.16926 14.0102 4.02926 14.1902 2.63926C14.3602 1.25926 14.5102 0.119263 14.5102 0.109263C14.5102 0.109263 14.2802 0.0992626 14.0102 0.0992626L13.5202 0.0992626L13.5002 0.249263C13.4902 0.339263 13.4402 0.859263 13.3902 1.40926C13.2702 2.66926 13.1602 3.71926 13.1502 3.72926C13.1502 3.73926 13.0702 3.48926 12.9702 3.16926C12.8802 2.85926 12.7202 2.35926 12.6202 2.05926L12.4402 1.51926L11.6102 1.51926L11.3702 2.34926C11.2302 2.80926 11.0902 3.29926 11.0502 3.44926L10.9802 3.72926L10.9502 3.51926C10.9402 3.39926 10.8502 2.59926 10.7502 1.72926C10.6502 0.859263 10.5602 0.139263 10.5602 0.129263C10.5302 0.0892626 9.56023 0.0892626 9.54023 0.129263C9.53023 0.139263 9.67023 1.25926 9.84023 2.61926C10.0202 3.98926 10.1602 5.11926 10.1602 5.13926C10.1602 5.16926 10.3102 5.17926 10.7802 5.17926C11.1202 5.17926 11.4102 5.16926 11.4102 5.15926C11.4102 5.15926 11.5202 4.75926 11.6602 4.28926C11.8002 3.81926 11.9302 3.34926 11.9502 3.24926C11.9702 3.14926 12.0002 3.07926 12.0102 3.08926C12.0202 3.09926 12.0902 3.30926 12.1602 3.55926C12.2302 3.80926 12.3602 4.27926 12.4602 4.59926L12.6402 5.17926L13.2502 5.17926Z M6.0463 1.90714L6.0163 2.07714L7.9263 2.07714L7.9063 1.87714C7.8563 1.45714 7.6763 1.14714 7.4063 1.01714C7.1763 0.897143 6.8563 0.897143 6.6263 1.00714C6.3263 1.14714 6.1163 1.47714 6.0463 1.90714Z " /></g></g></g></svg>