<svg xmlns="http://www.w3.org/2000/svg" xmlns:xlink="http://www.w3.org/1999/xlink" width="32" height="32" viewBox="0 0 32 32" fill="none"><defs><rect id="path_0" x="0" y="0" width="24" height="24" /></defs><g opacity="1" transform="translate(0 0)  rotate(0 16 15.999999999999998)"> <g opacity="1" transform="translate(4 4)  rotate(0 12 12)"><mask id="bg-mask-0" fill="white"><use xlink:href="#path_0"></use></mask><g mask="url(#bg-mask-0)" ><path id="路径 2" fill-rule="evenodd" style="fill:#FFFFFF" transform="translate(2.4004298238219786 4.319522439141036)  rotate(0 6.5992679490651085 8.580137600753595)" opacity="1" d="M3.07,11.43C1.8,9.33 1.65,7.15 2.53,4.86C2.63,4.42 2.82,4.03 3.11,3.69C3.26,3.3 3.55,3.01 3.8,2.72C3.99,2.43 4.14,2.38 4.38,2.67C5.07,3.4 5.8,4.13 6.53,4.86C7.26,5.59 7.26,6.51 6.53,7.24C5.8,8.02 5.02,8.75 4.29,9.53C4.19,9.63 4.04,9.72 3.99,9.92C3.85,10.45 3.95,10.89 4.38,11.18C4.82,11.47 5.31,11.43 5.7,10.99C6.39,10.31 7.02,9.63 7.75,8.94C8.73,8.02 9.22,6.9 9.12,5.54C9.02,5.15 8.88,4.81 8.78,4.42C8.53,3.93 8.14,3.55 7.75,3.16C6.83,2.29 5.94,1.4 5.07,0.48C4.43,-0.15 3.85,-0.15 3.21,0.43C-2.21,5.25 -0.5,14.15 6.29,16.58C8.29,17.31 10.34,17.36 12.39,16.68C13.12,16.44 13.42,15.76 13.03,15.17C12.78,14.78 12.34,14.64 11.71,14.78L11.71,14.78C8.34,15.75 4.82,14.44 3.07,11.43Z " /><path id="路径 3" fill-rule="evenodd" style="fill:#FFFFFF" transform="translate(8.399813633968847 2.399902699644109)  rotate(0 6.600251294215357 8.5198950537143)" opacity="1" d="M8.81,14.53C8.12,13.8 7.39,13.12 6.7,12.43C5.87,11.6 5.87,10.68 6.7,9.85L8.91,7.65C9.4,7.16 9.4,6.53 8.96,6.14C8.52,5.75 7.93,5.75 7.49,6.24L5.13,8.58C3.76,9.99 3.71,12.14 5.04,13.56C6.02,14.58 7.05,15.56 8.07,16.58C8.32,16.58 8.37,16.83 8.57,16.92C8.96,17.12 9.35,17.07 9.74,16.78C9.84,16.68 9.94,16.58 10.08,16.58C10.18,16.53 10.26,16.47 10.33,16.39C13.42,13.41 14.05,8.68 12.05,4.92C9.94,1.06 5.09,-0.94 0.82,0.43C0.18,0.63 -0.11,1.26 0.04,1.75C0.23,2.33 0.77,2.58 1.41,2.38C2.54,2.04 3.66,1.94 4.79,2.14C7.68,2.67 9.69,4.29 10.72,7.02C11.7,9.75 11.21,12.29 9.35,14.53C9.15,14.78 9.01,14.78 8.81,14.53Z " /><path id="路径 4" fill-rule="evenodd" style="fill:#FFFFFF" transform="translate(16.44000000000002 18.96000000000005)  rotate(0 1.0199999999999996 0.3001499999999999)" opacity="1" d="M0.15,0.15L0,0C0.65,0.8 1.34,0.8 2.04,0C1.94,0 1.89,0.05 1.84,0.15C1.19,0.7 0.75,0.7 0.15,0.15Z " /><path id="路径 5" fill-rule="evenodd" style="fill:#FFFFFF" transform="translate(16.44000000000002 18.960247758669865)  rotate(0 1.0199999999999996 0.29972612066507054)" opacity="1" d="M0.5,0.38C0.3,0.27 0.25,0.01 0,0.01L0.15,0.17C0.75,0.74 1.19,0.74 1.84,0.17C1.89,0.11 1.99,0.06 2.04,0.01C1.84,-0.04 1.79,0.11 1.69,0.22C1.29,0.53 0.9,0.59 0.5,0.38Z " /></g></g></g></svg>