<svg width="128" height="128" viewBox="0 0 128 128" fill="none" xmlns="http://www.w3.org/2000/svg">
 
<path d="M62.0504 49.5C62.0504 52.5375 60.5 54.5 58.5 54.5C56 54.5 54.0765 52.6782 54.0765 49.5C54.0765 46.4624 55.7564 44.1432 58.452 44.1432C60.452 44.1432 62.0504 46.1446 62.0504 49.5Z" fill="#2B32D8"/>
<path d="M54.7925 57.707C54.7925 60.4569 53.6715 62.5593 50.8871 62.5593C48.4947 62.5593 46.8573 60.3687 46.8573 57.6189C46.8573 54.869 48.4317 52.5508 50.8871 52.5508C53.2433 52.5508 54.7925 54.9572 54.7925 57.707Z" fill="#2B32D8"/>
<path d="M72.3732 49.3216C72.3732 52.4303 70.5951 54.4584 67.8644 54.4584C65.7725 54.4584 64.3663 52.3665 64.3663 49.3216C64.3663 46.0588 66.1238 44.1266 68.1838 44.1266C70.5632 44.1266 72.3732 46.4617 72.3732 49.3216Z" fill="#2B32D8"/>
<path d="M79.5956 57.555C79.5956 60.3188 77.8019 62.5593 75.5894 62.5593C72.9154 62.5593 71.6966 60.8647 71.6966 57.555C71.6966 54.7912 73.3768 52.5508 75.5894 52.5508C77.8019 52.5508 79.5956 54.7912 79.5956 57.555Z" fill="#2B32D8"/>
<path d="M63.4589 77.7504C60.1944 77.7504 59.0723 78.7645 55.3986 78.7645C51.0871 78.7645 48.7469 75.8377 48.7469 72.2274C48.7469 70.2337 49.7621 68.5657 51.0871 67.2494C52.3193 66.0253 53.7939 65.0674 55.2451 63.7072C56.6963 62.3469 57.0234 61.6287 58.5914 59.5229C59.6308 58.1271 61.2936 57.2231 63.1676 57.2231C64.832 57.2231 66.3297 57.9361 67.3721 59.0734C69.3098 61.1875 69.327 61.9487 71.0089 63.5654C72.3784 64.8817 73.4982 65.592 75.5226 67.455C76.8187 68.6478 77.6286 70.3447 77.6286 72.2274C77.6286 75.8377 75.3622 78.7645 70.9769 78.7645C67.2307 78.7645 66.0869 77.7504 63.4589 77.7504Z" fill="#2B32D8"/>
<path fill-rule="evenodd" clip-rule="evenodd" d="M57.2906 66.7286C54.9711 66.7286 53.0906 68.609 53.0906 70.9286V71.3912C53.0906 73.7108 54.9711 75.5912 57.2906 75.5912H61.9954V62.9388L59.558 62.9388V66.7286H57.2906ZM57.5813 69.0762C56.4767 69.0762 55.5813 69.9716 55.5813 71.0762V71.2362C55.5813 72.3408 56.4767 73.2362 57.5813 73.2362H59.5555V69.0762H57.5813Z" fill="white"/>
<path d="M66.1683 66.6435H63.857V73.0912C63.857 74.4719 64.9763 75.5912 66.357 75.5912H71.744V66.6435H69.4327V73.2676H66.9683C66.5265 73.2676 66.1683 72.9094 66.1683 72.4676V66.6435Z" fill="white"/>
<path fill-rule="evenodd" clip-rule="evenodd" d="M17.5 59.75L8 59.75V78H18C22 78 24.3056 76.266 24.3056 72.883C24.3056 71.4972 24 69.75 21.5 68.75C23.4759 67.762 23.5481 66.5618 23.6101 65.5333L23.6123 65.4957C23.8022 62.3554 21.8115 59.75 17.5 59.75ZM17.5 70.5H12V74.5L17 74.4999C17.0412 74.4999 17.084 74.5001 17.128 74.5003C18.1509 74.5042 19.8673 74.5109 19.8673 72.5C19.8673 72 19.5 70.5 17.5 70.5ZM19.6196 65.2543C19.6196 66.4817 18.6654 67 17.5 67H12V63H17C19 63 19.6196 63.8799 19.6196 65.2543Z" fill="#CE2D1F"/>
<path fill-rule="evenodd" clip-rule="evenodd" d="M34.8906 64.5H26.2714V67.3008H33.6458C34.4742 67.3008 35.1458 67.9723 35.1458 68.8008V69.7853H28.7362C26.8035 69.7853 25.2366 71.3519 25.2362 73.2846L25.2361 74.2697C25.2361 76.2027 26.8031 77.7697 28.7361 77.7697H38.8906L38.8906 68.5C38.8906 66.2908 37.0998 64.5 34.8906 64.5ZM30.2273 72.3249C29.439 72.3249 28.7999 72.964 28.7999 73.7523C28.7999 74.5406 29.439 75.1796 30.2273 75.1796H35.1478V72.3249H30.2273Z" fill="#CE2D1F"/>
<path d="M40.7031 59.7648H44.5V63.1289H40.7031V59.7648Z" fill="#CE2D1F"/>
<path d="M40.7 64.5H44.5V77.7696H40.7V64.5Z" fill="#CE2D1F"/>
<path d="M81.0015 64.0654H83.9857V63.0251H96.1688V63.819H99.3446L100.084 60.5063H98.3864L99.0434 59.0005H95.3201L94.6083 60.5063H92.3907L91.6515 59.0005H87.8186L88.4483 60.5063H86.1759L85.6558 59.0005H82.0693L82.6168 60.5063H81.0015V64.0654Z" fill="#CE2D1F"/>
<path d="M91.9594 68.4785V69.8252H81.2502V72.1979H91.9594V75.3966C91.9594 75.5071 91.8699 75.5966 91.7594 75.5966H82.7572V77.8411H93.5016C94.3853 77.8411 95.1016 77.1247 95.1016 76.2411V72.1979H100.168V69.8252H95.1016V69.4404L99.2699 66.5868V64.7271H81.6029V67.1639H93.787L91.9594 68.4785Z" fill="#CE2D1F"/>
<path d="M109.717 61.1805H101.848V63.8167H109.717V77.3646H112.654V63.8167H118.932C119.871 63.8167 120.632 63.0556 120.632 62.1167V59.6248H117.369V60.9805C117.369 61.091 117.279 61.1805 117.169 61.1805H112.654V58.8584H109.717V61.1805Z" fill="#CE2D1F"/>
<path d="M117.003 74.9312V64.6722H113.925V75.5919C113.925 76.586 114.731 77.3919 115.725 77.3919H120.462V75.1312H117.203C117.093 75.1312 117.003 75.0417 117.003 74.9312Z" fill="#CE2D1F"/>
<path d="M105.209 64.7267H108.342L106.815 75.5089C106.675 76.4953 105.831 77.2284 104.835 77.2284H101.696V75.0767H103.122C103.367 75.0767 103.577 74.8984 103.616 74.656L105.209 64.7267Z" fill="#CE2D1F"/>
</svg>
