<svg xmlns="http://www.w3.org/2000/svg" xmlns:xlink="http://www.w3.org/1999/xlink" width="32" height="32" viewBox="0 0 32 32" fill="none"><g opacity="1" transform="translate(0 0)  rotate(0 16 15.999999999999998)"> <g opacity="1" transform="translate(6 9.170382375066538)  rotate(0 9.99999999999991 6.829617624933455)"><path id="路径 2" fill-rule="evenodd" style="fill:#FFFFFF" transform="translate(11.520960293949651 1.3766533194209325)  rotate(0 4.239519853025084 6.141290965222988)" opacity="1" d="M1.43,12.25C1.55,12.31 1.63,12.29 1.71,12.18C1.78,12.06 1.86,11.94 1.93,11.82C1.99,11.72 2.01,11.61 1.97,11.49C1.89,11.26 1.81,11.03 1.74,10.8C1.72,10.75 1.7,10.69 1.71,10.63C1.74,10.4 1.77,10.17 1.8,9.93C1.81,9.88 1.85,9.82 1.89,9.8C2.06,9.7 2.23,9.61 2.4,9.52C2.41,9.52 2.42,9.53 2.43,9.54C2.33,9.68 2.23,9.82 2.11,9.97C2.51,10.06 2.88,10.11 3.24,9.92C3.49,9.79 3.55,9.6 3.38,9.37C3.28,9.23 3.16,9.11 3.04,8.96C3.54,8.54 4.1,8.19 4.74,7.9C4.52,8.81 4.31,9.69 4.09,10.58C3.91,10.44 3.74,10.33 3.54,10.2C3.52,10.33 3.49,10.45 3.52,10.54C3.6,10.81 3.7,11.08 3.81,11.34C3.88,11.52 4.03,11.6 4.23,11.59C4.41,11.57 4.51,11.46 4.56,11.3C4.61,11.14 4.65,10.98 4.69,10.82C4.93,9.93 5.18,9.04 5.42,8.15C5.48,7.92 5.51,7.7 5.41,7.48C5.39,7.43 5.38,7.36 5.39,7.3C5.44,6.95 5.5,6.6 5.56,6.25C5.7,5.37 5.96,4.55 6.48,3.82C7.13,2.9 7.75,1.97 8.38,1.05C8.49,0.88 8.51,0.72 8.43,0.54C8.19,0.05 7.71,-0.13 7.21,0.1C6.56,0.41 5.91,0.73 5.26,1.04C5.01,1.16 4.74,1.26 4.47,1.36C4.37,1.4 4.24,1.41 4.13,1.43C4.04,1.45 3.93,1.47 3.93,1.57C3.93,1.65 3.98,1.75 4.04,1.81C4.1,1.86 4.2,1.89 4.28,1.9C4.47,1.9 4.67,1.89 4.85,1.86C5.24,1.79 5.58,1.62 5.91,1.41C6.19,1.22 6.47,1.04 6.76,0.86C6.98,0.72 7.23,0.63 7.5,0.62C7.71,0.61 7.76,0.67 7.7,0.86C7.66,0.97 7.61,1.08 7.55,1.18C7.47,1.31 7.37,1.44 7.27,1.56C6.37,2.72 5.68,4 5.15,5.36C4.94,5.91 4.85,6.47 4.82,7.05C4.82,7.12 4.83,7.18 4.73,7.19C4.54,7.2 4.38,7.29 4.24,7.41C3.87,7.76 3.44,8.01 3.03,8.29C2.51,8.66 1.99,9.03 1.48,9.4C1.38,9.48 1.33,9.55 1.4,9.67C1.42,9.7 1.42,9.74 1.41,9.77C1.35,9.96 1.28,10.14 1.21,10.32C1.2,10.35 1.14,10.39 1.11,10.38C0.86,10.3 0.63,10.18 0.48,9.94C0.49,9.93 0.49,9.92 0.5,9.91C1.26,9.25 2.01,8.6 2.77,7.95C2.98,7.77 3.18,7.58 3.38,7.39C3.64,7.15 3.67,6.89 3.47,6.61C3.37,6.47 3.25,6.35 3.13,6.23C3.05,6.15 2.96,6.09 2.83,6.14C2.71,6.18 2.66,6.29 2.65,6.4C2.62,6.76 2.46,7.05 2.24,7.32C1.6,8.11 0.96,8.9 0.32,9.69C0.25,9.79 0.18,9.91 0,9.84C0.05,10 0.1,10.14 0.18,10.26C0.39,10.61 0.59,10.96 0.69,11.36C0.81,11.77 1.04,12.06 1.43,12.25Z " /><path id="分组 1" fill-rule="evenodd" style="fill:#FFFFFF" transform="translate(2.459900366773759 2.6092738531883417)  rotate(0 7.015141222278731 5.087126940388973)" opacity="1" d="M9.90906 4.57C9.83906 4.49 9.77906 4.49 9.70906 4.57C9.47906 4.85 9.25906 5.12 9.02906 5.38C8.92906 5.49 8.81906 5.58 8.70906 5.68C8.69906 5.68 8.68906 5.67 8.67906 5.66C8.68906 5.62 8.68906 5.59 8.70906 5.55C8.77906 5.32 8.85906 5.08 8.92906 4.85C9.04906 4.47 9.24906 4.16 9.55906 3.91C9.61906 3.87 9.68906 3.82 9.73906 3.77C9.89906 3.62 9.99906 3.43 9.95906 3.2C9.85906 2.66 9.03906 2.37 8.61906 2.73C8.51906 2.8 8.49906 2.9 8.55906 3.01C8.57906 3.05 8.61906 3.09 8.64906 3.13C8.77906 3.28 8.80906 3.44 8.75906 3.62C8.68906 3.91 8.61906 4.2 8.53906 4.48C8.40906 4.94 8.25906 5.4 8.14906 5.87C8.09906 6.07 8.08906 6.29 8.09906 6.49C8.11906 6.72 8.27906 6.81 8.49906 6.75C8.52906 6.74 8.56906 6.72 8.59906 6.71C8.93906 6.57 9.18906 6.33 9.37906 6.02C9.51906 5.81 9.63906 5.6 9.76906 5.38C9.78906 5.41 9.79906 5.42 9.80906 5.44C9.95906 5.72 10.0991 5.99 10.2491 6.27C10.2791 6.33 10.3191 6.38 10.3991 6.33C10.5191 6.26 10.6491 6.19 10.7691 6.11C10.9091 6.03 10.9791 5.9 10.9791 5.73C10.9891 5.43 10.9991 5.13 11.0091 4.84C11.0291 4.23 11.0791 3.63 11.2391 3.05C11.4691 2.25 11.7391 1.45 11.9891 0.65C12.0291 0.54 12.0491 0.42 12.0591 0.31C12.0691 0.12 11.9491 0.01 11.7591 0C11.4991 -0.01 11.2691 0.06 11.0591 0.22C10.6691 0.54 10.2091 0.67 9.71906 0.69C9.59906 0.69 9.47906 0.71 9.36906 0.73C9.27906 0.75 9.24906 0.81 9.30906 0.89C9.35906 0.95 9.39906 1.03 9.44906 1.1C9.58906 1.3 9.73906 1.35 9.96906 1.28C10.1891 1.22 10.3991 1.15 10.6191 1.08C10.7591 1.04 10.9191 1 11.0791 0.95C10.7691 2.23 10.4691 3.52 10.1591 4.81C10.0691 4.72 9.98906 4.65 9.90906 4.57Z M12.8909 2.75977C13.0009 2.71977 13.1209 2.69977 13.2409 2.64977C13.4609 2.55977 13.6709 2.46977 13.8809 2.35977C14.0209 2.27977 14.0709 2.14977 14.0009 2.02977C13.9409 1.91977 13.8609 1.79977 13.7609 1.73977C13.5809 1.61977 13.3809 1.53977 13.1809 1.44977C13.0709 1.39977 12.9709 1.43977 12.8909 1.52977C12.8009 1.61977 12.7809 1.72977 12.8509 1.83977C12.8909 1.91977 12.9509 1.99977 13.0109 2.05977C13.1009 2.14977 13.1009 2.21977 13.0209 2.29977C12.9209 2.40977 12.8309 2.52977 12.7309 2.63977C12.6109 2.75977 12.5609 2.90977 12.5509 3.06977C12.5409 3.20977 12.5409 3.34977 12.5509 3.47977C12.6009 3.89977 12.8009 4.08977 13.2109 4.07977C13.3509 4.07977 13.4709 4.04977 13.5309 3.90977C13.6009 3.77977 13.5809 3.64977 13.4909 3.53977C13.2909 3.27977 13.0909 3.01977 12.8909 2.75977Z M0 2.25827C0.01 2.47827 0.04 2.68827 0.07 2.90827C0.1 3.20827 0.25 3.43827 0.52 3.56827C0.81 3.70827 1.1 3.52827 1.1 3.16827C1.08 3.12827 1.07 3.05827 1.04 2.98827C0.87 2.61827 0.7 2.23827 0.52 1.86827C0.46 1.75827 0.38 1.65827 0.3 1.55827C0.27 1.51827 0.19 1.48827 0.15 1.49827C0.11 1.50827 0.06 1.57827 0.06 1.61827C0.03 1.82827 0 2.04827 0 2.25827Z M1.8716 1.54906C1.8016 1.34906 1.7116 1.14906 1.6116 0.969058C1.4916 0.759058 1.3116 0.609058 1.0916 0.499058C1.0016 0.449058 0.901601 0.469058 0.821601 0.519058C0.731601 0.579058 0.741601 0.659058 0.761601 0.739058C0.781601 0.809058 0.801601 0.869058 0.811601 0.929058C0.891601 1.24906 0.981601 1.56906 1.0516 1.87906C1.0916 2.05906 1.2416 2.18906 1.4316 2.18906C1.6616 2.18906 1.9616 1.77906 1.8716 1.54906Z M12.0145 9.55952C11.8345 9.40952 11.6345 9.27952 11.4345 9.15952C11.3345 9.09952 11.2245 9.12952 11.1645 9.22952C11.0745 9.35952 11.0845 9.55952 11.1945 9.66952C11.3245 9.80952 11.4545 9.93952 11.5845 10.0695C11.6945 10.1795 11.7945 10.1995 11.9145 10.1395C12.0345 10.0795 12.1345 9.99952 12.1245 9.82952C12.0945 9.72952 12.0845 9.60952 12.0145 9.55952Z " /><path id="分组 2" fill-rule="evenodd" style="fill:#FFFFFF" transform="translate(0 0)  rotate(0 4.660475971088612 6.745252844424438)" opacity="1" d="M5.57 8.7C5.47 8.98 5.39 9.24 5.3 9.5C5.28 9.54 5.23 9.59 5.19 9.6C4.8 9.75 4.42 9.9 4.02 10.01C3.58 10.14 3.12 10.24 2.67 10.36C2.47 10.41 2.43 10.52 2.55 10.68C2.64 10.8 2.73 10.9 2.83 11C3.09 11.26 3.3 11.3 3.63 11.15C3.91 11.03 4.2 10.9 4.48 10.78C4.68 10.69 4.88 10.61 5.09 10.52C5.09 10.57 5.09 10.6 5.09 10.62L5.09 12.44C5.09 12.58 5.08 12.59 4.94 12.55C4.47 12.39 4 12.23 3.53 12.08C3.42 12.04 3.3 12.01 3.18 11.98C3.18 11.99 3.17 12.01 3.16 12.02C3.19 12.05 3.21 12.08 3.25 12.11C3.34 12.19 3.43 12.28 3.53 12.34C4.12 12.72 4.7 13.09 5.3 13.46C5.37 13.5 5.48 13.5 5.57 13.47C5.84 13.4 6 13.1 5.94 12.82C5.93 12.75 5.9 12.68 5.9 12.61C5.89 11.82 5.88 11.04 5.88 10.26C5.88 10.2 5.93 10.12 5.97 10.09C6.36 9.88 6.76 9.71 7.2 9.64C7.37 9.61 7.53 9.54 7.68 9.45C7.88 9.33 7.9 9.08 7.73 8.92C7.41 8.6 6.83 8.61 6.53 8.94C6.42 9.06 6.29 9.13 6.11 9.16C6.13 9.09 6.14 9.04 6.15 8.98C6.21 8.79 6.28 8.6 6.32 8.41C6.38 8.18 6.29 8.01 6.06 7.91C6.04 7.9 6.01 7.88 5.97 7.86C6.03 7.83 6.07 7.81 6.12 7.79C6.39 7.67 6.66 7.56 6.93 7.43C7.78 7.02 8.45 6.4 9.06 5.69C9.14 5.6 9.21 5.5 9.27 5.39C9.36 5.27 9.33 5.14 9.21 5.07C9.02 4.95 8.81 4.88 8.58 4.96C8.37 5.03 8.16 5.09 7.95 5.16C7.86 5.19 7.77 5.21 7.68 5.24C7.69 5.19 7.72 5.16 7.74 5.13C7.88 4.96 8.04 4.81 8.15 4.63C8.37 4.27 8.58 3.9 8.77 3.52C8.94 3.19 9.1 2.85 9.25 2.51C9.37 2.26 9.31 2.09 9.05 1.99C8.92 1.95 8.77 1.92 8.63 1.92C8.34 1.93 8.1 2.1 7.88 2.27C7.76 2.37 7.76 2.47 7.88 2.57C7.96 2.63 8.04 2.68 8.11 2.73C8.17 2.78 8.22 2.83 8.19 2.92C8.02 3.47 7.79 3.98 7.37 4.38C7.31 4.44 7.23 4.47 7.16 4.51C7.13 4.43 7.1 4.36 7.08 4.28C7.02 3.87 6.93 3.47 6.45 3.32C6.49 3.11 6.54 2.9 6.58 2.69C6.62 2.45 6.66 2.21 6.69 1.97C6.71 1.84 6.68 1.81 6.56 1.83C6.52 1.83 6.47 1.83 6.43 1.83C6.46 1.77 6.5 1.73 6.55 1.68C6.76 1.49 6.96 1.29 7.09 1.02C7.18 0.82 7.24 0.62 7.2 0.39C7.16 0.19 6.96 0.01 6.79 0C6.63 0 6.54 0.08 6.47 0.33C6.36 0.72 6.22 1.09 5.93 1.38C5.64 1.68 5.32 1.96 4.99 2.23C4.89 2.32 4.75 2.37 4.62 2.39C4.42 2.42 4.38 2.62 4.46 2.75C4.61 3.02 5.01 3.11 5.27 2.92C5.5 2.75 5.73 2.57 5.96 2.4C6 2.37 6.04 2.34 6.11 2.3C6.09 2.36 6.08 2.39 6.07 2.42C5.89 2.89 5.7 3.36 5.53 3.83C5.48 3.95 5.41 3.99 5.28 4C5.05 4 4.83 4.02 4.6 4.04C4.56 4.05 4.5 4.07 4.49 4.1C4.48 4.13 4.51 4.18 4.54 4.22C4.55 4.24 4.59 4.27 4.62 4.29C4.71 4.33 4.8 4.37 4.89 4.41C5.08 4.49 5.12 4.63 5 4.79C4.93 4.89 4.84 4.99 4.75 5.08C4.59 5.25 4.43 5.41 4.27 5.57C4.19 5.67 4.19 5.74 4.29 5.8C4.45 5.89 4.76 5.85 4.87 5.69C5.02 5.47 5.2 5.26 5.37 5.05C5.51 4.88 5.59 4.87 5.78 4.99C6.04 5.15 6.3 5.32 6.55 5.49C6.59 5.51 6.62 5.55 6.66 5.58C4.71 6.41 2.92 7.48 1.22 8.71C1.08 8.33 0.79 8.1 0.51 7.86C0.5 7.88 0.49 7.89 0.48 7.9C0.33 8.43 0.18 8.95 0.04 9.48C-0.06 9.83 0.03 10.16 0.25 10.45C0.37 10.61 0.52 10.67 0.67 10.59C0.96 10.45 1.16 10.24 1.17 9.91C1.2 9.49 1.38 9.18 1.73 8.95C2.15 8.67 2.56 8.39 2.98 8.1C4.4 7.14 5.9 6.34 7.54 5.83C7.71 5.78 7.88 5.74 8.05 5.69C8.07 5.7 8.08 5.71 8.09 5.73C7.92 5.9 7.76 6.09 7.58 6.25C6.84 6.9 5.98 7.39 5.12 7.85C5.03 7.89 4.91 7.89 4.8 7.89C4.68 7.89 4.55 7.87 4.41 7.86C4.44 8.08 4.46 8.28 4.49 8.48C4.52 8.62 4.61 8.71 4.76 8.72C4.98 8.72 5.21 8.71 5.43 8.71C5.47 8.71 5.51 8.7 5.57 8.7Z M6.42544 3.64501C6.35544 3.81501 6.31544 3.98501 6.27544 4.16501C6.24544 4.28501 6.30544 4.32501 6.42544 4.33501L6.42544 3.64501Z " /></g></g></svg>