<svg xmlns="http://www.w3.org/2000/svg" xmlns:xlink="http://www.w3.org/1999/xlink" width="32" height="32" viewBox="0 0 32 32" fill="none"><defs><rect id="path_0" x="0" y="0" width="32" height="32" /></defs><g opacity="1" transform="translate(0 0)  rotate(0 16 16)"><mask id="bg-mask-0" fill="white"><use xlink:href="#path_0"></use></mask><g mask="url(#bg-mask-0)" ><g opacity="1" transform="translate(4 4.562403007688317)  rotate(0 12 11.437596992311562)"><path id="路径 1" fill-rule="evenodd" style="fill:#FFFFFF" transform="translate(11.999999999999824 5.273037651693311)  rotate(0 5.492854539967064 3.342698697689429)" opacity="1" d="M10.55,0.86C8.76,0.06 7.94,-0.27 6.23,0.25C3.72,1 2.18,3.45 0,6.69L10.99,3.1C10.81,2.55 11.04,1.09 10.55,0.86Z " /><path id="路径 2" fill-rule="evenodd" style="fill:#FFFFFF" transform="translate(11.999999999999824 8.401800667083048)  rotate(0 6.000000000000013 2.707046326696776)" opacity="1" d="M0,3.56C3.67,4.9 6.35,5.97 8.82,5.1C10.51,4.51 10.98,3.77 11.96,2.07C12.23,1.59 11.17,0.55 11,0L0,3.56Z " /><path id="分组 1" fill-rule="evenodd" style="fill:#FFFFFF" transform="translate(11.907719937822128 11.958435047072077)  rotate(0 4.507772640136858 5.458379468775542)" opacity="1" d="M0.09 0C-0.05 3.9 -0.24 6.78 1.35 8.87C2.43 10.29 3.28 10.51 5.21 10.91C5.74 11.02 6.41 9.69 6.87 9.36L0.09 0Z M6.89228 9.34C7.36228 9 8.83228 8.77 8.89228 8.23C9.10228 6.28 9.15228 5.41 8.14228 3.94C6.64228 1.78 3.84228 1.07 0.0922801 0 " /><path id="分组 2" fill-rule="evenodd" style="fill:#FFFFFF" transform="translate(3.0767348050465992 11.958435047072077)  rotate(0 4.50777262856566 5.458379468775542)" opacity="1" d="M8.92 0C5.17 1.07 2.37 1.78 0.88 3.94C-0.14 5.41 -0.09 6.28 0.13 8.23C0.19 8.77 1.65 9 2.12 9.34L8.92 0Z M2.14291 9.36C2.60291 9.69 3.28291 11.02 3.81291 10.91C5.73291 10.51 6.58291 10.29 7.66291 8.87C9.25291 6.78 9.06291 3.9 8.92291 0 " /><path id="路径 7" fill-rule="evenodd" style="fill:#FFFFFF" transform="translate(0 8.401800667083048)  rotate(0 6.000000000000013 2.707046326696776)" opacity="1" d="M0.04,2.07C1.02,3.77 1.49,4.51 3.18,5.1C5.65,5.97 8.33,4.9 12,3.56L1,0C0.83,0.55 -0.23,1.59 0.04,2.07Z " /><path id="路径 8" fill-rule="evenodd" style="fill:#FFFFFF" transform="translate(1.0142909200659302 5.273037651693311)  rotate(0 5.4928545399670625 3.342698697689429)" opacity="1" d="M10.99,6.69C8.81,3.45 7.27,1 4.76,0.25C3.04,-0.27 2.23,0.06 0.44,0.86C-0.06,1.09 0.18,2.55 0,3.1L10.99,6.69Z " /><path id="路径 9" fill-rule="evenodd" style="fill:#FFFFFF" transform="translate(7.803952136778775 0)  rotate(0 2.0980239316105855 5.979217523536085)" opacity="1" d="M1.92,0.13C0.6,1.58 0.04,2.26 0,4.05C-0.06,6.67 1.79,8.89 4.2,11.96L4.18,0.4C3.61,0.4 2.28,-0.27 1.92,0.13Z " /><path id="路径 10" fill-rule="evenodd" style="fill:#FFFFFF" transform="translate(11.999999999999824 0)  rotate(0 2.098023931610587 5.979217523536085)" opacity="1" d="M0,11.96C2.41,8.89 4.25,6.67 4.19,4.05C4.15,2.26 3.6,1.58 2.28,0.13C1.91,-0.27 0.59,0.4 0.02,0.4L0,11.96Z " /><path id="路径 11" fill-rule="evenodd" style="fill:#F2A2B6" transform="translate(10.411807753008983 10.37024276855012)  rotate(0 1.5881922469908607 1.5881922627564826)" opacity="1" d="M1.59,3.18C2.46,3.18 3.18,2.46 3.18,1.59C3.18,1.02 2.87,0.5 2.38,0.21C1.89,-0.07 1.29,-0.07 0.79,0.21C0.3,0.5 0,1.02 0,1.59C0,2.46 0.71,3.18 1.59,3.18Z " /></g></g></g></svg>