<svg width="128" height="128" viewBox="0 0 128 128" fill="none" xmlns="http://www.w3.org/2000/svg">
 
<path d="M20.9647 48.0925H7.72009L20.9647 68.0737V81.09H33.8669V68.6446L46.9974 48.0925H33.8669L27.1304 58.9394L20.9647 48.0925Z" fill="black"/>
<path d="M50.5369 53.8014V47.1791H61.1555V53.8014H50.5369Z" fill="black"/>
<path d="M50.5369 80.9758V56.9984H61.0413V80.9758H50.5369Z" fill="black"/>
<path d="M79.6523 47.8641H66.0652L77.5971 63.3924L66.0652 80.9758H78.7389L84.6762 71.7274L89.7 80.9758H104.315L91.4127 63.3924L104.315 47.8641H90.1567L84.6762 56.085L79.6523 47.8641Z" fill="black"/>
<path d="M107.808 53.848V46.91H118.348V53.848H107.808Z" fill="black"/>
<path d="M107.808 80.9758V56.9727H118.348V80.9758H107.808Z" fill="black"/>
</svg>
