<svg xmlns="http://www.w3.org/2000/svg" xmlns:xlink="http://www.w3.org/1999/xlink" width="32" height="32" viewBox="0 0 32 32" fill="none"><defs><rect id="path_0" x="0" y="0" width="28" height="28" /></defs><g opacity="1" transform="translate(0 0)  rotate(0 16 16)"> <g opacity="1" transform="translate(2 2)  rotate(0 14 14)"><mask id="bg-mask-0" fill="white"><use xlink:href="#path_0"></use></mask><g mask="url(#bg-mask-0)" ><path id="分组 1" fill-rule="evenodd" style="fill:#FFFFFF" transform="translate(2.2400000000000198 7.489999999999986)  rotate(0 11.934999999999997 6.539999999999999)" opacity="1" d="M11.76 5.53C11.69 6.16 11.62 6.72 11.55 7.07C12.04 7.49 12.46 7.77 12.67 8.12C12.95 8.54 12.6 9.17 12.11 9.17C11.13 9.17 10.36 8.33 10.5 7.35C10.5 7.14 10.5 7 10.57 6.79C11.06 4.55 9.59 3.78 7.91 3.78C6.72 3.78 5.53 3.99 4.34 4.06C4.48 3.08 5.32 3.01 6.16 3.01C7.56 2.94 8.89 2.87 10.29 2.73C10.78 2.66 11.34 2.59 11.27 1.89L5.81 1.89C5.95 1.54 6.09 1.26 6.3 0.84C5.74 0.56 5.25 0.35 4.62 0C4.27 1.96 3.08 2.59 1.26 1.96C1.12 3.57 2.38 2.94 3.22 3.29C2.1 4.69 1.12 5.95 0 7.35C1.05 7.56 1.68 6.79 2.66 6.3C2.24 8.47 1.89 10.43 1.47 12.39C2.31 12.6 3.01 12.25 3.36 11.41C3.57 10.85 3.64 10.29 3.85 9.8C4.48 7.84 6.58 6.44 8.75 6.93C8.68 7.21 8.68 7.42 8.61 7.7C8.05 7.7 7.49 7.7 7 7.77C6.09 7.91 5.32 8.33 5.11 9.31C4.9 10.22 5.18 10.99 5.95 11.55C7.07 12.32 8.4 12.6 9.87 12.6C10.01 11.83 10.08 11.06 10.22 10.22C10.57 10.43 10.78 10.57 11.06 10.64C13.09 11.76 15.19 12.74 17.57 13.02C19.88 13.3 21.91 12.6 23.52 10.92C23.66 10.78 23.8 10.5 23.87 10.29C19.95 12.39 16.38 11.76 12.88 9.8C13.79 8.68 14.07 7.77 13.72 7.07C13.3 6.3 12.74 5.67 11.76 5.53Z M7.91463 4.9L7.56463 4.9C6.79463 4.9 5.95463 4.9 5.18463 5.11C4.13463 5.32 3.99463 5.81 4.13463 6.79C5.53463 6.3 7.00463 5.74 8.47463 5.18C8.47463 5.18 8.75463 4.9 7.91463 4.9Z M6.65 10.5716L6.72 10.6416C6.72 10.7116 6.79 10.7816 6.86 10.8516C6.86 10.8516 6.86 10.9216 6.93 10.9216L7 10.9916L7.07 10.9916C7.07 11.0616 7.14 11.0616 7.14 11.0616C7.14 11.1316 7.21 11.1316 7.21 11.1316C7.21 11.2016 7.28 11.2016 7.28 11.2016C7.28 11.2016 7.35 11.2716 7.42 11.2716C7.49 11.3416 7.49 11.3416 7.56 11.3416L7.63 11.3416L7.7 11.3416L7.77 11.3416L7.91 11.3416C8.05 10.6416 8.12 9.94158 8.26 9.24158C7.21 8.96159 6.58 9.17159 6.51 9.94158L6.51 10.0116C6.51 10.1516 6.51 10.3616 6.58 10.5016C6.65 10.5016 6.65 10.5716 6.65 10.5716Z " /><path id="分组 2" fill-rule="evenodd" style="fill:#FFFFFF" transform="translate(8.749999999999998 7.6300000000000345)  rotate(0 8.285277777777765 5.599999999999972)" opacity="1" d="M14.91 0.7C14.35 0.42 13.86 0.21 13.37 0C12.53 0.56 12.46 1.75 11.34 1.96C11.2 1.33 11.13 0.7 11.06 0.14C9.59 0.35 9.52 0.49 9.8 2.03L7.56 2.03C7.56 2.94 7.77 3.15 8.75 3.15L10.78 3.15C10.78 3.22 10.85 3.36 10.85 3.43C10.43 3.57 9.94 3.71 9.52 3.92C9.1 4.13 8.4 4.41 8.33 4.76C7.98 6.3 7.84 7.91 7.63 9.59C9.73 10.92 12.04 10.71 14.49 10.36C14.63 9.45 14.7 8.68 14.84 7.91C14.91 7.14 15.12 6.37 15.12 5.6C15.19 4.48 14.77 3.99 13.72 3.78C13.3 3.71 12.81 3.64 12.39 3.57C12.39 3.5 12.32 3.43 12.32 3.36C12.74 3.22 13.16 3.08 13.65 3.01C14.42 2.87 15.19 2.87 15.89 2.73C16.24 2.52 16.73 2.38 16.52 1.68C15.75 1.75 15.05 1.75 14.14 1.82C14.49 1.33 14.7 1.05 14.91 0.7Z M9.66 8.75C9.59 8.82 9.59 8.89 9.52 8.96C9.45 9.03 9.38 9.1 9.38 9.17C10.5 9.52 11.62 9.66 12.81 9.17C13.72 8.54 12.81 8.33 12.88 8.33C12.53 8.26 12.25 8.19 11.97 8.19L10.5 8.19C10.36 8.26 10.29 8.26 10.15 8.33C10.15 8.4 10.08 8.4 10.08 8.4C10.01 8.47 9.94 8.47 9.87 8.54L9.8 8.61L9.73 8.68L9.66 8.75Z M12.67 6.99889C12.67 6.99889 12.6 6.99889 12.67 6.99889Z M10.5 6.29889C10.43 6.36889 10.43 6.36889 10.36 6.36889C10.01 6.50889 9.8 6.64889 9.66 6.92889C9.59 6.99889 9.59 7.06889 9.59 7.13889L9.59 7.20889L9.59 7.27889L9.59 7.34889L9.59 7.48889C9.73 7.48889 9.8 7.41889 9.94 7.41889L11.41 7.20889C11.62 7.13889 11.9 7.13889 12.11 7.06889C12.25 7.06889 12.32 6.99889 12.46 6.99889L12.53 6.99889L12.6 6.99889L12.67 6.99889C13.02 6.85889 14.14 6.29889 13.09 6.29889C12.39 6.29889 11.69 6.22889 10.99 6.29889L10.5 6.29889Z M10.705 4.47557C10.005 4.61557 9.725 4.96557 9.865 5.59557C10.915 5.38557 12.035 5.17557 13.155 4.96557C12.735 4.26557 11.965 4.12557 10.705 4.47557Z M6.37 4.69C6.65 4.9 6.93 5.11 7.28 5.32C7.63 3.99 6.86 2.66 5.6 2.38L5.39 4.06C5.74 4.34 6.09 4.48 6.37 4.69Z M0.14 10.64C0.14 10.57 0.07 10.5 0 10.43C0.07 10.5 0.07 10.57 0.14 10.64Z M0.14 10.64C0.42 10.92 0.84 11.13 1.4 11.2C0.84 11.06 0.42 10.92 0.14 10.64Z " /><g opacity="1" transform="translate(18.27 13.828888888888804)  rotate(0 1.7499999999999887 1.3455555555556182)"><path id="路径 12" fill-rule="evenodd" style="fill:#FFFFFF" transform="translate(0 2.481111111111238)  rotate(0 0.07000000000000006 0.10499999999999932)" opacity="1" d="M0,0.21C0,0.14 0.07,0.07 0.14,0C0.07,0.07 0,0.14 0,0.21Z " /><path id="路径 13" fill-rule="evenodd" style="fill:#FFFFFF" transform="translate(0.07000000000001805 1.2911111111111744)  rotate(0 0.17499999999999938 0.034999999999999254)" opacity="1" d="M0,0.07C0.14,0.07 0.21,0 0.35,0C0.21,0 0.14,0 0,0.07Z " /><path id="路径 14" fill-rule="evenodd" style="fill:#FFFFFF" transform="translate(2.5900000000000034 0.8011111111112026)  rotate(0 0.2100000000000002 0.07000000000000006)" opacity="1" d="M0,0.14C0.14,0.07 0.28,0.07 0.42,0C0.28,0.07 0.14,0.07 0,0.14Z " /><path id="路径 15"  style="fill:#FFFFFF" transform="translate(3.0488888888888965 0.8011111111112026)  rotate(0 0.015555555555554877 0.013671875)" opacity="1" d="" /><path id="路径 16" fill-rule="evenodd" style="fill:#FFFFFF" transform="translate(1.18999999999998 0)  rotate(0 1.1549999999999987 0.015555555555556431)" opacity="1" d="M0.92 0C0.68 0 0.44 0.01 0.21 0.03C0.45 0.01 0.68 0 0.92 0ZM0.92 0C1.4 0 1.89 0.03 2.31 0.03C1.85 0.03 1.38 0 0.92 0Z" /></g></g></g></g></svg>