<svg xmlns="http://www.w3.org/2000/svg" xmlns:xlink="http://www.w3.org/1999/xlink" width="32" height="32" viewBox="0 0 32 32" fill="none"><defs><rect id="path_0" x="0" y="0" width="24" height="24" /></defs><g opacity="1" transform="translate(0 0)  rotate(0 16 15.999999999999998)"> <g opacity="1" transform="translate(4 4)  rotate(0 12 12)"><mask id="bg-mask-0" fill="white"><use xlink:href="#path_0"></use></mask><g mask="url(#bg-mask-0)" ><path id="路径 2" fill-rule="evenodd" style="fill:#FFFFFF" transform="translate(0.9600000000000497 3.4799999999999685)  rotate(0 10.8 10.020000000000003)" opacity="1" d="M4.56,9.48C3.04,9.8 1.52,10.12 0,10.44L0,13.2C1.08,12.79 2.23,12.38 3.48,12C4.74,11.62 5.94,11.3 7.08,11.04C6.92,13.8 6.76,16.56 6.6,19.32C6.84,19.16 7.08,19 7.32,18.84C7.6,16.12 7.88,13.4 8.16,10.68C8.92,10.48 9.68,10.28 10.44,10.08C10.24,10.96 10.04,11.84 9.84,12.72C10.24,12.76 10.64,12.8 11.04,12.84C11.17,12.58 11.62,11.74 12.6,11.28C12.8,11.18 13.57,10.84 14.52,11.04C14.86,11.11 15.44,11.23 15.84,11.76C16.2,12.23 16.2,12.76 16.2,12.96C16.2,13.61 15.92,14.08 15.72,14.4C15.62,14.54 15.35,14.99 14.4,15.72C13.8,16.19 13.31,16.48 12.36,17.04C11.57,17.51 11.38,17.59 10.68,18C9.84,18.49 9.17,18.92 8.76,19.2C8.56,19.48 8.36,19.76 8.16,20.04C8.63,19.85 9.34,19.56 10.2,19.2C11.92,18.49 11.9,18.5 12.24,18.36C13.6,17.78 14.44,17.41 15.48,16.8C16.3,16.32 16.78,15.96 16.92,15.84C17.6,15.3 18.14,14.89 18.6,14.16C18.84,13.79 19.13,13.3 19.2,12.6C19.22,12.29 19.3,11.56 18.84,10.92C18.55,10.52 18.18,10.34 17.88,10.2C17.02,9.79 16.21,9.82 15.6,9.84C14.6,9.88 13.98,9.91 13.2,10.2C12.94,10.3 12.6,10.45 12.48,10.32C12.35,10.18 12.54,9.79 12.72,9.48C15.52,8.72 18.32,7.96 21.12,7.2C21.28,6.88 21.44,6.56 21.6,6.24C17.16,7.16 12.72,8.08 8.28,9C8.6,6 8.92,3 9.24,0C7.43,0.29 5.6,0.59 3.79,0.88C3.73,1.46 3.67,2.04 3.61,2.62C4.01,2.58 4.42,2.53 4.81,2.5L4.56,9.48Z " /><path id="路径 3" fill-rule="evenodd" style="fill:#FFFFFF" transform="translate(9.72000000000001 1.1760000000000534)  rotate(0 5.351080407348453 5.351999999999999)" opacity="1" d="M1.92,2.18C1.6,2.22 1.28,2.27 0.96,2.3C0.92,2.46 0.88,2.63 0.84,2.78C0.56,5.42 0.28,8.06 0,10.7C3.36,10.02 6.73,9.34 10.09,8.64C10.3,6.8 10.49,4.96 10.69,3.12C10.7,3.05 10.75,2.63 10.45,2.28C10.24,2.02 9.95,1.94 9.85,1.92C9.01,2 8.16,2.09 7.32,2.18C7.56,1.45 7.81,0.73 8.05,0C7.25,0.13 6.44,0.25 5.64,0.38C5.44,1.07 5.24,1.74 5.04,2.42L1.8,2.78C1.84,2.58 1.88,2.39 1.92,2.18Z " /><path id="分组 1" fill-rule="evenodd" style="fill:#0033FF" transform="translate(11.160000000000029 5.520000000000032)  rotate(0 1.4399999999999655 2.2199999999999998)" opacity="1" d="M0.84 0.36C0.76 0.68 0.68 1 0.6 1.32C1.2 1.28 1.8 1.24 2.4 1.2C2.56 0.8 2.72 0.4 2.88 0C2.2 0.12 1.52 0.24 0.84 0.36Z M0.36 3.24C0.24 3.64 0.12 4.04 0 4.44C0.56 4.36 1.12 4.28 1.68 4.2C1.84 3.8 2 3.4 2.16 3C1.56 3.08 0.96 3.16 0.36 3.24Z " /><path id="路径 6" fill-rule="evenodd" style="fill:#0033FF" transform="translate(15.984258518161326 4.705933005043417)  rotate(0 1.295724009182388 0.9349293660503484)" opacity="1" d="M0.93,1.87C1.37,1.87 1.85,1.69 2.19,1.4C2.52,1.11 2.66,0.76 2.56,0.47C2.45,0.18 2.11,0 1.67,0C1.22,0 0.74,0.18 0.41,0.47C0.07,0.76 -0.07,1.11 0.04,1.4C0.14,1.69 0.48,1.87 0.93,1.87Z " /><path id="路径 7" fill-rule="evenodd" style="fill:#0033FF" transform="translate(15.164210555776393 7.873005732562162)  rotate(0 1.3957608856298194 0.9468537244690518)" opacity="1" d="M0.99,1.89C1.47,1.84 1.99,1.62 2.35,1.31C2.71,1 2.87,0.64 2.75,0.37C2.64,0.1 2.28,-0.04 1.8,0.01C1.32,0.05 0.8,0.27 0.44,0.58C0.08,0.9 -0.08,1.25 0.04,1.52C0.15,1.79 0.51,1.93 0.99,1.89Z " /><path id="路径 8" fill-rule="evenodd" style="fill:#0033FF" transform="translate(6.37815588141963 11.396735773096117)  rotate(0 0.9415668763928631 0.7836543206538813)" opacity="1" d="M0.8,1.56C1.13,1.51 1.47,1.32 1.68,1.06C1.89,0.8 1.94,0.5 1.82,0.29C1.7,0.07 1.41,-0.04 1.08,0.01C0.75,0.06 0.42,0.25 0.21,0.51C0,0.77 -0.06,1.07 0.06,1.28C0.19,1.5 0.47,1.6 0.8,1.56Z " /><path id="路径 9" fill-rule="evenodd" style="fill:#0033FF" transform="translate(6.763924344590397 7.964038488718074)  rotate(0 0.8559907999408871 0.8559966558132348)" opacity="1" d="M1.4,1.4C1.76,1.03 1.82,0.49 1.52,0.19C1.22,-0.11 0.68,-0.05 0.31,0.31C-0.05,0.68 -0.11,1.22 0.19,1.52C0.49,1.82 1.03,1.76 1.4,1.4Z " /><path id="路径 10" fill-rule="evenodd" style="fill:#0033FF" transform="translate(7.147455572866938 4.98756972380699)  rotate(0 0.7724595716643377 0.7724654207242867)" opacity="1" d="M1.26,1.26C1.59,0.92 1.64,0.44 1.37,0.17C1.11,-0.1 0.62,-0.04 0.29,0.29C-0.04,0.62 -0.1,1.11 0.17,1.37C0.44,1.64 0.92,1.59 1.26,1.26Z " /></g></g></g></svg>