<svg xmlns="http://www.w3.org/2000/svg" xmlns:xlink="http://www.w3.org/1999/xlink" width="32" height="32" viewBox="0 0 32 32" fill="none"><g opacity="1" transform="translate(0 0)  rotate(0 16 15.999999999999998)"> <g opacity="1" transform="translate(7.936242338978445 4)  rotate(0 8.063757661021759 12)"><path id="路径 2" fill-rule="evenodd" style="fill:#C7C6C7" transform="translate(3.4508160531612178 0.7887391398702351)  rotate(0 4.558403364488768 6.051200694449626)" opacity="1" d="M3.99 12.1L3.94 11.96L0 0L0.23 0L3.93 11.25L1.5 0L1.73 0L4.22 11.55L3.27 0L3.49 0L4.47 11.77C4.48 11.76 4.49 11.76 4.5 11.76L4.49 11.76L4.56 0L4.78 0L4.71 11.76L4.74 11.76L5.85 0L6.07 0L4.98 11.44L7.26 0L7.48 0L5.16 11.71L8.88 0L9.12 0L5.32 11.97L5.31 11.97L5.26 12.1C5.06 12.02 4.83 11.97 4.6 11.97C4.38 11.98 4.18 12.02 3.99 12.1Z" /><path id="路径 3" fill-rule="evenodd" style="fill:#49AFD0" transform="translate(6.754241156617761 16.919008313939095)  rotate(0 1.2551877932515632 3.540495843030425)" opacity="1" d="M2.51,0L0,0L0,7.08L1.26,5.79L2.51,7.08L2.51,0Z " /><path id="路径 4" fill-rule="evenodd" style="fill:#626062" transform="translate(0 0)  rotate(0 8.063757661021748 7.828602644595921)" opacity="1" d="M13.14,0.79L8.68,12.88L7.45,12.88L3.01,0.72L0,0L5.76,15.65L10.43,15.66L16.13,0L13.14,0.79Z " /></g></g></svg>