<svg xmlns="http://www.w3.org/2000/svg" xmlns:xlink="http://www.w3.org/1999/xlink" width="32" height="32" viewBox="0 0 32 32" fill="none"><defs><rect id="path_0" x="0" y="0" width="24" height="24" /></defs><g opacity="1" transform="translate(0 0)  rotate(0 16 15.999999999999998)"> <g opacity="1" transform="translate(4 4)  rotate(0 12 12)"><mask id="bg-mask-0" fill="white"><use xlink:href="#path_0"></use></mask><g mask="url(#bg-mask-0)" ><path id="分组 1" fill-rule="evenodd" style="fill:#FFFFFF" transform="translate(3.9303669475956573 2.8538036668733993)  rotate(0 7.9572625896908225 9.311387837136287)" opacity="1" d="M14.82 3.97C14.43 1.9 12.91 0.89 11.1 0.4C9.17 -0.14 7.14 -0.13 5.21 0.41C0.93 1.63 -0.19 5.05 2.69 8.39C3.78 9.67 2.62 9.71 2.13 10.13C-0.81 12.61 -0.71 15.26 2.44 17.37C5.55 19.46 11.88 18.85 14.52 16.21C16.36 14.36 16.39 11.89 14.53 10.05C13.95 9.48 13.26 9.02 12.38 8.32C14.14 7.26 15.21 5.98 14.82 3.97Z " /><path id="路径 3" fill-rule="evenodd" style="fill:#74B5F7" transform="translate(8.74916905835974 13.526342931524619)  rotate(0 3.210498816743212 2.749930343280968)" opacity="1" d="M0,2.57C-0.08,4.48 1.12,5.48 3.64,5.49C5.1,5.6 6.26,5 6.42,3.25C6.52,2.08 3.68,-0.1 2.14,0C0.65,0.11 0.07,1.18 0,2.57Z " /><path id="路径 4" fill-rule="evenodd" style="fill:#74B5F7" transform="translate(9.396643341453993 5.217636101271696)  rotate(0 2.488513238715215 2.324803277994281)" opacity="1" d="M4.97,2.76C5.06,0.71 3.99,-0.03 2.56,0C1.39,0.03 -0.18,0.31 0.02,1.97C0.24,3.79 2.02,4.35 3.47,4.62C4.9,4.88 4.9,3.45 4.97,2.76Z " /></g></g></g></svg>