<svg xmlns="http://www.w3.org/2000/svg" xmlns:xlink="http://www.w3.org/1999/xlink" width="32" height="32" viewBox="0 0 32 32" fill="none"><defs><rect id="path_0" x="0" y="0" width="26" height="26" /></defs><g opacity="1" transform="translate(0 0)  rotate(0 16 15.999999999999998)"> <g opacity="1" transform="translate(3 3)  rotate(0 13 13)"><mask id="bg-mask-0" fill="white"><use xlink:href="#path_0"></use></mask><g mask="url(#bg-mask-0)" ><path id="路径 1" fill-rule="evenodd" style="fill:#CECECE" transform="translate(12.252499999999978 18.654999996710018)  rotate(0 0.747500000000002 0.2600000016449986)" opacity="1" d="M0.75,0.52C1.16,0.52 1.5,0.4 1.5,0.26C1.5,0.17 1.35,0.08 1.12,0.03C0.89,-0.01 0.61,-0.01 0.37,0.03C0.14,0.08 0,0.17 0,0.26C0,0.4 0.33,0.52 0.75,0.52Z " /><path id="路径 2" fill-rule="evenodd" style="fill:#6AAA53" transform="translate(12.252499999999976 7.117500000000066)  rotate(0 0.7475000000000006 5.89875)" opacity="1" d="M0.68,11.28L0.68,11.8L0.85,11.8L0.85,11.28C1.2,11.25 1.5,10.92 1.5,10.53L1.5,0.75C1.5,0.33 1.17,0 0.75,0C0.33,0 0,0.33 0,0.75L0,10.53C0,10.92 0.29,11.24 0.68,11.28Z " /><path id="路径 3" fill-rule="evenodd" style="fill:#CECECE" transform="translate(15.437499999999998 17.67999999670999)  rotate(0 0.7475000000000028 0.2600000032900013)" opacity="1" d="M0.37,0.49C0.61,0.53 0.89,0.53 1.12,0.49C1.35,0.44 1.5,0.35 1.5,0.26C1.5,0.17 1.35,0.08 1.12,0.03C0.89,-0.01 0.61,-0.01 0.37,0.03C0.14,0.08 0,0.17 0,0.26C0,0.35 0.14,0.44 0.37,0.49Z " /><path id="路径 4" fill-rule="evenodd" style="fill:#4C81C3" transform="translate(15.437499999999998 8.547500000000014)  rotate(0 0.7487333556143119 4.696250000000001)" opacity="1" d="M1.5,8.25L1.5,0.75C1.5,0.33 1.17,0 0.75,0C0.33,0 0,0.33 0,0.75L0,8.25C0,8.65 0.29,8.97 0.68,9L0.68,9.39L0.84,9.39L0.84,9C1.23,8.94 1.53,8.61 1.5,8.25Z " /><path id="路径 5" fill-rule="evenodd" style="fill:#CECECE" transform="translate(8.807500000000045 17.74499999670997)  rotate(0 0.7475000000000006 0.26000000328999984)" opacity="1" d="M0.37,0.49C0.61,0.53 0.89,0.53 1.12,0.49C1.35,0.44 1.5,0.35 1.5,0.26C1.5,0.17 1.35,0.08 1.12,0.03C0.89,-0.01 0.61,-0.01 0.37,0.03C0.14,0.08 0,0.17 0,0.26C0,0.35 0.14,0.44 0.37,0.49Z " /><path id="路径 6" fill-rule="evenodd" style="fill:#F4B316" transform="translate(8.807500000000045 8.547500000000014)  rotate(0 0.7474999999999999 4.72875)" opacity="1" d="M0.68,9L0.68,9.46L0.84,9.46L0.84,9C1.2,8.94 1.5,8.61 1.5,8.25L1.5,0.75C1.5,0.33 1.17,0 0.75,0C0.33,0 0,0.33 0,0.75L0,8.25C0,8.65 0.29,8.97 0.68,9Z " /><path id="路径 7" fill-rule="evenodd" style="fill:#CECECE" transform="translate(18.395 17.61499999671002)  rotate(0 0.7475000000000028 0.26000000328999695)" opacity="1" d="M0.37,0.49C0.61,0.53 0.89,0.53 1.12,0.49C1.35,0.44 1.5,0.35 1.5,0.26C1.5,0.17 1.35,0.08 1.12,0.03C0.89,-0.01 0.61,-0.01 0.37,0.03C0.14,0.08 0,0.17 0,0.26C0,0.35 0.14,0.44 0.37,0.49Z " /><path id="路径 8" fill-rule="evenodd" style="fill:#F4B316" transform="translate(18.394999999999996 10.46500000000001)  rotate(0 0.7487333556143119 3.721250000000001)" opacity="1" d="M1.5,0.75C1.5,0.33 1.17,0 0.75,0C0.33,0 0,0.33 0,0.75L0,6.34C0,6.73 0.29,7.05 0.68,7.09L0.68,7.44L0.84,7.44L0.84,7.09C1.23,7.02 1.53,6.7 1.5,6.34L1.5,0.75Z " /><path id="路径 9" fill-rule="evenodd" style="fill:#CECECE" transform="translate(5.654999999999988 17.809999996709948)  rotate(0 0.7475000000000009 0.2600000039713828)" opacity="1" d="M0.37,0.49C0.61,0.53 0.89,0.53 1.12,0.49C1.35,0.44 1.5,0.35 1.5,0.26C1.5,0.17 1.35,0.08 1.12,0.03C0.89,-0.01 0.61,-0.01 0.37,0.03C0.14,0.08 0,0.17 0,0.26C0,0.35 0.14,0.44 0.37,0.49Z " /><path id="路径 10" fill-rule="evenodd" style="fill:#4C81C3" transform="translate(5.654999999999989 10.465000000000012)  rotate(0 0.7487333556143106 3.8024999999999998)" opacity="1" d="M1.5,0.75C1.5,0.33 1.17,0 0.75,0C0.32,0 0,0.33 0,0.75L0,6.34C0,6.73 0.29,7.05 0.68,7.08L0.68,7.61L0.84,7.61L0.84,7.08C1.24,7.02 1.53,6.69 1.5,6.34L1.5,0.75Z " /><path id="路径 11" fill-rule="evenodd" style="fill:#CECECE" transform="translate(2.8924999999999805 17.809999996709948)  rotate(0 0.7475000000000005 0.26000000164500003)" opacity="1" d="M0.75,0.52C1.16,0.52 1.5,0.4 1.5,0.26C1.5,0.17 1.35,0.08 1.12,0.03C0.89,-0.01 0.61,-0.01 0.37,0.03C0.14,0.08 0,0.17 0,0.26C0,0.4 0.33,0.52 0.75,0.52Z " /><path id="路径 12" fill-rule="evenodd" style="fill:#69AA52" transform="translate(2.892499999999981 13.454999999999977)  rotate(0 0.7474999999999999 2.307500000000001)" opacity="1" d="M1.5,0.75C1.5,0.33 1.17,0 0.75,0C0.32,0 0,0.32 0,0.75L0,3.35C0,3.74 0.29,4.03 0.65,4.1L0.65,4.62L0.81,4.62L0.81,4.1C1.2,4.06 1.5,3.74 1.5,3.35L1.5,0.75Z " /><path id="路径 13" fill-rule="evenodd" style="fill:#CECECE" transform="translate(21.222499999999986 17.67999999670999)  rotate(0 0.7475000000000028 0.2600000032900013)" opacity="1" d="M0.37,0.49C0.61,0.53 0.89,0.53 1.12,0.49C1.35,0.44 1.5,0.35 1.5,0.26C1.5,0.17 1.35,0.08 1.12,0.03C0.89,-0.01 0.61,-0.01 0.37,0.03C0.14,0.08 0,0.17 0,0.26C0,0.35 0.14,0.44 0.37,0.49Z " /><path id="路径 14" fill-rule="evenodd" style="fill:#CA3C2A" transform="translate(21.222499999999986 13.454999999999979)  rotate(0 0.7474999999999999 2.242500000000001)" opacity="1" d="M0.65,4.1L0.65,4.49L0.81,4.49L0.81,4.1C1.2,4.06 1.5,3.74 1.5,3.35L1.5,0.75C1.5,0.33 1.17,0 0.75,0C0.33,0 0,0.32 0,0.75L0,3.35C0,3.74 0.29,4.03 0.65,4.1Z " /></g></g></g></svg>