<svg xmlns="http://www.w3.org/2000/svg" xmlns:xlink="http://www.w3.org/1999/xlink" width="32" height="32" viewBox="0 0 32 32" fill="none"><g opacity="1" transform="translate(0 0)  rotate(0 16 15.999999999999998)"> <path id="文本 1" fill-rule="evenodd" style="fill:#FFFFFF" transform="translate(4 12.459504132231359)  rotate(0 12 3.5404958677685947)" opacity="1" d="M7.05 0.72C7.45 0.32 8.03 0.16 8.03 0.16C8.62 0 9.36 0 9.36 0C10.12 0 10.7 0.16 10.7 0.16C11.29 0.32 11.68 0.72 11.68 0.72C12.08 1.12 12.28 1.8 12.28 1.8C12.49 2.49 12.49 3.54 12.49 3.54C12.49 4.59 12.28 5.28 12.28 5.28C12.08 5.96 11.68 6.36 11.68 6.36C11.29 6.76 10.7 6.92 10.7 6.92C10.12 7.08 9.36 7.08 9.36 7.08C8.62 7.08 8.03 6.92 8.03 6.92C7.45 6.76 7.05 6.36 7.05 6.36C6.65 5.96 6.45 5.28 6.45 5.28C6.24 4.59 6.24 3.54 6.24 3.54C6.24 2.49 6.45 1.8 6.45 1.8C6.65 1.12 7.05 0.72 7.05 0.72ZM17.89 3.59C17.89 3.59 17.66 3.33 17.27 3.15C17.27 3.15 16.88 2.97 16.26 2.82C16.26 2.82 15.89 2.73 15.65 2.65C15.65 2.65 15.42 2.57 15.3 2.47C15.3 2.47 15.17 2.38 15.13 2.26C15.13 2.26 15.09 2.14 15.09 1.97C15.09 1.97 15.09 1.54 15.36 1.39C15.36 1.39 15.62 1.24 16.2 1.24C16.2 1.24 16.42 1.24 16.67 1.26C16.67 1.26 16.91 1.28 17.15 1.32C17.15 1.32 17.39 1.36 17.58 1.4C17.58 1.4 17.78 1.45 17.91 1.49L17.91 0.25C17.91 0.25 17.63 0.15 17.18 0.07C17.18 0.07 16.73 0 16.15 0C16.15 0 14.95 0 14.29 0.46C14.29 0.46 13.63 0.92 13.63 2.01C13.63 2.01 13.63 2.48 13.72 2.8C13.72 2.8 13.8 3.11 14.02 3.34C14.02 3.34 14.24 3.56 14.6 3.71C14.6 3.71 14.97 3.87 15.52 4C15.52 4 15.92 4.1 16.16 4.19C16.16 4.19 16.4 4.27 16.54 4.38C16.54 4.38 16.67 4.49 16.72 4.63C16.72 4.63 16.77 4.77 16.77 4.97C16.77 4.97 16.77 5.2 16.71 5.36C16.71 5.36 16.65 5.51 16.51 5.61C16.51 5.61 16.36 5.71 16.13 5.75C16.13 5.75 15.9 5.79 15.56 5.79C15.56 5.79 15.29 5.79 15.02 5.77C15.02 5.77 14.75 5.74 14.49 5.71C14.49 5.71 14.23 5.67 14 5.62C14 5.62 13.78 5.57 13.62 5.51L13.62 6.83C13.62 6.83 13.93 6.92 14.47 7C14.47 7 15.01 7.08 15.62 7.08C15.62 7.08 17.04 7.08 17.65 6.55C17.65 6.55 18.27 6.02 18.27 5.01C18.27 5.01 18.27 4.52 18.19 4.18C18.19 4.18 18.11 3.84 17.89 3.59ZM23.62 3.59C23.84 3.84 23.92 4.18 23.92 4.18C24 4.52 24 5.01 24 5.01C24 6.02 23.39 6.55 23.39 6.55C22.77 7.08 21.35 7.08 21.35 7.08C20.75 7.08 20.21 7 20.21 7C19.67 6.92 19.35 6.83 19.35 6.83L19.35 5.51C19.51 5.57 19.74 5.62 19.74 5.62C19.96 5.67 20.22 5.71 20.22 5.71C20.48 5.74 20.75 5.77 20.75 5.77C21.02 5.79 21.29 5.79 21.29 5.79C21.63 5.79 21.86 5.75 21.86 5.75C22.1 5.71 22.24 5.61 22.24 5.61C22.38 5.51 22.44 5.36 22.44 5.36C22.5 5.2 22.5 4.97 22.5 4.97C22.5 4.77 22.45 4.63 22.45 4.63C22.4 4.49 22.27 4.38 22.27 4.38C22.14 4.27 21.89 4.19 21.89 4.19C21.65 4.1 21.25 4 21.25 4C20.7 3.87 20.34 3.71 20.34 3.71C19.97 3.56 19.76 3.34 19.76 3.34C19.54 3.11 19.45 2.8 19.45 2.8C19.36 2.48 19.36 2.01 19.36 2.01C19.36 0.92 20.02 0.46 20.02 0.46C20.68 0 21.88 0 21.88 0C22.46 0 22.91 0.07 22.91 0.07C23.37 0.15 23.64 0.25 23.64 0.25L23.64 1.49C23.51 1.45 23.32 1.4 23.32 1.4C23.12 1.36 22.88 1.32 22.88 1.32C22.64 1.28 22.4 1.26 22.4 1.26C22.16 1.24 21.94 1.24 21.94 1.24C21.35 1.24 21.09 1.39 21.09 1.39C20.83 1.54 20.83 1.97 20.83 1.97C20.83 2.14 20.87 2.26 20.87 2.26C20.91 2.38 21.03 2.47 21.03 2.47C21.15 2.57 21.39 2.65 21.39 2.65C21.62 2.73 22 2.82 22 2.82C22.61 2.97 23 3.15 23 3.15C23.4 3.33 23.62 3.59 23.62 3.59ZM2.32 0.1C3.07 0.1 3.57 0.21 3.57 0.21C4.07 0.33 4.36 0.56 4.36 0.56C4.65 0.79 4.77 1.14 4.77 1.14C4.89 1.49 4.89 1.95 4.89 1.95C4.89 2.49 4.67 2.85 4.67 2.85C4.45 3.2 3.89 3.36 3.89 3.36L3.89 3.4C5.1 3.71 5.1 5 5.1 5C5.1 5.46 4.98 5.84 4.98 5.84C4.86 6.21 4.57 6.46 4.57 6.46C4.27 6.71 3.78 6.85 3.78 6.85C3.28 6.98 2.53 6.98 2.53 6.98L0 6.98L0 0.1L2.32 0.1ZM10.91 3.54C10.91 2.92 10.84 2.47 10.84 2.47C10.78 2.03 10.61 1.76 10.61 1.76C10.44 1.48 10.14 1.35 10.14 1.35C9.84 1.23 9.36 1.23 9.36 1.23C8.89 1.23 8.59 1.35 8.59 1.35C8.29 1.48 8.12 1.76 8.12 1.76C7.95 2.03 7.89 2.47 7.89 2.47C7.82 2.92 7.82 3.54 7.82 3.54C7.82 4.18 7.89 4.61 7.89 4.61C7.95 5.05 8.12 5.32 8.12 5.32C8.29 5.58 8.59 5.7 8.59 5.7C8.89 5.82 9.36 5.82 9.36 5.82C9.84 5.82 10.14 5.7 10.14 5.7C10.44 5.58 10.61 5.32 10.61 5.32C10.78 5.05 10.84 4.61 10.84 4.61C10.91 4.18 10.91 3.54 10.91 3.54ZM2.64 2.9C2.64 2.9 2.38 2.94 2.01 2.94L1.51 2.94L1.51 1.3L2.01 1.3C2.01 1.3 2.38 1.3 2.65 1.32C2.65 1.32 2.92 1.35 3.08 1.44C3.08 1.44 3.24 1.53 3.32 1.69C3.32 1.69 3.4 1.84 3.4 2.11C3.4 2.11 3.4 2.37 3.32 2.53C3.32 2.53 3.24 2.69 3.07 2.78C3.07 2.78 2.91 2.87 2.64 2.9ZM1.51 5.77L2.2 5.77C2.6 5.77 2.86 5.73 2.86 5.73C3.12 5.69 3.28 5.6 3.28 5.6C3.44 5.5 3.51 5.34 3.51 5.34C3.57 5.17 3.57 4.9 3.57 4.9C3.57 4.66 3.51 4.49 3.51 4.49C3.44 4.32 3.29 4.22 3.29 4.22C3.13 4.12 2.87 4.07 2.87 4.07C2.6 4.03 2.2 4.03 2.2 4.03L1.51 4.03L1.51 5.77Z" /></g></svg>