<svg xmlns="http://www.w3.org/2000/svg" xmlns:xlink="http://www.w3.org/1999/xlink" width="500" height="453" viewBox="0 0 500 453" fill="none"><defs><rect id="path_0" x="0" y="0" width="500" height="453" /></defs><g opacity="1" transform="translate(0 0)  rotate(0 250 226.5)"><mask id="bg-mask-0" fill="white"><use xlink:href="#path_0"></use></mask><g mask="url(#bg-mask-0)" ><g opacity="1" transform="translate(77 63)  rotate(0 173 163.5)"><g opacity="1" transform="translate(0 0)  rotate(0 173 163.5)"><path id="Shape" fill-rule="evenodd" style="fill:#FFFFFF" transform="translate(0 0)  rotate(0 173 163.5)" opacity="1" d="M299.17 25.15C299.06 25.02 298.96 24.9 298.86 24.78L298.54 24.41C298.48 24.35 298.43 24.29 298.38 24.23L298.05 23.87L297.71 23.52L297.37 23.17C297.31 23.11 297.25 23.05 297.2 23L296.85 22.66L296.5 22.33C296.38 22.23 296.26 22.12 296.14 22.02L295.78 21.71L295.43 21.41C295.37 21.36 295.31 21.31 295.25 21.27L294.89 20.99L294.53 20.72C292.39 19.18 290.35 18.41 289.22 19.28L289.11 19.35C288.18 20.07 288.12 21.74 288.39 23.67L288.46 24.09L288.49 24.31L288.68 25.29L288.89 26.3L289.35 28.28L289.99 31.23L290.42 33.26C290.49 33.6 290.56 33.94 290.63 34.28L291.04 36.29C296.08 61.4 297.88 83.17 296.94 101.92L296.77 104.83C295.6 122.58 291.9 137.57 286.13 150.08C278.57 148.68 271.15 147.13 263.89 145.42C266.29 105.1 262.14 74.77 251.43 54.41L250.94 53.43L250.75 53.08L250.33 52.34L250.15 52.03C250.12 51.98 250.09 51.93 250.06 51.88L249.86 51.57L249.66 51.27C249.62 51.22 249.59 51.17 249.55 51.12L249.34 50.83C248.22 49.33 246.83 48.18 245.27 48.59C243.77 48.99 243.07 50.84 242.71 52.82L242.64 53.22C242.63 53.29 242.62 53.35 242.61 53.42L242.56 53.82L242.45 54.74L242.23 57.42C240.29 86.7 233.16 111.84 220.82 132.86C172.38 115.76 133.87 91.23 110.94 62.83C106.79 63.44 102.74 63.78 98.79 63.85C96.09 47.34 100.21 27.79 111.13 5.2L111.34 4.69L111.49 4.23C111.78 3.21 111.91 1.75 110.7 0.72C109.61 -0.37 108.07 -0.02 106.93 0.44L106.39 0.67L105.73 0.99C91.8 9.53 81.94 18.6 74.78 26.92L73.42 28.53C72.76 29.32 72.13 30.11 71.52 30.89L70.32 32.43L69.19 33.95L67.85 35.82L66.59 37.63L65.65 39.04L64.76 40.42L63.91 41.77L63.11 43.07L61.63 45.55L60.95 46.73L57.56 52.72C51.79 49.13 46.31 44.67 41.15 39.34L38.63 42.31L36.31 45.09L34.18 47.69L32.25 50.09L31.07 51.6L29.98 53.02L28.98 54.35L28.07 55.61L27.24 56.78L26.86 57.33C-1.32 98.71 -7.33 151.23 8.85 214.91C29.27 270.58 62.19 307.94 107.61 327L118.28 307.26C176.3 331.26 232.02 325.47 285.44 289.89C311.13 269.28 325.84 243.26 334.31 219.13L335.19 216.56L336.03 214L336.82 211.46L337.57 208.93L338.27 206.44L338.94 203.96L339.25 202.73L339.86 200.3C340.15 199.09 340.43 197.89 340.69 196.71L341.2 194.35L341.68 192.03L342.12 189.74L342.33 188.62L342.79 186.04L343.2 183.53L343.67 180.47L344.15 176.92L344.5 174.09L344.74 171.9L344.96 169.78L345.15 167.75L345.38 164.84L345.52 163.01L345.63 161.27L345.8 158.07L345.9 155.71C346.7 133.27 342.52 110.36 333.37 86.99L332.76 85.36C332.65 85.09 332.55 84.82 332.45 84.55L331.83 82.94C331.63 82.41 331.42 81.88 331.21 81.35L330.59 79.78C322.58 59.68 313.49 43.39 299.17 25.15Z M172.147 201.937C174.407 209.187 181.857 213.147 188.797 210.797C195.737 208.437 199.537 200.657 197.287 193.417C195.027 186.177 187.577 182.217 180.637 184.567C173.687 186.917 169.887 194.697 172.147 201.937Z " /></g></g></g></g></svg>