<svg width="128" height="128" viewBox="0 0 128 128" fill="none" xmlns="http://www.w3.org/2000/svg">
 
<path d="M48.5093 54.6926C53.4846 57.5689 55.6225 55.4311 56.361 54.6926C57.6048 53.656 60.2013 51.5829 60.6367 51.5829C61.1808 51.5829 62.8911 48.6288 63.2798 43.9644C63.6685 39.3 59.2373 30.4378 53.5623 26.2398C47.8873 22.0419 40.3465 27.4836 38.4031 29.1161C36.4596 30.7487 33.6609 32.459 34.4383 40.3107C35.2157 48.1624 43.5339 51.8162 48.5093 54.6926Z" fill="white"/>
<path d="M76.34 25.8511C60.9963 29.8523 66.8558 50.961 67.7887 51.3497C68.7475 51.9457 70.9604 53.3709 72.1421 54.3038C73.6192 55.4699 76.34 54.7702 79.5274 54.7702C82.7147 54.7702 91.0329 46.4521 93.7538 39.0668C96.4747 31.6815 90.4109 27.7168 89.4003 27.7168H86.1353C85.0469 27.7168 81.5702 24.4872 76.34 25.8511Z" fill="white"/>
<path d="M76.9576 58.3479C74.3878 59.5184 75.0067 61.8595 75.0067 63.1276C75.3969 63.4852 75.7481 65.0394 74.0313 68.395C71.8853 72.5894 75.6895 74.1501 76.1773 76.0034C76.665 77.8567 87.2973 82.0511 93.7538 81.4659C100.21 80.8806 102.709 73.3697 103.587 71.7115C104.465 70.0532 103.685 70.3458 103.587 64.7858C103.49 59.2258 89.7359 54.7702 87.785 54.7702C85.8341 54.7702 79.5274 57.1774 76.9576 58.3479Z" fill="white"/>
<path d="M70.8123 72.3943C70.6172 70.4434 64.1793 71.7115 63.2039 72.3943H58.0341C54.4249 72.3943 52.8642 82.929 52.8642 83.6119C52.8642 84.2947 52.5716 88.1964 52.8642 92.5859C53.0983 96.0975 59.8549 101.137 63.2039 103.218C65.2198 103.413 69.4077 103.452 70.032 102.048C70.8123 100.292 73.0558 97.1705 76.1773 97.1705C79.2987 97.1705 78.6159 89.6596 78.6159 85.5627C78.6159 81.4659 71.0074 74.3451 70.8123 72.3943Z" fill="white"/>
<path d="M51.7803 60.339C49.8257 55.7782 43.7011 55.7781 39.4008 55.9084C35.3612 57.7762 26.891 61.9288 25.3272 63.5967C23.3726 65.6817 24.1544 71.9366 24.1544 74.0216C24.1544 75.6896 30.7569 80.7109 34.0581 83.0131C35.3177 83.0999 38.7493 83.2216 42.398 83.0131C46.9589 82.7524 50.6076 77.6703 54.126 74.0216C57.6444 70.3729 53.735 64.8999 51.7803 60.339Z" fill="white"/>
<g filter="url(#filter0_f_367_155)">
<circle cx="63.782" cy="64.1126" r="21.6624" fill="#FF48A2"/>
</g>
<g filter="url(#filter1_f_367_155)">
<path d="M62.8244 58.4213C62.8244 59.0076 58.4506 57.8351 56.1893 57.8351C57.7806 59.1193 60.9632 61.9054 60.9632 62.7764C60.9632 63.8652 58.7856 68.4715 59.4557 68.4715C60.1257 68.4715 63.1407 64.5352 63.8945 64.5352C64.4975 64.5352 68.2775 67.4386 70.0921 68.8903C69.2825 67.3269 67.6633 63.7814 67.6633 62.1064C67.6633 60.4314 71.46 58.5609 73.3584 57.8351C70.8738 57.8351 65.6533 58.8903 65.5863 58.4213C65.5025 57.8351 64.3132 51.4699 63.8945 50.8837C63.4757 50.2974 62.8245 57.8351 62.8244 58.4213Z" fill="#D9D9D9"/>
</g>
<defs>
<filter id="filter0_f_367_155" x="20.1195" y="20.4502" width="87.3249" height="87.3248" filterUnits="userSpaceOnUse" color-interpolation-filters="sRGB">
<feFlood flood-opacity="0" result="BackgroundImageFix"/>
<feBlend mode="normal" in="SourceGraphic" in2="BackgroundImageFix" result="shape"/>
<feGaussianBlur stdDeviation="11" result="effect1_foregroundBlur_367_155"/>
</filter>
<filter id="filter1_f_367_155" x="52.1893" y="46.8512" width="25.1691" height="26.0391" filterUnits="userSpaceOnUse" color-interpolation-filters="sRGB">
<feFlood flood-opacity="0" result="BackgroundImageFix"/>
<feBlend mode="normal" in="SourceGraphic" in2="BackgroundImageFix" result="shape"/>
<feGaussianBlur stdDeviation="2" result="effect1_foregroundBlur_367_155"/>
</filter>
</defs>
</svg>
